<svg width="50" height="50" viewBox="0 0 50 50" fill="none" xmlns="http://www.w3.org/2000/svg">
<path d="M23.1824 47.7274C35.7343 47.7274 45.9096 37.552 45.9096 25.0001C45.9096 12.4482 35.7343 2.27283 23.1824 2.27283C10.6304 2.27283 0.455078 12.4482 0.455078 25.0001C0.455078 37.552 10.6304 47.7274 23.1824 47.7274Z" fill="#D6E4FF"/>
<path d="M23.1815 41.8182C32.4699 41.8182 39.9996 34.2885 39.9996 25.0001C39.9996 15.7116 32.4699 8.18188 23.1815 8.18188C13.893 8.18188 6.36328 15.7116 6.36328 25.0001C6.36328 34.2885 13.893 41.8182 23.1815 41.8182Z" fill="#93B2F2"/>
<path d="M8.182 3.18186C8.93511 3.18186 9.54563 2.57134 9.54563 1.81823C9.54563 1.06511 8.93511 0.45459 8.182 0.45459C7.42888 0.45459 6.81836 1.06511 6.81836 1.81823C6.81836 2.57134 7.42888 3.18186 8.182 3.18186Z" fill="#FF4D69"/>
<path d="M48.182 7.27281C48.9351 7.27281 49.5456 6.66228 49.5456 5.90917C49.5456 5.15605 48.9351 4.54553 48.182 4.54553C47.4289 4.54553 46.8184 5.15605 46.8184 5.90917C46.8184 6.66228 47.4289 7.27281 48.182 7.27281Z" fill="#00C99F"/>
<path d="M40.4554 49.5455C41.2085 49.5455 41.8191 48.935 41.8191 48.1819C41.8191 47.4288 41.2085 46.8182 40.4554 46.8182C39.7023 46.8182 39.0918 47.4288 39.0918 48.1819C39.0918 48.935 39.7023 49.5455 40.4554 49.5455Z" fill="#FFA100"/>
<path d="M5.91051 47.7273C6.66363 47.7273 7.27415 47.1168 7.27415 46.3636C7.27415 45.6105 6.66363 45 5.91051 45C5.1574 45 4.54688 45.6105 4.54688 46.3636C4.54688 47.1168 5.1574 47.7273 5.91051 47.7273Z" fill="#00C99F"/>
<path d="M46.3635 27.7274C46.363 28.1024 46.4785 28.4683 46.6942 28.7751C46.9098 29.0819 47.215 29.3145 47.568 29.441C47.743 29.4961 47.8963 29.6047 48.0064 29.7514C48.1165 29.8982 48.1777 30.0758 48.1816 30.2592V37.2728C48.1816 37.5139 48.0859 37.7452 47.9154 37.9157C47.7449 38.0861 47.5137 38.1819 47.2725 38.1819H37.0771C36.8937 38.178 36.7161 38.1167 36.5693 38.0067C36.4226 37.8966 36.314 37.7433 36.2589 37.5683C36.1333 37.2142 35.9012 36.9077 35.5943 36.6909C35.2875 36.4741 34.921 36.3577 34.5453 36.3577C34.1696 36.3577 33.8031 36.4741 33.4962 36.6909C33.1894 36.9077 32.9572 37.2142 32.8316 37.5683C32.7765 37.7433 32.668 37.8966 32.5212 38.0067C32.3745 38.1167 32.1969 38.178 32.0135 38.1819H9.09073C8.84963 38.1819 8.61839 38.0861 8.44791 37.9157C8.27742 37.7452 8.18164 37.5139 8.18164 37.2728V17.2728H32.7271C32.7271 17.755 32.9186 18.2175 33.2596 18.5585C33.6006 18.8995 34.0631 19.091 34.5453 19.091C35.0275 19.091 35.4899 18.8995 35.8309 18.5585C36.1719 18.2175 36.3635 17.755 36.3635 17.2728H47.2725C47.5137 17.2728 47.7449 17.3686 47.9154 17.5391C48.0859 17.7096 48.1816 17.9408 48.1816 18.1819V25.1956C48.1777 25.379 48.1165 25.5566 48.0064 25.7033C47.8963 25.8501 47.743 25.9586 47.568 26.0137C47.215 26.1403 46.9098 26.3729 46.6942 26.6797C46.4785 26.9864 46.363 27.3524 46.3635 27.7274Z" fill="#323FD4"/>
<path d="M38.6375 22.2728C38.637 22.6478 38.7526 23.0137 38.9682 23.3205C39.1838 23.6273 39.4891 23.8599 39.842 23.9864C40.017 24.0415 40.1703 24.1501 40.2804 24.2968C40.3905 24.4436 40.4518 24.6212 40.4557 24.8046V31.8182C40.4557 32.0593 40.3599 32.2906 40.1894 32.4611C40.0189 32.6315 39.7877 32.7273 39.5466 32.7273H29.3511C29.1677 32.7234 28.9901 32.6621 28.8434 32.5521C28.6966 32.442 28.588 32.2887 28.5329 32.1137C28.4074 31.7596 28.1752 31.4531 27.8683 31.2363C27.5615 31.0195 27.195 30.9032 26.8193 30.9032C26.4436 30.9032 26.0771 31.0195 25.7703 31.2363C25.4634 31.4531 25.2312 31.7596 25.1057 32.1137C25.0506 32.2887 24.942 32.442 24.7952 32.5521C24.6485 32.6621 24.4709 32.7234 24.2875 32.7273H1.81931C0.570213 29.2703 0.178238 25.562 0.676998 21.9202C1.17576 18.2785 2.55037 14.8121 4.68294 11.8182H24.2875C24.4709 11.8221 24.6485 11.8834 24.7952 11.9935C24.942 12.1036 25.0506 12.2569 25.1057 12.4319C25.2312 12.786 25.4634 13.0925 25.7703 13.3093C26.0771 13.526 26.4436 13.6424 26.8193 13.6424C27.195 13.6424 27.5615 13.526 27.8683 13.3093C28.1752 13.0925 28.4074 12.786 28.5329 12.4319C28.588 12.2569 28.6966 12.1036 28.8434 11.9935C28.9901 11.8834 29.1677 11.8221 29.3511 11.8182H39.5466C39.7877 11.8182 40.0189 11.914 40.1894 12.0845C40.3599 12.255 40.4557 12.4862 40.4557 12.7273V19.741C40.4518 19.9244 40.3905 20.102 40.2804 20.2487C40.1703 20.3955 40.017 20.5041 39.842 20.5591C39.4891 20.6857 39.1838 20.9183 38.9682 21.2251C38.7526 21.5319 38.637 21.8978 38.6375 22.2728Z" fill="#4E6AFF"/>
<path d="M27.2724 16.3637C27.2724 16.1127 27.0689 15.9092 26.8178 15.9092C26.5668 15.9092 26.3633 16.1127 26.3633 16.3637V17.2728C26.3633 17.5239 26.5668 17.7274 26.8178 17.7274C27.0689 17.7274 27.2724 17.5239 27.2724 17.2728V16.3637Z" fill="#8FA2FF"/>
<path d="M27.2724 20.0001C27.2724 19.749 27.0689 19.5455 26.8178 19.5455C26.5668 19.5455 26.3633 19.749 26.3633 20.0001V20.9092C26.3633 21.1602 26.5668 21.3637 26.8178 21.3637C27.0689 21.3637 27.2724 21.1602 27.2724 20.9092V20.0001Z" fill="#8FA2FF"/>
<path d="M27.2724 23.6364C27.2724 23.3854 27.0689 23.1819 26.8178 23.1819C26.5668 23.1819 26.3633 23.3854 26.3633 23.6364V24.5455C26.3633 24.7966 26.5668 25.0001 26.8178 25.0001C27.0689 25.0001 27.2724 24.7966 27.2724 24.5455V23.6364Z" fill="#8FA2FF"/>
<path d="M27.2724 27.2728C27.2724 27.0217 27.0689 26.8182 26.8178 26.8182C26.5668 26.8182 26.3633 27.0217 26.3633 27.2728V28.1819C26.3633 28.4329 26.5668 28.6364 26.8178 28.6364C27.0689 28.6364 27.2724 28.4329 27.2724 28.1819V27.2728Z" fill="#8FA2FF"/>
<path d="M30.0002 18.6364H36.3638C36.6149 18.6364 36.8184 18.4328 36.8184 18.1818C36.8184 17.9308 36.6149 17.7273 36.3638 17.7273H30.0002C29.7491 17.7273 29.5456 17.9308 29.5456 18.1818C29.5456 18.4328 29.7491 18.6364 30.0002 18.6364Z" fill="white"/>
<path d="M30.0002 21.3636H36.3638C36.6149 21.3636 36.8184 21.1601 36.8184 20.9091C36.8184 20.6581 36.6149 20.4546 36.3638 20.4546H30.0002C29.7491 20.4546 29.5456 20.6581 29.5456 20.9091C29.5456 21.1601 29.7491 21.3636 30.0002 21.3636Z" fill="white"/>
<path d="M30.0002 24.0909H36.3638C36.6149 24.0909 36.8184 23.8874 36.8184 23.6364C36.8184 23.3854 36.6149 23.1819 36.3638 23.1819H30.0002C29.7491 23.1819 29.5456 23.3854 29.5456 23.6364C29.5456 23.8874 29.7491 24.0909 30.0002 24.0909Z" fill="white"/>
<path d="M3.63548 30.9091H5.45366C5.7047 30.9091 5.9082 30.7056 5.9082 30.4545C5.9082 30.2035 5.7047 30 5.45366 30H3.63548C3.38444 30 3.18093 30.2035 3.18093 30.4545C3.18093 30.7056 3.38444 30.9091 3.63548 30.9091Z" fill="white"/>
<path d="M30.0002 26.8182H36.3638C36.6149 26.8182 36.8184 26.6147 36.8184 26.3637C36.8184 26.1127 36.6149 25.9091 36.3638 25.9091H30.0002C29.7491 25.9091 29.5456 26.1127 29.5456 26.3637C29.5456 26.6147 29.7491 26.8182 30.0002 26.8182Z" fill="white"/>
<path d="M8.18093 27.7273C8.00169 27.7265 7.82666 27.6728 7.67787 27.5729C7.52907 27.4729 7.41314 27.3312 7.34464 27.1656C7.27615 26.9999 7.25815 26.8177 7.29292 26.6419C7.32768 26.466 7.41365 26.3044 7.54002 26.1773L16.6309 17.0864C16.8048 16.9374 17.0285 16.8596 17.2573 16.8685C17.4861 16.8773 17.7032 16.9721 17.8651 17.134C18.027 17.296 18.1218 17.513 18.1307 17.7418C18.1395 17.9706 18.0617 18.1943 17.9127 18.3682L8.82184 27.4591C8.65214 27.6298 8.42165 27.7263 8.18093 27.7273ZM8.63548 21.8182C8.09607 21.8182 7.56878 21.6582 7.12029 21.3586C6.67179 21.0589 6.32223 20.6329 6.11581 20.1346C5.90938 19.6363 5.85538 19.0879 5.96061 18.5589C6.06584 18.0298 6.32559 17.5439 6.707 17.1624C7.08842 16.781 7.57437 16.5213 8.10341 16.4161C8.63245 16.3108 9.18081 16.3648 9.67916 16.5712C10.1775 16.7777 10.6034 17.1272 10.9031 17.5757C11.2028 18.0242 11.3627 18.5515 11.3627 19.0909C11.3627 19.8142 11.0754 20.5079 10.564 21.0194C10.0525 21.5309 9.35879 21.8182 8.63548 21.8182ZM8.63548 18.1818C8.45568 18.1818 8.27991 18.2351 8.13041 18.335C7.98091 18.4349 7.86439 18.5769 7.79559 18.743C7.72678 18.9091 7.70878 19.0919 7.74385 19.2683C7.77893 19.4446 7.86551 19.6066 7.99265 19.7337C8.11979 19.8609 8.28178 19.9475 8.45812 19.9825C8.63447 20.0176 8.81726 19.9996 8.98337 19.9308C9.14949 19.862 9.29147 19.7455 9.39136 19.596C9.49125 19.4465 9.54457 19.2707 9.54457 19.0909C9.54457 18.8498 9.44879 18.6186 9.2783 18.4481C9.10781 18.2776 8.87658 18.1818 8.63548 18.1818ZM17.7264 28.1818C17.187 28.1818 16.6597 28.0219 16.2112 27.7222C15.7627 27.4225 15.4131 26.9966 15.2067 26.4982C15.0003 25.9999 14.9463 25.4515 15.0515 24.9225C15.1567 24.3935 15.4165 23.9075 15.7979 23.5261C16.1793 23.1447 16.6653 22.8849 17.1943 22.7797C17.7234 22.6745 18.2717 22.7285 18.7701 22.9349C19.2684 23.1413 19.6944 23.4909 19.994 23.9394C20.2937 24.3879 20.4537 24.9152 20.4537 25.4546C20.4537 26.1779 20.1663 26.8716 19.6549 27.383C19.1434 27.8945 18.4497 28.1818 17.7264 28.1818ZM17.7264 24.5455C17.5466 24.5455 17.3708 24.5988 17.2213 24.6987C17.0718 24.7986 16.9553 24.9405 16.8865 25.1067C16.8177 25.2728 16.7997 25.4556 16.8348 25.6319C16.8698 25.8083 16.9564 25.9702 17.0836 26.0974C17.2107 26.2245 17.3727 26.3111 17.549 26.3462C17.7254 26.3813 17.9082 26.3633 18.0743 26.2944C18.2404 26.2256 18.3824 26.1091 18.4823 25.9596C18.5822 25.8101 18.6355 25.6344 18.6355 25.4546C18.6355 25.2135 18.5397 24.9822 18.3692 24.8117C18.1987 24.6412 17.9675 24.5455 17.7264 24.5455Z" fill="white"/>
</svg>
