<svg width="211" height="211" viewBox="0 0 211 211" fill="none" xmlns="http://www.w3.org/2000/svg">
<circle cx="105.5" cy="105.5" r="105.5" fill="#E8F4FE"/>
<path d="M118.712 166.195C158.767 166.195 191.239 163.049 191.239 159.168C191.239 155.287 158.767 152.141 118.712 152.141C78.6568 152.141 46.1855 155.287 46.1855 159.168C46.1855 163.049 78.6568 166.195 118.712 166.195Z" fill="#F7F7F7"/>
<path d="M57.1169 111.099C56.8302 110.522 56.4819 109.821 56.0796 109.012C54.9177 106.677 53.3052 103.446 51.4453 99.7433C49.4336 95.741 47.1327 91.1889 44.798 86.6217C31.1321 59.8942 29.6285 58.7299 29.1343 58.3476C27.7142 57.2492 22.6552 56.7393 19.9921 57.7385C18.959 58.1262 18.3082 58.7244 18.0584 59.5156C17.9229 59.9438 17.9271 60.4259 19.161 63.1247C19.8796 64.6937 20.9653 66.8923 22.3885 69.6594C24.7794 74.3071 28.1593 80.6338 32.4356 88.4635C38.3504 99.2945 44.3807 110.07 46.471 113.797C46.9531 114.656 47.2253 115.141 47.2398 115.165L48.4259 114.28C48.4199 114.27 48.3739 114.188 48.2892 114.036C48.1779 113.838 48.0007 113.523 47.7648 113.103C45.8251 109.643 39.9103 99.0804 34.0257 88.3153C29.8323 80.6441 26.4742 74.3742 24.0452 69.6812C20.3024 62.4503 19.562 60.4888 19.4381 59.9589C19.5814 59.7133 19.9334 59.4726 20.4306 59.2863C22.8542 58.3766 27.4444 59.0014 28.3456 59.6988C28.8658 60.1023 31.3922 63.6122 43.5781 87.4461C46.3688 92.9037 49.11 98.3412 51.3667 102.842C52.228 104.561 53.0191 106.143 53.7147 107.539C53.78 107.67 53.8435 107.798 53.907 107.926C54.5953 109.306 55.1826 110.488 55.6447 111.417C56.0597 112.254 56.3736 112.886 56.5653 113.274C56.6059 113.357 56.6415 113.429 56.6712 113.488C56.7413 113.631 56.7807 113.708 56.7849 113.718L57.3994 113.315H57.4L58.0145 112.912C58.0006 112.883 57.6801 112.234 57.1169 111.099Z" fill="url(#paint0_linear_5_102389)"/>
<path opacity="0.32" d="M20.4306 59.2869C22.8542 58.3772 27.4444 59.002 28.3456 59.6994C28.8658 60.1029 31.3922 63.6128 43.578 87.4467C46.3688 92.9043 49.11 98.3418 51.3666 102.842C52.2279 104.561 53.0191 106.144 53.7146 107.539L52.6423 103.755C52.6423 103.755 52.1693 102.832 51.3848 101.3C48.5674 95.8039 41.7212 82.4725 38.2136 75.8633C33.7293 67.4124 29.4446 59.9402 28.9565 59.3776C28.4678 58.8157 26.5873 58.5242 23.8758 58.2544C21.1636 57.9835 19.4459 58.7746 18.9578 59.7533C18.4691 60.7319 26.0992 75.4472 36.0798 93.514C43.719 107.341 46.4214 111.853 47.27 113.208C47.5295 113.624 47.6154 113.744 47.6154 113.744L48.288 114.038C48.1767 113.839 47.9995 113.524 47.7636 113.104C45.8238 109.645 39.909 99.0816 34.0245 88.3165C29.8311 80.6452 26.473 74.3754 24.0439 69.6824C20.3011 62.4515 19.5608 60.49 19.4368 59.9601C19.5814 59.7139 19.9328 59.4732 20.4306 59.2869Z" fill="#3E2418"/>
<path d="M66.3457 140.993C66.685 142.987 67.0237 144.982 67.3631 146.976C68.277 147.092 69.1691 147.105 70.0831 147.221C70.605 145.417 71.1034 143.579 71.6254 141.775C70.031 141.862 67.8264 141.592 66.3457 140.993Z" fill="url(#paint1_linear_5_102389)"/>
<path d="M135.771 140.993C136.11 142.987 136.449 144.982 136.788 146.976C137.702 147.092 138.594 147.105 139.508 147.221C140.03 145.417 140.528 143.579 141.05 141.775C139.455 141.862 137.251 141.592 135.771 140.993Z" fill="url(#paint2_linear_5_102389)"/>
<path d="M158.642 95.4954C157.143 100.527 156.648 105.864 157.214 111.083C151.224 110.816 140.865 110.765 129.405 110.796C103.892 110.865 72.9194 111.336 72.5221 110.716C71.8507 109.658 71.1787 97.1618 72.6194 95.7211C73.8987 94.4394 143.952 94.5985 159.539 92.8299C159.209 93.7057 158.909 94.5954 158.642 95.4954Z" fill="url(#paint3_linear_5_102389)"/>
<path opacity="0.57" d="M77.7534 99.2733C96.8224 98.4017 116.116 97.9124 135.205 97.8314C135.417 97.832 135.589 98.0043 135.588 98.2173C135.588 98.4223 135.426 98.5892 135.224 98.6007C131.109 98.8173 125.055 99.035 120.867 99.185C106.576 99.6671 92.0798 99.9979 77.7727 100.043C77.5604 100.042 77.3887 99.8697 77.3887 99.6574C77.3893 99.4511 77.5514 99.2842 77.7534 99.2733Z" fill="#FFE385"/>
<path opacity="0.57" d="M104.086 102.877C117.497 102.264 131.067 101.92 144.492 101.863C144.642 101.863 144.763 101.984 144.762 102.134C144.761 102.278 144.648 102.396 144.506 102.403C141.611 102.556 137.353 102.709 134.408 102.814C124.356 103.153 114.162 103.386 104.099 103.418C103.949 103.417 103.828 103.296 103.829 103.147C103.83 103.002 103.943 102.885 104.086 102.877Z" fill="#FFE385"/>
<path opacity="0.57" d="M82.7399 107.473C96.1517 106.86 109.721 106.516 123.147 106.459C123.296 106.459 123.417 106.58 123.416 106.73C123.416 106.874 123.302 106.992 123.16 107C120.266 107.151 116.008 107.305 113.062 107.41C103.011 107.749 92.816 107.982 82.7532 108.014C82.6038 108.013 82.4828 107.892 82.4834 107.743C82.484 107.599 82.5977 107.481 82.7399 107.473Z" fill="#FFE385"/>
<path opacity="0.57" d="M79.0586 100.622C79.0586 104.179 133.755 98.8911 133.755 98.8911L135.77 105.235L129.405 110.795C103.892 110.864 72.9194 111.336 72.5221 110.716C71.8507 109.657 71.1787 97.1612 72.6194 95.7204C73.8987 94.4388 143.952 94.5979 159.539 92.8293C159.209 93.7057 158.909 94.5954 158.642 95.4948C158.642 95.4954 79.0586 97.0638 79.0586 100.622Z" fill="#FFE385"/>
<path d="M162.575 111.713C162.588 111.732 162.595 111.752 162.593 111.773C162.59 111.8 162.57 111.826 162.531 111.855C162.184 112.1 160.352 112.321 157.396 112.519C155.055 112.675 152.01 112.816 148.438 112.94C134.946 113.412 113.951 113.658 95.1112 113.669C85.6762 113.675 76.7807 113.623 69.6387 113.51C65.3455 113.442 61.6862 113.352 58.9233 113.242H58.922C58.5882 113.228 58.2676 113.214 57.9615 113.2C57.4444 113.176 56.9648 113.152 56.5269 113.126C54.5871 113.013 53.4458 112.882 53.297 112.734C53.1687 112.606 53.049 112.384 52.9371 112.083C52.426 110.709 52.0903 107.696 52.0002 104.506C51.9839 103.929 51.976 103.348 51.9766 102.769C51.9772 102.25 51.9839 101.733 51.9978 101.226C52.0135 100.695 52.0353 100.174 52.0667 99.6701C52.23 96.981 52.6232 94.7606 53.297 94.0856C54.7522 92.6303 70.3887 91.7527 87.8712 91.3916C94.0811 91.2646 100.525 91.2017 106.648 91.2017H106.826C109.24 91.2011 111.751 91.1908 114.313 91.1739C126.257 91.097 139.312 90.8884 148.831 90.9658C152.463 90.9954 155.581 91.0662 157.925 91.2029C158.76 91.2513 159.497 91.3081 160.124 91.3741C160.171 91.3795 160.217 91.3837 160.262 91.3886C161.759 91.5537 162.593 91.7751 162.593 92.066C162.593 92.3563 161.493 92.6067 159.54 92.8305C157.626 93.0483 154.891 93.2364 151.563 93.4009C150.078 93.4747 148.476 93.5437 146.774 93.609C121.243 94.5882 73.6712 94.6681 72.6188 95.7217C71.5065 96.834 71.6535 104.54 72.0871 108.48C72.1851 109.361 72.2958 110.054 72.4113 110.442C72.4476 110.566 72.4845 110.658 72.5214 110.717C72.5486 110.76 72.7234 110.797 73.0337 110.831C73.0603 110.834 73.0888 110.836 73.1172 110.839C73.3053 110.856 73.5369 110.874 73.8085 110.889C73.8509 110.891 73.8926 110.893 73.9367 110.895C74.0238 110.9 74.1158 110.905 74.2113 110.909C74.2821 110.912 74.3559 110.915 74.4303 110.918C74.5561 110.924 74.688 110.928 74.8265 110.933C74.9081 110.935 74.9922 110.938 75.0781 110.941C75.0781 110.941 75.0787 110.941 75.0793 110.941C76.8037 110.995 79.332 111.021 82.4506 111.028C84.2905 111.033 86.3361 111.032 88.5438 111.025C88.6031 111.024 88.6629 111.024 88.7222 111.024C88.946 111.024 89.1716 111.023 89.3984 111.022C89.4142 111.021 89.4305 111.021 89.4468 111.022C91.3612 111.015 93.3892 111.005 95.5025 110.993H95.5334C95.8685 110.99 96.2066 110.989 96.5465 110.987C96.5767 110.986 96.6082 110.986 96.639 110.986C96.8931 110.985 97.1483 110.983 97.4048 110.982C97.7895 110.979 98.1766 110.977 98.5667 110.975C98.6979 110.974 98.8292 110.974 98.9604 110.972C99.1915 110.971 99.4237 110.969 99.656 110.968C99.685 110.967 99.7135 110.967 99.7419 110.967C100.416 110.963 101.096 110.958 101.782 110.954C101.902 110.954 102.021 110.953 102.14 110.952C102.499 110.949 102.859 110.946 103.22 110.944C103.341 110.943 103.462 110.942 103.582 110.942C103.823 110.941 104.065 110.938 104.308 110.937C104.502 110.935 104.696 110.934 104.89 110.933C105.409 110.929 105.929 110.926 106.453 110.922C106.453 110.922 106.453 110.922 106.453 110.922C106.594 110.921 106.735 110.92 106.876 110.919C107.068 110.918 107.26 110.916 107.452 110.915C108.034 110.911 108.617 110.908 109.203 110.903C109.667 110.9 110.134 110.897 110.601 110.894C112.63 110.88 114.678 110.866 116.728 110.854C117.012 110.853 117.295 110.85 117.579 110.848C117.862 110.847 118.146 110.845 118.429 110.843C118.713 110.842 118.995 110.84 119.279 110.839C120.168 110.833 121.056 110.829 121.942 110.824C122.445 110.822 122.947 110.82 123.449 110.817C124.034 110.814 124.617 110.813 125.198 110.81C126.317 110.805 127.429 110.802 128.533 110.797C129.06 110.796 129.585 110.794 130.108 110.793H130.18C131 110.791 131.814 110.79 132.621 110.789C137.213 110.783 141.569 110.793 145.466 110.828C145.59 110.83 145.714 110.831 145.837 110.832C146.331 110.836 146.816 110.842 147.294 110.846C147.414 110.848 147.533 110.85 147.652 110.851C147.889 110.854 148.124 110.857 148.356 110.86C148.482 110.861 148.606 110.863 148.73 110.865C148.837 110.866 148.943 110.868 149.048 110.869C149.162 110.871 149.276 110.873 149.389 110.875C149.616 110.878 149.839 110.882 150.061 110.885C150.173 110.888 150.283 110.889 150.393 110.891C150.723 110.897 151.047 110.902 151.367 110.909H151.367C153.599 110.952 155.569 111.009 157.211 111.082C160.412 111.224 162.362 111.426 162.575 111.713Z" fill="url(#paint4_linear_5_102389)"/>
<path opacity="0.31" d="M162.575 111.713L162.532 111.855C162.185 112.1 160.353 112.321 157.397 112.519C155.056 112.675 152.01 112.816 148.439 112.94C134.947 113.412 113.952 113.658 95.112 113.669C85.677 113.675 76.7815 113.623 69.6395 113.51C65.3463 113.442 61.687 113.352 58.924 113.242H58.9228C58.589 113.228 58.2684 113.214 57.9623 113.2C57.4452 113.176 56.9656 113.152 56.5276 113.126C54.5879 113.013 53.4466 112.882 53.2978 112.734C53.1695 112.606 53.0498 112.384 52.9379 112.083C52.4268 110.709 52.0911 107.696 52.001 104.506C52.9234 106.015 53.8325 107.055 54.7772 107.761C54.819 107.791 54.8607 107.822 54.903 107.852C55.7008 108.422 56.5246 108.757 57.4029 108.939C59.2603 109.323 61.361 109.02 63.9697 108.781C69.3522 108.289 69.6425 96.8739 70.0266 94.8543C70.4113 92.8347 80.4082 93.4136 94.2501 92.8293C104.618 92.3932 137.796 92.1815 153.798 92.1035C155.073 92.0968 156.238 92.0908 157.275 92.0865C160.598 92.072 162.593 92.0654 162.593 92.0654C162.593 92.3557 161.493 92.6061 159.54 92.8299C157.626 93.0476 154.891 93.2357 151.563 93.4003C150.078 93.4741 148.476 93.543 146.774 93.6083C121.243 94.5876 73.6714 94.6674 72.619 95.7211C71.5067 96.8334 71.6536 104.54 72.0873 108.48C72.1853 109.36 72.296 110.053 72.4115 110.442C72.4478 110.565 72.4847 110.658 72.5216 110.716C72.5488 110.759 72.7236 110.797 73.0339 110.83C73.0605 110.833 73.0889 110.836 73.1174 110.838C73.3055 110.856 73.5371 110.873 73.8087 110.888C73.851 110.891 73.8928 110.892 73.9369 110.895C74.024 110.899 74.116 110.904 74.2115 110.908C74.2823 110.911 74.3561 110.914 74.4305 110.918C74.5563 110.923 74.6882 110.927 74.8267 110.932C74.9083 110.935 74.9924 110.938 75.0783 110.94C75.0783 110.94 75.0789 110.94 75.0795 110.94C76.8039 110.994 79.3322 111.02 82.4507 111.027C84.2907 111.033 86.3363 111.031 88.544 111.024C88.6032 111.024 88.6631 111.024 88.7224 111.024C88.9462 111.023 89.1718 111.022 89.3986 111.021C89.4143 111.021 89.4307 111.021 89.447 111.021C91.3613 111.014 93.3894 111.004 95.5027 110.992H95.5336C95.8687 110.99 96.2068 110.988 96.5467 110.986C96.5769 110.986 96.6084 110.986 96.6392 110.986C96.8933 110.984 97.1485 110.983 97.405 110.981C97.7896 110.978 98.1768 110.976 98.5669 110.974C98.6981 110.973 98.8294 110.973 98.9606 110.972C99.1917 110.97 99.4239 110.969 99.6562 110.967C99.6852 110.967 99.7137 110.967 99.7421 110.967C100.416 110.963 101.096 110.958 101.782 110.954C101.902 110.953 102.021 110.952 102.14 110.951C102.499 110.948 102.859 110.946 103.221 110.944C103.341 110.943 103.462 110.941 103.582 110.941C103.824 110.94 104.066 110.938 104.308 110.936C104.502 110.935 104.696 110.934 104.89 110.932C105.409 110.928 105.93 110.925 106.453 110.921C106.453 110.921 106.453 110.921 106.453 110.921C106.594 110.92 106.735 110.919 106.876 110.918C107.068 110.917 107.26 110.915 107.452 110.915C108.034 110.911 108.618 110.907 109.203 110.902C109.668 110.899 110.134 110.896 110.601 110.893C112.63 110.879 114.678 110.866 116.729 110.853C117.012 110.852 117.295 110.849 117.579 110.848C117.863 110.846 118.146 110.845 118.429 110.842C118.713 110.841 118.996 110.839 119.279 110.838C120.168 110.833 121.056 110.828 121.942 110.823C122.445 110.821 122.948 110.819 123.449 110.816C124.034 110.814 124.617 110.812 125.198 110.809C126.317 110.805 127.43 110.801 128.533 110.797C129.06 110.796 129.585 110.794 130.108 110.793H130.18C131.001 110.79 131.815 110.789 132.621 110.788C137.213 110.782 141.57 110.793 145.466 110.828C145.591 110.829 145.714 110.83 145.837 110.831C146.331 110.836 146.817 110.841 147.294 110.846C147.414 110.847 147.533 110.849 147.652 110.85C147.889 110.853 148.124 110.856 148.357 110.859C148.482 110.86 148.606 110.863 148.73 110.865C148.837 110.866 148.943 110.868 149.049 110.869C149.162 110.87 149.277 110.872 149.39 110.874C149.616 110.877 149.84 110.881 150.062 110.885C150.173 110.887 150.283 110.888 150.393 110.891C150.723 110.896 151.048 110.901 151.367 110.908H151.368C153.599 110.951 155.569 111.008 157.212 111.081C160.412 111.224 162.362 111.426 162.575 111.713Z" fill="url(#paint5_linear_5_102389)"/>
<path d="M191.237 83.032C163.41 119.364 151.569 142.435 151.569 142.435H56.5445C56.5445 142.435 56.5445 142.434 56.5439 142.433C56.5439 142.431 56.5427 142.427 56.5409 142.421C56.5373 142.409 56.5312 142.389 56.5233 142.361C56.5191 142.347 56.5143 142.331 56.5088 142.313C56.4955 142.269 56.4786 142.211 56.458 142.143C56.4508 142.119 56.4435 142.093 56.4344 142.066C56.4332 142.062 56.432 142.059 56.4314 142.055C56.4181 142.009 56.4024 141.959 56.3854 141.905C56.3848 141.905 56.3848 141.903 56.3848 141.902C56.3739 141.865 56.3619 141.826 56.3491 141.786C56.3485 141.785 56.3485 141.784 56.3485 141.783C56.3244 141.703 56.2977 141.614 56.2681 141.519C56.2608 141.495 56.2536 141.47 56.2457 141.446C56.2264 141.386 56.207 141.323 56.1871 141.258C56.1574 141.161 56.1254 141.057 56.0915 140.947C56.0752 140.897 56.0588 140.845 56.0425 140.792C55.1086 137.792 52.8755 130.877 49.411 121.654C48.6991 119.755 47.9321 117.755 47.1144 115.674C46.8621 115.033 46.6039 114.383 46.342 113.725C46.29 113.595 46.2385 113.464 46.1865 113.334C46.1865 113.334 46.5573 113.265 47.2625 113.135C47.4325 113.104 47.6224 113.069 47.8311 113.03C48.9833 112.818 50.7144 112.497 52.9378 112.083C53.8735 111.909 54.8969 111.718 56.0002 111.511C56.2947 111.456 56.5959 111.4 56.9026 111.343C57.4494 111.241 58.0149 111.135 58.5974 111.025C62.4176 110.31 66.9805 109.45 72.0885 108.48C83.4723 106.317 97.5622 103.601 112.158 100.698C114.598 100.212 117.051 99.7221 119.508 99.228C121.696 98.7882 123.888 98.3449 126.076 97.9009C128.955 97.3154 131.829 96.7269 134.677 96.139C138.775 95.2928 142.824 94.4466 146.774 93.6077C149.154 93.1033 151.499 92.6006 153.797 92.1035C155.19 91.801 156.567 91.501 157.925 91.2022C165.976 89.4349 173.341 87.7407 179.518 86.2032C180.556 85.9443 181.561 85.6903 182.53 85.4417C184.661 84.8949 186.617 84.3693 188.374 83.8721C188.566 83.8183 188.755 83.7638 188.942 83.71C189.005 83.6925 189.068 83.6743 189.129 83.6568C189.252 83.6211 189.375 83.586 189.496 83.5503C189.557 83.5328 189.618 83.5146 189.678 83.4977C189.798 83.462 189.917 83.4275 190.036 83.3925C190.45 83.2703 190.85 83.1493 191.237 83.032Z" fill="url(#paint6_linear_5_102389)"/>
<path opacity="0.4" d="M179.519 86.2032C177.796 87.076 170.555 88.9643 160.262 91.3879C159.293 91.616 158.296 91.8488 157.275 92.0865C155.448 92.5111 153.54 92.9502 151.564 93.4002C147.955 94.2222 144.118 95.0841 140.126 95.9696C137.346 96.586 134.491 97.215 131.584 97.8507C129.875 98.2251 128.148 98.6019 126.408 98.9806C124.955 99.2957 123.493 99.6126 122.026 99.9302C117.835 100.837 113.595 101.748 109.372 102.649C108.182 102.904 106.994 103.158 105.809 103.41C99.5851 104.735 93.4417 106.034 87.5947 107.263C86.3995 107.514 85.217 107.763 84.0491 108.008C79.9706 108.863 76.0657 109.68 72.413 110.441C67.3674 111.493 62.8026 112.438 58.9244 113.241H58.9231C58.6395 113.3 58.3606 113.357 58.0848 113.414C57.6173 113.511 57.16 113.606 56.7142 113.698C54.4769 114.16 52.5221 114.563 50.898 114.896C49.3 115.225 48.0238 115.487 47.1153 115.674C46.8631 115.032 46.6048 114.382 46.3429 113.724C46.2909 113.594 46.2395 113.464 46.1875 113.333C46.1875 113.333 46.5583 113.265 47.2635 113.135C47.4335 113.104 47.6234 113.069 47.8321 113.029C48.9843 112.817 50.7154 112.496 52.9388 112.082C53.8745 111.908 54.8979 111.717 56.0011 111.511C56.2957 111.456 56.5969 111.399 56.9036 111.342C57.4503 111.24 58.0159 111.134 58.5983 111.025C62.4185 110.309 66.9815 109.45 72.0894 108.479C83.4732 106.316 97.5631 103.6 112.159 100.697C114.599 100.211 117.052 99.7215 119.509 99.2273C121.697 98.7876 123.889 98.3443 126.077 97.9003C128.956 97.3148 131.829 96.7263 134.678 96.1384C138.776 95.2922 142.825 94.446 146.775 93.6071C149.155 93.1027 151.5 92.6 153.798 92.1029C155.191 91.8004 156.568 91.5004 157.926 91.2016C165.976 89.4349 173.341 87.7407 179.519 86.2032Z" fill="url(#paint7_linear_5_102389)"/>
<path d="M76.9623 152.726C76.9617 152.676 76.9593 152.626 76.9569 152.576C76.9569 152.57 76.9569 152.565 76.9563 152.559C76.9557 152.531 76.9539 152.503 76.9521 152.476C76.949 152.41 76.9448 152.346 76.9388 152.281C76.9351 152.226 76.9297 152.171 76.9242 152.116C76.9242 152.113 76.9242 152.11 76.9236 152.107C76.9176 152.047 76.9103 151.987 76.9031 151.926C76.9007 151.909 76.8988 151.893 76.8964 151.876C76.8904 151.827 76.8831 151.779 76.8765 151.73C76.8644 151.652 76.8511 151.574 76.8371 151.496C76.8293 151.45 76.8202 151.403 76.8105 151.357C76.8051 151.332 76.8009 151.308 76.796 151.285C76.7869 151.241 76.7773 151.198 76.767 151.155C76.7537 151.093 76.7392 151.032 76.7234 150.973C76.7144 150.936 76.7047 150.899 76.6944 150.862C76.6847 150.824 76.6744 150.786 76.6636 150.748C76.6466 150.688 76.6285 150.628 76.6103 150.569C76.6073 150.558 76.6037 150.546 76.6 150.535C76.5831 150.481 76.565 150.427 76.5468 150.373C76.5474 150.373 76.5468 150.373 76.5468 150.372C76.5323 150.328 76.516 150.282 76.4996 150.238C76.4972 150.23 76.4942 150.222 76.4918 150.215C76.4809 150.184 76.4706 150.155 76.4591 150.126C76.4174 150.014 76.3732 149.904 76.3267 149.796C76.3055 149.746 76.2837 149.697 76.2613 149.649C76.2438 149.609 76.2244 149.568 76.2051 149.528C76.199 149.515 76.193 149.502 76.1875 149.49C76.1754 149.465 76.1633 149.44 76.1512 149.414C76.1434 149.398 76.1349 149.381 76.1258 149.365C76.1004 149.314 76.075 149.263 76.0472 149.213C76.043 149.202 76.0369 149.191 76.0303 149.18C76.0043 149.131 75.9777 149.081 75.9498 149.032C75.9057 148.952 75.8597 148.873 75.8113 148.795C75.7472 148.689 75.6801 148.585 75.6117 148.483C75.6093 148.478 75.6057 148.473 75.602 148.467C75.5688 148.419 75.5355 148.371 75.5022 148.324C75.4992 148.318 75.4956 148.314 75.4914 148.308C75.4611 148.265 75.4297 148.223 75.3982 148.181C75.3885 148.167 75.3777 148.152 75.3656 148.137C75.3323 148.094 75.299 148.05 75.2652 148.007C75.2512 147.989 75.2373 147.971 75.2228 147.954C75.1974 147.922 75.1726 147.891 75.1466 147.859C75.146 147.856 75.1442 147.855 75.1412 147.853C74.9954 147.677 74.8424 147.507 74.6815 147.344C74.4444 147.102 74.1922 146.875 73.926 146.665C72.9897 145.927 71.8847 145.394 70.678 145.134C70.2613 145.044 69.833 144.986 69.3945 144.965C69.2596 144.958 69.1241 144.954 68.9875 144.954C68.8508 144.954 68.7153 144.958 68.5804 144.965C68.0584 144.991 67.5509 145.067 67.061 145.189C65.607 145.549 64.3102 146.309 63.2934 147.344C63.1035 147.538 62.9227 147.741 62.7533 147.954C61.6622 149.318 61.0107 151.049 61.0107 152.931C61.0107 153.024 61.0119 153.116 61.0162 153.206C61.0253 153.481 61.0482 153.753 61.0851 154.02C61.2817 155.464 61.8636 156.784 62.7249 157.873C62.8386 158.018 62.959 158.16 63.0829 158.297C63.1259 158.343 63.1694 158.39 63.213 158.436C63.2571 158.482 63.3019 158.528 63.3467 158.573C63.3642 158.591 63.3823 158.608 63.3999 158.625C63.4271 158.654 63.4555 158.68 63.4834 158.707C63.5759 158.796 63.6709 158.882 63.767 158.965C63.8069 158.999 63.8475 159.034 63.8886 159.068C63.8989 159.078 63.9086 159.085 63.9188 159.094C63.9491 159.118 63.9793 159.143 64.0102 159.166C64.0241 159.179 64.038 159.189 64.0525 159.2C64.0592 159.206 64.0658 159.212 64.0725 159.216C64.1076 159.243 64.142 159.27 64.1771 159.296C64.2031 159.316 64.2291 159.336 64.2557 159.355C64.2866 159.378 64.318 159.401 64.3495 159.424C64.3991 159.46 64.4493 159.495 64.5007 159.529C64.5382 159.556 64.5769 159.581 64.6156 159.606C64.7475 159.693 64.8812 159.776 65.0172 159.854C65.0511 159.873 65.0844 159.892 65.1189 159.91C65.1594 159.933 65.2005 159.956 65.2416 159.978C65.2495 159.982 65.258 159.987 65.2658 159.99C65.3185 160.018 65.3711 160.046 65.4243 160.072C65.4406 160.081 65.4576 160.089 65.4739 160.097C65.4993 160.109 65.5241 160.121 65.5495 160.134C65.6015 160.159 65.6529 160.183 65.7056 160.206C65.7491 160.226 65.7939 160.246 65.8386 160.265C65.8441 160.268 65.8495 160.27 65.855 160.272C65.8816 160.284 65.9082 160.295 65.9348 160.306C66.014 160.339 66.0945 160.371 66.1755 160.401C66.2082 160.414 66.2408 160.425 66.2735 160.437C66.3292 160.457 66.3836 160.477 66.4398 160.495C66.4919 160.512 66.5427 160.53 66.5947 160.545C66.6025 160.548 66.6116 160.551 66.6207 160.553C66.6703 160.569 66.7205 160.584 66.7707 160.597C66.8263 160.614 66.882 160.63 66.937 160.644C66.9673 160.652 66.9975 160.66 67.0278 160.668C67.1911 160.709 67.3568 160.745 67.5243 160.777C67.5467 160.78 67.5685 160.784 67.5909 160.789C67.6374 160.796 67.684 160.805 67.7306 160.812C67.7536 160.816 67.7759 160.819 67.7989 160.822C67.8056 160.823 67.8122 160.825 67.8189 160.826C67.8697 160.833 67.9211 160.84 67.9719 160.846C68.0354 160.854 68.1001 160.862 68.1643 160.868C68.1673 160.869 68.1697 160.869 68.1721 160.869C68.2247 160.875 68.2774 160.879 68.3306 160.884C68.3518 160.885 68.3729 160.887 68.3941 160.889C68.4401 160.892 68.4854 160.895 68.5308 160.897C68.5477 160.898 68.5641 160.899 68.5804 160.9C68.5925 160.901 68.6034 160.901 68.6143 160.901C68.6203 160.902 68.6264 160.902 68.6312 160.902C68.6808 160.904 68.731 160.906 68.7812 160.907C68.8495 160.91 68.9179 160.91 68.9868 160.91C69.1229 160.91 69.259 160.907 69.3939 160.9C71.1183 160.813 72.6988 160.179 73.9647 159.166C74.1776 158.997 74.3815 158.816 74.575 158.626C75.8065 157.418 76.6472 155.814 76.8916 154.02C76.9291 153.753 76.9521 153.481 76.9611 153.206C76.9648 153.116 76.9666 153.024 76.9666 152.931C76.9648 152.863 76.9642 152.794 76.9623 152.726ZM71.1074 154.021C70.9822 154.265 70.8159 154.484 70.6181 154.671C70.4161 154.861 70.1814 155.016 69.9225 155.127C69.755 155.199 69.5778 155.252 69.3927 155.283C69.2608 155.306 69.1248 155.318 68.9856 155.318C68.8465 155.318 68.7104 155.306 68.5786 155.283C68.3935 155.251 68.2157 155.198 68.0487 155.127C67.7899 155.017 67.5552 154.861 67.3532 154.671C67.1554 154.484 66.989 154.264 66.8638 154.021C66.7356 153.772 66.6509 153.497 66.6183 153.207C66.6074 153.117 66.6019 153.025 66.6019 152.932C66.6019 152.6 66.6703 152.283 66.7919 151.996C66.9019 151.737 67.0574 151.502 67.2467 151.3C67.5939 150.93 68.0566 150.672 68.578 150.582C68.7098 150.559 68.8459 150.548 68.985 150.548C69.1241 150.548 69.2602 150.56 69.3921 150.582C69.9141 150.672 70.3762 150.93 70.7234 151.3C70.9127 151.502 71.0681 151.737 71.1782 151.996C71.3004 152.283 71.3681 152.599 71.3681 152.932C71.3681 153.025 71.3627 153.117 71.3518 153.207C71.3203 153.497 71.2357 153.772 71.1074 154.021Z" fill="url(#paint8_linear_5_102389)"/>
<path opacity="0.32" d="M76.9619 152.726C76.9613 152.676 76.9589 152.626 76.9565 152.576C76.9565 152.57 76.9565 152.565 76.9559 152.559C76.9552 152.531 76.9534 152.503 76.9516 152.476C76.9486 152.41 76.9444 152.346 76.9383 152.281C76.9347 152.226 76.9292 152.171 76.9238 152.116C76.9238 152.113 76.9238 152.11 76.9232 152.107C76.9171 152.047 76.9099 151.987 76.9026 151.926C76.9002 151.909 76.8984 151.893 76.896 151.876C76.8899 151.827 76.8827 151.779 76.876 151.73C76.8639 151.652 76.8506 151.574 76.8367 151.496C76.8288 151.45 76.8198 151.403 76.8101 151.357C76.8046 151.332 76.8004 151.308 76.7956 151.285C76.7865 151.241 76.7768 151.198 76.7665 151.155C76.7532 151.093 76.7387 151.032 76.723 150.973C76.7139 150.936 76.7042 150.899 76.694 150.862C76.6843 150.824 76.674 150.786 76.6631 150.748C76.6462 150.688 76.628 150.628 76.6099 150.569C76.6069 150.558 76.6032 150.546 76.5996 150.535C76.5827 150.481 76.5645 150.427 76.5464 150.373C76.547 150.373 76.5464 150.373 76.5464 150.372C76.5319 150.328 76.5155 150.282 76.4992 150.238C76.4968 150.23 76.4937 150.222 76.4913 150.215C76.4804 150.184 76.4702 150.155 76.4587 150.126C76.4169 150.014 76.3728 149.904 76.3262 149.796C76.305 149.746 76.2833 149.697 76.2609 149.649C76.2433 149.609 76.224 149.567 76.2046 149.528C76.1986 149.515 76.1925 149.502 76.1871 149.49C76.175 149.465 76.1629 149.44 76.1508 149.414C76.1429 149.398 76.1345 149.381 76.1254 149.365C76.1 149.314 76.0746 149.263 76.0468 149.213C76.0425 149.202 76.0365 149.191 76.0298 149.18C76.0038 149.131 75.9772 149.081 75.9494 149.032C75.9052 148.952 75.8593 148.873 75.8109 148.794C75.7474 148.689 75.6808 148.585 75.6113 148.483C75.6089 148.478 75.6052 148.473 75.6016 148.467C75.5683 148.419 75.5351 148.371 75.5018 148.324C75.4988 148.318 75.4952 148.314 75.4909 148.308C75.4607 148.265 75.4292 148.223 75.3978 148.181C75.3881 148.167 75.3772 148.152 75.3651 148.137C75.3318 148.093 75.2986 148.05 75.2647 148.007C75.2254 147.957 75.1861 147.908 75.1461 147.859C75.1455 147.856 75.1437 147.855 75.1407 147.853C74.7778 147.412 74.3683 147.011 73.9189 146.657C73.9213 146.66 73.9232 146.663 73.9256 146.666C74.9937 148.023 75.6337 149.737 75.6337 151.599C75.6337 156.005 72.0608 159.578 67.6545 159.578C65.794 159.578 64.0817 158.943 62.7244 157.874C62.722 157.873 62.7202 157.87 62.7178 157.868C62.8339 158.015 62.9555 158.159 63.0825 158.297C63.1254 158.343 63.169 158.39 63.2125 158.436C63.2567 158.482 63.3015 158.528 63.3462 158.573C63.3916 158.618 63.4369 158.663 63.4829 158.707C63.5754 158.796 63.6704 158.882 63.7666 158.964C63.8065 158.999 63.847 159.033 63.8881 159.067C63.8984 159.077 63.9081 159.085 63.9184 159.093C63.9619 159.13 64.0067 159.166 64.0515 159.199C64.0581 159.206 64.0648 159.211 64.0714 159.215C64.1065 159.243 64.141 159.269 64.1761 159.295C64.2021 159.316 64.2281 159.336 64.2547 159.355C64.2855 159.377 64.317 159.4 64.3484 159.423C64.398 159.46 64.4482 159.494 64.4996 159.529C64.5371 159.555 64.5759 159.581 64.6146 159.605C64.7464 159.692 64.8801 159.775 65.0162 159.853C65.0501 159.873 65.0833 159.892 65.1178 159.91C65.1583 159.933 65.1995 159.955 65.2406 159.977C65.2484 159.981 65.2569 159.986 65.2648 159.99C65.3174 160.017 65.37 160.045 65.4232 160.071C65.4396 160.08 65.4565 160.088 65.4729 160.097C65.4983 160.109 65.5231 160.121 65.5485 160.133C65.6005 160.158 65.6519 160.183 65.7045 160.206C65.7481 160.225 65.7928 160.245 65.8376 160.265C65.843 160.267 65.8485 160.269 65.8539 160.271C65.8805 160.284 65.9071 160.294 65.9337 160.305C66.013 160.339 66.0934 160.371 66.1745 160.4C66.2071 160.413 66.2398 160.424 66.2725 160.437C66.3281 160.457 66.3825 160.477 66.4388 160.494C66.4908 160.512 66.5416 160.529 66.5936 160.545C66.6015 160.548 66.6106 160.55 66.6196 160.553C66.6692 160.568 66.7194 160.583 66.7696 160.597C66.8253 160.613 66.8809 160.629 66.936 160.643C66.9662 160.651 66.9965 160.66 67.0267 160.667C67.19 160.709 67.3557 160.744 67.5233 160.776C67.5457 160.78 67.5674 160.784 67.5898 160.788C67.6364 160.796 67.683 160.804 67.7295 160.812C67.7525 160.815 67.7749 160.818 67.7979 160.822C67.8045 160.822 67.8112 160.824 67.8178 160.825C67.8686 160.832 67.9201 160.839 67.9709 160.845C68.0344 160.853 68.0991 160.861 68.1632 160.868C68.1662 160.868 68.1686 160.868 68.1711 160.868C68.2237 160.874 68.2763 160.879 68.3295 160.883C68.3507 160.884 68.3719 160.886 68.393 160.888C68.439 160.891 68.4844 160.894 68.5297 160.896C68.5576 160.899 68.586 160.9 68.6132 160.901C68.6193 160.901 68.6253 160.901 68.6301 160.901C68.6797 160.904 68.7299 160.905 68.7801 160.907C68.8485 160.909 68.9168 160.91 68.9858 160.91C73.3921 160.91 76.9649 157.337 76.9649 152.93C76.9643 152.863 76.9637 152.794 76.9619 152.726Z" fill="#3E2418"/>
<path d="M81.3665 81.2277C80.3588 82.2378 80.5384 88.6177 81.3665 89.4482C81.9532 90.0355 90.2099 89.9351 100.573 89.825C104.844 89.7815 109.471 89.7355 114.067 89.7355C116.025 89.7355 118.107 89.7204 120.255 89.6968C133.635 89.5583 149.469 89.1046 152.92 89.8274C153.366 89.92 153.607 90.0325 153.607 90.1686C153.607 90.2889 153.435 90.3966 153.11 90.4915C150.231 91.3377 135.246 91.227 120.704 91.1835C118.576 91.1786 116.457 91.1732 114.388 91.1732C110.04 91.1732 105.765 91.204 101.72 91.2452C87.0453 91.3885 75.4383 91.6504 74.7361 90.9476C74.5801 90.7909 74.4416 90.3706 74.326 89.7815C73.7829 87.0004 73.7545 80.4075 74.7361 79.4259C75.569 78.593 88.6113 78.6801 102.297 78.8053C108.144 78.8591 114.109 78.9208 119.29 78.9208H120.704C134.964 78.9287 149.088 79.0491 153.074 79.7259C153.794 79.8462 154.184 79.9872 154.184 80.1463C154.184 80.3023 153.715 80.4233 152.856 80.5128C148.529 80.9719 134.298 80.6997 120.207 80.6077C117.693 80.5896 115.18 80.5793 112.73 80.5793C108.383 80.5793 104.43 80.5612 100.908 80.5436C89.1176 80.4868 82.1431 80.4511 81.3665 81.2277Z" fill="url(#paint9_linear_5_102389)"/>
<path opacity="0.28" d="M81.3666 81.2277C80.3589 82.2378 80.5385 88.6177 81.3666 89.4482C81.9533 90.0355 90.21 89.9351 100.573 89.825C104.844 89.7815 109.471 89.7355 114.067 89.7355C116.025 89.7355 118.107 89.7204 120.255 89.6968C133.636 89.5583 149.469 89.1046 152.92 89.8274C153.366 89.92 153.607 90.0325 153.607 90.1686C153.607 90.2889 153.435 90.3966 153.11 90.4915C150.231 91.3377 135.246 91.227 120.704 91.1835C118.576 91.1787 116.457 91.1732 114.388 91.1732C110.041 91.1732 105.765 91.204 101.72 91.2452C87.0455 91.3885 75.4385 91.6504 74.7363 90.9476C74.5802 90.7909 74.4417 90.3706 74.3262 89.7815C80.068 88.7538 79.2145 81.7787 79.927 80.5176C80.6958 79.1567 95.7891 79.7616 95.7891 79.7616C95.7891 79.7616 100.69 79.5716 112.561 79.7616C124.432 79.9563 154.184 80.1463 154.184 80.1463C154.184 80.3023 153.715 80.4233 152.856 80.5128C148.529 80.9719 134.298 80.6997 120.207 80.6077C117.693 80.5896 115.181 80.5793 112.73 80.5793C108.383 80.5793 104.43 80.5612 100.908 80.5436C89.1177 80.4868 82.1432 80.4511 81.3666 81.2277Z" fill="url(#paint10_linear_5_102389)"/>
<path d="M120.254 89.6968C118.107 89.7198 116.025 89.7355 114.066 89.7355C109.47 89.7355 104.844 89.7815 100.573 89.825C90.2093 89.9351 81.9525 90.0355 81.3658 89.4482C80.5378 88.6177 80.3581 82.2378 81.3658 81.2277C82.1424 80.4511 89.1175 80.4868 100.906 80.543C104.428 80.5612 108.381 80.5787 112.728 80.5787C115.179 80.5787 117.691 80.589 120.205 80.6071C120.092 81.0711 119.995 81.5404 119.921 82.0116C119.557 84.2187 119.59 86.4923 120.026 88.6867C120.093 89.0254 120.167 89.3635 120.254 89.6968Z" fill="url(#paint11_linear_5_102389)"/>
<path opacity="0.57" d="M84.1401 82.4404C93.3997 82.1525 102.768 81.991 112.037 81.9644C112.14 81.9644 112.223 82.0219 112.223 82.0914C112.223 82.1592 112.144 82.2142 112.046 82.2178C110.048 82.2892 107.108 82.3612 105.074 82.4108C98.135 82.5699 91.0964 82.6793 84.1492 82.6939C84.0458 82.6939 83.9629 82.637 83.9629 82.5668C83.9629 82.4997 84.0415 82.4441 84.1401 82.4404Z" fill="#FFE385"/>
<path opacity="0.57" d="M89.7866 85.1804C99.0462 84.8925 108.415 84.731 117.683 84.7043C117.787 84.7043 117.87 84.7618 117.87 84.8314C117.87 84.8991 117.791 84.9541 117.692 84.9578C115.695 85.0291 112.754 85.1011 110.721 85.1507C103.782 85.3098 96.7429 85.4193 89.7957 85.4338C89.6922 85.4338 89.6094 85.3769 89.6094 85.3068C89.61 85.2396 89.6886 85.184 89.7866 85.1804Z" fill="#FFE385"/>
<path opacity="0.57" d="M84.5258 87.9966C90.0686 87.7087 95.6773 87.5472 101.226 87.5206C101.288 87.5206 101.338 87.578 101.337 87.6476C101.337 87.7153 101.29 87.7704 101.232 87.774C100.035 87.8454 98.2757 87.9173 97.0582 87.9669C92.9041 88.126 88.6901 88.2355 84.5312 88.25C84.4695 88.25 84.4193 88.1932 84.4199 88.123C84.4199 88.0559 84.4671 88.0002 84.5258 87.9966Z" fill="#FFE385"/>
<path d="M152.918 89.8274C149.468 89.1047 133.635 89.5583 120.254 89.6968C120.167 89.3635 120.092 89.0254 120.026 88.6867C119.59 86.4923 119.556 84.2187 119.92 82.0116C119.995 81.5398 120.092 81.0711 120.205 80.6072C134.295 80.6997 148.527 80.9713 152.854 80.5122C152.095 83.5576 152.113 86.7953 152.918 89.8274Z" fill="url(#paint12_linear_5_102389)"/>
<path opacity="0.57" d="M121.634 83.508C130.894 83.2201 140.262 83.0586 149.531 83.032C149.634 83.032 149.717 83.0894 149.717 83.159C149.717 83.2267 149.639 83.2818 149.54 83.2854C147.542 83.3568 144.602 83.4288 142.569 83.4784C135.629 83.6374 128.591 83.7469 121.643 83.7614C121.54 83.7614 121.457 83.7046 121.457 83.6344C121.458 83.5673 121.536 83.5116 121.634 83.508Z" fill="#FFE385"/>
<path opacity="0.57" d="M132.004 85.5457C137.547 85.2578 143.156 85.0963 148.705 85.0697C148.766 85.0697 148.817 85.1272 148.816 85.1967C148.816 85.2645 148.769 85.3195 148.71 85.3231C147.514 85.3945 145.754 85.4665 144.537 85.5161C140.383 85.6752 136.169 85.7846 132.01 85.7992C131.948 85.7992 131.898 85.7423 131.898 85.6721C131.898 85.6044 131.946 85.5493 132.004 85.5457Z" fill="#FFE385"/>
<path opacity="0.57" d="M122.569 88.3619C128.112 88.074 133.72 87.9125 139.269 87.8859C139.331 87.8859 139.381 87.9433 139.38 88.0129C139.38 88.0806 139.333 88.1357 139.275 88.1393C138.078 88.2107 136.319 88.2826 135.101 88.3322C130.947 88.4913 126.733 88.6008 122.574 88.6153C122.512 88.6153 122.462 88.5585 122.463 88.4883C122.463 88.4205 122.51 88.3655 122.569 88.3619Z" fill="#FFE385"/>
<path d="M128.229 77.8388C126.888 79.1791 112.585 78.7255 93.4802 78.7255C80.0943 78.7255 70.0025 78.8561 64.7863 78.564C62.5562 78.4382 61.2153 78.2362 60.8929 77.9132C60.5596 77.5799 62.2665 77.3646 65.1431 77.2236C71.6337 76.9055 84.0785 76.9751 92.4707 76.9751C104.582 76.9751 115.684 77.6235 116.838 76.47C117.991 75.3166 118.099 65.8374 116.838 64.5763C115.804 63.5408 78.9542 64.635 65.6349 63.7997C62.6869 63.6152 60.8929 63.3358 60.8929 62.9178C60.8929 62.4388 62.4667 62.0952 65.2508 61.8515C71.2388 61.3259 82.8276 61.2593 96.3623 61.2593C116.19 61.2593 126.353 61.9797 127.725 63.3485C128.04 63.6636 128.307 64.5303 128.514 65.6916C129.216 69.585 129.259 76.8087 128.229 77.8388Z" fill="url(#paint13_linear_5_102389)"/>
<path d="M116.837 76.47C115.684 77.6234 104.582 76.9751 92.4701 76.9751C84.0779 76.9751 71.6326 76.9061 65.1426 77.2236C65.3119 76.5317 65.4577 75.8343 65.5781 75.1345C66.1521 71.8895 66.2392 68.5592 65.8448 65.2888C65.7886 64.7916 65.7166 64.2944 65.6343 63.7997C78.9536 64.635 115.804 63.5408 116.837 64.5763C118.098 65.8374 117.99 75.3166 116.837 76.47Z" fill="url(#paint14_linear_5_102389)"/>
<path d="M138.97 61.2593C138.97 61.3749 138.683 61.4698 138.147 61.5412C134.909 61.9845 122.614 61.6924 110.246 61.462C104.434 61.3543 98.6078 61.2593 93.6971 61.2593C78.412 61.2593 72.3575 60.8976 71.4908 60.0339C71.045 59.5851 70.8266 56.2427 70.8448 53.0002C70.8575 49.9753 71.0728 47.0406 71.4908 46.6227C72.3569 45.7589 89.7311 46.0456 105.375 46.0456C106.806 46.0456 108.257 46.0456 109.713 46.0432C121.048 46.0329 132.611 46.0124 137.063 46.4817C138.283 46.6075 138.97 46.7739 138.97 46.9844C138.97 47.1846 138.122 47.3485 136.73 47.487C130.601 48.1021 113.955 48.2455 113.235 48.9658C112.351 49.8501 112.297 57.799 113.307 58.8091C114.189 59.6885 133.045 60.0188 137.858 60.8547C138.565 60.9775 138.97 61.1105 138.97 61.2593Z" fill="url(#paint15_linear_5_102389)"/>
<path d="M137.856 60.8541C133.042 60.0188 114.186 59.688 113.305 58.8085C112.295 57.7984 112.349 49.8495 113.233 48.9652C113.953 48.2449 130.599 48.1015 136.728 47.4864C136.6 48.0785 136.498 48.6731 136.418 49.2731C136.367 49.6626 136.323 50.0552 136.292 50.4471C136.044 53.4949 136.402 56.5911 137.361 59.4956C137.51 59.9547 137.674 60.4083 137.856 60.8541Z" fill="url(#paint16_linear_5_102389)"/>
<path opacity="0.36" d="M191.238 83.032C163.41 119.364 151.571 142.435 151.571 142.435H56.5457C56.5457 142.435 54.113 134.167 49.4121 121.654C49.4121 121.654 59.0884 134.36 94.9395 134.36C126.373 134.36 165.97 100.863 182.531 85.4417C185.902 84.5755 188.836 83.7651 191.238 83.032Z" fill="url(#paint17_linear_5_102389)"/>
<path opacity="0.36" d="M191.238 83.032C163.41 119.364 151.571 142.435 151.571 142.435H56.5456C56.5456 142.435 56.3762 141.863 56.043 140.791H150.602C150.602 140.791 161.903 118.769 188.375 83.8697C189.398 83.5836 190.354 83.3011 191.238 83.032Z" fill="url(#paint18_linear_5_102389)"/>
<path opacity="0.4" d="M52.0932 117.595C53.0332 115.762 154.462 97.7915 154.716 98.5602C154.97 99.329 59.6308 122.492 56.234 122.591C53.7747 122.664 51.5077 118.737 52.0932 117.595Z" fill="url(#paint19_linear_5_102389)"/>
<path opacity="0.57" d="M120.026 88.6867C113.833 88.7714 102.221 88.8046 93.7046 88.0837C92.5336 87.9839 91.4213 87.8707 90.39 87.7407C86.1628 87.2103 83.2885 86.4094 83.2885 85.2137C83.2885 83.9701 86.0605 83.1687 90.0804 82.66C91.864 82.4338 93.8927 82.2656 96.0345 82.1429C106.609 81.5332 119.922 82.0128 119.922 82.0128C119.997 81.5416 120.093 81.0723 120.207 80.6084C117.692 80.5908 115.18 80.5799 112.729 80.5799C108.382 80.5799 104.429 80.5612 100.907 80.5436C89.1186 80.4874 82.1436 80.4517 81.3663 81.2283C80.3593 82.2384 80.5389 88.6183 81.3663 89.4488C81.9542 90.0355 90.2104 89.9357 100.574 89.8256C104.844 89.7821 109.471 89.7361 114.067 89.7361C116.026 89.7361 118.107 89.7204 120.255 89.6974C120.167 89.3641 120.092 89.0254 120.026 88.6867Z" fill="#FFE385"/>
<path opacity="0.57" d="M152.855 80.5128C148.528 80.9719 134.297 80.7003 120.206 80.6078C120.093 81.0717 119.996 81.5411 119.921 82.0122C119.921 82.0122 136.889 81.6009 145.047 83.0556C145.597 83.1542 146.108 83.2606 146.57 83.3774C148.276 83.8044 149.328 84.3572 149.328 85.0697C149.328 86.6974 144.669 87.578 139.374 88.0534C138.4 88.1417 137.403 88.2149 136.411 88.2778C130.306 88.6607 124.335 88.6051 124.335 88.6051C124.335 88.6051 122.677 88.651 120.026 88.6867C120.092 89.0254 120.167 89.3641 120.254 89.6968C133.635 89.5583 149.468 89.1047 152.918 89.8281C152.114 86.7954 152.096 83.5576 152.855 80.5128Z" fill="#FFE385"/>
<path opacity="0.33" d="M128.229 77.8388C126.888 79.1791 112.585 78.7255 93.4802 78.7255C80.0943 78.7255 70.0025 78.8561 64.7863 78.564C62.5562 78.4382 61.2153 78.2362 60.8929 77.9132C60.5596 77.5799 62.2665 77.3646 65.1431 77.2237C71.6337 76.9055 84.0785 76.9751 92.4707 76.9751C104.582 76.9751 115.684 77.6235 116.838 76.47C117.991 75.3166 118.099 65.8374 116.838 64.5763C115.804 63.5408 78.9542 64.635 65.6349 63.7997C62.6869 63.6152 60.8929 63.3358 60.8929 62.9178C60.8929 62.9178 117.607 61.967 118.711 63.7997C119.816 65.6324 118.952 74.2835 122.413 74.3785C125.128 74.4553 127.845 69.7006 128.513 65.691C129.216 69.585 129.259 76.8087 128.229 77.8388Z" fill="url(#paint20_linear_5_102389)"/>
<path opacity="0.57" d="M116.837 76.47C115.684 77.6234 104.582 76.9751 92.4701 76.9751C84.0779 76.9751 71.6326 76.9061 65.1426 77.2236C65.3119 76.5317 65.4577 75.8343 65.5781 75.1345C79.9172 75.4599 114.066 75.7139 114.066 70.7361C114.066 64.4354 65.8472 65.2888 65.8472 65.2888C65.8472 65.2888 65.8472 65.2888 65.8448 65.2888C65.7886 64.7916 65.7166 64.2944 65.6343 63.7997C78.9536 64.635 115.804 63.5408 116.837 64.5763C118.098 65.8374 117.99 75.3166 116.837 76.47Z" fill="#FFE385"/>
<path opacity="0.28" d="M138.97 61.2594C138.97 61.3749 138.683 61.4698 138.147 61.5412C134.909 61.9846 122.614 61.6924 110.246 61.462C104.434 61.3543 98.6078 61.2594 93.6971 61.2594C78.412 61.2594 72.3575 60.8977 71.4908 60.0339C71.045 59.5851 70.8266 56.2428 70.8448 53.0002C73.1952 55.9119 78.4169 58.6138 90.6928 58.6138C107.708 58.6138 110.205 54 110.11 49.3856C110.015 44.7719 138.971 46.9838 138.971 46.9838C138.971 47.184 138.122 47.3479 136.731 47.4864C130.602 48.1015 113.955 48.2449 113.235 48.9653C112.351 49.8495 112.297 57.7984 113.307 58.8085C114.189 59.688 133.045 60.0182 137.859 60.8541C138.565 60.9775 138.97 61.1106 138.97 61.2594Z" fill="url(#paint21_linear_5_102389)"/>
<path opacity="0.57" d="M137.856 60.8541C133.042 60.0188 114.186 59.688 113.305 58.8085C112.295 57.7984 112.349 49.8495 113.233 48.9652C113.953 48.2449 130.599 48.1015 136.728 47.4864C136.6 48.0785 136.498 48.6731 136.418 49.2731C136.128 49.2707 115.752 49.1552 115.25 52.959C114.745 56.7889 120.298 57.6551 127.506 57.8704C131.883 58.001 135.331 58.8496 137.362 59.4956C137.51 59.9547 137.674 60.4083 137.856 60.8541Z" fill="#FFE385"/>
<path opacity="0.4" d="M73.0047 48.0894C73.2539 47.3418 106.937 47.5124 107.658 48.4257C108.379 49.339 107.61 50.204 107.081 50.3001C106.552 50.3963 73.0525 49.7715 73.0041 49.4352C72.9569 49.0989 72.8608 48.5219 73.0047 48.0894Z" fill="url(#paint22_linear_5_102389)"/>
<path opacity="0.57" d="M69.0268 66.9818C83.4826 66.5899 98.1053 66.452 112.57 66.5808C112.731 66.5832 112.859 66.6987 112.857 66.8384C112.855 66.9733 112.731 67.0822 112.577 67.087C109.458 67.1905 104.869 67.2758 101.694 67.3344C90.8617 67.5153 79.8753 67.5951 69.034 67.4881C68.8731 67.4856 68.7443 67.3701 68.7461 67.2304C68.7497 67.0955 68.8737 66.9872 69.0268 66.9818Z" fill="#FFE385"/>
<path opacity="0.57" d="M73.1636 70.5969C87.617 70.4252 102.238 70.4106 116.702 70.56C116.863 70.5625 116.993 70.6338 116.991 70.7203C116.99 70.8038 116.866 70.8697 116.713 70.8721C113.593 70.9205 109.005 70.9514 105.831 70.9719C94.9998 71.0312 84.0146 71.027 73.1739 70.9084C73.013 70.906 72.8836 70.8346 72.8848 70.7481C72.8866 70.6659 73.01 70.5994 73.1636 70.5969Z" fill="#FFE385"/>
<path opacity="0.57" d="M69.079 74.1147C78.2224 73.8758 87.4717 73.7941 96.6206 73.8764C96.7223 73.8776 96.8039 73.949 96.8027 74.0355C96.8015 74.1189 96.7229 74.1855 96.6261 74.1891C94.6531 74.252 91.7504 74.304 89.7423 74.3397C82.8906 74.4492 75.9416 74.4958 69.0844 74.4274C68.9828 74.4262 68.9011 74.3548 68.9024 74.2683C68.9036 74.1849 68.9816 74.1183 69.079 74.1147Z" fill="#FFE385"/>
<path opacity="0.57" d="M115.196 50.579C121.447 50.3038 127.769 50.1846 134.023 50.2306C134.092 50.2318 134.148 50.3025 134.147 50.3884C134.146 50.4719 134.092 50.539 134.025 50.5427C132.676 50.6134 130.692 50.6769 129.319 50.7205C124.635 50.8572 119.885 50.9316 115.198 50.8911C115.129 50.8899 115.073 50.8191 115.074 50.7332C115.075 50.6497 115.129 50.5826 115.196 50.579Z" fill="#FFE385"/>
<path opacity="0.57" d="M124.256 53.3159C127.89 53.2385 131.555 53.3195 135.169 53.5627C135.209 53.5657 135.236 53.6383 135.23 53.7242C135.223 53.807 135.187 53.8724 135.149 53.8742C134.363 53.902 133.211 53.9026 132.415 53.9032C129.696 53.8917 126.944 53.8161 124.235 53.6274C124.195 53.6244 124.168 53.5518 124.175 53.4659C124.181 53.3831 124.218 53.3177 124.256 53.3159Z" fill="#FFE385"/>
<path opacity="0.57" d="M115.679 57.4808C122.117 57.378 128.626 57.433 135.059 57.6514C135.13 57.6544 135.186 57.727 135.182 57.8129C135.178 57.8958 135.122 57.9617 135.053 57.9635C133.663 57.9974 131.62 58.0058 130.207 58.0119C125.384 58.0191 120.495 57.9629 115.673 57.7929C115.602 57.7899 115.546 57.7179 115.55 57.6314C115.554 57.5486 115.61 57.4826 115.679 57.4808Z" fill="#FFE385"/>
<path opacity="0.4" d="M28.7038 80.8158C26.1828 76.0914 23.6406 71.3778 21.2273 66.5784C20.7028 65.5029 20.1815 64.4269 19.6807 63.3364C19.4315 62.7902 19.1883 62.2398 18.9669 61.6767C18.751 61.1063 18.5278 60.5353 18.4528 59.9099C18.4401 59.7521 18.4341 59.5845 18.4915 59.42C18.5254 59.3341 18.569 59.2773 18.6095 59.2119C18.823 58.9011 19.1073 58.6615 19.4073 58.4777C20.4996 57.8414 21.7601 57.7615 22.9626 57.7645C24.436 57.7972 25.9136 57.8867 27.3707 58.1553C27.6356 58.2067 27.8999 58.2654 28.1618 58.3464C28.3602 58.4111 28.5634 58.4758 28.7376 58.615C28.8259 58.7045 28.9608 58.8363 29.0364 58.9379C29.1332 59.0438 29.3485 59.3426 29.438 59.4611C30.6102 61.1456 31.6439 62.9541 32.6782 64.7523C35.0256 68.8762 37.2714 73.0738 39.4797 77.2974C37.2327 73.1028 34.9579 68.9258 32.5959 64.8152C31.552 63.0291 30.5219 61.2249 29.3491 59.5458C29.1991 59.3432 28.9814 59.0468 28.8132 58.8708L28.6669 58.7226C28.509 58.5992 28.3167 58.5375 28.131 58.4777C27.3568 58.2508 26.5566 58.1559 25.7618 58.0694C24.9634 57.9883 24.1626 57.9424 23.3611 57.9206C22.57 57.8994 21.7517 57.9091 20.972 58.0615C20.1186 58.2321 19.0825 58.5835 18.6022 59.4744C18.5581 59.5972 18.5593 59.749 18.5714 59.8954C18.6022 60.1912 18.6815 60.4851 18.771 60.7718C19.0468 61.6362 19.4133 62.4588 19.7817 63.2759C20.3418 64.4995 20.9303 65.7134 21.517 66.9207C23.8595 71.5865 26.294 76.1954 28.7038 80.8158Z" fill="url(#paint23_linear_5_102389)"/>
<g opacity="0.32">
<path d="M69.3936 155.283V160.9C69.2587 160.907 69.1226 160.911 68.9865 160.911C68.9176 160.911 68.8486 160.91 68.7809 160.908C68.7307 160.907 68.6805 160.905 68.6309 160.902C68.6254 160.902 68.62 160.902 68.6139 160.902C68.6031 160.902 68.5916 160.901 68.5801 160.9V155.283C68.7119 155.306 68.848 155.318 68.9871 155.318C69.1256 155.318 69.2617 155.306 69.3936 155.283Z" fill="#3E2418"/>
<path d="M69.3932 144.966V150.583C69.2614 150.56 69.1253 150.549 68.9862 150.549C68.847 150.549 68.711 150.561 68.5791 150.583V144.966C68.714 144.959 68.8495 144.955 68.9862 144.955C69.1229 144.954 69.2583 144.958 69.3932 144.966Z" fill="#3E2418"/>
</g>
<g opacity="0.32">
<path d="M66.8637 154.021H61.0826C61.0457 153.754 61.0227 153.482 61.0137 153.207H66.6182C66.6508 153.497 66.7355 153.772 66.8637 154.021Z" fill="#3E2418"/>
<path d="M76.9589 153.207C76.9499 153.482 76.9269 153.754 76.8894 154.021H71.1064C71.2347 153.772 71.3194 153.497 71.352 153.207H76.9589Z" fill="#3E2418"/>
</g>
<g opacity="0.32">
<path d="M68.0478 155.127L64.0068 159.166C63.9765 159.143 63.9463 159.118 63.9154 159.094C63.9052 159.086 63.8955 159.077 63.8852 159.068C63.8447 159.034 63.8036 158.999 63.7636 158.965C63.6675 158.882 63.5725 158.796 63.48 158.707C63.4521 158.68 63.4237 158.653 63.3965 158.625L67.3516 154.67C67.5542 154.861 67.7889 155.017 68.0478 155.127Z" fill="#3E2418"/>
<path d="M75.2201 147.954L71.1785 151.996C71.0684 151.737 70.9129 151.502 70.7236 151.3L74.6793 147.344C74.8396 147.507 74.9932 147.676 75.139 147.853C75.142 147.855 75.1432 147.856 75.1445 147.859C75.1699 147.89 75.1953 147.922 75.2201 147.954Z" fill="#3E2418"/>
</g>
<g opacity="0.32">
<path d="M67.2468 151.3C67.0575 151.502 66.902 151.737 66.7919 151.996L62.751 147.954C62.9203 147.741 63.1012 147.538 63.2911 147.344L67.2468 151.3Z" fill="#3E2418"/>
<path d="M74.5731 158.626C74.379 158.817 74.1758 158.998 73.9629 159.167L69.9219 155.126C70.1807 155.016 70.4154 154.861 70.6174 154.67L74.5731 158.626Z" fill="#3E2418"/>
</g>
<path d="M146.385 152.726C146.385 152.676 146.382 152.626 146.38 152.576C146.38 152.57 146.38 152.565 146.379 152.559C146.379 152.531 146.377 152.503 146.375 152.476C146.372 152.41 146.368 152.346 146.362 152.281C146.358 152.226 146.353 152.171 146.347 152.116C146.347 152.113 146.347 152.11 146.346 152.107C146.34 152.047 146.333 151.987 146.326 151.926C146.324 151.909 146.322 151.893 146.319 151.876C146.313 151.827 146.306 151.779 146.299 151.73C146.287 151.652 146.274 151.574 146.26 151.496C146.252 151.45 146.243 151.403 146.233 151.357C146.228 151.332 146.224 151.308 146.219 151.285C146.21 151.241 146.2 151.198 146.19 151.155C146.177 151.093 146.162 151.032 146.146 150.973C146.137 150.936 146.128 150.899 146.117 150.862C146.108 150.824 146.097 150.786 146.086 150.748C146.069 150.688 146.052 150.628 146.033 150.569C146.03 150.558 146.027 150.546 146.023 150.535C146.006 150.481 145.988 150.427 145.97 150.373C145.97 150.373 145.97 150.373 145.97 150.372C145.955 150.328 145.939 150.282 145.922 150.238C145.92 150.23 145.917 150.222 145.915 150.215C145.904 150.184 145.893 150.155 145.882 150.126C145.84 150.014 145.796 149.904 145.75 149.796C145.728 149.746 145.707 149.697 145.684 149.649C145.667 149.609 145.647 149.568 145.628 149.528C145.622 149.515 145.616 149.502 145.61 149.49C145.598 149.465 145.586 149.44 145.574 149.414C145.566 149.398 145.558 149.381 145.549 149.365C145.523 149.314 145.498 149.263 145.47 149.213C145.466 149.202 145.46 149.191 145.453 149.18C145.427 149.131 145.401 149.081 145.373 149.032C145.329 148.952 145.283 148.873 145.234 148.795C145.17 148.689 145.103 148.585 145.035 148.483C145.032 148.478 145.029 148.473 145.025 148.467C144.992 148.419 144.958 148.371 144.925 148.324C144.922 148.318 144.918 148.314 144.914 148.308C144.884 148.265 144.853 148.223 144.821 148.181C144.811 148.167 144.8 148.152 144.788 148.137C144.755 148.094 144.722 148.05 144.688 148.007C144.674 147.989 144.66 147.971 144.646 147.954C144.62 147.922 144.595 147.891 144.569 147.859C144.569 147.856 144.567 147.855 144.564 147.853C144.418 147.677 144.265 147.507 144.104 147.344C143.867 147.102 143.615 146.875 143.349 146.665C142.413 145.927 141.308 145.394 140.101 145.134C139.684 145.044 139.256 144.986 138.817 144.965C138.682 144.958 138.547 144.954 138.41 144.954C138.274 144.954 138.138 144.958 138.003 144.965C137.481 144.991 136.974 145.067 136.484 145.189C135.03 145.549 133.733 146.309 132.716 147.344C132.526 147.538 132.346 147.741 132.176 147.954C131.085 149.318 130.434 151.049 130.434 152.931C130.434 153.024 130.435 153.116 130.439 153.206C130.448 153.481 130.471 153.753 130.508 154.02C130.705 155.464 131.286 156.784 132.148 157.873C132.261 158.018 132.382 158.16 132.506 158.297C132.549 158.343 132.592 158.39 132.636 158.436C132.68 158.482 132.725 158.528 132.77 158.573C132.787 158.591 132.805 158.608 132.823 158.625C132.85 158.654 132.878 158.68 132.906 158.707C132.999 158.796 133.094 158.882 133.19 158.965C133.23 158.999 133.27 159.034 133.311 159.068C133.322 159.078 133.331 159.085 133.342 159.094C133.372 159.118 133.402 159.143 133.432 159.166C133.446 159.179 133.461 159.189 133.475 159.2C133.481 159.206 133.488 159.212 133.495 159.216C133.53 159.243 133.564 159.27 133.599 159.296C133.625 159.316 133.651 159.336 133.678 159.355C133.709 159.378 133.74 159.401 133.772 159.424C133.821 159.46 133.872 159.495 133.923 159.529C133.96 159.556 133.999 159.581 134.038 159.606C134.17 159.693 134.303 159.776 134.439 159.854C134.473 159.873 134.507 159.892 134.541 159.91C134.582 159.933 134.623 159.956 134.664 159.978C134.672 159.982 134.68 159.987 134.688 159.99C134.741 160.018 134.793 160.046 134.847 160.072C134.863 160.081 134.88 160.089 134.896 160.097C134.922 160.109 134.946 160.121 134.972 160.134C135.024 160.159 135.075 160.183 135.128 160.206C135.171 160.226 135.216 160.246 135.261 160.265C135.266 160.268 135.272 160.27 135.277 160.272C135.304 160.284 135.33 160.295 135.357 160.306C135.436 160.339 135.517 160.371 135.598 160.401C135.63 160.414 135.663 160.425 135.696 160.437C135.751 160.457 135.806 160.477 135.862 160.495C135.914 160.512 135.965 160.53 136.017 160.545C136.025 160.548 136.034 160.551 136.043 160.553C136.093 160.569 136.143 160.584 136.193 160.597C136.249 160.614 136.304 160.63 136.359 160.644C136.39 160.652 136.42 160.66 136.45 160.668C136.613 160.709 136.78 160.745 136.947 160.777C136.969 160.78 136.991 160.784 137.013 160.789C137.06 160.796 137.106 160.805 137.153 160.812C137.176 160.816 137.198 160.819 137.221 160.822C137.228 160.823 137.234 160.825 137.241 160.826C137.292 160.833 137.343 160.84 137.394 160.846C137.458 160.854 137.522 160.862 137.587 160.868C137.59 160.869 137.592 160.869 137.594 160.869C137.647 160.875 137.7 160.879 137.753 160.884C137.774 160.885 137.795 160.887 137.816 160.889C137.862 160.892 137.907 160.895 137.953 160.897C137.97 160.898 137.986 160.899 138.003 160.9C138.015 160.901 138.026 160.901 138.037 160.901C138.043 160.902 138.049 160.902 138.053 160.902C138.103 160.904 138.153 160.906 138.203 160.907C138.272 160.91 138.34 160.91 138.409 160.91C138.545 160.91 138.681 160.907 138.816 160.9C140.541 160.813 142.121 160.179 143.387 159.166C143.6 158.997 143.804 158.816 143.997 158.626C145.229 157.418 146.069 155.814 146.314 154.02C146.351 153.753 146.374 153.481 146.383 153.206C146.387 153.116 146.389 153.024 146.389 152.931C146.388 152.863 146.388 152.794 146.385 152.726ZM140.531 154.021C140.406 154.265 140.239 154.484 140.042 154.671C139.84 154.861 139.605 155.016 139.346 155.127C139.178 155.199 139.001 155.252 138.816 155.283C138.684 155.306 138.548 155.318 138.409 155.318C138.27 155.318 138.134 155.306 138.002 155.283C137.817 155.251 137.639 155.198 137.472 155.127C137.213 155.017 136.979 154.861 136.777 154.671C136.579 154.484 136.412 154.264 136.287 154.021C136.159 153.772 136.074 153.497 136.042 153.207C136.031 153.117 136.025 153.025 136.025 152.932C136.025 152.6 136.094 152.283 136.215 151.996C136.325 151.737 136.481 151.502 136.67 151.3C137.017 150.93 137.48 150.672 138.001 150.582C138.133 150.559 138.269 150.548 138.408 150.548C138.548 150.548 138.684 150.56 138.816 150.582C139.338 150.672 139.8 150.93 140.147 151.3C140.336 151.502 140.492 151.737 140.602 151.996C140.724 152.283 140.792 152.599 140.792 152.932C140.792 153.025 140.786 153.117 140.775 153.207C140.744 153.497 140.659 153.772 140.531 154.021Z" fill="url(#paint24_linear_5_102389)"/>
<path opacity="0.32" d="M146.386 152.726C146.385 152.676 146.383 152.626 146.38 152.576C146.38 152.57 146.38 152.565 146.38 152.559C146.379 152.531 146.377 152.503 146.375 152.476C146.372 152.41 146.368 152.346 146.362 152.281C146.359 152.226 146.353 152.171 146.348 152.116C146.348 152.113 146.348 152.11 146.347 152.107C146.341 152.047 146.334 151.987 146.326 151.926C146.324 151.909 146.322 151.893 146.32 151.876C146.314 151.827 146.306 151.779 146.3 151.73C146.288 151.652 146.274 151.574 146.261 151.496C146.253 151.45 146.244 151.403 146.234 151.357C146.228 151.332 146.224 151.308 146.219 151.285C146.21 151.241 146.201 151.198 146.19 151.155C146.177 151.093 146.163 151.032 146.147 150.973C146.138 150.936 146.128 150.899 146.118 150.862C146.108 150.824 146.098 150.786 146.087 150.748C146.07 150.688 146.052 150.628 146.034 150.569C146.031 150.558 146.027 150.546 146.023 150.535C146.006 150.481 145.988 150.427 145.97 150.373C145.971 150.373 145.97 150.373 145.97 150.372C145.956 150.328 145.939 150.282 145.923 150.238C145.921 150.23 145.918 150.222 145.915 150.215C145.904 150.184 145.894 150.155 145.882 150.126C145.841 150.014 145.797 149.904 145.75 149.796C145.729 149.746 145.707 149.697 145.685 149.649C145.667 149.609 145.648 149.567 145.628 149.528C145.622 149.515 145.616 149.502 145.611 149.49C145.599 149.465 145.587 149.44 145.575 149.414C145.567 149.398 145.558 149.381 145.549 149.365C145.524 149.314 145.498 149.263 145.471 149.213C145.466 149.202 145.46 149.191 145.454 149.18C145.428 149.131 145.401 149.081 145.373 149.032C145.329 148.952 145.283 148.873 145.235 148.794C145.171 148.689 145.105 148.585 145.035 148.483C145.033 148.478 145.029 148.473 145.025 148.467C144.992 148.419 144.959 148.371 144.926 148.324C144.923 148.318 144.919 148.314 144.915 148.308C144.884 148.265 144.853 148.223 144.822 148.181C144.812 148.167 144.801 148.152 144.789 148.137C144.756 148.093 144.722 148.05 144.689 148.007C144.649 147.957 144.61 147.908 144.57 147.859C144.569 147.856 144.568 147.855 144.565 147.853C144.202 147.412 143.792 147.011 143.343 146.657C143.345 146.66 143.347 146.663 143.349 146.666C144.418 148.023 145.057 149.737 145.057 151.599C145.057 156.005 141.485 159.578 137.078 159.578C135.218 159.578 133.506 158.943 132.148 157.874C132.146 157.873 132.144 157.87 132.142 157.868C132.258 158.015 132.379 158.159 132.506 158.297C132.549 158.343 132.593 158.39 132.636 158.436C132.681 158.482 132.725 158.528 132.77 158.573C132.815 158.618 132.861 158.663 132.907 158.707C132.999 158.796 133.094 158.882 133.19 158.964C133.23 158.999 133.271 159.033 133.312 159.067C133.322 159.077 133.332 159.085 133.342 159.093C133.386 159.13 133.431 159.166 133.475 159.199C133.482 159.206 133.489 159.211 133.495 159.215C133.53 159.243 133.565 159.269 133.6 159.295C133.626 159.316 133.652 159.336 133.679 159.355C133.709 159.377 133.741 159.4 133.772 159.423C133.822 159.46 133.872 159.494 133.923 159.529C133.961 159.555 134 159.581 134.038 159.605C134.17 159.692 134.304 159.775 134.44 159.853C134.474 159.873 134.507 159.892 134.542 159.91C134.582 159.933 134.623 159.955 134.664 159.977C134.672 159.981 134.681 159.986 134.689 159.99C134.741 160.017 134.794 160.045 134.847 160.071C134.863 160.08 134.88 160.088 134.897 160.097C134.922 160.109 134.947 160.121 134.972 160.133C135.024 160.158 135.076 160.183 135.128 160.206C135.172 160.225 135.217 160.245 135.261 160.265C135.267 160.267 135.272 160.269 135.278 160.271C135.304 160.284 135.331 160.294 135.358 160.305C135.437 160.339 135.517 160.371 135.598 160.4C135.631 160.413 135.664 160.424 135.696 160.437C135.752 160.457 135.806 160.477 135.863 160.494C135.915 160.512 135.965 160.529 136.017 160.545C136.025 160.548 136.034 160.55 136.043 160.553C136.093 160.568 136.143 160.583 136.193 160.597C136.249 160.613 136.305 160.629 136.36 160.643C136.39 160.651 136.42 160.66 136.451 160.667C136.614 160.709 136.78 160.744 136.947 160.776C136.969 160.78 136.991 160.784 137.014 160.788C137.06 160.796 137.107 160.804 137.153 160.812C137.176 160.815 137.199 160.818 137.222 160.822C137.228 160.822 137.235 160.824 137.242 160.825C137.292 160.832 137.344 160.839 137.395 160.845C137.458 160.853 137.523 160.861 137.587 160.868C137.59 160.868 137.592 160.868 137.595 160.868C137.648 160.874 137.7 160.879 137.753 160.883C137.775 160.884 137.796 160.886 137.817 160.888C137.863 160.891 137.908 160.894 137.954 160.896C137.982 160.899 138.01 160.9 138.037 160.901C138.043 160.901 138.049 160.901 138.054 160.901C138.104 160.904 138.154 160.905 138.204 160.907C138.272 160.909 138.341 160.91 138.41 160.91C142.816 160.91 146.389 157.337 146.389 152.93C146.389 152.863 146.388 152.794 146.386 152.726Z" fill="#3E2418"/>
<g opacity="0.32">
<path d="M138.817 155.283V160.9C138.683 160.907 138.546 160.911 138.41 160.911C138.341 160.911 138.272 160.91 138.205 160.908C138.155 160.907 138.104 160.905 138.055 160.902C138.049 160.902 138.044 160.902 138.038 160.902C138.027 160.902 138.015 160.901 138.004 160.9V155.283C138.136 155.306 138.272 155.318 138.411 155.318C138.55 155.318 138.686 155.306 138.817 155.283Z" fill="#3E2418"/>
<path d="M138.817 144.966V150.583C138.685 150.56 138.549 150.549 138.41 150.549C138.271 150.549 138.135 150.561 138.003 150.583V144.966C138.138 144.959 138.273 144.955 138.41 144.955C138.547 144.954 138.682 144.958 138.817 144.966Z" fill="#3E2418"/>
</g>
<g opacity="0.32">
<path d="M136.288 154.021H130.506C130.47 153.754 130.447 153.482 130.438 153.207H136.042C136.074 153.497 136.159 153.772 136.288 154.021Z" fill="#3E2418"/>
<path d="M146.383 153.207C146.374 153.482 146.351 153.754 146.313 154.021H140.53C140.659 153.772 140.743 153.497 140.776 153.207H146.383Z" fill="#3E2418"/>
</g>
<g opacity="0.32">
<path d="M137.474 155.127L133.433 159.166C133.403 159.143 133.372 159.118 133.342 159.094C133.332 159.086 133.322 159.077 133.312 159.068C133.271 159.034 133.23 158.999 133.19 158.965C133.094 158.882 132.999 158.796 132.907 158.707C132.879 158.68 132.85 158.653 132.823 158.625L136.778 154.67C136.98 154.861 137.214 155.017 137.474 155.127Z" fill="#3E2418"/>
<path d="M144.646 147.954L140.604 151.996C140.494 151.737 140.339 151.502 140.149 151.3L144.105 147.344C144.266 147.507 144.419 147.676 144.565 147.853C144.568 147.855 144.569 147.856 144.57 147.859C144.596 147.89 144.62 147.922 144.646 147.954Z" fill="#3E2418"/>
</g>
<g opacity="0.32">
<path d="M136.671 151.3C136.481 151.502 136.326 151.737 136.216 151.996L132.175 147.954C132.344 147.741 132.525 147.538 132.715 147.344L136.671 151.3Z" fill="#3E2418"/>
<path d="M143.998 158.626C143.804 158.817 143.601 158.998 143.388 159.167L139.347 155.126C139.606 155.016 139.84 154.861 140.042 154.67L143.998 158.626Z" fill="#3E2418"/>
</g>
<defs>
<linearGradient id="paint0_linear_5_102389" x1="-0.415508" y1="60.8805" x2="75.0374" y2="111.452" gradientUnits="userSpaceOnUse">
<stop stop-color="#954724"/>
<stop offset="1" stop-color="#543121"/>
</linearGradient>
<linearGradient id="paint1_linear_5_102389" x1="64.7019" y1="99.7249" x2="73.0648" y2="181.047" gradientUnits="userSpaceOnUse">
<stop stop-color="#D38D67"/>
<stop offset="1" stop-color="#AE6031"/>
</linearGradient>
<linearGradient id="paint2_linear_5_102389" x1="133.4" y1="92.6602" x2="141.763" y2="173.982" gradientUnits="userSpaceOnUse">
<stop stop-color="#D38D67"/>
<stop offset="1" stop-color="#AE6031"/>
</linearGradient>
<linearGradient id="paint3_linear_5_102389" x1="124.628" y1="124.014" x2="112.804" y2="93.446" gradientUnits="userSpaceOnUse">
<stop stop-color="#FFF2E3"/>
<stop offset="1" stop-color="#FFEDB4"/>
</linearGradient>
<linearGradient id="paint4_linear_5_102389" x1="51.9773" y1="102.309" x2="162.594" y2="102.309" gradientUnits="userSpaceOnUse">
<stop stop-color="#83C451"/>
<stop offset="1" stop-color="#2DB400"/>
</linearGradient>
<linearGradient id="paint5_linear_5_102389" x1="52.0012" y1="102.867" x2="162.593" y2="102.867" gradientUnits="userSpaceOnUse">
<stop stop-color="#83C451"/>
<stop offset="1" stop-color="#2DB400"/>
</linearGradient>
<linearGradient id="paint6_linear_5_102389" x1="113.261" y1="84.5084" x2="130.239" y2="129.589" gradientUnits="userSpaceOnUse">
<stop stop-color="#FFDF77"/>
<stop offset="1" stop-color="#FFCD13"/>
</linearGradient>
<linearGradient id="paint7_linear_5_102389" x1="108.65" y1="88.6103" x2="114.357" y2="103.763" gradientUnits="userSpaceOnUse">
<stop stop-color="white"/>
<stop offset="1" stop-color="white"/>
</linearGradient>
<linearGradient id="paint8_linear_5_102389" x1="68.5761" y1="169.219" x2="69.4412" y2="134.904" gradientUnits="userSpaceOnUse">
<stop stop-color="#954724"/>
<stop offset="1" stop-color="#543121"/>
</linearGradient>
<linearGradient id="paint9_linear_5_102389" x1="115.589" y1="94.2815" x2="111.912" y2="68.7602" gradientUnits="userSpaceOnUse">
<stop stop-color="#FF7970"/>
<stop offset="1" stop-color="#FF342B"/>
</linearGradient>
<linearGradient id="paint10_linear_5_102389" x1="115.613" y1="94.4012" x2="112.208" y2="70.7641" gradientUnits="userSpaceOnUse">
<stop stop-color="#FF342B"/>
<stop offset="1" stop-color="#9D1A14"/>
</linearGradient>
<linearGradient id="paint11_linear_5_102389" x1="106.058" y1="93.1867" x2="93.3692" y2="73.5773" gradientUnits="userSpaceOnUse">
<stop stop-color="#FFF2E3"/>
<stop offset="1" stop-color="#FFEDB4"/>
</linearGradient>
<linearGradient id="paint12_linear_5_102389" x1="131.933" y1="71.327" x2="139.719" y2="94.5411" gradientUnits="userSpaceOnUse">
<stop stop-color="#E0C87D"/>
<stop offset="1" stop-color="#FFEDB4"/>
</linearGradient>
<linearGradient id="paint13_linear_5_102389" x1="103.657" y1="92.8044" x2="91.7618" y2="64.4715" gradientUnits="userSpaceOnUse">
<stop stop-color="#7AE7FD"/>
<stop offset="1" stop-color="#00ADE3"/>
</linearGradient>
<linearGradient id="paint14_linear_5_102389" x1="92.2919" y1="82.6446" x2="90.5617" y2="63.1794" gradientUnits="userSpaceOnUse">
<stop stop-color="#FFF2E3"/>
<stop offset="1" stop-color="#FFEDB4"/>
</linearGradient>
<linearGradient id="paint15_linear_5_102389" x1="96.169" y1="37.1063" x2="109.867" y2="61.9065" gradientUnits="userSpaceOnUse">
<stop stop-color="#FF7970"/>
<stop offset="1" stop-color="#FF342B"/>
</linearGradient>
<linearGradient id="paint16_linear_5_102389" x1="133.246" y1="63.2235" x2="116.52" y2="42.7489" gradientUnits="userSpaceOnUse">
<stop stop-color="#FFF2E3"/>
<stop offset="1" stop-color="#FFEDB4"/>
</linearGradient>
<linearGradient id="paint17_linear_5_102389" x1="48.6442" y1="128.85" x2="207.967" y2="107.933" gradientUnits="userSpaceOnUse">
<stop stop-color="#FFDF77"/>
<stop offset="1" stop-color="#FFCD13"/>
</linearGradient>
<linearGradient id="paint18_linear_5_102389" x1="121.619" y1="106.697" x2="132.652" y2="135.992" gradientUnits="userSpaceOnUse">
<stop stop-color="#FFDF77"/>
<stop offset="1" stop-color="#FFCD13"/>
</linearGradient>
<linearGradient id="paint19_linear_5_102389" x1="50.7134" y1="117.724" x2="164.911" y2="102.731" gradientUnits="userSpaceOnUse">
<stop stop-color="white"/>
<stop offset="1" stop-color="white"/>
</linearGradient>
<linearGradient id="paint20_linear_5_102389" x1="60.8513" y1="70.7355" x2="129.024" y2="70.7355" gradientUnits="userSpaceOnUse">
<stop stop-color="#7AE7FD"/>
<stop offset="1" stop-color="#00ADE3"/>
</linearGradient>
<linearGradient id="paint21_linear_5_102389" x1="70.8429" y1="54.113" x2="138.97" y2="54.113" gradientUnits="userSpaceOnUse">
<stop stop-color="#FF342B"/>
<stop offset="1" stop-color="#9D1A14"/>
</linearGradient>
<linearGradient id="paint22_linear_5_102389" x1="87.3511" y1="23.3781" x2="90.8116" y2="52.0713" gradientUnits="userSpaceOnUse">
<stop stop-color="white"/>
<stop offset="1" stop-color="white"/>
</linearGradient>
<linearGradient id="paint23_linear_5_102389" x1="18.4439" y1="69.29" x2="39.4799" y2="69.29" gradientUnits="userSpaceOnUse">
<stop stop-color="white"/>
<stop offset="1" stop-color="white"/>
</linearGradient>
<linearGradient id="paint24_linear_5_102389" x1="137.999" y1="169.219" x2="138.864" y2="134.904" gradientUnits="userSpaceOnUse">
<stop stop-color="#954724"/>
<stop offset="1" stop-color="#543121"/>
</linearGradient>
</defs>
</svg>
