<svg width="28" height="22" viewBox="0 0 28 22" fill="none" xmlns="http://www.w3.org/2000/svg">
<path d="M24.9923 15.6092V19.5599C24.9923 20.5296 24.2062 21.3157 23.2364 21.3157H2.16601C1.19629 21.3157 0.410156 20.5296 0.410156 19.5599V7.26879C0.410156 6.29907 1.19629 5.51294 2.16601 5.51294H23.2364C24.2062 5.51294 24.9923 6.29907 24.9923 7.26879V13.8533" stroke="white" stroke-miterlimit="10" stroke-linecap="round" stroke-linejoin="round"/>
<path d="M2.13086 3.75703C2.41886 3.40863 2.83051 3.1852 3.27957 3.13354L24.2085 0.696278C25.1717 0.584114 26.0436 1.274 26.1557 2.23726L27.5775 14.4458C27.6897 15.409 26.9998 16.2808 26.0365 16.393L24.9919 16.5146M3.04354 16.0481H6.5553M3.04354 18.243H11.8229M8.31115 16.0481H11.8229M13.5788 16.0481H17.0905M18.8464 16.0481H22.3581M4.79939 12.0974H5.67734M6.5553 13.8533H3.92149C3.43663 13.8533 3.04354 13.4602 3.04354 12.9753V11.2195C3.04354 10.7346 3.43658 10.3415 3.92149 10.3415H6.5553C7.04016 10.3415 7.43325 10.7346 7.43325 11.2195V12.9753C7.43319 13.4602 7.04016 13.8533 6.5553 13.8533Z" stroke="white" stroke-miterlimit="10" stroke-linecap="round" stroke-linejoin="round"/>
<path d="M21.0133 12.5364C21.3094 11.9413 21.4801 11.272 21.4801 10.5611C21.4801 9.85012 21.3094 9.18075 21.0133 8.58569M19.4391 11.7437C19.6172 11.3869 19.7242 10.9878 19.7242 10.5611C19.7242 10.1343 19.6172 9.73522 19.4391 9.37839M17.8711 10.9542C17.9314 10.8358 17.9683 10.7035 17.9683 10.5611C17.9683 10.4186 17.9314 10.2864 17.8711 10.168" stroke="white" stroke-miterlimit="10" stroke-linecap="round" stroke-linejoin="round"/>
</svg>
