<svg width="28" height="20" viewBox="0 0 28 20" fill="none" xmlns="http://www.w3.org/2000/svg">
<path fill-rule="evenodd" clip-rule="evenodd" d="M17.6062 17.2845H3.23725C3.02487 17.2845 2.85435 17.1139 2.85435 16.9016C2.85435 16.6907 3.02487 16.5187 3.23725 16.5187H17.6062C17.8186 16.5187 17.9891 16.6907 17.9891 16.9016C17.9891 17.1139 17.8186 17.2845 17.6062 17.2845ZM26.1246 19.895H1.87616C0.84217 19.895 0.00195312 19.0548 0.00195312 18.0208V1.97919C0.00195312 0.945197 0.84217 0.10498 1.87616 0.10498H26.1246C27.1586 0.10498 27.9989 0.945197 27.9989 1.97919V18.0208C27.9989 19.0548 27.1586 19.895 26.1246 19.895ZM1.87616 0.870787C1.26538 0.870787 0.76776 1.36841 0.76776 1.97919V3.14495H27.2346V1.97919C27.2346 1.36841 26.737 0.870787 26.1246 0.870787H1.87616ZM0.76776 3.91076V7.15536H27.2346V3.91076H0.76776ZM0.76776 7.92117V18.0208C0.76776 18.6332 1.26538 19.1308 1.87616 19.1308H26.1246C26.737 19.1308 27.2346 18.6332 27.2346 18.0208V7.92117H0.76776ZM10.3248 13.1113H3.23725C3.02487 13.1113 2.85435 12.9392 2.85435 12.7284V10.093C2.85435 9.88219 3.02487 9.71012 3.23725 9.71012H10.3248C10.5357 9.71012 10.7077 9.88219 10.7077 10.093V12.7284C10.7077 12.9392 10.5357 13.1113 10.3248 13.1113ZM3.62016 12.3455H9.94194V10.4759H3.62016V12.3455ZM24.7651 13.1113H19.1843C18.9735 13.1113 18.8014 12.9392 18.8014 12.7284C18.8014 12.516 18.9735 12.3455 19.1843 12.3455H24.7651C24.9759 12.3455 25.1465 12.516 25.1465 12.7284C25.1465 12.9392 24.9759 13.1113 24.7651 13.1113ZM24.7651 10.4759H17.8945C17.6822 10.4759 17.5116 10.3054 17.5116 10.093C17.5116 9.88219 17.6822 9.71012 17.8945 9.71012H24.7651C24.9759 9.71012 25.1465 9.88219 25.1465 10.093C25.1465 10.3054 24.9759 10.4759 24.7651 10.4759ZM14.9073 15.6288H3.23725C3.02487 15.6288 2.85435 15.4568 2.85435 15.2459C2.85435 15.0336 3.02487 14.863 3.23725 14.863H14.9073C15.1197 14.863 15.2902 15.0336 15.2902 15.2459C15.2902 15.4583 15.1197 15.6288 14.9073 15.6288Z" fill="white"/>
</svg>
