<svg width="26" height="28" viewBox="0 0 26 28" fill="none" xmlns="http://www.w3.org/2000/svg">
<path d="M12.4508 27.2642H2.85916C2.24301 27.2635 1.65229 27.0184 1.21661 26.5827C0.780926 26.147 0.535853 25.5563 0.535156 24.9402V3.05984C0.535853 2.44369 0.780926 1.85298 1.21661 1.41729C1.65229 0.98161 2.24301 0.736537 2.85916 0.73584H12.4508C12.8314 0.735704 13.2061 0.829051 13.5421 1.00767C13.8781 1.1863 14.1651 1.44473 14.3778 1.76025C14.4046 1.79986 14.4232 1.84436 14.4328 1.89119C14.4424 1.93803 14.4426 1.98629 14.4335 2.03322C14.4244 2.08015 14.4062 2.12483 14.3798 2.16471C14.3535 2.20459 14.3195 2.23889 14.2799 2.26565C14.2403 2.29241 14.1958 2.3111 14.149 2.32066C14.1021 2.33022 14.0539 2.33047 14.0069 2.32138C13.96 2.31229 13.9153 2.29404 13.8754 2.26768C13.8356 2.24133 13.8013 2.20737 13.7745 2.16776C13.6284 1.951 13.4313 1.77344 13.2005 1.6507C12.9697 1.52797 12.7122 1.4638 12.4508 1.46384H2.85916C2.43602 1.46431 2.03034 1.63262 1.73114 1.93182C1.43193 2.23103 1.26363 2.6367 1.26316 3.05984V24.9402C1.26363 25.3633 1.43193 25.769 1.73114 26.0682C2.03034 26.3674 2.43602 26.5357 2.85916 26.5362H12.4508C12.8181 26.5354 13.1738 26.4084 13.4585 26.1765C13.7432 25.9445 13.9395 25.6217 14.0144 25.2622C14.0238 25.2152 14.0424 25.1705 14.0691 25.1307C14.0959 25.091 14.1302 25.0568 14.1701 25.0303C14.2101 25.0038 14.2548 24.9855 14.3019 24.9764C14.3489 24.9672 14.3973 24.9674 14.4443 24.9771C14.4913 24.9867 14.5359 25.0055 14.5755 25.0323C14.6152 25.0592 14.6492 25.0937 14.6755 25.1337C14.7018 25.1738 14.72 25.2187 14.7289 25.2658C14.7379 25.3128 14.7374 25.3612 14.7276 25.4082C14.6186 25.9318 14.3329 26.402 13.9184 26.7399C13.5038 27.0778 12.9857 27.2629 12.4508 27.2642Z" fill="white"/>
<path d="M9.80624 3.28664H5.58943C5.34892 3.28736 5.11375 3.2157 4.91452 3.08097C4.71528 2.94624 4.56119 2.75468 4.47229 2.5312L3.95199 1.23547C3.92982 1.18024 3.92152 1.12041 3.92784 1.06122C3.93415 1.00204 3.95488 0.945303 3.98822 0.895991C4.02155 0.846679 4.06647 0.806294 4.11903 0.778373C4.1716 0.750452 4.23021 0.735848 4.28973 0.73584H11.1061C11.1656 0.735848 11.2242 0.750452 11.2768 0.778373C11.3294 0.806294 11.3743 0.846679 11.4076 0.895991C11.441 0.945303 11.4617 1.00204 11.468 1.06122C11.4743 1.12041 11.466 1.18024 11.4438 1.23547L10.9235 2.5312C10.8346 2.75471 10.6805 2.94629 10.4813 3.08102C10.282 3.21575 10.0468 3.2874 9.80624 3.28664ZM4.82817 1.46384L5.14782 2.25999C5.18297 2.34835 5.24391 2.42409 5.32269 2.47735C5.40147 2.53061 5.49445 2.55894 5.58955 2.55864H9.80635C9.90144 2.55894 9.99443 2.53062 10.0732 2.47736C10.152 2.4241 10.2129 2.34836 10.2481 2.25999L10.5678 1.46384H4.82817ZM13.057 15.0433C12.9605 15.0433 12.8679 15.0049 12.7996 14.9367C12.7314 14.8684 12.693 14.7758 12.693 14.6793V10.5459C12.693 10.4981 12.7024 10.4508 12.7207 10.4066C12.739 10.3625 12.7658 10.3223 12.7996 10.2885C12.8334 10.2547 12.8736 10.2279 12.9177 10.2096C12.9619 10.1913 13.0092 10.1819 13.057 10.1819C13.1048 10.1819 13.1522 10.1913 13.1963 10.2096C13.2405 10.2279 13.2806 10.2547 13.3144 10.2885C13.3482 10.3223 13.375 10.3625 13.3933 10.4066C13.4116 10.4508 13.421 10.4981 13.421 10.5459V14.6793C13.421 14.7758 13.3827 14.8684 13.3144 14.9367C13.2462 15.0049 13.1536 15.0433 13.057 15.0433ZM11.1984 19.1766C11.1019 19.1766 11.0093 19.1383 10.941 19.07C10.8727 19.0018 10.8344 18.9092 10.8344 18.8126V10.5459C10.8344 10.4494 10.8727 10.3568 10.941 10.2885C11.0093 10.2203 11.1019 10.1819 11.1984 10.1819C11.2949 10.1819 11.3875 10.2203 11.4558 10.2885C11.524 10.3568 11.5624 10.4494 11.5624 10.5459V18.8126C11.5624 18.9092 11.524 19.0018 11.4558 19.07C11.3875 19.1383 11.2949 19.1766 11.1984 19.1766ZM17.6227 15.0433C17.5262 15.0433 17.4336 15.0049 17.3653 14.9367C17.2971 14.8684 17.2587 14.7758 17.2587 14.6793V10.5459C17.2587 10.4494 17.2971 10.3568 17.3653 10.2885C17.4336 10.2203 17.5262 10.1819 17.6227 10.1819C17.7193 10.1819 17.8118 10.2203 17.8801 10.2885C17.9484 10.3568 17.9867 10.4494 17.9867 10.5459V14.6793C17.9867 14.7758 17.9484 14.8684 17.8801 14.9367C17.8118 15.0049 17.7193 15.0433 17.6227 15.0433ZM15.7641 15.0433C15.6675 15.0433 15.575 15.0049 15.5067 14.9367C15.4384 14.8684 15.4001 14.7758 15.4001 14.6793V10.5459C15.4001 10.4494 15.4384 10.3568 15.5067 10.2885C15.575 10.2203 15.6675 10.1819 15.7641 10.1819C15.8606 10.1819 15.9532 10.2203 16.0215 10.2885C16.0897 10.3568 16.1281 10.4494 16.1281 10.5459V14.6793C16.1281 14.7758 16.0897 14.8684 16.0215 14.9367C15.9532 15.0049 15.8606 15.0433 15.7641 15.0433ZM6.63271 19.1766C6.53618 19.1766 6.44359 19.1383 6.37533 19.07C6.30706 19.0018 6.26871 18.9092 6.26871 18.8126V10.5459C6.26871 10.4494 6.30706 10.3568 6.37533 10.2885C6.44359 10.2203 6.53618 10.1819 6.63271 10.1819C6.72925 10.1819 6.82184 10.2203 6.8901 10.2885C6.95836 10.3568 6.99671 10.4494 6.99671 10.5459V18.8126C6.99671 18.9092 6.95836 19.0018 6.8901 19.07C6.82184 19.1383 6.72925 19.1766 6.63271 19.1766ZM8.49136 19.1766C8.39482 19.1766 8.30223 19.1383 8.23397 19.07C8.1657 19.0018 8.12736 18.9092 8.12736 18.8126V10.5459C8.12736 10.4494 8.1657 10.3568 8.23397 10.2885C8.30223 10.2203 8.39482 10.1819 8.49136 10.1819C8.58789 10.1819 8.68048 10.2203 8.74874 10.2885C8.81701 10.3568 8.85536 10.4494 8.85536 10.5459V18.8126C8.85536 18.9092 8.81701 19.0018 8.74874 19.07C8.68048 19.1383 8.58789 19.1766 8.49136 19.1766ZM22.189 15.0433C22.0924 15.0433 21.9998 15.0049 21.9316 14.9367C21.8633 14.8684 21.825 14.7758 21.825 14.6793V10.5459C21.825 10.4494 21.8633 10.3568 21.9316 10.2885C21.9998 10.2203 22.0924 10.1819 22.189 10.1819C22.2855 10.1819 22.3781 10.2203 22.4463 10.2885C22.5146 10.3568 22.553 10.4494 22.553 10.5459V14.6793C22.553 14.7758 22.5146 14.8684 22.4463 14.9367C22.3781 15.0049 22.2855 15.0433 22.189 15.0433ZM20.3298 15.0433C20.2332 15.0433 20.1406 15.0049 20.0724 14.9367C20.0041 14.8684 19.9658 14.7758 19.9658 14.6793V10.5459C19.9658 10.4494 20.0041 10.3568 20.0724 10.2885C20.1406 10.2203 20.2332 10.1819 20.3298 10.1819C20.4263 10.1819 20.5189 10.2203 20.5871 10.2885C20.6554 10.3568 20.6938 10.4494 20.6938 10.5459V14.6793C20.6938 14.7758 20.6554 14.8684 20.5871 14.9367C20.5189 15.0049 20.4263 15.0433 20.3298 15.0433Z" fill="white"/>
<path d="M24.7602 10.9102H4.06243C3.91183 10.9089 3.76584 10.858 3.64698 10.7655C3.52813 10.673 3.44299 10.544 3.40471 10.3984C3.3582 10.2462 3.36304 10.083 3.41848 9.93383C3.47392 9.78469 3.57687 9.65793 3.71148 9.57309L13.9016 3.23949C14.0543 3.14378 14.2309 3.09302 14.4112 3.09302C14.5914 3.09302 14.768 3.14378 14.9208 3.23949L25.1109 9.57309C25.2455 9.65794 25.3485 9.78471 25.4039 9.93386C25.4594 10.083 25.4642 10.2462 25.4177 10.3984C25.3794 10.544 25.2943 10.673 25.1755 10.7655C25.0567 10.858 24.9108 10.9088 24.7602 10.9102ZM4.11059 10.1822H24.712L14.5368 3.85756C14.4995 3.83333 14.4559 3.82043 14.4114 3.82043C14.3668 3.82043 14.3233 3.83333 14.2859 3.85756L4.11059 10.1822ZM11.6435 21.5785H5.56939C5.32441 21.5783 5.08955 21.4808 4.91633 21.3076C4.74311 21.1344 4.64567 20.8995 4.64539 20.6545V19.3727C4.64567 19.1277 4.74311 18.8929 4.91633 18.7196C5.08955 18.5464 5.32441 18.449 5.56939 18.4487H11.6435C11.74 18.4487 11.8326 18.487 11.9009 18.5553C11.9691 18.6236 12.0075 18.7162 12.0075 18.8127C12.0075 18.9092 11.9691 19.0018 11.9009 19.0701C11.8326 19.1383 11.74 19.1767 11.6435 19.1767H5.56939C5.51741 19.1767 5.46755 19.1973 5.43079 19.2341C5.39404 19.2709 5.37339 19.3207 5.37339 19.3727V20.6545C5.37339 20.7065 5.39404 20.7564 5.43079 20.7931C5.46755 20.8299 5.51741 20.8505 5.56939 20.8505H11.6435C11.74 20.8505 11.8326 20.8889 11.9009 20.9572C11.9691 21.0254 12.0075 21.118 12.0075 21.2145C12.0075 21.3111 11.9691 21.4037 11.9009 21.4719C11.8326 21.5402 11.74 21.5785 11.6435 21.5785ZM24.328 24.0878H13.6178C13.3728 24.0876 13.1379 23.9901 12.9647 23.8169C12.7915 23.6437 12.694 23.4088 12.6938 23.1638V16.5844C12.694 16.3394 12.7915 16.1046 12.9647 15.9313C13.1379 15.7581 13.3728 15.6607 13.6178 15.6604H24.328C24.573 15.6607 24.8079 15.7581 24.9811 15.9313C25.1543 16.1046 25.2518 16.3394 25.252 16.5844V23.1638C25.2518 23.4088 25.1543 23.6437 24.9811 23.8169C24.8079 23.9901 24.573 24.0876 24.328 24.0878ZM13.6178 16.3884C13.5658 16.3885 13.516 16.4092 13.4793 16.4459C13.4425 16.4826 13.4218 16.5324 13.4218 16.5844V23.1638C13.4218 23.2158 13.4425 23.2656 13.4793 23.3024C13.516 23.3391 13.5658 23.3598 13.6178 23.3598H24.328C24.38 23.3598 24.4299 23.3392 24.4666 23.3024C24.5034 23.2657 24.524 23.2158 24.524 23.1638V16.5844C24.524 16.5324 24.5034 16.4826 24.4666 16.4458C24.4299 16.4091 24.38 16.3884 24.328 16.3884H13.6178Z" fill="white"/>
<path d="M24.8885 19.7341H13.0582C12.9617 19.7341 12.8691 19.6957 12.8009 19.6275C12.7326 19.5592 12.6942 19.4666 12.6942 19.3701V17.4829C12.6942 17.3864 12.7326 17.2938 12.8009 17.2255C12.8691 17.1572 12.9617 17.1189 13.0582 17.1189H24.8885C24.9851 17.1189 25.0777 17.1572 25.1459 17.2255C25.2142 17.2938 25.2525 17.3864 25.2525 17.4829V19.3701C25.2525 19.4666 25.2142 19.5592 25.1459 19.6275C25.0777 19.6957 24.9851 19.7341 24.8885 19.7341ZM13.4222 19.0061H24.5245V17.8469H13.4222V19.0061ZM15.337 23.019C15.0564 23.019 14.7822 22.9358 14.5489 22.78C14.3156 22.6241 14.1338 22.4026 14.0265 22.1434C13.9191 21.8842 13.891 21.599 13.9457 21.3238C14.0004 21.0486 14.1355 20.7959 14.3339 20.5975C14.5323 20.3991 14.7851 20.264 15.0602 20.2093C15.3354 20.1546 15.6206 20.1827 15.8798 20.29C16.139 20.3974 16.3605 20.5792 16.5164 20.8125C16.6722 21.0458 16.7554 21.32 16.7554 21.6006C16.755 21.9766 16.6054 22.3372 16.3395 22.6031C16.0736 22.869 15.7131 23.0186 15.337 23.019ZM15.337 20.9101C15.2004 20.9101 15.0669 20.9506 14.9534 21.0264C14.8398 21.1023 14.7513 21.2101 14.699 21.3363C14.6468 21.4625 14.6331 21.6013 14.6597 21.7352C14.6864 21.8692 14.7521 21.9922 14.8487 22.0888C14.9452 22.1854 15.0683 22.2511 15.2022 22.2778C15.3362 22.3044 15.475 22.2908 15.6012 22.2385C15.7273 22.1862 15.8352 22.0977 15.9111 21.9842C15.9869 21.8706 16.0274 21.7371 16.0274 21.6006C16.0272 21.4175 15.9544 21.242 15.825 21.1126C15.6955 20.9831 15.5201 20.9103 15.337 20.9101ZM14.4118 8.34224C14.0994 8.34224 13.7941 8.24962 13.5344 8.0761C13.2747 7.90257 13.0723 7.65593 12.9528 7.36737C12.8333 7.07881 12.802 6.76129 12.8629 6.45495C12.9238 6.14862 13.0742 5.86723 13.2951 5.64638C13.516 5.42552 13.7973 5.27512 14.1037 5.21418C14.41 5.15325 14.7275 5.18452 15.0161 5.30405C15.3047 5.42357 15.5513 5.62598 15.7248 5.88568C15.8984 6.14538 15.991 6.4507 15.991 6.76304C15.9904 7.18171 15.8239 7.58308 15.5279 7.87913C15.2318 8.17517 14.8304 8.34172 14.4118 8.34224ZM14.4118 5.91145C14.2434 5.91145 14.0788 5.96137 13.9389 6.0549C13.7989 6.14843 13.6898 6.28137 13.6254 6.43691C13.5609 6.59244 13.5441 6.76359 13.5769 6.92871C13.6098 7.09382 13.6908 7.24549 13.8099 7.36454C13.9289 7.48358 14.0806 7.56465 14.2457 7.59749C14.4108 7.63033 14.582 7.61348 14.7375 7.54905C14.893 7.48463 15.026 7.37553 15.1195 7.23555C15.213 7.09557 15.263 6.931 15.263 6.76265C15.2627 6.53699 15.1729 6.32065 15.0133 6.16108C14.8538 6.00152 14.6374 5.91174 14.4118 5.91145ZM11.0338 25.8057H4.27806C4.18152 25.8057 4.08894 25.7674 4.02068 25.6991C3.95241 25.6309 3.91406 25.5383 3.91406 25.4417C3.91406 25.3452 3.95241 25.2526 4.02068 25.1843C4.08894 25.1161 4.18152 25.0777 4.27806 25.0777H11.0338C11.1304 25.0777 11.223 25.1161 11.2912 25.1843C11.3595 25.2526 11.3978 25.3452 11.3978 25.4417C11.3978 25.5383 11.3595 25.6309 11.2912 25.6991C11.223 25.7674 11.1304 25.8057 11.0338 25.8057ZM23.426 21.1281H18.8149C18.7184 21.1281 18.6258 21.0898 18.5575 21.0215C18.4893 20.9532 18.4509 20.8606 18.4509 20.7641C18.4509 20.6676 18.4893 20.575 18.5575 20.5067C18.6258 20.4385 18.7184 20.4001 18.8149 20.4001H23.426C23.5226 20.4001 23.6152 20.4385 23.6834 20.5067C23.7517 20.575 23.79 20.6676 23.79 20.7641C23.79 20.8606 23.7517 20.9532 23.6834 21.0215C23.6152 21.0898 23.5226 21.1281 23.426 21.1281ZM23.426 22.5222H18.8149C18.7184 22.5222 18.6258 22.4838 18.5575 22.4156C18.4893 22.3473 18.4509 22.2547 18.4509 22.1582C18.4509 22.0616 18.4893 21.969 18.5575 21.9008C18.6258 21.8325 18.7184 21.7942 18.8149 21.7942H23.426C23.5226 21.7942 23.6152 21.8325 23.6834 21.9008C23.7517 21.969 23.79 22.0616 23.79 22.1582C23.79 22.2547 23.7517 22.3473 23.6834 22.4156C23.6152 22.4838 23.5226 22.5222 23.426 22.5222Z" fill="white"/>
</svg>
