<svg width="169" height="153" viewBox="0 0 169 153" fill="none" xmlns="http://www.w3.org/2000/svg">
<circle cx="77" cy="76.5" r="76.5" fill="#49AF39" fill-opacity="0.8"/>
<circle cx="77" cy="76.5" r="64.5" fill="#49AF39"/>
<g clip-path="url(#clip0_503_38663)">
<path d="M102.684 37.1271H52.3154C44.6979 37.1271 38.5 43.3242 38.5 50.9425C38.5 57.8993 43.6737 63.6549 50.3716 64.605V115L59.5272 105.971L68.4567 114.996L77.5 105.972L86.5425 114.995L95.5851 105.972L104.628 115V64.605C111.326 63.6549 116.5 57.8993 116.5 50.9425C116.5 43.3242 110.302 37.1271 102.684 37.1271ZM50.3716 56.6295C48.0074 55.8191 46.3 53.5789 46.3 50.9425C46.3 48.3061 48.0074 46.0659 50.3716 45.2555V56.6295ZM61.4125 62.9022H75.55V69.1422H61.4125V62.9022ZM85.885 97.7425H61.4125V91.5025H85.885V97.7425ZM93.5875 83.4428H61.4125V77.2028H93.5875V83.4428ZM93.5875 54.8425H61.4125V48.6025H93.5875V54.8425ZM104.628 56.6295V45.2555C106.993 46.0667 108.7 48.3069 108.7 50.9425C108.7 53.5781 106.993 55.8191 104.628 56.6295Z" fill="white"/>
</g>
<circle cx="141" cy="115.5" r="27.5" fill="white"/>
<g clip-path="url(#clip1_503_38663)">
<path d="M141 95C129.697 95 120.5 104.197 120.5 115.5C120.5 126.803 129.697 136 141 136C152.303 136 161.5 126.803 161.5 115.5C161.5 104.197 152.303 95 141 95ZM152.457 110.105L139.356 123.104C138.585 123.875 137.352 123.926 136.53 123.155L129.594 116.836C128.772 116.065 128.721 114.781 129.44 113.959C130.211 113.137 131.495 113.085 132.317 113.856L137.815 118.891L149.529 107.177C150.351 106.355 151.635 106.355 152.457 107.177C153.279 107.999 153.279 109.283 152.457 110.105Z" fill="#0F5583"/>
</g>
<defs>
<clipPath id="clip0_503_38663">
<rect width="78" height="78" fill="white" transform="translate(38.5 37)"/>
</clipPath>
<clipPath id="clip1_503_38663">
<rect width="41" height="41" fill="white" transform="translate(120.5 95)"/>
</clipPath>
</defs>
</svg>
