<svg width="41" height="15" viewBox="0 0 41 15" fill="none" xmlns="http://www.w3.org/2000/svg">
<path d="M0.694153 12.6536H0.995618L0.713294 13.826C0.670227 13.9982 0.679797 14.1322 0.737219 14.2183C0.794641 14.3045 0.899914 14.3475 1.05782 14.3475C1.21095 14.3475 1.34015 14.3045 1.44064 14.2183C1.54113 14.1322 1.60812 13.9982 1.65118 13.826L1.93351 12.6536H2.23976L1.95265 13.8547C1.89044 14.1131 1.78038 14.3093 1.61769 14.4385C1.45978 14.5677 1.24923 14.6346 0.990833 14.6346C0.732434 14.6346 0.555383 14.5724 0.45968 14.4432C0.363977 14.314 0.344836 14.1178 0.407043 13.8594L0.694153 12.6536ZM2.19669 14.582L2.67521 12.577L3.58439 13.7542C3.60831 13.7877 3.63224 13.8212 3.65616 13.8594C3.68009 13.8977 3.70402 13.9408 3.73273 13.9886L4.05333 12.6536H4.33566L3.85714 14.6538L2.92882 13.4527L2.85704 13.3522C2.83312 13.3139 2.81398 13.2804 2.79962 13.2374L2.47902 14.5772H2.19669V14.582ZM4.31173 14.582L4.77111 12.6536H5.07736L4.61798 14.582H4.31173ZM5.05343 14.582L5.51281 12.6536H6.56075L6.49855 12.9216H5.75685L5.642 13.4001H6.3837L6.31671 13.6728H5.57501L5.35968 14.5772H5.05343V14.582ZM6.44113 14.582L6.9005 12.6536H7.20675L6.74738 14.582H6.44113ZM7.18282 14.582L7.6422 12.6536H8.69015L8.62794 12.9216H7.88624L7.7714 13.4049H8.5131L8.44611 13.6776H7.70441L7.55607 14.2997H8.29777L8.23077 14.582H7.18282ZM8.58488 14.582L9.04425 12.6536H9.45577C9.72374 12.6536 9.91036 12.6679 10.0109 12.6967C10.1113 12.7254 10.1975 12.7684 10.2645 12.8354C10.3506 12.9216 10.408 13.0316 10.4319 13.1608C10.4559 13.2948 10.4463 13.4479 10.408 13.6154C10.365 13.7877 10.3027 13.936 10.2166 14.07C10.1305 14.204 10.0204 14.3093 9.89122 14.3954C9.79552 14.4624 9.69025 14.5054 9.5754 14.5342C9.46534 14.5629 9.29786 14.5772 9.07775 14.5772H8.58488V14.582ZM8.95812 14.2949H9.21652C9.35529 14.2949 9.46534 14.2853 9.54191 14.2662C9.61847 14.247 9.68546 14.2135 9.74767 14.1705C9.8338 14.1083 9.90558 14.0317 9.963 13.936C10.0204 13.8451 10.0635 13.735 10.0922 13.6106C10.1209 13.4862 10.1305 13.3809 10.1161 13.29C10.1018 13.1991 10.0683 13.1177 10.0109 13.0555C9.96778 13.0077 9.91515 12.979 9.84337 12.9598C9.77159 12.9407 9.66154 12.9311 9.50363 12.9311H9.28351L8.95812 14.2949ZM11.8149 13.7159L11.6091 14.582H11.322L11.7814 12.6536H12.2455C12.3843 12.6536 12.48 12.6632 12.5422 12.6775C12.6044 12.6919 12.6523 12.7158 12.6905 12.7541C12.7384 12.7971 12.7719 12.8594 12.7862 12.9359C12.8006 13.0125 12.7958 13.0938 12.7767 13.1847C12.7527 13.2757 12.7192 13.3618 12.6666 13.4384C12.614 13.5149 12.5518 13.5771 12.4848 13.6202C12.4274 13.6537 12.3651 13.6824 12.2982 13.6968C12.2312 13.7111 12.1259 13.7207 11.9919 13.7207H11.8149V13.7159ZM11.8962 13.4575H11.9728C12.1402 13.4575 12.2599 13.4384 12.3269 13.4001C12.3939 13.3618 12.4369 13.2948 12.4609 13.1991C12.4848 13.0986 12.4704 13.022 12.4226 12.9838C12.3699 12.9407 12.2647 12.9216 12.1068 12.9216H12.0302L11.8962 13.4575ZM13.8151 14.582L13.7193 14.0844H12.9729L12.6379 14.582H12.3173L13.705 12.577L14.1357 14.582H13.8151ZM13.1547 13.8212H13.6763L13.5901 13.3809C13.5854 13.3522 13.5806 13.3187 13.5806 13.2852C13.5758 13.2469 13.5758 13.2087 13.5758 13.1656C13.5567 13.2087 13.5375 13.2469 13.5136 13.2852C13.4944 13.3235 13.4753 13.357 13.4562 13.3857L13.1547 13.8212ZM14.5759 14.582L14.7864 13.7015L14.4036 12.6584H14.7242L14.9635 13.3139C14.9683 13.3331 14.9731 13.3522 14.9826 13.3809C14.9922 13.4096 14.997 13.4384 15.0066 13.4671L15.064 13.3809C15.0831 13.3522 15.1023 13.3283 15.1214 13.3044L15.6813 12.6584H15.9875L15.0927 13.6968L14.8821 14.5772H14.5759V14.582ZM17.4901 13.6298C17.4901 13.6154 17.4948 13.5723 17.5044 13.5053C17.5092 13.4479 17.514 13.4049 17.5188 13.3666C17.4996 13.4096 17.4805 13.4527 17.4566 13.5006C17.4326 13.5436 17.4039 13.5915 17.3704 13.6345L16.6335 14.6634L16.3943 13.6154C16.3847 13.5723 16.3751 13.5293 16.3703 13.491C16.3655 13.4527 16.3608 13.4096 16.3608 13.3714C16.3512 13.4096 16.3368 13.4527 16.3225 13.5006C16.3081 13.5436 16.289 13.5915 16.2651 13.6393L15.8344 14.5868H15.5521L16.4756 12.577L16.7388 13.7925C16.7436 13.8116 16.7484 13.8451 16.7531 13.8882C16.7579 13.9312 16.7675 13.9886 16.7771 14.0556C16.8106 13.9982 16.8536 13.9312 16.911 13.8451C16.9254 13.8212 16.9398 13.8068 16.9445 13.7925L17.7772 12.577L17.7484 14.5868H17.4661L17.4901 13.6298ZM17.9973 14.582L18.4567 12.6536H19.5046L19.4424 12.9216H18.7007L18.5859 13.4049H19.3276L19.2606 13.6776H18.5189L18.3705 14.2997H19.1122L19.0452 14.582H17.9973ZM19.3945 14.582L19.8731 12.577L20.7822 13.7542C20.8062 13.7877 20.8301 13.8212 20.854 13.8594C20.8779 13.8977 20.9019 13.9408 20.9306 13.9886L21.2512 12.6536H21.5335L21.055 14.6538L20.1267 13.4527L20.0549 13.3522C20.031 13.3139 20.0118 13.2804 19.9975 13.2374L19.6769 14.5772H19.3945V14.582ZM22.5097 12.9168L22.1125 14.5772H21.8063L22.2034 12.9168H21.7058L21.768 12.6488H23.0695L23.0073 12.9168H22.5097ZM22.8303 14.1944L23.103 14.0796C23.1078 14.1657 23.1318 14.2327 23.1844 14.2758C23.237 14.3188 23.3088 14.3427 23.4045 14.3427C23.4954 14.3427 23.572 14.3188 23.639 14.2662C23.706 14.2135 23.749 14.1466 23.7682 14.0604C23.7969 13.9456 23.7299 13.8451 23.5672 13.759C23.5433 13.7446 23.5289 13.735 23.5146 13.7302C23.3327 13.625 23.2179 13.5341 23.17 13.4479C23.1222 13.3618 23.1126 13.2613 23.1413 13.1417C23.1796 12.9838 23.261 12.8594 23.3902 12.7589C23.5194 12.6632 23.6629 12.6105 23.8352 12.6105C23.9739 12.6105 24.084 12.6392 24.1653 12.6919C24.2467 12.7445 24.2898 12.8259 24.3041 12.9263L24.0361 13.0508C24.0122 12.9885 23.9835 12.9455 23.9452 12.9168C23.9069 12.8881 23.8591 12.8737 23.8017 12.8737C23.7203 12.8737 23.6485 12.8976 23.5911 12.9407C23.5337 12.9838 23.4954 13.0412 23.4763 13.1177C23.4476 13.2326 23.5289 13.3427 23.7155 13.4431C23.7299 13.4527 23.7395 13.4575 23.749 13.4623C23.9117 13.5484 24.0218 13.6345 24.0696 13.7207C24.1175 13.8068 24.1271 13.9073 24.0984 14.0365C24.0553 14.2183 23.9644 14.3619 23.8256 14.4719C23.6868 14.5772 23.5241 14.6346 23.3327 14.6346C23.1748 14.6346 23.0504 14.5964 22.9643 14.5198C22.8686 14.4432 22.8255 14.3332 22.8303 14.1944ZM25.0841 14.582L25.5435 12.6536H25.8497L25.3903 14.582H25.0841ZM25.8306 14.582L26.3091 12.577L27.2183 13.7542C27.2422 13.7877 27.2661 13.8212 27.2901 13.8594C27.314 13.8977 27.3379 13.9408 27.3666 13.9886L27.6872 12.6536H27.9695L27.491 14.6538L26.5627 13.4527L26.4909 13.3522C26.467 13.3139 26.4479 13.2804 26.4335 13.2374L26.1129 14.5772H25.8306V14.582ZM28.9457 12.9168L28.5485 14.5772H28.2423L28.6395 12.9168H28.1418L28.204 12.6488H29.5056L29.4434 12.9168H28.9457ZM29.2759 14.582L29.7353 12.6536H30.788L30.7258 12.9216H29.9841L29.8693 13.4049H30.611L30.544 13.6776H29.8023L29.6539 14.2997H30.3956L30.3286 14.582H29.2759ZM31.166 13.7159L30.9603 14.5772H30.6732L31.1325 12.6488H31.5584C31.6828 12.6488 31.7785 12.6584 31.8407 12.6727C31.9077 12.6871 31.9604 12.7158 31.9986 12.7541C32.0465 12.8019 32.0752 12.8594 32.0896 12.9359C32.1039 13.0077 32.0991 13.089 32.08 13.18C32.0417 13.3331 31.9795 13.4575 31.8838 13.5436C31.7881 13.6298 31.6685 13.6824 31.5249 13.7015L31.9604 14.5772H31.6158L31.1995 13.7159H31.166ZM31.2426 13.4718H31.3C31.4627 13.4718 31.5728 13.4527 31.635 13.4144C31.6972 13.3761 31.7402 13.3092 31.7642 13.2087C31.7881 13.1034 31.7785 13.0268 31.7307 12.9838C31.6828 12.9407 31.5823 12.9168 31.4292 12.9168H31.3718L31.2426 13.4718ZM32.147 14.582L32.6064 12.6536H33.6543L33.5921 12.9216H32.8504L32.7356 13.4001H33.4773L33.4103 13.6728H32.6686L32.4532 14.5772H32.147V14.582ZM34.6735 14.582L34.5778 14.0844H33.8314L33.4964 14.582H33.1758L34.5635 12.577L34.9942 14.582H34.6735ZM34.0084 13.8212H34.53L34.4439 13.3809C34.4391 13.3522 34.4343 13.3187 34.4343 13.2852C34.4295 13.2469 34.4295 13.2087 34.4295 13.1656C34.4104 13.2087 34.3912 13.2469 34.3673 13.2852C34.3482 13.3235 34.329 13.357 34.3099 13.3857L34.0084 13.8212ZM36.9848 13.1225C36.9178 13.046 36.8364 12.9885 36.7503 12.9551C36.6642 12.9168 36.5685 12.8976 36.4584 12.8976C36.2527 12.8976 36.0708 12.9646 35.9081 13.0986C35.7454 13.2326 35.6401 13.4096 35.5875 13.625C35.5397 13.8307 35.5588 14.003 35.6545 14.1418C35.7454 14.2758 35.889 14.3427 36.0804 14.3427C36.1904 14.3427 36.3005 14.3236 36.4106 14.2805C36.5206 14.2423 36.6307 14.1801 36.7455 14.0987L36.6594 14.4528C36.5637 14.515 36.4632 14.5581 36.3579 14.5868C36.2527 14.6155 36.1474 14.6299 36.0325 14.6299C35.889 14.6299 35.7598 14.6059 35.6497 14.5581C35.5397 14.5102 35.4487 14.4385 35.377 14.3427C35.3052 14.2518 35.2621 14.1418 35.243 14.0174C35.2238 13.8929 35.2286 13.759 35.2669 13.6154C35.3004 13.4718 35.3578 13.3427 35.4344 13.2182C35.5109 13.0938 35.6114 12.9838 35.7263 12.8928C35.8411 12.7971 35.9655 12.7254 36.0995 12.6775C36.2335 12.6297 36.3675 12.6057 36.5063 12.6057C36.6163 12.6057 36.7168 12.6201 36.8125 12.6536C36.9034 12.6871 36.9896 12.7349 37.0661 12.8019L36.9848 13.1225ZM37.0135 14.582L37.4729 12.6536H38.5208L38.4586 12.9216H37.7169L37.6021 13.4049H38.3438L38.2768 13.6776H37.5351L37.3867 14.2997H38.1284L38.0614 14.582H37.0135Z" fill="white"/>
<path d="M31.4433 10.9741H29.3426L32.2615 0.432373H34.3622L31.4433 10.9741ZM30.3522 0.762549C30.2087 0.561572 29.9838 0.461084 29.6775 0.461084H18.1357L17.5663 2.52827H28.0649L27.4524 4.73423H19.0545V4.72944H16.9538L15.212 11.0219H17.3127L18.4803 6.80142H27.9214C28.2181 6.80142 28.4956 6.70093 28.754 6.49995C29.0124 6.29897 29.1847 6.05015 29.266 5.75347L30.4336 1.53296C30.5245 1.21714 30.4958 0.963525 30.3522 0.762549ZM13.987 10.3137C13.8722 10.73 13.4894 11.0219 13.0587 11.0219H2.22988C1.9332 11.0219 1.71308 10.9214 1.56953 10.7205C1.42597 10.5195 1.39248 10.2707 1.47861 9.97398L4.12001 0.461084H6.2207L3.86162 8.95952H12.2644L14.6234 0.461084H16.7241L13.987 10.3137Z" fill="white"/>
<path d="M37.9891 0.451416L40.6448 5.73423L35.0605 11.017L37.9891 0.451416Z" fill="#098041"/>
</svg>
