<svg width="43" height="44" viewBox="0 0 43 44" fill="none" xmlns="http://www.w3.org/2000/svg">
<circle cx="21.5" cy="22" r="21.5" fill="#19517E"/>
<path d="M11.1116 22.9322H29.7241L26.2363 26.4161C25.2352 27.4172 26.7368 28.9228 27.7379 27.9217L30.9134 24.7422L33.0358 22.6199C33.2339 22.421 33.3451 22.1518 33.3451 21.8711C33.3451 21.5904 33.2339 21.3211 33.0358 21.1222L27.7339 15.8204C27.634 15.7179 27.5144 15.6367 27.3823 15.5816C27.2501 15.5266 27.1082 15.4988 26.9651 15.5C26.7537 15.5006 26.5473 15.5643 26.3723 15.6829C26.1973 15.8016 26.0618 15.9698 25.983 16.166C25.9043 16.3622 25.886 16.5774 25.9304 16.7841C25.9748 16.9908 26.0799 17.1795 26.2323 17.3261L29.7281 20.8099H11.0555C9.58592 20.886 9.69404 23.0043 11.1116 22.9322Z" fill="white"/>
</svg>
