<svg width="32" height="32" viewBox="0 0 32 32" fill="none" xmlns="http://www.w3.org/2000/svg">
<path d="M16 32C24.8366 32 32 24.8366 32 16C32 7.16344 24.8366 0 16 0C7.16344 0 0 7.16344 0 16C0 24.8366 7.16344 32 16 32Z" fill="#F7931E"/>
<path d="M32 16C32 24.8533 24.8533 32 16 32C7.14667 32 0 24.8533 0 16H32Z" fill="#009245"/>
<path d="M32 15.9993C32 14.186 31.68 12.3727 31.04 10.666H0.96C-0.32 14.0793 -0.32 17.9193 0.96 21.3327H31.1467C31.68 19.626 32 17.8127 32 15.9993Z" fill="#F0F0F0"/>
<path d="M15.9991 11.7324C13.6524 11.7324 11.7324 13.6524 11.7324 15.9991C11.7324 18.3458 13.6524 20.2658 15.9991 20.2658C18.3458 20.2658 20.2658 18.3458 20.2658 15.9991C20.2658 13.6524 18.3458 11.7324 15.9991 11.7324ZM15.9991 19.1991C14.1858 19.1991 12.7991 17.8124 12.7991 15.9991C12.7991 14.1858 14.1858 12.7991 15.9991 12.7991C17.8124 12.7991 19.1991 14.1858 19.1991 15.9991C19.1991 17.8124 17.8124 19.1991 15.9991 19.1991Z" fill="black"/>
<path d="M16.0005 18.1339C17.1787 18.1339 18.1339 17.1787 18.1339 16.0005C18.1339 14.8223 17.1787 13.8672 16.0005 13.8672C14.8223 13.8672 13.8672 14.8223 13.8672 16.0005C13.8672 17.1787 14.8223 18.1339 16.0005 18.1339Z" fill="black"/>
</svg>
