<svg width="50" height="50" viewBox="0 0 50 50" fill="none" xmlns="http://www.w3.org/2000/svg">
<g clip-path="url(#clip0_921_79854)">
<path d="M36.327 21.8742C31.5889 21.8742 27.7335 25.7295 27.7335 30.4676C27.7335 35.2057 31.5889 39.061 36.327 39.061C41.0651 39.061 44.9204 35.2057 44.9204 30.4676C44.9204 25.7295 41.0651 21.8742 36.327 21.8742ZM39.9704 29.0888C37.4723 32.8364 38.1807 31.7739 36.8455 33.7761C36.3659 34.4954 35.395 34.6862 34.6786 34.2087L32.3349 32.6462C31.6172 32.1677 31.4238 31.1981 31.9023 30.4793C32.3808 29.7616 33.3505 29.5682 34.0692 30.0467L35.1122 30.742C37.6041 27.0048 37.4701 27.1082 37.8894 26.8691C39.3125 26.0459 40.8849 27.7152 39.9704 29.0888ZM29.296 39.8364V48.4357C29.296 49.6328 30.5926 50.3873 31.6338 49.7921L36.327 47.1105L41.0201 49.7921C42.0571 50.3864 43.358 49.6361 43.358 48.4357V39.8364C39.1952 42.9683 33.4647 42.9728 29.296 39.8364ZM39.4518 19.1731V3.39343C39.4518 1.5224 37.9294 0 36.0584 0H8.47155C6.60053 0 5.07812 1.5224 5.07812 3.39343V39.5737C5.07812 41.4447 6.60053 42.9672 8.47155 42.9672H26.1711C26.1711 36.2435 26.1606 36.6597 26.1955 36.3502C20.965 27.3831 29.2937 16.3521 39.4518 19.1731ZM14.4528 7.81221H27.7335C28.5968 7.81221 29.296 8.5114 29.296 9.37465C29.296 10.2379 28.5968 10.9371 27.7335 10.9371H14.4528C13.5895 10.9371 12.8903 10.2379 12.8903 9.37465C12.8903 8.5114 13.5895 7.81221 14.4528 7.81221ZM22.265 23.4366H14.4528C13.5895 23.4366 12.8903 22.7374 12.8903 21.8742C12.8903 21.0109 13.5895 20.3117 14.4528 20.3117H22.265C23.1282 20.3117 23.8274 21.0109 23.8274 21.8742C23.8274 22.7374 23.1282 23.4366 22.265 23.4366ZM14.4528 17.1869C13.5895 17.1869 12.8903 16.4877 12.8903 15.6244C12.8903 14.7612 13.5895 14.062 14.4528 14.062H27.7335C28.5968 14.062 29.296 14.7612 29.296 15.6244C29.296 16.4877 28.5968 17.1869 27.7335 17.1869H14.4528Z" fill="white"/>
</g>
<defs>
<clipPath id="clip0_921_79854">
<rect width="50" height="50" fill="white"/>
</clipPath>
</defs>
</svg>
