<svg width="36" height="32" viewBox="0 0 36 32" fill="none" xmlns="http://www.w3.org/2000/svg">
<path fill-rule="evenodd" clip-rule="evenodd" d="M25.084 28.4866V30.5833C25.084 30.9148 24.9523 31.2327 24.7179 31.4672C24.4834 31.7016 24.1655 31.8333 23.834 31.8333C23.5025 31.8333 23.1845 31.7016 22.9501 31.4672C22.7157 31.2327 22.584 30.9148 22.584 30.5833V28.4999H24.6673C24.8073 28.4999 24.9457 28.4949 25.084 28.4866ZM22.584 28.4999H11.334C9.67638 28.4999 8.08667 27.8415 6.91457 26.6694C5.74246 25.4973 5.08398 23.9076 5.08398 22.2499V17.1133L14.6073 22.3749C15.6503 22.9361 16.8162 23.2299 18.0007 23.2299C19.1851 23.2299 20.351 22.9361 21.394 22.3749L22.584 21.7183V28.4999ZM25.084 20.3366L30.9173 17.1133V22.2499C30.9175 23.8355 30.315 25.3619 29.2319 26.5199C28.1488 27.6779 26.666 28.3809 25.084 28.4866V20.3366Z" fill="#19517E"/>
<path fill-rule="evenodd" clip-rule="evenodd" d="M22.584 19.8127L20.5873 20.9161C19.7924 21.3444 18.9036 21.5686 18.0007 21.5686C17.0977 21.5686 16.2089 21.3444 15.414 20.9161L1.55732 13.2594C0.613984 12.7377 0.0839844 11.8244 0.0839844 10.8694C0.0839844 9.91273 0.613984 8.9994 1.55732 8.4794L15.414 0.821066C16.2092 0.393637 17.0979 0.169922 18.0007 0.169922C18.9034 0.169922 19.7921 0.393637 20.5873 0.821066L34.444 8.4794C35.3873 8.9994 35.9173 9.91273 35.9173 10.8694C35.9173 11.8244 35.3873 12.7377 34.444 13.2594L25.084 18.4311V17.2494C25.0841 17.0853 25.0518 16.9227 24.9889 16.7711C24.9259 16.6195 24.8336 16.4819 24.7173 16.3661L18.884 10.5327C18.768 10.4167 18.6303 10.3247 18.4787 10.2619C18.3271 10.1992 18.1647 10.1668 18.0007 10.1668C17.8366 10.1668 17.6742 10.1992 17.5226 10.2619C17.371 10.3247 17.2333 10.4167 17.1173 10.5327C17.0013 10.6487 16.9093 10.7864 16.8465 10.938C16.7837 11.0896 16.7514 11.252 16.7514 11.4161C16.7514 11.5801 16.7837 11.7426 16.8465 11.8941C16.9093 12.0457 17.0013 12.1834 17.1173 12.2994L22.584 17.7677V19.8127Z" fill="#19517E"/>
</svg>
