<svg width="32" height="40" viewBox="0 0 32 40" fill="none" xmlns="http://www.w3.org/2000/svg">
<path d="M25.0616 17.4993C21.2711 17.4993 18.1868 20.5836 18.1868 24.3741C18.1868 28.1646 21.2711 31.2488 25.0616 31.2488C28.8521 31.2488 31.9363 28.1646 31.9363 24.3741C31.9363 20.5836 28.8521 17.4993 25.0616 17.4993ZM27.9763 23.271C25.9779 26.2691 26.5446 25.4191 25.4764 27.0209C25.0927 27.5963 24.316 27.749 23.7429 27.367L21.8679 26.117C21.2937 25.7342 21.1391 24.9584 21.5219 24.3835C21.9047 23.8093 22.6804 23.6546 23.2554 24.0374L24.0897 24.5936C26.0833 21.6038 25.9761 21.6865 26.3115 21.4953C27.45 20.8367 28.7079 22.1721 27.9763 23.271ZM19.4368 31.8691V38.7486C19.4368 39.7063 20.4741 40.3098 21.307 39.8337L25.0616 37.6884L28.8161 39.8337C29.6457 40.3091 30.6864 39.7089 30.6864 38.7486V31.8691C27.3562 34.3747 22.7717 34.3783 19.4368 31.8691ZM27.5615 15.3385V2.71474C27.5615 1.21792 26.3436 0 24.8467 0H2.77724C1.28042 0 0.0625 1.21792 0.0625 2.71474V31.659C0.0625 33.1558 1.28042 34.3737 2.77724 34.3737H16.9369C16.9369 28.9948 16.9285 29.3277 16.9564 29.0802C12.772 21.9065 19.435 13.0817 27.5615 15.3385ZM7.56222 6.24977H18.1868C18.8774 6.24977 19.4368 6.80912 19.4368 7.49972C19.4368 8.19032 18.8774 8.74967 18.1868 8.74967H7.56222C6.87162 8.74967 6.31227 8.19032 6.31227 7.49972C6.31227 6.80912 6.87162 6.24977 7.56222 6.24977ZM13.812 18.7493H7.56222C6.87162 18.7493 6.31227 18.1899 6.31227 17.4993C6.31227 16.8088 6.87162 16.2494 7.56222 16.2494H13.812C14.5026 16.2494 15.0619 16.8088 15.0619 17.4993C15.0619 18.1899 14.5026 18.7493 13.812 18.7493ZM7.56222 13.7495C6.87162 13.7495 6.31227 13.1901 6.31227 12.4995C6.31227 11.8089 6.87162 11.2496 7.56222 11.2496H18.1868C18.8774 11.2496 19.4368 11.8089 19.4368 12.4995C19.4368 13.1901 18.8774 13.7495 18.1868 13.7495H7.56222Z" fill="#B1B1B1"/>
</svg>
