<svg width="32" height="32" viewBox="0 0 32 32" fill="none" xmlns="http://www.w3.org/2000/svg">
<path d="M19.3389 19.2143C21.4671 15.8747 21.1996 16.2913 21.2609 16.2043C22.0358 15.1114 22.4453 13.8251 22.4453 12.4844C22.4453 8.92891 19.5601 6 16 6C12.4515 6 9.55469 8.92313 9.55469 12.4844C9.55469 13.8242 9.97281 15.1442 10.773 16.2518L12.661 19.2143C10.6425 19.5245 7.21094 20.4489 7.21094 22.4844C7.21094 23.2264 7.69523 24.2838 10.0024 25.1078C11.6134 25.6831 13.7434 26 16 26C20.2197 26 24.7891 24.8097 24.7891 22.4844C24.7891 20.4486 21.3616 19.5251 19.3389 19.2143ZM11.7519 15.6072C11.7455 15.5972 11.7387 15.5873 11.7317 15.5776C11.0658 14.6615 10.7266 13.5758 10.7266 12.4844C10.7266 9.55398 13.0862 7.17188 16 7.17188C18.9078 7.17188 21.2734 9.55504 21.2734 12.4844C21.2734 13.5776 20.9406 14.6264 20.3107 15.5184C20.2543 15.5929 20.5487 15.1354 16 22.273L11.7519 15.6072ZM16 24.8281C11.3909 24.8281 8.38281 23.4733 8.38281 22.4844C8.38281 21.8197 9.92844 20.7268 13.3534 20.3007L15.5059 23.6782C15.5588 23.7613 15.6318 23.8297 15.7182 23.8771C15.8045 23.9244 15.9015 23.9493 16 23.9493C16.0985 23.9493 16.1954 23.9244 16.2817 23.8771C16.3681 23.8297 16.4411 23.7613 16.4941 23.6782L18.6464 20.3007C22.0715 20.7268 23.6172 21.8197 23.6172 22.4844C23.6172 23.4649 20.6362 24.8281 16 24.8281Z" fill="#19517E"/>
<path d="M16 9.55469C14.3846 9.55469 13.0703 10.8689 13.0703 12.4844C13.0703 14.0998 14.3846 15.4141 16 15.4141C17.6154 15.4141 18.9297 14.0998 18.9297 12.4844C18.9297 10.8689 17.6154 9.55469 16 9.55469ZM16 14.2422C15.0307 14.2422 14.2422 13.4536 14.2422 12.4844C14.2422 11.5151 15.0307 10.7266 16 10.7266C16.9693 10.7266 17.7578 11.5151 17.7578 12.4844C17.7578 13.4536 16.9693 14.2422 16 14.2422Z" fill="#19517E"/>
<circle cx="16" cy="16" r="15.5" stroke="#19517E"/>
</svg>
