<svg width="70" height="69" viewBox="0 0 70 69" fill="none" xmlns="http://www.w3.org/2000/svg">
<path d="M35.1366 0C34.0192 0 33.1152 0.904143 33.1152 2.02135C33.1152 3.13856 34.0194 4.0427 35.1366 4.0427C51.8566 4.0427 65.4575 17.6438 65.4575 34.3636C65.4575 35.481 66.3616 36.385 67.4789 36.385C68.5961 36.385 69.5003 35.481 69.5003 34.3637C69.5003 15.4152 54.0853 0 35.1366 0Z" fill="url(#paint0_linear_921_78052)"/>
<path d="M35.1366 8.08594C34.0192 8.08594 33.1152 8.99008 33.1152 10.1073C33.1152 11.2245 34.0194 12.1288 35.1366 12.1288C47.3972 12.1288 57.372 22.1036 57.372 34.3642C57.372 35.4815 58.2761 36.3855 59.3933 36.3855C60.5107 36.3855 61.4147 35.4814 61.4147 34.3642C61.4148 19.8747 49.626 8.08594 35.1366 8.08594Z" fill="url(#paint1_linear_921_78052)"/>
<path d="M35.1366 16.1719C34.0192 16.1719 33.1152 17.076 33.1152 18.1932C33.1152 19.3106 34.0194 20.2146 35.1366 20.2146C42.9379 20.2146 49.2863 26.563 49.2863 34.3643C49.2863 35.4816 50.1904 36.3856 51.3077 36.3856C52.425 36.3856 53.329 35.4815 53.329 34.3643C53.3293 24.3325 45.1685 16.1719 35.1366 16.1719Z" fill="url(#paint2_linear_921_78052)"/>
<path d="M35.1363 24.2571C34.019 24.2571 33.115 25.1613 33.115 26.2785C33.115 27.3957 34.0191 28.2998 35.1363 28.2998C38.4802 28.2998 41.2005 31.0201 41.2005 34.364C41.2005 35.4814 42.1046 36.3854 43.2218 36.3854C44.3392 36.3854 45.2432 35.4812 45.2432 34.364C45.2433 28.7915 40.7091 24.2571 35.1363 24.2571ZM39.4378 49.6095L38.125 51.3841C37.3649 52.1481 36.0365 52.1481 35.2686 51.3841L18.1165 34.2319C17.3228 33.4341 17.3843 32.1702 17.8934 31.5671L19.9017 30.0735L2.916 13.0876C1.33197 16.3603 0.559624 20.2762 0.503022 24.7447C0.362866 35.9315 5.10365 47.6177 13.4932 56.0072C21.7189 64.2329 33.1841 68.9995 44.205 68.9995C48.3339 68.9995 52.6006 68.3442 56.3719 66.5438L39.4378 49.6095ZM61.8726 54.199L52.9737 45.3001C51.1439 43.4703 49.0158 42.5543 46.9945 42.6924C45.3383 42.8129 43.8676 43.6321 42.8489 44.998L41.8685 46.3234L59.9061 64.361C60.4549 63.9281 61.0706 63.5503 61.5486 63.0622C64.1407 60.4172 64.2788 56.6055 61.8726 54.199ZM25.1697 17.4959L15.3213 7.64754C12.9405 5.26906 9.13463 5.39533 6.45791 7.93189C5.95645 8.40842 5.56482 9.02484 5.12117 9.5759L23.1798 27.6345L24.5044 26.6494C25.9178 25.5971 26.8021 23.9845 26.9304 22.2255C27.0587 20.4666 26.4171 18.7436 25.1697 17.4959Z" fill="url(#paint3_linear_921_78052)"/>
<defs>
<linearGradient id="paint0_linear_921_78052" x1="33.1152" y1="17.9562" x2="64.0067" y2="30.9833" gradientUnits="userSpaceOnUse">
<stop stop-color="#9BC482"/>
<stop offset="1" stop-color="#0A5183"/>
</linearGradient>
<linearGradient id="paint1_linear_921_78052" x1="33.1152" y1="22.052" x2="57.142" y2="32.1841" gradientUnits="userSpaceOnUse">
<stop stop-color="#9BC482"/>
<stop offset="1" stop-color="#0A5183"/>
</linearGradient>
<linearGradient id="paint2_linear_921_78052" x1="33.1152" y1="26.1475" x2="50.2771" y2="33.3847" gradientUnits="userSpaceOnUse">
<stop stop-color="#9BC482"/>
<stop offset="1" stop-color="#0A5183"/>
</linearGradient>
<linearGradient id="paint3_linear_921_78052" x1="0.500002" y1="37.0619" x2="54.0551" y2="59.6581" gradientUnits="userSpaceOnUse">
<stop stop-color="#9BC482"/>
<stop offset="1" stop-color="#0A5183"/>
</linearGradient>
</defs>
</svg>
