<svg width="30" height="31" viewBox="0 0 30 31" fill="none" xmlns="http://www.w3.org/2000/svg">
<path d="M5.625 22.1797C4.78594 22.1797 4.10156 21.4953 4.10156 20.6562V4.83594H3.28125C2.83125 4.83594 2.46094 5.20625 2.46094 5.65625V22.5312C2.46094 22.9813 2.83125 23.3516 3.28125 23.3516H12.1312C11.5453 23.0469 11.0156 22.6484 10.5563 22.1797H5.625ZM26.7188 4.83594H25.8984V20.6562C25.8984 21.4953 25.2141 22.1797 24.375 22.1797H19.4438C18.9844 22.6484 18.4547 23.0469 17.8687 23.3516H26.7188C27.1688 23.3516 27.5391 22.9813 27.5391 22.5312V5.65625C27.5391 5.20625 27.1688 4.83594 26.7188 4.83594Z" fill="white"/>
<path d="M5.625 21.4766H9.96563C9.19925 20.4205 8.78734 19.1486 8.78906 17.8438C8.78906 14.5344 11.3859 11.825 14.6484 11.6469V2.96094H5.625C5.175 2.96094 4.80469 3.33125 4.80469 3.78125V20.6562C4.80469 21.1063 5.175 21.4766 5.625 21.4766ZM6.67969 5.30469H12.7734C12.9656 5.30469 13.125 5.46406 13.125 5.65625C13.125 5.84844 12.9656 6.00781 12.7734 6.00781H6.67969C6.4875 6.00781 6.32812 5.84844 6.32812 5.65625C6.32812 5.46406 6.4875 5.30469 6.67969 5.30469ZM6.67969 7.17969H12.7734C12.9656 7.17969 13.125 7.33906 13.125 7.53125C13.125 7.72344 12.9656 7.88281 12.7734 7.88281H6.67969C6.4875 7.88281 6.32812 7.72344 6.32812 7.53125C6.32812 7.33906 6.4875 7.17969 6.67969 7.17969ZM6.67969 9.05469H12.7734C12.9656 9.05469 13.125 9.21406 13.125 9.40625C13.125 9.59844 12.9656 9.75781 12.7734 9.75781H6.67969C6.4875 9.75781 6.32812 9.59844 6.32812 9.40625C6.32812 9.21406 6.4875 9.05469 6.67969 9.05469ZM6.67969 10.9297H10.4297C10.6219 10.9297 10.7812 11.0891 10.7812 11.2812C10.7812 11.4734 10.6219 11.6328 10.4297 11.6328H6.67969C6.4875 11.6328 6.32812 11.4734 6.32812 11.2812C6.32812 11.0891 6.4875 10.9297 6.67969 10.9297ZM6.67969 12.8047H9.02344C9.21562 12.8047 9.375 12.9641 9.375 13.1562C9.375 13.3484 9.21562 13.5078 9.02344 13.5078H6.67969C6.4875 13.5078 6.32812 13.3484 6.32812 13.1562C6.32812 12.9641 6.4875 12.8047 6.67969 12.8047ZM21.2109 17.8438C21.2109 19.1984 20.775 20.4547 20.0344 21.4766H24.375C24.825 21.4766 25.1953 21.1063 25.1953 20.6562V3.78125C25.1953 3.33125 24.825 2.96094 24.375 2.96094H15.3516V11.6469C18.6141 11.825 21.2109 14.5344 21.2109 17.8438ZM23.3203 13.5078H20.9766C20.7844 13.5078 20.625 13.3484 20.625 13.1562C20.625 12.9641 20.7844 12.8047 20.9766 12.8047H23.3203C23.5125 12.8047 23.6719 12.9641 23.6719 13.1562C23.6719 13.3484 23.5125 13.5078 23.3203 13.5078ZM17.2266 5.30469H23.3203C23.5125 5.30469 23.6719 5.46406 23.6719 5.65625C23.6719 5.84844 23.5125 6.00781 23.3203 6.00781H17.2266C17.0344 6.00781 16.875 5.84844 16.875 5.65625C16.875 5.46406 17.0344 5.30469 17.2266 5.30469ZM17.2266 7.17969H23.3203C23.5125 7.17969 23.6719 7.33906 23.6719 7.53125C23.6719 7.72344 23.5125 7.88281 23.3203 7.88281H17.2266C17.0344 7.88281 16.875 7.72344 16.875 7.53125C16.875 7.33906 17.0344 7.17969 17.2266 7.17969ZM16.875 9.40625C16.875 9.21406 17.0344 9.05469 17.2266 9.05469H23.3203C23.5125 9.05469 23.6719 9.21406 23.6719 9.40625C23.6719 9.59844 23.5125 9.75781 23.3203 9.75781H17.2266C17.0344 9.75781 16.875 9.59844 16.875 9.40625ZM19.2188 11.2812C19.2188 11.0891 19.3781 10.9297 19.5703 10.9297H23.3203C23.5125 10.9297 23.6719 11.0891 23.6719 11.2812C23.6719 11.4734 23.5125 11.6328 23.3203 11.6328H19.5703C19.3781 11.6328 19.2188 11.4734 19.2188 11.2812Z" fill="white"/>
<path d="M16.4062 24.9922H13.5938C13.3996 24.9922 13.2422 25.1496 13.2422 25.3438V27.6875C13.2422 27.8817 13.3996 28.0391 13.5938 28.0391H16.4062C16.6004 28.0391 16.7578 27.8817 16.7578 27.6875V25.3438C16.7578 25.1496 16.6004 24.9922 16.4062 24.9922Z" fill="white"/>
<path d="M9.49219 17.8438C9.49219 20.4359 11.2969 22.6109 13.7109 23.1922V24.2891H16.2891V23.1922C18.7031 22.6109 20.5078 20.4359 20.5078 17.8438C20.5078 14.8063 18.0375 12.3359 15 12.3359C11.9625 12.3359 9.49219 14.8063 9.49219 17.8438ZM15 13.7422C17.2641 13.7422 19.1016 15.5797 19.1016 17.8438C19.1016 20.1078 17.2641 21.9453 15 21.9453C12.7359 21.9453 10.8984 20.1078 10.8984 17.8438C10.8984 15.5797 12.7359 13.7422 15 13.7422Z" fill="white"/>
</svg>
