<svg width="70" height="69" viewBox="0 0 70 69" fill="none" xmlns="http://www.w3.org/2000/svg">
<g clip-path="url(#clip0_921_78070)">
<path d="M63.6147 48.3772C62.6358 47.8396 61.4069 48.1972 60.8696 49.1756C60.332 50.1541 60.6894 51.3832 61.668 51.9206C64.076 53.2435 65.457 54.71 65.457 55.9442C65.457 57.4537 63.3183 59.7932 57.3154 61.8326C51.3851 63.8476 43.4599 64.9572 35 64.9572C26.5401 64.9572 18.6149 63.8476 12.6846 61.8326C6.6817 59.7934 4.54297 57.4537 4.54297 55.9442C4.54297 54.71 5.92405 53.2435 8.33204 51.9205C9.31057 51.383 9.66797 50.154 9.13039 49.1754C8.59281 48.197 7.36415 47.8395 6.38535 48.3771C3.70055 49.8521 0.5 52.3622 0.5 55.9442C0.5 58.6899 2.38834 62.6046 11.3839 65.6608C17.7222 67.8142 26.1092 69.0001 35 69.0001C43.8908 69.0001 52.2778 67.8142 58.6161 65.6608C67.6117 62.6046 69.5 58.6899 69.5 55.9442C69.5 52.3622 66.2995 49.8521 63.6147 48.3772Z" fill="url(#paint0_linear_921_78070)"/>
<path d="M19.7379 58.9103C23.8415 60.0695 29.2616 60.708 34.9998 60.708C40.738 60.708 46.1581 60.0697 50.2618 58.9103C55.2822 57.4921 57.8278 55.4391 57.8278 52.8088C57.8278 50.1783 55.2822 48.1255 50.2618 46.7074C49.1473 46.3926 47.9352 46.1164 46.6465 45.8809C45.9225 47.131 45.1892 48.3757 44.4468 49.6149C45.8731 49.829 47.2123 50.0913 48.4284 50.4012C52.1231 51.3422 53.473 52.4016 53.7504 52.8089C53.4728 53.2163 52.1233 54.2757 48.4285 55.2166C44.9315 56.1073 40.4322 56.6153 35.6935 56.6608C35.4627 56.6781 35.2313 56.687 34.9998 56.6873C34.7668 56.6873 34.5357 56.6777 34.3061 56.6608C29.5673 56.6153 25.068 56.1074 21.571 55.2166C17.8762 54.2757 16.5266 53.2162 16.2491 52.8089C16.5266 52.4016 17.8764 51.3422 21.5711 50.4012C22.7872 50.0915 24.1264 49.829 25.5529 49.6149C24.7862 48.3347 24.0529 47.0898 23.3531 45.8809C22.0645 46.1166 20.8523 46.3926 19.7379 46.7074C14.7175 48.1255 12.1719 50.1784 12.1719 52.8088C12.1719 55.4391 14.7175 57.492 19.7379 58.9103Z" fill="url(#paint1_linear_921_78070)"/>
<path d="M35.0007 52.644C36.8002 52.644 38.4348 51.7271 39.3736 50.1912C45.9515 39.4292 53.7924 25.2456 53.7924 18.7916C53.7924 8.42986 45.3626 0 35.0007 0C24.6388 0 16.209 8.42986 16.209 18.7916C16.209 25.2456 24.0501 39.4292 30.6278 50.1912C31.5666 51.7271 33.2013 52.644 35.0007 52.644ZM27.4475 17.5013C27.4475 13.3367 30.8359 9.9484 35.0007 9.9484C39.1655 9.9484 42.5539 13.3367 42.5539 17.5013C42.5539 21.6661 39.1655 25.0544 35.0007 25.0544C30.8359 25.0544 27.4475 21.6663 27.4475 17.5013Z" fill="url(#paint2_linear_921_78070)"/>
</g>
<defs>
<linearGradient id="paint0_linear_921_78070" x1="0.500002" y1="58.428" x2="23.9432" y2="91.1082" gradientUnits="userSpaceOnUse">
<stop stop-color="#9BC482"/>
<stop offset="1" stop-color="#0A5183"/>
</linearGradient>
<linearGradient id="paint1_linear_921_78070" x1="12.1719" y1="53.1982" x2="29.1688" y2="75.2688" gradientUnits="userSpaceOnUse">
<stop stop-color="#9BC482"/>
<stop offset="1" stop-color="#0A5183"/>
</linearGradient>
<linearGradient id="paint2_linear_921_78070" x1="16.209" y1="25.9802" x2="50.669" y2="36.3547" gradientUnits="userSpaceOnUse">
<stop stop-color="#9BC482"/>
<stop offset="1" stop-color="#0A5183"/>
</linearGradient>
<clipPath id="clip0_921_78070">
<rect width="69" height="69" fill="white" transform="translate(0.5)"/>
</clipPath>
</defs>
</svg>
