<svg width="70" height="69" viewBox="0 0 70 69" fill="none" xmlns="http://www.w3.org/2000/svg">
<path d="M0.634766 30.2328V65.9897L23.6213 48.1113L0.634766 30.2328ZM60.6055 20.9304V31.9241L67.394 26.6441L60.6055 20.9304ZM36.3017 0.47476C35.9373 0.168132 35.4763 0 35 0C34.5237 0 34.0627 0.168132 33.6983 0.47476L28.338 4.98631H41.6619L36.3017 0.47476ZM9.39453 20.9304L2.60598 26.6441L9.39453 31.9241V20.9304ZM27.6076 50.1328L3.34975 69H66.6502L42.3924 50.1328H27.6076ZM46.3785 48.1113L69.3652 65.9899V30.2326L46.3785 48.1113ZM34.4905 24.1721C32.8508 24.1721 31.1547 25.7664 31.1547 28.4342C31.1547 31.1465 32.8091 32.9685 34.3543 32.9685C35.9815 32.9685 37.3158 31.0647 37.4118 28.671L37.4143 28.1628C37.3417 25.8011 36.1599 24.1721 34.4905 24.1721Z" fill="url(#paint0_linear_1279_15668)"/>
<path d="M42.3924 46.0898L56.5625 35.0686V11.0508C56.5625 9.93438 55.6574 9.0293 54.541 9.0293H15.459C14.3426 9.0293 13.4375 9.93438 13.4375 11.0508V35.0687L27.6076 46.0898H42.3924ZM20.7496 32.3314C19.7843 28.661 20.2697 24.7916 22.1167 21.4361C23.9628 18.0818 26.9713 15.6005 30.588 14.4492C34.4037 13.2343 38.4551 13.5922 41.9955 15.4569C45.5365 17.3218 48.1235 20.4586 49.2796 24.2896C49.286 24.3104 49.2919 24.3314 49.2974 24.3524C50.0659 27.231 49.8384 29.9484 48.5597 33.1633C47.6955 35.3362 45.5765 37.6582 42.2215 37.6582C41.0043 37.6582 39.8371 37.1591 38.935 36.2525C38.7224 36.0379 38.529 35.8051 38.357 35.5567C37.224 36.4782 35.8501 37.0114 34.3545 37.0114C32.4006 37.0114 30.501 36.0629 29.1427 34.409C27.833 32.8145 27.1119 30.6926 27.1119 28.4341C27.1119 26.1654 27.8793 24.0662 29.2727 22.5232C30.6468 21.0017 32.5487 20.129 34.4906 20.129C35.5586 20.129 36.5735 20.3836 37.4855 20.8632C37.6623 19.9262 38.4837 19.2183 39.47 19.2183H39.4803C40.5967 19.2238 41.4973 20.1333 41.4918 21.2497L41.4361 32.4804C41.4344 32.8253 41.5708 33.1692 41.8009 33.4004C41.8806 33.4806 42.0412 33.615 42.2215 33.615C43.8528 33.615 44.5702 32.254 44.8029 31.669C45.7472 29.2948 45.9261 27.4255 45.3995 25.4261C44.5541 22.6545 42.6772 20.3852 40.1117 19.034C37.5371 17.678 34.59 17.4181 31.8144 18.3014C26.3431 20.0432 23.2003 25.754 24.6597 31.3028C25.8715 35.9107 30.0367 39.2207 34.7887 39.3522C35.9045 39.3831 36.7844 40.3128 36.7534 41.4288C36.7231 42.5258 35.8242 43.3944 34.7338 43.3944C34.7148 43.3944 34.696 43.3941 34.6768 43.3936C31.5442 43.3069 28.4519 42.1942 25.9694 40.26C23.3902 38.2509 21.5854 35.5093 20.7496 32.3314Z" fill="url(#paint1_linear_1279_15668)"/>
<defs>
<linearGradient id="paint0_linear_1279_15668" x1="0.634768" y1="34.0519" x2="59.0568" y2="58.5925" gradientUnits="userSpaceOnUse">
<stop stop-color="#9BC482"/>
<stop offset="1" stop-color="#0A5183"/>
</linearGradient>
<linearGradient id="paint1_linear_1279_15668" x1="13.4375" y1="27.3189" x2="48.1934" y2="44.374" gradientUnits="userSpaceOnUse">
<stop stop-color="#9BC482"/>
<stop offset="1" stop-color="#0A5183"/>
</linearGradient>
</defs>
</svg>
