<svg width="70" height="70" viewBox="0 0 70 70" fill="none" xmlns="http://www.w3.org/2000/svg">
<path d="M0 35C0 15.67 15.67 0 35 0C54.33 0 70 15.67 70 35V67C70 68.6569 68.6569 70 67 70H3C1.34315 70 0 68.6569 0 67V35Z" fill="#A0C882" fill-opacity="0.15"/>
<path d="M32.1915 48.6969C32.322 48.6969 32.4472 48.7488 32.5395 48.8411C32.6318 48.9334 32.6836 49.0586 32.6836 49.1891C32.6836 49.3197 32.6318 49.4449 32.5395 49.5372C32.4472 49.6295 32.322 49.6813 32.1915 49.6813H30.0853C29.9548 49.6813 29.8296 49.6295 29.7373 49.5372C29.645 49.4449 29.5931 49.3197 29.5931 49.1891C29.5931 49.0586 29.645 48.9334 29.7373 48.8411C29.8296 48.7488 29.9548 48.6969 30.0853 48.6969H32.1915ZM34.6301 20.7401C34.6624 20.7961 34.7054 20.8452 34.7567 20.8846C34.808 20.924 34.8665 20.9528 34.9289 20.9696C34.9914 20.9863 35.0565 20.9905 35.1206 20.9821C35.1847 20.9736 35.2465 20.9526 35.3024 20.9203C35.3584 20.888 35.4075 20.8449 35.4468 20.7937C35.4862 20.7424 35.515 20.6839 35.5318 20.6214C35.5485 20.559 35.5528 20.4939 35.5443 20.4298C35.5359 20.3657 35.5149 20.3039 35.4826 20.2479L34.8046 19.0737C34.7722 19.0177 34.7292 18.9687 34.6779 18.9293C34.6267 18.89 34.5681 18.8611 34.5057 18.8444C34.4433 18.8277 34.3782 18.8234 34.3141 18.8318C34.25 18.8403 34.1882 18.8613 34.1322 18.8936C34.0762 18.9259 34.0272 18.9689 33.9878 19.0202C33.9485 19.0715 33.9196 19.13 33.9029 19.1924C33.8862 19.2549 33.8819 19.32 33.8903 19.3841C33.8988 19.4482 33.9198 19.5099 33.9521 19.5659L34.6301 20.7401ZM38.8374 19.9731C38.9679 19.9731 39.0931 19.9212 39.1854 19.8289C39.2777 19.7366 39.3296 19.6114 39.3296 19.4809V18.125C39.3296 17.9945 39.2777 17.8693 39.1854 17.777C39.0931 17.6847 38.9679 17.6328 38.8374 17.6328C38.7069 17.6328 38.5817 17.6847 38.4894 17.777C38.3971 17.8693 38.3452 17.9945 38.3452 18.125V19.4809C38.3452 19.6114 38.3971 19.7366 38.4894 19.8289C38.5817 19.9212 38.7069 19.9731 38.8374 19.9731ZM30.8681 23.0102L32.0423 23.6882C32.0983 23.7205 32.1601 23.7415 32.2242 23.75C32.2883 23.7584 32.3534 23.7541 32.4158 23.7374C32.4783 23.7207 32.5368 23.6918 32.5881 23.6525C32.6393 23.6131 32.6824 23.564 32.7147 23.5081C32.7799 23.395 32.7976 23.2607 32.7638 23.1346C32.73 23.0085 32.6476 22.901 32.5345 22.8357L31.3603 22.1578C31.3043 22.1249 31.2424 22.1035 31.1781 22.0947C31.1137 22.0859 31.0483 22.0899 30.9856 22.1065C30.9228 22.1231 30.864 22.152 30.8124 22.1914C30.7608 22.2308 30.7176 22.2801 30.6851 22.3363C30.6527 22.3925 30.6317 22.4546 30.6233 22.5189C30.6149 22.5833 30.6194 22.6487 30.6364 22.7113C30.6534 22.774 30.6826 22.8326 30.7224 22.8839C30.7622 22.9352 30.8117 22.9782 30.8681 23.0102ZM46.9868 22.3379C46.9216 22.2249 46.8141 22.1424 46.688 22.1086C46.5619 22.0748 46.4275 22.0925 46.3145 22.1578L45.1403 22.8357C45.0839 22.8678 45.0343 22.9107 44.9946 22.962C44.9548 23.0133 44.9256 23.072 44.9086 23.1346C44.8915 23.1973 44.8871 23.2627 44.8955 23.327C44.9038 23.3914 44.9249 23.4535 44.9573 23.5097C44.9898 23.5659 45.033 23.6151 45.0846 23.6546C45.1361 23.694 45.195 23.7228 45.2577 23.7394C45.3205 23.756 45.3859 23.76 45.4502 23.7512C45.5145 23.7425 45.5765 23.721 45.6325 23.6882L46.8067 23.0102C46.9197 22.945 47.0022 22.8375 47.036 22.7114C47.0698 22.5853 47.0521 22.451 46.9868 22.3379ZM43.5424 18.8936C43.4294 18.8283 43.295 18.8106 43.169 18.8444C43.0429 18.8782 42.9354 18.9607 42.8701 19.0737L42.1922 20.2479C42.1279 20.3609 42.111 20.4947 42.145 20.6202C42.1791 20.7456 42.2614 20.8525 42.3739 20.9175C42.4865 20.9824 42.6202 21.0003 42.7458 20.967C42.8715 20.9338 42.9789 20.8523 43.0446 20.7401L43.7226 19.5659C43.7878 19.4529 43.8055 19.3185 43.7717 19.1924C43.738 19.0664 43.6555 18.9589 43.5424 18.8936ZM43.5469 26.1785C43.5469 27.4922 43.1158 28.1593 42.699 28.8045C42.2741 29.462 41.8361 30.1409 41.6568 31.6854C42.0691 31.8724 42.3571 32.2869 42.3571 32.7684V34.2731C42.3571 34.9289 41.8235 35.4625 41.1677 35.4625H40.9433V35.6694C40.9433 36.3035 40.4274 36.8193 39.7934 36.8193H37.8814C37.2474 36.8193 36.7315 36.3034 36.7315 35.6694V35.4625H36.507C35.8512 35.4625 35.3177 34.929 35.3177 34.2731V32.7683C35.3177 32.2869 35.6057 31.8724 36.0179 31.6853C35.8386 30.1409 35.4007 29.462 34.9758 28.8045C34.5589 28.1593 34.1278 27.4922 34.1278 26.1785C34.1278 26.0117 34.1368 25.8471 34.1538 25.6848H25.3753C24.5793 25.6848 23.9317 26.3324 23.9317 27.1284V49.9392C23.9317 50.7352 24.5793 51.3828 25.3753 51.3828H36.9017C37.6977 51.3828 38.3453 50.7352 38.3453 49.9392V38.4365C38.3453 38.306 38.3971 38.1808 38.4894 38.0885C38.5817 37.9962 38.7069 37.9443 38.8375 37.9443C38.968 37.9443 39.0932 37.9962 39.1855 38.0885C39.2778 38.1808 39.3297 38.306 39.3297 38.4365V49.9392C39.3297 51.278 38.2405 52.3672 36.9017 52.3672H25.3752C24.0364 52.3672 22.9473 51.278 22.9473 49.9392V27.1284C22.9473 25.7896 24.0364 24.7004 25.3752 24.7004H34.3666C34.9881 22.8257 36.7568 21.4689 38.8373 21.4689C41.4342 21.4689 43.5469 23.5817 43.5469 26.1785ZM41.3727 32.7683C41.3727 32.6571 41.2789 32.5632 41.1677 32.5632H36.507C36.3959 32.5632 36.302 32.6571 36.302 32.7683V34.273C36.302 34.3842 36.3959 34.4781 36.507 34.4781H37.2237C37.3542 34.4781 37.4794 34.5299 37.5717 34.6222C37.664 34.7145 37.7158 34.8397 37.7158 34.9703V35.6693C37.7158 35.759 37.7916 35.8348 37.8814 35.8348H39.7932C39.8829 35.8348 39.9587 35.759 39.9587 35.6693V34.9703C39.9587 34.8397 40.0106 34.7145 40.1029 34.6222C40.1952 34.5299 40.3204 34.4781 40.4509 34.4781H41.1676C41.2787 34.4781 41.3726 34.3842 41.3726 34.273V32.7683H41.3727ZM42.5626 26.1785C42.5626 24.1244 40.8914 22.4533 38.8374 22.4533C36.7834 22.4533 35.1122 24.1244 35.1122 26.1785C35.1122 27.2019 35.4017 27.65 35.8025 28.2702C36.2453 28.9556 36.7881 29.7967 36.9961 31.5789H38.3453V27.2476L36.7828 26.3456C36.7264 26.3135 36.6768 26.2706 36.6371 26.2193C36.5973 26.168 36.5681 26.1093 36.5511 26.0467C36.5341 25.984 36.5296 25.9186 36.538 25.8543C36.5463 25.7899 36.5674 25.7278 36.5998 25.6716C36.6323 25.6154 36.6755 25.5662 36.7271 25.5267C36.7787 25.4873 36.8375 25.4585 36.9003 25.4419C36.963 25.4253 37.0284 25.4213 37.0927 25.4301C37.1571 25.4389 37.219 25.4603 37.275 25.4931L38.8375 26.3952L40.4 25.4931C40.5129 25.4289 40.6467 25.4119 40.7722 25.446C40.8976 25.48 41.0045 25.5623 41.0695 25.6749C41.1345 25.7874 41.1523 25.9211 41.1191 26.0468C41.0858 26.1724 41.0043 26.2799 40.8921 26.3456L39.3297 27.2476V31.5789H40.6787C40.8867 29.7967 41.4295 28.9557 41.8724 28.2702C42.273 27.65 42.5626 27.2019 42.5626 26.1785Z" fill="#A0C882"/>
</svg>
