<svg width="70" height="70" viewBox="0 0 70 70" fill="none" xmlns="http://www.w3.org/2000/svg">
<path d="M0 35C0 15.67 15.67 0 35 0C54.33 0 70 15.67 70 35V67C70 68.6569 68.6569 70 67 70H3C1.34315 70 0 68.6569 0 67V35Z" fill="#19517E" fill-opacity="0.15"/>
<path d="M52.7676 25.6418L44.5808 19.6514C44.5142 19.6024 44.4375 19.5686 44.3563 19.5525C44.2752 19.5365 44.1914 19.5386 44.1111 19.5586L34.2763 22.0532C34.1731 22.0795 34.0794 22.1346 34.0063 22.2121C33.9331 22.2896 33.8835 22.3863 33.8632 22.4909C33.8428 22.5955 33.8526 22.7037 33.8914 22.803C33.9302 22.9022 33.9964 22.9884 34.0823 23.0515L36.6865 24.9527L36.124 27.8044C35.8174 29.3962 38.3738 31.9161 41.819 32.5854C42.4232 32.702 43.0372 32.7604 43.6526 32.7598C44.5961 32.7656 45.5343 32.6194 46.4312 32.3267C47.8093 31.8683 48.7289 31.1033 48.8892 30.2849L49.4517 27.4416L52.5762 26.6513C52.6795 26.625 52.7731 26.5699 52.8463 26.4924C52.9194 26.4149 52.969 26.3182 52.9894 26.2136C53.0097 26.109 52.9999 26.0008 52.9611 25.9015C52.9223 25.8023 52.8562 25.7161 52.7703 25.653L52.7676 25.6418ZM47.7925 30.0684C47.7278 30.3975 47.1176 30.9121 46.0798 31.2581C44.7693 31.6683 43.377 31.7437 42.03 31.4774C38.8661 30.8615 37.0999 28.7213 37.249 28.0182L37.7018 25.6868L42.2691 29.0391C42.3652 29.11 42.4815 29.1484 42.6009 29.1488C42.6485 29.1491 42.6959 29.1425 42.7415 29.1291L48.2425 27.7371L47.7925 30.0684ZM42.7303 27.976L35.7134 22.8463L44.1308 20.7145L51.1392 25.8414L42.7303 27.976ZM30.7524 32.8667C30.6678 32.9155 30.5974 32.9856 30.5481 33.0699C30.4988 33.1542 30.4723 33.2499 30.4712 33.3476V43.3821C30.4723 43.4798 30.4988 43.5755 30.5481 43.6598C30.5974 43.7441 30.6678 43.8142 30.7524 43.863C30.837 43.9153 30.9343 43.9435 31.0337 43.9446C31.1246 43.9454 31.2143 43.9242 31.2952 43.8827L40.8854 38.8626C40.9761 38.8149 41.052 38.7433 41.105 38.6556C41.1579 38.5679 41.1859 38.4673 41.1859 38.3648C41.1859 38.2624 41.1579 38.1618 41.105 38.0741C41.052 37.9864 40.9761 37.9148 40.8854 37.8671L31.3037 32.847C31.2178 32.8027 31.122 32.7812 31.0255 32.7847C30.9289 32.7881 30.8349 32.8163 30.7524 32.8667ZM31.5962 34.2729L39.4117 38.3648L31.6046 42.4539L31.5962 34.2729Z" fill="#19517E" fill-opacity="0.6"/>
<path d="M51.3108 47.0831H48.4225C48.4725 46.9258 48.4981 46.7617 48.4984 46.5966V33.5838C48.4984 33.4346 48.4391 33.2915 48.3336 33.186C48.2282 33.0806 48.0851 33.0213 47.9359 33.0213C47.7867 33.0213 47.6436 33.0806 47.5381 33.186C47.4327 33.2915 47.3734 33.4346 47.3734 33.5838V46.5965C47.3723 46.6615 47.3584 46.7257 47.3325 46.7853C47.3066 46.8449 47.2692 46.8989 47.2225 46.944C47.1758 46.9892 47.1206 47.0247 47.0601 47.0486C46.9997 47.0724 46.9351 47.0842 46.8701 47.0831H22.0032C21.9382 47.0842 21.8736 47.0725 21.8131 47.0486C21.7526 47.0248 21.6975 46.9893 21.6507 46.9441C21.604 46.899 21.5666 46.845 21.5407 46.7854C21.5148 46.7258 21.5009 46.6617 21.4997 46.5967V29.5705C21.5008 29.5055 21.5147 29.4414 21.5406 29.3818C21.5665 29.3221 21.6039 29.2682 21.6506 29.223C21.6974 29.1778 21.7525 29.1423 21.813 29.1185C21.8735 29.0946 21.938 29.0829 22.003 29.084H34.4366C34.5857 29.084 34.7288 29.0247 34.8343 28.9192C34.9398 28.8138 34.9991 28.6707 34.9991 28.5215C34.9991 28.3723 34.9398 28.2292 34.8343 28.1237C34.7288 28.0183 34.5857 27.959 34.4366 27.959H22.0032C21.1091 27.9559 20.381 28.6765 20.3748 29.5704V46.5965C20.3751 46.7616 20.4007 46.9256 20.4507 47.083H17.5625C17.4133 47.083 17.2702 47.1423 17.1648 47.2477C17.0593 47.3532 17 47.4963 17 47.6455V47.7861C17 49.0517 17.9956 50.4579 19.3314 50.4579H49.5418C50.8776 50.4579 51.8732 49.0517 51.8732 47.7861V47.6455C51.8732 47.4963 51.8139 47.3533 51.7084 47.2479C51.6029 47.1424 51.4599 47.0831 51.3108 47.0831ZM49.5418 49.333H19.3314C18.8449 49.333 18.3499 48.8155 18.184 48.2081H50.6892C50.5233 48.8155 50.0283 49.333 49.5418 49.333Z" fill="#19517E" fill-opacity="0.6"/>
</svg>
