<svg width="79" height="17" viewBox="0 0 79 17" fill="none" xmlns="http://www.w3.org/2000/svg">
<path d="M6.87633 7.72727C9.65596 4.79091 12.2893 3.70909 13.3134 4.63636C13.606 4.94545 13.606 5.25454 13.606 5.87273C13.606 6.18182 13.8986 6.18182 13.8986 5.87273C14.0448 4.94545 13.7523 4.32727 13.0208 3.55454C10.2411 0.61818 5.55966 0.463635 2.78003 3.55454C0.000405073 6.49091 0.000405073 11.4364 2.78003 14.3727C3.51152 15.1455 4.0967 15.3 4.97448 15.3C5.26707 15.3 5.26707 14.9909 4.97448 14.9909C4.53559 14.9909 4.0967 14.8364 3.80411 14.6818C3.07263 13.4455 4.243 10.6636 6.87633 7.72727Z" fill="#03326C"/>
<path d="M11.9963 10.0453C9.21667 12.9816 6.58333 14.0635 5.55926 13.1362C5.26667 12.8271 5.26667 12.3635 5.26667 11.8998C5.26667 11.5907 4.97407 11.5907 4.97407 11.8998C4.82778 12.8271 5.12037 13.4453 5.85185 14.218C8.63148 17.1544 13.313 17.3089 16.0926 14.218C18.8722 11.2816 18.8722 6.33619 16.0926 3.39982C15.3611 2.6271 14.7759 2.47255 13.8981 2.6271C13.6056 2.6271 13.6056 2.93619 13.8981 2.93619C14.337 2.93619 14.7759 3.09073 15.0685 3.24528C15.8 4.17255 14.7759 7.10891 11.9963 10.0453Z" fill="#03326C"/>
<path d="M45.059 8.65421C45.059 13.136 42.4257 15.7633 39.0608 15.7633C35.5497 15.7633 33.209 12.8269 33.209 8.96331C33.209 4.79058 35.696 2.00876 39.2071 2.00876C42.8645 1.85421 45.059 4.79058 45.059 8.65421ZM35.5497 8.80876C35.5497 11.5906 36.8664 13.7542 39.0608 13.7542C41.2553 13.7542 42.5719 11.5906 42.5719 8.80876C42.5719 6.33603 41.4016 3.8633 39.0608 3.8633C36.8664 3.8633 35.5497 6.02694 35.5497 8.80876Z" fill="#03326C"/>
<path d="M46.8145 2.31788C47.6922 2.16333 48.8626 2.00879 50.3256 2.00879C52.0811 2.00879 53.2515 2.31788 53.983 3.09061C54.7145 3.70879 55.1533 4.79061 55.1533 6.02697C55.1533 7.26334 54.7145 8.34515 54.1293 8.96334C53.2515 9.89061 51.7885 10.3542 50.1793 10.3542C49.7404 10.3542 49.3015 10.3542 49.0089 10.1997V15.4542H46.8145M49.0089 8.4997C49.3015 8.65424 49.5941 8.65424 50.1793 8.65424C51.9348 8.65424 52.9589 7.72697 52.9589 6.18152C52.9589 4.63606 51.9348 3.86333 50.3256 3.86333C49.7404 3.86333 49.3015 3.86333 49.0089 4.01788V8.4997Z" fill="#03326C"/>
<path d="M58.5189 11.7459L57.3486 15.455H55.0078L59.1041 2.16406H62.03L66.1263 15.455H63.6393L62.4689 11.7459M62.03 9.89134L61.006 6.64588C60.7134 5.87315 60.5671 4.94588 60.4208 4.17315C60.2745 4.94588 59.9819 5.87315 59.8356 6.64588L58.8115 9.89134H62.03Z" fill="#03326C"/>
<path d="M67.4422 12.827C68.1737 13.2906 69.344 13.7542 70.5144 13.7542C71.9774 13.7542 72.8552 12.9815 72.8552 11.8997C72.8552 10.8179 72.27 10.3542 70.6607 9.73606C68.6126 8.96334 67.2959 7.72697 67.2959 5.87243C67.2959 3.70879 69.0515 2.00879 71.8311 2.00879C73.1477 2.00879 74.1718 2.31788 74.9033 2.62697L74.3181 4.63606C73.8792 4.32697 73.0015 4.01788 71.8311 4.01788C70.3681 4.01788 69.7829 4.79061 69.7829 5.56333C69.7829 6.64515 70.5144 7.10879 72.27 7.72697C74.4644 8.65424 75.4885 9.73606 75.4885 11.7452C75.4885 13.9088 73.8792 15.7633 70.6607 15.7633C69.344 15.7633 67.8811 15.2997 67.2959 14.8361" fill="#03326C"/>
<path d="M29.4059 13.4459C29.1133 13.6004 28.5281 13.755 27.6503 13.755C25.017 13.755 23.2615 11.9004 23.2615 8.96406C23.2615 5.87315 25.1633 4.17315 27.7966 4.17315C29.1133 4.17315 29.9911 4.48224 30.7226 4.79134L31.1615 2.78224C30.5763 2.47315 29.4059 2.16406 27.7966 2.16406C23.554 2.16406 20.7744 4.79134 20.7744 9.11861C20.7744 11.1277 21.3596 12.8277 22.53 14.0641C23.7003 15.3004 25.3096 15.9186 27.504 15.9186C29.1133 15.9186 30.7226 15.455 31.6003 15.1459V8.19134H29.4059" fill="#03326C"/>
<path d="M77.3903 2.47266C77.9755 2.47266 78.4144 2.93629 78.4144 3.55447C78.4144 4.17266 77.9755 4.63629 77.3903 4.63629C76.8051 4.63629 76.3662 4.17266 76.3662 3.55447C76.3662 2.93629 76.8051 2.47266 77.3903 2.47266ZM77.3903 4.48175C77.8292 4.48175 78.2681 4.01811 78.2681 3.55447C78.2681 3.09084 77.9755 2.6272 77.3903 2.6272C76.9514 2.6272 76.5125 3.09084 76.5125 3.55447C76.5125 4.01811 76.8051 4.48175 77.3903 4.48175ZM76.9514 2.93629H77.3903C77.6829 2.93629 77.8292 3.09084 77.8292 3.24538C77.8292 3.39993 77.6829 3.55447 77.5366 3.55447L77.8292 4.17266H77.6829L77.3903 3.55447H77.244V4.17266H77.0977V2.93629H76.9514ZM77.0977 3.39993H77.3903C77.5366 3.39993 77.6829 3.39993 77.6829 3.24538C77.5366 3.09084 77.5366 3.09084 77.3903 3.09084H77.0977V3.39993Z" fill="#03326C"/>
</svg>
