<svg width="83" height="83" viewBox="0 0 83 83" fill="none" xmlns="http://www.w3.org/2000/svg">
<circle cx="41.5" cy="41.5" r="41" stroke="url(#paint0_linear_294_49348)"/>
<circle cx="41.5" cy="41.5" r="35.5" fill="white"/>
<path d="M31.4381 44.425C34.9924 44.3336 34.9854 39.1403 31.4381 39.0461C27.8901 39.141 27.8845 44.3336 31.4381 44.425ZM32.9568 44.9594H29.9123C29.3037 44.9602 28.7143 45.1724 28.2449 45.5598C27.7755 45.9471 27.4552 46.4855 27.3389 47.0828C27.3389 47.0828 34.5529 47.0828 35.5373 47.0828C35.4205 46.4844 35.0991 45.9453 34.6283 45.5578C34.1575 45.1704 33.5666 44.9588 32.9568 44.9594ZM31.4381 32.718C32.1523 32.718 32.8373 32.4342 33.3423 31.9292C33.8473 31.4242 34.1311 30.7392 34.1311 30.025C34.1311 29.3108 33.8473 28.6258 33.3423 28.1208C32.8373 27.6158 32.1523 27.332 31.4381 27.332C30.7239 27.332 30.0389 27.6158 29.5339 28.1208C29.0288 28.6258 28.7451 29.3108 28.7451 30.025C28.7451 30.7392 29.0288 31.4242 29.5339 31.9292C30.0389 32.4342 30.7239 32.718 31.4381 32.718ZM48.3412 36.8383C47.5002 36.8383 46.6936 37.1724 46.0989 37.7671C45.5042 38.3618 45.1701 39.1683 45.1701 40.0094C45.1701 40.8504 45.5042 41.657 46.0989 42.2517C46.6936 42.8464 47.5002 43.1805 48.3412 43.1805C49.1822 43.1805 49.9888 42.8464 50.5835 42.2517C51.1782 41.657 51.5123 40.8504 51.5123 40.0094C51.5123 39.1683 51.1782 38.3618 50.5835 37.7671C49.9888 37.1724 49.1822 36.8383 48.3412 36.8383ZM46.4498 44.1719C45.6621 44.1731 44.9047 44.4751 44.3322 45.0161C43.7598 45.5572 43.4156 46.2965 43.3701 47.0828C44.1696 47.0814 53.3123 47.0828 53.3123 47.0828C53.2668 46.2965 52.9226 45.5572 52.3502 45.0161C51.7778 44.4751 51.0203 44.1731 50.2326 44.1719H46.4498Z" fill="url(#paint1_linear_294_49348)"/>
<path d="M56.0899 48.1375C56.0899 48.1375 43.9849 48.1397 40.593 48.1375C40.5979 47.9969 40.593 28.5647 40.593 26.2493H55.2672C55.4448 26.2671 55.6125 26.3396 55.7473 26.4567C55.882 26.5738 55.9771 26.7298 56.0196 26.9032H57.461C57.3998 26.3551 57.1454 25.8467 56.7434 25.4692C56.3414 25.0917 55.818 24.8697 55.2672 24.843H24.5125C23.8878 24.88 23.303 25.1624 22.8856 25.6286C22.4681 26.0948 22.2517 26.7071 22.2836 27.3321C22.2921 34.6446 22.2773 44.0271 22.2836 51.3227C22.2504 51.9487 22.4661 52.5625 22.8836 53.0301C23.3012 53.4977 23.8867 53.7813 24.5125 53.8188H35.8821L35.3336 56.3008C34.9744 56.3006 34.6186 56.3713 34.2867 56.5087C33.9548 56.646 33.6532 56.8475 33.3992 57.1015C33.1451 57.3555 32.9437 57.6571 32.8063 57.9891C32.6689 58.321 32.5983 58.6767 32.5985 59.036V59.6969C32.599 59.8832 32.6733 60.0618 32.805 60.1935C32.9368 60.3252 33.1153 60.3995 33.3016 60.4H46.4781C46.5706 60.4003 46.6621 60.3823 46.7476 60.3471C46.833 60.3119 46.9106 60.2601 46.976 60.1947C47.0413 60.1294 47.0931 60.0518 47.1283 59.9663C47.1636 59.8809 47.1816 59.7893 47.1813 59.6969C47.3753 57.9222 46.3199 56.3268 44.4461 56.3008L43.8977 53.8188H55.2672C55.893 53.7813 56.4785 53.4977 56.8961 53.0301C57.3137 52.5625 57.5294 51.9487 57.4961 51.3227V37.5133H56.0899V48.1375ZM38.9688 51.5829C38.9688 51.401 39.041 51.2267 39.1696 51.0981C39.2981 50.9695 39.4725 50.8973 39.6543 50.8973C39.8361 50.8973 40.0105 50.9695 40.1391 51.0981C40.2676 51.2267 40.3399 51.401 40.3399 51.5829C40.3399 51.7647 40.2676 51.9391 40.1391 52.0676C40.0105 52.1962 39.8361 52.2684 39.6543 52.2684C39.4725 52.2684 39.2981 52.1962 39.1696 52.0676C39.041 51.9391 38.9688 51.7647 38.9688 51.5829ZM39.1867 48.1375H23.6899C23.6899 48.1375 23.6934 38.0203 23.6899 37.8297H39.1867V48.1375ZM23.6899 27.3321C23.6899 26.7485 24.0625 26.2493 24.5125 26.2493H39.1867C39.1903 26.8687 39.1839 36.0825 39.1867 36.4235C36.3658 36.4263 24.6778 36.4235 23.6899 36.4235C23.6969 36.2048 23.6849 27.8812 23.6899 27.3321ZM43.0047 56.3008H36.775L37.3235 53.8188H42.4563L43.0047 56.3008Z" fill="url(#paint2_linear_294_49348)"/>
<path d="M35.5373 35.3688C35.4205 34.7704 35.0991 34.2313 34.6283 33.8439C34.1575 33.4564 33.5666 33.2449 32.9568 33.2454H29.9123C29.3037 33.2462 28.7143 33.4584 28.2449 33.8458C27.7755 34.2331 27.4552 34.7715 27.3389 35.3688H35.5373ZM59.8795 27.9579C57.7828 27.953 54.4528 27.9614 52.335 27.9579C51.8644 27.9579 51.413 28.1443 51.0796 28.4764C50.7462 28.8085 50.5579 29.2592 50.5561 29.7298V34.6798C50.5586 35.1298 50.731 35.5623 51.0386 35.8908C51.3462 36.2193 51.7665 36.4196 52.2154 36.4516V37.7876C52.2176 37.9259 52.2601 38.0606 52.3378 38.175C52.4155 38.2895 52.525 38.3788 52.6527 38.4318C52.7805 38.4849 52.921 38.4994 53.0569 38.4736C53.1929 38.4479 53.3183 38.3829 53.4178 38.2868L55.2529 36.4587C56.5221 36.4622 58.5956 36.4559 59.8795 36.4587C60.3507 36.4568 60.8021 36.2688 61.1353 35.9356C61.4685 35.6024 61.6565 35.151 61.6584 34.6798V29.7298C61.6565 29.2592 61.4683 28.8085 61.1349 28.4764C60.8015 28.1443 60.3501 27.9579 59.8795 27.9579ZM59.1975 32.7251C59.1204 32.7577 59.0372 32.7729 58.9536 32.7695C58.8701 32.7662 58.7883 32.7444 58.7141 32.7058C58.6399 32.6671 58.5752 32.6126 58.5246 32.546C58.474 32.4794 58.4387 32.4025 58.4213 32.3207C58.4039 32.2389 58.4047 32.1543 58.4238 32.0729C58.443 31.9914 58.4798 31.9153 58.5318 31.8498C58.5838 31.7842 58.6497 31.7311 58.7246 31.694C58.7996 31.6569 58.8818 31.6368 58.9654 31.6352C59.0456 31.6332 59.1251 31.65 59.1975 31.6844V32.7251ZM56.9475 32.2048C56.9475 32.3567 56.8871 32.5025 56.7796 32.61C56.6722 32.7174 56.5264 32.7778 56.3744 32.7778C56.2224 32.7778 56.0767 32.7174 55.9692 32.61C55.8617 32.5025 55.8014 32.3567 55.8014 32.2048C55.8014 32.0528 55.8617 31.907 55.9692 31.7996C56.0767 31.6921 56.2224 31.6317 56.3744 31.6317C56.5264 31.6317 56.6722 31.6921 56.7796 31.7996C56.8871 31.907 56.9475 32.0528 56.9475 32.2048ZM54.3529 32.2048C54.3529 32.3567 54.2926 32.5025 54.1851 32.61C54.0776 32.7174 53.9319 32.7778 53.7799 32.7778C53.6279 32.7778 53.4821 32.7174 53.3747 32.61C53.2672 32.5025 53.2068 32.3567 53.2068 32.2048C53.2068 32.0528 53.2672 31.907 53.3747 31.7996C53.4821 31.6921 53.6279 31.6317 53.7799 31.6317C53.9319 31.6317 54.0776 31.6921 54.1851 31.7996C54.2926 31.907 54.3529 32.0528 54.3529 32.2048Z" fill="url(#paint3_linear_294_49348)"/>
<defs>
<linearGradient id="paint0_linear_294_49348" x1="2.45068e-06" y1="40.961" x2="70.4684" y2="70.6778" gradientUnits="userSpaceOnUse">
<stop stop-color="#9BC482"/>
<stop offset="1" stop-color="#0A5183"/>
</linearGradient>
<linearGradient id="paint1_linear_294_49348" x1="27.3389" y1="37.0792" x2="47.2032" y2="48.0952" gradientUnits="userSpaceOnUse">
<stop stop-color="#9BC482"/>
<stop offset="1" stop-color="#0A5183"/>
</linearGradient>
<linearGradient id="paint2_linear_294_49348" x1="22.2803" y1="42.3906" x2="52.2676" y2="54.9162" gradientUnits="userSpaceOnUse">
<stop stop-color="#9BC482"/>
<stop offset="1" stop-color="#0A5183"/>
</linearGradient>
<linearGradient id="paint3_linear_294_49348" x1="27.3389" y1="33.1528" x2="39.2177" y2="49.4798" gradientUnits="userSpaceOnUse">
<stop stop-color="#9BC482"/>
<stop offset="1" stop-color="#0A5183"/>
</linearGradient>
</defs>
</svg>
