<svg width="38" height="38" viewBox="0 0 38 38" fill="none" xmlns="http://www.w3.org/2000/svg">
<path d="M7.75015 0.246098C7.58453 0.246723 7.42591 0.312952 7.30903 0.430281C7.19214 0.547611 7.12651 0.706479 7.12651 0.872095V3.99735H12.1274V0.872095C12.1274 0.706886 12.0621 0.548373 11.9457 0.43111C11.8293 0.313848 11.6713 0.247345 11.5061 0.246098H7.75015ZM26.5064 0.246098C26.424 0.245787 26.3424 0.26175 26.2661 0.29307C26.1899 0.32439 26.1206 0.370451 26.0622 0.428611C26.0039 0.486771 25.9575 0.555886 25.9259 0.631989C25.8943 0.708093 25.8781 0.789689 25.8781 0.872095V15.2511H30.879V0.874457C30.8793 0.791852 30.8632 0.710003 30.8318 0.633626C30.8003 0.557249 30.754 0.487855 30.6956 0.429444C30.6372 0.371033 30.5678 0.32476 30.4914 0.293293C30.415 0.261826 30.3332 0.245786 30.2506 0.246098H26.5064ZM13.377 2.74772V15.2511H18.3756V2.74772C18.3749 2.58252 18.309 2.42425 18.1922 2.30743C18.0754 2.19061 17.9171 2.12471 17.7519 2.12409H13.9723C13.618 2.12409 13.377 2.42646 13.377 2.74772ZM20.2512 3.99735C20.169 3.99735 20.0876 4.01355 20.0116 4.045C19.9357 4.07646 19.8667 4.12257 19.8085 4.1807C19.7504 4.23883 19.7043 4.30784 19.6728 4.38379C19.6414 4.45974 19.6252 4.54114 19.6252 4.62335V7.74861H24.6261V4.62099C24.6261 4.45578 24.5608 4.29727 24.4444 4.18C24.328 4.06274 24.17 3.99624 24.0048 3.99499L20.2512 3.99735ZM7.12651 5.24935V6.49898H12.1274V5.24698L7.12651 5.24935ZM2.12327 6.49898C1.62743 6.50084 1.15239 6.69848 0.801558 7.04887C0.450723 7.39926 0.252488 7.87404 0.25 8.36988V30.8727C0.25 31.9003 1.09569 32.746 2.12327 32.746H35.8727C36.3694 32.7441 36.8453 32.5463 37.197 32.1955C37.5486 31.8447 37.7476 31.3694 37.7507 30.8727V8.36988C37.747 7.87361 37.5477 7.39883 37.1961 7.04857C36.8446 6.69831 36.369 6.50083 35.8727 6.49898H32.1262V8.99115H34.6231C34.9704 8.99115 35.2515 9.27462 35.2491 9.61951V27.1191C35.2491 27.464 34.968 27.7427 34.6231 27.7427H3.37526C3.21005 27.7421 3.05179 27.6762 2.93497 27.5594C2.81815 27.4425 2.75225 27.2843 2.75162 27.1191V9.62187C2.74926 9.27699 3.02801 8.99588 3.37526 8.99351H5.87452V6.49898H2.12327ZM7.12651 7.74861L7.12415 21.4969H12.125L12.1274 7.74861H7.12651ZM19.6228 8.99824V10.2502H24.6261V8.99824H19.6228ZM19.6228 11.4999V21.4993H24.6237L24.6261 11.4999H19.6228ZM13.3794 16.5007V17.7457H18.3779V16.5031L13.3794 16.5007ZM25.8804 16.5007V17.7457H30.8813V16.5031L25.8804 16.5007ZM13.377 18.9953V21.4993H18.3708V18.9953H13.377ZM25.8781 18.9953L25.8757 21.4993H30.8766V18.9953H25.8781ZM5.87688 22.7465C5.79428 22.7462 5.71243 22.7623 5.63605 22.7937C5.55967 22.8252 5.49028 22.8715 5.43187 22.9299C5.37346 22.9883 5.32719 23.0577 5.29572 23.1341C5.26425 23.2104 5.24821 23.2923 5.24852 23.3749V24.6269C5.24852 24.9718 5.53199 25.2505 5.87688 25.2482H32.1215C32.2037 25.2488 32.2852 25.2332 32.3614 25.2023C32.4376 25.1714 32.507 25.1259 32.5655 25.0682C32.6241 25.0105 32.6707 24.9418 32.7028 24.8661C32.7348 24.7904 32.7516 24.7091 32.7522 24.6269V23.3749C32.7525 23.2923 32.7365 23.2104 32.705 23.1341C32.6736 23.0577 32.6273 22.9883 32.5689 22.9299C32.5105 22.8715 32.4411 22.8252 32.3647 22.7937C32.2883 22.7623 32.2065 22.7462 32.1239 22.7465H5.87688ZM17.7519 28.9947H20.2512C21.0662 29.0136 21.0662 30.2278 20.2512 30.2467H17.7519C16.9369 30.2254 16.9369 29.0136 17.7519 28.9947ZM14.7731 33.9956C14.5771 34.4302 14.3479 34.846 14.1046 35.2121C13.6511 35.8948 13.2825 36.3011 13.1006 36.4972H11.4707C10.6061 36.535 10.6652 37.787 11.499 37.7492H26.4993C27.3332 37.7492 27.3332 36.4972 26.4993 36.4972H24.9001C24.5297 36.098 24.1938 35.6681 23.8961 35.2121C23.6415 34.8253 23.4187 34.4185 23.23 33.9956H14.7731Z" fill="#1A5B80"/>
</svg>
