<svg width="24" height="26" viewBox="0 0 24 26" fill="none" xmlns="http://www.w3.org/2000/svg">
<path d="M7.33325 5.7085C6.85492 5.7085 6.45825 5.31183 6.45825 4.8335V1.3335C6.45825 0.855163 6.85492 0.458496 7.33325 0.458496C7.81159 0.458496 8.20825 0.855163 8.20825 1.3335V4.8335C8.20825 5.31183 7.81159 5.7085 7.33325 5.7085ZM16.6666 5.7085C16.1883 5.7085 15.7916 5.31183 15.7916 4.8335V1.3335C15.7916 0.855163 16.1883 0.458496 16.6666 0.458496C17.1449 0.458496 17.5416 0.855163 17.5416 1.3335V4.8335C17.5416 5.31183 17.1449 5.7085 16.6666 5.7085ZM7.91659 15.9168C7.76492 15.9168 7.61325 15.8818 7.47325 15.8235C7.32159 15.7652 7.20492 15.6835 7.08825 15.5785C6.87825 15.3568 6.74992 15.0652 6.74992 14.7502C6.74992 14.5985 6.78492 14.4468 6.84325 14.3068C6.90159 14.1668 6.98325 14.0385 7.08825 13.9218C7.20492 13.8168 7.32159 13.7352 7.47325 13.6768C7.89325 13.5018 8.41825 13.5952 8.74492 13.9218C8.95492 14.1435 9.08325 14.4468 9.08325 14.7502C9.08325 14.8202 9.07159 14.9018 9.05992 14.9835C9.04825 15.0535 9.02492 15.1235 8.98992 15.1935C8.96659 15.2635 8.93159 15.3335 8.88492 15.4035C8.84992 15.4618 8.79159 15.5202 8.74492 15.5785C8.52325 15.7885 8.21992 15.9168 7.91659 15.9168ZM11.9999 15.9168C11.8483 15.9168 11.6966 15.8818 11.5566 15.8235C11.4049 15.7652 11.2883 15.6835 11.1716 15.5785C10.9616 15.3568 10.8333 15.0652 10.8333 14.7502C10.8333 14.5985 10.8683 14.4468 10.9266 14.3068C10.9849 14.1668 11.0666 14.0385 11.1716 13.9218C11.2883 13.8168 11.4049 13.7352 11.5566 13.6768C11.9766 13.4902 12.5016 13.5952 12.8283 13.9218C13.0383 14.1435 13.1666 14.4468 13.1666 14.7502C13.1666 14.8202 13.1549 14.9018 13.1433 14.9835C13.1316 15.0535 13.1083 15.1235 13.0733 15.1935C13.0499 15.2635 13.0149 15.3335 12.9683 15.4035C12.9333 15.4618 12.8749 15.5202 12.8283 15.5785C12.6066 15.7885 12.3033 15.9168 11.9999 15.9168ZM16.0833 15.9168C15.9316 15.9168 15.7799 15.8818 15.6399 15.8235C15.4883 15.7652 15.3716 15.6835 15.2549 15.5785L15.1149 15.4035C15.0707 15.3385 15.0354 15.2679 15.0099 15.1935C14.9762 15.1274 14.9526 15.0566 14.9399 14.9835C14.9283 14.9018 14.9166 14.8202 14.9166 14.7502C14.9166 14.4468 15.0449 14.1435 15.2549 13.9218C15.3716 13.8168 15.4883 13.7352 15.6399 13.6768C16.0716 13.4902 16.5849 13.5952 16.9116 13.9218C17.1216 14.1435 17.2499 14.4468 17.2499 14.7502C17.2499 14.8202 17.2383 14.9018 17.2266 14.9835C17.2149 15.0535 17.1916 15.1235 17.1566 15.1935C17.1333 15.2635 17.0983 15.3335 17.0516 15.4035C17.0166 15.4618 16.9583 15.5202 16.9116 15.5785C16.6899 15.7885 16.3866 15.9168 16.0833 15.9168ZM7.91659 20.0002C7.76492 20.0002 7.61325 19.9652 7.47325 19.9068C7.33325 19.8485 7.20492 19.7668 7.08825 19.6618C6.87825 19.4402 6.74992 19.1368 6.74992 18.8335C6.74992 18.6818 6.78492 18.5302 6.84325 18.3902C6.90159 18.2385 6.98325 18.1102 7.08825 18.0052C7.51992 17.5735 8.31325 17.5735 8.74492 18.0052C8.95492 18.2268 9.08325 18.5302 9.08325 18.8335C9.08325 19.1368 8.95492 19.4402 8.74492 19.6618C8.52325 19.8718 8.21992 20.0002 7.91659 20.0002ZM11.9999 20.0002C11.6966 20.0002 11.3933 19.8718 11.1716 19.6618C10.9616 19.4402 10.8333 19.1368 10.8333 18.8335C10.8333 18.6818 10.8683 18.5302 10.9266 18.3902C10.9849 18.2385 11.0666 18.1102 11.1716 18.0052C11.6033 17.5735 12.3966 17.5735 12.8283 18.0052C12.9333 18.1102 13.0149 18.2385 13.0733 18.3902C13.1316 18.5302 13.1666 18.6818 13.1666 18.8335C13.1666 19.1368 13.0383 19.4402 12.8283 19.6618C12.6066 19.8718 12.3033 20.0002 11.9999 20.0002ZM16.0833 20.0002C15.7799 20.0002 15.4766 19.8718 15.2549 19.6618C15.147 19.5522 15.0635 19.421 15.0099 19.2768C14.9516 19.1368 14.9166 18.9852 14.9166 18.8335C14.9166 18.6818 14.9516 18.5302 15.0099 18.3902C15.0683 18.2385 15.1499 18.1102 15.2549 18.0052C15.5233 17.7368 15.9316 17.6085 16.3049 17.6902C16.3866 17.7018 16.4566 17.7252 16.5266 17.7602C16.5966 17.7835 16.6666 17.8185 16.7366 17.8652C16.7949 17.9002 16.8533 17.9585 16.9116 18.0052C17.1216 18.2268 17.2499 18.5302 17.2499 18.8335C17.2499 19.1368 17.1216 19.4402 16.9116 19.6618C16.6899 19.8718 16.3866 20.0002 16.0833 20.0002ZM21.9166 10.4802H2.08325C1.60492 10.4802 1.20825 10.0835 1.20825 9.60516C1.20825 9.12683 1.60492 8.73016 2.08325 8.73016H21.9166C22.3949 8.73016 22.7916 9.12683 22.7916 9.60516C22.7916 10.0835 22.3949 10.4802 21.9166 10.4802Z" fill="#222222" fill-opacity="0.8"/>
<path d="M16.6667 25.5418H7.33333C3.075 25.5418 0.625 23.0918 0.625 18.8335V8.91683C0.625 4.6585 3.075 2.2085 7.33333 2.2085H16.6667C20.925 2.2085 23.375 4.6585 23.375 8.91683V18.8335C23.375 23.0918 20.925 25.5418 16.6667 25.5418ZM7.33333 3.9585C3.99667 3.9585 2.375 5.58016 2.375 8.91683V18.8335C2.375 22.1702 3.99667 23.7918 7.33333 23.7918H16.6667C20.0033 23.7918 21.625 22.1702 21.625 18.8335V8.91683C21.625 5.58016 20.0033 3.9585 16.6667 3.9585H7.33333Z" fill="#222222" fill-opacity="0.8"/>
</svg>
