<svg width="50" height="50" viewBox="0 0 50 50" fill="none" xmlns="http://www.w3.org/2000/svg">
<circle cx="25" cy="25" r="25" fill="#19517E"/>
<path d="M20.332 17.7109C19.8537 17.7109 19.457 17.3143 19.457 16.8359V13.3359C19.457 12.8576 19.8537 12.4609 20.332 12.4609C20.8104 12.4609 21.207 12.8576 21.207 13.3359V16.8359C21.207 17.3143 20.8104 17.7109 20.332 17.7109ZM29.6654 17.7109C29.187 17.7109 28.7904 17.3143 28.7904 16.8359V13.3359C28.7904 12.8576 29.187 12.4609 29.6654 12.4609C30.1437 12.4609 30.5404 12.8576 30.5404 13.3359V16.8359C30.5404 17.3143 30.1437 17.7109 29.6654 17.7109ZM20.9154 27.9193C20.7637 27.9193 20.612 27.8843 20.472 27.8259C20.3204 27.7676 20.2037 27.6859 20.087 27.5809C19.877 27.3593 19.7487 27.0676 19.7487 26.7526C19.7487 26.6009 19.7837 26.4493 19.842 26.3093C19.9004 26.1693 19.982 26.0409 20.087 25.9243C20.2037 25.8193 20.3204 25.7376 20.472 25.6793C20.892 25.5043 21.417 25.5976 21.7437 25.9243C21.9537 26.1459 22.082 26.4493 22.082 26.7526C22.082 26.8226 22.0704 26.9043 22.0587 26.9859C22.047 27.0559 22.0237 27.1259 21.9887 27.1959C21.9654 27.2659 21.9304 27.3359 21.8837 27.4059C21.8487 27.4643 21.7904 27.5226 21.7437 27.5809C21.522 27.7909 21.2187 27.9193 20.9154 27.9193ZM24.9987 27.9193C24.847 27.9193 24.6954 27.8843 24.5554 27.8259C24.4037 27.7676 24.287 27.6859 24.1704 27.5809C23.9604 27.3593 23.832 27.0676 23.832 26.7526C23.832 26.6009 23.867 26.4493 23.9254 26.3093C23.9837 26.1693 24.0654 26.0409 24.1704 25.9243C24.287 25.8193 24.4037 25.7376 24.5554 25.6793C24.9754 25.4926 25.5004 25.5976 25.827 25.9243C26.037 26.1459 26.1654 26.4493 26.1654 26.7526C26.1654 26.8226 26.1537 26.9043 26.142 26.9859C26.1304 27.0559 26.107 27.1259 26.072 27.1959C26.0487 27.2659 26.0137 27.3359 25.967 27.4059C25.932 27.4643 25.8737 27.5226 25.827 27.5809C25.6054 27.7909 25.302 27.9193 24.9987 27.9193ZM29.082 27.9193C28.9304 27.9193 28.7787 27.8843 28.6387 27.8259C28.487 27.7676 28.3704 27.6859 28.2537 27.5809L28.1137 27.4059C28.0695 27.3409 28.0342 27.2703 28.0087 27.1959C27.975 27.1298 27.9514 27.059 27.9387 26.9859C27.927 26.9043 27.9154 26.8226 27.9154 26.7526C27.9154 26.4493 28.0437 26.1459 28.2537 25.9243C28.3704 25.8193 28.487 25.7376 28.6387 25.6793C29.0704 25.4926 29.5837 25.5976 29.9104 25.9243C30.1204 26.1459 30.2487 26.4493 30.2487 26.7526C30.2487 26.8226 30.237 26.9043 30.2254 26.9859C30.2137 27.0559 30.1904 27.1259 30.1554 27.1959C30.132 27.2659 30.097 27.3359 30.0504 27.4059C30.0154 27.4643 29.957 27.5226 29.9104 27.5809C29.6887 27.7909 29.3854 27.9193 29.082 27.9193ZM20.9154 32.0026C20.7637 32.0026 20.612 31.9676 20.472 31.9093C20.332 31.8509 20.2037 31.7693 20.087 31.6643C19.877 31.4426 19.7487 31.1393 19.7487 30.8359C19.7487 30.6843 19.7837 30.5326 19.842 30.3926C19.9004 30.2409 19.982 30.1126 20.087 30.0076C20.5187 29.5759 21.312 29.5759 21.7437 30.0076C21.9537 30.2293 22.082 30.5326 22.082 30.8359C22.082 31.1393 21.9537 31.4426 21.7437 31.6643C21.522 31.8743 21.2187 32.0026 20.9154 32.0026ZM24.9987 32.0026C24.6954 32.0026 24.392 31.8743 24.1704 31.6643C23.9604 31.4426 23.832 31.1393 23.832 30.8359C23.832 30.6843 23.867 30.5326 23.9254 30.3926C23.9837 30.2409 24.0654 30.1126 24.1704 30.0076C24.602 29.5759 25.3954 29.5759 25.827 30.0076C25.932 30.1126 26.0137 30.2409 26.072 30.3926C26.1304 30.5326 26.1654 30.6843 26.1654 30.8359C26.1654 31.1393 26.037 31.4426 25.827 31.6643C25.6054 31.8743 25.302 32.0026 24.9987 32.0026ZM29.082 32.0026C28.7787 32.0026 28.4754 31.8743 28.2537 31.6643C28.1457 31.5547 28.0622 31.4235 28.0087 31.2793C27.9504 31.1393 27.9154 30.9876 27.9154 30.8359C27.9154 30.6843 27.9504 30.5326 28.0087 30.3926C28.067 30.2409 28.1487 30.1126 28.2537 30.0076C28.522 29.7393 28.9304 29.6109 29.3037 29.6926C29.3854 29.7043 29.4554 29.7276 29.5254 29.7626C29.5954 29.7859 29.6654 29.8209 29.7354 29.8676C29.7937 29.9026 29.852 29.9609 29.9104 30.0076C30.1204 30.2293 30.2487 30.5326 30.2487 30.8359C30.2487 31.1393 30.1204 31.4426 29.9104 31.6643C29.6887 31.8743 29.3854 32.0026 29.082 32.0026ZM34.9154 22.4826H15.082C14.6037 22.4826 14.207 22.0859 14.207 21.6076C14.207 21.1293 14.6037 20.7326 15.082 20.7326H34.9154C35.3937 20.7326 35.7904 21.1293 35.7904 21.6076C35.7904 22.0859 35.3937 22.4826 34.9154 22.4826Z" fill="white"/>
<path d="M29.6667 37.5443H20.3333C16.075 37.5443 13.625 35.0943 13.625 30.8359V20.9193C13.625 16.6609 16.075 14.2109 20.3333 14.2109H29.6667C33.925 14.2109 36.375 16.6609 36.375 20.9193V30.8359C36.375 35.0943 33.925 37.5443 29.6667 37.5443ZM20.3333 15.9609C16.9967 15.9609 15.375 17.5826 15.375 20.9193V30.8359C15.375 34.1726 16.9967 35.7943 20.3333 35.7943H29.6667C33.0033 35.7943 34.625 34.1726 34.625 30.8359V20.9193C34.625 17.5826 33.0033 15.9609 29.6667 15.9609H20.3333Z" fill="white"/>
</svg>
