<svg width="50" height="50" viewBox="0 0 50 50" fill="none" xmlns="http://www.w3.org/2000/svg">
<circle cx="25" cy="25" r="25" fill="#19517E"/>
<path d="M25 11C19.5722 11 15.1562 15.4159 15.1562 20.8438C15.1562 22.6776 15.6642 24.4673 16.6256 26.02L24.4397 38.6122C24.5133 38.7308 24.6159 38.8287 24.7379 38.8965C24.8598 38.9644 24.9971 39 25.1367 39H25.1432C25.2838 38.9989 25.4219 38.9617 25.544 38.8918C25.6661 38.822 25.7682 38.7219 25.8404 38.6012L33.4553 25.887C34.3636 24.3672 34.8438 22.6232 34.8438 20.8438C34.8438 15.4159 30.4278 11 25 11ZM32.0474 25.0447L25.1243 36.6039L18.0201 25.1556C17.2198 23.8633 16.7859 22.3723 16.7859 20.8438C16.7859 16.3205 20.4768 12.6297 25 12.6297C29.5232 12.6297 33.2086 16.3205 33.2086 20.8438C33.2086 22.3269 32.8033 23.7798 32.0474 25.0447Z" fill="white"/>
<path d="M25 15.9219C22.2861 15.9219 20.0781 18.1298 20.0781 20.8438C20.0781 23.5403 22.2501 25.7656 25 25.7656C27.7838 25.7656 29.9219 23.5107 29.9219 20.8438C29.9219 18.1298 27.7139 15.9219 25 15.9219ZM25 24.1359C23.1813 24.1359 21.7078 22.6576 21.7078 20.8438C21.7078 19.0345 23.1907 17.5516 25 17.5516C26.8093 17.5516 28.2867 19.0345 28.2867 20.8438C28.2867 22.6311 26.8476 24.1359 25 24.1359Z" fill="white"/>
</svg>
