<svg width="50" height="50" viewBox="0 0 50 50" fill="none" xmlns="http://www.w3.org/2000/svg">
<circle cx="25" cy="25" r="25" fill="#19517E"/>
<g clip-path="url(#clip0_1545_83990)">
<path d="M24.999 13.1172C18.2241 13.1172 12.7324 18.6098 12.7324 25.3837C12.7324 28.7447 14.0856 31.7877 16.2747 34.0038C15.885 34.5031 15.2861 35.2681 14.4645 36.3232C14.2489 36.5999 14.152 36.9509 14.1952 37.2991C14.2384 37.6472 14.4181 37.964 14.6948 38.1796C14.9716 38.3953 15.3226 38.4921 15.6708 38.449C16.0189 38.4058 16.3357 38.226 16.5513 37.9493C16.5513 37.9493 17.6575 36.5288 18.3283 35.6722C20.2499 36.9221 22.5378 37.6539 24.9999 37.6539C27.462 37.6539 29.7508 36.9221 31.6733 35.6722C32.3431 36.5288 33.4494 37.9493 33.4494 37.9493C33.6653 38.2253 33.9818 38.4043 34.3296 38.4473C34.6773 38.4902 35.0279 38.3934 35.3045 38.1783C35.4414 38.0716 35.5561 37.939 35.6418 37.7881C35.7275 37.6371 35.7827 37.4708 35.8041 37.2985C35.8255 37.1263 35.8128 36.9515 35.7667 36.7841C35.7206 36.6167 35.6419 36.4601 35.5352 36.3232C34.7136 35.2681 34.1147 34.5022 33.725 34.0029C35.9969 31.71 37.2697 28.6116 37.2655 25.3837C37.2655 18.6098 31.7738 13.1172 24.999 13.1172ZM15.0958 25.3837C15.0958 19.9235 19.5396 15.4805 24.9999 15.4805C30.462 15.4805 34.904 19.9235 34.904 25.3837C34.904 30.8467 30.4629 35.2906 24.9999 35.2906C19.5378 35.2906 15.0958 30.8467 15.0958 25.3837Z" fill="white"/>
<path d="M25.8078 23.7185L25.8141 20.2794C25.8193 20.1729 25.8029 20.0663 25.7657 19.9663C25.7285 19.8663 25.6715 19.7749 25.5979 19.6976C25.5244 19.6203 25.4359 19.5587 25.3379 19.5166C25.2398 19.4745 25.1343 19.4527 25.0276 19.4526C24.9209 19.4524 24.8153 19.474 24.7171 19.5159C24.619 19.5578 24.5304 19.6191 24.4567 19.6963C24.383 19.7734 24.3257 19.8647 24.2883 19.9646C24.2509 20.0646 24.2342 20.1711 24.2392 20.2776L24.2329 23.6951C23.8079 23.8875 23.4705 24.2322 23.2874 24.6613L17.5846 24.6505C17.3823 24.6599 17.1913 24.7467 17.0512 24.8931C16.9112 25.0395 16.8329 25.2342 16.8325 25.4367C16.8322 25.6393 16.9098 25.8343 17.0494 25.9811C17.1889 26.128 17.3796 26.2155 17.5819 26.2255L23.3583 26.2354C23.5131 26.5376 23.7482 26.7914 24.0377 26.9688C24.3273 27.1462 24.6601 27.2404 24.9997 27.241C25.2437 27.2412 25.4853 27.1932 25.7107 27.0999C25.9361 27.0065 26.1409 26.8697 26.3133 26.6971C26.4858 26.5246 26.6225 26.3197 26.7158 26.0943C26.809 25.8688 26.8569 25.6272 26.8566 25.3832C26.8561 25.0352 26.7575 24.6943 26.5719 24.3999C26.3864 24.1054 26.1216 23.8692 25.8078 23.7185ZM12.4207 12.9317C11.5562 13.7899 11.0496 14.9442 11.0035 16.1614C10.9573 17.3787 11.3749 18.5681 12.1719 19.4893L18.9809 12.736C18.0659 11.9319 16.8798 11.5049 15.6622 11.5412C14.4446 11.5775 13.2861 12.0745 12.4207 12.9317ZM37.5805 12.9317C36.7148 12.0745 35.5561 11.5777 34.3384 11.5416C33.1206 11.5054 31.9345 11.9326 31.0194 12.7369L37.8266 19.4902C38.6236 18.569 39.0415 17.3797 38.9958 16.1625C38.9501 14.9452 38.4444 13.7906 37.5805 12.9317Z" fill="white"/>
</g>
<defs>
<clipPath id="clip0_1545_83990">
<rect width="28" height="28" fill="white" transform="translate(11 11)"/>
</clipPath>
</defs>
</svg>
