<svg width="24" height="24" viewBox="0 0 24 24" fill="none" xmlns="http://www.w3.org/2000/svg">
<path d="M1 7.5C1.13261 7.5 1.25979 7.44732 1.35355 7.35355C1.44732 7.25979 1.5 7.13261 1.5 7V3.112C1.50053 2.68463 1.67053 2.27492 1.97273 1.97273C2.27492 1.67053 2.68463 1.50053 3.112 1.5H7C7.13261 1.5 7.25979 1.44732 7.35355 1.35355C7.44732 1.25979 7.5 1.13261 7.5 1C7.5 0.867392 7.44732 0.740215 7.35355 0.646447C7.25979 0.552679 7.13261 0.5 7 0.5H3.112C2.4195 0.500794 1.75559 0.776241 1.26591 1.26591C0.776241 1.75559 0.500794 2.4195 0.5 3.112V7C0.5 7.13261 0.552679 7.25979 0.646447 7.35355C0.740215 7.44732 0.867392 7.5 1 7.5ZM20.888 0.5H17C16.8674 0.5 16.7402 0.552679 16.6464 0.646447C16.5527 0.740215 16.5 0.867392 16.5 1C16.5 1.13261 16.5527 1.25979 16.6464 1.35355C16.7402 1.44732 16.8674 1.5 17 1.5H20.888C21.3154 1.50053 21.7251 1.67053 22.0273 1.97273C22.3295 2.27492 22.4995 2.68463 22.5 3.112V7C22.5 7.13261 22.5527 7.25979 22.6464 7.35355C22.7402 7.44732 22.8674 7.5 23 7.5C23.1326 7.5 23.2598 7.44732 23.3536 7.35355C23.4473 7.25979 23.5 7.13261 23.5 7V3.112C23.4992 2.4195 23.2238 1.75559 22.7341 1.26591C22.2444 0.776241 21.5805 0.500794 20.888 0.5ZM7 22.5H3.112C2.68463 22.4995 2.27492 22.3295 1.97273 22.0273C1.67053 21.7251 1.50053 21.3154 1.5 20.888V17C1.5 16.8674 1.44732 16.7402 1.35355 16.6464C1.25979 16.5527 1.13261 16.5 1 16.5C0.867392 16.5 0.740215 16.5527 0.646447 16.6464C0.552679 16.7402 0.5 16.8674 0.5 17V20.888C0.500794 21.5805 0.776241 22.2444 1.26591 22.7341C1.75559 23.2238 2.4195 23.4992 3.112 23.5H7C7.13261 23.5 7.25979 23.4473 7.35355 23.3536C7.44732 23.2598 7.5 23.1326 7.5 23C7.5 22.8674 7.44732 22.7402 7.35355 22.6464C7.25979 22.5527 7.13261 22.5 7 22.5ZM23 16.5C22.8674 16.5 22.7402 16.5527 22.6464 16.6464C22.5527 16.7402 22.5 16.8674 22.5 17V20.888C22.4995 21.3154 22.3295 21.7251 22.0273 22.0273C21.7251 22.3295 21.3154 22.4995 20.888 22.5H17C16.8674 22.5 16.7402 22.5527 16.6464 22.6464C16.5527 22.7402 16.5 22.8674 16.5 23C16.5 23.1326 16.5527 23.2598 16.6464 23.3536C16.7402 23.4473 16.8674 23.5 17 23.5H20.888C21.5805 23.4992 22.2444 23.2238 22.7341 22.7341C23.2238 22.2444 23.4992 21.5805 23.5 20.888V17C23.5 16.8674 23.4473 16.7402 23.3536 16.6464C23.2598 16.5527 23.1326 16.5 23 16.5ZM19 15.75V8.25C19 8.16223 18.9769 8.07601 18.933 8.00001C18.8891 7.924 18.826 7.86088 18.75 7.817L12.25 4.067C12.174 4.02312 12.0878 4.00001 12 4.00001C11.9122 4.00001 11.826 4.02312 11.75 4.067L5.255 7.817C5.17899 7.86088 5.11587 7.924 5.07199 8.00001C5.02811 8.07601 5.005 8.16223 5.005 8.25V15.75C5.005 15.8378 5.02811 15.924 5.07199 16C5.11587 16.076 5.17899 16.1391 5.255 16.183L11.755 19.933C11.831 19.9769 11.9172 20 12.005 20C12.0928 20 12.179 19.9769 12.255 19.933L18.755 16.183C18.8301 16.1385 18.8922 16.0751 18.9352 15.9991C18.9782 15.9232 19.0005 15.8373 19 15.75ZM12 5.077L17.5 8.25L12 11.423L6.505 8.25L12 5.077ZM6.005 9.116L11.5 12.289V18.634L6.005 15.461V9.116ZM12.5 18.634V12.289L18 9.116V15.461L12.5 18.634Z" fill="#19517E"/>
</svg>
