<svg width="18" height="28" viewBox="0 0 18 28" fill="none" xmlns="http://www.w3.org/2000/svg">
<path d="M17.2031 13.9453C17.2031 18.4682 13.5229 22.1484 9 22.1484C4.47707 22.1484 0.796875 18.4682 0.796875 13.9453" stroke="#19517E" stroke-miterlimit="10"/>
<path d="M9 18.8672C6.2817 18.8672 4.07812 16.6636 4.07812 13.9453V5.74219C4.07812 3.02389 6.2817 0.820312 9 0.820312C11.7183 0.820312 13.9219 3.02389 13.9219 5.74219V13.9453C13.9219 16.6636 11.7183 18.8672 9 18.8672Z" stroke="#19517E" stroke-miterlimit="10"/>
<path d="M9 22.1484V27.1797" stroke="#19517E" stroke-miterlimit="10"/>
<path d="M2.43762 27.1797H15.5626" stroke="#19517E" stroke-miterlimit="10"/>
<path d="M4.07825 5.74203H7.3595" stroke="#19517E" stroke-miterlimit="10"/>
<path d="M4.07825 9.84381H7.3595" stroke="#19517E" stroke-miterlimit="10"/>
<path d="M4.07812 13.9453H7.35938" stroke="#19517E" stroke-miterlimit="10"/>
<path d="M10.6406 5.74219H13.9219" stroke="#19517E" stroke-miterlimit="10"/>
<path d="M10.6406 9.84375H13.9219" stroke="#19517E" stroke-miterlimit="10"/>
<path d="M10.6406 13.9453H13.9219" stroke="#19517E" stroke-miterlimit="10"/>
</svg>
