<svg width="29" height="14" viewBox="0 0 29 14" fill="none" xmlns="http://www.w3.org/2000/svg">
<path d="M28.3149 6.55361L21.9514 0.221352C21.7229 -0.0442611 21.3211 -0.0752247 21.0542 0.152296C20.7873 0.379762 20.7562 0.779514 20.9848 1.04513C21.0061 1.06989 21.0293 1.09301 21.0542 1.11418L26.3295 6.36995H1.13633C0.784917 6.36995 0.5 6.65347 0.5 7.00321C0.5 7.35295 0.784917 7.63642 1.13633 7.63642H26.3295L21.0542 12.8858C20.7873 13.1133 20.7562 13.513 20.9848 13.7786C21.2135 14.0443 21.6151 14.0752 21.882 13.8477C21.9069 13.8265 21.9302 13.8034 21.9514 13.7786L28.315 7.44639C28.5617 7.1995 28.5617 6.80061 28.3149 6.55361Z" fill="white"/>
</svg>
