<svg width="28" height="40" viewBox="0 0 28 40" fill="none" xmlns="http://www.w3.org/2000/svg">
<path d="M11.0851 22.6675H8.98137C8.22512 22.6675 7.60637 22.0487 7.60637 21.2925C7.60637 20.5362 8.22512 19.9175 8.98137 19.9175H11.4839C11.6901 19.9175 11.8826 19.9587 12.0614 20.0412C12.7901 18.735 13.7939 17.5937 15.0039 16.755H8.98137C8.22512 16.755 7.60637 16.1362 7.60637 15.38C7.60637 14.6237 8.22512 14.005 8.98137 14.005H16.3239C17.0939 14.005 17.6989 14.6237 17.6989 15.38C18.6614 15.05 19.6926 14.885 20.7651 14.885C22.3326 14.885 23.8726 15.2425 25.2476 15.9712V4.985C25.2476 2.6475 23.3501 0.75 21.0126 0.75H4.29262C1.95512 0.75 0.0576172 2.6475 0.0576172 4.985V25.775C0.0576172 28.1125 1.95512 30.01 4.29262 30.01H12.3226C11.3428 28.4543 10.8276 26.6511 10.8376 24.8125C10.8376 24.07 10.9201 23.355 11.0851 22.6675ZM11.4289 8.0925H13.8764C14.6464 8.0925 15.2514 8.71125 15.2514 9.4675C15.2514 10.2237 14.6464 10.8425 13.8764 10.8425H11.4289C10.6726 10.8425 10.0539 10.2237 10.0539 9.4675C10.0539 8.71125 10.6726 8.0925 11.4289 8.0925ZM16.0626 33.5437V37.875C16.0626 38.3975 16.3514 38.865 16.8189 39.0987C17.047 39.215 17.3032 39.2651 17.5584 39.2432C17.8136 39.2213 18.0575 39.1284 18.2626 38.975L20.7651 37.105L23.2676 38.9887C23.6801 39.2912 24.2301 39.3325 24.6976 39.0987C25.1651 38.865 25.4539 38.3975 25.4539 37.875V33.5575C24.0239 34.3412 22.4151 34.74 20.7651 34.74C19.1014 34.74 17.4926 34.3275 16.0626 33.5437Z" fill="#19517E"/>
<path d="M24.615 18.7625C23.4737 18.02 22.1537 17.635 20.765 17.635C16.805 17.635 13.5875 20.8525 13.5875 24.8125C13.5366 28.7313 16.9012 32.0381 20.765 31.99C24.6645 32.0491 27.9879 28.679 27.9425 24.8125C27.9425 22.3513 26.6912 20.0825 24.615 18.7625ZM19.4037 24.8125C19.4037 24.0563 20.0087 23.4375 20.7787 23.4375H20.7925C21.5487 23.4375 22.1675 24.0563 22.1675 24.8125C22.1675 25.5688 21.5487 26.1875 20.7925 26.1875C20.0225 26.1875 19.4037 25.5688 19.4037 24.8125Z" fill="#A0C882"/>
</svg>
