<svg width="36" height="36" viewBox="0 0 36 36" fill="none" xmlns="http://www.w3.org/2000/svg">
<path d="M21.6141 8.8877H3.4643C1.55102 8.8877 0 10.4387 0 12.352V19.983C0 20.0762 0.0370395 20.1657 0.10297 20.2316C0.168901 20.2975 0.258322 20.3346 0.351562 20.3346H2.05805C2.15129 20.3346 2.24071 20.2975 2.30664 20.2316C2.37257 20.1657 2.40961 20.0762 2.40961 19.983V12.3952C2.40961 11.8276 2.84555 11.3391 3.41248 11.3119C4.01815 11.283 4.51898 11.7653 4.51898 12.3654V20.3346H11.4469V12.352C11.4469 11.7691 11.9194 11.2973 12.5016 11.2973H21.6141V8.8877Z" fill="#19517E"/>
<path d="M34.9454 2.25914H23.5736V1.05469C23.5736 0.472219 23.1014 0 22.5189 0C21.9364 0 21.4642 0.472219 21.4642 1.05469V2.25914H13.3644C13.4423 2.63073 13.4814 3.0094 13.4811 3.38906C13.4811 4.66664 13.0417 5.84367 12.3076 6.77813H22.6689C23.2511 6.77813 23.7236 7.25063 23.7236 7.83281V12.3518C23.7236 12.934 23.2511 13.4065 22.6689 13.4065H13.5564V18.0752H36.0001V3.31383C36.0001 2.73164 35.5276 2.25914 34.9454 2.25914ZM13.7471 34.3404C13.4131 34.8176 13.5292 35.4753 14.0064 35.8092C14.4836 36.1434 15.1412 36.0273 15.4753 35.55L21.5915 26.8125H19.0167L13.7471 34.3404ZM26.0213 26.8125H23.4465L29.5627 35.55C29.8968 36.0272 30.5543 36.1433 31.0316 35.8092C31.5088 35.4753 31.6249 34.8176 31.2909 34.3404L26.0213 26.8125ZM13.5564 24.7029H34.9454C35.5276 24.7029 36.0001 24.2311 36.0001 23.6482V20.1846H13.5564V24.7029Z" fill="#A0C882"/>
<path d="M11.1159 4.68809C11.8328 2.95909 11.0123 0.976305 9.28334 0.259422C7.55433 -0.457461 5.57155 0.363023 4.85467 2.09202C4.13779 3.82102 4.95827 5.8038 6.68727 6.52069C8.41627 7.23757 10.3991 6.41709 11.1159 4.68809Z" fill="#19517E"/>
<path d="M4.51953 22.4443V34.7961C4.51953 35.4614 5.05876 36.0006 5.72398 36.0006C6.38921 36.0006 6.92844 35.4614 6.92844 34.7961V25.9086C6.92844 25.3257 7.40094 24.8539 7.98313 24.8539C8.56602 24.8539 9.03781 25.3257 9.03781 25.9086V34.7961H9.03852C9.03852 35.4614 9.57774 36.0006 10.243 36.0006C10.9082 36.0006 11.4474 35.4614 11.4474 34.7961V22.4443H9.03781H4.51953Z" fill="#19517E"/>
</svg>
