<svg width="54" height="48" viewBox="0 0 54 48" fill="none" xmlns="http://www.w3.org/2000/svg">
<path d="M8.44165 25.9225L5.08553 29.2785C4.15899 30.2051 4.15899 31.7077 5.08553 32.6345C6.0125 33.5612 7.515 33.5612 8.44155 32.6345L11.7976 29.2785C12.7246 28.3516 12.7246 26.849 11.7976 25.9225C10.871 24.9954 9.36872 24.9954 8.44165 25.9225ZM19.6282 37.1093L16.2722 40.4653C15.3456 41.3918 15.3456 42.8942 16.2722 43.8209C17.1987 44.7479 18.7012 44.7479 19.6282 43.8209L22.9842 40.4653C23.9109 39.5382 23.9109 38.0358 22.9842 37.1093C22.0574 36.1822 20.5553 36.1822 19.6282 37.1093ZM27.4589 47.1769L28.5774 46.0584C29.5045 45.1313 29.5045 43.6289 28.5774 42.7024C27.6509 41.7757 26.1484 41.7757 25.2214 42.7024L24.1028 43.8209C23.1763 44.7479 23.1763 46.2503 24.1028 47.1769C25.0294 48.104 26.5324 48.104 27.4589 47.1769ZM16.2722 29.2785L10.6791 34.8717C9.752 35.7987 9.752 37.3012 10.6791 38.2278C11.6056 39.1543 13.1081 39.1543 14.0347 38.2278L19.6282 32.6346C20.5548 31.7076 20.5548 30.2051 19.6282 29.2786C18.7012 28.3516 17.1993 28.3516 16.2722 29.2786V29.2785Z" fill="#A0C882"/>
<path d="M20.1874 5.22711L16.1247 1.12174C15.5068 0.503691 14.5052 0.503691 13.8873 1.12174L0.463535 14.5455C-0.154512 15.1635 -0.154512 16.165 0.463535 16.783L3.20604 19.568C4.07421 20.4365 4.72842 21.495 5.11692 22.6599L5.645 24.2445L6.20452 23.685C8.36336 21.5266 11.8763 21.5266 14.0351 23.685C14.7191 24.3693 15.1616 25.1953 15.412 26.0654C17.4967 24.9865 20.1199 25.2951 21.8658 27.041C23.6118 28.787 23.9203 31.4102 22.8414 33.4953C23.7115 33.7458 24.5375 34.1874 25.2218 34.8716C26.3177 35.9676 26.8513 37.4128 26.8344 38.8523C28.2743 38.8358 29.7191 39.3694 30.815 40.4653L33.0525 42.7023C33.9791 43.6293 35.4816 43.6293 36.4081 42.7023C37.3352 41.7757 37.3352 40.2733 36.4081 39.3463L32.493 35.4313C31.875 34.8132 31.875 33.8117 32.493 33.1936C33.1111 32.5761 34.1126 32.5761 34.7301 33.1936L38.6456 37.1092C39.5722 38.0358 41.0751 38.0358 42.0017 37.1092C42.9282 36.1826 42.9282 34.6797 42.0017 33.7531L38.0861 29.8376C37.4686 29.2201 37.4686 28.2186 38.0861 27.6006C38.7042 26.9826 39.7061 26.9826 40.3237 27.6006L44.2392 31.5156C45.1657 32.4422 46.6682 32.4422 47.5952 31.5156C48.5219 30.5891 48.5219 29.0866 47.5952 28.16L37.9733 18.5381C34.9035 20.5679 30.7195 20.2334 28.0184 17.5324C27.4013 16.9153 26.3984 16.9153 25.7814 17.5324C22.6972 20.6165 17.6788 20.6165 14.5947 17.5324C12.744 15.6821 12.744 12.6709 14.5947 10.8206L20.1874 5.22711Z" fill="#19517E"/>
<path d="M40.1123 0.963535C39.4943 0.345488 38.4928 0.345488 37.8748 0.963535L34.5287 4.30953C33.9413 4.89699 33.1446 5.22705 32.3138 5.22711H26.6276C25.369 5.22716 24.1619 5.72718 23.2719 6.61719L16.8313 13.0577C16.2047 13.6844 16.2047 14.6687 16.8313 15.2953C18.6881 17.1521 21.6862 17.1521 23.5431 15.2953C25.2165 13.6218 27.8388 13.4616 29.694 14.8145C32.189 16.6346 35.5162 16.7459 37.7001 14.5619L38.0857 14.1763L48.9704 25.061C49.1212 24.5036 49.1241 23.9136 48.9766 23.3662C48.7208 22.4174 49.092 21.0688 49.7871 20.3739L53.5361 16.6248C54.1541 16.0068 54.1541 15.0052 53.5361 14.3877L40.1123 0.963535Z" fill="#A0C882"/>
</svg>
