<svg width="48" height="48" viewBox="0 0 48 48" fill="none" xmlns="http://www.w3.org/2000/svg">
<g clip-path="url(#clip0_1778_85375)">
<path d="M6.51953 19.3045H9.83838V22.6234H6.51953V19.3045ZM46.646 9.95016H32.8249C33.5425 11.397 34.7062 13.5205 36.3363 15.8126C38.7391 19.1912 42.6314 23.5712 47.9998 26.2377V11.3039C47.9998 10.5562 47.3937 9.95016 46.646 9.95016ZM19.2098 6.63375H22.5287V9.95259H19.2098V6.63375ZM6.51953 31.9753H9.83838V35.2942H6.51953V31.9753ZM37.85 35.7774C35.4757 32.6154 33.5238 28.6517 32.0467 23.9965V48H46.646C47.3937 48 47.9998 47.3939 47.9998 46.6462V43.5955C44.0746 42.1499 40.6638 39.5244 37.85 35.7774ZM6.51953 6.63375H9.83838V9.95259H6.51953V6.63375ZM6.51953 44.3161H22.5287V48H6.51953V44.3161Z" fill="#A0C882"/>
<path d="M29.244 48V1.35375C29.244 0.606094 28.6379 0 27.8903 0H1.35375C0.606094 0 0 0.606094 0 1.35375V46.6462C0 47.3939 0.606094 48 1.35375 48H3.71672V42.9146C3.71672 42.1406 4.34419 41.5131 5.11828 41.5131H23.9304C24.7044 41.5131 25.332 42.1405 25.332 42.9146V48H29.244ZM16.407 5.23219C16.407 4.45819 17.0345 3.83063 17.8086 3.83063H23.9304C24.7044 3.83063 25.332 4.45809 25.332 5.23219V11.3541C25.332 12.1281 24.7045 12.7556 23.9304 12.7556H17.8086C17.0346 12.7556 16.407 12.1282 16.407 11.3541V5.23219ZM16.407 17.903C16.407 17.129 17.0345 16.5014 17.8086 16.5014H23.9304C24.7044 16.5014 25.332 17.1289 25.332 17.903V24.0248C25.332 24.7988 24.7045 25.4264 23.9304 25.4264H17.8086C17.0346 25.4264 16.407 24.7989 16.407 24.0248V17.903ZM12.6416 36.6957C12.6416 37.4697 12.0142 38.0973 11.2401 38.0973H5.11819C4.34419 38.0973 3.71663 37.4698 3.71663 36.6957V30.5738C3.71663 29.7998 4.34409 29.1723 5.11819 29.1723H11.2401C12.0141 29.1723 12.6416 29.7997 12.6416 30.5738V36.6957ZM12.6416 24.0249C12.6416 24.7989 12.0142 25.4265 11.2401 25.4265H5.11819C4.34419 25.4265 3.71663 24.799 3.71663 24.0249V17.9031C3.71663 17.1291 4.34409 16.5015 5.11819 16.5015H11.2401C12.0141 16.5015 12.6416 17.129 12.6416 17.9031V24.0249ZM12.6416 11.3541C12.6416 12.1281 12.0142 12.7556 11.2401 12.7556H5.11819C4.34419 12.7556 3.71663 12.1282 3.71663 11.3541V5.23219C3.71663 4.45819 4.34409 3.83063 5.11819 3.83063H11.2401C12.0141 3.83063 12.6416 4.45809 12.6416 5.23219V11.3541ZM23.9304 38.0973H17.8086C17.0346 38.0973 16.407 37.4698 16.407 36.6957V30.5738C16.407 29.7998 17.0345 29.1723 17.8086 29.1723H23.9304C24.7044 29.1723 25.332 29.7997 25.332 30.5738V36.6957C25.3319 37.4697 24.7044 38.0973 23.9304 38.0973Z" fill="#19517E"/>
<path d="M19.21 31.9753H22.5288V35.2942H19.21V31.9753ZM47.9999 29.3286C45.2059 28.1154 42.5381 26.3925 40.0583 24.194C37.8836 22.266 35.8474 19.9709 34.0062 17.3725C33.6316 16.8437 33.268 16.307 32.9157 15.7629C33.3123 17.9777 33.8856 20.5212 34.7118 23.1292C36.0979 27.5043 37.9143 31.2019 40.1104 34.1193C42.3505 37.0949 44.9981 39.2592 47.9999 40.5748V29.3286ZM19.21 19.3045H22.5288V22.6234H19.21V19.3045Z" fill="#A0C882"/>
</g>
<defs>
<clipPath id="clip0_1778_85375">
<rect width="48" height="48" fill="white"/>
</clipPath>
</defs>
</svg>
