<svg width="34" height="36" viewBox="0 0 34 36" fill="none" xmlns="http://www.w3.org/2000/svg">
<path d="M11.0247 23.95C10.0302 24.7277 9.22588 25.7217 8.67286 26.8566C8.11984 27.9915 7.83262 29.2375 7.83301 30.5V33H2.83301C1.44967 33 0.333008 31.8833 0.333008 30.5V28.8333C0.333008 25.6083 2.94134 23 6.16634 23H7.83301C9.01634 23 10.108 23.35 11.0247 23.95Z" fill="#19517E"/>
<path d="M27 23C29.0711 23 30.75 21.3211 30.75 19.25C30.75 17.1789 29.0711 15.5 27 15.5C24.9289 15.5 23.25 17.1789 23.25 19.25C23.25 21.3211 24.9289 23 27 23Z" fill="#19517E"/>
<path d="M7 23C9.07107 23 10.75 21.3211 10.75 19.25C10.75 17.1789 9.07107 15.5 7 15.5C4.92893 15.5 3.25 17.1789 3.25 19.25C3.25 21.3211 4.92893 23 7 23Z" fill="#19517E"/>
<path d="M33.6663 28.8333V30.5C33.6663 31.8833 32.5496 33 31.1663 33H26.1663V30.5C26.1663 27.8417 24.9163 25.475 22.9746 23.95C23.8913 23.35 24.9829 23 26.1663 23H27.8329C31.0579 23 33.6663 25.6083 33.6663 28.8333Z" fill="#19517E"/>
<path d="M16.9993 23.8337C19.5307 23.8337 21.5827 21.7816 21.5827 19.2503C21.5827 16.719 19.5307 14.667 16.9993 14.667C14.468 14.667 12.416 16.719 12.416 19.2503C12.416 21.7816 14.468 23.8337 16.9993 23.8337Z" fill="#19517E"/>
<path d="M17.8334 23.8334H16.1667C12.4909 23.8334 9.50003 26.8242 9.50003 30.5V33C9.50003 34.3784 10.6217 35.5 12 35.5H22C23.3784 35.5 24.5 34.3784 24.5 33V30.5C24.5 26.8242 21.5092 23.8334 17.8334 23.8334ZM29.0834 11.9034L27.0725 12.6184C26.9406 12.6653 26.7993 12.6793 26.6607 12.6593C26.5221 12.6393 26.3905 12.5858 26.2773 12.5035C26.164 12.4212 26.0725 12.3125 26.0107 12.1869C25.9489 12.0613 25.9186 11.9225 25.9225 11.7825L25.9809 9.64921L24.6792 7.95754C24.5939 7.84653 24.5369 7.71643 24.5132 7.57847C24.4894 7.44052 24.4996 7.29885 24.5428 7.16571C24.586 7.03256 24.661 6.91194 24.7613 6.81426C24.8616 6.71658 24.9841 6.64477 25.1184 6.60504L27.1659 6.00171L28.3725 4.24087C28.4517 4.12538 28.5577 4.0309 28.6816 3.96562C28.8055 3.90034 28.9434 3.86622 29.0834 3.86622C29.2234 3.86622 29.3613 3.90034 29.4851 3.96562C29.609 4.0309 29.7151 4.12538 29.7942 4.24087L31.0009 6.00171L33.0484 6.60504C33.6292 6.77587 33.8567 7.47754 33.4875 7.95754L32.1859 9.64921L32.2442 11.7825C32.2479 11.9224 32.2175 12.0611 32.1556 12.1866C32.0938 12.3121 32.0023 12.4207 31.8891 12.503C31.7759 12.5853 31.6444 12.6388 31.5059 12.6589C31.3674 12.679 31.2261 12.6651 31.0942 12.6184L29.0834 11.9034ZM4.9167 11.9034L2.90586 12.6184C2.77395 12.6653 2.63259 12.6793 2.49402 12.6593C2.35546 12.6393 2.22385 12.5858 2.1106 12.5035C1.99735 12.4212 1.90586 12.3125 1.84405 12.1869C1.78224 12.0613 1.75197 11.9225 1.75586 11.7825L1.8142 9.64921L0.512531 7.95754C0.427245 7.84653 0.370262 7.71643 0.3465 7.57847C0.322739 7.44052 0.332914 7.29885 0.376147 7.16571C0.41938 7.03256 0.494372 6.91194 0.594647 6.81426C0.694921 6.71658 0.817466 6.64477 0.951698 6.60504L2.9992 6.00171L4.20586 4.24087C4.285 4.12538 4.39108 4.0309 4.51494 3.96562C4.63879 3.90034 4.77669 3.86622 4.9167 3.86622C5.0567 3.86622 5.1946 3.90034 5.31846 3.96562C5.44231 4.0309 5.5484 4.12538 5.62753 4.24087L6.8342 6.00171L8.8817 6.60504C9.46253 6.77587 9.69003 7.47754 9.32086 7.95754L8.0192 9.64921L8.07753 11.7825C8.08122 11.9224 8.05083 12.0611 7.98896 12.1866C7.92709 12.3121 7.83562 12.4207 7.72242 12.503C7.60922 12.5853 7.47771 12.6388 7.33923 12.6589C7.20074 12.679 7.05945 12.6651 6.92753 12.6184L4.9167 11.9034ZM17 10.0284L14.6159 10.8759C14.4595 10.9314 14.2919 10.9481 14.1277 10.9243C13.9634 10.9006 13.8074 10.8372 13.6732 10.7396C13.5389 10.6421 13.4305 10.5133 13.3572 10.3644C13.2839 10.2155 13.248 10.0509 13.2525 9.88504L13.3217 7.35587L11.7784 5.35004C11.6773 5.21843 11.6097 5.06418 11.5816 4.90063C11.5534 4.73708 11.5655 4.56913 11.6168 4.41129C11.6681 4.25346 11.757 4.11047 11.8759 3.99468C11.9948 3.8789 12.1401 3.79379 12.2992 3.74671L14.7267 3.03087L16.1575 0.943374C16.2514 0.806391 16.3771 0.694338 16.524 0.616912C16.6709 0.539487 16.8344 0.499023 17.0004 0.499023C17.1665 0.499023 17.33 0.539487 17.4769 0.616912C17.6238 0.694338 17.7495 0.806391 17.8434 0.943374L19.2742 3.03087L21.7017 3.74671C21.8608 3.79379 22.0061 3.8789 22.125 3.99468C22.2439 4.11047 22.3328 4.25346 22.3841 4.41129C22.4354 4.56913 22.4475 4.73708 22.4193 4.90063C22.3912 5.06418 22.3236 5.21843 22.2225 5.35004L20.6792 7.35587L20.7484 9.88504C20.7529 10.0509 20.717 10.2155 20.6437 10.3644C20.5704 10.5133 20.462 10.6421 20.3277 10.7396C20.1935 10.8372 20.0375 10.9006 19.8732 10.9243C19.709 10.9481 19.5414 10.9314 19.385 10.8759L17 10.0284Z" fill="#A0C882"/>
</svg>
