<svg width="40" height="40" viewBox="0 0 40 40" fill="none" xmlns="http://www.w3.org/2000/svg">
<path d="M24.0002 2.32031H17.9202C17.7602 2.32031 17.6802 2.32031 17.5202 2.40031H17.4402C17.3602 2.40031 17.2802 2.48031 17.1202 2.48031C16.9602 2.48031 17.0402 2.56031 17.0402 2.56031C16.9602 2.56031 16.8802 2.64031 16.8802 2.64031C16.8002 2.72031 16.6402 2.80031 16.5602 2.88031L14.7202 4.80031C14.6402 4.88031 14.5602 4.96031 14.4802 5.12031V5.20031C14.4802 5.28031 14.4002 5.36031 14.4002 5.44031C14.4002 5.52031 14.3202 5.60031 14.3202 5.68031C14.3202 5.76031 14.3202 5.76031 14.2402 5.84031C14.2402 6.00031 14.1602 6.08031 14.1602 6.24031V16.0003C14.1602 16.7203 14.8002 17.3603 15.5202 17.3603H24.0002C24.7202 17.3603 25.3602 16.7203 25.3602 16.0003V3.68031C25.3602 2.88031 24.8002 2.32031 24.0002 2.32031ZM24.5602 15.9203C24.5602 16.2403 24.3202 16.4803 24.0002 16.4803H15.4402C15.1202 16.4803 14.8802 16.2403 14.8802 15.9203V5.92031H16.5602C17.2002 5.92031 17.6802 5.44031 17.6802 4.80031V3.20031C17.7602 3.20031 17.8402 3.12031 17.9202 3.12031H24.0002C24.3202 3.12031 24.5602 3.36031 24.5602 3.68031V15.9203ZM35.2002 17.2003C35.1202 16.5603 34.8802 16.0803 34.3202 15.7603C33.8402 15.5203 33.2802 15.3603 32.4002 15.2803C31.6802 15.2803 29.5202 15.2003 29.4402 17.2803C29.3602 19.6803 29.0402 21.9203 28.4802 23.8403L26.2402 23.5203C25.5202 23.4403 24.7202 23.6003 24.1602 24.0803C23.6002 24.5603 23.2002 25.2003 23.1202 25.9203C22.8002 29.1203 22.4002 33.2003 22.4002 34.4003C22.4002 35.2803 23.1202 35.8403 23.7602 35.8403H23.8402C24.4802 35.8403 25.2002 35.3603 25.2802 34.5603C25.4402 32.6403 25.9202 29.2003 26.0802 28.0003L31.1202 28.4803C31.8402 28.5603 32.5602 28.4003 33.0402 27.9203C33.6002 27.4403 33.9202 26.8003 33.9202 26.0803V25.9203C34.2402 25.4403 34.4802 24.7203 34.6402 24.1603C34.7202 23.9203 34.7202 23.7603 34.8002 23.6003C35.2002 21.6003 35.3602 19.5203 35.2002 17.2003ZM34.0002 23.5203C33.9202 23.6803 33.9202 23.9203 33.8402 24.1603C33.6802 24.7203 33.4402 25.6003 33.0402 25.8403C32.9602 25.9203 32.8802 25.9203 32.6402 25.8403C32.5602 25.7603 32.4002 25.6803 32.4002 25.6003C32.3202 25.5203 32.3202 25.3603 32.4002 25.2003C32.8002 24.2403 33.0402 22.9603 33.1202 21.4403V19.6003C33.1202 19.3603 32.8802 19.2003 32.7202 19.2003C32.4802 19.2003 32.3202 19.4403 32.3202 19.6003V21.3603C32.2402 22.7203 32.0802 23.7603 31.7602 24.6403L29.2802 24.0003C29.8402 22.0003 30.1602 19.7603 30.2402 17.2803C30.2402 16.6403 30.5602 16.0003 32.3202 16.0803C33.0402 16.0803 33.5202 16.2403 33.8402 16.4003C34.1602 16.6403 34.3202 16.8803 34.3202 17.3603C34.5602 19.6003 34.4002 21.6003 34.0002 23.5203ZM34.8802 12.4803C34.8002 13.7603 33.6802 14.7203 32.4002 14.7203H32.1602C31.5202 14.6403 30.8802 14.3203 30.4802 13.8403C30.0802 13.3603 29.8402 12.7203 29.9202 12.0803C30.0802 10.7203 31.2802 9.68031 32.6402 9.84031C33.2802 9.92031 33.9202 10.2403 34.3202 10.7203C34.7202 11.2003 34.9602 11.8403 34.8802 12.4803Z" fill="#19517E"/>
<path d="M39.2002 20.7207C38.8802 23.4407 37.9202 30.0007 35.6802 31.7607C34.8002 32.4807 33.6002 32.8007 32.3202 32.8807V35.0407L35.4402 36.9607C35.6002 37.1207 35.6802 37.3607 35.6002 37.5207C35.5202 37.6807 35.3602 37.6807 35.2802 37.6807C35.2002 37.6807 35.1202 37.6807 35.0402 37.6007L31.9202 35.6807L28.8802 37.6007C28.7202 37.6807 28.4802 37.6807 28.3202 37.4407C28.2402 37.2807 28.2402 37.0407 28.4802 36.8807L31.6002 34.9607V32.8807H30.7202C30.0002 32.8807 29.3602 32.8007 28.8802 32.8007H28.4802C28.0802 32.7207 27.6802 32.5607 27.3602 32.1607C27.1202 31.8407 26.9602 31.3607 27.0402 30.9607C27.1202 30.5607 27.2802 30.1607 27.6802 29.8407C28.0002 29.6007 28.4802 29.4407 28.8802 29.5207C30.6402 29.7607 33.0402 29.6007 33.6802 29.1207C34.4002 28.4807 35.5202 24.2407 36.0002 20.1607C36.0802 19.2807 36.8802 18.6407 37.8402 18.7207C38.2402 18.8007 38.6402 18.9607 38.9602 19.3607C39.2802 19.7607 39.2802 20.2407 39.2002 20.7207ZM16.8802 26.0007C16.8002 25.2807 16.4002 24.5607 15.8402 24.1607C15.2802 23.6807 14.4802 23.5207 13.7602 23.6007L11.5202 23.9207C10.9602 22.0007 10.6402 19.7607 10.5602 17.3607C10.4802 15.2807 8.32023 15.3607 7.60023 15.3607C6.72023 15.3607 6.16023 15.5207 5.68023 15.8407C5.20023 16.1607 4.88023 16.6407 4.80023 17.2007C4.64023 19.5207 4.80023 21.6007 5.28023 23.7607C5.36023 23.9207 5.36023 24.0807 5.44023 24.3207C5.60023 24.8807 5.76023 25.6007 6.08023 26.0807V26.2407C6.08023 26.9607 6.40023 27.6007 6.96023 28.0807C7.52023 28.5607 8.16023 28.7207 8.88023 28.6407L14.0002 28.1607C14.1602 29.2807 14.5602 32.8007 14.8002 34.7207C14.8802 35.6007 15.6002 36.0007 16.2402 36.0007H16.3202C17.0402 35.9207 17.6802 35.4407 17.6802 34.4807C17.6002 33.2807 17.2002 29.2007 16.8802 26.0007ZM6.16023 24.0807C6.08023 23.8407 6.08023 23.6007 6.00023 23.5207C5.60023 21.6007 5.44023 19.6007 5.60023 17.4407C5.60023 16.9607 5.76023 16.7207 6.08023 16.4807C6.40023 16.2407 6.88023 16.1607 7.60023 16.1607C9.44023 16.0807 9.68023 16.7207 9.68023 17.3607C9.76023 19.8407 10.0802 22.0807 10.6402 24.0807L8.16023 24.6407C7.84023 23.7607 7.68023 22.7207 7.60023 21.3607V19.6007C7.60023 19.3607 7.44023 19.2007 7.20023 19.2007C6.96023 19.2007 6.80023 19.3607 6.80023 19.6007V21.4407C6.88023 23.0407 7.12023 24.2407 7.52023 25.2007C7.60023 25.2807 7.60023 25.4407 7.52023 25.6007C7.44023 25.7607 7.36023 25.8407 7.28023 25.8407C7.04023 25.9207 6.96023 25.8407 6.88023 25.8407C6.56023 25.6007 6.32023 24.7207 6.16023 24.0807ZM10.0802 12.0007C10.1602 12.6407 9.92023 13.2807 9.52023 13.7607C9.12023 14.2407 8.48023 14.5607 7.84023 14.6407H7.60023C6.32023 14.6407 5.20023 13.6807 5.12023 12.4007C5.04023 11.7607 5.28023 11.1207 5.68023 10.5607C6.08023 10.0807 6.72023 9.76066 7.36023 9.68066C8.72023 9.68066 9.92023 10.6407 10.0802 12.0007Z" fill="#19517E"/>
<path d="M12.6401 32.2408C12.4001 32.5608 12.0001 32.8008 11.5201 32.8808C11.4401 32.8808 11.2801 32.8808 11.1201 32.9608C10.6401 33.0408 10.0001 33.0408 9.28011 33.0408H8.40011V35.1208L11.5201 37.0408C11.6801 37.2008 11.7601 37.4408 11.6801 37.6008C11.6001 37.7608 11.4401 37.7608 11.3601 37.7608C11.2801 37.7608 11.2001 37.7608 11.1201 37.6808L8.00011 35.7608L4.96011 37.6008C4.80011 37.6808 4.56011 37.6808 4.40011 37.4408C4.32011 37.2808 4.32011 37.0408 4.56011 36.8808L7.68011 34.9608V32.8008C6.40011 32.8008 5.12011 32.4808 4.32011 31.7608C2.08011 30.0008 1.12011 23.4408 0.800107 20.7208C0.720107 20.3208 0.880107 19.8408 1.12011 19.5208C1.36011 19.2008 1.76011 18.9608 2.24011 18.8808C3.12011 18.8008 3.92011 19.4408 4.08011 20.3208C4.56011 24.4008 5.60011 28.6408 6.40011 29.2808C7.04011 29.7608 9.44011 29.8408 11.2001 29.6808C11.6001 29.6008 12.0801 29.7608 12.4001 30.0008C12.7201 30.2408 12.9601 30.6408 13.0401 31.1208C12.9601 31.5208 12.8801 31.9208 12.6401 32.2408ZM27.5201 19.2808V21.6008C27.5201 21.8408 27.3601 22.0008 27.1201 22.0008H21.5201V35.5208C21.5201 35.7608 21.3601 35.9208 21.1201 35.9208H18.8801C18.6401 35.9208 18.4801 35.7608 18.4801 35.5208V22.0008H12.8801C12.6401 22.0008 12.4801 21.8408 12.4801 21.6008V19.2808C12.4801 19.0408 12.6401 18.8808 12.8801 18.8808H27.0401C27.2801 18.8808 27.5201 19.0408 27.5201 19.2808Z" fill="#A0C882"/>
</svg>
