<svg width="36" height="36" viewBox="0 0 36 36" fill="none" xmlns="http://www.w3.org/2000/svg">
<g clip-path="url(#clip0_1778_85162)">
<path d="M32.9509 7.98435L32.4123 8.15509L29.5441 8.41063L28.7339 9.70437L28.1461 9.51758L25.8634 7.45952L25.5323 6.38924L25.0888 5.24791L23.6541 3.96105L21.9616 3.62988L21.9226 4.40452L23.5808 6.02255L24.3921 6.97824L23.4799 7.45494L22.7374 7.23607L21.6247 6.77198L21.6625 5.87473L20.2026 5.27427L19.7179 7.38389L18.2465 7.71735L18.3921 8.89421L20.3092 9.26319L20.6403 7.38275L22.2229 7.61651L22.9585 8.04738H24.1388L24.9467 9.66541L27.0884 11.8381L26.9314 12.6826L25.2045 12.4626L22.2206 13.9695L20.072 16.5466L19.7924 17.6879H19.0212L17.5842 17.0256L16.1885 17.6879L16.5357 19.1604L17.143 18.4603L18.211 18.4271L18.1365 19.7494L19.0212 20.0084L19.9047 21.0008L21.3474 20.5951L22.9952 20.8552L24.9089 21.3698L25.8646 21.4821L27.4849 23.3213L30.6121 25.1604L28.5895 29.0245L26.4547 30.0168L25.6445 32.225L22.5552 34.2876L22.2263 35.4771C30.1239 33.5749 35.999 26.4805 35.999 17.9985C36.0022 14.4315 34.9409 10.9447 32.9509 7.98435Z" fill="#A0C882"/>
<path d="M20.07 27.4068L18.7591 24.9763L19.9623 22.4691L18.7591 22.1093L17.408 20.7525L14.4149 20.081L13.4214 18.0023V19.2365H12.9837L10.4042 15.7391V12.8663L8.51346 9.79184L5.51116 10.327H3.48863L2.47106 9.66006L3.76938 8.63103L2.47449 8.93011C0.856885 11.6794 0.00389241 14.8113 0.00390625 18.0012C0.00390625 27.9397 8.06082 36 18.0005 36C18.7659 36 19.5165 35.9324 20.2591 35.843L20.0711 33.6623C20.0711 33.6623 20.8973 30.424 20.8973 30.314C20.8962 30.2028 20.07 27.4068 20.07 27.4068ZM6.69145 5.80406L9.88855 5.3583L11.3622 4.55043L13.0203 5.02828L15.6697 4.8816L16.5772 3.45494L17.9008 3.67266L21.1151 3.37129L22.0009 2.39497L23.2499 1.56074L25.0169 1.8266L25.6609 1.72919C23.2662 0.593758 20.6496 0.00320249 17.9993 1.12523e-05C15.346 -0.00295974 12.725 0.582436 10.325 1.71405C7.92505 2.84567 5.80586 4.49535 4.12003 6.54432H4.12919L6.69145 5.80406ZM18.7602 1.78993L20.5983 0.778086L21.7785 1.4599L20.07 2.76052L18.4382 2.92438L17.7037 2.44768L18.7602 1.78993ZM13.316 1.93775L14.1273 2.27579L15.1895 1.93775L15.7682 2.94042L13.316 3.58443L12.1368 2.89459C12.1357 2.89459 13.2896 2.15204 13.316 1.93775Z" fill="#19517E"/>
</g>
<defs>
<clipPath id="clip0_1778_85162">
<rect width="36" height="36" fill="white"/>
</clipPath>
</defs>
</svg>
