<svg width="54" height="54" viewBox="0 0 54 54" fill="none" xmlns="http://www.w3.org/2000/svg">
<g clip-path="url(#clip0_1778_85384)">
<path d="M6.98214 39.9512C4.49782 36.1281 3.16406 31.6669 3.16406 27C3.16406 20.6332 5.64342 14.6474 10.1455 10.1455C14.6475 5.64342 20.6332 3.16406 27 3.16406C31.6669 3.16406 36.1281 4.49782 39.9512 6.98224C40.4339 6.00742 41.1783 5.18607 42.101 4.61004C37.6765 1.61251 32.4624 0 27 0C19.788 0 13.0078 2.80853 7.90815 7.90805C2.80853 13.0078 0 19.788 0 27C0 32.4624 1.61241 37.6765 4.60993 42.101C5.18594 41.1782 6.00729 40.4339 6.98214 39.9512ZM49.9898 12.8255C49.3769 13.724 48.5262 14.4342 47.5327 14.8767C49.6861 18.5096 50.8359 22.6662 50.8359 27C50.8359 33.3668 48.3566 39.3525 43.8545 43.8545C39.3525 48.3566 33.3668 50.8359 27 50.8359C22.6662 50.8359 18.5096 49.6861 14.8767 47.5327C14.4342 48.5262 13.724 49.3769 12.8255 49.9898C17.044 52.6016 21.9142 54 27 54C34.212 54 40.9922 51.1915 46.092 46.092C51.1915 40.9922 54 34.212 54 27C54 21.9142 52.6016 17.0441 49.9898 12.8255ZM42.5152 9.55336C42.5152 11.0199 43.7083 12.2131 45.1749 12.2131C46.6416 12.2131 47.8347 11.0199 47.8347 9.55336C47.8347 8.08682 46.6416 6.89365 45.1749 6.89365C43.7083 6.89365 42.5152 8.08682 42.5152 9.55336ZM12.2132 45.1749C12.2132 43.7084 11.02 42.5152 9.55336 42.5152C8.08671 42.5152 6.89365 43.7084 6.89365 45.1749C6.89365 46.6414 8.08682 47.8346 9.55336 47.8346C11.0199 47.8346 12.2132 46.6414 12.2132 45.1749Z" fill="#A0C882"/>
<path d="M18.7435 41.0161C17.6816 38.4692 16.9405 35.3895 16.5674 32.0551C15.2591 31.3052 14.2687 30.0629 13.85 28.582H7.38184C7.73073 32.9471 9.5102 36.9145 12.2496 40.0154C12.9694 40.8302 13.7548 41.5845 14.598 42.2707C16.7225 43.9993 19.2128 45.2941 21.9335 46.0194C20.8206 44.9314 19.7113 43.3375 18.7435 41.0161ZM35.2563 12.9839C36.6786 16.3954 37.5261 20.7622 37.6831 25.418H46.618C46.2918 21.3358 44.7143 17.6014 42.2707 14.5981C41.5845 13.7549 40.8301 12.9694 40.0153 12.2497C37.763 10.2599 35.0535 8.7769 32.0664 7.9804C33.1792 9.06863 34.2884 10.6625 35.2563 12.9839ZM13.85 25.418C14.2687 23.9371 15.2591 22.6949 16.5674 21.9449C16.9405 18.6104 17.6816 15.5308 18.7435 12.9839C19.7113 10.6625 20.8206 9.06863 21.9335 7.98051C14.0201 10.0903 8.05304 17.0189 7.38184 25.418H13.85ZM37.6831 28.582C37.5261 33.2378 36.6786 37.6046 35.2563 41.0161C34.2884 43.3375 33.1792 44.9314 32.0663 46.0195C39.9796 43.9096 45.9467 36.9811 46.6179 28.582H37.6831ZM26.9999 8.90019C23.6793 8.90019 20.8597 14.0443 19.8507 21.1912C22.3379 21.3597 24.4007 23.096 25.0572 25.418H34.5172C34.1829 16.1628 30.9452 8.90019 26.9999 8.90019ZM26.9999 45.0998C30.9452 45.0998 34.1829 37.8372 34.5172 28.582H25.0572C24.4007 30.904 22.3379 32.6403 19.8507 32.8088C20.8597 39.9557 23.6793 45.0998 26.9999 45.0998ZM19.4536 24.3403C17.987 24.3403 16.7939 25.5335 16.7939 27C16.7939 28.4665 17.9869 29.6597 19.4536 29.6597C20.9202 29.6597 22.1134 28.4665 22.1134 27C22.1134 25.5335 20.9201 24.3403 19.4536 24.3403Z" fill="#19517E"/>
</g>
<defs>
<clipPath id="clip0_1778_85384">
<rect width="54" height="54" fill="white"/>
</clipPath>
</defs>
</svg>
