<svg width="38" height="52" viewBox="0 0 38 52" fill="none" xmlns="http://www.w3.org/2000/svg">
<path d="M19 33.2C21.6701 33.2 24.2801 32.4082 26.5002 30.9248C28.7203 29.4415 30.4506 27.333 31.4724 24.8662C32.4942 22.3994 32.7615 19.685 32.2406 17.0663C31.7197 14.4475 30.434 12.0421 28.5459 10.1541C26.6579 8.26605 24.2525 6.9803 21.6337 6.4594C19.015 5.9385 16.3006 6.20585 13.8338 7.22763C11.367 8.24941 9.25856 9.97974 7.77516 12.1998C6.29176 14.4199 5.5 17.03 5.5 19.7C5.50405 23.2792 6.92767 26.7106 9.45853 29.2415C11.9894 31.7723 15.4208 33.196 19 33.2ZM23.5 16.1C23.5 15.3839 23.7845 14.6972 24.2908 14.1908C24.7972 13.6845 25.4839 13.4 26.2 13.4C26.9161 13.4 27.6028 13.6845 28.1092 14.1908C28.6155 14.6972 28.9 15.3839 28.9 16.1V23.3C28.9 24.0161 28.6155 24.7028 28.1092 25.2092C27.6028 25.7155 26.9161 26 26.2 26C25.4839 26 24.7972 25.7155 24.2908 25.2092C23.7845 24.7028 23.5 24.0161 23.5 23.3V16.1ZM18.1 20.6C17.388 20.6 16.692 20.3889 16.0999 19.9933C15.5079 19.5977 15.0465 19.0355 14.774 18.3777C14.5016 17.7199 14.4303 16.996 14.5692 16.2977C14.7081 15.5993 15.0509 14.9579 15.5544 14.4544C16.0579 13.951 16.6993 13.6081 17.3977 13.4692C18.096 13.3303 18.8198 13.4016 19.4777 13.674C20.1355 13.9465 20.6977 14.4079 21.0933 15C21.4889 15.592 21.7 16.288 21.7 17C21.7 17.2387 21.6052 17.4676 21.4364 17.6364C21.2676 17.8052 21.0387 17.9 20.8 17.9C20.5613 17.9 20.3324 17.8052 20.1636 17.6364C19.9948 17.4676 19.9 17.2387 19.9 17C19.9 16.644 19.7944 16.296 19.5966 16C19.3989 15.704 19.1177 15.4733 18.7888 15.337C18.4599 15.2008 18.098 15.1651 17.7488 15.2346C17.3997 15.304 17.0789 15.4755 16.8272 15.7272C16.5755 15.9789 16.404 16.2997 16.3346 16.6488C16.2651 16.998 16.3008 17.3599 16.437 17.6888C16.5733 18.0177 16.804 18.2989 17.1 18.4967C17.396 18.6944 17.744 18.8 18.1 18.8C18.812 18.8 19.508 19.0111 20.1001 19.4067C20.6921 19.8023 21.1535 20.3645 21.426 21.0223C21.6984 21.6802 21.7697 22.404 21.6308 23.1023C21.4919 23.8007 21.1491 24.4421 20.6456 24.9456C20.1421 25.4491 19.5007 25.7919 18.8023 25.9308C18.104 26.0697 17.3802 25.9984 16.7223 25.726C16.0645 25.4535 15.5023 24.9921 15.1067 24.4001C14.7111 23.808 14.5 23.112 14.5 22.4C14.5 22.1613 14.5948 21.9324 14.7636 21.7636C14.9324 21.5948 15.1613 21.5 15.4 21.5C15.6387 21.5 15.8676 21.5948 16.0364 21.7636C16.2052 21.9324 16.3 22.1613 16.3 22.4C16.3 22.756 16.4056 23.104 16.6034 23.4C16.8011 23.696 17.0823 23.9268 17.4112 24.063C17.7401 24.1992 18.102 24.2349 18.4512 24.1654C18.8003 24.096 19.1211 23.9245 19.3728 23.6728C19.6245 23.4211 19.796 23.1003 19.8654 22.7512C19.9349 22.402 19.8992 22.0401 19.763 21.7112C19.6267 21.3823 19.396 21.1011 19.1 20.9034C18.804 20.7056 18.456 20.6 18.1 20.6ZM9.1 25.1C9.1 24.8613 9.19482 24.6324 9.3636 24.4636C9.53239 24.2948 9.76131 24.2 10 24.2V15.2C9.76131 15.2 9.53239 15.1052 9.3636 14.9364C9.19482 14.7676 9.1 14.5387 9.1 14.3C9.1 14.0613 9.19482 13.8324 9.3636 13.6636C9.53239 13.4948 9.76131 13.4 10 13.4H11.8C12.0387 13.4 12.2676 13.4948 12.4364 13.6636C12.6052 13.8324 12.7 14.0613 12.7 14.3C12.7 14.5387 12.6052 14.7676 12.4364 14.9364C12.2676 15.1052 12.0387 15.2 11.8 15.2V24.2C12.0387 24.2 12.2676 24.2948 12.4364 24.4636C12.6052 24.6324 12.7 24.8613 12.7 25.1C12.7 25.3387 12.6052 25.5676 12.4364 25.7364C12.2676 25.9052 12.0387 26 11.8 26H10C9.76131 26 9.53239 25.9052 9.3636 25.7364C9.19482 25.5676 9.1 25.3387 9.1 25.1Z" fill="#A0C882"/>
<path d="M0.598161 21.5351C1.21602 22.5918 1.46162 23.8252 1.29566 25.0379V25.0658C1.21161 25.7032 1.29811 26.3515 1.54634 26.9445C1.79457 27.5376 2.19564 28.0542 2.70866 28.4417C3.68195 29.18 4.3792 30.2236 4.68866 31.4054C4.85135 32.0312 5.17782 32.6024 5.63449 33.0602C6.09116 33.518 6.66154 33.8458 7.28696 34.01C8.47094 34.3184 9.51693 35.0157 10.257 35.99C10.6456 36.5031 11.1632 36.9043 11.7571 37.1526C12.351 37.4009 13 37.4876 13.6383 37.4039H13.6608C13.9068 37.3698 14.1549 37.3526 14.4033 37.3526C15.3701 37.3525 16.3196 37.6094 17.1546 38.0969C17.7126 38.424 18.3478 38.5964 18.9946 38.5964C19.6415 38.5964 20.2766 38.424 20.8347 38.0969C21.8914 37.4792 23.1247 37.2336 24.3375 37.3994H24.3654C25.0027 37.4826 25.6507 37.3957 26.2436 37.1476C26.8365 36.8994 27.3532 36.4988 27.7413 35.9864C28.4795 35.0131 29.5232 34.3159 30.705 34.0064C31.3302 33.8441 31.901 33.5183 32.3588 33.0625C32.8165 32.6066 33.1447 32.0372 33.3096 31.4126C33.6179 30.2286 34.3153 29.1826 35.2896 28.4426C35.8034 28.0546 36.205 27.5371 36.4534 26.943C36.7019 26.349 36.7881 25.6996 36.7035 25.0613V25.0388C36.5372 23.8295 36.7812 22.5993 37.3965 21.545V21.5351C37.7227 20.9786 37.8947 20.3451 37.8947 19.7C37.8947 19.0549 37.7227 18.4214 37.3965 17.8649C36.7786 16.8082 36.533 15.5749 36.699 14.3621V14.3342C36.783 13.6968 36.6965 13.0485 36.4483 12.4555C36.2001 11.8624 35.799 11.3458 35.286 10.9583C34.3127 10.22 33.6154 9.17637 33.306 7.99461C33.1437 7.36934 32.8179 6.79853 32.362 6.3408C31.9062 5.88307 31.3368 5.5549 30.7122 5.39C29.5282 5.08163 28.4822 4.3843 27.7422 3.41C27.3541 2.89624 26.8366 2.49466 26.2425 2.24626C25.6485 1.99786 24.9992 1.91154 24.3609 1.9961H24.3384C23.129 2.16198 21.899 1.918 20.8446 1.3031C20.2869 0.975318 19.652 0.802109 19.0051 0.801318C18.3583 0.800527 17.7229 0.972182 17.1645 1.2986C16.1075 1.9158 14.8744 2.16136 13.6617 1.9961H13.6338C12.9964 1.91187 12.348 1.99828 11.7549 2.24652C11.1618 2.49476 10.6452 2.89594 10.2579 3.4091C9.51959 4.38239 8.47593 5.07964 7.29416 5.3891C6.66835 5.55179 6.09717 5.87826 5.63939 6.33493C5.18161 6.7916 4.85376 7.36199 4.68956 7.98741C4.38119 9.17138 3.68386 10.2174 2.70956 10.9574C2.19572 11.3455 1.79409 11.8629 1.54568 12.457C1.29728 13.051 1.211 13.7004 1.29566 14.3387V14.3612C1.46189 15.5705 1.21789 16.8007 0.602661 17.855C0.274694 18.4126 0.10138 19.0476 0.100589 19.6944C0.0997976 20.3413 0.271558 20.9767 0.598161 21.5351ZM18.9996 4.4C22.0256 4.4 24.9837 5.29733 27.4998 6.97852C30.0159 8.65971 31.9769 11.0492 33.1349 13.8449C34.2929 16.6407 34.5959 19.717 34.0056 22.6849C33.4152 25.6528 31.958 28.379 29.8183 30.5187C27.6786 32.6585 24.9524 34.1157 21.9844 34.706C19.0165 35.2964 15.9402 34.9934 13.1445 33.8354C10.3488 32.6773 7.95926 30.7163 6.27808 28.2002C4.59689 25.6842 3.69956 22.7261 3.69956 19.7C3.70409 15.6436 5.3175 11.7546 8.18583 8.88627C11.0542 6.01794 14.9431 4.40453 18.9996 4.4ZM29.1777 37.0799C28.595 37.8527 27.8162 38.4555 26.9221 38.826C26.028 39.1964 25.0511 39.321 24.0927 39.1868H24.0666C23.2658 39.0814 22.4527 39.2454 21.7554 39.653C21.3055 39.9142 20.8206 40.1096 20.3154 40.2335L25.0296 50.6042C25.0931 50.7515 25.1917 50.8811 25.3168 50.9816C25.4418 51.0822 25.5895 51.1507 25.747 51.1812C25.9045 51.2117 26.0671 51.2033 26.2206 51.1567C26.3742 51.1101 26.514 51.0267 26.628 50.9138L28.8213 48.7259C29.2286 48.323 29.7783 48.0967 30.3513 48.0959H34.2141C34.3744 48.0953 34.5321 48.0553 34.6733 47.9794C34.8144 47.9035 34.9348 47.7941 35.0237 47.6607C35.1126 47.5273 35.1674 47.3741 35.1831 47.2146C35.1989 47.0551 35.1752 46.8941 35.1141 46.7459L30.444 36.0359C29.9475 36.2823 29.5142 36.6395 29.1777 37.0799ZM13.9281 39.1832H13.9056C12.9471 39.3174 11.9702 39.1928 11.0761 38.8224C10.182 38.4519 9.40323 37.8491 8.82056 37.0763C8.48258 36.6337 8.0471 36.2749 7.54796 36.0278L2.87426 46.7495C2.81235 46.8959 2.78815 47.0555 2.80387 47.2137C2.8196 47.3719 2.87474 47.5236 2.96426 47.6549C3.0529 47.7907 3.1743 47.9021 3.31727 47.9787C3.46023 48.0553 3.62018 48.0947 3.78236 48.0932H7.64516C8.21812 48.0941 8.76773 48.3204 9.17516 48.7232L11.3676 50.9102C11.4807 51.0225 11.6195 51.1056 11.7719 51.1524C11.9243 51.1992 12.0858 51.2083 12.2425 51.1789C12.3992 51.1495 12.5464 51.0825 12.6715 50.9837C12.7966 50.8848 12.8958 50.7571 12.9606 50.6114L17.6775 40.2272C17.1774 40.104 16.6974 39.9104 16.2519 39.6521C15.5507 39.2425 14.7332 39.0775 13.9281 39.1832Z" fill="#19517E"/>
<path d="M26.1988 24.2002C26.4375 24.2002 26.6664 24.1054 26.8352 23.9366C27.004 23.7679 27.0988 23.5389 27.0988 23.3002V16.1002C27.0988 15.8615 27.004 15.6326 26.8352 15.4638C26.6664 15.2951 26.4375 15.2002 26.1988 15.2002C25.9601 15.2002 25.7312 15.2951 25.5624 15.4638C25.3936 15.6326 25.2988 15.8615 25.2988 16.1002V23.3002C25.2988 23.5389 25.3936 23.7679 25.5624 23.9366C25.7312 24.1054 25.9601 24.2002 26.1988 24.2002Z" fill="#A0C882"/>
</svg>
