<svg width="54" height="54" viewBox="0 0 54 54" fill="none" xmlns="http://www.w3.org/2000/svg">
<g clip-path="url(#clip0_1778_85392)">
<path d="M6.34974 35.1258L0.0596931 41.4159C-0.046092 41.5167 -0.00654124 41.6991 0.140904 41.7428L7.71651 44.0441C8.24505 44.2044 8.72588 44.4926 9.11643 44.8831C9.50698 45.2737 9.79518 45.7545 9.95551 46.2831L12.2567 53.8587C12.3004 54.0061 12.4829 54.0457 12.5837 53.9399L20.9999 45.5237C14.7729 43.9769 9.63204 40.0948 6.34974 35.1258ZM53.9403 41.4159L47.6503 35.1258C44.3914 40.0592 39.2664 43.9671 32.9999 45.5238L41.4161 53.94C41.5169 54.0458 41.6994 54.0062 41.7431 53.8588L44.0443 46.2832C44.2046 45.7546 44.4928 45.2738 44.8834 44.8832C45.274 44.4927 45.7548 44.2045 46.2834 44.0442L53.859 41.7429C54.0069 41.699 54.0459 41.5164 53.9403 41.4159Z" fill="#9BC482"/>
<path d="M48.5432 21.5439C48.5432 9.66525 38.8793 0.000305176 26.9996 0.000305176C15.1199 0.000305176 5.45605 9.66525 5.45605 21.5439C5.45605 32.2843 13.364 41.2361 23.6891 42.8343C36.7679 44.8688 48.5432 34.6888 48.5432 21.5439ZM10.2063 26.794C6.65334 15.4349 15.2062 3.95212 26.9996 3.95212C40.174 3.95212 48.8819 18.1112 42.4599 29.9358C35.046 43.5361 14.8724 41.6361 10.2063 26.794Z" fill="#0A5183"/>
<path d="M27.0002 7.11607C19.0449 7.11607 12.5713 13.5886 12.5713 21.5439C12.5713 33.248 25.8411 40.0735 35.3436 33.3086C37.3795 31.8635 39.0375 29.8878 40.1043 27.5796C44.5373 18.0362 37.4706 7.11607 27.0002 7.11607ZM34.2826 19.52L25.2863 26.1972C24.6532 26.669 23.7525 26.6057 23.1896 26.0094C19.1631 21.7183 19.4852 22.061 19.3886 21.9595C18.712 21.2391 18.8532 20.0738 19.6997 19.5381C19.7008 19.537 19.7018 19.536 19.7029 19.536C20.3315 19.1415 21.1699 19.2333 21.6962 19.7944C22.5477 20.7018 21.9746 20.091 24.5322 22.8159C24.8079 22.6104 28.0519 20.2038 32.5149 16.8919C33.2163 16.3709 34.2077 16.5175 34.7275 17.2188C35.204 17.8584 35.2024 18.8385 34.2826 19.52Z" fill="#0A5183"/>
</g>
<defs>
<clipPath id="clip0_1778_85392">
<rect width="54" height="54" fill="white"/>
</clipPath>
</defs>
</svg>
