<svg width="32" height="40" viewBox="0 0 32 40" fill="none" xmlns="http://www.w3.org/2000/svg">
<path d="M30.7748 17.6416C30.1712 16.4584 29.1317 14.959 29.7229 13.5853L30.2042 12.2103C30.3931 11.6644 30.4711 11.0863 30.4335 10.5099C30.396 9.9335 30.2437 9.37038 29.9857 8.85359C29.7276 8.33681 29.3689 7.87677 28.9307 7.50046C28.4924 7.12416 27.9834 6.83916 27.4336 6.6622L25.8042 6.1397C24.4388 5.80901 23.8331 4.19958 23.2536 3.0872C22.7283 2.07522 21.8251 1.31125 20.7401 0.961145C19.655 0.611037 18.4756 0.703046 17.4579 1.2172C16.3064 1.78095 14.8179 2.82114 13.4842 2.28283L11.8961 1.78095C10.8038 1.43627 9.61959 1.53779 8.60196 2.06335C7.58434 2.58891 6.81602 3.4958 6.46482 4.58595L5.8392 6.54533C5.51882 7.81926 4.14932 8.41395 3.08232 8.9447C2.06621 9.47303 1.30057 10.3821 0.952744 11.4733C0.604914 12.5644 0.703183 13.7489 1.22607 14.7678L2.0717 16.4041C2.77088 17.5618 2.16107 19.0097 1.78295 20.1647C1.60927 20.7055 1.5441 21.2752 1.59117 21.8412C1.63824 22.4072 1.79664 22.9583 2.05726 23.463C2.31788 23.9676 2.6756 24.4158 3.10988 24.7819C3.54417 25.1479 4.04647 25.4245 4.58795 25.596C5.72713 25.9349 7.13376 26.2951 7.66795 27.4797L8.51357 29.1228C8.77218 29.6274 9.12836 30.0755 9.56148 30.4414C9.9946 30.8072 10.496 31.0835 11.0367 31.2541C12.1297 31.6034 13.3166 31.5045 14.3367 30.9791L16.0967 30.0647C17.3129 29.327 18.9093 30.0592 20.1186 30.436C21.2108 30.7795 22.3946 30.6775 23.4119 30.1521C24.4292 29.6266 25.1977 28.7205 25.5498 27.631C25.9362 26.4258 26.2538 24.7276 27.5573 24.1728L28.9186 23.4647C29.9339 22.9356 30.6988 22.0265 31.0465 20.9356C31.3943 19.8448 31.2966 18.6607 30.7748 17.6416ZM26.3748 16.1016C26.3715 18.852 25.2775 21.4889 23.3326 23.4338C21.3878 25.3786 18.7509 26.4727 16.0004 26.476C2.24151 25.9053 2.23807 6.3047 16.0004 5.73408C18.7498 5.73698 21.3859 6.82999 23.3306 8.77344C25.2753 10.7169 26.3701 13.3522 26.3748 16.1016Z" fill="#19517E"/>
<path d="M16.0001 7.10938C13.6151 7.11119 11.3282 8.05898 9.64104 9.74481C7.95392 11.4306 7.00439 13.7168 7.00074 16.1019C7.49299 28.041 24.5093 28.0376 24.9995 16.1019C24.9959 13.7168 24.0463 11.4306 22.3592 9.74481C20.6721 8.05898 18.3852 7.11119 16.0001 7.10938ZM20.1939 14.1562L15.3332 19.0237C15.2041 19.1511 15.03 19.2225 14.8486 19.2225C14.6671 19.2225 14.493 19.1511 14.3639 19.0237L11.8064 16.4594C11.7411 16.3966 11.6892 16.3214 11.6537 16.2381C11.6183 16.1548 11.6 16.0652 11.6 15.9747C11.6 15.8842 11.6183 15.7946 11.6537 15.7113C11.6892 15.628 11.7411 15.5527 11.8064 15.49C11.87 15.4263 11.9455 15.3757 12.0287 15.3412C12.1119 15.3067 12.201 15.2889 12.2911 15.2889C12.3811 15.2889 12.4703 15.3067 12.5534 15.3412C12.6366 15.3757 12.7121 15.4263 12.7757 15.49L14.852 17.5662L19.2245 13.1869C19.353 13.0583 19.5274 12.9861 19.7092 12.9861C19.891 12.9861 20.0653 13.0583 20.1939 13.1869C20.3224 13.3154 20.3946 13.4898 20.3946 13.6716C20.3946 13.8534 20.3224 14.0277 20.1939 14.1562ZM14.9689 32.1962C13.8353 32.7801 12.5389 32.9673 11.2865 32.7281C10.0341 32.4888 8.89796 31.8368 8.0595 30.8762L5.86637 35.9087C5.81536 36.0275 5.79885 36.1582 5.81873 36.2859C5.83861 36.4136 5.89407 36.5331 5.97876 36.6307C6.06345 36.7283 6.17394 36.8 6.29754 36.8377C6.42115 36.8754 6.55288 36.8775 6.67762 36.8437L10.4039 35.7987L12.1364 38.8994C12.1991 39.011 12.2917 39.1029 12.4038 39.1647C12.5159 39.2266 12.643 39.2559 12.7708 39.2495C12.8987 39.2431 13.0222 39.2011 13.1275 39.1283C13.2329 39.0555 13.3158 38.9548 13.367 38.8375L16.1239 32.6156L15.7732 31.7837L14.9689 32.1962ZM24.2845 31.2475C23.5982 31.6483 22.8352 31.9001 22.0451 31.9866C21.255 32.0731 20.4556 31.9922 19.6989 31.7494L18.2139 31.275L17.6157 32.6225L16.8526 34.3481L18.7364 38.8306C18.7871 38.9468 18.8689 39.0467 18.9728 39.1193C19.0767 39.192 19.1986 39.2346 19.3251 39.2424C19.4517 39.2502 19.5779 39.223 19.6899 39.1637C19.802 39.1043 19.8955 39.0153 19.9601 38.9062L21.7889 35.7575L25.3295 36.6925C25.4526 36.7245 25.5823 36.7218 25.7039 36.6845C25.8256 36.6473 25.9345 36.577 26.0186 36.4815C26.1027 36.386 26.1586 36.2691 26.1802 36.1437C26.2018 36.0183 26.1881 35.8893 26.1407 35.7712L24.2845 31.2475Z" fill="#A0C882"/>
</svg>
