<svg width="36" height="36" viewBox="0 0 36 36" fill="none" xmlns="http://www.w3.org/2000/svg">
<mask id="mask0_1778_85267" style="mask-type:luminance" maskUnits="userSpaceOnUse" x="0" y="0" width="36" height="36">
<path d="M0 0.000106812H35.9999V36H0V0.000106812Z" fill="white"/>
</mask>
<g mask="url(#mask0_1778_85267)">
<path d="M30.0001 28.016H29.553C28.5665 29.0679 27.2615 29.648 25.8792 29.648C24.4962 29.648 23.1911 29.0679 22.2039 28.016H21.7181C20.7513 29.0405 19.4343 29.6522 18.1961 29.6522C16.6946 29.6522 15.3469 29.1447 14.2818 28.016H13.796C12.8088 29.0686 11.5038 29.648 10.1208 29.648C8.73841 29.648 7.43342 29.0686 6.44623 28.016H5.99975C5.01256 29.0686 3.70764 29.648 2.32459 29.648C1.51382 29.648 0.709451 29.4483 0 29.0714V36H35.9999V29.0714C35.2911 29.4483 34.4875 29.648 33.6754 29.648C32.293 29.648 30.9873 29.0679 30.0001 28.016Z" fill="#A0C882"/>
<path d="M13.686 15.4294V12.5388L8.99414 16.9453H12.0709L13.686 15.4294Z" fill="#19517E"/>
<path d="M13.686 8.95924V6.13339L2.20117 16.9453H5.17538L13.686 8.95924Z" fill="#19517E"/>
<path d="M0 19.0543V23.4439H5.49912V25.888H7.60849V23.4439H28.3591V25.9062H30.5008V23.4439H35.9999V19.0543H0Z" fill="#19517E"/>
<path d="M27.0064 16.9453L22.3145 12.5388V15.4294L23.9295 16.9453H27.0064Z" fill="#A0C882"/>
<path d="M33.7993 16.9453L22.3145 6.13339V8.95924L30.8251 16.9453H33.7993Z" fill="#A0C882"/>
<path d="M18.0005 6.29278C19.2062 6.33539 20.0273 5.2021 20.2045 4.14474C20.2614 3.52669 20.1222 2.97896 19.7868 2.50084L18.0009 -0.000170231L18.0005 0.000180721L18.0002 -0.000170231L16.2142 2.50084C15.8788 2.97896 15.7396 3.52669 15.7966 4.14474C15.9738 5.2021 16.7949 6.33539 18.0005 6.29278Z" fill="#19517E"/>
<path d="M15.7949 7.78573V16.9453H20.2049V7.78573C19.5559 8.1851 18.8022 8.40167 17.9999 8.40167C17.1977 8.40167 16.4439 8.1851 15.7949 7.78573Z" fill="#A0C882"/>
</g>
</svg>
