<svg width="40" height="50" viewBox="0 0 40 50" fill="none" xmlns="http://www.w3.org/2000/svg">
<path d="M35.75 3.06262H34.0625V6.43762C34.0625 7.6311 33.5884 8.77569 32.7445 9.6196C31.9006 10.4635 30.756 10.9376 29.5625 10.9376H10.4375C9.24403 10.9376 8.09943 10.4635 7.25552 9.6196C6.41161 8.77569 5.9375 7.6311 5.9375 6.43762V3.06262H4.25C3.20753 3.06853 2.20944 3.48527 1.47229 4.22242C0.735146 4.95956 0.318406 5.95765 0.3125 7.00012V45.2501C0.318406 46.2926 0.735146 47.2907 1.47229 48.0278C2.20944 48.765 3.20753 49.1817 4.25 49.1876H35.75C36.7925 49.1817 37.7906 48.765 38.5277 48.0278C39.2649 47.2907 39.6816 46.2926 39.6875 45.2501V7.00012C39.6816 5.95765 39.2649 4.95956 38.5277 4.22242C37.7906 3.48527 36.7925 3.06853 35.75 3.06262ZM27.9875 25.5626L19.55 34.5626C19.2223 34.8922 18.7773 35.0783 18.3125 35.0801C17.8969 35.0851 17.4949 34.9323 17.1875 34.6526L12.125 30.1526C11.9574 30.0087 11.8205 29.8325 11.7226 29.6344C11.6246 29.4364 11.5677 29.2206 11.5551 29.0001C11.5425 28.7795 11.5745 28.5587 11.6492 28.3508C11.724 28.1429 11.8399 27.9522 11.99 27.7901C12.2659 27.4341 12.6712 27.2013 13.1177 27.1423C13.5643 27.0833 14.0161 27.2029 14.375 27.4751L18.2 30.8951L25.5125 23.1326C25.8289 22.8166 26.2578 22.6391 26.705 22.6391C27.1522 22.6391 27.5811 22.8166 27.8975 23.1326C28.2058 23.4342 28.387 23.8425 28.4037 24.2735C28.4205 24.7045 28.2715 25.1255 27.9875 25.4501V25.5626Z" fill="#19517E"/>
<path d="M29 0.812622H11C9.4467 0.812622 8.1875 2.07182 8.1875 3.62512V5.87512C8.1875 7.42842 9.4467 8.68762 11 8.68762H29C30.5533 8.68762 31.8125 7.42842 31.8125 5.87512V3.62512C31.8125 2.07182 30.5533 0.812622 29 0.812622Z" fill="#A0C882"/>
</svg>
