<svg width="36" height="36" viewBox="0 0 36 36" fill="none" xmlns="http://www.w3.org/2000/svg">
<path d="M23.2369 19.0547C22.7469 21.4587 20.5463 23.2734 17.9999 23.2734C15.4534 23.2734 13.3232 21.4587 12.8331 19.0547H10.7236C11.2409 22.623 14.2905 25.3828 17.9999 25.3828C21.7092 25.3828 24.8291 22.623 25.3464 19.0547H23.2369Z" fill="#A0C882"/>
<path d="M27.4559 19.0547C26.9234 23.7878 22.8731 27.4922 18 27.4922C13.1269 27.4922 9.14688 23.7878 8.61441 19.0547H0V20.1094C0 20.5636 0.291516 20.9673 0.722039 21.1105L5.06159 22.5267C5.24391 23.0438 5.43649 23.5145 5.64251 23.9491L3.64022 27.9721C3.54184 28.17 3.5081 28.3938 3.54377 28.6118C3.57944 28.8299 3.6827 29.0313 3.83899 29.1875L6.81251 32.161C7.13489 32.4834 7.62307 32.5596 8.02786 32.3598L12.0509 30.3575C12.4856 30.5635 12.9563 30.7561 13.4733 30.9384L14.8895 35.278C14.9595 35.4881 15.0939 35.6709 15.2736 35.8005C15.4532 35.9301 15.6691 35.9999 15.8906 36H20.1797C20.6339 36 21.0376 35.7085 21.1808 35.278L22.597 30.9384C23.1141 30.7561 23.5848 30.5635 24.0194 30.3575L28.0425 32.3598C28.4472 32.5606 28.9365 32.4834 29.2578 32.161L32.2313 29.1875C32.3876 29.0313 32.4909 28.8299 32.5265 28.6118C32.5622 28.3938 32.5285 28.17 32.4301 27.9721L30.4278 23.9491C30.6338 23.5144 30.8264 23.0437 31.0087 22.5267L35.278 21.1105C35.4881 21.0405 35.6709 20.9061 35.8005 20.7264C35.9301 20.5468 35.9999 20.3309 36 20.1094V19.0547H27.4559Z" fill="#A0C882"/>
<path d="M15.0302 19.0547C15.4671 20.2797 16.6268 21.1641 18 21.1641C19.3732 21.1641 20.6033 20.2797 21.0401 19.0547H15.0302ZM18 0C15.6733 0 13.7812 1.89204 13.7812 4.21875C13.7812 6.54546 15.6733 8.4375 18 8.4375C20.3267 8.4375 22.2891 6.54546 22.2891 4.21875C22.2891 1.89204 20.3267 0 18 0ZM28.6172 0C26.2905 0 24.3984 1.89204 24.3984 4.21875C24.3984 6.54546 26.2905 8.4375 28.6172 8.4375C30.9439 8.4375 32.8359 6.54546 32.8359 4.21875C32.8359 1.89204 30.9439 0 28.6172 0ZM7.45312 0C5.12641 0 3.23438 1.89204 3.23438 4.21875C3.23438 6.54546 5.12641 8.4375 7.45312 8.4375C9.77984 8.4375 11.6719 6.54546 11.6719 4.21875C11.6719 1.89204 9.77984 0 7.45312 0ZM32.2147 9.41365C31.1918 10.1244 29.9546 10.5469 28.6172 10.5469C27.2853 10.5469 26.052 10.1289 25.0315 9.42356C24.5689 9.68913 24.1243 9.98775 23.7218 10.3478C25.7728 11.8811 27.1969 14.2756 27.4981 16.9453H36V15.8906C36 13.1328 34.4615 10.681 32.2147 9.41365ZM18 10.5469C14.2869 10.5469 11.2053 13.3724 10.6924 16.9453H25.3779C24.865 13.3724 21.7131 10.5469 18 10.5469ZM11.0389 9.42356C10.0183 10.1289 8.78498 10.5469 7.45312 10.5469C6.11571 10.5469 4.87856 10.1244 3.85559 9.41365C1.60882 10.681 0 13.1328 0 15.8906V16.9453H8.57222C8.87344 14.2756 10.2975 11.8811 12.3486 10.3478C11.946 9.98775 11.5014 9.68913 11.0389 9.42356Z" fill="#19517E"/>
</svg>
