<svg width="48" height="54" viewBox="0 0 48 54" fill="none" xmlns="http://www.w3.org/2000/svg">
<path d="M32.0567 29.4342C32.5605 28.6389 35.0928 24.5429 35.4304 22.0314C35.4716 21.724 35.4346 21.4112 35.3227 21.122C34.972 20.2149 32.3648 14.9487 29.2697 13.464C29.2671 13.4624 26.8588 12.346 26.8588 12.346L25.8083 11.4594L24.1873 13.0727L25.7772 23.702C25.7825 23.7377 25.7735 23.7741 25.7523 23.8032L24.1316 26.0214C24.1188 26.0388 24.1022 26.0529 24.0829 26.0627C24.0637 26.0724 24.0424 26.0775 24.0209 26.0775C23.9993 26.0775 23.9781 26.0724 23.9588 26.0627C23.9396 26.0529 23.9229 26.0388 23.9102 26.0214L22.2894 23.8032C22.2681 23.774 22.2592 23.7377 22.2646 23.702L23.8547 13.0712L22.2352 11.4593L21.1842 12.3459C21.1842 12.3459 18.7893 13.441 18.7295 13.4696C15.6348 14.9544 13.0277 20.2204 12.6768 21.1276C12.5651 21.4169 12.528 21.7297 12.5689 22.0372C12.9065 24.5486 15.4388 28.6445 15.9428 29.4401C16.109 29.7026 16.339 29.9187 16.6113 30.0683C16.8835 30.2179 17.1892 30.2962 17.4999 30.2958C17.8207 30.2958 18.1452 30.2107 18.4394 30.0355C18.5877 30.4517 18.7987 30.839 19.0586 31.1945L19.0597 51.766C19.0599 52.9999 20.0603 53.9999 21.2939 53.9998C22.5281 53.9998 23.5281 52.9996 23.5278 51.7658L23.5517 33.633C23.7092 33.6462 23.8664 33.654 24.0212 33.654C24.1706 33.654 24.3218 33.6466 24.4732 33.634L24.4727 51.7659C24.4727 52.9998 25.4727 53.9998 26.7066 53.9998C27.9401 53.9998 28.9404 52.9997 28.9404 51.766L28.9408 31.2525C29.2169 30.8861 29.4415 30.4846 29.5971 30.0517C29.8722 30.2077 30.183 30.2899 30.4992 30.2901C30.81 30.2905 31.1158 30.2122 31.3881 30.0626C31.6604 29.9129 31.8904 29.6968 32.0567 29.4342ZM24.0214 11.3861C26.7142 11.3861 28.7245 8.87619 28.7702 4.66842C28.7993 1.74772 27.4087 0 24.0214 0C20.6336 0 19.2429 1.74772 19.2716 4.66842C19.3179 8.87619 21.3271 11.3861 24.0214 11.3861Z" fill="#A0C882"/>
<path d="M47.4379 27.0979C47.1508 26.3558 45.0175 22.0467 42.4848 20.8319C42.4826 20.8306 40.5122 19.9172 40.5122 19.9172L39.6524 19.1917L38.307 20.5309C38.3071 20.5316 38.3076 20.5322 38.3077 20.5329L39.5113 29.4792C39.5153 29.5052 39.5088 29.5317 39.4933 29.553L38.3104 31.1722C38.3011 31.1849 38.2889 31.1953 38.2749 31.2024C38.2609 31.2095 38.2453 31.2132 38.2296 31.2132C38.2139 31.2132 38.1983 31.2095 38.1843 31.2024C38.1703 31.1953 38.1581 31.1849 38.1488 31.1722L36.9658 29.553C36.9502 29.5318 36.9437 29.5052 36.9477 29.4792L38.0691 20.5328C38.0696 20.5307 38.0709 20.5289 38.0714 20.5269L36.7297 19.1917L36.2909 19.562C36.592 20.1648 36.7566 20.5502 36.7625 20.5655C36.9679 21.0976 37.0359 21.6728 36.96 22.238C36.5993 24.9223 34.2405 28.8612 33.424 30.1599L33.129 30.581C32.4895 31.3712 31.533 31.8331 30.4999 31.8331H30.4845V32.0346C30.8302 32.6692 31.1958 33.2928 31.5808 33.9044C31.7907 34.2358 32.1217 34.4721 32.5033 34.5631C32.8849 34.6542 33.287 34.5926 33.6239 34.3917C33.745 34.732 33.9178 35.0493 34.1302 35.3398L34.1314 52.1725C34.1314 53.1821 34.9502 54.0002 35.9593 54.0001C36.9693 54.0001 37.7873 53.1818 37.787 52.1722L37.8068 37.3352C37.9345 37.3463 38.0626 37.352 38.1908 37.3524C38.3131 37.3524 38.4368 37.3463 38.5604 37.3361L38.5601 52.1723C38.5601 53.182 39.3782 54.0001 40.3881 54.0001C41.3973 54.0001 42.2155 53.1819 42.2155 52.1725L42.2159 35.3874C42.4418 35.0876 42.6257 34.759 42.753 34.4049C42.978 34.5326 43.2323 34.5999 43.491 34.6C43.9901 34.6 44.4781 34.3521 44.7651 33.8997C45.1775 33.2487 47.2494 29.8973 47.5257 27.8423C47.5598 27.5907 47.5296 27.3346 47.4379 27.0979ZM42.958 31.0457L42.9587 25.338C43.5838 26.1947 44.1499 27.1579 44.4602 27.8055C44.2283 28.6328 43.5905 29.922 42.958 31.0457ZM38.1905 19.1316C40.3941 19.1316 42.039 17.0779 42.0764 13.6348C42.1 11.245 40.9625 9.81497 38.1905 9.81497C35.4183 9.81497 34.2806 11.245 34.3044 13.6348C34.3421 17.0779 35.9863 19.1316 38.1905 19.1316ZM14.8676 30.5825L14.6121 30.2223C13.8305 28.9847 11.4066 24.9705 11.0398 22.2432C10.9647 21.6783 11.0328 21.1036 11.2379 20.5719C11.2437 20.5562 11.4127 20.1601 11.7222 19.5427L11.3065 19.192L9.95967 20.5326L9.95979 20.5331L11.1634 29.4794C11.1654 29.4923 11.1648 29.5055 11.1617 29.5181C11.1586 29.5308 11.153 29.5427 11.1453 29.5533L9.96237 31.1724C9.95312 31.1852 9.94097 31.1956 9.92694 31.2027C9.9129 31.2099 9.89736 31.2136 9.88161 31.2136C9.86585 31.2136 9.85031 31.2099 9.83628 31.2027C9.82224 31.1956 9.81009 31.1852 9.80084 31.1724L8.61777 29.5533C8.60224 29.532 8.59574 29.5055 8.59969 29.4794L9.72113 20.533C9.72148 20.5304 9.72301 20.5285 9.7236 20.5259L8.38369 19.1918L7.52357 19.9173C7.52357 19.9173 5.56372 20.8132 5.51488 20.8366C2.98264 22.0516 0.849401 26.3605 0.562262 27.1028C0.47094 27.3395 0.440662 27.5954 0.474218 27.8469C0.750558 29.9019 2.82228 33.2536 3.23491 33.9045C3.37095 34.1192 3.55913 34.296 3.78193 34.4184C4.00472 34.5408 4.25487 34.6048 4.50907 34.6045C4.77156 34.6045 5.03698 34.5348 5.27775 34.3917C5.39902 34.732 5.57147 35.0492 5.7843 35.3398L5.78524 52.1725C5.78524 53.1821 6.60404 54.0002 7.61337 54.0001C8.62329 54.0001 9.44127 53.1818 9.44115 52.1722L9.46087 37.3352C9.58954 37.346 9.7182 37.3524 9.84498 37.3524C9.9673 37.3524 10.0907 37.3462 10.2145 37.3359L10.2142 52.1722C10.2142 53.1819 11.0323 54 12.042 54C13.0514 54 13.8699 53.1818 13.8699 52.1723L13.8701 35.3873C14.0962 35.0873 14.2799 34.7589 14.4073 34.4048C14.6323 34.5325 14.8866 34.5997 15.1453 34.5999C15.6442 34.5999 16.1325 34.352 16.4197 33.8997C16.8047 33.288 17.1703 32.6645 17.516 32.0299V31.8389H17.5002C16.4648 31.839 15.5065 31.3749 14.8676 30.5825ZM3.53942 27.8102C3.85579 27.1505 4.43735 26.1626 5.07631 25.294L5.0776 31.1141C4.43324 29.9765 3.77561 28.6546 3.53942 27.8102ZM9.84463 19.1316C12.0479 19.1316 13.6927 17.0779 13.7304 13.6348C13.7539 11.245 12.6162 9.81497 9.84463 9.81497C7.07243 9.81497 5.93467 11.245 5.95839 13.6348C5.99607 17.0779 7.64037 19.1316 9.84463 19.1316Z" fill="#19517E"/>
</svg>
