<svg width="36" height="36" viewBox="0 0 36 36" fill="none" xmlns="http://www.w3.org/2000/svg">
<g clip-path="url(#clip0_1778_85233)">
<path d="M1.05469 36H10.6172V32.8359C10.6172 29.9235 8.25623 27.4922 5.34375 27.4922C2.43127 27.4922 0 29.9235 0 32.8359V34.9453C0 35.5279 0.472148 36 1.05469 36ZM8.50781 24.3281C8.50781 22.5807 7.09116 21.1641 5.34375 21.1641C3.59634 21.1641 2.10938 22.5807 2.10938 24.3281C2.10938 26.0755 3.59634 27.4922 5.34375 27.4922C7.09116 27.4922 8.50781 26.0755 8.50781 24.3281ZM12.7266 32.8359V36H23.3438V32.8359C23.3438 29.9235 20.9125 27.4922 18 27.4922C15.0875 27.4922 12.7266 29.9235 12.7266 32.8359ZM21.2344 24.3281C21.2344 22.5807 19.7474 21.1641 18 21.1641C16.2526 21.1641 14.8359 22.5807 14.8359 24.3281C14.8359 26.0755 16.2526 27.4922 18 27.4922C19.7474 27.4922 21.2344 26.0755 21.2344 24.3281ZM30.7266 27.4922C27.8141 27.4922 25.4531 29.9235 25.4531 32.8359V36H34.9453C35.5279 36 36 35.5279 36 34.9453V32.8359C36 29.9235 33.639 27.4922 30.7266 27.4922ZM33.8906 24.3281C33.8906 26.0755 32.474 27.4922 30.7266 27.4922C28.9792 27.4922 27.5625 26.0755 27.5625 24.3281C27.5625 22.5807 28.9792 21.1641 30.7266 21.1641C32.474 21.1641 33.8906 22.5807 33.8906 24.3281ZM33.8906 7.45312C33.8906 9.20053 32.474 10.6172 30.7266 10.6172C28.9792 10.6172 27.5625 9.20053 27.5625 7.45312C27.5625 5.70572 28.9792 4.28906 30.7266 4.28906C32.474 4.28906 33.8906 5.70572 33.8906 7.45312Z" fill="#19517E"/>
<path d="M30.7266 10.6172C27.8141 10.6172 25.4531 12.9781 25.4531 15.8906V24.3281C25.4531 21.4206 27.819 19.0547 30.7266 19.0547C33.6341 19.0547 36 21.4206 36 24.3281V15.8906C36 12.9781 33.639 10.6172 30.7266 10.6172ZM1.05469 16.9453H23.3438V15.8906C23.3438 13.8867 24.1523 12.0717 25.4531 10.7402V1.05469C25.4531 0.471797 24.9813 0 24.3984 0H1.05469C0.471797 0 0 0.471797 0 1.05469V15.8906C0 16.4735 0.471797 16.9453 1.05469 16.9453ZM12.7266 5.34375C12.7266 4.76086 13.1984 4.28906 13.7812 4.28906C14.3641 4.28906 14.8359 4.76086 14.8359 5.34375V11.6719C14.8359 12.2548 14.3641 12.7266 13.7812 12.7266C13.1984 12.7266 12.7266 12.2548 12.7266 11.6719V5.34375ZM8.50781 7.45312C8.50781 6.87023 8.97961 6.39844 9.5625 6.39844C10.1454 6.39844 10.6172 6.87023 10.6172 7.45312V11.6719C10.6172 12.2548 10.1454 12.7266 9.5625 12.7266C8.97961 12.7266 8.50781 12.2548 8.50781 11.6719V7.45312ZM4.28906 9.5625C4.28906 8.97961 4.76086 8.50781 5.34375 8.50781C5.92664 8.50781 6.39844 8.97961 6.39844 9.5625V11.6719C6.39844 12.2548 5.92664 12.7266 5.34375 12.7266C4.76086 12.7266 4.28906 12.2548 4.28906 11.6719V9.5625Z" fill="#A0C882"/>
</g>
<defs>
<clipPath id="clip0_1778_85233">
<rect width="36" height="36" fill="white"/>
</clipPath>
</defs>
</svg>
