<svg width="40" height="40" viewBox="0 0 40 40" fill="none" xmlns="http://www.w3.org/2000/svg">
<g clip-path="url(#clip0_1778_85181)">
<path d="M16.6337 20.2081C16.4056 18.5073 15.6305 17.9448 14.6893 17.2605C13.396 16.3215 11.9277 15.2563 11.9277 11.4339C11.9277 6.98256 15.5486 3.35949 19.9999 3.35949C24.4513 3.35949 28.0743 6.98256 28.0743 11.4339C28.0743 15.2563 26.6061 16.3215 25.3105 17.2605C24.3693 17.9448 23.5942 18.5073 23.3661 20.2081C23.1535 20.0664 22.8966 19.9822 22.6198 19.9822H20.3432V14.025H21.5036C21.6919 14.025 21.8447 13.8722 21.8447 13.6817C21.8447 13.4935 21.6919 13.3407 21.5036 13.3407H18.4984C18.308 13.3407 18.1552 13.4935 18.1552 13.6817C18.1552 13.87 18.308 14.025 18.4984 14.025H19.6589V19.9822H17.3801C17.1055 19.9822 16.8486 20.0664 16.6337 20.2081ZM22.6198 24.2808H17.3801C17.0058 24.2808 16.7024 23.9774 16.7024 23.6009V21.3376C16.7024 20.9611 17.0058 20.6577 17.3801 20.6577H22.6198C22.9941 20.6577 23.2997 20.9611 23.2997 21.3376V23.6009C23.2997 23.9774 22.9941 24.2808 22.6198 24.2808ZM22.6884 26.657H17.3114C16.9371 26.657 16.6315 26.3536 16.6315 25.9794C16.6315 25.6029 16.9371 25.2995 17.3114 25.2995H22.6884C23.0649 25.2995 23.3683 25.6029 23.3683 25.9794C23.3683 26.3536 23.0649 26.657 22.6884 26.657ZM21.5036 29.0111H18.4984C18.122 29.0111 17.8186 28.7077 17.8186 28.3313C17.8186 27.957 18.122 27.6514 18.4984 27.6514H21.5036C21.8779 27.6514 22.1813 27.957 22.1813 28.3313C22.1813 28.7077 21.8779 29.0111 21.5036 29.0111ZM19.9999 2.73497C19.6257 2.73497 19.32 2.43157 19.32 2.05731V0.686472C19.32 0.309991 19.6257 0.0065918 19.9999 0.0065918C20.3764 0.0065918 20.6798 0.309991 20.6798 0.686472V2.05731C20.6798 2.43157 20.3764 2.73497 19.9999 2.73497ZM25.315 4.16117C25.1998 4.16117 25.0824 4.13017 24.9761 4.07037C24.6506 3.88213 24.5398 3.46579 24.7281 3.14246L25.4124 1.95322C25.6006 1.62989 26.017 1.51695 26.3403 1.70519C26.6659 1.89343 26.7766 2.30756 26.5906 2.6331L25.904 3.82012C25.7778 4.03937 25.5497 4.16117 25.315 4.16117ZM14.6849 4.16117C14.4502 4.16117 14.2221 4.03937 14.0958 3.82012L13.4115 2.6331C13.2233 2.30756 13.334 1.89343 13.6595 1.70519C13.9851 1.51695 14.3992 1.62989 14.5875 1.95322L15.2718 3.14246C15.46 3.46579 15.3493 3.88213 15.0237 4.07037C14.9174 4.13017 14.8001 4.16117 14.6849 4.16117ZM23.2421 39.9933C23.2022 39.9933 23.1624 39.9911 23.1247 39.9844C22.8435 39.9335 22.622 39.7143 22.5733 39.433L21.9753 36.0314C21.9554 35.9229 21.9643 35.8122 21.9953 35.7081L26.7522 20.6621C26.843 20.764 26.9515 20.8504 27.0756 20.9234L32.1647 23.86C32.3706 23.9796 32.6032 24.0416 32.8401 24.0416H32.8446L23.8312 39.6545C23.7072 39.8671 23.4813 39.9933 23.2421 39.9933ZM32.8401 23.3683C32.725 23.3683 32.6076 23.3373 32.5013 23.2775L27.4122 20.3388C27.0866 20.1505 26.9759 19.7342 27.1641 19.4109L28.4309 17.214C28.5217 17.059 28.6701 16.9438 28.845 16.8973C29.0178 16.8508 29.2038 16.8752 29.3588 16.966L34.4479 19.9047C34.6052 19.9933 34.7181 20.1417 34.7646 20.3166C34.8111 20.4916 34.7868 20.6754 34.6982 20.8326L33.4292 23.0273C33.303 23.2465 33.0749 23.3683 32.8401 23.3683ZM29.1838 16.2108L31.0197 13.7858C32.1027 15.5353 34.5011 16.6803 36.4278 16.6803H36.4566L35.1898 19.6766C35.0813 19.5327 34.9462 19.4109 34.7868 19.3201L29.6976 16.3813C29.5382 16.2905 29.3632 16.2329 29.1838 16.2108Z" fill="#19517E"/>
<path d="M36.4275 16.0044C34.359 16.0044 31.6838 14.5051 31.1966 12.4987C30.9751 11.5952 31.0394 9.85449 33.9383 8.35742C35.3091 7.64654 36.1573 5.65783 36.3699 4.95138C36.4186 4.79193 36.5227 4.65684 36.66 4.57047C36.877 6.87808 36.8615 10.1025 35.3224 11.5774C35.1851 11.7081 35.1807 11.9251 35.3113 12.0602C35.3755 12.1289 35.4641 12.1665 35.5571 12.1665C35.6479 12.1665 35.7299 12.1333 35.7941 12.0713C36.9811 10.9352 37.3355 9.01073 37.4218 7.43837C37.4728 6.48388 37.4373 5.51167 37.3488 4.55054C37.3731 4.56604 37.3975 4.57933 37.4196 4.59704C39.2245 5.9103 40.1812 9.51123 39.9398 12.0536C39.7693 13.8607 39.0252 15.1607 37.8492 15.7143C37.4418 15.907 36.9612 16.0044 36.4275 16.0044ZM16.7575 39.9929C16.5183 39.9929 16.2924 39.8667 16.1706 39.6541L7.15719 24.0412H7.1594C7.39636 24.0412 7.63111 23.9792 7.83707 23.8596L12.9262 20.923C13.048 20.8522 13.1565 20.7636 13.2495 20.6617L18.0043 35.7077C18.0375 35.8117 18.0441 35.9225 18.0242 36.031L17.4263 39.4326C17.3775 39.7139 17.1583 39.9331 16.877 39.984C16.8372 39.9907 16.7973 39.9929 16.7575 39.9929ZM7.1594 23.3679C6.92465 23.3679 6.69655 23.2461 6.57032 23.0269L5.30357 20.8322C5.21277 20.675 5.18841 20.4912 5.23492 20.3162C5.28143 20.1413 5.39437 19.9929 5.55161 19.9043L10.6407 16.9656C10.9663 16.7773 11.3804 16.8903 11.5687 17.2136L12.8354 19.4105C12.9262 19.5655 12.9506 19.7515 12.9041 19.9242C12.8576 20.0992 12.7446 20.2476 12.5874 20.3384L7.49823 23.2771C7.39193 23.3369 7.27456 23.3679 7.1594 23.3679ZM4.80972 19.6762L3.54297 16.6799H3.57397C5.50067 16.6799 7.89908 15.5349 8.9798 13.7854L10.8157 16.2104C10.6407 16.2303 10.4658 16.2879 10.3041 16.3809L5.21499 19.3197C5.05554 19.4105 4.91823 19.5323 4.80972 19.6762Z" fill="#A0C882"/>
<path d="M3.57429 16.0047C3.03836 16.0047 2.56001 15.9073 2.15031 15.7146C0.974361 15.161 0.232472 13.861 0.0597333 12.0539C-0.179443 9.51156 0.775047 5.91063 2.57994 4.59737L2.5888 4.59073C2.53122 5.45221 2.51572 6.32033 2.56001 7.17295C2.64638 8.78074 2.98743 10.9045 4.20545 12.0716C4.26968 12.1336 4.35383 12.1669 4.44241 12.1669C4.53543 12.1669 4.62401 12.1292 4.68823 12.0606C4.8189 11.9255 4.81447 11.7084 4.67938 11.5778C3.21774 10.1782 3.11144 6.97142 3.28197 4.53979C3.45028 4.62173 3.57651 4.77011 3.62966 4.95171C3.63852 4.97607 4.42027 7.50735 6.0635 8.35776C8.96019 9.85704 9.02441 11.5955 8.80516 12.499C8.31574 14.5055 5.64051 16.0047 3.57429 16.0047Z" fill="#A0C882"/>
</g>
<defs>
<clipPath id="clip0_1778_85181">
<rect width="40" height="40" fill="white"/>
</clipPath>
</defs>
</svg>
