<svg width="20" height="20" viewBox="0 0 20 20" fill="none" xmlns="http://www.w3.org/2000/svg">
<path d="M18.401 14.805C17.8813 14.3692 14.8334 12.4391 14.3268 12.5277C14.089 12.57 13.9071 12.7727 13.4201 13.3536C13.1949 13.6396 12.9476 13.9074 12.6804 14.1545C12.1909 14.0363 11.7171 13.8607 11.2689 13.6313C9.5108 12.7754 8.09052 11.3547 7.23512 9.59639C7.00575 9.1481 6.83012 8.6743 6.71188 8.18482C6.95907 7.91766 7.22686 7.67034 7.5128 7.44514C8.09312 6.95817 8.29647 6.77741 8.33869 6.53838C8.42728 6.0306 6.49544 2.9839 6.06139 2.46422C5.87944 2.24898 5.71415 2.10449 5.50247 2.10449C4.88885 2.10449 2.11328 5.53649 2.11328 5.98125C2.11328 6.01752 2.17274 9.59044 6.68512 14.1813C11.276 18.6937 14.8489 18.7531 14.8852 18.7531C15.3299 18.7531 18.7619 15.9776 18.7619 15.364C18.7619 15.1523 18.6174 14.987 18.401 14.805ZM14.5998 9.83422H15.789C15.7875 8.57309 15.2859 7.36401 14.3942 6.47225C13.5024 5.58049 12.2933 5.07888 11.0322 5.07747V6.26665C11.9781 6.2676 12.885 6.64377 13.5538 7.31261C14.2227 7.98146 14.5988 8.88833 14.5998 9.83422Z" fill="#19517E"/>
<path d="M17.5718 9.83422H18.761C18.7586 7.7849 17.9435 5.82018 16.4944 4.37109C15.0453 2.92199 13.0806 2.10685 11.0312 2.10449V3.29368C12.7653 3.29573 14.4277 3.98548 15.6539 5.21162C16.88 6.43777 17.5697 8.10019 17.5718 9.83422Z" fill="#19517E"/>
</svg>
