<svg width="19" height="20" viewBox="0 0 19 20" fill="none" xmlns="http://www.w3.org/2000/svg">
<path d="M0.0371094 8.33811V18.1998L6.37674 13.269L0.0371094 8.33811ZM16.5769 5.77255V8.80457L18.4491 7.34836L16.5769 5.77255ZM9.87395 0.130937C9.77344 0.0463703 9.6463 0 9.51494 0C9.38359 0 9.25645 0.0463703 9.15594 0.130937L7.67758 1.37521H11.3523L9.87395 0.130937ZM2.45303 5.77255L0.580765 7.34836L2.45303 8.80457V5.77255ZM7.47613 13.8265L0.785895 19.03H18.244L11.5538 13.8265H7.47613ZM12.6531 13.269L18.9928 18.1998V8.33807L12.6531 13.269ZM9.37441 6.66659C8.92219 6.66659 8.45443 7.10629 8.45443 7.84207C8.45443 8.59011 8.9107 9.09262 9.33687 9.09262C9.78564 9.09262 10.1536 8.56755 10.1801 7.90737L10.1808 7.76721C10.1608 7.11588 9.83485 6.66659 9.37441 6.66659Z" fill="#19517E"/>
<path d="M11.554 12.7114L15.4621 9.67179V3.04775C15.4621 2.73985 15.2125 2.49023 14.9046 2.49023H4.12588C3.81798 2.49023 3.56836 2.73985 3.56836 3.04775V9.67183L7.47642 12.7114H11.554ZM5.58502 8.91687C5.31878 7.9046 5.45266 6.83744 5.96205 5.91199C6.47121 4.98688 7.30095 4.30254 8.29843 3.98502C9.35077 3.64995 10.4681 3.74867 11.4446 4.26296C12.4212 4.77729 13.1347 5.64241 13.4535 6.69899C13.4553 6.70471 13.4569 6.71051 13.4584 6.71631C13.6704 7.51021 13.6076 8.25967 13.255 9.14631C13.0166 9.74561 12.4322 10.386 11.5069 10.386C11.1712 10.386 10.8493 10.2483 10.6005 9.99831C10.5419 9.93912 10.4885 9.87491 10.4411 9.80642C10.1286 10.0606 9.74969 10.2076 9.3372 10.2076C8.79834 10.2076 8.27442 9.94602 7.8998 9.48989C7.5386 9.05012 7.33972 8.46491 7.33972 7.84201C7.33972 7.21633 7.55135 6.63736 7.93567 6.21183C8.31463 5.7922 8.83919 5.5515 9.37474 5.5515C9.6693 5.5515 9.94921 5.62171 10.2007 5.75399C10.2495 5.49556 10.476 5.30032 10.7481 5.30032H10.7509C11.0588 5.30184 11.3072 5.55269 11.3057 5.86059L11.2903 8.95798C11.2898 9.05309 11.3274 9.14795 11.3909 9.21173C11.4129 9.23384 11.4572 9.2709 11.5069 9.2709C11.9568 9.2709 12.1547 8.89554 12.2188 8.73419C12.4793 8.0794 12.5286 7.56385 12.3834 7.01242C12.1502 6.24803 11.6326 5.62216 10.925 5.24951C10.215 4.87553 9.40217 4.80383 8.63666 5.04747C7.12768 5.52782 6.26092 7.10285 6.66341 8.63321C6.99763 9.90406 8.14638 10.8169 9.45696 10.8532C9.76471 10.8617 10.0074 11.1181 9.99883 11.4259C9.99046 11.7285 9.74255 11.968 9.44183 11.968C9.43659 11.968 9.43138 11.968 9.42611 11.9678C8.56214 11.9439 7.70928 11.637 7.02461 11.1036C6.31329 10.5495 5.81553 9.79333 5.58502 8.91687Z" fill="#19517E"/>
</svg>
