<svg width="14" height="14" viewBox="0 0 14 14" fill="none" xmlns="http://www.w3.org/2000/svg">
<g clip-path="url(#clip0_1545_84060)">
<path d="M13.8144 13.8178L13.8178 13.8172V8.81606C13.8178 6.36946 13.2911 4.48481 10.4308 4.48481C9.05583 4.48481 8.1331 5.23935 7.7564 5.95469H7.71662V4.71321H5.00469V13.8172H7.82856V9.30924C7.82856 8.12231 8.05356 6.97458 9.52344 6.97458C10.9717 6.97458 10.9933 8.32912 10.9933 9.38537V13.8178H13.8144ZM0.406397 4.71378H3.23367V13.8178H0.406397V4.71378ZM1.8189 0.181396C0.914919 0.181396 0.181396 0.914919 0.181396 1.8189C0.181396 2.72287 0.914919 3.47174 1.8189 3.47174C2.72287 3.47174 3.4564 2.72287 3.4564 1.8189C3.4561 1.3847 3.28348 0.968367 2.97645 0.661342C2.66943 0.354316 2.2531 0.181697 1.8189 0.181396Z" fill="#19517E"/>
</g>
<defs>
<clipPath id="clip0_1545_84060">
<rect width="13.6364" height="13.6364" fill="white" transform="translate(0.181396 0.181396)"/>
</clipPath>
</defs>
</svg>
