<svg width="693" height="550" viewBox="0 0 693 550" fill="none" xmlns="http://www.w3.org/2000/svg">
<path d="M430.168 334.171H258.999C248.043 334.171 239.153 325.283 239.153 314.332V55.5997C239.153 44.6482 248.043 35.7607 258.999 35.7607H430.168C441.123 35.7607 450.014 44.6482 450.014 55.5997V314.32C450.014 325.283 441.123 334.171 430.168 334.171Z" fill="#A0C1FD"/>
<path d="M438.184 181.104H256.242V175.143C256.242 169.509 260.808 164.932 266.456 164.932H427.969C433.605 164.932 438.184 169.497 438.184 175.143V181.104Z" fill="#4E73B1" fill-opacity="0.54"/>
<path d="M427.338 236.372H267.076C261.088 236.372 256.242 231.516 256.242 225.542V181.105H438.184V225.542C438.184 231.528 433.326 236.372 427.338 236.372Z" fill="white"/>
<path d="M438.014 261.857H256.072V255.895C256.072 250.262 260.639 245.685 266.286 245.685H427.812C433.447 245.685 438.026 250.25 438.026 255.895V261.857H438.014Z" fill="#4E73B1" fill-opacity="0.54"/>
<path d="M427.181 317.124H266.918C260.931 317.124 256.084 312.268 256.084 306.294V261.857H438.027V306.294C438.015 312.268 433.168 317.124 427.181 317.124Z" fill="white"/>
<path d="M428.637 270.441H266.601V273.598H428.637V270.441Z" fill="#4E73B1" fill-opacity="0.54"/>
<path d="M428.637 279.34H266.601V282.497H428.637V279.34Z" fill="#4E73B1" fill-opacity="0.54"/>
<path d="M428.637 288.252H266.601V291.409H428.637V288.252Z" fill="#4E73B1" fill-opacity="0.54"/>
<path d="M428.637 297.152H266.601V300.309H428.637V297.152Z" fill="#4E73B1" fill-opacity="0.54"/>
<path d="M336.113 150.63H265.923C263.385 150.63 261.32 148.578 261.32 146.029V66.5876C261.32 64.0501 263.372 61.9861 265.923 61.9861H336.113C338.651 61.9861 340.716 64.038 340.716 66.5876V146.029C340.716 148.578 338.651 150.63 336.113 150.63Z" fill="white"/>
<path d="M329.322 114.474C327.95 113.502 311.626 107.589 311.626 107.589L301.023 111.73L290.419 107.589C290.419 107.589 274.096 113.49 272.723 114.474C271.351 115.457 275.262 150.643 275.262 150.643H300.683H301.375H326.796C326.784 150.63 330.694 115.445 329.322 114.474Z" fill="#CE6B4C"/>
<path d="M307.996 95.5688L301.352 96.3459L294.709 95.5688C294.709 95.5688 295.134 103.643 293.105 107.759L301.352 111.863L309.599 107.759C307.583 103.655 307.996 95.5688 307.996 95.5688Z" fill="#F28F8F"/>
<path d="M315.806 84.9573C315.49 81.9463 313.292 82.4319 312.575 82.6626V77.1626H301.547H290.518V82.6626C289.802 82.4198 287.603 81.9463 287.288 84.9573C286.948 88.2477 289.377 89.7168 290.518 90.2267V90.3238C290.518 96.6009 295.425 103.716 301.547 103.716C307.425 103.716 312.575 96.6009 312.575 90.3238V90.2267C313.717 89.7168 316.146 88.2477 315.806 84.9573Z" fill="#FFB2AE"/>
<path d="M318.709 74.3097C317.688 74.3583 315.842 73.9576 315.842 73.9576C317.263 73.6055 317.688 71.0437 317.688 71.0437C314.725 71.8571 301.547 67.3163 295.316 68.4454C289.085 69.5624 289.644 72.5856 289.644 72.5856C283.316 74.9896 287.713 83.4643 287.713 83.4643C288.6 81.9952 290.506 82.6751 290.506 82.6751L291.478 87.2402C291.478 87.2402 293.227 84.2535 292.535 81.3517C292.535 81.3517 292.535 81.3517 292.535 81.3395C294.405 79.5426 294.6 77.1751 294.6 77.1751L310.122 77.2236C309.94 78.6563 310.608 80.0768 311.3 81.0967C311.166 81.2788 311.057 81.5581 310.96 81.9466C310.267 84.8362 312.016 87.8352 312.016 87.8352L313.45 82.5051C314.591 82.4565 315.126 83.1 315.126 83.1C317.203 81.2303 316.923 77.1629 316.923 77.1629C318.648 76.5559 318.709 74.3097 318.709 74.3097Z" fill="#686DA4"/>
<path d="M294.417 102.939L301.364 111.863L296.372 116.525L290.409 107.589L294.417 102.939Z" fill="#E9AB72"/>
<path d="M308.311 102.939L301.364 111.863L306.344 116.525L312.319 107.589L308.311 102.939Z" fill="#E9AB72"/>
<path d="M272.713 114.473C272.713 114.473 266.652 118.407 266.652 129.116L265.085 150.642H275.251L272.713 114.473Z" fill="#E9AB72"/>
<path d="M329.033 114.473C329.033 114.473 335.093 118.407 335.093 129.116L336.66 150.642H326.494L329.033 114.473Z" fill="#E9AB72"/>
<path d="M356.577 91.55L358.946 96.3459L364.241 97.1229L360.416 100.85L361.314 106.132L356.577 103.631L351.841 106.132L352.739 100.85L348.914 97.1229L354.209 96.3459L356.577 91.55Z" fill="#F5EC00"/>
<path d="M374.589 91.55L376.958 96.3459L382.265 97.1229L378.427 100.85L379.326 106.132L374.589 103.631L369.852 106.132L370.763 100.85L366.925 97.1229L372.221 96.3459L374.589 91.55Z" fill="#F5EC00"/>
<path d="M392.615 91.55L394.983 96.3459L400.278 97.1229L396.44 100.85L397.351 106.132L392.615 103.631L387.878 106.132L388.777 100.85L384.938 97.1229L390.246 96.3459L392.615 91.55Z" fill="#F5EC00"/>
<path d="M410.624 91.55L412.993 96.3459L418.288 97.1229L414.462 100.85L415.361 106.132L410.624 103.631L405.888 106.132L406.786 100.85L402.96 97.1229L408.256 96.3459L410.624 91.55Z" fill="#F5EC00"/>
<path d="M428.638 91.55L431.006 96.3459L436.314 97.1229L432.476 100.85L433.374 106.132L428.638 103.631L423.901 106.132L424.812 100.85L420.974 97.1229L426.269 96.3459L428.638 91.55Z" fill="#F5EC00"/>
<path d="M430.277 152.342H355.435C352.714 152.342 350.492 150.132 350.492 147.4V114.655C350.492 111.935 352.702 109.713 355.435 109.713H430.277C432.997 109.713 435.22 111.923 435.22 114.655V147.4C435.22 150.132 433.009 152.342 430.277 152.342ZM355.447 112.154C354.063 112.154 352.933 113.283 352.933 114.667V147.412C352.933 148.796 354.063 149.926 355.447 149.926H430.289C431.673 149.926 432.803 148.796 432.803 147.412V114.667C432.803 113.283 431.673 112.154 430.289 112.154H355.447Z" fill="#E6E6E7"/>
<path d="M425.564 121.855H359.82C359.298 121.855 358.873 121.43 358.873 120.908V120.568C358.873 120.046 359.298 119.621 359.82 119.621H425.564C426.087 119.621 426.512 120.046 426.512 120.568V120.908C426.512 121.43 426.087 121.855 425.564 121.855Z" fill="#E6E6E7"/>
<path d="M425.564 128.375H359.82C359.298 128.375 358.873 127.95 358.873 127.428V127.088C358.873 126.566 359.298 126.141 359.82 126.141H425.564C426.087 126.141 426.512 126.566 426.512 127.088V127.428C426.512 127.962 426.087 128.375 425.564 128.375Z" fill="#E6E6E7"/>
<path d="M425.564 134.919H359.82C359.298 134.919 358.873 134.494 358.873 133.972V133.632C358.873 133.11 359.298 132.685 359.82 132.685H425.564C426.087 132.685 426.512 133.11 426.512 133.632V133.972C426.512 134.494 426.087 134.919 425.564 134.919Z" fill="#E6E6E7"/>
<path d="M425.564 141.439H359.82C359.298 141.439 358.873 141.014 358.873 140.492V140.152C358.873 139.63 359.298 139.205 359.82 139.205H425.564C426.087 139.205 426.512 139.63 426.512 140.152V140.492C426.512 141.026 426.087 141.439 425.564 141.439Z" fill="#E6E6E7"/>
<path d="M392.613 87.835C400.381 87.835 406.678 81.5402 406.678 73.7753C406.678 66.0103 400.381 59.7156 392.613 59.7156C384.845 59.7156 378.548 66.0103 378.548 73.7753C378.548 81.5402 384.845 87.835 392.613 87.835Z" fill="white"/>
<path d="M377.868 73.5202L382.556 69.1493L388.544 74.9407L402.305 59.4241L407.346 64.5356L389.479 84.9938L377.868 73.5202Z" fill="#CE8442"/>
<path d="M428.637 189.191H266.601V192.347H428.637V189.191Z" fill="#4E73B1" fill-opacity="0.54"/>
<path d="M428.637 198.091H266.601V201.247H428.637V198.091Z" fill="#4E73B1" fill-opacity="0.54"/>
<path d="M428.637 206.99H266.601V210.147H428.637V206.99Z" fill="#4E73B1" fill-opacity="0.54"/>
<path d="M428.637 215.902H266.601V219.059H428.637V215.902Z" fill="#4E73B1" fill-opacity="0.54"/>
<path d="M239.153 50.913H449.455V38.7716C449.455 30.0663 442.399 23 433.69 23H254.93C246.222 23 239.165 30.0541 239.165 38.7716V50.913H239.153Z" fill="#4C71B3"/>
<path d="M205.085 310.677H92.1542C82.3283 310.677 74.3486 302.713 74.3486 292.878V121.199C74.3486 111.377 82.3162 103.4 92.1542 103.4H205.085C214.911 103.4 222.89 111.365 222.89 121.199V292.878C222.89 302.713 214.923 310.677 205.085 310.677Z" fill="#A0C1FD"/>
<path d="M211.329 206.638H86.0342V202.534C86.0342 198.649 89.1799 195.504 93.0665 195.504H204.297C208.183 195.504 211.329 198.649 211.329 202.534V206.638Z" fill="#8295D1"/>
<path d="M203.859 244.701H93.4916C89.3742 244.701 86.022 241.362 86.022 237.234V206.638H211.317V237.234C211.329 241.362 207.977 244.701 203.859 244.701Z" fill="white"/>
<path d="M211.207 262.245H85.9243V258.141C85.9243 254.256 89.07 251.112 92.9567 251.112H204.187C208.073 251.112 211.219 254.256 211.219 258.141V262.245H211.207Z" fill="#8295D1"/>
<path d="M203.748 300.308H93.3802C89.2628 300.308 85.9106 296.969 85.9106 292.841V262.245H211.205V292.841C211.205 296.969 207.865 300.308 203.748 300.308Z" fill="white"/>
<path d="M143.835 189.191H89.9084C87.953 189.191 86.374 187.613 86.374 185.658V124.623C86.374 122.669 87.953 121.09 89.9084 121.09H143.835C145.791 121.09 147.37 122.669 147.37 124.623V185.658C147.37 187.601 145.791 189.191 143.835 189.191Z" fill="white"/>
<path d="M138.612 161.4C137.556 160.647 125.021 156.118 125.021 156.118L116.872 159.299L108.722 156.118C108.722 156.118 96.1755 160.647 95.1188 161.4C94.0621 162.152 97.0743 189.179 97.0743 189.179H116.605H117.139H136.669C136.657 189.191 139.669 162.152 138.612 161.4Z" fill="#9092C2"/>
<path d="M122.227 146.878L117.126 147.473L112.025 146.878C112.025 146.878 112.353 153.083 110.786 156.239L117.126 159.396L123.466 156.239C121.912 153.095 122.227 146.878 122.227 146.878Z" fill="#C3C6E2"/>
<path d="M128.228 138.732C127.985 136.413 126.297 136.789 125.75 136.972V132.746H117.273H108.795V136.972C108.249 136.789 106.56 136.413 106.317 138.732C106.05 141.257 107.921 142.399 108.795 142.787V142.86C108.795 147.68 112.56 153.156 117.273 153.156C121.791 153.156 125.75 147.692 125.75 142.86V142.787C126.625 142.387 128.495 141.257 128.228 138.732Z" fill="#DEDFF3"/>
<path d="M111.795 152.536L117.139 159.396L113.301 162.978L108.722 156.118L111.795 152.536Z" fill="#ACAAD1"/>
<path d="M122.471 152.536L117.139 159.396L120.965 162.978L125.544 156.118L122.471 152.536Z" fill="#ACAAD1"/>
<path d="M95.1184 161.4C95.1184 161.4 90.4666 164.423 90.4666 172.655L89.2642 189.191H97.0738L95.1184 161.4Z" fill="#ACAAD1"/>
<path d="M138.394 161.4C138.394 161.4 143.046 164.423 143.046 172.655L144.249 189.191H136.439L138.394 161.4Z" fill="#ACAAD1"/>
<path d="M108.529 137.129L109.464 139.824C109.464 139.824 111.347 136.036 110.557 132.843C110.557 132.843 114.334 132.746 117.128 132.843C119.921 132.94 123.942 132.843 123.942 132.843C123.942 132.843 123.322 137.615 125.168 138.999C125.168 138.999 126.808 136.073 126.869 132.843C126.93 129.614 125.278 127.501 122.557 126.627C119.836 125.753 110.727 125.194 108.529 128.982C106.33 132.795 108.529 137.129 108.529 137.129Z" fill="#9092C2"/>
<path d="M155.13 144.972L156.758 148.274L160.413 148.809L157.766 151.37L158.397 155.013L155.13 153.289L151.863 155.013L152.494 151.37L149.847 148.809L153.503 148.274L155.13 144.972Z" fill="#F5EC00"/>
<path d="M167.53 144.972L169.17 148.274L172.814 148.809L170.178 151.37L170.798 155.013L167.53 153.289L164.275 155.013L164.895 151.37L162.259 148.809L165.903 148.274L167.53 144.972Z" fill="#F5EC00"/>
<path d="M205.887 187.212H154.353C152.263 187.212 150.575 185.512 150.575 183.436V160.89C150.575 158.801 152.276 157.114 154.353 157.114H205.887C207.976 157.114 209.664 158.814 209.664 160.89V183.436C209.664 185.512 207.964 187.212 205.887 187.212ZM154.353 159.53C153.612 159.53 153.004 160.137 153.004 160.878V183.424C153.004 184.165 153.612 184.772 154.353 184.772H205.887C206.628 184.772 207.235 184.165 207.235 183.424V160.878C207.235 160.137 206.628 159.53 205.887 159.53H154.353Z" fill="#E6E6E7"/>
<path d="M202.642 165.843H157.363C156.999 165.843 156.708 165.551 156.708 165.187V164.956C156.708 164.592 156.999 164.301 157.363 164.301H202.642C203.007 164.301 203.298 164.592 203.298 164.956V165.187C203.286 165.551 202.995 165.843 202.642 165.843Z" fill="#E6E6E7"/>
<path d="M202.642 170.335H157.363C156.999 170.335 156.708 170.044 156.708 169.68V169.449C156.708 169.085 156.999 168.793 157.363 168.793H202.642C203.007 168.793 203.298 169.085 203.298 169.449V169.68C203.286 170.044 202.995 170.335 202.642 170.335Z" fill="#E6E6E7"/>
<path d="M202.642 174.84H157.363C156.999 174.84 156.708 174.548 156.708 174.184V173.953C156.708 173.589 156.999 173.298 157.363 173.298H202.642C203.007 173.298 203.298 173.589 203.298 173.953V174.184C203.286 174.548 202.995 174.84 202.642 174.84Z" fill="#E6E6E7"/>
<path d="M202.642 179.332H157.363C156.999 179.332 156.708 179.041 156.708 178.676V178.446C156.708 178.081 156.999 177.79 157.363 177.79H202.642C203.007 177.79 203.298 178.081 203.298 178.446V178.676C203.286 179.041 202.995 179.332 202.642 179.332Z" fill="#E6E6E7"/>
<path d="M182.215 140.249C188.406 140.249 193.425 135.232 193.425 129.042C193.425 122.853 188.406 117.836 182.215 117.836C176.023 117.836 171.004 122.853 171.004 129.042C171.004 135.232 176.023 140.249 182.215 140.249Z" fill="white"/>
<path d="M195.101 121.527L188.385 115.493L182.215 122.328L176.045 115.493L169.316 121.527L176.081 129.127L169.316 136.606L176.239 142.726L182.215 136.024L188.178 142.726L195.101 136.606L188.348 129.127L195.101 121.527Z" fill="#4C71B3"/>
<path d="M599.77 310.677H486.84C477.014 310.677 469.034 302.713 469.034 292.878V121.199C469.034 111.377 477.002 103.4 486.84 103.4H599.77C609.596 103.4 617.576 111.365 617.576 121.199V292.878C617.576 302.713 609.596 310.677 599.77 310.677Z" fill="#A0C1FD"/>
<path d="M606.001 206.638H480.707V202.534C480.707 198.649 483.852 195.504 487.739 195.504H598.969C602.856 195.504 606.001 198.649 606.001 202.534V206.638Z" fill="#4D72B2"/>
<path d="M598.544 244.701H488.176C484.059 244.701 480.707 241.362 480.707 237.234V206.638H606.001V237.234C606.001 241.362 602.661 244.701 598.544 244.701Z" fill="white"/>
<path d="M605.89 262.245H480.595V258.141C480.595 254.256 483.741 251.112 487.628 251.112H598.858C602.744 251.112 605.89 254.256 605.89 258.141V262.245Z" fill="#4D72B2"/>
<path d="M598.433 300.308H488.065C483.947 300.308 480.595 296.969 480.595 292.841V262.245H605.89V292.841C605.89 296.969 602.55 300.308 598.433 300.308Z" fill="white"/>
<path d="M538.777 189.191H484.85C482.894 189.191 481.315 187.613 481.315 185.658V124.623C481.315 122.668 482.894 121.09 484.85 121.09H538.777C540.732 121.09 542.311 122.668 542.311 124.623V185.658C542.311 187.6 540.732 189.191 538.777 189.191Z" fill="white"/>
<path d="M522.648 134.616C520.68 128.533 512.895 127.902 511.96 127.841C511.96 127.841 511.923 127.841 511.911 127.841C511.899 127.841 511.863 127.841 511.863 127.841C510.927 127.889 503.13 128.533 501.174 134.616C499.085 141.087 499.814 164.301 499.814 164.301C499.814 164.301 509.251 163.828 509.178 153.022C509.118 144.086 510.684 138.052 511.923 136.23C513.15 138.064 514.595 144.305 514.535 153.241C514.462 164.058 524.032 164.313 524.032 164.313C524.032 164.313 524.737 141.087 522.648 134.616Z" fill="#686DA4"/>
<path d="M531.126 160.416C530.069 159.663 519.709 156.118 519.709 156.118L511.559 159.299L503.409 156.118C503.409 156.118 493.741 159.384 492.685 160.137C491.628 160.889 496.766 189.191 496.766 189.191H511.292H511.826H527.944C527.931 189.191 532.17 161.169 531.126 160.416Z" fill="#ACAAD1"/>
<path d="M514.704 149.44L511.789 148.651L508.813 149.707C508.813 149.707 508.777 153.811 506.007 156.64L511.777 159.518L517.546 156.64C515.117 154.078 514.704 149.44 514.704 149.44Z" fill="#CECED8"/>
<path d="M521.896 140.674C521.677 138.561 520.135 138.901 519.637 139.071V135.222H511.912H504.188V139.071C503.69 138.901 502.147 138.561 501.929 140.674C501.686 142.969 503.398 144.013 504.188 144.365V144.438C504.188 148.833 509.058 153.811 511.912 153.811C515.228 153.811 519.637 148.833 519.637 144.438V144.365C520.439 144.001 522.139 142.969 521.896 140.674Z" fill="#E6E6E7"/>
<path d="M492.843 160.173C492.843 160.173 488.191 163.196 488.191 171.428L486.988 189.191H496.766L492.843 160.173Z" fill="#9092C2"/>
<path d="M530.954 160.173C530.954 160.173 535.606 163.196 535.606 171.428L536.808 189.191H527.93L530.954 160.173Z" fill="#9092C2"/>
<path d="M506.953 153.022L503.407 156.118C503.407 156.118 501.087 162.444 504.901 164.058C508.714 165.673 511.824 159.396 511.824 159.396L506.953 153.022Z" fill="#9092C2"/>
<path d="M516.6 152.779L520.183 156.118C520.183 156.118 522.502 162.444 518.689 164.058C514.875 165.673 511.766 159.396 511.766 159.396L516.6 152.779Z" fill="#9092C2"/>
<path d="M518.323 135.879C518.323 135.879 516.465 137.639 512.117 138.246C507.768 138.853 505.169 138.744 505.169 138.744C505.169 138.744 505.424 143.528 503.493 145.3C501.574 147.073 500.226 139.679 501.914 136.449C503.602 133.207 515.748 131.799 516.052 131.799C516.355 131.799 518.032 132.309 518.032 132.309C518.032 132.309 521.274 133.535 522.185 138.695C523.096 143.843 520.157 146.089 520.157 146.089C520.157 146.089 517.91 141.039 518.323 135.879Z" fill="#686DA4"/>
<path d="M517.848 141.111H513.901C513.233 141.111 512.686 141.657 512.686 142.325V142.507H511.557V142.459C511.557 141.791 511.01 141.245 510.342 141.245H506.395C505.727 141.245 505.18 141.791 505.18 142.459V143.394C505.18 144.061 505.727 144.608 506.395 144.608H510.342C511.01 144.608 511.557 144.061 511.557 143.394V143.175H512.686V143.272C512.686 143.94 513.233 144.486 513.901 144.486H517.848C518.516 144.486 519.063 143.94 519.063 143.272V142.337C519.063 141.657 518.516 141.111 517.848 141.111ZM510.937 143.394C510.937 143.734 510.658 144.001 510.33 144.001H506.383C506.043 144.001 505.775 143.721 505.775 143.394V142.459C505.775 142.119 506.055 141.852 506.383 141.852H510.33C510.67 141.852 510.937 142.131 510.937 142.459V143.394ZM518.455 143.272C518.455 143.612 518.176 143.879 517.848 143.879H513.901C513.561 143.879 513.293 143.6 513.293 143.272V142.337C513.293 141.997 513.573 141.73 513.901 141.73H517.848C518.188 141.73 518.455 142.01 518.455 142.337V143.272Z" fill="#9092C2"/>
<path d="M549.816 144.972L551.443 148.274L555.087 148.809L552.451 151.37L553.071 155.013L549.816 153.289L546.548 155.013L547.168 151.37L544.532 148.809L548.176 148.274L549.816 144.972Z" fill="#F5EC00"/>
<path d="M562.216 144.972L563.844 148.274L567.499 148.809L564.852 151.37L565.483 155.013L562.216 153.289L558.949 155.013L559.58 151.37L556.933 148.809L560.588 148.274L562.216 144.972Z" fill="#F5EC00"/>
<path d="M574.628 144.972L576.256 148.274L579.899 148.809L577.264 151.37L577.883 155.013L574.628 153.289L571.361 155.013L571.98 151.37L569.345 148.809L572.988 148.274L574.628 144.972Z" fill="#F5EC00"/>
<path d="M600.572 187.212H549.038C546.948 187.212 545.26 185.512 545.26 183.436V160.89C545.26 158.801 546.961 157.114 549.038 157.114H600.572C602.649 157.114 604.349 158.814 604.349 160.89V183.436C604.349 185.512 602.649 187.212 600.572 187.212ZM549.025 159.53C548.285 159.53 547.677 160.137 547.677 160.878V183.424C547.677 184.165 548.285 184.772 549.025 184.772H600.56C601.3 184.772 601.908 184.165 601.908 183.424V160.878C601.908 160.137 601.3 159.53 600.56 159.53H549.025Z" fill="#E6E6E7"/>
<path d="M597.316 165.843H552.037C551.673 165.843 551.381 165.551 551.381 165.187V164.956C551.381 164.592 551.673 164.301 552.037 164.301H597.316C597.681 164.301 597.972 164.592 597.972 164.956V165.187C597.972 165.551 597.681 165.843 597.316 165.843Z" fill="#E6E6E7"/>
<path d="M597.316 170.335H552.037C551.673 170.335 551.381 170.044 551.381 169.68V169.449C551.381 169.085 551.673 168.793 552.037 168.793H597.316C597.681 168.793 597.972 169.085 597.972 169.449V169.68C597.972 170.044 597.681 170.335 597.316 170.335Z" fill="#E6E6E7"/>
<path d="M597.316 174.84H552.037C551.673 174.84 551.381 174.548 551.381 174.184V173.953C551.381 173.589 551.673 173.298 552.037 173.298H597.316C597.681 173.298 597.972 173.589 597.972 173.953V174.184C597.972 174.548 597.681 174.84 597.316 174.84Z" fill="#E6E6E7"/>
<path d="M597.316 179.332H552.037C551.673 179.332 551.381 179.041 551.381 178.676V178.446C551.381 178.081 551.673 177.79 552.037 177.79H597.316C597.681 177.79 597.972 178.081 597.972 178.446V178.676C597.972 179.041 597.681 179.332 597.316 179.332Z" fill="#E6E6E7"/>
<path d="M574.798 140.249C580.99 140.249 586.009 135.232 586.009 129.042C586.009 122.853 580.99 117.836 574.798 117.836C568.607 117.836 563.588 122.853 563.588 129.042C563.588 135.232 568.607 140.249 574.798 140.249Z" fill="white"/>
<path d="M587.685 121.527L580.968 115.493L574.798 122.329L568.628 115.493L561.899 121.527L568.665 129.128L561.899 136.607L568.822 142.726L574.798 136.024L580.762 142.726L587.685 136.607L580.932 129.128L587.685 121.527Z" fill="#4C71B3"/>
<path d="M256.257 525.713C256.148 525.713 256.038 525.701 255.929 525.688C254.945 525.506 254.289 524.559 254.459 523.576L274.767 412.118H291.528L314.119 522.787C314.325 523.77 313.682 524.729 312.698 524.936C311.714 525.142 310.755 524.499 310.548 523.515L288.565 415.748H277.816L258.042 524.219C257.897 525.093 257.119 525.713 256.257 525.713Z" fill="#242627"/>
<path d="M300.297 527.838C300.188 527.838 300.078 527.826 299.969 527.813C298.985 527.631 298.329 526.684 298.499 525.701L318.807 414.243H335.495L363.09 524.475C363.333 525.446 362.738 526.441 361.766 526.684C360.783 526.927 359.799 526.332 359.556 525.361L332.653 417.886H321.843L302.07 526.356C301.925 527.231 301.159 527.838 300.297 527.838Z" fill="#242627"/>
<path d="M284.214 524.147C279.453 524.353 272.469 524.851 269.129 524.754C265.789 524.656 262.959 524.656 262.753 523.236C262.631 522.374 263.615 518.355 264.405 515.308C264.939 513.292 265.389 511.702 265.389 511.702L271.559 513.826C271.559 513.826 273.368 515.502 276.818 517.165C277.097 517.299 277.413 517.457 277.753 517.639C281.603 519.63 288.575 523.952 284.214 524.147Z" fill="#EF8A5E"/>
<path d="M272.155 459.906C272.155 459.906 265.499 468.612 265.9 482.162C266.301 495.723 264.272 515.344 264.272 515.344H272.155C272.155 515.344 283.475 460.829 283.791 458.279C284.106 455.73 272.155 459.906 272.155 459.906Z" fill="#EF8A5E"/>
<path d="M289.17 440.067C289.17 440.067 293.664 440.419 296.434 448.141C299.203 455.863 281.276 516.218 281.276 516.218L275.094 510.39C275.094 510.39 273.976 486.909 278.227 473.262C282.478 459.615 282.782 459.809 282.782 459.809L289.17 440.067Z" fill="#FFA16F"/>
<path d="M295.389 525.458C294.636 526.781 290.847 527.485 285.843 525.458C280.851 523.442 271.705 521.718 272.167 519.897C272.507 518.549 274.268 512.272 275.155 509.127C275.458 508.023 275.665 507.306 275.665 507.306C275.665 507.306 279.15 504.271 281.276 510.633C282.248 513.547 285.442 516.631 288.539 519.217C292.231 522.313 295.802 524.741 295.389 525.458Z" fill="#FFA16F"/>
<path d="M320.3 409.921H279.612V412.992H320.3V409.921Z" fill="#456295"/>
<path d="M329.458 409.921H319.486V412.992H329.458V409.921Z" fill="#405882"/>
<path d="M242.714 412.142C242.714 412.142 263.872 414.546 278.24 412.992L277.973 407.905L243.152 399.649L242.714 412.142Z" fill="#EF8A5E"/>
<path d="M190.148 527.291C189.954 527.291 189.759 527.267 189.577 527.194C188.618 526.878 188.108 525.846 188.423 524.887L208.84 463.597H225.213L245.836 524.887C246.152 525.846 245.642 526.878 244.694 527.194C243.735 527.51 242.702 527 242.387 526.053L222.601 467.24H211.476L191.885 526.04C191.618 526.805 190.913 527.291 190.148 527.291Z" fill="#242627"/>
<path d="M347.677 412.992H251.192V418.432H347.677V412.992Z" fill="#455A64"/>
<path d="M234.674 338.602C234.674 338.602 235.16 335.372 237.346 334.535C239.533 333.697 239.751 334.535 239.751 334.535C239.751 334.535 240.383 335.591 240.383 339.464C240.383 343.337 240.735 347.21 240.383 351.921C240.031 356.632 238.986 359.594 237.614 359.947C236.229 360.299 234.687 359.947 234.687 359.947L232.573 365.653L227.921 364.172L234.674 338.602Z" fill="#FFA16F"/>
<path d="M249.893 365.192C249.893 365.192 254.399 377.54 256.16 390.3C257.909 403.061 262.427 412.082 265.05 412.932C267.686 413.782 271.475 406.728 266.411 392.571C263.799 385.298 256.949 363.055 256.949 363.055L249.893 365.192Z" fill="#FFA16F"/>
<path d="M206.69 382.093C208.014 390.968 214.014 416.088 215.228 421.552V433.693H246.504L244.524 413.357L243.601 372.841L233.593 369.186L219.467 364.633C219.492 364.645 204.613 368.13 206.69 382.093Z" fill="#3A3A3D"/>
<path d="M217.28 361.222C217.28 361.222 229.656 363.808 231.928 365.326C234.199 366.843 234.211 369.806 234.211 369.806L215.385 365.933L217.28 361.222Z" fill="#2E2E30"/>
<path d="M235.936 377.394C235.936 377.394 232.814 383.525 236.579 390.288C240.345 397.051 251.725 411.147 259.511 413.66C265.79 415.688 268.523 411.171 268.523 411.171C268.11 406.375 262.547 405.975 244.001 373.29C242.276 370.255 236.944 374.055 235.936 377.394Z" fill="#3A3A3D"/>
<path d="M215.24 430.949C215.24 430.949 209.009 447.352 218.434 459.797C227.859 472.242 282.806 459.797 282.806 459.797L289.183 440.068L246.26 430.949H215.24Z" fill="#CE6B4C"/>
<path d="M228.564 327.056C228.564 327.056 221.714 324.616 216.175 329.302C210.637 333.989 213.455 345.729 208.572 352.019C203.69 358.308 208.961 362.557 208.961 362.557C208.961 362.557 209.325 369.296 217.208 369.806C225.09 370.316 230.264 365.35 231.479 359.813C231.479 359.813 234.102 359.061 234.017 353.148C233.92 347.235 233.872 339.258 235.523 337C236.434 335.749 239.981 335.166 239.981 335.166C239.981 335.166 238.985 325.271 228.564 327.056Z" fill="#262626"/>
<path d="M251.969 358.004C249.965 356.329 249.066 355.442 248.35 355.054C247.621 354.665 246.285 353.767 245.289 353.998C244.548 354.155 244.293 353.597 243.698 353.342C243.698 353.342 242.945 352.492 241.56 352.941C241.56 352.941 239.253 355.175 238.925 356.948C238.597 358.721 240.953 356.814 241.755 355.515C241.779 355.54 241.803 355.576 241.815 355.6C241.244 356.329 240.661 357.239 240.516 358.053C240.236 359.607 242.095 358.186 242.981 356.997C243.904 358.089 244.864 359.303 244.657 359.789C244.305 360.627 243.394 361.185 241.439 360.566C239.483 359.947 237.868 360.457 239.763 361.489C241.657 362.521 243.722 363.856 246.006 364.245C248.289 364.633 250.39 365.653 250.39 365.653C250.39 365.653 257.18 363.626 256.937 363.055C256.694 362.472 253.973 359.68 251.969 358.004Z" fill="#FFA16F"/>
<path d="M235.694 467.155H205.014L195.382 420.812C195.176 419.828 195.807 418.869 196.791 418.663C197.775 418.456 198.747 419.088 198.941 420.071L207.965 463.513H231.115L221.435 420.848C221.216 419.865 221.824 418.894 222.807 418.675C223.779 418.456 224.763 419.064 224.981 420.047L235.694 467.155Z" fill="#242627"/>
<path d="M185.63 418.517C191.095 427.319 204.613 419.33 209.921 420.435C215.241 421.552 228.176 426.105 232.415 418.82C236.654 411.535 227.107 396.577 211.136 394.234C187.755 390.798 180.164 409.714 185.63 418.517Z" fill="#455A64"/>
<path d="M296.763 379.968L289.779 409.921H329.459L334.912 381.595L332.689 379.968H296.763Z" fill="#4D72B2"/>
<path d="M298.378 381.947L292.584 408.136H325.487L330.017 381.947H298.378Z" fill="#E1E2FF"/>
<path d="M277.122 408.245C277.122 408.245 285.721 404.748 287.7 404.251C289.68 403.753 291.393 404.651 292.814 405.513C294.235 406.375 294.891 407.334 295.947 408.039C297.004 408.743 296.154 409.459 294.83 409.204C293.518 408.949 292.704 407.941 292.704 407.941L290.579 406.679C290.579 406.679 288.551 407.941 287.798 408.646C287.045 409.35 288.502 409.301 290.785 410.115C293.069 410.928 294.077 410.212 294.733 411.232C295.389 412.24 294.028 412.494 290.883 412.494C287.749 412.494 287.749 412.494 287.749 412.494C287.749 412.494 283.547 413.684 278.239 412.992L277.122 408.245Z" fill="#EF8A5E"/>
<path d="M326.725 409.921L332.689 379.968L334.911 381.595L329.458 409.921H326.725Z" fill="#456295"/>
<path d="M272.458 471.04H205.681C203.495 471.04 201.722 469.268 201.722 467.082V466.694C201.722 464.508 203.495 462.736 205.681 462.736H272.458C274.644 462.736 276.418 464.508 276.418 466.694V467.082C276.418 469.268 274.644 471.04 272.458 471.04Z" fill="#333F45"/>
<path d="M295.389 525.458C294.636 526.781 290.847 527.485 285.843 525.458C280.851 523.442 271.705 521.718 272.167 519.897C272.507 518.549 274.268 512.272 275.155 509.127C275.665 509.249 276.357 509.637 277.171 510.633C278.993 512.843 280.207 516.801 283.474 518.233C285.612 519.168 287.495 519.266 288.539 519.217C292.231 522.313 295.802 524.741 295.389 525.458Z" fill="#333333"/>
<path d="M284.214 524.146C279.453 524.353 272.469 524.851 269.129 524.754C265.789 524.656 262.959 524.656 262.753 523.236C262.631 522.374 263.615 518.355 264.405 515.308C264.951 515.198 267.162 514.907 270.137 516.655C272.421 517.991 275.846 517.966 277.753 517.639C281.603 519.63 288.575 523.952 284.214 524.146Z" fill="#232424"/>
<path d="M190.075 319.868H156.88C152.35 319.868 148.682 323.535 148.682 328.064V341.699C148.682 346.227 152.35 349.894 156.88 349.894H180.297L190.597 361.853V349.87C194.884 349.603 198.285 346.057 198.285 341.699V328.064C198.285 323.547 194.605 319.868 190.075 319.868Z" fill="#CE8442"/>
<path d="M161.498 337.17C163.302 337.17 164.765 335.707 164.765 333.903C164.765 332.1 163.302 330.637 161.498 330.637C159.693 330.637 158.23 332.1 158.23 333.903C158.23 335.707 159.693 337.17 161.498 337.17Z" fill="white"/>
<path d="M174.626 337.17C176.43 337.17 177.893 335.707 177.893 333.903C177.893 332.1 176.43 330.637 174.626 330.637C172.822 330.637 171.359 332.1 171.359 333.903C171.359 335.707 172.822 337.17 174.626 337.17Z" fill="white"/>
<path d="M186.007 337.17C187.811 337.17 189.274 335.707 189.274 333.903C189.274 332.1 187.811 330.637 186.007 330.637C184.203 330.637 182.74 332.1 182.74 333.903C182.74 335.707 184.203 337.17 186.007 337.17Z" fill="white"/>
<path d="M414.428 329.132C414.428 329.132 414.125 325.636 418.837 322.904C423.55 320.172 425.821 319.565 432.805 318.193C439.788 316.821 449.505 318.035 449.505 318.035L461.954 325.623C461.954 325.623 461.493 345.511 458.153 358.563C454.813 371.615 458.371 390.021 458.371 390.021L418.072 393.615L414.428 329.132Z" fill="#CE6B4C"/>
<path d="M433.91 504.623C433.91 504.623 433.704 517.371 433.91 521.621C434.117 525.87 435.526 526.477 425.615 526.477C415.692 526.477 407.797 527.692 404.566 525.263C401.336 522.835 417.319 517.578 420.562 513.935C423.805 510.293 422.384 506.857 422.384 506.857L433.91 504.623Z" fill="#232733"/>
<path d="M454.147 506.845C454.147 506.845 454.96 513.62 454.147 515.696C453.333 517.772 448.681 519.642 446.458 520.649C444.236 521.657 442.608 523.236 443.823 524.45C445.037 525.664 465.794 526.064 467.155 525.263C468.515 524.45 464.264 506.845 464.264 506.845H454.147Z" fill="#232733"/>
<path d="M461.944 325.635C461.944 325.635 473.482 356.899 475 369.648C476.518 382.396 457.389 398.593 457.389 398.593L451.45 383.622L460.425 369.66L454.656 356.304L461.944 325.635Z" fill="#CE6B4C"/>
<path d="M433.316 281.672C433.316 281.672 439.924 281.489 444.393 284.173C448.863 286.856 449.834 290.328 449.834 290.328C449.834 290.328 451.171 291.931 451.438 295.331C451.705 298.718 444.478 309.439 444.478 309.439C444.478 309.439 436.134 309.56 432.988 307.666C429.843 305.772 425.203 291.555 425.203 291.555C425.203 291.555 422.616 289.624 421.984 286.771L424.511 286.322C424.511 286.322 421.098 284.719 421.984 282.121L433.316 281.672Z" fill="#26345B"/>
<path d="M444.478 309.427C444.478 309.427 436.401 308.929 432.988 307.654C432.988 307.654 435.114 306.209 435.636 303.708C436.17 301.207 434.749 297.018 432.867 297.103C430.996 297.188 430.851 299.604 430.851 299.604L429.673 295.136C429.673 295.136 429.235 292.283 427.316 291.542C425.385 290.802 425.203 291.542 425.203 291.542C425.203 291.542 424.644 292.477 424.644 295.889C424.644 299.301 424.328 302.724 424.644 306.877C424.96 311.029 425.871 313.64 427.086 313.955C428.3 314.271 430.972 314.465 430.972 314.465L431.531 318.982L435.636 317.683C435.636 317.683 441.891 317.27 444.563 317.27L444.478 309.427Z" fill="#FFA16F"/>
<path d="M417.442 324.725C417.442 324.725 422.301 332.167 418.815 343.095C417.017 348.728 409.645 354.92 402.928 359.607C396.321 364.208 387.333 363.237 381.868 357.324L365.216 339.306L372.357 331.718L390.88 345.911C390.88 345.899 415.171 323.814 417.442 324.725Z" fill="#CE6B4C"/>
<path d="M418.074 391.806V398.58C418.074 398.58 419.447 456.458 419.75 465.868C420.054 475.277 419.119 513.073 419.119 513.073H434.301C434.301 513.073 439.791 481.955 438.187 471.331C437.264 465.164 436.73 462.917 436.73 456.847C436.73 450.776 440.872 415.093 440.872 415.093C440.872 415.093 448.584 463.44 448.584 470.117C448.584 476.795 452.896 515.696 452.896 515.696H467.167C467.167 515.696 467.714 472.242 464.981 463.136C462.248 454.03 460.669 398.447 458.082 388.722L418.074 391.806Z" fill="#25335A"/>
<path d="M371.629 332.483C371.629 332.483 366.272 325.866 365.216 324.19C364.159 322.515 358.171 317.282 356.653 317.136C355.135 316.991 357.94 321.386 359.762 322.758C359.762 322.758 356.872 323.826 357.26 325.72C357.26 325.72 354.904 326.485 355.281 328.379C355.281 328.379 353.835 330.383 354.6 332.495C355.366 334.608 356.884 335.737 357.637 335.895C358.39 336.053 359.228 335.895 359.228 335.895C359.228 335.895 361.001 337.643 362.993 337.716L365.204 339.306L371.629 332.483Z" fill="#FFA16F"/>
<path d="M428.604 318.156C428.604 318.156 432.527 315.485 438.782 314.538C445.037 313.591 447.357 314.538 447.357 314.538L448.292 318.156C448.292 318.156 422.847 322.576 428.604 318.156Z" fill="#CE6B4C"/>
<path d="M468.004 268.376H501.199C505.729 268.376 509.397 272.043 509.397 276.572V290.207C509.397 294.735 505.729 298.402 501.199 298.402H477.794L467.494 310.361V298.378C463.207 298.111 459.806 294.565 459.806 290.207V276.572C459.806 272.043 463.474 268.376 468.004 268.376Z" fill="#CE8442"/>
<path d="M472.34 285.763C474.145 285.763 475.608 284.301 475.608 282.497C475.608 280.693 474.145 279.231 472.34 279.231C470.536 279.231 469.073 280.693 469.073 282.497C469.073 284.301 470.536 285.763 472.34 285.763Z" fill="white"/>
<path d="M485.469 285.763C487.274 285.763 488.737 284.301 488.737 282.497C488.737 280.693 487.274 279.231 485.469 279.231C483.665 279.231 482.202 280.693 482.202 282.497C482.202 284.301 483.665 285.763 485.469 285.763Z" fill="white"/>
<path d="M496.863 285.763C498.668 285.763 500.131 284.301 500.131 282.497C500.131 280.693 498.668 279.231 496.863 279.231C495.059 279.231 493.596 280.693 493.596 282.497C493.596 284.301 495.059 285.763 496.863 285.763Z" fill="white"/>
<path d="M623.418 530.642H69.6963C68.1538 530.642 66.9028 529.392 66.9028 527.85C66.9028 526.308 68.1538 525.057 69.6963 525.057H623.418C624.96 525.057 626.211 526.308 626.211 527.85C626.211 529.392 624.96 530.642 623.418 530.642Z" fill="#587EAA" fill-opacity="0.2"/>
<path d="M553.313 514.651H535.458V465.03H531.584V514.651H512.977C511.908 514.651 510.888 515.113 510.183 515.914L505.094 521.657C504.11 522.762 504.426 524.498 505.738 525.202C506.685 525.7 507.851 525.482 508.544 524.68L514.034 518.306H531.584V523.357C531.584 524.425 532.446 525.287 533.527 525.287C534.596 525.287 535.458 524.425 535.458 523.357V518.306H550.58L556.033 524.644C556.75 525.469 557.94 525.676 558.888 525.142C560.163 524.425 560.442 522.725 559.483 521.633L553.313 514.651Z" fill="#242627"/>
<path d="M521.295 375.536L517.919 465.03H567.109L574.724 377.503C575.526 368.251 568.239 360.311 558.959 360.311H537.121C528.607 360.311 521.623 367.037 521.295 375.536Z" fill="#455A64"/>
<path d="M563.029 468.515H488.6C486.354 468.515 484.52 466.948 484.52 465.018C484.52 463.087 486.341 461.521 488.6 461.521H563.041C565.288 461.521 567.122 463.087 567.122 465.018C567.11 466.961 565.288 468.515 563.029 468.515Z" fill="#333F45"/>
<path d="M490.398 461.812H487.009L490.216 439.132C490.41 437.784 491.552 436.789 492.912 436.789H518.916V440.431H493.677L490.398 461.812Z" fill="#242627"/>
<path d="M540.841 461.533H537.197L540.598 439.071C540.792 437.76 541.922 436.789 543.258 436.789H569.323V440.431H544.084L540.841 461.533Z" fill="#242627"/>
<path d="M580.056 525.045C580.056 525.045 547.87 496.221 555.765 489.543C563.66 482.866 582.789 517.772 582.789 517.772C582.789 517.772 567.692 481.348 574.785 473.76C581.878 466.171 588.255 498.042 588.255 498.042C588.255 498.042 588.862 452.512 599.793 450.691C610.724 448.87 599.793 501.685 599.793 501.685C599.793 501.685 609.206 488.633 616.797 491.365C624.388 494.096 604.348 514.433 604.348 514.433C604.348 514.433 614.975 504.113 620.744 506.845C626.514 509.577 607.688 525.458 607.688 525.458L580.056 525.045Z" fill="#91BB82"/>
<path d="M174.623 418.432H85.9229V525.045H174.623V418.432Z" fill="#1F3419"/>
<path d="M163.156 427.125H94.5332V454.649H163.156V427.125Z" fill="#465A40"/>
<path d="M163.156 463.597H94.5332V519.994H163.156V463.597Z" fill="#465A40"/>
<path d="M128.542 444.317C130.555 444.317 132.186 442.686 132.186 440.675C132.186 438.663 130.555 437.032 128.542 437.032C126.53 437.032 124.898 438.663 124.898 440.675C124.898 442.686 126.53 444.317 128.542 444.317Z" fill="#31432B"/>
<path d="M131.274 461.315H127.327V522.629H131.274V461.315Z" fill="#31432B"/>
<path d="M107.384 380.988H96.4531V418.444H107.384V380.988Z" fill="#9ED3FD"/>
<path d="M101.749 391.356C103.218 391.356 104.409 390.166 104.409 388.697C104.409 387.229 103.218 386.038 101.749 386.038C100.28 386.038 99.0889 387.229 99.0889 388.697C99.0889 390.166 100.28 391.356 101.749 391.356Z" fill="#7FB9E7"/>
<path d="M107.384 393.178H96.4531V398.945H107.384V393.178Z" fill="#7FB9E7"/>
<path d="M129.247 380.988H118.316V418.444H129.247V380.988Z" fill="#9ED3FD"/>
<path d="M123.611 391.356C125.08 391.356 126.271 390.166 126.271 388.697C126.271 387.229 125.08 386.038 123.611 386.038C122.142 386.038 120.951 387.229 120.951 388.697C120.951 390.166 122.142 391.356 123.611 391.356Z" fill="#7FB9E7"/>
<path d="M129.247 393.178H118.316V398.945H129.247V393.178Z" fill="#7FB9E7"/>
<path d="M118.315 380.988H107.384V418.444H118.315V380.988Z" fill="#054A80"/>
<path d="M139.473 380.988H128.542V418.444H139.473V380.988Z" fill="#054A80"/>
</svg>
