<svg width="391" height="285" viewBox="0 0 391 285" fill="none" xmlns="http://www.w3.org/2000/svg">
<path d="M348.889 189.665C298.98 148.278 230.924 128.679 182.619 119.525C155.234 114.336 131.153 111.88 115.773 110.733C99.1045 109.491 88.782 109.476 88.6792 109.476V106.659C88.782 106.659 99.1767 106.673 115.929 107.921C131.379 109.072 155.572 111.537 183.087 116.748C214.026 122.607 242.777 130.673 268.542 140.722C300.787 153.298 328.425 169.036 350.686 187.497L348.889 189.665Z" fill="#F2F2F2"/>
<path d="M377.584 237.248C384.543 214.91 308.479 171.35 207.692 139.953C106.904 108.557 19.5581 101.213 12.5995 123.551C5.641 145.889 81.7047 189.45 182.492 220.846C283.28 252.243 370.626 259.586 377.584 237.248Z" fill="#BCB7FA"/>
<path d="M351.146 238.185C357.005 219.376 298.666 184.476 220.843 160.233C143.02 135.99 75.1821 131.585 69.3229 150.394C63.4637 169.203 121.802 204.103 199.625 228.346C277.448 252.589 345.286 256.994 351.146 238.185Z" fill="white"/>
<path d="M169.37 284.468C251.826 284.468 318.67 274.641 318.67 262.519C318.67 250.397 251.826 240.571 169.37 240.571C86.9141 240.571 20.0703 250.397 20.0703 262.519C20.0703 274.641 86.9141 284.468 169.37 284.468Z" fill="#A0C882" fill-opacity="0.3"/>
<path d="M136.331 176.104V253.049H281.951L281.096 176.104H136.331Z" fill="#51C1B2"/>
<path d="M281.096 176.104L208.237 122.531L136.331 176.104H281.096Z" fill="#51C1B2"/>
<path d="M136.331 176.104L209.141 227.999L280.153 176.104H136.331Z" fill="#409F93"/>
<path d="M267.089 131.639H149.874V216.495H267.089V131.639Z" fill="#C5E8CD"/>
<path d="M258.729 147.696C259.597 144.019 257.32 140.334 253.643 139.465C249.965 138.597 246.28 140.874 245.412 144.551C244.544 148.229 246.821 151.914 250.498 152.782C254.175 153.65 257.86 151.373 258.729 147.696Z" fill="#7798F5"/>
<path d="M252.067 155.479C246.896 155.479 242.689 151.272 242.689 146.101C242.689 140.93 246.896 136.723 252.067 136.723C257.238 136.723 261.446 140.93 261.446 146.101C261.447 151.272 257.239 155.479 252.067 155.479ZM252.067 137.661C247.413 137.661 243.628 141.447 243.628 146.1C243.628 150.754 247.414 154.539 252.067 154.539C256.72 154.539 260.506 150.753 260.506 146.1C260.507 141.447 256.721 137.661 252.067 137.661Z" fill="#302226"/>
<path d="M225.222 139.174H167.373V146.101H225.222V139.174Z" fill="#7798F5"/>
<path d="M222.345 158.59H157.544V161.842H222.345V158.59Z" fill="#7798F5"/>
<path d="M222.529 165.301H157.729V168.553H222.529V165.301Z" fill="#7798F5"/>
<path d="M222.345 179.952H157.544V183.204H222.345V179.952Z" fill="#7798F5"/>
<path d="M229.854 186.955H157.729V190.207H229.854V186.955Z" fill="#7798F5"/>
<path d="M243.359 194.135H157.729V197.387H243.359V194.135Z" fill="#7798F5"/>
<path d="M243.359 208.318H157.729V211.57H243.359V208.318Z" fill="#7798F5"/>
<path d="M280.153 176.104L262.774 182.616L227.244 214.576H190.307L154.548 183.775L136.331 176.104V217.453L281.096 216.488L280.153 176.104Z" fill="#51C1B2"/>
<path d="M136.331 253.049L208.386 201.314L281.951 253.049H136.331Z" fill="#51C1B2"/>
<path d="M136.331 253.049L190.129 214.423L136.331 244.779V253.049Z" fill="#409F93"/>
<path d="M281.951 253.049L227.244 214.577L281.858 244.727L281.951 253.049Z" fill="#409F93"/>
<path d="M136.8 181.578H135.861V253.049H136.8V181.578Z" fill="#409F93"/>
<path d="M232.732 145.632H164.177V146.571H232.732V145.632Z" fill="#302226"/>
<path d="M172.645 161.371H155.474V162.31H172.645V161.371Z" fill="#302226"/>
<path d="M172.646 168.084H155.474V169.023H172.646V168.084Z" fill="#302226"/>
<path d="M208.241 182.735H196.296V183.674H208.241V182.735Z" fill="#302226"/>
<path d="M232.732 189.738H177.12V190.677H232.732V189.738Z" fill="#302226"/>
<path d="M245.226 196.918H224.582V197.857H245.226V196.918Z" fill="#302226"/>
<path d="M218.075 208.701L208.389 201.89L199.231 208.466L198.682 207.703L208.383 200.739L218.615 207.934L218.075 208.701Z" fill="#302226"/>
<path d="M123.709 244.232C123.609 244.206 113.59 241.629 103.382 236.183C97.3716 232.977 92.4673 229.416 88.8043 225.599C84.195 220.796 81.5465 215.571 80.9319 210.068C79.889 200.718 84.7017 190.509 95.2379 179.722C107.678 166.986 128.325 153.227 156.605 138.83L157.043 139.69C128.856 154.039 108.293 167.736 95.9278 180.396C85.6043 190.966 80.881 200.913 81.8904 209.961C83.2304 221.969 94.5633 230.387 103.835 235.333C113.941 240.724 123.846 243.272 123.945 243.297L123.709 244.232Z" fill="#2E1EDD"/>
<path d="M165.977 134.198L165.573 133.393C165.845 133.256 192.942 119.666 198.959 117.133L199.309 117.963C193.319 120.485 166.249 134.062 165.977 134.198Z" fill="#2E1EDD"/>
<path d="M208.96 114.304C208.961 114.303 208.993 114.28 209.024 114.232L208.276 113.729C208.423 113.511 208.623 113.214 223.161 107.409C230.285 104.566 237.449 101.763 237.52 101.735L237.848 102.574C226.715 106.928 209.834 113.646 208.96 114.304Z" fill="#2E1EDD"/>
<path d="M250.419 96.3276L264.253 117.548L309.72 99.7342L250.419 96.3276Z" fill="#19517E"/>
<path d="M246.49 90.5923L238.186 77.5103L309.72 99.7345L246.49 90.5923Z" fill="#19517E"/>
<path d="M250.419 96.3276L240.627 110.635L258.261 108.357L250.419 96.3276Z" fill="#082D4A"/>
<path d="M246.49 90.592L309.72 99.7343L250.419 96.3277L240.627 110.635L246.49 90.592Z" fill="#4B7A9F"/>
<path d="M291.519 228.606C304.156 228.606 314.401 218.361 314.401 205.723C314.401 193.085 304.156 182.841 291.519 182.841C278.881 182.841 268.636 193.085 268.636 205.723C268.636 218.361 278.881 228.606 291.519 228.606Z" fill="#E8CDC5"/>
<path d="M298.955 220.513C296.324 221.9 293.647 222.426 290.443 222.426C282.601 222.426 275.955 216.688 275.955 207.507C275.955 197.657 282.793 189.145 293.408 189.145C301.728 189.145 307.323 194.979 307.323 202.964C307.323 210.136 303.307 214.345 298.811 214.345C296.898 214.345 295.129 213.053 295.272 210.137H295.081C293.407 212.959 291.207 214.345 288.339 214.345C285.565 214.345 283.175 212.097 283.175 208.32C283.175 202.391 287.861 196.987 294.508 196.987C296.565 196.987 298.382 197.418 299.624 197.991L297.998 206.646C297.281 210.28 297.855 211.954 299.433 212.001C301.872 212.049 304.597 208.797 304.597 203.251C304.597 196.318 300.437 191.345 293.025 191.345C285.231 191.345 278.68 197.513 278.68 207.22C278.68 215.205 283.892 220.13 290.968 220.13C293.694 220.13 296.228 219.556 298.188 218.456L298.955 220.513ZM296.324 199.856C295.846 199.713 295.033 199.522 293.933 199.522C289.725 199.522 286.331 203.49 286.331 208.129C286.331 210.233 287.383 211.763 289.487 211.763C292.261 211.763 294.794 208.224 295.32 205.26L296.324 199.856Z" fill="url(#paint0_linear_1040_35682)"/>
<path d="M314.87 205.723H313.931C313.931 193.365 303.877 183.311 291.519 183.311V182.372C297.756 182.372 303.62 184.8 308.031 189.211C312.441 193.622 314.87 199.486 314.87 205.723Z" fill="#302226"/>
<path d="M286.596 228.598C280.494 227.307 275.259 223.716 271.858 218.488C268.456 213.26 267.293 207.02 268.584 200.918L269.503 201.112C268.264 206.969 269.379 212.958 272.644 217.976C275.909 222.994 280.933 226.44 286.79 227.679L286.596 228.598Z" fill="#302226"/>
<path d="M299.038 103.42L262.411 118.25L262.764 119.12L299.391 104.29L299.038 103.42Z" fill="#302226"/>
<path d="M252.5 152.261L244.489 145.666L245.085 144.941L252.216 150.811L260.195 136.032L261.021 136.478L252.5 152.261Z" fill="#302226"/>
<path d="M150.867 122.68C150.622 121.942 150.705 109.533 150.737 105.747L151.676 105.755C151.624 112.054 151.604 121.686 151.763 122.402C151.761 122.395 151.759 122.389 151.758 122.384L150.867 122.68Z" fill="#302226"/>
<path d="M140.345 122.741C139.84 121.732 130.393 111.708 124.166 105.218L124.843 104.568C126.439 106.231 140.455 120.86 141.185 122.321L140.345 122.741Z" fill="#302226"/>
<path d="M140.753 131.17L123.494 132.129L123.546 133.067L140.805 132.108L140.753 131.17Z" fill="#302226"/>
<path d="M116.432 147.528C115.09 144.476 114.56 145.598 111.674 143.298C108.786 140.996 115.396 130.968 115.327 130.502L115.295 130.415L105.976 130.57C105.976 130.57 105.534 136.52 103.766 141.916C101.996 147.312 103.08 150.26 103.235 151.923C103.389 153.586 105.1 161.291 105.476 162.407C105.853 163.523 107.06 163.949 107.495 162.836C107.929 161.722 105.529 156.743 106.223 156.42C106.917 156.098 107.566 161.46 109.267 163.672C110.969 165.883 111.587 163.846 111.653 164.166C111.72 164.485 112.87 165.643 113.965 164.317C115.06 162.991 110.981 155.866 111.113 154.592C111.245 153.318 113.677 158.727 114.528 160.139C115.378 161.552 116.991 163.722 117.941 162.399C118.89 161.076 116.7 157.985 114.238 153.175C111.775 148.366 112.103 147.365 113.428 148.951C114.753 150.537 117.103 153.227 118.183 152.545C119.262 151.862 117.773 150.581 116.432 147.528Z" fill="#FDC0AF"/>
<path d="M117.833 152.849C117.231 152.849 116.488 152.451 115.616 151.661C114.604 150.745 114.002 149.995 113.561 149.447C112.85 148.563 112.657 148.361 111.993 148.536C109.624 149.16 107.925 148.729 107.208 147.32L106.321 145.577L106.739 145.364L107.626 147.107C108.403 148.633 110.364 148.48 111.873 148.082C112.856 147.822 113.237 148.295 113.926 149.153C114.357 149.688 114.946 150.421 115.931 151.313C117.068 152.343 117.704 152.447 118.037 152.352C118.38 152.255 118.488 151.911 118.489 151.907L118.94 152.037C118.932 152.061 118.761 152.634 118.165 152.804C118.06 152.833 117.95 152.849 117.833 152.849Z" fill="#493838"/>
<path d="M111.431 164.244L108.426 155.826C108.417 155.801 108.404 155.767 108.396 155.73C108.371 155.624 108.371 155.489 108.534 155.431L108.834 155.574L108.735 155.609L108.834 155.575C108.853 155.63 111.842 164.003 111.873 164.087L111.431 164.244Z" fill="#493838"/>
<path d="M68.1052 47.7637L67.4255 61.8469C67.4255 61.8469 83.4868 75.0256 83.5875 65.3675C83.5957 64.585 85.4302 45.6392 85.4302 45.6392L68.1052 47.7637Z" fill="#FDC0AF"/>
<path d="M102.807 256.926L102.374 263.23L116.891 261.666L113.849 252.799L102.807 256.926Z" fill="#E5AEAE"/>
<path d="M136.733 274.197C136.733 274.197 138.357 269.682 134.68 268.695C131.003 267.708 117.26 260.787 117.26 260.787C117.26 260.787 108.727 264.134 102.552 258.623C102.552 258.623 100.037 259.293 100.207 264.712L99.7334 264.643L99.2419 267.985L107.237 269.112L108.547 266.93L110.296 269.6L136.733 274.197Z" fill="#301111"/>
<path d="M62.334 17.2824C62.334 17.2824 57.8824 44.7519 76.232 45.6208C94.5816 46.4898 91.4324 18.2603 91.4324 18.2603C91.4324 18.2603 76.6665 1.86427 62.334 17.2824Z" fill="#FDC0AF"/>
<path d="M67.0033 15.0021C67.0033 15.0021 85.0273 23.6885 92.3014 18.9103C99.5755 14.1331 96.644 5.23002 96.644 5.23002C96.644 5.23002 94.5816 7.94471 92.1925 7.61911C89.9316 7.31081 73.4094 -3.3475 68.1113 6.41541C67.8569 6.88346 67.3451 7.17243 67.0022 7.61911C60.5971 15.9789 67.0033 15.0021 67.0033 15.0021Z" fill="#302226"/>
<path d="M70.9117 6.75014C70.9117 6.75014 62.443 0.669564 60.1628 9.79043C57.8826 18.9103 61.6423 18.2591 61.3574 24.0141C61.0725 29.769 69.0659 17.1734 67.0035 15.0021L70.9117 6.75014Z" fill="#302226"/>
<path d="M95.3235 31.572C94.9908 33.488 92.2232 35.1089 90.3062 34.7761C88.3902 34.4434 88.0504 32.2833 88.3831 30.3673C88.7158 28.4514 90.5392 27.1673 92.4551 27.5C94.3721 27.8317 95.6562 29.6551 95.3235 31.572Z" fill="#FDC0AF"/>
<path d="M56.1853 30.4314C56.518 32.3473 59.2856 33.9682 61.2026 33.6355C63.1186 33.3028 63.4584 31.1426 63.1257 29.2267C62.793 27.3107 60.9696 26.0266 59.0537 26.3594C57.1357 26.6921 55.8526 28.5154 56.1853 30.4314Z" fill="#FDC0AF"/>
<path d="M62.6597 24.0139C62.6597 24.0139 62.503 34.1115 64.1554 36.2829C65.8078 38.4542 70.9116 38.8887 72.3229 35.5228C73.7342 32.1569 82.2435 33.5082 82.7462 35.6317C83.2346 37.6942 85.5687 39.7576 87.5233 36.2829C89.478 32.8081 90.3571 24.5267 90.9482 19.601C91.5404 14.6763 92.3005 18.9101 92.3005 18.9101C92.3005 18.9101 91.2148 35.3051 88.1745 41.6024C85.1342 47.8997 81.226 55.6083 73.6253 52.8946C65.1383 49.8635 62.0746 41.1109 61.3675 24.6803C60.6603 8.25076 62.6597 24.0139 62.6597 24.0139Z" fill="#302226"/>
<path d="M73.49 36.988C73.3781 36.7275 79.5208 37.4285 81.1182 37.6209C81.2963 37.6422 81.3869 37.8427 81.2871 37.9912C80.2564 39.5215 76.5039 43.9914 73.49 36.988Z" fill="#E2A1A1"/>
<path d="M78.4187 27.6833C77.4745 26.8307 76.3837 27.3679 76.3379 27.3913L76.0459 26.8246C76.108 26.793 77.5691 26.0563 78.8471 27.2102L78.4187 27.6833Z" fill="#442B2B"/>
<path d="M64.1635 24.0091C63.8511 24.6389 72.7807 23.4057 74.3884 23.946C75.5463 24.3357 76.7622 20.3247 74.1513 20.345C71.5404 20.3654 65.3866 21.5477 64.1635 24.0091Z" fill="#302226"/>
<path d="M91.1343 25.9281C91.4121 26.5743 82.5629 24.8526 80.9278 25.3044C79.7505 25.63 78.7564 21.559 81.3622 21.7218C83.9691 21.8846 90.0486 23.4027 91.1343 25.9281Z" fill="#302226"/>
<path d="M71.1833 32.5863C68.1623 32.5863 65.7051 30.1291 65.7051 27.1081C65.7051 24.0871 68.1623 21.6299 71.1833 21.6299C74.2043 21.6299 76.6615 24.0871 76.6615 27.1081C76.6615 30.128 74.2043 32.5863 71.1833 32.5863ZM71.1833 22.569C68.6802 22.569 66.6442 24.6051 66.6442 27.1081C66.6442 29.6112 68.6802 31.6472 71.1833 31.6472C73.6863 31.6472 75.7224 29.6112 75.7224 27.1081C75.7224 24.6051 73.6863 22.569 71.1833 22.569Z" fill="#7798F5"/>
<path d="M83.5876 33.6344C80.5666 33.6344 78.1094 31.1772 78.1094 28.1562C78.1094 25.1352 80.5666 22.678 83.5876 22.678C86.6086 22.678 89.0658 25.1352 89.0658 28.1562C89.0658 31.1772 86.6086 33.6344 83.5876 33.6344ZM83.5876 23.6171C81.0845 23.6171 79.0485 25.6532 79.0485 28.1562C79.0485 30.6593 81.0845 32.6953 83.5876 32.6953C86.0906 32.6953 88.1267 30.6593 88.1267 28.1562C88.1267 25.6542 86.0906 23.6171 83.5876 23.6171Z" fill="#7798F5"/>
<path d="M74.0354 38.1183C74.0354 38.1183 77.737 38.0054 80.6725 38.8031C80.6725 38.8031 81.3278 38.0329 81.5109 37.748C81.6941 37.4631 74.1005 36.5941 73.49 36.9879L74.0354 38.1183Z" fill="#F9F4F4"/>
<path d="M59.9838 28.9885C60.0731 28.4689 59.7243 27.9754 59.2048 27.8862C58.6852 27.797 58.1917 28.1458 58.1025 28.6653C58.0133 29.1848 58.3621 29.6783 58.8816 29.7675C59.4011 29.8568 59.8946 29.508 59.9838 28.9885Z" fill="#302226"/>
<path d="M61.0122 31.5037C60.5462 32.1549 59.6396 32.3045 58.9894 31.8374C58.3382 31.3714 58.1887 30.4648 58.6557 29.8146C59.1217 29.1634 60.0283 29.0139 60.6785 29.4809C61.3287 29.9469 61.4782 30.8525 61.0122 31.5037Z" fill="#302226"/>
<path d="M91.6808 30.1396C91.6146 30.6626 91.984 31.1408 92.508 31.2069C93.031 31.2731 93.5092 30.9037 93.5753 30.3797C93.6415 29.8567 93.2721 29.3785 92.7481 29.3123C92.2251 29.2462 91.7479 29.6166 91.6808 30.1396Z" fill="#302226"/>
<path d="M92.8986 32.2257C93.1277 31.4584 92.6914 30.6507 91.9241 30.4216C91.1568 30.1925 90.349 30.6288 90.1199 31.3961C89.8908 32.1634 90.3271 32.9711 91.0944 33.2002C91.8617 33.4293 92.6695 32.993 92.8986 32.2257Z" fill="#302226"/>
<path d="M71.2169 28.7403C71.0795 28.7403 70.9472 28.7301 70.821 28.7128C69.8473 28.5805 68.7097 27.8886 68.6426 27.501L69.2714 27.3921C69.2612 27.3331 69.2358 27.2985 69.2358 27.2985C69.3782 27.4857 70.4263 28.1949 71.4183 28.0911C72.1082 28.0189 72.6536 27.5671 73.0392 26.749L73.6161 27.0217C72.969 28.3933 72.0146 28.7403 71.2169 28.7403Z" fill="#442B2B"/>
<path d="M83.8319 29.6255C83.5338 29.6255 83.2539 29.5706 83.0077 29.4922C82.0716 29.1961 81.0684 28.3201 81.0684 27.9273H81.7063C81.7063 27.8673 81.687 27.8296 81.687 27.8286C81.7959 28.0372 82.7065 28.9153 83.7027 28.9814C84.3936 29.0282 85.0091 28.6752 85.5281 27.9354L86.05 28.3017C85.3337 29.3233 84.5309 29.6255 83.8319 29.6255Z" fill="#442B2B"/>
<path d="M68.4706 5.54232C68.4675 5.50366 68.4004 4.57773 69.0943 3.42491C69.7231 2.38095 71.1303 0.939152 74.2622 0L74.3741 0.372405C71.3796 1.27086 70.0396 2.62413 69.4423 3.60093C68.8003 4.65099 68.8572 5.50366 68.8572 5.5118L68.4706 5.54232Z" fill="#6D5454"/>
<path d="M67.9149 5.55775C67.8366 5.2993 66.3541 3.35791 64.4768 3.41998L64.4646 3.03231C64.4982 3.03129 64.5307 3.03027 64.5643 3.03027C66.6838 3.03027 68.2873 5.20976 68.2996 5.51806L67.9119 5.53434C67.9119 5.5496 67.9149 5.55775 67.9149 5.55775Z" fill="#6D5454"/>
<path d="M86.113 17.792C82.6658 17.792 78.959 16.805 76.0724 15.7977C71.575 14.2277 68.0463 12.272 68.0117 12.2517L68.201 11.9128C68.2356 11.9322 71.7398 13.8746 76.2067 15.4334C80.3113 16.866 86.0927 18.259 90.3204 16.7602C92.6189 15.9462 94.2592 14.3477 95.1963 12.0105L95.5565 12.155C94.5756 14.6011 92.857 16.2738 90.4486 17.1265C89.1177 17.5976 87.6403 17.792 86.113 17.792Z" fill="#E0C7C7"/>
<path d="M91.9188 13.7884L91.7275 13.4506C91.7611 13.4312 95.0812 11.5244 95.8067 8.59912L96.1832 8.69274C95.417 11.7819 92.0613 13.708 91.9188 13.7884Z" fill="#E0C7C7"/>
<path d="M67.7889 52.3282L74.834 61.8907L84.8991 51.155C84.8991 51.155 100.241 56.6739 103.023 63.2816C105.805 69.8882 84.5583 123.788 84.5583 123.788L51.7317 119.094L57.16 58.365C57.159 58.365 62.8092 53.7191 67.7889 52.3282Z" fill="#F2F2F2"/>
<path d="M47.6047 142.783C47.6047 142.783 48.4238 174.513 51.7307 210.504C55.0376 246.495 56.4122 254.711 56.4122 254.711C56.4122 254.711 77.0756 254.841 77.9883 254.058C78.901 253.276 68.0779 182.598 74.4678 161.082C74.4678 161.082 97.5487 219.502 99.8961 257.84C99.8961 257.84 121.542 256.798 121.282 256.015C121.021 255.233 101.201 144.652 101.201 145.174C101.201 145.696 69.6428 107.792 47.6047 142.783Z" fill="#A260B2"/>
<path d="M65.3611 53.2192C65.3611 53.2192 58.8817 62.5029 66.1751 78.325L71.1425 88.4095C71.1425 88.4095 73.5652 140.397 62.6495 151.698C62.6495 151.698 43.7362 146.308 42.3452 138.658C40.9543 131.007 58.7463 85.9756 51.0673 62.1559C51.0673 62.1549 52.0186 58.5184 65.3611 53.2192Z" fill="#19517E"/>
<path d="M71.1425 89.0142C71.1425 89.0142 95.83 68.0161 89.952 53.7385L90.8321 54.1262C90.8321 54.1262 105.982 60.6728 105.634 65.5415C105.286 70.4103 99.201 113.877 101.287 133.524C102.499 144.934 102.973 150.187 103.158 152.586C103.244 153.702 102.441 154.685 101.331 154.825C94.9642 155.631 74.9662 157.698 71.9035 152.302C68.2517 145.869 71.1425 89.0142 71.1425 89.0142Z" fill="#19517E"/>
<path d="M105.356 64.1536C105.356 64.1536 114.675 102.402 116.414 130.569L117.631 139.957L102.248 142.783L97.1143 85.5373L105.356 64.1536Z" fill="#19517E"/>
<path d="M51.1853 61.8885C51.1853 61.8885 34.3477 98.2295 30.175 109.183C26.0022 120.136 44.0842 134.915 44.0842 134.915L51.0673 124.483C51.0673 124.483 63.2112 57.8897 51.1853 61.8885Z" fill="#19517E"/>
<path d="M61.166 254.718V256.798C61.166 256.798 62.5122 262.292 73.0331 260.188C73.6853 260.058 76.0327 257.841 76.0327 257.841V254.382L61.166 254.718Z" fill="#E5AEAE"/>
<path d="M39.9481 267.23C39.9481 267.23 38.9988 262.526 42.7798 262.086C46.5619 261.645 61.1661 256.798 61.1661 256.798C61.1661 256.798 69.1209 261.351 76.0327 256.798C76.0327 256.798 78.4239 257.827 77.4674 263.163H77.9456V266.541L69.8718 266.493L68.894 264.142L66.7745 266.529L39.9481 267.23Z" fill="#301111"/>
<path d="M54.0191 59.0316L53.781 58.6266C54.1575 58.4058 63.0606 53.1972 67.735 52.0994L67.8418 52.5562C63.2377 53.6388 54.1107 58.9777 54.0191 59.0316Z" fill="#493838"/>
<path d="M102.081 60.819C98.6974 57.8866 84.9377 51.4326 84.7993 51.3675L84.9987 50.9421C85.5675 51.2077 98.9568 57.4887 102.389 60.4639L102.081 60.819Z" fill="#493838"/>
<path d="M102.72 150.172C102.654 149.706 96.1974 103.428 95.7385 93.3638C95.2288 82.1743 101.95 66.0968 102.018 65.936L102.45 66.1182C102.383 66.2779 95.7019 82.2598 96.2066 93.3424C96.6645 103.385 103.118 149.641 103.184 150.107L102.72 150.172Z" fill="#493838"/>
<path d="M99.9367 136.706C93.1439 133.012 87.2231 125.934 87.1641 125.864L87.5253 125.564C87.5833 125.634 93.4492 132.643 100.162 136.294L99.9367 136.706Z" fill="#493838"/>
<path d="M52.4082 121.911C52.1355 121.588 45.7446 113.988 46.6593 110.905C46.87 110.194 47.1864 108.812 47.5863 107.064C48.851 101.535 51.2065 91.2422 54.7668 82.4785C57.1579 76.5932 57.0989 71.52 56.6278 68.2996C56.117 64.8075 55.0262 62.681 55.0161 62.6596L55.4322 62.4429C55.478 62.5314 56.5647 64.6468 57.0897 68.2101C57.572 71.4925 57.6371 76.6624 55.2023 82.6545C51.6563 91.3826 49.3069 101.651 48.0442 107.168C47.627 108.993 47.3248 110.312 47.1091 111.038C46.2666 113.879 52.7012 121.529 52.7664 121.606L52.4082 121.911Z" fill="#493838"/>
<path d="M70.4536 143.315C68.6781 133.624 70.885 89.4481 70.9074 89.0024L71.3765 89.0258C71.3541 89.4705 69.1492 133.592 70.9156 143.229L70.4536 143.315Z" fill="#493838"/>
<path d="M90.5138 210.157C88.4716 202.339 83.8349 188.833 80.4497 178.972C78.4788 173.231 76.922 168.697 76.2922 166.535C74.5645 160.613 69.9084 153.6 69.8616 153.53L70.2523 153.27C70.2991 153.341 74.9959 160.413 76.7429 166.405C77.3707 168.557 79.0038 173.312 80.8943 178.82C84.2826 188.689 88.9224 202.204 90.9686 210.04L90.5138 210.157Z" fill="#493838"/>
<path d="M99.7611 264.45L99.6819 264.831L137.026 272.601L137.105 272.22L99.7611 264.45Z" fill="#E0C7C7"/>
<path d="M77.4661 262.966L39.9602 264.562L39.9767 264.95L77.4826 263.355L77.4661 262.966Z" fill="#E0C7C7"/>
<path d="M44.2114 135.113L43.9561 134.719C44.0476 134.66 53.1278 128.726 54.998 122.53L55.4477 122.666C54.6398 125.342 52.501 128.252 49.0914 131.313C46.5619 133.584 44.2349 135.097 44.2114 135.113Z" fill="#493838"/>
<path d="M75.9583 103.697C74.1441 103.697 72.6677 102.221 72.6677 100.407C72.6677 98.5926 74.1441 97.1162 75.9583 97.1162C77.7725 97.1162 79.2489 98.5926 79.2489 100.407C79.2489 102.221 77.7725 103.697 75.9583 103.697ZM75.9583 97.5853C74.4026 97.5853 73.1368 98.851 73.1368 100.407C73.1368 101.963 74.4026 103.228 75.9583 103.228C77.5141 103.228 78.7798 101.963 78.7798 100.407C78.7798 98.851 77.5141 97.5853 75.9583 97.5853Z" fill="#493838"/>
<path d="M75.9583 121.317C74.1441 121.317 72.6677 119.84 72.6677 118.026C72.6677 116.212 74.1441 114.736 75.9583 114.736C77.7725 114.736 79.2489 116.212 79.2489 118.026C79.2489 119.84 77.7725 121.317 75.9583 121.317ZM75.9583 115.204C74.4026 115.204 73.1368 116.469 73.1368 118.025C73.1368 119.581 74.4026 120.847 75.9583 120.847C77.5141 120.847 78.7798 119.581 78.7798 118.025C78.7798 116.469 77.5141 115.204 75.9583 115.204Z" fill="#493838"/>
<path d="M75.9583 138.935C74.1441 138.935 72.6677 137.458 72.6677 135.644C72.6677 133.83 74.1441 132.354 75.9583 132.354C77.7725 132.354 79.2489 133.83 79.2489 135.644C79.2489 137.458 77.7725 138.935 75.9583 138.935ZM75.9583 132.822C74.4026 132.822 73.1368 134.087 73.1368 135.643C73.1368 137.199 74.4026 138.465 75.9583 138.465C77.5141 138.465 78.7798 137.199 78.7798 135.643C78.7798 134.087 77.5141 132.822 75.9583 132.822Z" fill="#493838"/>
<path d="M73.676 212.265C73.2304 207.132 72.2841 177.533 72.2739 177.234L72.743 177.219C72.7521 177.517 73.6984 207.103 74.1431 212.224L73.676 212.265Z" fill="#493838"/>
<path d="M73.0983 85.3734L72.7065 85.1139C72.9406 84.7609 73.3058 83.1044 73.7291 81.1874C74.9227 75.7814 76.7267 67.6129 79.8362 65.8232C83.5165 63.7047 86.3838 61.9923 87.0411 61.5985L86.0093 56.5568L89.4861 53.2825L89.8077 53.6243L86.5211 56.7196L87.5671 61.8305L87.4247 61.916C87.3931 61.9343 84.2582 63.8207 80.0702 66.2302C77.1408 67.9162 75.292 76.2871 74.187 81.2881C73.6569 83.6925 73.3679 84.9664 73.0983 85.3734Z" fill="#493838"/>
<path d="M73.8745 75.636L73.4075 75.5953L74.6071 61.7898L82.3055 53.5786L82.6484 53.8991L75.0609 61.9923L73.8745 75.636Z" fill="#493838"/>
<path d="M69.7975 68.2754L65.061 61.2119L67.1459 56.9191L65.1577 54.7192L65.5057 54.4038L67.7065 56.8387L65.6013 61.1743L70.1872 68.0139L69.7975 68.2754Z" fill="#493838"/>
<defs>
<linearGradient id="paint0_linear_1040_35682" x1="275.955" y1="205.785" x2="307.323" y2="205.785" gradientUnits="userSpaceOnUse">
<stop stop-color="#054A80"/>
<stop offset="1" stop-color="#9BC582"/>
</linearGradient>
</defs>
</svg>
