<svg width="46" height="47" viewBox="0 0 46 47" fill="none" xmlns="http://www.w3.org/2000/svg">
<path d="M33.3745 31.8123L33.6242 31.5L33.3745 31.1877C32.13 29.6316 30.5514 28.3753 28.7555 27.512C26.9597 26.6486 24.9926 26.2004 23 26.2004C21.0074 26.2004 19.0403 26.6486 17.2445 27.512C15.4486 28.3753 13.87 29.6316 12.6255 31.1877L12.3758 31.5L12.6255 31.8123C13.87 33.3684 15.4486 34.6247 17.2445 35.488C19.0403 36.3514 21.0074 36.7996 23 36.7996C24.9926 36.7996 26.9597 36.3514 28.7555 35.488C30.5514 34.6247 32.13 33.3684 33.3745 31.8123ZM23 8C31.5463 8 38.5 14.9537 38.5 23.5C38.5 32.0463 31.5463 39 23 39C14.4537 39 7.5 32.0463 7.5 23.5C7.5 14.9537 14.4537 8 23 8ZM39.5 23.5C39.5 14.4015 32.0985 7 23 7C13.9015 7 6.5 14.4015 6.5 23.5C6.5 32.5985 13.9015 40 23 40C32.0985 40 39.5 32.5985 39.5 23.5ZM32.3352 31.5C31.2274 32.7953 29.861 33.847 28.3222 34.5868C26.6616 35.3851 24.8426 35.7996 23 35.7996C21.1574 35.7996 19.3384 35.3851 17.6778 34.5868C16.139 33.847 14.7726 32.7953 13.6648 31.5C14.7726 30.2047 16.139 29.153 17.6778 28.4132C19.3384 27.6149 21.1574 27.2004 23 27.2004C24.8426 27.2004 26.6616 27.6149 28.3222 28.4132C29.861 29.153 31.2274 30.2047 32.3352 31.5ZM23 24C23.696 24 24.3852 23.8629 25.0282 23.5966C25.6712 23.3302 26.2555 22.9398 26.7477 22.4477C27.2398 21.9555 27.6302 21.3712 27.8966 20.7282C28.1629 20.0852 28.3 19.396 28.3 18.7C28.3 18.004 28.1629 17.3148 27.8966 16.6718C27.6302 16.0288 27.2398 15.4445 26.7477 14.9523C26.2555 14.4602 25.6712 14.0698 25.0282 13.8034C24.3852 13.5371 23.696 13.4 23 13.4C21.5944 13.4 20.2463 13.9584 19.2523 14.9523C18.2584 15.9463 17.7 17.2944 17.7 18.7C17.7 20.1056 18.2584 21.4537 19.2523 22.4477C20.2463 23.4416 21.5944 24 23 24ZM24.6455 22.6727C24.1238 22.8888 23.5647 23 23 23C21.8596 23 20.7658 22.547 19.9594 21.7406C19.153 20.9342 18.7 19.8404 18.7 18.7C18.7 17.5596 19.153 16.4658 19.9594 15.6594C20.7658 14.853 21.8596 14.4 23 14.4C23.5647 14.4 24.1238 14.5112 24.6455 14.7273C25.1672 14.9434 25.6413 15.2601 26.0406 15.6594C26.4399 16.0587 26.7566 16.5328 26.9727 17.0545C27.1888 17.5762 27.3 18.1353 27.3 18.7C27.3 19.2647 27.1888 19.8238 26.9727 20.3455C26.7566 20.8672 26.4399 21.3413 26.0406 21.7406C25.6413 22.1399 25.1672 22.4566 24.6455 22.6727ZM45.5 23.5C45.5 35.9264 35.4264 46 23 46C10.5736 46 0.5 35.9264 0.5 23.5C0.5 11.0736 10.5736 1 23 1C35.4264 1 45.5 11.0736 45.5 23.5Z" stroke="white"/>
</svg>
