<svg width="14" height="14" viewBox="0 0 14 14" fill="none" xmlns="http://www.w3.org/2000/svg">
<g clip-path="url(#clip0_1545_84065)">
<path d="M13.8178 2.77429C13.3107 2.99674 12.7703 3.14418 12.207 3.21577C12.7865 2.86975 13.2288 2.326 13.4368 1.6706C12.8965 1.99276 12.2999 2.22032 11.6641 2.34731C11.151 1.801 10.4197 1.46265 9.62202 1.46265C8.07429 1.46265 6.82827 2.7189 6.82827 4.25895C6.82827 4.48054 6.84702 4.69361 6.89304 4.89645C4.5689 4.7831 2.51236 3.66918 1.13083 1.97231C0.889635 2.39077 0.748158 2.86975 0.748158 3.38537C0.748158 4.35356 1.24674 5.21179 1.98992 5.70867C1.54077 5.70015 1.10015 5.56975 0.726851 5.36435V5.39503C0.726851 6.75356 1.69589 7.88196 2.96662 8.14191C2.73907 8.20412 2.49106 8.23395 2.23367 8.23395C2.05469 8.23395 1.87401 8.22373 1.70441 8.18623C2.06662 9.29333 3.09447 10.1072 4.31662 10.1337C3.36549 10.8777 2.15782 11.326 0.850431 11.326C0.621169 11.326 0.401283 11.3158 0.181396 11.2876C1.41975 12.0862 2.88736 12.5422 4.47003 12.5422C9.61435 12.5422 12.4269 8.28083 12.4269 4.58708C12.4269 4.4635 12.4226 4.34418 12.4166 4.22571C12.9715 3.83196 13.4376 3.3402 13.8178 2.77429Z" fill="#19517E"/>
</g>
<defs>
<clipPath id="clip0_1545_84065">
<rect width="13.6364" height="13.6364" fill="white" transform="translate(0.181396 0.181396)"/>
</clipPath>
</defs>
</svg>
