<svg width="24" height="32" viewBox="0 0 24 32" fill="none" xmlns="http://www.w3.org/2000/svg">
<path d="M20.1156 6.24072C20.1156 8.3726 18.3812 10.1076 16.2487 10.1076H7.75125C5.61875 10.1076 3.88437 8.3726 3.88437 6.24072H0.514374V32.0001H23.4856V6.24072H20.1156ZM6.2575 27.2845L3.80187 24.8288L5.1275 23.5032L6.2575 24.6326L9.37875 21.5113L10.7044 22.837L6.2575 27.2845ZM6.2575 19.1851L3.80187 16.7295L5.1275 15.4038L6.2575 16.5332L9.37875 13.412L10.7044 14.7376L6.2575 19.1851ZM19.535 25.1038H13.3612V23.2288H19.535V25.1038ZM19.535 17.0038H13.3612V15.1288H19.535V17.0038Z" fill="#0A5183"/>
<path d="M7.75124 8.2325H16.2487C16.7987 8.2325 17.2969 8.00937 17.6575 7.64875C18.0175 7.28875 18.2406 6.79063 18.2406 6.24062C18.2406 5.14062 17.3487 4.24875 16.2487 4.24875H13.9919V1.99188C13.9919 0.891875 13.1 0 12 0C10.9 0 10.0081 0.891875 10.0081 1.99188V4.24875H7.75124C7.20124 4.24875 6.70312 4.47188 6.34249 4.8325C5.98249 5.1925 5.75937 5.69062 5.75937 6.24062C5.75937 7.34062 6.65124 8.2325 7.75124 8.2325Z" fill="#9BC482"/>
</svg>
