<svg width="32" height="30" viewBox="0 0 32 30" fill="none" xmlns="http://www.w3.org/2000/svg">
<path d="M18.962 2.83706C16.9748 1.61144 14.62 0.9375 12.1875 0.9375C5.56588 0.9375 0 5.87081 0 12.1875C0 14.4022 0.688 16.5252 1.99487 18.3588L0.16925 24.0904C-0.023625 24.6959 0.429875 25.3125 1.06269 25.3125C1.2103 25.3125 1.35583 25.2777 1.48738 25.2107L7.03937 22.3878C7.26418 22.4845 7.49173 22.5747 7.72175 22.6583C6.43631 20.6519 5.75 18.3488 5.75 15.9375C5.75 8.75644 11.7924 3.23575 18.962 2.83706Z" fill="#9BC482"/>
<path d="M30.0051 22.1088C31.312 20.2752 32 18.1522 32 15.9375C32 9.6185 26.4317 4.6875 19.8125 4.6875C13.1909 4.6875 7.625 9.62081 7.625 15.9375C7.625 22.2565 13.1933 27.1875 19.8125 27.1875C21.5886 27.1875 23.3582 26.8256 24.9603 26.1376L30.5126 28.9607C30.6774 29.0445 30.8633 29.0776 31.0469 29.056C31.2305 29.0344 31.4037 28.959 31.5445 28.8393C31.6854 28.7196 31.7878 28.5609 31.8387 28.3832C31.8896 28.2055 31.8869 28.0167 31.8308 27.8405L30.0051 22.1088ZM16 16.875C15.4823 16.875 15.0625 16.4552 15.0625 15.9375C15.0625 15.4198 15.4823 15 16 15C16.5177 15 16.9375 15.4198 16.9375 15.9375C16.9375 16.4552 16.5177 16.875 16 16.875ZM19.75 16.875C19.2323 16.875 18.8125 16.4552 18.8125 15.9375C18.8125 15.4198 19.2323 15 19.75 15C20.2677 15 20.6875 15.4198 20.6875 15.9375C20.6875 16.4552 20.2677 16.875 19.75 16.875ZM23.5 16.875C22.9823 16.875 22.5625 16.4552 22.5625 15.9375C22.5625 15.4198 22.9823 15 23.5 15C24.0177 15 24.4375 15.4198 24.4375 15.9375C24.4375 16.4552 24.0177 16.875 23.5 16.875Z" fill="#0A5183"/>
</svg>
