<svg width="29" height="32" viewBox="0 0 29 32" fill="none" xmlns="http://www.w3.org/2000/svg">
<path d="M18.0366 15.5608H27.939C28.525 15.5608 29 15.0857 29 14.4998V12.3778C29 10.5037 28.1377 8.82761 26.7894 7.72412C25.7841 8.63755 24.4499 9.19491 22.9878 9.19491C21.5258 9.19491 20.1915 8.63755 19.1862 7.72412C17.8379 8.82761 16.9756 10.5037 16.9756 12.3778V14.4998C16.9756 15.0857 17.4507 15.5608 18.0366 15.5608Z" fill="#0A5183"/>
<path d="M22.9877 7.07316C24.9409 7.07316 26.5242 5.48978 26.5242 3.53658C26.5242 1.58338 24.9409 0 22.9877 0C21.0345 0 19.4511 1.58338 19.4511 3.53658C19.4511 5.48978 21.0345 7.07316 22.9877 7.07316Z" fill="#0A5183"/>
<path d="M20.8658 17.8242C20.2799 17.8242 19.8048 18.2993 19.8048 18.8852V30.9096C19.8048 31.4955 20.2799 31.9705 20.8658 31.9705H25.1097C25.6956 31.9705 26.1707 31.4955 26.1707 30.9096V18.8852C26.1707 18.2993 25.6956 17.8242 25.1097 17.8242H20.8658ZM9.9024 22.4218V30.9096C9.9024 31.4955 10.3774 31.9705 10.9634 31.9705H15.2073C15.7932 31.9705 16.2682 31.4955 16.2682 30.9096V22.4218C16.2682 21.8358 15.7932 21.3608 15.2073 21.3608H10.9634C10.3774 21.3608 9.9024 21.8358 9.9024 22.4218ZM5.30484 24.8974H1.06094C0.475003 24.8974 -3.05176e-05 25.3724 -3.05176e-05 25.9584V30.9096C-3.05176e-05 31.4955 0.475003 31.9705 1.06094 31.9705H5.30484C5.89078 31.9705 6.36582 31.4955 6.36582 30.9096V25.9584C6.36582 25.3724 5.89078 24.8974 5.30484 24.8974Z" fill="#0A5183"/>
<path d="M1.06098 18.7437C1.20033 18.7439 1.33835 18.7166 1.46709 18.6632C1.59583 18.6099 1.71276 18.5316 1.81116 18.4329L4.59756 15.6466L6.32299 17.372C6.73726 17.7863 7.40907 17.7863 7.82342 17.372L12.7317 12.4637V14.1462C12.7317 14.7321 13.2067 15.2072 13.7927 15.2072C14.3786 15.2072 14.8536 14.7321 14.8536 14.1462V9.90228C14.8536 9.31634 14.3786 8.84131 13.7927 8.84131H9.54878C8.96283 8.84131 8.4878 9.31634 8.4878 9.90228C8.4878 10.4882 8.96283 10.9633 9.54878 10.9633H11.2313L7.07317 15.1214L5.34774 13.3959C4.93347 12.9817 4.26166 12.9817 3.84731 13.3959L0.310729 16.9325C-0.103617 17.3468 -0.103617 18.0186 0.310729 18.4329C0.409142 18.5316 0.526086 18.6099 0.654839 18.6632C0.783592 18.7165 0.921616 18.7439 1.06098 18.7437Z" fill="#9BC482"/>
</svg>
