<svg width="14" height="8" viewBox="0 0 14 8" fill="none" xmlns="http://www.w3.org/2000/svg">
<path d="M6.99996 7.75004C7.08205 7.75012 7.16334 7.73399 7.23917 7.70256C7.315 7.67114 7.38387 7.62504 7.44184 7.56691L13.6918 1.31691C13.9361 1.0727 13.9361 0.677227 13.6918 0.433164C13.4476 0.189102 13.0521 0.188945 12.8081 0.433164L6.99996 6.24129L1.19184 0.433164C0.947618 0.188945 0.552148 0.188945 0.308085 0.433164C0.064023 0.677383 0.0638666 1.07285 0.308085 1.31691L6.55809 7.56691C6.61605 7.62504 6.68492 7.67114 6.76075 7.70256C6.83658 7.73399 6.91788 7.75012 6.99996 7.75004Z" fill="#024880"/>
</svg>
