<svg width="32" height="32" viewBox="0 0 32 32" fill="none" xmlns="http://www.w3.org/2000/svg">
<path d="M5.64091 17.8469C5.64091 17.1251 5.3596 16.4728 4.91054 15.9748C5.3596 15.4768 5.64091 14.8245 5.64091 14.1027C5.64091 12.5542 4.38122 11.2945 2.83273 11.2945H0.0245361V20.6551H2.83273C4.38122 20.6551 5.64091 19.3954 5.64091 17.8469ZM1.89666 13.1666H2.83273C3.34918 13.1666 3.76879 13.5862 3.76879 14.1027C3.76879 14.6191 3.34918 15.0388 2.83273 15.0388H1.89666V13.1666ZM1.89666 16.9109H2.83273C3.34918 16.9109 3.76879 17.3305 3.76879 17.8469C3.76879 18.3634 3.34918 18.783 2.83273 18.783H1.89666V16.9109ZM12.2179 14.1027C12.2179 12.5542 10.9583 11.2945 9.40975 11.2945H6.60156V20.6551H8.47369V16.9109H8.83114L10.8632 20.9751L12.5379 20.1377L10.7473 16.5564C11.6187 16.0793 12.2179 15.1644 12.2179 14.1027ZM8.47369 15.0388V13.1666H9.40975C9.92621 13.1666 10.3458 13.5862 10.3458 14.1027C10.3458 14.6191 9.92621 15.0388 9.40975 15.0388H8.47369ZM18.7704 20.6551V14.1027C18.7704 12.5542 17.5107 11.2945 15.9622 11.2945C14.4137 11.2945 13.154 12.5542 13.154 14.1027V20.6551H15.0261V16.9109H16.8983V20.6551H18.7704ZM15.0261 15.0388V14.1027C15.0261 13.5862 15.4457 13.1666 15.9622 13.1666C16.4787 13.1666 16.8983 13.5862 16.8983 14.1027V15.0388H15.0261ZM29.1673 11.2945H26.2589V20.6551H29.1673C30.7158 20.6551 31.9755 19.3954 31.9755 17.8469V14.1027C31.9755 12.5541 30.7158 11.2945 29.1673 11.2945ZM30.1034 17.8469C30.1034 18.3634 29.6838 18.783 29.1673 18.783H28.131V13.1666H29.1673C29.6838 13.1666 30.1034 13.5862 30.1034 14.1027V17.8469ZM22.7194 20.6551H25.3228V11.2945H23.4507V15.8596L22.3099 11.2945H19.7064V20.6551H21.5786V16.09L22.7194 20.6551ZM27.8514 7.55025C27.8438 7.49439 27.8287 7.44023 27.8312 7.38207L27.8302 6.98717C27.8595 6.22204 27.5615 5.46882 27.0149 4.92397C26.4682 4.3755 25.7113 4.07751 24.9855 4.10585H24.533C24.1655 4.09674 23.7916 3.88369 23.6372 3.47326L23.4891 3.13409C23.224 2.39728 22.6508 1.81137 21.9552 1.54534C21.2641 1.24187 20.4588 1.25011 19.7476 1.55994L19.3509 1.73087C18.9806 1.89268 18.5656 1.81037 18.2713 1.49685L18.0062 1.23357C16.9897 0.100058 14.9 0.136627 13.953 1.197L13.6312 1.51876C13.3597 1.80943 12.9447 1.89175 12.5699 1.729L12.1832 1.56356C11.4647 1.24636 10.6576 1.24087 10.0095 1.52793C9.27359 1.81131 8.70041 2.39728 8.45634 3.08011L8.27075 3.51525C8.13271 3.88363 7.76341 4.12681 7.36945 4.10578L6.97455 4.10672C6.19026 4.08294 5.45713 4.37637 4.91135 4.92209C4.36288 5.46875 4.0649 6.22197 4.09323 6.95148L4.09416 7.42594C4.09597 7.46469 4.06115 7.50912 4.0561 7.55025H0.0245361V9.42237H31.9755V7.55025H27.8514ZM0.0245361 22.5273V24.3994H4.07301C4.08056 24.4552 4.09572 24.5094 4.09323 24.5676L4.09416 24.9625C4.0649 25.7276 4.36294 26.4808 4.90954 27.0257C5.4562 27.5741 6.19662 27.8557 6.93892 27.8438H7.39141C7.71136 27.8347 8.13184 28.065 8.28723 28.4764L8.43531 28.8155C8.7004 29.5523 9.27359 30.1383 9.96921 30.4043C10.6594 30.7078 11.4656 30.7005 12.1768 30.3897L12.5735 30.2188C12.9465 30.0569 13.3588 30.1393 13.6531 30.4528L13.9182 30.7161C14.4265 31.2828 15.1715 31.6073 15.9622 31.6073C16.7529 31.6073 17.4979 31.2828 17.9714 30.7526L18.2932 30.4309C18.5656 30.1402 18.9815 30.057 19.3545 30.2206L19.7411 30.3861C20.4569 30.7015 21.2641 30.7069 21.9149 30.4217C22.6508 30.1383 23.224 29.5523 23.468 28.8695L23.6536 28.4344C23.7917 28.066 24.1335 27.8283 24.5549 27.8438L24.9498 27.8429C25.7469 27.8886 26.4682 27.5741 27.013 27.0275C27.5615 26.4809 27.8595 25.7277 27.8312 24.9981L27.8302 24.5237C27.8284 24.4849 27.8632 24.4405 27.8683 24.3994H31.9754V22.5273H0.0245361Z" fill="#0A5183"/>
<path d="M5.64091 17.8469C5.64091 17.125 5.3596 16.4727 4.91054 15.9747C5.3596 15.4768 5.64091 14.8245 5.64091 14.1026C5.64091 12.5541 4.38122 11.2944 2.83273 11.2944H0.0245361V20.6551H2.83273C4.38122 20.6551 5.64091 19.3954 5.64091 17.8469ZM1.89666 13.1666H2.83273C3.34918 13.1666 3.76879 13.5862 3.76879 14.1026C3.76879 14.6191 3.34918 15.0387 2.83273 15.0387H1.89666V13.1666ZM1.89666 16.9108H2.83273C3.34918 16.9108 3.76879 17.3304 3.76879 17.8469C3.76879 18.3633 3.34918 18.7829 2.83273 18.7829H1.89666V16.9108ZM12.2179 14.1026C12.2179 12.5541 10.9583 11.2944 9.40975 11.2944H6.60156V20.6551H8.47369V16.9108H8.83114L10.8632 20.975L12.5379 20.1377L10.7473 16.5564C11.6187 16.0792 12.2179 15.1644 12.2179 14.1026ZM8.47369 15.0387V13.1666H9.40975C9.92621 13.1666 10.3458 13.5862 10.3458 14.1026C10.3458 14.6191 9.92621 15.0387 9.40975 15.0387H8.47369ZM18.7704 20.6551V14.1026C18.7704 12.5541 17.5107 11.2944 15.9622 11.2944C14.4137 11.2944 13.154 12.5541 13.154 14.1026V20.6551H15.0261V16.9108H16.8983V20.6551H18.7704ZM15.0261 15.0387V14.1026C15.0261 13.5862 15.4457 13.1666 15.9622 13.1666C16.4787 13.1666 16.8983 13.5862 16.8983 14.1026V15.0387H15.0261ZM29.1673 11.2944H26.2589V20.6551H29.1673C30.7158 20.6551 31.9755 19.3954 31.9755 17.8469V14.1026C31.9755 12.5541 30.7158 11.2944 29.1673 11.2944ZM30.1034 17.8469C30.1034 18.3633 29.6838 18.7829 29.1673 18.7829H28.131V13.1666H29.1673C29.6838 13.1666 30.1034 13.5862 30.1034 14.1026V17.8469ZM22.7194 20.6551H25.3228V11.2944H23.4507V15.8595L22.3099 11.2944H19.7064V20.6551H21.5786V16.0899L22.7194 20.6551Z" fill="#9BC482"/>
</svg>
