<svg width="32" height="32" viewBox="0 0 32 32" fill="none" xmlns="http://www.w3.org/2000/svg">
<g clip-path="url(#clip0_4193_4)">
<path d="M10.2394 9.43744H15.0625V2.03125C13.0491 2.69238 11.2384 5.5185 10.2394 9.43744ZM10.2394 22.5624C11.2384 26.4814 13.0491 29.3075 15.0625 29.9686V22.5624H10.2394ZM31.0625 11.3124H0.9375C0.41975 11.3124 0 11.7321 0 12.2499V19.7499C0 20.2677 0.41975 20.6874 0.9375 20.6874H31.0625C31.5802 20.6874 32 20.2677 32 19.7499V12.2499C32 11.7321 31.5802 11.3124 31.0625 11.3124ZM29.9636 14.5443L28.0886 18.2943C28.0107 18.45 27.891 18.5809 27.7429 18.6724C27.5948 18.7639 27.4241 18.8124 27.25 18.8124C27.0759 18.8124 26.9052 18.7639 26.7571 18.6724C26.609 18.5809 26.4893 18.45 26.4114 18.2943L25.375 16.2215L24.3386 18.2943C24.02 18.9296 22.98 18.9296 22.6614 18.2943L20.8651 14.7008C20.7571 14.5682 20.6955 14.4016 20.6755 14.2237C20.6639 14.3321 20.6402 14.441 20.5886 14.5443L18.7136 18.2943C18.6357 18.45 18.516 18.5809 18.3679 18.6724C18.2198 18.7639 18.0491 18.8124 17.875 18.8124C17.7009 18.8124 17.5302 18.7639 17.3821 18.6724C17.234 18.5809 17.1143 18.45 17.0364 18.2943L16 16.2215L14.9636 18.2943C14.645 18.9296 13.605 18.9296 13.2864 18.2943L11.4114 14.5443C11.3617 14.4449 11.3403 14.3401 11.3278 14.2358C11.3042 14.4378 11.228 14.6219 11.1046 14.7621L9.33856 18.2943C9.26066 18.45 9.14096 18.5809 8.99285 18.6724C8.84474 18.7639 8.67407 18.8124 8.49997 18.8124C8.32587 18.8124 8.1552 18.7639 8.00709 18.6724C7.85898 18.5809 7.73927 18.45 7.66138 18.2943L6.625 16.2215L5.58862 18.2943C5.42931 18.6119 5.10525 18.8124 4.75 18.8124C4.39475 18.8124 4.07069 18.6119 3.91138 18.2943L2.03638 14.5443C1.80475 14.081 1.99244 13.5179 2.45569 13.2863C2.918 13.0574 3.48019 13.2414 3.71362 13.7056L4.75 15.7784L5.78638 13.7056C6.11806 13.0401 7.11688 13.0121 7.46362 13.7056L8.5 15.7784L9.53638 13.7056C9.70481 13.3687 10.0591 13.1856 10.4354 13.1893C10.92 13.2211 11.3052 13.6207 11.3256 14.0961C11.3368 13.7635 11.5121 13.4456 11.8307 13.2862C12.2949 13.0574 12.8561 13.2414 13.0886 13.7056L14.125 15.7784L15.1614 13.7056C15.48 13.0703 16.52 13.0703 16.8386 13.7056L17.875 15.7784L18.9114 13.7056C19.143 13.2414 19.7061 13.0574 20.1693 13.2863C20.4852 13.4442 20.6593 13.7581 20.6733 14.0875C20.6915 13.6166 21.0264 13.2245 21.5077 13.1929C21.8941 13.1838 22.2951 13.3688 22.4636 13.7056L23.5 15.7784L24.5364 13.7056C24.855 13.0703 25.895 13.0703 26.2136 13.7056L27.25 15.7784L28.2864 13.7056C28.5189 13.2414 29.0801 13.0574 29.5443 13.2863C30.0076 13.5179 30.1952 14.081 29.9636 14.5443ZM16.9375 22.5624V29.9686C18.9509 29.3075 20.7616 26.4814 21.7606 22.5624H16.9375ZM16.9375 2.03125V9.43744H21.7606C20.7616 5.5185 18.9509 2.69238 16.9375 2.03125Z" fill="#9BC482"/>
<path d="M8.31368 22.5625H1.534C4.09656 28.1889 9.77087 32 16 32C12.6134 32 9.65481 28.2704 8.31368 22.5625ZM23.6863 22.5625C22.3452 28.2704 19.3866 32 16 32C22.2291 32 27.9034 28.1889 30.466 22.5625H23.6863ZM1.534 9.4375H8.31368C9.65481 3.72963 12.6134 0 16 0C9.77087 0 4.09656 3.81112 1.534 9.4375ZM16 0C19.3866 0 22.3452 3.72963 23.6863 9.4375H30.466C27.9034 3.81112 22.2291 0 16 0Z" fill="#0A5183"/>
</g>
<defs>
<clipPath id="clip0_4193_4">
<rect width="32" height="32" fill="white"/>
</clipPath>
</defs>
</svg>
