<svg width="32" height="27" viewBox="0 0 32 27" fill="none" xmlns="http://www.w3.org/2000/svg">
<path d="M25.884 20.3333H13.3467C12.6223 20.3326 11.918 20.0959 11.3403 19.659C10.7626 19.2221 10.3431 18.6087 10.1453 17.9119L5.90667 3.11725C5.78802 2.6995 5.53636 2.33184 5.18986 2.07004C4.84337 1.80825 4.42094 1.6666 3.98667 1.66659H0.666667C0.489856 1.66659 0.320286 1.59635 0.195262 1.47132C0.0702379 1.3463 0 1.17673 0 0.999919C0 0.823108 0.0702379 0.653538 0.195262 0.528514C0.320286 0.40349 0.489856 0.333252 0.666667 0.333252H3.98667C5.47333 0.333252 6.79067 1.32925 7.188 2.75459L8.024 5.66659H29.9987C30.6373 5.66659 31.2227 5.95992 31.6027 6.47192C31.984 6.98392 32.0973 7.62925 31.9133 8.23992L29.0453 18.0399C28.8273 18.7065 28.4042 19.2872 27.8364 19.6991C27.2687 20.1109 26.5854 20.3329 25.884 20.3333ZM8.40533 6.99992L11.428 17.5493C11.6667 18.4053 12.4547 18.9999 13.3467 18.9999H25.884C26.3004 18.9967 26.7056 18.8645 27.0438 18.6214C27.3819 18.3783 27.6363 18.0363 27.772 17.6426L30.6373 7.85859C30.6675 7.75909 30.6739 7.65388 30.6558 7.55148C30.6377 7.44909 30.5958 7.35239 30.5333 7.26925C30.472 7.18516 30.3915 7.11687 30.2985 7.07004C30.2055 7.0232 30.1028 6.99917 29.9987 6.99992H8.40533ZM14.6667 26.9999C13.196 26.9999 12 25.8039 12 24.3333C12 22.8626 13.196 21.6666 14.6667 21.6666C16.1373 21.6666 17.3333 22.8626 17.3333 24.3333C17.3333 25.8039 16.1373 26.9999 14.6667 26.9999ZM14.6667 22.9999C14.3234 23.0153 13.9992 23.1625 13.7617 23.4108C13.5242 23.6592 13.3916 23.9896 13.3916 24.3333C13.3916 24.6769 13.5242 25.0073 13.7617 25.2557C13.9992 25.504 14.3234 25.6512 14.6667 25.6666C15.01 25.6512 15.3341 25.504 15.5716 25.2557C15.8091 25.0073 15.9417 24.6769 15.9417 24.3333C15.9417 23.9896 15.8091 23.6592 15.5716 23.4108C15.3341 23.1625 15.01 23.0153 14.6667 22.9999ZM24 26.9999C22.5293 26.9999 21.3333 25.8039 21.3333 24.3333C21.3333 22.8626 22.5293 21.6666 24 21.6666C25.4707 21.6666 26.6667 22.8626 26.6667 24.3333C26.6667 25.8039 25.4707 26.9999 24 26.9999ZM24 22.9999C23.6567 23.0153 23.3325 23.1625 23.095 23.4108C22.8575 23.6592 22.725 23.9896 22.725 24.3333C22.725 24.6769 22.8575 25.0073 23.095 25.2557C23.3325 25.504 23.6567 25.6512 24 25.6666C24.3433 25.6512 24.6675 25.504 24.905 25.2557C25.1425 25.0073 25.275 24.6769 25.275 24.3333C25.275 23.9896 25.1425 23.6592 24.905 23.4108C24.6675 23.1625 24.3433 23.0153 24 22.9999Z" fill="#024880"/>
</svg>
