<svg width="32" height="26" viewBox="0 0 32 26" fill="none" xmlns="http://www.w3.org/2000/svg">
<path d="M31.0625 21.4373H0.9375C0.41975 21.4373 0 21.8571 0 22.3748C0 23.9281 1.25919 25.1873 2.8125 25.1873H29.1875C30.7408 25.1873 32 23.9281 32 22.3748C32 21.8571 31.5802 21.4373 31.0625 21.4373ZM9.4375 5.35425V12.8414C10.4532 12.7445 11.4992 12.7825 12.4771 13.0282C13.4118 13.2616 14.3328 13.6965 15.0625 14.1049V6.92713C14.4601 6.52519 13.2223 5.77175 12.0229 5.47144C11.0644 5.23156 10.0784 5.27731 9.4375 5.35425ZM19.9771 5.47144C18.7713 5.77356 17.5381 6.52519 16.9375 6.92619V14.1048C17.6672 13.6965 18.5882 13.2616 19.5229 13.0281C20.6472 12.7443 21.7614 12.7636 22.5625 12.8414V5.35325C21.9234 5.27825 20.9402 5.23156 19.9771 5.47144Z" fill="#0A5183"/>
<path d="M30.125 1.75C30.125 1.23181 29.7057 0.8125 29.1875 0.8125H2.8125C2.29431 0.8125 1.875 1.23181 1.875 1.75V19.5625H30.125V1.75ZM24.4375 13.9375C24.4375 14.5357 23.8748 14.9931 23.2747 14.8476C23.2582 14.843 21.5874 14.4466 19.977 14.8466C18.3053 15.265 16.5795 16.5495 16.5621 16.5623C16.3902 16.6922 16.1862 16.75 15.9999 16.75C15.8056 16.75 15.6059 16.6887 15.4378 16.5632C15.4204 16.5504 13.6855 15.2623 12.0229 14.8466C10.4179 14.4456 8.74256 14.8421 8.727 14.8466C8.1345 14.9938 7.5625 14.5462 7.5625 13.9375V4.5625C7.56255 4.35343 7.6325 4.15039 7.76123 3.98565C7.88997 3.82092 8.07008 3.70396 8.27294 3.65338C8.35994 3.63138 10.4006 3.1315 12.4771 3.65338C13.8934 4.007 15.2618 4.81575 16 5.30062C16.7382 4.81575 18.1066 4.007 19.5229 3.65338C21.6003 3.12969 23.641 3.63138 23.7271 3.65338C23.9299 3.70395 24.11 3.82091 24.2388 3.98564C24.3675 4.15038 24.4375 4.35343 24.4375 4.5625V13.9375Z" fill="#9BC482"/>
</svg>
