<svg width="32" height="32" viewBox="0 0 32 32" fill="none" xmlns="http://www.w3.org/2000/svg">
<path d="M3.76281 20.8149L0.0353737 24.5424C-0.0273138 24.6021 -0.00387629 24.7102 0.0834987 24.7361L4.57275 26.0998C4.88595 26.1948 5.17089 26.3656 5.40233 26.597C5.63376 26.8285 5.80455 27.1134 5.89956 27.4266L7.26325 31.9159C7.28912 32.0033 7.39725 32.0267 7.457 31.964L12.4444 26.9766C8.75431 26.06 5.70787 23.7595 3.76281 20.8149ZM31.9646 24.5424L28.2372 20.8149C26.306 23.7384 23.269 26.0542 19.5555 26.9767L24.5429 31.9641C24.6026 32.0268 24.7107 32.0033 24.7366 31.9159L26.1003 27.4267C26.1953 27.1135 26.3661 26.8285 26.5976 26.5971C26.829 26.3657 27.114 26.1949 27.4272 26.0999L31.9164 24.7362C32.0041 24.7101 32.0272 24.6019 31.9646 24.5424Z" fill="#9BC482"/>
<path d="M28.7666 12.7666C28.7666 5.72738 23.0398 0 16 0C8.96018 0 3.23343 5.72738 3.23343 12.7666C3.23343 19.1313 7.91962 24.436 14.0382 25.3831C21.7886 26.5888 28.7666 20.5561 28.7666 12.7666ZM6.04837 15.8777C3.94293 9.14644 9.0113 2.34181 16 2.34181C23.8071 2.34181 28.9672 10.7324 25.1616 17.7396C20.7682 25.799 8.81349 24.6731 6.04837 15.8777Z" fill="#0A5183"/>
<path d="M16 4.2168C11.2857 4.2168 7.44955 8.05236 7.44955 12.7666C7.44955 19.7024 15.3131 23.7471 20.9442 19.7383C22.1507 18.8819 23.1332 17.7112 23.7654 16.3434C26.3924 10.688 22.2047 4.2168 16 4.2168ZM20.3155 11.5673L14.9844 15.5241C14.6092 15.8037 14.0754 15.7662 13.7419 15.4129C11.3558 12.87 11.5467 13.073 11.4894 13.0129C11.0885 12.586 11.1722 11.8954 11.6738 11.578C11.6744 11.5774 11.6751 11.5767 11.6757 11.5767C12.0482 11.343 12.5451 11.3974 12.8569 11.7299C13.3615 12.2676 13.0219 11.9057 14.5375 13.5204C14.7009 13.3986 16.6232 11.9725 19.268 10.0099C19.6836 9.70111 20.2711 9.78798 20.5792 10.2036C20.8616 10.5826 20.8606 11.1634 20.3155 11.5673Z" fill="#0A5183"/>
</svg>
