<svg width="22" height="22" viewBox="0 0 22 22" fill="none" xmlns="http://www.w3.org/2000/svg">
<path d="M19.9747 0H10.3093C9.19073 0 8.28418 0.906727 8.28418 2.02507V6.78601C8.79512 7.03996 9.34723 7.31457 9.86246 7.57071L10.6509 5.99332C11.1282 5.03942 12.2919 4.65184 13.2454 5.12836C14.201 5.60661 14.5882 6.76706 14.1098 7.72282L12.7045 10.5343C12.7421 10.9074 12.7079 11.2843 12.6037 11.6445H13.5316L11.0844 18.3739C10.9392 18.773 11.2198 19.2387 11.6903 19.2387C11.9533 19.2387 12.2008 19.0765 12.2957 18.8143L14.9031 11.6445H15.3548L17.9886 18.8164C18.0844 19.0773 18.3312 19.2387 18.594 19.2387C19.0336 19.2387 19.3559 18.7997 19.1986 18.3721L16.7279 11.6445H19.9748C21.0931 11.6445 21.9998 10.7378 21.9998 9.61946V2.02512C21.9998 0.906727 21.0931 0 19.9747 0ZM18.5937 8.88327H15.7019C15.346 8.88327 15.0573 8.59461 15.0573 8.23874C15.0573 7.88257 15.346 7.59421 15.7019 7.59421H18.5937C18.9499 7.59421 19.2382 7.88257 19.2382 8.23874C19.2382 8.59461 18.9499 8.88327 18.5937 8.88327ZM18.5937 6.4668H15.7019C15.346 6.4668 15.0573 6.17848 15.0573 5.82227C15.0573 5.46644 15.346 5.17773 15.7019 5.17773H18.5937C18.9499 5.17773 19.2382 5.46644 19.2382 5.82227C19.2382 6.17848 18.9499 6.4668 18.5937 6.4668ZM18.5937 4.05066H11.6903C11.3341 4.05066 11.0458 3.76191 11.0458 3.40613C11.0458 3.05035 11.3341 2.7616 11.6903 2.7616H18.5937C18.9498 2.7616 19.2382 3.05027 19.2382 3.40613C19.2382 3.762 18.9499 4.05066 18.5937 4.05066Z" fill="#777777"/>
<path d="M11.3404 11.3681C11.4568 11.0269 11.456 10.6703 11.3577 10.3451L12.9573 7.14622C13.1164 6.82782 12.9875 6.44063 12.6691 6.28147C12.3509 6.12219 11.9636 6.25127 11.8043 6.56971L10.4401 9.29788C9.62466 8.89182 8.38578 8.27587 7.38779 7.77953C6.45923 7.31779 5.79657 6.9037 4.66598 6.9037H4.09647C4.97681 6.9037 5.7625 6.49851 6.27679 5.86437C6.66922 5.38184 6.90387 4.76682 6.90387 4.09664C6.90387 2.5459 5.64704 1.28906 4.09613 1.28906C2.5459 1.28906 1.28906 2.5459 1.28906 4.09664C1.28906 4.84137 1.5791 5.51813 2.05227 6.02035C2.56386 6.56434 3.29046 6.9037 4.09595 6.90387C3.01602 6.90387 1.96028 7.34143 1.20076 8.10296C0.426465 8.87524 0 9.90413 0 11.0002V13.0713C0 13.9629 0.578918 14.7215 1.38071 14.9914V18.594C1.38071 18.9501 1.66925 19.2386 2.02525 19.2386H6.16735C6.52334 19.2386 6.81188 18.9501 6.81188 18.594V11.3523C7.42302 11.6579 8.22585 12.0592 8.87541 12.3841C9.33075 12.6117 9.86283 12.6322 10.3373 12.4392C10.8105 12.2445 11.1752 11.8569 11.3379 11.3757L11.3404 11.3681Z" fill="#777777"/>
</svg>
