<svg width="39" height="44" viewBox="0 0 39 44" fill="none" xmlns="http://www.w3.org/2000/svg">
<g clip-path="url(#clip0_1778_96311)">
<path d="M19.3359 12.9766C28.6487 12.9766 38.6719 10.9597 38.6719 6.53125C38.6719 2.1028 28.6487 0 19.3359 0C10.0231 0 0 2.1028 0 6.53125C0 10.9597 10.0231 12.9766 19.3359 12.9766Z" fill="white"/>
<path d="M19.3359 15.5546C14.0041 15.5546 4.12698 14.6962 0.0517344 11.3007C0.0258672 11.3007 0.0258672 11.2749 0 11.2749C0 16.4724 10.1494 17.6597 15.4688 18.0038V20.5819C10.8281 20.2983 3.76406 19.37 0 16.4827V16.8437C0 21.9482 12.6586 23.289 19.3359 23.289C26.0133 23.289 38.6719 21.9482 38.6719 16.8437V11.2749C33.8207 14.7428 25.2619 15.5546 19.3359 15.5546ZM20.625 20.7108H18.0469V18.1327H20.625V20.7108Z" fill="white"/>
<path d="M19.3359 25.8672C14.0209 25.8672 4.0743 24.9906 0.0517344 21.6391C0.0258672 21.6391 0.0258672 21.6133 0 21.6133C0 26.7769 10.2363 27.9781 15.4688 28.3164V30.8945C10.8281 30.6109 3.76406 29.6826 0 26.7953C0 32.6479 13.6704 33.6016 19.3359 33.6016C26.0133 33.6016 38.6719 32.2608 38.6719 27.1562V21.6133C33.8442 25.0605 25.1381 25.8672 19.3359 25.8672ZM20.625 31.0234H18.0469V28.4453H20.625V31.0234Z" fill="white"/>
<path d="M0.0517344 31.9516C0.0258672 31.9516 0.0258672 31.9258 0 31.9258C0 37.0894 10.2363 38.2906 15.4688 38.6289V41.207C10.8281 40.9234 3.76406 39.9951 0 37.1078C0 42.9678 13.5301 44 19.3359 44C28.643 44 38.6719 41.903 38.6719 37.4688V31.9258C33.5156 35.9219 22.1461 36.1797 19.3359 36.1797C16.5258 36.1797 5.23377 35.9219 0.0517344 31.9516ZM20.625 41.3359H18.0469V38.7578H20.625V41.3359Z" fill="white"/>
</g>
<defs>
<clipPath id="clip0_1778_96311">
<rect width="39" height="44" fill="white"/>
</clipPath>
</defs>
</svg>
