<svg width="22" height="22" viewBox="0 0 22 22" fill="none" xmlns="http://www.w3.org/2000/svg">
<g clip-path="url(#clip0_1243_138285)">
<path d="M10.9999 6.41401C10.9047 6.41405 10.8104 6.39438 10.7231 6.35626L4.99395 3.83543C4.87219 3.78123 4.76877 3.6929 4.69618 3.58113C4.62359 3.46936 4.58496 3.33895 4.58496 3.20568C4.58496 3.07241 4.62359 2.94199 4.69618 2.83023C4.76877 2.71846 4.87219 2.63013 4.99395 2.57593L10.7231 0.0550929C10.8104 0.0169845 10.9047 -0.00268555 10.9999 -0.00268555C11.0952 -0.00268555 11.1895 0.0169845 11.2768 0.0550929L17.0059 2.57593C17.1277 2.63013 17.2311 2.71846 17.3037 2.83023C17.3763 2.94199 17.4149 3.07241 17.4149 3.20568C17.4149 3.33895 17.3763 3.46936 17.3037 3.58113C17.2311 3.6929 17.1277 3.78123 17.0059 3.83543L11.2768 6.35626C11.1895 6.39438 11.0952 6.41405 10.9999 6.41401Z" fill="#777777"/>
<path d="M11.8308 7.61472C11.5698 7.7299 11.2877 7.78954 11.0024 7.78986C10.717 7.79017 10.4348 7.73116 10.1735 7.61656L6.41699 5.96289V6.59356C6.41699 7.15272 6.70941 7.67889 7.17966 7.96397C8.50058 8.76606 9.75091 9.16664 11.0003 9.16664C12.2497 9.16664 13.5001 8.76514 14.821 7.96397C15.2912 7.67889 15.5837 7.15364 15.5837 6.59356V5.96289L11.8308 7.61472Z" fill="#777777"/>
<path d="M20.3958 3.66675H19.2042C19.0575 4.47341 18.5258 5.16091 17.765 5.50008H20.1667V15.5834H1.83333V5.50008H4.235C3.86378 5.33504 3.53858 5.0817 3.28773 4.76215C3.03688 4.4426 2.86801 4.06654 2.79583 3.66675H1.60417C0.724167 3.66675 0 4.39091 0 5.27091V17.6459C0 18.5259 0.724167 19.2501 1.60417 19.2501H8.62583C8.51583 19.7084 8.23167 20.4509 7.47083 21.2209C7.33333 21.3492 7.29667 21.5417 7.37 21.7159C7.44333 21.8901 7.60833 22.0001 7.79167 22.0001H14.2083C14.3917 22.0001 14.5567 21.8901 14.63 21.7159C14.7033 21.5417 14.6667 21.3492 14.5292 21.2209C13.7683 20.4601 13.475 19.7084 13.365 19.2501H20.3958C21.2758 19.2501 22 18.5259 22 17.6459V5.27091C22 4.39091 21.2758 3.66675 20.3958 3.66675Z" fill="#777777"/>
</g>
<defs>
<clipPath id="clip0_1243_138285">
<rect width="22" height="22" fill="white"/>
</clipPath>
</defs>
</svg>
