<svg width="24" height="24" viewBox="0 0 24 24" fill="none" xmlns="http://www.w3.org/2000/svg">
<circle cx="12" cy="12" r="11.5" stroke="#19517E"/>
<path d="M17.9207 11.8087L15.1935 9.09486C15.0955 8.98103 14.9233 8.96776 14.8089 9.06527C14.6945 9.16275 14.6812 9.33408 14.7792 9.44791C14.7883 9.45852 14.7983 9.46843 14.8089 9.47751L17.0698 11.73H6.27271C6.12211 11.73 6 11.8515 6 12.0014C6 12.1513 6.12211 12.2727 6.27271 12.2727H17.0698L14.8089 14.5225C14.6945 14.62 14.6812 14.7913 14.7792 14.9051C14.8772 15.019 15.0493 15.0322 15.1637 14.9347C15.1744 14.9256 15.1844 14.9157 15.1935 14.9051L17.9207 12.1913C18.0264 12.0855 18.0264 11.9145 17.9207 11.8087Z" fill="#19517E"/>
</svg>
