<svg width="34" height="40" viewBox="0 0 34 40" fill="none" xmlns="http://www.w3.org/2000/svg">
<path d="M33.0636 3.36568L21.3966 0.0323146C21.215 -0.0197889 21.0211 -0.00863193 20.8466 0.0639561L0.846094 8.39753C0.694579 8.46092 0.565177 8.56768 0.474144 8.70439C0.383112 8.8411 0.334509 9.00166 0.334441 9.16591V30.8331C0.334441 31.2901 0.702497 31.6619 1.15946 31.6665C0.699216 31.6693 0.328425 32.0448 0.331316 32.5049C0.33239 32.6796 0.388295 32.8494 0.491136 32.9906C0.593976 33.1317 0.738555 33.237 0.904455 33.2915L20.905 39.9583C20.99 39.9858 21.0789 39.9999 21.1683 40C21.2456 39.9995 21.3225 39.9883 21.3967 39.9666L33.0636 36.6332C33.2377 36.5836 33.3908 36.4787 33.5 36.3344C33.6091 36.19 33.6683 36.0141 33.6686 35.8331V4.1657C33.6683 3.98474 33.6091 3.80881 33.4999 3.66448C33.3908 3.52016 33.2376 3.41528 33.0636 3.36568ZM1.54111 31.5781L6.54124 29.0781C6.67949 29.0088 6.79574 28.9024 6.87698 28.7708C6.95822 28.6393 7.00125 28.4877 7.00125 28.333V10.6509L22.0016 6.90077V34.8615L1.29439 31.6764C1.25527 31.6698 1.21569 31.6665 1.17602 31.6664C1.30281 31.6648 1.42759 31.6346 1.54111 31.5781Z" fill="#FF5722"/>
</svg>
