<svg width="48" height="47" viewBox="0 0 48 47" fill="none" xmlns="http://www.w3.org/2000/svg">
<path fill-rule="evenodd" clip-rule="evenodd" d="M3.60102 30.9216C3.67095 31.1073 3.66425 31.3131 3.58239 31.4939C3.50053 31.6746 3.35022 31.8155 3.16452 31.8854C2.97882 31.9553 2.77295 31.9486 2.5922 31.8668C2.41144 31.7849 2.27061 31.6346 2.20068 31.4489C0.510928 26.9794 0.313021 22.1238 1.53271 17.6058C3.5878 9.993 9.51505 4.00425 17.0512 1.8481L15.9332 1.45135C15.7477 1.38393 15.5964 1.24604 15.5121 1.06765C15.4278 0.889251 15.4173 0.684783 15.4829 0.4987C15.5485 0.312616 15.685 0.159963 15.8625 0.073933C16.0401 -0.0120974 16.2445 -0.0245491 16.4312 0.0392853L19.9949 1.30388C20.4682 1.47085 20.6466 2.05566 20.3465 2.45813L18.0469 5.53857C17.988 5.61744 17.9142 5.68395 17.8296 5.73429C17.745 5.78463 17.6514 5.81782 17.554 5.83197C17.4566 5.84611 17.3574 5.84094 17.262 5.81674C17.1666 5.79253 17.0769 5.74978 16.998 5.69091C16.9191 5.63204 16.8526 5.55822 16.8023 5.47365C16.7519 5.38908 16.7187 5.29542 16.7046 5.19802C16.6904 5.10063 16.6956 5.0014 16.7198 4.906C16.744 4.8106 16.7868 4.72091 16.8456 4.64204L17.9601 3.14925C10.7022 5.0385 4.94737 10.7044 2.97993 17.9925C1.84012 22.2149 2.02386 26.75 3.60102 30.9216ZM26.5123 26.6322C26.3605 26.7572 26.1655 26.8173 25.9697 26.7993C25.7739 26.7814 25.593 26.6869 25.4665 26.5364C25.3399 26.3859 25.2778 26.1915 25.2937 25.9955C25.3096 25.7995 25.4022 25.6177 25.5514 25.4896L27.9241 23.4901L25.5514 21.4906C25.4022 21.3625 25.3096 21.1807 25.2937 20.9847C25.2778 20.7887 25.3399 20.5943 25.4665 20.4438C25.593 20.2933 25.7739 20.1988 25.9697 20.1809C26.1655 20.1629 26.3605 20.223 26.5123 20.348L29.5551 22.9121C29.9142 23.2067 29.9218 23.7595 29.5629 24.0613L26.5123 26.6322ZM20.9748 25.4896L18.6021 23.4901L20.9748 21.4906C21.1239 21.3625 21.2165 21.1807 21.2324 20.9847C21.2483 20.7887 21.1863 20.5943 21.0597 20.4438C20.9331 20.2933 20.7523 20.1988 20.5565 20.1809C20.3606 20.1629 20.1656 20.223 20.0138 20.348L16.971 22.9121C16.6119 23.2067 16.6043 23.7595 16.9632 24.0613L20.0139 26.632C20.3294 26.8974 20.8003 26.8568 21.0657 26.5412C21.3311 26.2256 21.2902 25.755 20.9748 25.4896ZM23.0506 27.1772C23.0262 27.2734 22.983 27.3637 22.9235 27.443C22.8639 27.5224 22.7892 27.5891 22.7037 27.6393C22.6181 27.6895 22.5234 27.7222 22.4252 27.7356C22.3269 27.7489 22.2269 27.7426 22.1311 27.717C22.0352 27.6914 21.9454 27.647 21.8669 27.5864C21.7884 27.5258 21.7226 27.4502 21.6735 27.364C21.6245 27.2778 21.593 27.1828 21.5809 27.0843C21.5689 26.9858 21.5765 26.886 21.6034 26.7905L23.4756 19.8031C23.5 19.7069 23.5432 19.6166 23.6028 19.5372C23.6623 19.4579 23.737 19.3912 23.8226 19.341C23.9081 19.2908 24.0028 19.2581 24.1011 19.2447C24.1994 19.2314 24.2993 19.2377 24.3952 19.2633C24.491 19.2889 24.5808 19.3333 24.6593 19.3939C24.7379 19.4545 24.8036 19.5301 24.8527 19.6163C24.9018 19.7024 24.9333 19.7975 24.9453 19.896C24.9574 19.9945 24.9497 20.0943 24.9229 20.1898L23.0506 27.1772ZM10.4078 26.5583C10.7319 27.9185 11.2707 29.2184 12.0042 30.4089L10.8929 32.9111L13.8419 35.8602L16.3433 34.7493C17.5342 35.4829 18.8344 36.0219 20.1951 36.3459L21.1776 38.8988H25.3482L26.3311 36.3453C27.6913 36.0213 28.9912 35.4824 30.1817 34.7489L32.6839 35.8602L35.633 32.9112L34.522 30.4098C35.2557 29.219 35.7947 27.9188 36.1187 26.5582L38.6715 25.5756V21.405L36.1181 20.4221C35.794 19.0619 35.2551 17.762 34.5216 16.5715L35.633 14.0693L32.684 11.1203L30.1825 12.2312C28.9917 11.4976 27.6914 10.9586 26.3308 10.6345L25.3482 8.08163H21.1776L20.1949 10.6349C18.8345 10.9588 17.5345 11.4978 16.3439 12.2314L13.842 11.1203L10.8929 14.0693L12.0042 16.5714C11.2707 17.762 10.7318 19.0619 10.4078 20.4221L7.85446 21.405V25.5756L10.4078 26.5583ZM14.1905 23.4902C14.1905 28.5012 18.252 32.5628 23.263 32.5628C28.2741 32.5628 32.3356 28.5013 32.3356 23.4902C32.3356 18.4791 28.2741 14.4175 23.263 14.4175C18.252 14.4175 14.1905 18.4791 14.1905 23.4902ZM10.276 37.2253C10.3726 37.243 10.4647 37.2796 10.5472 37.3329C10.6296 37.3862 10.7007 37.4552 10.7565 37.536C10.8123 37.6168 10.8516 37.7078 10.8722 37.8038C10.8928 37.8997 10.8943 37.9988 10.8766 38.0954C10.8589 38.192 10.8223 38.2841 10.769 38.3666C10.7157 38.449 10.6467 38.5201 10.5659 38.5759C10.4851 38.6317 10.3941 38.671 10.2981 38.6916C10.2022 38.7122 10.1031 38.7137 10.0065 38.696L8.46327 38.411C12.0412 41.9678 16.6579 44.0024 21.422 44.4218C28.3703 45.0336 35.124 42.1748 39.5307 36.8018C39.6566 36.6487 39.8381 36.5519 40.0354 36.5326C40.2326 36.5134 40.4294 36.5733 40.5825 36.6992C40.7356 36.8251 40.8324 37.0066 40.8516 37.2038C40.8708 37.4011 40.8109 37.5979 40.6851 37.751C35.9781 43.4899 28.7509 46.5727 21.2931 45.916C16.2042 45.468 11.2712 43.2974 7.44093 39.5033L7.6183 41.0037C7.66686 41.4147 7.37305 41.7872 6.96205 41.8358C6.55105 41.8843 6.17858 41.5905 6.13002 41.1795L5.67871 37.3619C5.62049 36.8667 6.05933 36.4474 6.55761 36.5387L10.276 37.2253ZM46.014 28.1617L45.1049 28.9371C45.8636 25.8869 45.9824 22.6973 45.4381 19.5874C43.7869 10.1531 36.3182 2.81532 26.9001 1.2765C26.7054 1.24704 26.5069 1.29557 26.3477 1.41156C26.1886 1.52754 26.0816 1.70162 26.0499 1.89602C26.0183 2.09041 26.0646 2.28944 26.1788 2.44989C26.293 2.61035 26.4659 2.71929 26.66 2.75307C35.4535 4.18979 42.42 11.0372 43.9616 19.8452C44.4974 22.9118 44.3489 26.0589 43.5268 29.0615L42.7939 27.3563C42.755 27.2658 42.6987 27.184 42.6282 27.1153C42.5577 27.0466 42.4744 26.9925 42.383 26.9561C42.1984 26.8824 41.9921 26.8852 41.8095 26.9636C41.6269 27.0421 41.4829 27.1899 41.4093 27.3745C41.3357 27.5591 41.3384 27.7654 41.4169 27.948L42.9348 31.4798C43.1331 31.9411 43.7283 32.0785 44.1096 31.7522L46.9866 29.2983C47.1326 29.168 47.2217 28.9856 47.2349 28.7903C47.248 28.5951 47.1841 28.4024 47.0569 28.2537C46.9296 28.105 46.7492 28.0121 46.5542 27.9949C46.3593 27.9777 46.1653 28.0375 46.014 28.1617Z" fill="#19517E"/>
</svg>
