<svg width="38" height="38" viewBox="0 0 38 38" fill="none" xmlns="http://www.w3.org/2000/svg">
<path d="M33.8438 0.59375H4.15625C2.18874 0.59375 0.59375 2.18874 0.59375 4.15625V33.8438C0.59375 35.8113 2.18874 37.4062 4.15625 37.4062H33.8438C35.8113 37.4062 37.4062 35.8113 37.4062 33.8438V4.15625C37.4062 2.18874 35.8113 0.59375 33.8438 0.59375Z" fill="#C43B2B"/>
<path d="M33.8438 0.59375H4.15625C3.21142 0.59375 2.30528 0.969084 1.63718 1.63718C0.969084 2.30528 0.59375 3.21142 0.59375 4.15625V10.0938C0.59375 13.5581 1.96997 16.8806 4.41967 19.3303C6.86936 21.78 10.1919 23.1562 13.6562 23.1562H24.3438C27.8081 23.1562 31.1306 21.78 33.5803 19.3303C36.03 16.8806 37.4062 13.5581 37.4062 10.0938V4.15625C37.4062 3.21142 37.0309 2.30528 36.3628 1.63718C35.6947 0.969084 34.7886 0.59375 33.8438 0.59375Z" fill="#D74838"/>
<path d="M33.8438 0.59375H4.15625C3.21142 0.59375 2.30528 0.969084 1.63718 1.63718C0.969084 2.30528 0.59375 3.21142 0.59375 4.15625V6.53125C0.59375 5.58642 0.969084 4.68028 1.63718 4.01218C2.30528 3.34408 3.21142 2.96875 4.15625 2.96875H33.8438C34.7886 2.96875 35.6947 3.34408 36.3628 4.01218C37.0309 4.68028 37.4062 5.58642 37.4062 6.53125V4.15625C37.4062 3.21142 37.0309 2.30528 36.3628 1.63718C35.6947 0.969084 34.7886 0.59375 33.8438 0.59375Z" fill="#F2513F"/>
<path d="M33.8438 35.0312H4.15625C3.21142 35.0312 2.30528 34.6559 1.63718 33.9878C0.969084 33.3197 0.59375 32.4136 0.59375 31.4688V33.8438C0.59375 34.7886 0.969084 35.6947 1.63718 36.3628C2.30528 37.0309 3.21142 37.4062 4.15625 37.4062H33.8438C34.7886 37.4062 35.6947 37.0309 36.3628 36.3628C37.0309 35.6947 37.4062 34.7886 37.4062 33.8438V31.4688C37.4062 32.4136 37.0309 33.3197 36.3628 33.9878C35.6947 34.6559 34.7886 35.0312 33.8438 35.0312Z" fill="#9E291B"/>
<path d="M22.5626 0.59375L36.7057 35.9575C36.3766 36.4075 35.9458 36.7732 35.4485 37.025C34.9511 37.2768 34.4013 37.4074 33.8438 37.4062H29.0938L19.0001 11.2812L11.2813 30.2812H21.3751L23.7501 37.4062H4.15631C3.59886 37.4074 3.04902 37.2768 2.55166 37.025C2.05431 36.7732 1.62351 36.4075 1.29443 35.9575L15.4376 0.59375H22.5626Z" fill="#F2F2F2"/>
<path d="M28.1765 35.0314L29.0938 37.4064H33.8438C34.4013 37.4076 34.9511 37.277 35.4485 37.0252C35.9458 36.7734 36.3766 36.4077 36.7057 35.9577L36.0324 34.2744C35.4083 34.7649 34.6376 35.0315 33.8438 35.0314H28.1765ZM1.96775 34.2744L1.29443 35.9577C1.62351 36.4077 2.05431 36.7734 2.55166 37.0252C3.04902 37.277 3.59886 37.4076 4.15631 37.4064H23.7501L22.9586 35.0314H4.15631C3.36257 35.0315 2.59183 34.7649 1.96775 34.2744Z" fill="#B8B8BA"/>
<path d="M15.4375 0.59375L14.4875 2.96875H23.5125L22.5625 0.59375H15.4375Z" fill="#FAFAFA"/>
</svg>
