<svg width="48" height="48" viewBox="0 0 48 48" fill="none" xmlns="http://www.w3.org/2000/svg">
<path d="M20.9 32V44C20.9 44.2122 20.8157 44.4157 20.6657 44.5657C20.5157 44.7157 20.3122 44.8 20.1 44.8H13.2C12.9878 44.8 12.7843 44.7157 12.6343 44.5657C12.4843 44.4157 12.4 44.2122 12.4 44V33.6C12.4 32.2745 13.4745 31.2 14.8 31.2H20.12C20.554 31.204 20.9 31.566 20.9 32ZM29.4 26V44C29.4 44.2122 29.3157 44.4157 29.1657 44.5657C29.0157 44.7157 28.8122 44.8 28.6 44.8H23.3C23.0878 44.8 22.8843 44.7157 22.7343 44.5657C22.5843 44.4157 22.5 44.2122 22.5 44V26C22.5 25.566 22.846 25.204 23.28 25.2H28.62C29.054 25.204 29.4 25.566 29.4 26ZM37.9 19V44C37.9 44.2122 37.8157 44.4157 37.6657 44.5657C37.5157 44.7157 37.3122 44.8 37.1 44.8H31.8C31.5878 44.8 31.3843 44.7157 31.2343 44.5657C31.0843 44.4157 31 44.2122 31 44V19C31 18.566 31.346 18.204 31.78 18.2H37.12C37.554 18.204 37.9 18.566 37.9 19ZM48 14.6V44C48 44.2122 47.9157 44.4157 47.7657 44.5657C47.6157 44.7157 47.4122 44.8 47.2 44.8H40.3C40.0878 44.8 39.8843 44.7157 39.7343 44.5657C39.5843 44.4157 39.5 44.2122 39.5 44V13C39.5 12.566 39.846 12.204 40.28 12.2H45.6C46.9255 12.2 48 13.2745 48 14.6ZM6.9 47.2C6.9 47.642 6.542 48 6.1 48H5.6C5.158 48 4.8 47.642 4.8 47.2C4.8 46.758 5.158 46.4 5.6 46.4H6.1C6.542 46.4 6.9 46.758 6.9 47.2ZM48 47.2C48 47.642 47.642 48 47.2 48H10.1C9.658 48 9.3 47.642 9.3 47.2C9.3 46.758 9.658 46.4 10.1 46.4H47.2C47.642 46.4 48 46.758 48 47.2ZM20.314 0H3.086C1.384 0 0 1.384 0 3.086V16.514C0 18.216 1.384 19.6 3.086 19.6H20.314C22.016 19.6 23.4 18.216 23.4 16.514V3.086C23.4 1.384 22.016 0 20.314 0ZM10.1 11.2626C10.1 12.7269 9.1582 14.0491 7.7532 14.4618C6.4775 14.8366 5.1588 14.4289 4.3237 13.4813C4.0448 13.1648 4.0269 12.681 4.3176 12.3752C4.39464 12.2936 4.48801 12.229 4.59162 12.1859C4.69523 12.1427 4.80677 12.1218 4.91899 12.1245C5.03121 12.1273 5.14159 12.1536 5.24297 12.2018C5.34434 12.25 5.43444 12.319 5.5074 12.4043C5.9098 12.8748 6.5398 13.0959 7.1651 12.9609C7.9111 12.7998 8.5 12.1194 8.5 11.2394C8.5 10.4267 7.9449 9.7001 7.149 9.5358C6.85171 9.47354 6.54316 9.49208 6.25546 9.5895C5.96776 9.68691 5.71142 9.85963 5.5131 10.0897C5.0039 10.6794 4.1 10.2944 4.1 9.5757V5.8C4.1 5.58783 4.18429 5.38434 4.33431 5.23431C4.48434 5.08429 4.68783 5 4.9 5H9.2726C9.6987 5 10.0708 5.3215 10.0983 5.7467C10.1056 5.856 10.0903 5.96564 10.0535 6.06881C10.0167 6.17198 9.95905 6.26649 9.88421 6.34648C9.80937 6.42648 9.7189 6.49025 9.61841 6.53386C9.51792 6.57747 9.40955 6.59998 9.3 6.6H6.1C5.99391 6.6 5.89217 6.64214 5.81716 6.71716C5.74214 6.79217 5.7 6.89391 5.7 7V7.5674C5.69999 7.62628 5.713 7.68443 5.73809 7.73769C5.76319 7.79095 5.79976 7.838 5.84517 7.87547C5.89058 7.91294 5.94372 7.93991 6.00078 7.95443C6.05783 7.96896 6.1174 7.97069 6.1752 7.9595C8.273 7.5556 10.1 9.2037 10.1 11.2626ZM19.3 11.2182C19.3 13.093 17.7748 14.6182 15.9 14.6182C14.0252 14.6182 12.5 13.093 12.5 11.2182V8.3818C12.5 6.507 14.0252 4.9818 15.9 4.9818C17.1999 4.9818 18.3671 5.7052 18.946 6.8698C18.9928 6.96388 19.0205 7.06625 19.0277 7.17106C19.035 7.27588 19.0214 7.38108 18.988 7.48067C18.9545 7.58027 18.9018 7.67229 18.8328 7.7515C18.7637 7.8307 18.6798 7.89554 18.5857 7.9423C18.4916 7.98908 18.3892 8.01687 18.2844 8.02408C18.1796 8.03129 18.0744 8.01779 17.9748 7.98433C17.8752 7.95087 17.7831 7.89812 17.7039 7.82909C17.6247 7.76005 17.5599 7.67609 17.5131 7.582C17.2065 6.9651 16.5883 6.5818 15.8999 6.5818C14.9074 6.5818 14.0999 7.3893 14.0999 8.3818V11.2182C14.0999 12.2107 14.9074 13.0182 15.8999 13.0182C16.8924 13.0182 17.6999 12.2107 17.6999 11.2182V10.6591H16.7965C16.5843 10.6591 16.3808 10.5748 16.2308 10.4248C16.0808 10.2748 15.9965 10.0713 15.9965 9.8591C15.9965 9.64693 16.0808 9.44344 16.2308 9.29341C16.3808 9.14338 16.5843 9.0591 16.7965 9.0591H18.5C18.7122 9.0591 18.9157 9.14338 19.0657 9.29341C19.2157 9.44344 19.3 9.64693 19.3 9.8591V11.2182Z" fill="#19517E"/>
</svg>
