<svg width="48" height="48" viewBox="0 0 48 48" fill="none" xmlns="http://www.w3.org/2000/svg">
<path d="M35.0181 9.01538H12.9819C10.7912 9.01538 9.01538 10.7912 9.01538 12.9819V35.0181C9.01538 37.2089 10.7912 38.9847 12.9819 38.9847H35.0181C37.2089 38.9847 38.9847 37.2089 38.9847 35.0181V12.9819C38.9847 10.7912 37.2089 9.01538 35.0181 9.01538ZM35.6792 32.8145C35.6792 34.3967 34.3967 35.6792 32.8145 35.6792H15.1855C13.6033 35.6792 12.3208 34.3967 12.3208 32.8145V15.1855C12.3208 13.6033 13.6033 12.3208 15.1855 12.3208H32.8145C34.3967 12.3208 35.6792 13.6033 35.6792 15.1855V32.8145Z" fill="#19517E"/>
<path d="M21.3459 24.7714H23.7699L22.5579 20.6143L21.3459 24.7714Z" fill="#19517E"/>
<path d="M32.8146 13.6431H15.1856C14.3335 13.6431 13.6431 14.3335 13.6431 15.1856V32.8146C13.6431 33.6663 14.3335 34.3571 15.1856 34.3571H32.8146C33.6663 34.3571 34.3571 33.6663 34.3571 32.8146V15.1856C34.3571 14.3335 33.6663 13.6431 32.8146 13.6431ZM24.9939 27.8087C24.7878 27.8087 24.6182 27.7622 24.5575 27.5681L24.0608 25.8732H21.067L20.5703 27.5681C20.5097 27.7622 20.34 27.8215 20.1218 27.8215C19.7703 27.8215 19.3217 27.597 19.3217 27.2814C19.3201 27.2436 19.3239 27.2057 19.3338 27.169L21.7457 19.314C21.8427 19.0231 22.1941 18.8767 22.5578 18.8767C22.9211 18.8767 23.2848 19.0218 23.382 19.3127L25.7815 27.1662C25.7958 27.201 25.8039 27.238 25.8061 27.2755C25.8061 27.5785 25.3577 27.8087 24.9939 27.8087ZM28.0768 27.3843C28.0768 27.6632 27.7429 27.8087 27.4157 27.8087C27.1006 27.8087 26.7546 27.6633 26.7546 27.3843V19.3614C26.7546 19.0708 27.1006 18.9494 27.4157 18.9494C27.7429 18.9494 28.0768 19.0708 28.0768 19.3614V27.3843ZM26.4241 41.1687C26.0587 41.1687 25.763 41.4647 25.763 41.8297V47.3388C25.763 47.7042 26.0587 47.9999 26.4241 47.9999C26.7891 47.9999 27.0852 47.7042 27.0852 47.3388V41.8297C27.0852 41.4647 26.7891 41.1687 26.4241 41.1687ZM21.5761 41.1687C21.2108 41.1687 20.915 41.4647 20.915 41.8297V47.3388C20.915 47.7042 21.2108 47.9999 21.5761 47.9999C21.9412 47.9999 22.2372 47.7042 22.2372 47.3388V41.8297C22.2372 41.4647 21.9412 41.1687 21.5761 41.1687ZM16.8383 41.1687C16.473 41.1687 16.1772 41.4647 16.1772 41.8297V47.3388C16.1772 47.7042 16.473 47.9999 16.8383 47.9999C17.2034 47.9999 17.4994 47.7042 17.4994 47.3388V41.8297C17.4994 41.4647 17.2034 41.1687 16.8383 41.1687ZM31.1619 41.1687C30.7965 41.1687 30.5008 41.4647 30.5008 41.8297V47.3388C30.5008 47.7042 30.7965 47.9999 31.1619 47.9999C31.5269 47.9999 31.823 47.7042 31.823 47.3388V41.8297C31.823 41.4647 31.5269 41.1687 31.1619 41.1687ZM20.915 0.661087V6.17015C20.915 6.53518 21.2108 6.83123 21.5761 6.83123C21.9412 6.83123 22.2372 6.53507 22.2372 6.17015V0.661087C22.2372 0.296057 21.9412 0 21.5761 0C21.2108 0 20.915 0.296167 20.915 0.661087ZM25.763 0.661087V6.17015C25.763 6.53518 26.0587 6.83123 26.4241 6.83123C26.7891 6.83123 27.0852 6.53507 27.0852 6.17015V0.661087C27.0852 0.296057 26.7891 0 26.4241 0C26.0587 0 25.763 0.296167 25.763 0.661087ZM31.1619 6.83123C31.5269 6.83123 31.823 6.53507 31.823 6.17015V0.661087C31.823 0.296057 31.5269 0 31.1619 0C30.7965 0 30.5008 0.296167 30.5008 0.661087V6.17015C30.5008 6.53518 30.7965 6.83123 31.1619 6.83123ZM16.1772 0.661087V6.17015C16.1772 6.53518 16.473 6.83123 16.8383 6.83123C17.2034 6.83123 17.4994 6.53507 17.4994 6.17015V0.661087C17.4994 0.296057 17.2034 0 16.8383 0C16.473 0 16.1772 0.296167 16.1772 0.661087ZM47.3388 20.915H41.8297C41.4647 20.915 41.1687 21.2108 41.1687 21.5761C41.1687 21.9412 41.4647 22.2372 41.8297 22.2372H47.3388C47.7042 22.2372 47.9999 21.9412 47.9999 21.5761C47.9999 21.2108 47.7042 20.915 47.3388 20.915ZM47.3388 25.763H41.8297C41.4647 25.763 41.1687 26.0587 41.1687 26.4241C41.1687 26.7891 41.4647 27.0852 41.8297 27.0852H47.3388C47.7042 27.0852 47.9999 26.7891 47.9999 26.4241C47.9999 26.0587 47.7042 25.763 47.3388 25.763ZM47.3388 30.5008H41.8297C41.4647 30.5008 41.1687 30.7965 41.1687 31.1619C41.1687 31.5269 41.4647 31.823 41.8297 31.823H47.3388C47.7042 31.823 47.9999 31.5269 47.9999 31.1619C47.9999 30.7965 47.7042 30.5008 47.3388 30.5008ZM47.3388 16.1772H41.8297C41.4647 16.1772 41.1687 16.473 41.1687 16.8383C41.1687 17.2034 41.4647 17.4994 41.8297 17.4994H47.3388C47.7042 17.4994 47.9999 17.2034 47.9999 16.8383C47.9999 16.473 47.7042 16.1772 47.3388 16.1772ZM6.17015 25.763H0.661087C0.296057 25.763 0 26.0587 0 26.4241C0 26.7891 0.296167 27.0852 0.661087 27.0852H6.17015C6.53518 27.0852 6.83123 26.7891 6.83123 26.4241C6.83123 26.0587 6.53507 25.763 6.17015 25.763ZM6.17015 20.915H0.661087C0.296057 20.915 0 21.2108 0 21.5761C0 21.9412 0.296167 22.2372 0.661087 22.2372H6.17015C6.53518 22.2372 6.83123 21.9412 6.83123 21.5761C6.83123 21.2108 6.53507 20.915 6.17015 20.915ZM6.17015 16.1772H0.661087C0.296057 16.1772 0 16.473 0 16.8383C0 17.2034 0.296167 17.4994 0.661087 17.4994H6.17015C6.53518 17.4994 6.83123 17.2034 6.83123 16.8383C6.83123 16.473 6.53507 16.1772 6.17015 16.1772ZM6.17015 30.5008H0.661087C0.296057 30.5008 0 30.7965 0 31.1619C0 31.5269 0.296167 31.823 0.661087 31.823H6.17015C6.53518 31.823 6.83123 31.5269 6.83123 31.1619C6.83123 30.7965 6.53507 30.5008 6.17015 30.5008Z" fill="#19517E"/>
</svg>
