<svg width="44" height="46" viewBox="0 0 44 46" fill="none" xmlns="http://www.w3.org/2000/svg">
<path d="M35.0589 3.72927V8.3175C35.0589 8.67044 34.7765 9.02339 34.353 9.02339H21.2236C20.8001 9.02339 20.5177 8.67044 20.5177 8.3175V3.72927C20.5177 3.30574 20.8001 3.02339 21.2236 3.02339H24.6118C24.8942 1.54103 26.2353 0.411621 27.7883 0.411621C29.3412 0.411621 30.6824 1.54103 31.0353 3.02339H34.4236C34.7059 3.02339 35.0589 3.30574 35.0589 3.72927ZM19.953 28.9999L17.6942 28.294C17.6236 28.0822 17.553 27.941 17.4824 27.7293L18.6118 25.6822C18.753 25.3999 18.6824 25.0469 18.4706 24.8351L16.7059 23.0704C16.4942 22.8587 16.1412 22.7881 15.8589 22.9293L13.8118 24.0587C13.6 23.9881 13.4589 23.9175 13.2471 23.8469L12.5412 21.5881C12.4706 21.3057 12.1883 21.094 11.8353 21.094H9.29417C9.01182 21.094 8.72946 21.3057 8.58829 21.5881L7.8824 23.8469C7.67064 23.9175 7.52946 23.9881 7.3177 24.0587L5.27064 22.9293C4.98829 22.7881 4.63535 22.8587 4.42358 23.0704L2.65887 24.8351C2.44711 25.0469 2.37652 25.3999 2.5177 25.6822L3.57652 27.7293C3.50593 27.941 3.43535 28.0822 3.36476 28.294L1.10593 28.9999C0.823581 29.0704 0.611816 29.3528 0.611816 29.7057V32.1763C0.611816 32.4587 0.823581 32.741 1.10593 32.8822L3.36476 33.5881C3.43535 33.7999 3.50593 33.941 3.57652 34.1528L2.5177 36.1999C2.37652 36.4822 2.44711 36.8352 2.65887 37.0469L4.42358 38.8116C4.63535 39.0234 4.98829 39.094 5.27064 38.9528L7.3177 37.894C7.52946 37.9646 7.67064 38.0352 7.8824 38.1057L8.58829 40.3646C8.65887 40.6469 8.94123 40.8587 9.29417 40.8587H11.8353C12.1177 40.8587 12.4001 40.6469 12.5412 40.3646L13.2471 38.1057C13.4589 38.0352 13.6 37.9646 13.8118 37.894L15.8589 38.9528C16.1412 39.094 16.4942 39.0234 16.7059 38.8116L18.4706 37.0469C18.6824 36.8352 18.753 36.4822 18.6118 36.1999L17.553 34.1528C17.6236 33.941 17.6942 33.7999 17.7648 33.5881L20.0236 32.8822C20.3059 32.8116 20.5177 32.5293 20.5177 32.1763V29.6352C20.4471 29.3528 20.2353 29.0704 19.953 28.9999ZM10.5648 34.9999C8.30593 34.9999 6.54123 33.1646 6.54123 30.9763C6.54123 28.7175 8.37652 26.9528 10.5648 26.9528C12.753 26.9528 14.5883 28.7881 14.5883 30.9763C14.6589 33.1646 12.8236 34.9999 10.5648 34.9999ZM36.8236 30.341H38.8V39.094H36.8236V30.341ZM30.1883 33.941H32.1648V39.094H30.1883V33.941ZM23.553 37.6116H25.5295V39.094H23.553V37.6116Z" fill="#19517E"/>
<path d="M40.5649 5.28223H36.4708V8.31752C36.4708 9.51752 35.5532 10.4352 34.3532 10.4352H21.2238C20.0944 10.4352 19.1061 9.51752 19.1061 8.31752V5.28223H15.012C13.4591 5.28223 12.2591 6.55282 12.2591 8.03517V19.6822C13.0355 19.8234 13.6002 20.3881 13.8826 21.1646L14.2355 22.2234L15.2238 21.7293C16.0708 21.3058 17.0591 21.4469 17.6944 22.0822L19.4591 23.8469C20.0944 24.4822 20.3061 25.4705 19.812 26.3175L19.2473 27.3058L20.3061 27.6587C21.2238 27.941 21.7885 28.7175 21.7885 29.7058V32.1763C21.7885 33.094 21.2238 33.9411 20.3061 34.2234L19.2473 34.5763L19.7414 35.5646C20.1649 36.4116 20.0238 37.3999 19.3885 38.0352L17.6238 39.7999C16.9885 40.4352 16.0002 40.5763 15.1532 40.1528L14.1649 39.6587L13.812 40.7175C13.6002 41.494 12.9649 41.9881 12.1885 42.1999V42.8352C12.1885 44.3881 13.4591 45.5881 14.9414 45.5881H40.4238C41.9767 45.5881 43.1767 44.3175 43.1767 42.8352V8.03517C43.3179 6.55282 42.0473 5.28223 40.5649 5.28223ZM18.8944 20.9528C18.5414 20.9528 18.2591 20.6705 18.2591 20.3175C18.2591 19.9646 18.5414 19.6822 18.8944 19.6822H28.3532C28.7061 19.6822 28.9885 19.9646 28.9885 20.3175C28.9885 20.6705 28.7061 20.9528 28.3532 20.9528H18.8944ZM35.1297 21.7293C34.7767 21.6587 34.5649 21.3763 34.5649 21.0234C34.6355 20.6705 34.9179 20.4587 35.2708 20.4587L38.9414 20.9528C39.2944 21.0234 39.5061 21.3058 39.5061 21.6587L39.012 25.3293C38.9414 25.6822 38.6591 25.894 38.3061 25.894C37.9532 25.8234 37.7414 25.541 37.7414 25.1881L38.0238 23.0705L23.6238 34.0116C23.3414 34.2234 22.9179 34.1528 22.7061 33.8705C22.4944 33.5881 22.5649 33.1646 22.8473 32.9528L37.3179 22.0116L35.1297 21.7293ZM26.8002 39.7293C26.8002 40.0822 26.5179 40.3646 26.1649 40.3646H22.9179C22.5649 40.3646 22.2826 40.0822 22.2826 39.7293V36.9763C22.2826 36.6234 22.5649 36.3411 22.9179 36.3411H26.1649C26.5179 36.3411 26.8002 36.6234 26.8002 36.9763V39.7293ZM33.4355 39.7293C33.4355 40.0822 33.1532 40.3646 32.8002 40.3646H29.5532C29.2002 40.3646 28.9179 40.0822 28.9179 39.7293V33.3058C28.9179 32.9528 29.2002 32.6705 29.5532 32.6705H32.8002C33.1532 32.6705 33.4355 32.9528 33.4355 33.3058V39.7293ZM40.0708 39.7293C40.0708 40.0822 39.7885 40.3646 39.4355 40.3646H36.1885C35.8355 40.3646 35.5532 40.0822 35.5532 39.7293V29.7058C35.5532 29.3528 35.8355 29.0705 36.1885 29.0705H39.4355C39.7885 29.0705 40.0708 29.3528 40.0708 29.7058V39.7293ZM39.4355 17.2116H18.8944C18.5414 17.2116 18.2591 16.9293 18.2591 16.5763C18.2591 16.2234 18.5414 15.9411 18.8944 15.9411H39.4355C39.7885 15.9411 40.0708 16.2234 40.0708 16.5763C40.0708 16.9293 39.7885 17.2116 39.4355 17.2116ZM39.4355 13.5411H18.8944C18.5414 13.5411 18.2591 13.2587 18.2591 12.9058C18.2591 12.5528 18.5414 12.2705 18.8944 12.2705H39.4355C39.7885 12.2705 40.0708 12.5528 40.0708 12.9058C40.0708 13.2587 39.7885 13.5411 39.4355 13.5411Z" fill="#19517E"/>
</svg>
