<svg width="42" height="40" viewBox="0 0 42 40" fill="none" xmlns="http://www.w3.org/2000/svg">
<path d="M35.8498 0.308678C35.7083 0.17206 35.5189 0.0964641 35.3222 0.0981729C35.1256 0.0998817 34.9375 0.178759 34.7984 0.317815C34.6593 0.456871 34.5805 0.64498 34.5788 0.841628C34.5771 1.03828 34.6526 1.22773 34.7893 1.36918C42.353 8.62618 42.3523 21.6912 34.7893 28.9482C34.6526 29.0896 34.5771 29.2791 34.5788 29.4757C34.5805 29.6724 34.6593 29.8605 34.7984 29.9995C34.9375 30.1386 35.1256 30.2175 35.3222 30.2192C35.5189 30.2209 35.7083 30.1453 35.8498 30.0087C43.9948 22.1937 43.9948 8.12368 35.8498 0.308678ZM1.49977 15.1587C1.49262 12.5968 1.99365 10.0589 2.97385 7.69196C3.95406 5.325 5.39397 3.17594 7.21027 1.36918C7.34688 1.22773 7.42248 1.03828 7.42077 0.841628C7.41906 0.64498 7.34019 0.456871 7.20113 0.317815C7.06207 0.178759 6.87396 0.0998817 6.67732 0.0981729C6.48067 0.0964641 6.29122 0.17206 6.14977 0.308678C-1.99523 8.12368 -1.99523 22.1937 6.14977 30.0087C6.29122 30.1453 6.48067 30.2209 6.67732 30.2192C6.87396 30.2175 7.06207 30.1386 7.20113 29.9995C7.34019 29.8605 7.41906 29.6724 7.42077 29.4757C7.42248 29.2791 7.34688 29.0896 7.21027 28.9482C5.39397 27.1414 3.95406 24.9924 2.97385 22.6254C1.99365 20.2584 1.49262 17.7206 1.49977 15.1587Z" fill="#19517E"/>
<path d="M31.4352 4.72398C31.2938 4.58737 31.1043 4.51177 30.9077 4.51348C30.711 4.51519 30.5229 4.59406 30.3839 4.73312C30.2448 4.87218 30.1659 5.06029 30.1642 5.25693C30.1625 5.45358 30.2381 5.64303 30.3747 5.78448C32.8462 8.27848 34.2328 11.6476 34.2328 15.1587C34.2328 18.6699 32.8462 22.039 30.3747 24.533C30.2381 24.6744 30.1625 24.8639 30.1642 25.0605C30.1659 25.2572 30.2448 25.4453 30.3839 25.5843C30.5229 25.7234 30.711 25.8023 30.9077 25.804C31.1043 25.8057 31.2938 25.7301 31.4352 25.5935C37.1615 20.099 37.1615 10.2185 31.4352 4.72398ZM11.6247 4.72398C11.4841 4.58338 11.2933 4.50439 11.0945 4.50439C10.8956 4.50439 10.7049 4.58338 10.5642 4.72398C4.83797 10.2185 4.83797 20.099 10.5642 25.5935C10.7057 25.7301 10.8951 25.8057 11.0918 25.804C11.2884 25.8023 11.4765 25.7234 11.6156 25.5843C11.7546 25.4453 11.8335 25.2572 11.8352 25.0605C11.8369 24.8639 11.7613 24.6744 11.6247 24.533C9.15325 22.039 7.76667 18.6699 7.76667 15.1587C7.76667 11.6476 9.15325 8.27848 11.6247 5.78448C11.7653 5.64384 11.8443 5.45311 11.8443 5.25423C11.8443 5.05536 11.7653 4.86463 11.6247 4.72398Z" fill="#19517E"/>
<path d="M28.2205 15.1585C28.2219 16.1075 28.036 17.0475 27.6734 17.9246C27.3109 18.8017 26.7788 19.5986 26.1078 20.2697C25.9675 20.4109 25.8891 20.6019 25.8898 20.8009C25.8904 20.9998 25.97 21.1904 26.1112 21.3306C26.2523 21.4708 26.4433 21.5493 26.6423 21.5486C26.8412 21.548 27.0318 21.4684 27.172 21.3272C28.7944 19.684 29.7041 17.4677 29.7041 15.1585C29.7041 12.8493 28.7944 10.633 27.172 8.98974C27.0318 8.84851 26.8412 8.76877 26.6422 8.76807C26.4432 8.76737 26.252 8.84575 26.1108 8.98599C25.9695 9.12622 25.8898 9.31681 25.8891 9.51584C25.8884 9.71486 25.9668 9.90601 26.107 10.0472C26.7782 10.7183 27.3104 11.5152 27.6731 12.3922C28.0358 13.2693 28.2218 14.2094 28.2205 15.1585ZM15.3595 21.5485C15.5066 21.5462 15.6499 21.501 15.7716 21.4184C15.8934 21.3358 15.9884 21.2195 16.0449 21.0837C16.1015 20.9478 16.1172 20.7985 16.09 20.6539C16.0628 20.5093 15.994 20.3758 15.892 20.2697C14.5472 18.9085 13.7931 17.072 13.7931 15.1585C13.7931 13.245 14.5472 11.4085 15.892 10.0472C15.9615 9.97731 16.0164 9.89439 16.0538 9.80321C16.0912 9.71203 16.1103 9.61438 16.1099 9.51584C16.1096 9.41729 16.0898 9.31978 16.0518 9.22887C16.0138 9.13795 15.9582 9.05542 15.8883 8.98599C15.8183 8.91655 15.7354 8.86157 15.6442 8.82418C15.5531 8.78679 15.4554 8.76772 15.3569 8.76807C15.2583 8.76842 15.1608 8.78817 15.0699 8.82621C14.979 8.86424 14.8965 8.91981 14.827 8.98974C13.2046 10.633 12.2949 12.8493 12.2949 15.1585C12.2949 17.4677 13.2046 19.684 14.827 21.3272C14.8967 21.3976 14.9797 21.4533 15.0711 21.4913C15.1625 21.5293 15.2605 21.5487 15.3595 21.5485Z" fill="#19517E"/>
<path d="M20.9995 20.1876C22.3337 20.186 23.6129 19.6553 24.5563 18.7119C25.4997 17.7684 26.0304 16.4893 26.032 15.1551C25.7935 8.50484 16.2048 8.50634 15.967 15.1551C15.9684 16.4894 16.4991 17.7686 17.4425 18.7121C18.386 19.6555 19.6653 20.1862 20.9995 20.1876ZM23.9095 20.9976C23.0065 21.4511 22.01 21.6873 20.9995 21.6873C19.989 21.6873 18.9925 21.4511 18.0895 20.9976L12.1195 36.8676C11.9945 37.2084 11.9532 37.5742 11.9992 37.9343C12.0451 38.2944 12.1769 38.6382 12.3835 38.9367C12.5901 39.2352 12.8654 39.4796 13.1863 39.6495C13.5071 39.8193 13.864 39.9096 14.227 39.9126H27.772C28.1364 39.9134 28.4955 39.8256 28.8184 39.6568C29.1413 39.488 29.4183 39.2433 29.6257 38.9437C29.8331 38.6441 29.9645 38.2986 30.0087 37.937C30.0529 37.5753 30.0086 37.2083 29.8795 36.8676L23.9095 20.9976Z" fill="#19517E"/>
</svg>
