<svg width="32" height="32" viewBox="0 0 32 32" fill="none" xmlns="http://www.w3.org/2000/svg">
<g clip-path="url(#clip0_3780_97)">
<path d="M5.64079 17.8469C5.64079 17.1251 5.35947 16.4728 4.91041 15.9748C5.35947 15.4768 5.64079 14.8245 5.64079 14.1027C5.64079 12.5542 4.3811 11.2945 2.8326 11.2945H0.0244141V20.6551H2.8326C4.3811 20.6551 5.64079 19.3954 5.64079 17.8469ZM1.89654 13.1666H2.8326C3.34906 13.1666 3.76867 13.5862 3.76867 14.1027C3.76867 14.6191 3.34906 15.0388 2.8326 15.0388H1.89654V13.1666ZM1.89654 16.9109H2.8326C3.34906 16.9109 3.76867 17.3305 3.76867 17.8469C3.76867 18.3634 3.34906 18.783 2.8326 18.783H1.89654V16.9109ZM12.2178 14.1027C12.2178 12.5542 10.9581 11.2945 9.40963 11.2945H6.60144V20.6551H8.47357V16.9109H8.83102L10.8631 20.9751L12.5378 20.1377L10.7471 16.5564C11.6186 16.0793 12.2178 15.1644 12.2178 14.1027ZM8.47357 15.0388V13.1666H9.40963C9.92609 13.1666 10.3457 13.5862 10.3457 14.1027C10.3457 14.6191 9.92609 15.0388 9.40963 15.0388H8.47357ZM18.7703 20.6551V14.1027C18.7703 12.5542 17.5106 11.2945 15.9621 11.2945C14.4136 11.2945 13.1539 12.5542 13.1539 14.1027V20.6551H15.026V16.9109H16.8981V20.6551H18.7703ZM15.026 15.0388V14.1027C15.026 13.5862 15.4456 13.1666 15.9621 13.1666C16.4785 13.1666 16.8981 13.5862 16.8981 14.1027V15.0388H15.026ZM29.1672 11.2945H26.2588V20.6551H29.1672C30.7157 20.6551 31.9754 19.3954 31.9754 17.8469V14.1027C31.9754 12.5541 30.7157 11.2945 29.1672 11.2945ZM30.1032 17.8469C30.1032 18.3634 29.6836 18.783 29.1672 18.783H28.1309V13.1666H29.1672C29.6836 13.1666 30.1032 13.5862 30.1032 14.1027V17.8469ZM22.7193 20.6551H25.3227V11.2945H23.4506V15.8596L22.3098 11.2945H19.7063V20.6551H21.5784V16.09L22.7193 20.6551ZM27.8513 7.55025C27.8437 7.49439 27.8285 7.44023 27.831 7.38207L27.8301 6.98717C27.8594 6.22204 27.5613 5.46882 27.0147 4.92397C26.4681 4.3755 25.7112 4.07751 24.9853 4.10585H24.5329C24.1654 4.09674 23.7915 3.88369 23.637 3.47326L23.489 3.13409C23.2239 2.39728 22.6507 1.81137 21.9551 1.54534C21.264 1.24187 20.4587 1.25011 19.7474 1.55994L19.3507 1.73087C18.9805 1.89268 18.5655 1.81037 18.2712 1.49685L18.0061 1.23357C16.9896 0.100058 14.8999 0.136627 13.9528 1.197L13.6311 1.51876C13.3596 1.80943 12.9446 1.89175 12.5698 1.729L12.1831 1.56356C11.4646 1.24636 10.6575 1.24087 10.0093 1.52793C9.27347 1.81131 8.70028 2.39728 8.45622 3.08011L8.27063 3.51525C8.13259 3.88363 7.76328 4.12681 7.36933 4.10578L6.97443 4.10672C6.19014 4.08294 5.45701 4.37637 4.91122 4.92209C4.36275 5.46875 4.06477 6.22197 4.09311 6.95148L4.09404 7.42594C4.09585 7.46469 4.06103 7.50912 4.05598 7.55025H0.0244141V9.42237H31.9754V7.55025H27.8513ZM0.0244141 22.5273V24.3994H4.07289C4.08044 24.4552 4.0956 24.5094 4.09311 24.5676L4.09404 24.9625C4.06477 25.7276 4.36282 26.4808 4.90941 27.0257C5.45608 27.5741 6.1965 27.8557 6.9388 27.8438H7.39129C7.71124 27.8347 8.13172 28.065 8.2871 28.4764L8.43519 28.8155C8.70028 29.5523 9.27347 30.1383 9.96908 30.4043C10.6593 30.7078 11.4655 30.7005 12.1767 30.3897L12.5734 30.2188C12.9464 30.0569 13.3586 30.1393 13.653 30.4528L13.9181 30.7161C14.4264 31.2828 15.1713 31.6073 15.9621 31.6073C16.7528 31.6073 17.4978 31.2828 17.9713 30.7526L18.2931 30.4309C18.5655 30.1402 18.9814 30.057 19.3544 30.2206L19.741 30.3861C20.4568 30.7015 21.2639 30.7069 21.9148 30.4217C22.6507 30.1383 23.2239 29.5523 23.4679 28.8695L23.6535 28.4344C23.7916 28.066 24.1334 27.8283 24.5548 27.8438L24.9497 27.8429C25.7468 27.8886 26.4681 27.5741 27.0129 27.0275C27.5614 26.4809 27.8594 25.7277 27.831 24.9981L27.8301 24.5237C27.8283 24.4849 27.8631 24.4405 27.8682 24.3994H31.9753V22.5273H0.0244141Z" fill="#0A5183"/>
<path d="M5.64079 17.8469C5.64079 17.125 5.35947 16.4727 4.91041 15.9747C5.35947 15.4768 5.64079 14.8245 5.64079 14.1026C5.64079 12.5541 4.3811 11.2944 2.8326 11.2944H0.0244141V20.6551H2.8326C4.3811 20.6551 5.64079 19.3954 5.64079 17.8469ZM1.89654 13.1666H2.8326C3.34906 13.1666 3.76867 13.5862 3.76867 14.1026C3.76867 14.6191 3.34906 15.0387 2.8326 15.0387H1.89654V13.1666ZM1.89654 16.9108H2.8326C3.34906 16.9108 3.76867 17.3304 3.76867 17.8469C3.76867 18.3633 3.34906 18.7829 2.8326 18.7829H1.89654V16.9108ZM12.2178 14.1026C12.2178 12.5541 10.9581 11.2944 9.40963 11.2944H6.60144V20.6551H8.47357V16.9108H8.83102L10.8631 20.975L12.5378 20.1377L10.7471 16.5564C11.6186 16.0792 12.2178 15.1644 12.2178 14.1026ZM8.47357 15.0387V13.1666H9.40963C9.92609 13.1666 10.3457 13.5862 10.3457 14.1026C10.3457 14.6191 9.92609 15.0387 9.40963 15.0387H8.47357ZM18.7703 20.6551V14.1026C18.7703 12.5541 17.5106 11.2944 15.9621 11.2944C14.4136 11.2944 13.1539 12.5541 13.1539 14.1026V20.6551H15.026V16.9108H16.8981V20.6551H18.7703ZM15.026 15.0387V14.1026C15.026 13.5862 15.4456 13.1666 15.9621 13.1666C16.4785 13.1666 16.8981 13.5862 16.8981 14.1026V15.0387H15.026ZM29.1672 11.2944H26.2588V20.6551H29.1672C30.7157 20.6551 31.9754 19.3954 31.9754 17.8469V14.1026C31.9754 12.5541 30.7157 11.2944 29.1672 11.2944ZM30.1032 17.8469C30.1032 18.3633 29.6836 18.7829 29.1672 18.7829H28.1309V13.1666H29.1672C29.6836 13.1666 30.1032 13.5862 30.1032 14.1026V17.8469ZM22.7193 20.6551H25.3227V11.2944H23.4506V15.8595L22.3098 11.2944H19.7063V20.6551H21.5784V16.0899L22.7193 20.6551Z" fill="#9BC482"/>
</g>
<defs>
<clipPath id="clip0_3780_97">
<rect width="32" height="32" fill="white"/>
</clipPath>
</defs>
</svg>
