<svg width="33" height="32" viewBox="0 0 33 32" fill="none" xmlns="http://www.w3.org/2000/svg">
<g clip-path="url(#clip0_3780_89)">
<path d="M10.7394 9.43744H15.5625V2.03125C13.5491 2.69238 11.7384 5.5185 10.7394 9.43744ZM10.7394 22.5624C11.7384 26.4814 13.5491 29.3075 15.5625 29.9686V22.5624H10.7394ZM31.5625 11.3124H1.4375C0.91975 11.3124 0.5 11.7321 0.5 12.2499V19.7499C0.5 20.2677 0.91975 20.6874 1.4375 20.6874H31.5625C32.0802 20.6874 32.5 20.2677 32.5 19.7499V12.2499C32.5 11.7321 32.0802 11.3124 31.5625 11.3124ZM30.4636 14.5443L28.5886 18.2943C28.5107 18.45 28.391 18.5809 28.2429 18.6724C28.0948 18.7639 27.9241 18.8124 27.75 18.8124C27.5759 18.8124 27.4052 18.7639 27.2571 18.6724C27.109 18.5809 26.9893 18.45 26.9114 18.2943L25.875 16.2215L24.8386 18.2943C24.52 18.9296 23.48 18.9296 23.1614 18.2943L21.3651 14.7008C21.2571 14.5682 21.1955 14.4016 21.1755 14.2237C21.1639 14.3321 21.1402 14.441 21.0886 14.5443L19.2136 18.2943C19.1357 18.45 19.016 18.5809 18.8679 18.6724C18.7198 18.7639 18.5491 18.8124 18.375 18.8124C18.2009 18.8124 18.0302 18.7639 17.8821 18.6724C17.734 18.5809 17.6143 18.45 17.5364 18.2943L16.5 16.2215L15.4636 18.2943C15.145 18.9296 14.105 18.9296 13.7864 18.2943L11.9114 14.5443C11.8617 14.4449 11.8403 14.3401 11.8278 14.2358C11.8042 14.4378 11.728 14.6219 11.6046 14.7621L9.83856 18.2943C9.76066 18.45 9.64096 18.5809 9.49285 18.6724C9.34474 18.7639 9.17407 18.8124 8.99997 18.8124C8.82587 18.8124 8.6552 18.7639 8.50709 18.6724C8.35898 18.5809 8.23927 18.45 8.16138 18.2943L7.125 16.2215L6.08862 18.2943C5.92931 18.6119 5.60525 18.8124 5.25 18.8124C4.89475 18.8124 4.57069 18.6119 4.41138 18.2943L2.53638 14.5443C2.30475 14.081 2.49244 13.5179 2.95569 13.2863C3.418 13.0574 3.98019 13.2414 4.21362 13.7056L5.25 15.7784L6.28638 13.7056C6.61806 13.0401 7.61688 13.0121 7.96362 13.7056L9 15.7784L10.0364 13.7056C10.2048 13.3687 10.5591 13.1856 10.9354 13.1893C11.42 13.2211 11.8052 13.6207 11.8256 14.0961C11.8368 13.7635 12.0121 13.4456 12.3307 13.2862C12.7949 13.0574 13.3561 13.2414 13.5886 13.7056L14.625 15.7784L15.6614 13.7056C15.98 13.0703 17.02 13.0703 17.3386 13.7056L18.375 15.7784L19.4114 13.7056C19.643 13.2414 20.2061 13.0574 20.6693 13.2863C20.9852 13.4442 21.1593 13.7581 21.1733 14.0875C21.1915 13.6166 21.5264 13.2245 22.0077 13.1929C22.3941 13.1838 22.7951 13.3688 22.9636 13.7056L24 15.7784L25.0364 13.7056C25.355 13.0703 26.395 13.0703 26.7136 13.7056L27.75 15.7784L28.7864 13.7056C29.0189 13.2414 29.5801 13.0574 30.0443 13.2863C30.5076 13.5179 30.6952 14.081 30.4636 14.5443ZM17.4375 22.5624V29.9686C19.4509 29.3075 21.2616 26.4814 22.2606 22.5624H17.4375ZM17.4375 2.03125V9.43744H22.2606C21.2616 5.5185 19.4509 2.69238 17.4375 2.03125Z" fill="#9BC482"/>
<path d="M8.81362 22.5625H2.03394C4.5965 28.1889 10.2708 32 16.4999 32C13.1133 32 10.1547 28.2704 8.81362 22.5625ZM24.1862 22.5625C22.8451 28.2704 19.8866 32 16.4999 32C22.7291 32 28.4034 28.1889 30.9659 22.5625H24.1862ZM2.03394 9.4375H8.81362C10.1547 3.72963 13.1133 0 16.4999 0C10.2708 0 4.5965 3.81112 2.03394 9.4375ZM16.4999 0C19.8866 0 22.8451 3.72963 24.1862 9.4375H30.9659C28.4034 3.81112 22.7291 0 16.4999 0Z" fill="#0A5183"/>
</g>
<defs>
<clipPath id="clip0_3780_89">
<rect width="32" height="32" fill="white" transform="translate(0.5)"/>
</clipPath>
</defs>
</svg>
