<svg width="48" height="48" viewBox="0 0 48 48" fill="none" xmlns="http://www.w3.org/2000/svg">
<path d="M23.9999 1.50013C23.7695 1.49732 23.5416 1.54829 23.3343 1.649C23.1269 1.74971 22.946 1.89739 22.8058 2.08029C22.6655 2.26318 22.5699 2.47627 22.5264 2.70261C22.483 2.92895 22.4929 3.1623 22.5554 3.38413L16.8839 9.05563C16.6333 8.98162 16.3666 8.98162 16.1159 9.05563L12.6944 5.63413C12.7568 5.41121 12.7668 5.17688 12.7235 4.94947C12.6802 4.72207 12.5849 4.50777 12.445 4.32334C12.3051 4.13891 12.1244 3.98937 11.9171 3.88641C11.7098 3.78345 11.4814 3.72988 11.2499 3.72988C11.0185 3.72988 10.7901 3.78345 10.5828 3.88641C10.3755 3.98937 10.1948 4.13891 10.0549 4.32334C9.91498 4.50777 9.81966 4.72207 9.77639 4.94947C9.73311 5.17688 9.74306 5.41121 9.80544 5.63413L5.63394 9.80563C5.30938 9.71537 4.96406 9.73515 4.65192 9.86186C4.33978 9.98857 4.07839 10.2151 3.90857 10.506C3.73876 10.797 3.67008 11.136 3.71327 11.4701C3.75645 11.8042 3.90906 12.1146 4.14727 12.3528C4.38549 12.591 4.69588 12.7436 5.02998 12.7868C5.36408 12.83 5.70308 12.7613 5.99403 12.5915C6.28498 12.4217 6.5115 12.1603 6.63821 11.8482C6.76493 11.536 6.7847 11.1907 6.69444 10.8661L10.8659 6.69463C11.1166 6.76864 11.3833 6.76864 11.6339 6.69463L15.0554 10.1161C14.9931 10.339 14.9831 10.5734 15.0264 10.8008C15.0697 11.0282 15.165 11.2425 15.3049 11.4269C15.4448 11.6113 15.6255 11.7609 15.8328 11.8638C16.0401 11.9668 16.2685 12.0204 16.4999 12.0204C16.7314 12.0204 16.9598 11.9668 17.1671 11.8638C17.3744 11.7609 17.5551 11.6113 17.695 11.4269C17.8349 11.2425 17.9302 11.0282 17.9735 10.8008C18.0168 10.5734 18.0068 10.339 17.9444 10.1161L23.6159 4.44463C23.823 4.50252 24.0402 4.5152 24.2526 4.48182C24.465 4.44844 24.6678 4.36977 24.8471 4.25116C25.0265 4.13255 25.1783 3.97676 25.2921 3.79436C25.406 3.61196 25.4793 3.4072 25.5071 3.19398C25.5349 2.98075 25.5166 2.76404 25.4533 2.55853C25.39 2.35302 25.2833 2.16353 25.1403 2.00288C24.9974 1.84224 24.8216 1.71421 24.6248 1.62746C24.4281 1.54072 24.215 1.49729 23.9999 1.50013ZM38.2499 18.0001V30.7501H42.7499V5.25013H40.4999C40.301 5.25013 40.1103 5.17111 39.9696 5.03046C39.829 4.88981 39.7499 4.69904 39.7499 4.50013V2.25013H32.2499V4.50013C32.2499 4.69904 32.1709 4.88981 32.0303 5.03046C31.8896 5.17111 31.6989 5.25013 31.4999 5.25013H29.2499V17.2501H37.4999C37.6989 17.2501 37.8896 17.3291 38.0303 17.4698C38.1709 17.6105 38.2499 17.8012 38.2499 18.0001Z" fill="#19517E"/>
<path d="M44.25 45.75V32.25H34.5V45.75H33V31.5C33 31.3011 33.079 31.1103 33.2197 30.9697C33.3603 30.829 33.5511 30.75 33.75 30.75H36.75V18.75H23.25V32.25H26.25C26.4489 32.25 26.6397 32.329 26.7803 32.4697C26.921 32.6103 27 32.8011 27 33V45.75H25.5V33.75H13.5V45.75H12V33C12 32.8011 12.079 32.6103 12.2197 32.4697C12.3603 32.329 12.5511 32.25 12.75 32.25H18.75V18.75H3.75V45.75H0.75V47.25H47.25V45.75H44.25ZM36 35.25H42.75V36.75H36V35.25ZM36 38.25H42.75V39.75H36V38.25ZM36 41.25H42.75V42.75H36V41.25ZM12.75 21H15.75V24H12.75V21ZM12.75 27H15.75V30H12.75V27ZM6.75 21H9.75V24H6.75V21ZM6.75 27H9.75V30H6.75V27ZM6.75 33H9.75V36H6.75V33ZM6.75 39H9.75V42H6.75V39Z" fill="#19517E"/>
</svg>
