<svg width="48" height="48" viewBox="0 0 48 48" fill="none" xmlns="http://www.w3.org/2000/svg">
<g clip-path="url(#clip0_1243_178114)">
<path d="M46.6162 18.0189C46.4717 18.0536 46.3469 18.1441 46.2689 18.2706C46.1909 18.397 46.1661 18.5492 46.1999 18.6939C46.6099 20.4342 46.8176 22.216 46.8187 24.0039C46.8114 30.0536 44.405 35.8534 40.1272 40.1312C35.8494 44.409 30.0496 46.8154 23.9999 46.8226C19.0312 46.8401 14.1957 45.216 10.2449 42.2026C10.7754 41.4117 10.9873 40.4495 10.8383 39.5088C10.6893 38.5682 10.1902 37.7187 9.44124 37.1304C8.69224 36.5422 7.74861 36.2588 6.79945 36.3369C5.8503 36.4151 4.96575 36.8491 4.32307 37.5519C3.68039 38.2547 3.32707 39.1745 3.33392 40.1268C3.34076 41.0792 3.70727 41.9938 4.35998 42.6873C5.01269 43.3808 5.90339 43.802 6.85357 43.8665C7.80375 43.931 8.74321 43.6341 9.48368 43.0351C13.6435 46.2376 18.7502 47.9658 23.9999 47.9476C27.6165 47.9437 31.1853 47.1215 34.439 45.5425C37.6927 43.9636 40.547 41.6688 42.7879 38.8301C45.0288 35.9915 46.5983 32.6825 47.3788 29.1512C48.1594 25.6198 48.1307 21.9576 47.2949 18.4389C47.2782 18.3666 47.2473 18.2984 47.204 18.2381C47.1608 18.1778 47.106 18.1267 47.043 18.0876C46.9799 18.0486 46.9097 18.0224 46.8364 18.0106C46.7632 17.9988 46.6883 18.0016 46.6162 18.0189ZM1.18117 24.0039C1.18142 19.945 2.26425 15.9595 4.31802 12.4585C6.37179 8.95752 9.32218 6.06765 12.865 4.08686C16.4078 2.10607 20.4148 1.10604 24.4729 1.1899C28.5309 1.27375 32.4932 2.43845 35.9512 4.5639C35.5943 5.3275 35.5371 6.19729 35.7911 7.00101C36.0451 7.80473 36.5917 8.48375 37.3226 8.90359C38.0535 9.32342 38.9154 9.45345 39.7376 9.26792C40.5598 9.08239 41.2824 8.59483 41.7622 7.90181C42.242 7.20878 42.444 6.36085 42.3282 5.52594C42.2125 4.69103 41.7873 3.93005 41.1371 3.39371C40.4869 2.85737 39.6589 2.5848 38.8172 2.62997C37.9755 2.67515 37.1815 3.03479 36.5924 3.63765C32.9653 1.39541 28.8052 0.162437 24.542 0.0661635C20.2789 -0.0301098 16.0674 1.01381 12.3427 3.09002C8.61805 5.16624 5.5154 8.19944 3.3554 11.8761C1.19541 15.5528 0.0564266 19.7397 0.0561749 24.0039C0.0541584 25.4655 0.187224 26.9242 0.453675 28.3614C0.476545 28.4909 0.544375 28.6081 0.645216 28.6925C0.746057 28.7769 0.87344 28.823 1.00492 28.8226C1.03898 28.8226 1.07294 28.8188 1.10617 28.8114C1.25281 28.7849 1.38294 28.7013 1.46801 28.579C1.55308 28.4567 1.58614 28.3056 1.55992 28.1589C1.30714 26.7884 1.18036 25.3976 1.18117 24.0039Z" fill="#19517E"/>
<path d="M20.625 20.2877V20.6252H27.375V20.2877C27.3225 15.7277 20.6775 15.7277 20.625 20.2877Z" fill="#19517E"/>
<path d="M39.7313 12.3152C33.4013 12.3789 27.3113 8.46767 24.9825 6.78017C24.6966 6.57359 24.3528 6.4624 24 6.4624C23.6473 6.4624 23.3035 6.57359 23.0175 6.78017C20.6888 8.46767 14.5838 12.3639 8.26877 12.3152C8.0445 12.3129 7.822 12.3551 7.61409 12.4392C7.40617 12.5233 7.21695 12.6477 7.05732 12.8053C6.89768 12.9628 6.77079 13.1504 6.68394 13.3572C6.59709 13.564 6.552 13.7859 6.55127 14.0102C6.55502 22.6689 8.28752 35.0552 23.2388 42.6227C23.4745 42.7429 23.7354 42.8055 24 42.8055C24.2646 42.8055 24.5255 42.7429 24.7613 42.6227C39.7125 35.0552 41.445 22.6689 41.4488 14.0102C41.4454 13.5578 41.2626 13.1252 40.9406 12.8074C40.6186 12.4896 40.1837 12.3126 39.7313 12.3152ZM30.1875 29.4377C30.1875 30.1836 29.8912 30.899 29.3638 31.4264C28.8363 31.9539 28.1209 32.2502 27.375 32.2502H20.625C19.8791 32.2502 19.1637 31.9539 18.6363 31.4264C18.1088 30.899 17.8125 30.1836 17.8125 29.4377V23.4377C17.8128 22.8907 17.9726 22.3556 18.2723 21.898C18.572 21.4405 18.9987 21.0802 19.5 20.8614V20.2802C19.5675 14.2614 28.4325 14.2614 28.5 20.2802V20.8614C29.0014 21.0802 29.428 21.4405 29.7277 21.898C30.0275 22.3556 30.1872 22.8907 30.1875 23.4377V29.4377Z" fill="#19517E"/>
<path d="M24.921 25.792C24.9126 25.7416 24.915 25.6901 24.9279 25.6407C24.9408 25.5913 24.964 25.5453 24.996 25.5055C25.1216 25.3238 25.1951 25.1113 25.2086 24.8908C25.2221 24.6704 25.175 24.4505 25.0724 24.2549C24.9699 24.0593 24.8158 23.8955 24.6268 23.7812C24.4378 23.6669 24.2212 23.6064 24.0003 23.6064C23.7795 23.6064 23.5629 23.6669 23.3739 23.7812C23.1849 23.8955 23.0308 24.0593 22.9283 24.2549C22.8257 24.4505 22.7786 24.6704 22.7921 24.8908C22.8056 25.1113 22.8791 25.3238 23.0047 25.5055C23.0365 25.5448 23.0596 25.5905 23.0725 25.6394C23.0855 25.6883 23.0879 25.7394 23.0797 25.7893C22.9916 26.2285 22.7422 27.484 22.5663 28.3555C22.545 28.4642 22.5479 28.5762 22.575 28.6837C22.6021 28.7911 22.6527 28.8912 22.7231 28.9767C22.7935 29.0623 22.8819 29.1311 22.9821 29.1784C23.0823 29.2257 23.1917 29.2502 23.3025 29.2502H24.6975C24.8085 29.2502 24.9181 29.2257 25.0184 29.1782C25.1187 29.1308 25.2073 29.0617 25.2777 28.9758C25.348 28.89 25.3985 28.7897 25.4254 28.682C25.4523 28.5743 25.455 28.462 25.4332 28.3532L24.921 25.792Z" fill="#19517E"/>
</g>
<defs>
<clipPath id="clip0_1243_178114">
<rect width="48" height="48" fill="white"/>
</clipPath>
</defs>
</svg>
