<svg width="46" height="48" viewBox="0 0 46 48" fill="none" xmlns="http://www.w3.org/2000/svg">
<path d="M32.024 18.048L23 12.864L13.976 18.048L23 23.328L32.024 18.048ZM24.44 25.824V34.272L33.464 29.088V20.64L24.44 25.824ZM21.56 25.824L12.536 20.64V29.088L21.56 34.272V25.824ZM24.056 39.936H23.768V37.152C23.768 36.768 23.48 36.384 23 36.384C22.52 36.384 22.232 36.672 22.232 37.152V39.936H21.944C20.504 39.936 19.16 41.088 19.16 42.72V44.832C19.16 46.272 20.312 47.616 21.944 47.616H24.056C25.496 47.616 26.84 46.464 26.84 44.832V42.72C26.84 41.184 25.592 39.936 24.056 39.936ZM42.872 34.752H42.584V31.104C42.584 30.72 42.296 30.336 41.816 30.336H39.128C38.84 29.184 37.784 28.416 36.44 28.416C35 28.416 33.656 29.568 33.656 31.2C33.656 32.64 34.808 33.984 36.44 33.984C37.688 33.984 38.648 33.12 39.128 32.064H41.048V34.944H40.76C39.32 34.944 37.976 36.096 37.976 37.728V39.84C37.976 41.28 39.128 42.624 40.76 42.624H42.872C44.312 42.624 45.656 41.472 45.656 39.84V37.728C45.656 35.904 44.408 34.752 42.872 34.752ZM21.944 8.06398H22.232V10.848C22.232 11.232 22.52 11.616 23 11.616C23.48 11.616 23.768 11.328 23.768 10.848V8.06398H24.056C25.496 8.06398 26.84 6.91198 26.84 5.27998V3.26398C26.84 1.82398 25.688 0.47998 24.056 0.47998H21.944C20.504 0.47998 19.16 1.63198 19.16 3.26398V5.37598C19.16 6.81598 20.408 8.06398 21.944 8.06398ZM42.872 5.66398H40.76C39.32 5.66398 37.976 6.81598 37.976 8.44798V10.56C37.976 12 39.128 13.344 40.76 13.344H41.144V16.224H39.224C38.936 15.072 37.88 14.304 36.536 14.304C35.096 14.304 33.752 15.456 33.752 17.088C33.752 18.528 34.904 19.872 36.536 19.872C37.784 19.872 38.744 19.008 39.224 17.952H41.912C42.296 17.952 42.68 17.664 42.68 17.184V13.536H42.968C44.408 13.536 45.752 12.384 45.752 10.752V8.44798C45.656 6.81598 44.408 5.66398 42.872 5.66398ZM9.46399 28.416C8.21599 28.416 7.25599 29.28 6.77599 30.336H4.18399C3.79999 30.336 3.41599 30.624 3.41599 31.104V34.752H3.12799C1.68799 34.752 0.343994 35.904 0.343994 37.536V39.648C0.343994 41.088 1.49599 42.432 3.12799 42.432H5.23999C6.67999 42.432 8.02399 41.28 8.02399 39.648V37.536C8.02399 36.096 6.87199 34.752 5.23999 34.752H4.85599V31.872H6.77599C7.06399 33.024 8.11999 33.792 9.46399 33.792C10.904 33.792 12.248 32.64 12.248 31.008C12.248 29.664 10.904 28.416 9.46399 28.416ZM9.46399 14.112C8.21599 14.112 7.25599 14.976 6.77599 16.032H4.85599V13.152H5.14399C6.58399 13.152 7.92799 12 7.92799 10.368V8.44798C7.92799 7.00798 6.77599 5.66398 5.14399 5.66398H3.12799C1.59199 5.66398 0.343994 6.81598 0.343994 8.44798V10.56C0.343994 12 1.49599 13.344 3.12799 13.344H3.41599V16.992C3.41599 17.376 3.70399 17.76 4.18399 17.76H6.87199C7.15999 18.912 8.21599 19.68 9.55999 19.68C11 19.68 12.344 18.528 12.344 16.896C12.248 15.36 10.904 14.112 9.46399 14.112Z" fill="#19517E"/>
</svg>
