<svg width="46" height="48" viewBox="0 0 46 48" fill="none" xmlns="http://www.w3.org/2000/svg">
<path d="M10.6639 27.3567H35.3549C37.0519 27.3567 38.4402 26.09 38.4402 24.5417V18.9117C38.4402 17.3634 37.0519 16.0967 35.3549 16.0967H10.6639C8.96696 16.0967 7.57861 17.3634 7.57861 18.9117V24.5417C7.57871 26.09 8.96696 27.3567 10.6639 27.3567ZM31.4545 20.3192C32.2297 20.3192 32.862 20.9514 32.862 21.7266C32.79 23.591 30.1188 23.5905 30.047 21.7266C30.047 20.9515 30.6792 20.3192 31.4545 20.3192ZM25.8245 20.3192C26.5997 20.3192 27.232 20.9514 27.232 21.7266C27.16 23.591 24.4888 23.5905 24.417 21.7266C24.417 20.9515 25.0493 20.3192 25.8245 20.3192ZM14.5646 20.3192H20.1945C22.0581 20.3875 22.0604 23.0649 20.1945 23.1341H14.5646C13.7873 23.1341 13.1571 22.504 13.1571 21.7266C13.1571 20.9493 13.7872 20.3192 14.5646 20.3192ZM35.5071 30.1716H10.8161C9.11916 30.1716 7.73081 31.4383 7.73081 32.9866V38.6167C7.73081 40.1649 9.11916 41.4316 10.8161 41.4316H35.5071C37.2041 41.4316 38.5924 40.1649 38.5924 38.6167V32.9866C38.5924 31.4383 37.2041 30.1716 35.5071 30.1716ZM20.2051 37.2091H14.5752C12.7116 37.1408 12.7093 34.4633 14.5752 34.3941H20.2051C20.9824 34.3941 21.6126 35.0243 21.6126 35.8016C21.6126 36.5789 20.9824 37.2091 20.2051 37.2091ZM25.835 37.2091C25.0599 37.2091 24.4275 36.5768 24.4275 35.8016C24.4995 33.9371 27.1707 33.9377 27.2425 35.8016C27.2425 36.5768 26.6103 37.2091 25.835 37.2091ZM31.4651 37.2091C30.6899 37.2091 30.0576 36.5768 30.0576 35.8016C30.1296 33.9371 32.8008 33.9377 32.8726 35.8016C32.8725 36.5768 32.2402 37.2091 31.4651 37.2091ZM31.0858 45.1849H24.4237V44.2465H21.6087V45.1849H14.9466C14.1692 45.1849 13.5391 45.815 13.5391 46.5924C13.5391 47.3697 14.1692 47.9998 14.9466 47.9998H31.0858C32.9458 47.9331 32.9549 45.2552 31.0858 45.1849Z" fill="#19517E"/>
<path d="M41.3742 7.53912C39.1324 5.84787 36.3707 5.18438 33.6558 5.65495C28.7862 -1.88592 17.2445 -1.88405 12.3765 5.65495C1.96449 4.02874 -3.6545 17.1961 4.76362 23.5804V18.9118C4.76362 15.8075 7.41046 13.2819 10.6639 13.2819H35.3549C38.6084 13.2819 41.2552 15.8075 41.2552 18.9118V23.5827C46.5578 19.8598 46.7449 11.4257 41.3742 7.53912Z" fill="#19517E"/>
</svg>
