<svg width="43" height="42" viewBox="0 0 43 42" fill="none" xmlns="http://www.w3.org/2000/svg">
<path d="M22.5 0H4.5C3.30653 0 2.16193 0.474106 1.31802 1.31802C0.474106 2.16193 0 3.30653 0 4.5V37.5C0 38.6935 0.474106 39.8381 1.31802 40.682C2.16193 41.5259 3.30653 42 4.5 42H22.5C23.6935 42 24.8381 41.5259 25.682 40.682C26.5259 39.8381 27 38.6935 27 37.5V4.5C27 3.30653 26.5259 2.16193 25.682 1.31802C24.8381 0.474106 23.6935 0 22.5 0ZM25.5 36.75C25.5 38.817 23.8185 40.5 21.75 40.5H5.25C4.2558 40.4988 3.30267 40.1033 2.59966 39.4003C1.89666 38.6973 1.50119 37.7442 1.5 36.75V5.25C1.5 3.183 3.183 1.5 5.25 1.5H21.75C23.8185 1.5 25.5 3.183 25.5 5.25V36.75Z" fill="#19517E"/>
<path d="M21.75 3H16.5C16.5 3.79565 16.1839 4.55871 15.6213 5.12132C15.0587 5.68393 14.2956 6 13.5 6C12.7044 6 11.9413 5.68393 11.3787 5.12132C10.8161 4.55871 10.5 3.79565 10.5 3H5.25C4.0095 3 3 4.0095 3 5.25V36.75C3 37.9905 4.0095 39 5.25 39H21.75C22.9905 39 24 37.9905 24 36.75V5.25C24 4.0095 22.9905 3 21.75 3ZM11.745 25.686C11.8946 25.8173 11.9859 26.0026 11.9988 26.2012C12.0118 26.3998 11.9453 26.5954 11.814 26.745C11.6827 26.8946 11.4974 26.9859 11.2988 26.9988C11.1002 27.0118 10.9046 26.9453 10.755 26.814L4.755 21.564C4.67469 21.4936 4.61035 21.4069 4.56626 21.3096C4.52218 21.2123 4.49937 21.1068 4.49937 21C4.49937 20.8932 4.52218 20.7877 4.56626 20.6904C4.61035 20.5931 4.67469 20.5064 4.755 20.436L10.755 15.186C10.905 15.0563 11.1001 14.9913 11.2979 15.0051C11.4956 15.019 11.6799 15.1105 11.8103 15.2598C11.9408 15.4091 12.0068 15.6039 11.994 15.8018C11.9812 15.9996 11.8906 16.1843 11.742 16.3155L6.39 21L11.745 25.686ZM22.245 21.564L16.245 26.814C16.1711 26.8795 16.085 26.9297 15.9916 26.9617C15.8981 26.9936 15.7993 27.0067 15.7008 27.0002C15.6022 26.9936 15.506 26.9675 15.4176 26.9235C15.3293 26.8794 15.2505 26.8182 15.186 26.7435C15.0553 26.5939 14.9893 26.3984 15.0025 26.2002C15.0157 26.0019 15.1071 25.817 15.2565 25.686L20.61 21L15.255 16.314C15.1142 16.1808 15.0305 15.9982 15.0214 15.8046C15.0123 15.6109 15.0785 15.4213 15.2062 15.2755C15.3338 15.1296 15.513 15.0388 15.7061 15.0221C15.8992 15.0054 16.0912 15.0642 16.242 15.186L22.242 20.436C22.3223 20.5064 22.3867 20.5931 22.4307 20.6904C22.4748 20.7877 22.4976 20.8932 22.4976 21C22.4976 21.1068 22.4748 21.2123 22.4307 21.3096C22.3867 21.4069 22.3223 21.4936 22.242 21.564H22.245ZM41.2365 23.8455L39.123 22.653C39.2055 22.095 39.246 21.543 39.246 21C39.246 20.457 39.2055 19.905 39.123 19.347L41.238 18.1545C41.4119 18.0565 41.5645 17.9248 41.6868 17.7671C41.8092 17.6094 41.8988 17.4289 41.9505 17.2361C42.0022 17.0433 42.0149 16.8422 41.9878 16.6444C41.9608 16.4467 41.8945 16.2563 41.793 16.0845L38.7195 10.89C38.5197 10.5522 38.1955 10.3061 37.8163 10.2046C37.4372 10.1031 37.0334 10.1542 36.6915 10.347L34.5405 11.562C33.633 10.864 32.633 10.2956 31.569 9.873V7.5C31.569 7.10218 31.411 6.72064 31.1297 6.43934C30.8484 6.15804 30.4668 6 30.069 6H28.5V15C30.0913 15 31.6174 15.6321 32.7426 16.7574C33.8679 17.8826 34.5 19.4087 34.5 21C34.5 22.5913 33.8679 24.1174 32.7426 25.2426C31.6174 26.3679 30.0913 27 28.5 27V36H30.0705C30.4683 36 30.8499 35.842 31.1312 35.5607C31.4125 35.2794 31.5705 34.8978 31.5705 34.5V32.13C32.6342 31.7068 33.6342 31.1384 34.542 30.441L36.693 31.6545C37.0349 31.8473 37.4387 31.8984 37.8178 31.7969C38.197 31.6954 38.5212 31.4493 38.721 31.1115L41.7915 25.9155C41.893 25.7437 41.9593 25.5533 41.9863 25.3556C42.0134 25.1578 42.0007 24.9567 41.949 24.7639C41.8973 24.5711 41.8077 24.3906 41.6853 24.2329C41.563 24.0752 41.4104 23.9435 41.2365 23.8455Z" fill="#19517E"/>
</svg>
