<svg width="46" height="46" viewBox="0 0 46 46" fill="none" xmlns="http://www.w3.org/2000/svg">
<path fill-rule="evenodd" clip-rule="evenodd" d="M27.4801 4.22862C28.5793 4.49034 29.6532 4.8487 30.6893 5.29953C30.531 5.94585 30.4512 6.60887 30.4514 7.27428C30.4514 9.25897 30.9547 10.2745 31.896 11.8992C32.7788 13.4226 33.0735 14.6377 33.1808 16.4023V17.4585C33.1808 17.6756 33.2076 17.8865 33.2579 18.0882C31.3684 14.1493 27.3909 11.6292 23 11.6292C16.7202 11.6292 11.6291 16.7203 11.6291 23.0001C11.6291 29.2799 16.7202 34.371 23 34.371C29.2798 34.371 34.3708 29.2798 34.3708 23.0001C34.3708 21.5415 34.0961 20.1472 33.5957 18.8658C33.7768 19.1458 34.0096 19.3888 34.2816 19.5817V19.6603C34.2817 20.5479 34.7293 21.3334 35.4105 21.803V21.862C35.4105 23.2953 36.578 24.4628 38.0113 24.4628H39.44C40.8733 24.4628 42.0408 23.2953 42.0408 21.862V21.8031C42.7221 21.3335 43.1698 20.5479 43.1698 19.6603V19.5817C43.32 19.4751 43.4587 19.353 43.5834 19.2174L45.5 19.9549V26.0449L41.7714 27.4801C41.2982 29.4664 40.5113 31.3645 39.4404 33.103L41.0632 36.7568L36.7569 41.0632L33.1043 39.4408C31.3655 40.5122 29.4668 41.2993 27.4799 41.7723L26.0451 45.5H19.9551L18.5199 41.7715C17.8106 41.6027 17.1116 41.3935 16.4262 41.1449C16.7904 40.1674 16.9899 39.1096 16.9899 38.0052C16.9899 33.0373 12.9628 29.0102 7.99494 29.0102C6.89009 29.0102 5.83212 29.2098 4.85431 29.5742C4.60579 28.8886 4.39657 28.1894 4.22769 27.4799L0.5 26.0451V19.9551L4.22825 18.52C4.70136 16.5335 5.48831 14.6352 6.55944 12.8967L4.93681 9.24322L9.24312 4.93681L12.8969 6.55963C14.6354 5.4886 16.5335 4.70169 18.5198 4.22853L19.955 0.5H26.0449L27.4801 4.22862ZM38.7257 0.5C34.9843 0.5 31.9514 3.533 31.9514 7.27428C31.9514 11.0367 34.3549 10.8117 34.6808 16.3574H36.8059V9.64831H35.9817C34.7019 9.64831 33.6574 8.60394 33.6574 7.32416C33.6574 6.04437 34.7018 4.99991 35.9817 4.99991C37.2614 4.99991 38.3059 6.04428 38.3059 7.32416V8.14831H39.1456V7.32416C39.1456 6.04437 40.19 4.99991 41.4699 4.99991C42.7497 4.99991 43.794 6.04428 43.794 7.32416C43.794 8.60403 42.7497 9.64831 41.4699 9.64831H40.6456V16.3574H42.7708C43.0965 10.8117 45.5 11.0367 45.5 7.27428C45.5 3.53291 42.467 0.5 38.7257 0.5ZM39.1455 16.3574V9.64831H38.3058V16.3574H39.1455ZM36.8059 8.14831V7.32416C36.8059 6.87238 36.4334 6.49991 35.9817 6.49991C35.5299 6.49991 35.1574 6.87238 35.1574 7.32416C35.1574 7.77594 35.5299 8.14831 35.9817 8.14831H36.8059ZM40.6455 8.14831H41.4698C41.9216 8.14831 42.294 7.77584 42.294 7.32416C42.294 6.87247 41.9216 6.49991 41.4698 6.49991C41.018 6.49991 40.6455 6.87238 40.6455 7.32416V8.14831ZM34.7561 17.8574C34.9168 18.2671 35.3167 18.5592 35.7816 18.5592H41.6698C42.1347 18.5592 42.5346 18.2671 42.6953 17.8574H34.7561ZM40.569 20.7609C41.0339 20.7609 41.4339 20.4688 41.5945 20.0592H35.857C36.0177 20.4688 36.4176 20.7609 36.8825 20.7609H40.569ZM36.9858 22.2609C37.1465 22.6706 37.5464 22.9627 38.0113 22.9627H39.44C39.9049 22.9627 40.3048 22.6706 40.4655 22.2609H36.9858ZM7.99494 30.5101C3.85559 30.5101 0.5 33.8657 0.5 38.0051C0.5 42.1444 3.85559 45.5 7.99494 45.5C12.1343 45.5 15.4899 42.1444 15.4899 38.0051C15.4899 33.8657 12.1343 30.5101 7.99494 30.5101ZM12.2293 36.5492C10.7516 38.0407 9.28372 39.5421 7.799 41.0268C7.36494 41.4609 6.66087 41.4609 6.22691 41.0268L3.76372 38.5637C3.32966 38.1297 3.32966 37.4256 3.76372 36.9915C4.19778 36.5575 4.90184 36.5575 5.33581 36.9915L7.01047 38.6662L10.6549 34.9855C11.0863 34.5498 11.7901 34.5486 12.2245 34.9806C12.6589 35.4125 12.6602 36.1143 12.2293 36.5492ZM29.9799 16.0201C28.1937 14.2339 25.7259 13.1291 23.0001 13.1291C17.5484 13.1291 13.1292 17.5483 13.1292 23C13.1292 25.6023 14.1362 27.9694 15.7818 29.7329C16.5524 26.4639 19.4854 24.0296 22.9885 24.0242C26.4417 24.0478 29.4224 26.3563 30.2184 29.7329C31.8639 27.9695 32.8709 25.6024 32.8709 23.0001C32.8709 20.2741 31.7661 17.8063 29.9799 16.0201ZM23.0001 23.0867C20.9291 23.0867 19.2502 21.4078 19.2502 19.3368C19.2502 17.2658 20.9292 15.5869 23.0001 15.5869C25.0711 15.5869 26.75 17.2658 26.75 19.3368C26.75 21.4078 25.0711 23.0867 23.0001 23.0867Z" fill="#19517E"/>
</svg>
