<svg width="48" height="46" viewBox="0 0 48 46" fill="none" xmlns="http://www.w3.org/2000/svg">
<path d="M39.4688 28.625H38.9867C37.8126 25.3058 34.632 23 31.0312 23C27.4072 23 24.2101 25.336 23.0538 28.6882C20.0874 29.0892 17.7021 31.3482 17.1102 34.25H16.9688C13.8665 34.25 11.3438 36.7727 11.3438 39.875C11.3438 42.9773 13.8665 45.5 16.9688 45.5H39.4688C44.1215 45.5 48 41.7152 48 37.0625C48 32.4098 44.1215 28.625 39.4688 28.625ZM36.6562 0.5H0V11.75H36.6562V0.5ZM8.53125 8.9375H5.71875V6.125H8.53125V8.9375ZM14.1562 8.9375H11.3438V6.125H14.1562V8.9375ZM19.7812 8.9375H16.9688V6.125H19.7812V8.9375ZM31.0312 20.1875C33.0518 20.1875 34.9812 20.7349 36.6562 21.7043V14.5625H0V23H23.6227C25.6306 21.2381 28.2355 20.1875 31.0312 20.1875ZM8.53125 20.1875H5.71875V17.375H8.53125V20.1875ZM14.1562 20.1875H11.3438V17.375H14.1562V20.1875ZM19.7812 20.1875H16.9688V17.375H19.7812V20.1875ZM14.998 31.6696C16.1392 29.0947 18.342 27.1171 21.0391 26.2671C21.1213 26.1083 21.2264 25.9663 21.3157 25.8125H0V37.0625H9.01519C9.96141 34.3946 12.2122 32.3387 14.998 31.6696ZM11.3438 28.625H14.1562V31.4375H11.3438V28.625ZM8.53125 31.4375H5.71875V28.625H8.53125V31.4375Z" fill="#19517E"/>
</svg>
