<svg width="46" height="42" viewBox="0 0 46 42" fill="none" xmlns="http://www.w3.org/2000/svg">
<path fill-rule="evenodd" clip-rule="evenodd" d="M23.8047 13.5047C24.1971 13.5455 24.4986 13.8503 24.5352 14.2432L24.6364 15.3324C24.6916 15.9264 25.389 16.212 25.845 15.8274L26.6808 15.1224C26.9823 14.868 27.411 14.8622 27.7194 15.1083C28.1446 15.4478 28.532 15.832 28.8749 16.2544C29.1237 16.5607 29.1213 16.9895 28.8693 17.2931L28.171 18.1346C27.79 18.5937 28.0811 19.2888 28.6755 19.3392L29.7658 19.4318C30.1591 19.4651 30.4665 19.7645 30.5102 20.1568C30.5704 20.6973 30.5725 21.2427 30.5164 21.7837C30.4756 22.1761 30.1708 22.4776 29.7779 22.5142L28.6887 22.6154C28.0947 22.6706 27.8091 23.3679 28.1937 23.824L28.8987 24.6598C29.1531 24.9614 29.1589 25.39 28.9128 25.6984C28.5734 26.1236 28.1891 26.511 27.7667 26.8539C27.4604 27.1027 27.0316 27.1003 26.728 26.8484L25.8865 26.15C25.4274 25.769 24.7323 26.0601 24.6819 26.6545L24.5893 27.7449C24.556 28.1381 24.2566 28.4455 23.8643 28.4892C23.3238 28.5494 22.7784 28.5514 22.2374 28.4954C21.845 28.4546 21.5434 28.1498 21.5069 27.7569L21.4057 26.6678C21.3505 26.0737 20.6532 25.7881 20.1971 26.1728L19.3613 26.8778C19.0598 27.1321 18.6311 27.1379 18.3228 26.8918C17.8976 26.5524 17.5102 26.1681 17.1672 25.7457C16.9185 25.4394 16.9208 25.0106 17.1728 24.707L17.8711 23.8655C18.2521 23.4064 17.9609 22.7113 17.3665 22.6609L16.2762 22.5684C15.8829 22.535 15.5755 22.2356 15.5319 21.8433C15.4717 21.3028 15.4697 20.7574 15.5258 20.2164C15.5666 19.824 15.8713 19.5225 16.2642 19.4859L17.3534 19.3847C17.9475 19.3295 18.2331 18.6321 17.8484 18.1761L17.1435 17.3404C16.8892 17.0388 16.8834 16.6102 17.1295 16.3018C17.4689 15.8766 17.8532 15.4892 18.2756 15.1463C18.5818 14.8975 19.0107 14.8999 19.3143 15.1519L20.1558 15.8502C20.6149 16.2312 21.31 15.9401 21.3604 15.3457L21.4529 14.2554C21.4863 13.8621 21.7857 13.5547 22.178 13.511C22.7185 13.4508 23.264 13.4488 23.8049 13.5048L23.8047 13.5047ZM21.8547 7.89807L20.4608 5.93861C20.3249 5.7483 20.2519 5.52031 20.2519 5.28648C20.2519 5.05265 20.3249 4.82466 20.4608 4.63436L21.7876 2.7692C12.2713 3.4037 4.74781 11.3231 4.74781 21C4.74781 25.6969 6.52081 29.9795 9.43315 33.2166H18.1362C13.2902 31.2774 9.86703 26.539 9.86703 21C9.86703 14.1279 15.1361 8.48842 21.8547 7.89807ZM23.0211 34.1541H0.708496C0.658799 34.1541 0.611151 34.1739 0.576001 34.209C0.540852 34.2441 0.521071 34.2918 0.520996 34.3415V39.0857C0.520996 39.1889 0.605184 39.2732 0.708496 39.2732H23.792C33.584 39.2732 41.2942 30.7839 41.2942 21C41.2942 11.6903 34.2837 3.86392 25.0614 2.83979C25.0155 2.83486 24.973 2.81312 24.9422 2.77876C24.9114 2.7444 24.8944 2.69985 24.8945 2.6537V0.606012C24.8945 0.423856 24.6598 0.34895 24.5543 0.497356L21.2247 5.17782C21.2018 5.20941 21.1894 5.24746 21.1894 5.28653C21.1894 5.32559 21.2018 5.36365 21.2247 5.39523L24.5543 10.0757C24.6598 10.2241 24.8945 10.1492 24.8945 9.96704V8.19704C24.8944 8.16988 24.9003 8.14303 24.9116 8.11835C24.9229 8.09367 24.9395 8.07175 24.9602 8.05412C24.9808 8.03649 25.0051 8.02356 25.0312 8.01623C25.0574 8.00891 25.0848 8.00736 25.1116 8.0117C31.4662 9.02532 36.175 14.5312 36.1751 21.0001C36.1752 28.2649 30.2859 34.1542 23.0211 34.1542V34.1541ZM29.4686 39.2732C32.4541 38.2562 35.0828 36.4633 37.1667 34.154H41.5864C41.6896 34.154 41.7739 34.0698 41.7739 33.9665V32.0331C41.7739 31.8509 42.0086 31.776 42.1141 31.9244L45.4436 36.6049C45.4666 36.6365 45.479 36.6745 45.479 36.7136C45.479 36.7527 45.4666 36.7907 45.4436 36.8223L42.1141 41.5027C42.0086 41.6511 41.7739 41.5762 41.7739 41.394V39.4606C41.7739 39.3573 41.6897 39.2731 41.5864 39.2731H29.4686V39.2732ZM23.021 17.6172C21.1527 17.6172 19.6382 19.1318 19.6382 21C19.6382 22.8683 21.1527 24.3828 23.021 24.3828C24.8892 24.3828 26.4038 22.8683 26.4038 21C26.4038 19.1318 24.8892 17.6172 23.021 17.6172Z" fill="#19517E"/>
</svg>
