<svg width="48" height="48" viewBox="0 0 48 48" fill="none" xmlns="http://www.w3.org/2000/svg">
<g clip-path="url(#clip0_1243_178090)">
<path d="M0.0109374 20.9119C-0.0933126 21.7509 0.560969 22.4916 1.40641 22.4916H7.12759C7.46017 22.4916 7.78197 22.3737 8.03585 22.1589C8.28974 21.9441 8.45927 21.6462 8.51434 21.3183C9.61544 14.7609 14.7608 9.61544 21.3182 8.51444C21.6462 8.45936 21.944 8.28981 22.1588 8.03591C22.3737 7.78201 22.4915 7.46018 22.4915 7.12759V1.40641C22.4915 0.560969 21.7509 -0.0933126 20.9118 0.0109374C15.6365 0.666531 10.653 3.10581 6.87934 6.87934C3.10581 10.653 0.666531 15.6365 0.0109374 20.9119ZM32.9602 36.6262C30.2912 38.532 27.1615 39.5392 23.9096 39.5392C16.2576 39.5392 9.78306 34.0558 8.51444 26.5007C8.45936 26.1727 8.28983 25.8748 8.03595 25.66C7.78206 25.4452 7.46026 25.3273 7.12769 25.3273H1.40641C0.560969 25.3273 -0.0933126 26.0679 0.0109374 26.9069V26.907C1.50541 38.9319 11.7796 48 23.9096 48C29.3133 48 34.4237 46.246 38.6882 42.9277C39.3557 42.4083 39.417 41.4215 38.8189 40.8235L34.7717 36.7763C34.5364 36.541 34.2252 36.3967 33.8935 36.3692C33.5618 36.3417 33.2311 36.4328 32.9602 36.6262ZM26.5007 8.51444C34.0557 9.78306 39.5393 16.2576 39.5393 23.9096C39.5393 27.1615 38.532 30.2911 36.6263 32.9602C36.4329 33.2311 36.3419 33.5618 36.3694 33.8934C36.3968 34.2251 36.5411 34.5363 36.7764 34.7717L40.8238 38.819C41.4218 39.4171 42.4085 39.3557 42.9279 38.6882L42.928 38.6882C46.2461 34.4238 48 29.3134 48 23.9096C48 11.7796 38.9319 1.50541 26.907 0.0109374H26.9069C26.0679 -0.0933126 25.3272 0.560969 25.3272 1.40641V7.12759C25.3272 7.46019 25.4451 7.78202 25.6599 8.03592C25.8748 8.28982 26.1727 8.45936 26.5007 8.51444Z" fill="#19517E"/>
<path d="M24.8459 14.2466H22.9697C22.1931 14.2466 21.5635 14.8762 21.5635 15.6528V32.0589H26.2521V15.6528C26.2521 14.8762 25.6225 14.2466 24.8459 14.2466ZM29.0646 32.0589H32.347C33.1236 32.0589 33.7532 31.4293 33.7532 30.6526V19.4027C33.7532 18.6261 33.1236 17.9965 32.347 17.9965H29.0646V32.0589ZM18.751 21.7465H15.4722C14.6955 21.7465 14.0659 22.3761 14.0659 23.1527V30.6526C14.0659 31.4293 14.6955 32.0589 15.4722 32.0589H18.751V21.7465Z" fill="#19517E"/>
</g>
<defs>
<clipPath id="clip0_1243_178090">
<rect width="48" height="48" fill="white"/>
</clipPath>
</defs>
</svg>
