<svg width="46" height="42" viewBox="0 0 46 42" fill="none" xmlns="http://www.w3.org/2000/svg">
<path fill-rule="evenodd" clip-rule="evenodd" d="M8.36891 41.4643H37.6311C37.9925 41.4643 38.2873 41.1694 38.2873 40.808V39.1071C38.2873 37.8106 36.9598 36.75 35.3372 36.75H30.0715V31.2537H42.0406C43.9433 31.2537 45.5001 29.697 45.5001 27.7942V3.99511C45.5001 2.09246 43.9434 0.535645 42.0406 0.535645H3.95938C2.05672 0.535645 0.5 2.09236 0.5 3.99511V27.7943C0.5 29.6971 2.05672 31.2538 3.95938 31.2538H15.9285V36.75H10.6628C9.04016 36.75 7.71266 37.8106 7.71266 39.1071V40.808C7.71266 41.1694 8.0075 41.4643 8.36891 41.4643ZM14.312 14.2502L18.5359 10.9612C18.5308 10.9122 18.5283 10.8631 18.5282 10.8138C18.5282 10.0334 19.1609 9.40064 19.9414 9.40064C20.5513 9.40064 21.0708 9.78689 21.2689 10.3281L25.039 11.1196C25.1707 10.982 25.3289 10.8725 25.5042 10.7978C25.6794 10.7231 25.868 10.6847 26.0585 10.6849C26.1962 10.6849 26.3293 10.7047 26.4551 10.7414L30.7833 6.87024C30.7694 6.78995 30.7624 6.70862 30.7624 6.62714C30.7624 5.84668 31.3951 5.21396 32.1756 5.21396C32.9561 5.21396 33.5888 5.84668 33.5888 6.62714C33.5888 7.40761 32.9561 8.04033 32.1756 8.04033C32.038 8.04033 31.9048 8.02055 31.7791 7.98389L27.4509 11.855C27.4646 11.934 27.4718 12.0152 27.4718 12.0981C27.4718 12.8786 26.8391 13.5113 26.0586 13.5113C25.4487 13.5113 24.9292 13.125 24.7311 12.5838L20.961 11.7923C20.8293 11.9299 20.6711 12.0394 20.4958 12.1141C20.3206 12.1889 20.132 12.2273 19.9415 12.227C19.7701 12.227 19.6059 12.1966 19.4538 12.1406L15.2299 15.4295C15.235 15.478 15.2376 15.5272 15.2376 15.577C15.2376 16.3575 14.6049 16.9902 13.8244 16.9902C13.0439 16.9902 12.4112 16.3575 12.4112 15.577C12.4112 14.7965 13.0439 14.1638 13.8244 14.1638C13.9957 14.1638 14.1599 14.1944 14.312 14.2502ZM12.7396 19.5318H14.909C15.2188 19.5318 15.4715 19.7845 15.4715 20.0943V23.9263C15.4715 24.2361 15.2188 24.4888 14.909 24.4888H12.7396C12.4298 24.4888 12.1771 24.2361 12.1771 23.9263V20.0943C12.1771 19.7846 12.4299 19.5318 12.7396 19.5318ZM31.0909 9.65236H33.2604C33.5702 9.65236 33.8229 9.90502 33.8229 10.2149V23.9264C33.8229 24.2362 33.5702 24.4889 33.2604 24.4889H31.0909C30.7811 24.4889 30.5284 24.2362 30.5284 23.9264V10.2149C30.5284 9.90511 30.7811 9.65236 31.0909 9.65236ZM24.9739 16.2206H27.1433C27.4531 16.2206 27.7058 16.4733 27.7058 16.7832V23.9265C27.7058 24.2363 27.4531 24.489 27.1433 24.489H24.9739C24.6641 24.489 24.4114 24.2363 24.4114 23.9265V16.7832C24.4113 16.4732 24.6641 16.2206 24.9739 16.2206ZM18.8567 13.9738H21.0261C21.3359 13.9738 21.5886 14.2264 21.5886 14.5363V23.9264C21.5886 24.2362 21.3359 24.4889 21.0261 24.4889H18.8567C18.5469 24.4889 18.2942 24.2362 18.2942 23.9264V14.5363C18.2943 14.2265 18.547 13.9738 18.8567 13.9738ZM3.87266 3.42849H42.1273C42.3913 3.42849 42.6072 3.64449 42.6072 3.9083V25.4264H3.39284V3.9083C3.39284 3.64449 3.60875 3.42849 3.87266 3.42849Z" fill="#19517E"/>
</svg>
