<svg width="40" height="40" viewBox="0 0 40 40" fill="none" xmlns="http://www.w3.org/2000/svg">
<g clip-path="url(#clip0_1243_178379)">
<path d="M11.6739 30.8554H9.78955C9.73512 30.8554 9.69096 30.8113 9.69096 30.7568V22.7066C9.69096 22.6522 9.73512 22.608 9.78955 22.608H11.6739C11.7283 22.608 11.7725 22.6522 11.7725 22.7066V30.7569C11.7725 30.8113 11.7283 30.8554 11.6739 30.8554ZM28.5541 24.8087C28.5541 24.8815 28.4781 24.9296 28.4127 24.8974C28.1538 24.77 27.5765 24.5303 26.8029 24.5303C25.4579 24.5303 24.5244 25.4674 24.5244 26.7307C24.5244 27.9564 25.4173 28.9321 26.8029 28.9321C27.5682 28.9321 28.1514 28.6945 28.4132 28.5676C28.4784 28.536 28.5541 28.584 28.5541 28.6565V30.6338C28.5541 30.6778 28.525 30.7164 28.4827 30.7285C28.1774 30.8155 27.5083 31.0021 26.6579 31.0021C24.3165 31.0021 22.2618 29.3881 22.2618 26.7307C22.2618 24.2673 24.1211 22.4614 26.6579 22.4614C27.5414 22.4614 28.2182 22.6561 28.4844 22.7362C28.526 22.7487 28.5541 22.787 28.5541 22.8305V24.8087ZM6.83004 24.8083C6.83004 24.8812 6.75395 24.9292 6.6885 24.8969C6.43013 24.7693 5.85418 24.5303 5.08165 24.5303C3.73355 24.5303 2.80064 25.4674 2.80064 26.7307C2.80064 27.9564 3.69478 28.9321 5.08165 28.9321C5.84551 28.9321 6.42785 28.6953 6.68903 28.5682C6.75433 28.5364 6.83004 28.5845 6.83004 28.6571V30.634C6.83004 30.6779 6.80107 30.7166 6.75889 30.7286C6.45582 30.8158 5.78698 31.0021 4.93228 31.0021C2.59274 31.0021 0.540527 29.3881 0.540527 26.7308C0.540527 24.2674 2.39951 22.4615 4.93228 22.4615C5.5519 22.4624 6.16797 22.555 6.76048 22.7362C6.80206 22.7488 6.83011 22.787 6.83011 22.8305L6.83004 24.8083ZM39.4594 26.7308C39.4594 29.0901 37.6379 31.0021 35.1016 31.0021C32.565 31.0021 30.7458 29.0901 30.7458 26.7308C30.7458 24.3749 32.565 22.4615 35.1016 22.4615C37.6379 22.4614 39.4594 24.3748 39.4594 26.7308ZM35.1016 24.5615C33.8669 24.5615 32.9499 25.533 32.9499 26.7308C32.9499 27.9311 33.8669 28.9017 35.1016 28.9017C36.3348 28.9017 37.2544 27.9311 37.2544 26.7308C37.2544 25.533 36.3348 24.5615 35.1016 24.5615ZM19.6655 24.3544C19.6655 24.4187 19.6054 24.4657 19.5431 24.45C19.2728 24.3817 18.6066 24.2308 18.0382 24.2308C17.2041 24.2308 16.7512 24.5101 16.7512 24.907C16.7512 25.4093 17.3625 25.5837 17.7054 25.6921L18.2792 25.8751C19.6303 26.3046 20.2454 27.2297 20.2454 28.2344C20.2454 30.3061 18.4238 31.0021 16.831 31.0021C15.8614 31.0021 14.946 30.8461 14.6645 30.7927C14.642 30.7884 14.6217 30.7764 14.6071 30.7587C14.5925 30.7411 14.5845 30.7189 14.5846 30.696V29.0071C14.5846 28.9424 14.6457 28.8951 14.7082 28.9118C15.0255 28.9964 15.7744 29.186 16.5501 29.186C17.5853 29.186 18.0616 28.8825 18.0616 28.4156C18.0616 27.9976 17.6496 27.7561 17.1337 27.5939C17.0073 27.552 16.8181 27.4927 16.6891 27.4507C15.5296 27.0839 14.5636 26.4029 14.5636 25.0378C14.5636 23.4951 15.7181 22.459 17.6368 22.459C18.51 22.459 19.3386 22.6416 19.5909 22.703C19.635 22.7137 19.6656 22.7532 19.6656 22.7986L19.6655 24.3544Z" fill="#E85454"/>
<path d="M11.5052 30.7569V22.7066C11.5052 22.6522 11.5494 22.6081 11.6038 22.6081H9.78962C9.7352 22.6081 9.69111 22.6522 9.69111 22.7066V30.7569C9.69111 30.8114 9.73527 30.8555 9.78962 30.8555H11.6038C11.5777 30.8555 11.5526 30.8451 11.5341 30.8266C11.5156 30.8082 11.5052 30.7831 11.5052 30.7569ZM28.4127 24.8974C28.4781 24.9296 28.5541 24.8815 28.5541 24.8087V24.5317C28.2792 24.5377 28.022 24.5829 27.7875 24.6626C28.0028 24.721 28.2122 24.7996 28.4127 24.8974ZM24.0761 26.7308C24.0761 24.5574 25.5237 22.8967 27.6067 22.5355C27.2928 22.4865 26.9756 22.4617 26.6579 22.4614C24.1211 22.4614 22.2618 24.2674 22.2618 26.7307C22.2618 29.3882 24.3166 31.0021 26.6579 31.0021C26.9754 31.0016 27.2923 30.9763 27.6058 30.9265C25.6464 30.5794 24.0761 29.0539 24.0761 26.7308ZM28.5541 28.6565C28.5541 28.584 28.4785 28.5359 28.4132 28.5676C28.2115 28.6644 28.0014 28.7424 27.7854 28.8004C28.0188 28.8796 28.2763 28.9246 28.5541 28.9307V28.6565ZM2.35474 26.7308C2.35474 24.5573 3.80242 22.8965 5.88276 22.5355C5.56827 22.4865 5.25049 22.4617 4.93221 22.4614C2.39951 22.4614 0.540527 24.2674 0.540527 26.7308C0.540527 29.3882 2.59274 31.0022 4.93228 31.0022C5.28499 31.0022 5.60538 30.9702 5.88215 30.9268C3.92389 30.5801 2.35474 29.0545 2.35474 26.7308ZM32.56 26.7308C32.56 24.6667 33.9567 22.9423 36.0087 22.5469C35.7098 22.4896 35.406 22.461 35.1016 22.4614C32.565 22.4614 30.7457 24.3748 30.7457 26.7307C30.7457 29.09 32.5649 31.0021 35.1016 31.0021C35.4157 31.0021 35.7187 30.9726 36.0087 30.9167C33.9567 30.5215 32.56 28.7979 32.56 26.7308ZM19.5431 24.45C19.5576 24.4537 19.5728 24.454 19.5875 24.4509C19.6021 24.4478 19.6159 24.4414 19.6277 24.4322C19.6395 24.423 19.6491 24.4111 19.6556 24.3977C19.6622 24.3842 19.6656 24.3694 19.6655 24.3544V24.2363C19.4294 24.2493 19.2291 24.2867 19.0669 24.3447C19.267 24.3831 19.4362 24.423 19.5431 24.45Z" fill="#D84848"/>
<path d="M2.23494 15.3605C2.23494 14.894 1.85472 14.516 1.38785 14.516C0.921583 14.5159 0.540527 14.894 0.540527 15.3605V17.1353C0.540527 17.6041 0.921583 17.9822 1.38785 17.9822C1.85465 17.9822 2.23494 17.6041 2.23494 17.1353V15.3605ZM6.88872 13.0302C6.88872 12.5641 6.50827 12.1854 6.04162 12.1854C5.57482 12.1854 5.1943 12.5641 5.1943 13.0302V17.1352C5.1943 17.6041 5.5749 17.9821 6.04162 17.9821C6.50827 17.9821 6.88872 17.6041 6.88872 17.1352V13.0302ZM11.5426 9.84218C11.5426 9.37621 11.1618 8.99805 10.6952 8.99805C10.2286 8.99805 9.84785 9.37621 9.84785 9.84218V18.8224C9.84785 19.2909 10.2286 19.6693 10.6952 19.6693C11.1618 19.6693 11.5426 19.291 11.5426 18.8224V9.84218Z" fill="#777777"/>
<path d="M1.49336 17.1353V15.3605C1.49336 15.0704 1.64082 14.8148 1.86438 14.6626C1.72394 14.5669 1.55789 14.5158 1.38793 14.5159C0.921583 14.5159 0.540527 14.894 0.540527 15.3605V17.1353C0.540527 17.6041 0.921583 17.9822 1.38793 17.9822C1.56451 17.9822 1.72854 17.928 1.86438 17.8354C1.64082 17.6831 1.49336 17.4268 1.49336 17.1353ZM6.14706 17.1353V13.0303C6.14706 12.7404 6.29437 12.4845 6.51793 12.3323C6.37757 12.2365 6.21156 12.1853 6.04163 12.1854C5.57483 12.1854 5.19423 12.5642 5.19423 13.0303V17.1353C5.19423 17.6041 5.57483 17.9822 6.04163 17.9822C6.21156 17.9824 6.37758 17.9312 6.51793 17.8354C6.40362 17.7579 6.31005 17.6535 6.2454 17.5315C6.18075 17.4094 6.14698 17.2734 6.14706 17.1353ZM10.8006 18.8224V9.84218C10.8006 9.55241 10.948 9.2967 11.1716 9.14468C11.0312 9.049 10.8651 8.9979 10.6952 8.99805C10.2286 8.99805 9.84777 9.37621 9.84777 9.84218V18.8224C9.84777 19.2909 10.2285 19.6693 10.6952 19.6693C10.8716 19.6693 11.0356 19.6151 11.1716 19.5225C10.948 19.3702 10.8006 19.1138 10.8006 18.8224Z" fill="#646566"/>
<path d="M20.8472 15.3605C20.8472 14.8941 20.467 14.5161 20.0002 14.5161C19.5339 14.5161 19.1528 14.8941 19.1528 15.3605V17.1354C19.1528 17.6042 19.5339 17.9823 20.0002 17.9823C20.467 17.9823 20.8472 17.6042 20.8472 17.1354V15.3605Z" fill="#777777"/>
<path d="M20.1057 17.1355V15.3606C20.1057 15.0706 20.2531 14.8149 20.4767 14.6628C20.3362 14.5671 20.1702 14.516 20.0002 14.5161C19.534 14.5161 19.1528 14.8941 19.1528 15.3605V17.1354C19.1528 17.6042 19.5339 17.9823 20.0002 17.9823C20.1768 17.9823 20.3408 17.9281 20.4767 17.8355C20.2531 17.6833 20.1057 17.427 20.1057 17.1355Z" fill="#646566"/>
<path d="M16.1949 13.0304C16.1949 12.5643 15.8145 12.1855 15.3478 12.1855C14.881 12.1855 14.5005 12.5643 14.5005 13.0304V17.1354C14.5005 17.6042 14.8811 17.9823 15.3478 17.9823C15.8145 17.9823 16.1949 17.6042 16.1949 17.1354V13.0304Z" fill="#777777"/>
<path d="M15.4533 17.1354V13.0304C15.4533 12.7405 15.6006 12.4846 15.8242 12.3324C15.6838 12.2366 15.5178 12.1854 15.3479 12.1855C14.8811 12.1855 14.5005 12.5643 14.5005 13.0304V17.1354C14.5005 17.6042 14.8811 17.9823 15.3479 17.9823C15.5178 17.9825 15.6838 17.9313 15.8242 17.8355C15.7099 17.758 15.6163 17.6536 15.5517 17.5316C15.487 17.4095 15.4532 17.2735 15.4533 17.1354Z" fill="#646566"/>
<path d="M25.4996 13.0302C25.4996 12.5641 25.1191 12.1854 24.6525 12.1854C24.1857 12.1854 23.8052 12.5641 23.8052 13.0302V17.1352C23.8052 17.6041 24.1858 17.9821 24.6525 17.9821C25.1191 17.9821 25.4996 17.6041 25.4996 17.1352V13.0302ZM30.1534 9.84218C30.1534 9.37621 29.7727 8.99805 29.306 8.99805C28.8395 8.99805 28.4587 9.37621 28.4587 9.84218V18.8224C28.4587 19.2909 28.8395 19.6693 29.306 19.6693C29.7727 19.6693 30.1534 19.291 30.1534 18.8224V9.84218Z" fill="#777777"/>
<path d="M24.758 17.1353V13.0303C24.758 12.7404 24.9053 12.4845 25.1289 12.3323C24.9885 12.2365 24.8225 12.1853 24.6526 12.1854C24.1858 12.1854 23.8052 12.5642 23.8052 13.0303V17.1353C23.8052 17.6041 24.1858 17.9822 24.6526 17.9822C24.8225 17.9824 24.9885 17.9312 25.1289 17.8354C25.0146 17.7579 24.921 17.6535 24.8563 17.5315C24.7917 17.4094 24.7579 17.2734 24.758 17.1353ZM29.4116 18.8224V9.84218C29.4116 9.55241 29.5589 9.2967 29.7826 9.14468C29.6421 9.049 29.4761 8.9979 29.3061 8.99805C28.8396 8.99805 28.4587 9.37621 28.4587 9.84218V18.8224C28.4587 19.2909 28.8395 19.6693 29.3061 19.6693C29.4825 19.6693 29.6466 19.6151 29.7826 19.5225C29.5589 19.3702 29.4116 19.1138 29.4116 18.8224Z" fill="#646566"/>
<path d="M39.4581 15.3605C39.4581 14.8941 39.0779 14.5161 38.611 14.5161C38.1447 14.5161 37.7637 14.8941 37.7637 15.3605V17.1354C37.7637 17.6042 38.1447 17.9823 38.611 17.9823C39.0778 17.9823 39.4581 17.6042 39.4581 17.1354V15.3605Z" fill="#777777"/>
<path d="M38.7165 17.1355V15.3606C38.7165 15.0706 38.864 14.8149 39.0875 14.6628C38.9471 14.5671 38.781 14.516 38.6111 14.5161C38.1448 14.5161 37.7637 14.8941 37.7637 15.3605V17.1354C37.7637 17.6042 38.1447 17.9823 38.6111 17.9823C38.7877 17.9823 38.9517 17.9281 39.0875 17.8355C38.864 17.6833 38.7165 17.427 38.7165 17.1355Z" fill="#646566"/>
<path d="M34.8057 13.0304C34.8057 12.5643 34.4253 12.1855 33.9587 12.1855C33.4919 12.1855 33.1113 12.5643 33.1113 13.0304V17.1354C33.1113 17.6042 33.4919 17.9823 33.9587 17.9823C34.4253 17.9823 34.8057 17.6042 34.8057 17.1354V13.0304Z" fill="#777777"/>
<path d="M34.0642 17.1354V13.0304C34.0642 12.7405 34.2115 12.4846 34.435 12.3324C34.2947 12.2366 34.1287 12.1854 33.9587 12.1855C33.4919 12.1855 33.1113 12.5643 33.1113 13.0304V17.1354C33.1113 17.6042 33.4919 17.9823 33.9587 17.9823C34.1287 17.9825 34.2947 17.9313 34.435 17.8355C34.3207 17.758 34.2272 17.6536 34.1625 17.5316C34.0978 17.4095 34.0641 17.2735 34.0642 17.1354Z" fill="#646566"/>
<path d="M17.4963 27.732C15.2591 25.616 16.7845 23.6288 16.7845 23.6288L16.7846 23.6289C17.1641 23.0676 17.7972 22.6786 18.6361 22.5284C18.3332 22.4889 17.9889 22.459 17.6366 22.459C15.718 22.459 14.5635 23.4951 14.5635 25.0378C14.5635 26.4029 15.5295 27.084 16.6889 27.4507C16.8179 27.4927 17.0071 27.552 17.1335 27.5939C17.2626 27.6346 17.3851 27.6801 17.4963 27.732ZM16.3987 29.1837C15.6785 29.1617 15.0047 28.991 14.7081 28.9118C14.6935 28.908 14.6783 28.9075 14.6635 28.9105C14.6487 28.9135 14.6348 28.9199 14.6229 28.9291C14.6109 28.9383 14.6012 28.9501 14.5946 28.9637C14.588 28.9772 14.5845 28.9921 14.5845 29.0072V30.696C14.5845 30.7433 14.6181 30.7841 14.6645 30.7928C14.9071 30.8388 15.6211 30.9609 16.4345 30.9938C16.2131 30.1333 16.3987 29.1837 16.3987 29.1837Z" fill="#D84848"/>
</g>
<defs>
<clipPath id="clip0_1243_178379">
<rect width="38.9189" height="38.9189" fill="white" transform="translate(0.540527 0.540527)"/>
</clipPath>
</defs>
</svg>
