<svg width="48" height="48" viewBox="0 0 48 48" fill="none" xmlns="http://www.w3.org/2000/svg">
<path d="M10.875 27.75C10.875 24.9067 13.188 22.5938 16.0312 22.5938H31.9688C33.2611 22.5938 34.3125 21.5423 34.3125 20.25V7.03125C34.3125 3.15422 31.1583 0 27.2812 0H20.7188C16.8417 0 13.6875 3.15422 13.6875 7.03125V10.875H24C24.7767 10.875 25.4062 11.5045 25.4062 12.2812C25.4062 13.058 24.7767 13.6875 24 13.6875H7.03125C3.15422 13.6875 0 16.8417 0 20.7188V27.2812C0 31.1583 3.15422 34.3125 7.03125 34.3125H10.875V27.75ZM20.7188 7.125C19.942 7.125 19.3125 6.49547 19.3125 5.71875C19.3125 4.94203 19.942 4.3125 20.7188 4.3125C21.4955 4.3125 22.125 4.94203 22.125 5.71875C22.125 6.49547 21.4955 7.125 20.7188 7.125Z" fill="#19517E"/>
<path d="M40.9688 13.6875H37.125V20.25C37.125 23.0933 34.812 25.4062 31.9688 25.4062H16.0312C14.7389 25.4062 13.6875 26.4577 13.6875 27.75V40.9688C13.6875 44.8458 16.8417 48 20.7188 48H27.2812C31.1583 48 34.3125 44.8458 34.3125 40.9688V37.125H24C23.2233 37.125 22.5938 36.4955 22.5938 35.7188C22.5938 34.942 23.2233 34.3125 24 34.3125H40.9688C44.8458 34.3125 48 31.1583 48 27.2812V20.7188C48 16.8417 44.8458 13.6875 40.9688 13.6875ZM27.2812 40.875C28.058 40.875 28.6875 41.5045 28.6875 42.2812C28.6875 43.058 28.058 43.6875 27.2812 43.6875C26.5045 43.6875 25.875 43.058 25.875 42.2812C25.875 41.5045 26.5045 40.875 27.2812 40.875Z" fill="#19517E"/>
</svg>
