<svg width="44" height="44" viewBox="0 0 44 44" fill="none" xmlns="http://www.w3.org/2000/svg">
<circle cx="22" cy="22" r="21.5" stroke="white"/>
<g clip-path="url(#clip0_1277_339864)">
<path d="M31.995 32L32 31.9992V24.6642C32 21.0758 31.2275 18.3117 27.0325 18.3117C25.0158 18.3117 23.6625 19.4183 23.11 20.4675H23.0517V18.6467H19.0742V31.9992H23.2158V25.3875C23.2158 23.6467 23.5458 21.9633 25.7017 21.9633C27.8258 21.9633 27.8575 23.95 27.8575 25.4992V32H31.995ZM12.33 18.6475H16.4767V32H12.33V18.6475ZM14.4017 12C13.0758 12 12 13.0758 12 14.4017C12 15.7275 13.0758 16.8258 14.4017 16.8258C15.7275 16.8258 16.8033 15.7275 16.8033 14.4017C16.8029 13.7648 16.5497 13.1542 16.0994 12.7039C15.6491 12.2536 15.0385 12.0004 14.4017 12Z" fill="white"/>
</g>
<defs>
<clipPath id="clip0_1277_339864">
<rect width="20" height="20" fill="white" transform="translate(12 12)"/>
</clipPath>
</defs>
</svg>
