<svg width="40" height="40" viewBox="0 0 40 40" fill="none" xmlns="http://www.w3.org/2000/svg">
<g clip-path="url(#clip0_1545_84205)">
<path d="M20 40C31.0457 40 40 31.0457 40 20C40 8.95431 31.0457 0 20 0C8.95431 0 0 8.95431 0 20C0 31.0457 8.95431 40 20 40Z" fill="#3B5998"/>
<path d="M25.0278 20.7818H21.459V33.8561H16.052V20.7818H13.4805V16.187H16.052V13.2136C16.052 11.0873 17.0621 7.75781 21.5071 7.75781L25.5123 7.77457V12.2346H22.6063C22.1296 12.2346 21.4594 12.4728 21.4594 13.4871V16.1913H25.5001L25.0278 20.7818Z" fill="white"/>
</g>
<defs>
<clipPath id="clip0_1545_84205">
<rect width="40" height="40" fill="white"/>
</clipPath>
</defs>
</svg>
