<svg width="40" height="40" viewBox="0 0 40 40" fill="none" xmlns="http://www.w3.org/2000/svg">
<g clip-path="url(#clip0_1545_84211)">
<path d="M20 40C31.0457 40 40 31.0457 40 20C40 8.95431 31.0457 0 20 0C8.95431 0 0 8.95431 0 20C0 31.0457 8.95431 40 20 40Z" fill="#03A9F4"/>
<path d="M32.9554 11.9628C31.9809 12.3884 30.9501 12.6711 29.8948 12.8022C31.0072 12.1426 31.8388 11.0975 32.2317 9.86539C31.1905 10.4834 30.0513 10.9186 28.8633 11.1522C28.1353 10.3737 27.1898 9.83221 26.1499 9.59826C25.1101 9.3643 24.0238 9.44868 23.0325 9.84043C22.0412 10.2322 21.1908 10.9132 20.5918 11.7948C19.9927 12.6764 19.6729 13.7179 19.6738 14.7838C19.6701 15.1907 19.7115 15.5967 19.7975 15.9943C17.6842 15.8905 15.6167 15.3421 13.7298 14.3849C11.843 13.4276 10.1793 12.0831 8.84747 10.4391C8.16289 11.6086 7.9508 12.9954 8.25455 14.316C8.5583 15.6367 9.35495 16.7914 10.4817 17.5443C9.64069 17.5217 8.81751 17.2969 8.08168 16.8891V16.947C8.08405 18.1728 8.50836 19.3605 9.28329 20.3104C10.0582 21.2602 11.1365 21.9143 12.3369 22.1628C11.8827 22.2821 11.4145 22.3405 10.9448 22.3364C10.6066 22.3427 10.2688 22.3127 9.93694 22.247C10.2809 23.3012 10.943 24.2231 11.8322 24.8856C12.7215 25.5482 13.7941 25.919 14.9027 25.947C13.0241 27.4154 10.7082 28.213 8.32379 28.2128C7.89894 28.2164 7.47432 28.1918 7.05273 28.1391C9.48397 29.7066 12.3179 30.5348 15.2106 30.5233C24.9869 30.5233 30.3317 22.4259 30.3317 15.4075C30.3317 15.1733 30.3317 14.947 30.3133 14.7207C31.3541 13.9694 32.2495 13.0349 32.9554 11.9628Z" fill="white"/>
</g>
<defs>
<clipPath id="clip0_1545_84211">
<rect width="40" height="40" fill="white"/>
</clipPath>
</defs>
</svg>
