<svg width="40" height="40" viewBox="0 0 40 40" fill="none" xmlns="http://www.w3.org/2000/svg">
<g clip-path="url(#clip0_1545_84234)">
<path d="M19.9996 39.9993C31.0451 39.9993 39.9993 31.0451 39.9993 19.9996C39.9993 8.95415 31.0451 0 19.9996 0C8.95415 0 0 8.95415 0 19.9996C0 31.0451 8.95415 39.9993 19.9996 39.9993Z" fill="#CB2027"/>
<path d="M21.6153 26.7799C20.1033 26.663 19.468 25.9133 18.2822 25.1935C17.6305 28.6128 16.8341 31.8906 14.475 33.6029C13.7459 28.4349 15.5438 24.5532 16.3788 20.433C14.9556 18.0372 16.5499 13.215 19.5518 14.4033C23.2463 15.8642 16.3531 23.3114 20.9807 24.2416C25.8118 25.2127 27.784 15.8589 24.7879 12.8164C20.4591 8.42383 12.1876 12.7166 13.2048 19.0048C13.4525 20.542 15.0412 21.0087 13.8394 23.13C11.0689 22.5164 10.2425 20.3313 10.3487 17.4183C10.5202 12.6499 14.6333 9.31119 18.7589 8.84914C23.9764 8.26518 28.8735 10.765 29.5494 15.6728C30.3099 21.2119 27.194 27.2106 21.6153 26.7799Z" fill="#F1F2F2"/>
</g>
<defs>
<clipPath id="clip0_1545_84234">
<rect width="40" height="40" fill="white"/>
</clipPath>
</defs>
</svg>
