<svg width="40" height="40" viewBox="0 0 40 40" fill="none" xmlns="http://www.w3.org/2000/svg">
<path d="M20 40C31.0457 40 40 31.0457 40 20C40 8.95431 31.0457 0 20 0C8.95431 0 0 8.95431 0 20C0 31.0457 8.95431 40 20 40Z" fill="#007AB9"/>
<path d="M31.9499 21.6104V29.856H27.1694V22.163C27.1694 20.2314 26.4792 18.9123 24.7483 18.9123C23.4274 18.9123 22.6427 19.8004 22.2961 20.6603C22.1703 20.9676 22.1378 21.3944 22.1378 21.8254V29.8557H17.3569C17.3569 29.8557 17.4211 16.8263 17.3569 15.4776H22.1382V17.5151C22.1286 17.5312 22.115 17.5468 22.1065 17.5622H22.1382V17.5151C22.7735 16.5375 23.9065 15.14 26.4467 15.14C29.5919 15.14 31.9499 17.195 31.9499 21.6104ZM12.3557 8.54688C10.7203 8.54688 9.65039 9.62035 9.65039 11.0307C9.65039 12.4112 10.6893 13.5157 12.2929 13.5157H12.3239C13.9914 13.5157 15.0281 12.4112 15.0281 11.0307C14.9964 9.62035 13.9914 8.54688 12.3557 8.54688ZM9.93454 29.856H14.7137V15.4776H9.93454V29.856Z" fill="#F1F2F2"/>
</svg>
