<svg width="40" height="40" viewBox="0 0 40 40" fill="none" xmlns="http://www.w3.org/2000/svg">
<path d="M20 40C31.0457 40 40 31.0457 40 20C40 8.95431 31.0457 0 20 0C8.95431 0 0 8.95431 0 20C0 31.0457 8.95431 40 20 40Z" fill="url(#paint0_linear_1545_84220)"/>
<path d="M24.2495 8.88916H15.7607C11.974 8.88916 8.89844 11.9647 8.89844 15.7514V24.2403C8.89844 28.0269 11.974 31.1025 15.7607 31.1025H24.2495C28.0362 31.1025 31.1118 28.0269 31.1118 24.2403V15.7514C31.1118 11.9647 28.0362 8.88916 24.2495 8.88916ZM28.6318 24.2492C28.6318 26.6669 26.6673 28.6403 24.2407 28.6403H15.7518C13.334 28.6403 11.3607 26.6758 11.3607 24.2492V15.7603C11.3607 13.3425 13.3251 11.3692 15.7518 11.3692H24.2407C26.6584 11.3692 28.6318 13.3336 28.6318 15.7603V24.2492Z" fill="white"/>
<path d="M20.0003 14.3203C16.8714 14.3203 14.3203 16.8714 14.3203 20.0003C14.3203 23.1292 16.8714 25.6803 20.0003 25.6803C23.1292 25.6803 25.6803 23.1292 25.6803 20.0003C25.6803 16.8714 23.1292 14.3203 20.0003 14.3203ZM20.0003 23.4492C18.0981 23.4492 16.5514 21.9025 16.5514 20.0003C16.5514 18.0981 18.0981 16.5514 20.0003 16.5514C21.9025 16.5514 23.4492 18.0981 23.4492 20.0003C23.4492 21.9025 21.9025 23.4492 20.0003 23.4492Z" fill="white"/>
<path d="M26.1136 14.9429C26.6369 14.8576 26.992 14.3643 26.9068 13.841C26.8215 13.3177 26.3282 12.9626 25.8049 13.0478C25.2816 13.1331 24.9265 13.6264 25.0117 14.1497C25.097 14.673 25.5903 15.0281 26.1136 14.9429Z" fill="white"/>
<defs>
<linearGradient id="paint0_linear_1545_84220" x1="4.77147" y1="35.2285" x2="33.1937" y2="6.80631" gradientUnits="userSpaceOnUse">
<stop stop-color="#FEE411"/>
<stop offset="0.052" stop-color="#FEDB16"/>
<stop offset="0.138" stop-color="#FEC125"/>
<stop offset="0.248" stop-color="#FE983D"/>
<stop offset="0.376" stop-color="#FE5F5E"/>
<stop offset="0.5" stop-color="#FE2181"/>
<stop offset="1" stop-color="#9000DC"/>
</linearGradient>
</defs>
</svg>
