<svg width="52" height="41" viewBox="0 0 52 41" fill="none" xmlns="http://www.w3.org/2000/svg">
<g clip-path="url(#clip0_1729_4271)">
<path d="M32.4817 28.8025C32.4817 28.7715 32.492 28.7148 32.5127 28.6319L35.3977 19.1703C35.4802 18.9116 35.669 18.7125 35.9638 18.5728C36.2586 18.4332 36.597 18.3634 36.9798 18.3634C37.3623 18.3634 37.7011 18.4332 37.9958 18.5728C38.2907 18.7125 38.4791 18.9116 38.562 19.1703L41.4625 28.6319C41.4831 28.7148 41.4938 28.7715 41.4938 28.8025C41.4938 29.0714 41.3255 29.3043 40.9896 29.5007C40.6536 29.6972 40.3044 29.7951 39.9426 29.7951C39.4978 29.7951 39.2341 29.6456 39.1515 29.3456L38.6243 27.4067H35.3512L34.824 29.3456C34.741 29.6456 34.4773 29.7951 34.0329 29.7951C33.6707 29.7951 33.3216 29.6971 32.9855 29.5007C32.6495 29.3044 32.4818 29.0714 32.4818 28.8025H32.4817ZM35.8475 25.5454H38.1121L36.9798 21.3884L35.8475 25.5454Z" fill="white"/>
<path d="M44.6149 12.5763H34.2448V7.48668C34.2448 3.41453 30.9321 0.101562 26.8597 0.101562H7.38512C3.31297 0.101562 0 3.41463 0 7.48668V16.1568C0 20.1733 3.22258 23.451 7.21845 23.5404C7.19184 24.3825 7.0979 25.3207 6.93713 26.3428C6.82845 27.0327 7.0852 27.7107 7.62318 28.1567C7.98413 28.4558 8.4241 28.6113 8.87362 28.6113C9.09736 28.6113 9.32354 28.5724 9.54373 28.4939C11.0076 27.9705 13.5542 26.6471 14.8674 23.5419H22.1862V28.6319C22.1862 32.7039 25.4993 36.017 29.5713 36.017H37.1327C38.4462 39.1222 40.9924 40.4452 42.4567 40.969C42.6715 41.0462 42.8981 41.0857 43.1264 41.086C43.5759 41.086 44.0159 40.9305 44.3768 40.6314C44.9152 40.1858 45.1715 39.5074 45.0628 38.8175C44.9021 37.796 44.8081 36.8573 44.7814 36.015C48.7774 35.9261 52 32.6484 52 28.6319V19.9618C52 15.8894 48.6869 12.5763 44.6149 12.5763ZM49.9688 28.6315C49.9688 31.5839 47.567 33.9858 44.6149 33.9858H43.7679C43.5051 33.9858 43.2526 34.0876 43.0634 34.2699C42.8741 34.4522 42.7629 34.7007 42.753 34.9633C42.7091 36.136 42.805 37.4999 43.0387 39.0191C41.5601 38.468 39.6638 37.2707 38.7969 34.6792C38.7293 34.4773 38.6 34.3017 38.4273 34.1773C38.2545 34.0528 38.047 33.9858 37.8341 33.9858H29.5713C26.6193 33.9858 24.2175 31.5839 24.2175 28.6315V19.9614C24.2175 19.0509 24.4501 18.152 24.8895 17.362C24.9544 17.2455 24.9957 17.1173 25.0111 16.9848C25.0264 16.8523 25.0155 16.7181 24.9789 16.5898C24.9424 16.4615 24.8809 16.3417 24.7981 16.2372C24.7152 16.1326 24.6125 16.0455 24.496 15.9807C24.006 15.7077 23.3875 15.8842 23.1146 16.3742C22.5073 17.4656 22.1863 18.7058 22.1863 19.9614V21.5106H14.1659C13.9529 21.5106 13.7453 21.5776 13.5725 21.702C13.3996 21.8265 13.2703 22.0021 13.2027 22.2041C12.3363 24.7956 10.4399 25.9933 8.96127 26.5439C9.19455 25.0248 9.29063 23.6609 9.24696 22.4882C9.23708 22.2255 9.12579 21.977 8.93647 21.7947C8.74716 21.6124 8.49455 21.5106 8.23174 21.5106H7.38512C4.433 21.5106 2.03125 19.1088 2.03125 16.1568V7.48668C2.03125 4.53456 4.433 2.13281 7.38512 2.13281H26.8597C29.8117 2.13281 32.2136 4.53456 32.2136 7.48668V12.5767H30.7734C30.2125 12.5767 29.7578 13.0314 29.7578 13.5923C29.7578 14.1532 30.2125 14.6079 30.7734 14.6079H44.6149C47.567 14.6079 49.9688 17.0097 49.9688 19.9618V28.6315Z" fill="white"/>
<path d="M21.0846 8.47883C21.6455 8.47883 22.1002 8.02423 22.1002 7.4632C22.1002 6.90217 21.6455 6.44758 21.0846 6.44758H17.2101V4.9278C17.2101 4.36676 16.7555 3.91217 16.1945 3.91217C15.6338 3.91217 15.1788 4.36676 15.1788 4.9278V6.44758H11.3049C10.7439 6.44758 10.2893 6.90227 10.2893 7.4632C10.2893 8.02413 10.7439 8.47883 11.3049 8.47883H18.0365C17.8441 9.32433 17.3692 10.6894 16.1989 12.2268C15.6356 11.4869 15.2392 10.797 14.9619 10.2026C14.7246 9.69443 14.12 9.47465 13.6118 9.7123C13.1037 9.94955 12.8838 10.5537 13.1211 11.062C13.4885 11.8487 14.0305 12.7774 14.8255 13.7653C13.8491 14.7103 12.5883 15.6751 10.9585 16.5904C10.4694 16.8649 10.2956 17.4838 10.5701 17.973C10.6584 18.1305 10.7871 18.2616 10.943 18.3527C11.0989 18.4439 11.2762 18.4918 11.4568 18.4915C11.6305 18.4916 11.8014 18.4468 11.9527 18.3615C13.7202 17.3692 15.1082 16.3126 16.1993 15.2633C17.2812 16.3059 18.6654 17.3676 20.4364 18.3614C20.5527 18.4267 20.6808 18.4685 20.8132 18.4843C20.9457 18.5002 21.0799 18.4898 21.2084 18.4537C21.3368 18.4176 21.4569 18.3566 21.5617 18.2741C21.6665 18.1916 21.7541 18.0893 21.8194 17.973C22.0939 17.4838 21.9197 16.8649 21.431 16.5904C19.7996 15.6747 18.5428 14.7071 17.5725 13.7665C19.3303 11.5793 19.9124 9.58372 20.1039 8.47883H21.0846ZM26.6839 13.2681H26.6816C26.121 13.2681 25.6672 13.7228 25.6672 14.2837C25.6672 14.8447 26.1234 15.2994 26.6839 15.2994C27.245 15.2994 27.6996 14.8448 27.6996 14.2837C27.6996 13.7227 27.245 13.2681 26.6839 13.2681Z" fill="white"/>
</g>
<defs>
<clipPath id="clip0_1729_4271">
<rect width="52" height="41" fill="white"/>
</clipPath>
</defs>
</svg>
