<svg version="1.2" xmlns="http://www.w3.org/2000/svg" viewBox="0 0 98 81" width="98" height="81">
	<title>icon-industries-svg</title>
	<defs>
		<linearGradient id="g1" x2="1" gradientUnits="userSpaceOnUse" gradientTransform="matrix(-26.678,84.76,-91.608,-28.833,88.162,-5.999)">
			<stop offset="0" stop-color="#1a5b80"/>
			<stop offset="1" stop-color="#7cab82"/>
		</linearGradient>
	</defs>
	<style>
		.s0 { fill: url(#g1) } 
		.s1 { fill: #ffffff } 
	</style>
	<path id="Layer" class="s0" d="m95.2 20.3c6.8 25.5-8.3 51.6-33.7 58.5-25.5 6.8-51.6-8.3-58.4-33.8-6.9-25.4 13.5-31.8 39-38.7 25.4-6.8 46.3-11.4 53.1 14z"/>
	<path id="Layer" fill-rule="evenodd" class="s1" d="m72.3 24.1v20.8c0 2.1-1.6 3.7-3.6 3.7h-9.9v3.5h4c1.8 0 3.2 1.2 3.2 2.7v2.1q0 0.3-0.2 0.5-0.2 0.2-0.4 0.2h-26.8q-0.2 0-0.4-0.2-0.2-0.2-0.2-0.5v-2.1c0-1.5 1.4-2.7 3.2-2.7h4v-3.5h-9.9c-2 0-3.6-1.6-3.6-3.7v-20.8c0-2 1.6-3.7 3.6-3.7h33.4c2 0 3.6 1.7 3.6 3.7zm-1.3 0c0-1.3-1-2.3-2.3-2.3h-33.4c-1.3 0-2.3 1-2.3 2.3v20.8c0 1.4 1 2.4 2.3 2.4h33.4c1.3 0 2.3-1 2.3-2.4zm-1.2 0v18.8q0 0.3-0.2 0.5-0.2 0.1-0.4 0.2h-34.4q-0.2-0.1-0.4-0.2-0.2-0.2-0.2-0.5v-18.8c0-0.6 0.5-1.1 1.1-1.1h33.4c0.6 0 1.1 0.5 1.1 1.1zm-7 29.4h-21.6c-1 0-1.9 0.6-1.9 1.4v1.4h25.4v-1.4c0-0.8-0.9-1.4-1.9-1.4zm-5.3-4.8h-11v3.4h11zm11-6.4v-17.9h-33v17.9zm-31.6-1.2q-0.2-0.2-0.2-0.5v-14.5q0-0.2 0.2-0.4 0.2-0.2 0.5-0.2h29.2q0.3 0 0.5 0.2 0.2 0.2 0.2 0.4v14.5q0 0.3-0.2 0.5-0.2 0.1-0.5 0.2h-29.2q-0.3-0.1-0.5-0.2zm1.1-1.2h28v-13.1h-28zm24.2-6.6c0 0.5-0.3 0.9-0.6 1.1l-6.4 3.7q-0.3 0.1-0.6 0.1-0.3 0-0.6-0.1c-0.4-0.3-0.6-0.7-0.6-1.1v-3h-2.7q-0.3 0-0.5-0.2-0.2-0.2-0.2-0.5 0-0.2 0.2-0.4 0.2-0.2 0.5-0.2h2.7v-3c0-0.5 0.2-0.9 0.6-1.1 0.4-0.2 0.8-0.2 1.2 0l6.4 3.7c0.3 0.2 0.6 0.6 0.6 1zm-1.4 0l-6.1-3.5v7.1zm-13.3-4.3q0-0.2 0.2-0.4 0.2-0.2 0.5-0.2h3.3q0.2 0 0.4 0.2 0.2 0.2 0.2 0.4 0 0.3-0.2 0.5-0.2 0.2-0.4 0.2h-3.3q-0.3 0-0.5-0.2-0.2-0.2-0.2-0.5zm4.6 8.5q0 0.3-0.2 0.5-0.2 0.2-0.4 0.2h-3.3q-0.3 0-0.5-0.2-0.2-0.2-0.2-0.5 0-0.3 0.2-0.4 0.2-0.2 0.5-0.2h3.3q0.2 0 0.4 0.2 0.2 0.1 0.2 0.4zm-10.3-8.5q0-0.2 0.2-0.4 0.2-0.2 0.5-0.2h3.2q0.3 0 0.5 0.2 0.2 0.2 0.2 0.4 0 0.3-0.2 0.5-0.2 0.2-0.5 0.2h-3.2q-0.3 0-0.5-0.2-0.2-0.2-0.2-0.5zm4.6 8.5q0 0.3-0.2 0.5-0.2 0.2-0.5 0.2h-3.2q-0.3 0-0.5-0.2-0.2-0.2-0.2-0.5 0-0.3 0.2-0.4 0.2-0.2 0.5-0.2h3.2q0.2 0 0.3 0 0.1 0.1 0.2 0.2 0.1 0 0.1 0.2 0.1 0.1 0.1 0.2zm1.8-4.9q0.3 0 0.5 0.2 0.1 0.2 0.2 0.5-0.1 0.2-0.2 0.4-0.2 0.2-0.5 0.2h-3.3q-0.3 0-0.4-0.2-0.2-0.2-0.2-0.4 0-0.3 0.2-0.5 0.1-0.2 0.4-0.2z"/>
</svg>