<svg width="24" height="25" viewBox="0 0 24 25" fill="none" xmlns="http://www.w3.org/2000/svg">
<path d="M11.8579 0.940918C5.54021 0.940918 0.297852 6.04886 0.297852 12.501C0.297852 15.8615 1.77648 18.8187 3.92719 20.9694L3.25509 24.061L6.34672 22.7169C7.95975 23.5234 9.84162 24.061 11.7235 24.061C18.0412 24.061 23.2835 18.9531 23.2835 12.501C23.418 6.18328 18.1756 0.940918 11.8579 0.940918ZM7.15324 13.9796C6.34672 13.9796 5.67462 13.3075 5.67462 12.501C5.67462 11.6945 6.34672 11.0224 7.15324 11.0224C7.95976 11.0224 8.63186 11.6945 8.63186 12.501C8.63186 13.3075 7.95976 13.9796 7.15324 13.9796ZM11.8579 13.9796C11.0514 13.9796 10.3793 13.3075 10.3793 12.501C10.3793 11.6945 11.0514 11.0224 11.8579 11.0224C12.6644 11.0224 13.3365 11.6945 13.3365 12.501C13.471 13.3075 12.6644 13.9796 11.8579 13.9796ZM16.697 13.9796C15.8905 13.9796 15.2184 13.3075 15.2184 12.501C15.2184 11.6945 15.8905 11.0224 16.697 11.0224C17.5035 11.0224 18.1756 11.6945 18.1756 12.501C18.1756 13.3075 17.5035 13.9796 16.697 13.9796Z" fill="#676970"/>
</svg>
