<svg width="48" height="48" viewBox="0 0 48 48" fill="none" xmlns="http://www.w3.org/2000/svg">
<path d="M38.5969 21.5062V0.375L34.1437 2.23125L30.45 0.703125L26.7656 2.24062L23.0812 0.703125L19.3969 2.24062L15.7031 0.703125L12.0187 2.24062L8.325 0.703125L4.64062 2.23125L0.1875 0.384375V42.2438C0.1875 45.2063 2.59687 47.625 5.56875 47.625H42.4406C45.4031 47.625 47.8219 45.2156 47.8219 42.2438V21.5062H38.5969ZM5.56875 46.0875C3.45 46.0875 1.725 44.3625 1.725 42.2438V2.68125L4.64062 3.9L8.325 2.3625L12.0094 3.9L15.6937 2.3625L19.3781 3.9L23.0625 2.3625L26.7469 3.9L30.4312 2.3625L34.1156 3.9L37.0312 2.68125V42.2344C37.0312 43.7344 37.65 45.0938 38.6531 46.0781H5.56875V46.0875ZM46.275 42.2438C46.275 44.3625 44.55 46.0875 42.4312 46.0875C40.3125 46.0875 38.5875 44.3625 38.5875 42.2438V23.0438H46.2656V42.2438H46.275Z" fill="#222222" fill-opacity="0.8"/>
<path d="M11.7095 30.7223H13.247V36.1035H11.7095V30.7223ZM15.5532 27.6473H17.0907V36.0941H15.5532V27.6473ZM19.3876 29.1848H20.9251V36.0941H19.3876V29.1848ZM23.2313 26.1098H24.7688V36.0941H23.2313V26.1098ZM27.0751 24.5723H28.6126V36.0941H27.0751V24.5723Z" fill="#222222" fill-opacity="0.8"/>
<path d="M20.1186 25.7539L16.3217 21.957L9.62793 28.6414L10.7154 29.7289L16.3217 24.1227L20.1936 28.0039L26.1186 21.2445L24.9561 20.232L20.1186 25.7539ZM15.5529 6.91016H33.9842V8.44766H15.5529V6.91016ZM15.5529 12.282H33.9842V13.8195H15.5529V12.282ZM12.4779 6.91016H4.7998V13.8195H12.4779V6.91016ZM10.9404 12.282H6.32793V8.43828H10.9404V12.282ZM4.7998 42.2445H6.3373V43.782H4.7998V42.2445ZM7.86543 42.2445H9.40293V43.782H7.86543V42.2445ZM10.9404 42.2445H12.4779V43.782H10.9404V42.2445ZM14.0154 42.2445H15.5529V43.782H14.0154V42.2445ZM17.0904 42.2445H18.6279V43.782H17.0904V42.2445ZM20.1561 42.2445H21.6936V43.782H20.1561V42.2445ZM23.2311 42.2445H24.7686V43.782H23.2311V42.2445ZM26.3061 42.2445H27.8436V43.782H26.3061V42.2445ZM29.3811 42.2445H30.9186V43.782H29.3811V42.2445ZM32.4467 42.2445H33.9842V43.782H32.4467V42.2445Z" fill="#222222" fill-opacity="0.8"/>
<path d="M7.09668 39.1684H31.6779V17.6621H7.09668V39.1684ZM8.63418 19.1996H30.1404V37.6309H8.63418V19.1996Z" fill="#222222" fill-opacity="0.8"/>
</svg>
