<svg width="102" height="81" viewBox="0 0 102 81" fill="none" xmlns="http://www.w3.org/2000/svg">
<path d="M102 29.4545C102 57.9223 79.1665 81 51 81C22.8335 81 0 57.9223 0 29.4545C0 0.986778 22.8335 0 51 0C79.1665 0 102 0.986778 102 29.4545Z" fill="url(#paint0_linear_1729_4898)"/>
<g clip-path="url(#clip0_1729_4898)">
<path d="M72.0698 53.0251C76.5566 42.4378 71.3207 30.0947 60.3752 25.4561C49.4296 20.8175 36.9191 25.6399 32.4324 36.2273C27.9456 46.8147 36.6632 50.942 47.6088 55.5806C58.5544 60.2192 67.583 63.6125 72.0698 53.0251Z" fill="#95BD82"/>
<path d="M35.8125 21.2812C36.3188 21.2812 36.6562 20.9437 36.6562 20.4375V17.0625C36.6562 16.5562 36.3188 16.2188 35.8125 16.2188H30.75C29.3156 16.2188 28.2188 17.5688 28.2188 19.1719V27.7781C28.2188 31.6594 30.8344 34.7812 34.125 34.7812H35.8125C36.3188 34.7812 36.6562 34.4438 36.6562 33.9375V30.5625C36.6562 30.0562 36.3188 29.7188 35.8125 29.7188H34.9688C34.2094 29.7188 33.2812 28.5375 33.2812 26.7656V21.2812H35.8125ZM71.25 16.2188H66.1875C65.6813 16.2188 65.3438 16.5562 65.3438 17.0625V20.4375C65.3438 20.9437 65.6813 21.2812 66.1875 21.2812H68.7188V26.7656C68.7188 28.5375 67.7906 29.7188 67.0312 29.7188H66.1875C65.6813 29.7188 65.3438 30.0562 65.3438 30.5625V33.9375C65.3438 34.4438 65.6813 34.7812 66.1875 34.7812H67.875C71.1656 34.7812 73.7812 31.6594 73.7812 27.7781V19.1719C73.7812 17.5688 72.6844 16.2188 71.25 16.2188ZM54.375 44.7375C54.2906 44.3156 53.9531 44.0625 53.5312 44.0625H48.4688C48.0469 44.0625 47.7094 44.3156 47.625 44.7375L45.9375 53.175C45.8531 53.4281 45.9375 53.6812 46.1063 53.85C46.275 54.0187 46.5281 54.1875 46.7812 54.1875H55.2188C55.4719 54.1875 55.725 54.1031 55.8937 53.85C56.0625 53.6812 56.1469 53.4281 56.0625 53.175L54.375 44.7375Z" fill="white"/>
<path d="M66.1875 16.2188H35.8125C35.3062 16.2188 34.9688 16.5562 34.9688 17.0625V34.7812C34.9688 40.8563 39.8625 45.75 45.9375 45.75H56.0625C62.1375 45.75 67.0312 40.8563 67.0312 34.7812V17.0625C67.0312 16.5562 66.6938 16.2188 66.1875 16.2188Z" fill="white"/>
<path d="M61.125 52.5H40.875C38.5125 52.5 36.6562 54.3563 36.6562 56.7188V60.9375C36.6562 61.4438 36.9937 61.7812 37.5 61.7812H64.5C65.0063 61.7812 65.3438 61.4438 65.3438 60.9375V56.7188C65.3438 54.3563 63.4875 52.5 61.125 52.5Z" fill="white"/>
<path d="M58.5938 57.5625H43.4062C42.9 57.5625 42.5625 57.225 42.5625 56.7188C42.5625 56.2125 42.9 55.875 43.4062 55.875H58.5938C59.1 55.875 59.4375 56.2125 59.4375 56.7188C59.4375 57.225 59.1 57.5625 58.5938 57.5625Z" fill="#1C6082"/>
<path d="M62.8125 21.2812H39.1875C38.6812 21.2812 38.3438 20.9438 38.3438 20.4375C38.3438 19.9312 38.6812 19.5938 39.1875 19.5938H62.8125C63.3188 19.5938 63.6562 19.9312 63.6562 20.4375C63.6562 20.9438 63.3188 21.2812 62.8125 21.2812Z" fill="#206382"/>
</g>
<defs>
<linearGradient id="paint0_linear_1729_4898" x1="102" y1="0" x2="50.2242" y2="80.501" gradientUnits="userSpaceOnUse">
<stop stop-color="#1A5B80"/>
<stop offset="1" stop-color="#7CAB82"/>
</linearGradient>
<clipPath id="clip0_1729_4898">
<rect width="54" height="54" fill="white" transform="translate(24 12)"/>
</clipPath>
</defs>
</svg>
