<svg width="36" height="37" viewBox="0 0 36 37" fill="none" xmlns="http://www.w3.org/2000/svg">
<g clip-path="url(#clip0_1731_133727)">
<path d="M18 0.169922C10.401 0.169922 4.21875 6.35215 4.21875 13.9512C4.21875 16.3836 4.86141 18.775 6.07718 20.8668C6.36192 21.3564 6.67646 21.8282 7.01902 22.2793L17.4012 36.1699H18.5987L28.981 22.2794C29.3235 21.8282 29.638 21.3565 29.9228 20.8668C31.1386 18.775 31.7812 16.3836 31.7812 13.9512C31.7812 6.35215 25.599 0.169922 18 0.169922ZM18 18.5215C15.4799 18.5215 13.4297 16.4712 13.4297 13.9512C13.4297 11.4311 15.4799 9.38086 18 9.38086C20.5201 9.38086 22.5703 11.4311 22.5703 13.9512C22.5703 16.4712 20.5201 18.5215 18 18.5215Z" fill="white"/>
</g>
<defs>
<clipPath id="clip0_1731_133727">
<rect width="36" height="36" fill="white" transform="translate(0 0.169922)"/>
</clipPath>
</defs>
</svg>
