<svg width="91" height="76" viewBox="0 0 91 76" fill="none" xmlns="http://www.w3.org/2000/svg">
<path d="M46.2293 74.5477C65.4944 74.5477 81.1119 58.9302 81.1119 39.6651C81.1119 20.4 65.4944 4.78247 46.2293 4.78247C26.9642 4.78247 11.3467 20.4 11.3467 39.6651C11.3467 58.9302 26.9642 74.5477 46.2293 74.5477Z" fill="#F7EEDE"/>
<path d="M44.397 38.9046H22.4367C21.2069 38.9046 20.1919 37.9091 20.1919 36.6793V2.44088C20.1919 1.21111 21.2069 0.215576 22.4367 0.215576H44.397C45.6267 0.215576 46.6418 1.21111 46.6418 2.44088V36.6793C46.6613 37.9091 45.6463 38.9046 44.397 38.9046Z" fill="#DECFB4"/>
<path d="M44.4362 0.214844H22.7102C21.4804 0.214844 20.4849 1.21037 20.4849 2.44015V5.85619H46.5834L46.6615 5.83667V2.44015C46.6615 1.21037 45.6464 0.214844 44.4362 0.214844Z" fill="#064D83"/>
<path d="M46.5823 6.0703H20.4838C20.3666 6.0703 20.269 5.9727 20.269 5.85558V2.43954C20.269 1.09264 21.3622 -0.000488281 22.7091 -0.000488281H44.4351C45.782 -0.000488281 46.8751 1.09264 46.8751 2.43954V5.83606C46.8751 5.93366 46.8165 6.03126 46.7189 6.05078L46.6409 6.0703C46.6213 6.0703 46.6018 6.0703 46.5823 6.0703ZM20.718 5.62133H46.4261V2.43954C46.4261 1.32689 45.5282 0.428957 44.4156 0.428957H22.7091C21.5964 0.428957 20.6985 1.32689 20.6985 2.43954V5.62133H20.718Z" fill="#093673"/>
<path d="M23.747 4.00115C24.3184 4.00115 24.7815 3.53796 24.7815 2.96658C24.7815 2.3952 24.3184 1.93201 23.747 1.93201C23.1756 1.93201 22.7124 2.3952 22.7124 2.96658C22.7124 3.53796 23.1756 4.00115 23.747 4.00115Z" fill="#EC4258"/>
<path d="M23.7459 4.11991C23.1213 4.11991 22.5942 3.61239 22.5942 2.96822C22.5942 2.34357 23.1018 1.81653 23.7459 1.81653C24.3706 1.81653 24.8976 2.32405 24.8976 2.96822C24.8976 3.59287 24.3901 4.11991 23.7459 4.11991ZM23.7459 2.03125C23.2384 2.03125 22.8285 2.44117 22.8285 2.9487C22.8285 3.45623 23.2384 3.86615 23.7459 3.86615C24.2535 3.86615 24.6634 3.45623 24.6634 2.9487C24.6829 2.46069 24.273 2.03125 23.7459 2.03125Z" fill="#EC4258"/>
<path d="M27.1605 3.92351C27.7319 3.92351 28.1951 3.46032 28.1951 2.88894C28.1951 2.31756 27.7319 1.85437 27.1605 1.85437C26.5892 1.85437 26.126 2.31756 26.126 2.88894C26.126 3.46032 26.5892 3.92351 27.1605 3.92351Z" fill="#F6AE22"/>
<path d="M30.7128 4.00115C31.2842 4.00115 31.7474 3.53796 31.7474 2.96658C31.7474 2.3952 31.2842 1.93201 30.7128 1.93201C30.1414 1.93201 29.6782 2.3952 29.6782 2.96658C29.6782 3.53796 30.1414 4.00115 30.7128 4.00115Z" fill="#49A2BA"/>
<path d="M46.66 12.6896H22.2012V25.202H46.66V12.6896Z" fill="#CFC1A7"/>
<path d="M51.8318 10.0162H23.7422V22.5287H51.8318V10.0162Z" fill="white"/>
<path d="M51.8317 22.7441H23.7421C23.6249 22.7441 23.5273 22.6465 23.5273 22.5294V10.017C23.5273 9.89985 23.6249 9.80225 23.7421 9.80225H51.8317C51.9488 9.80225 52.0464 9.89985 52.0464 10.017V22.5294C52.0659 22.6465 51.9683 22.7441 51.8317 22.7441ZM23.9763 22.3147H51.6169V10.2317H23.9763V22.3147Z" fill="white"/>
<path d="M47.7309 14.4467H38.3612C38.2441 14.4467 38.1465 14.3491 38.1465 14.2319C38.1465 14.1148 38.2441 14.0172 38.3612 14.0172H47.7309C47.848 14.0172 47.9456 14.1148 47.9456 14.2319C47.9456 14.3491 47.848 14.4467 47.7309 14.4467Z" fill="#093673"/>
<path d="M48.5918 19.2097H38.3632C38.246 19.2097 38.1484 19.1121 38.1484 18.995C38.1484 18.8779 38.246 18.7803 38.3632 18.7803H48.5918C48.7089 18.7803 48.8065 18.8779 48.8065 18.995C48.8065 19.1121 48.7089 19.2097 48.5918 19.2097Z" fill="#093673"/>
<path d="M44.7658 16.8281H38.3632C38.246 16.8281 38.1484 16.7305 38.1484 16.6134C38.1484 16.4963 38.246 16.3987 38.3632 16.3987H44.7658C44.8829 16.3987 44.9805 16.4963 44.9805 16.6134C45 16.7305 44.9024 16.8281 44.7658 16.8281Z" fill="#093673"/>
<path d="M28.2294 20.9278H25.7504C25.6332 20.9278 25.5356 20.8302 25.5356 20.713V17.9412C25.5356 17.824 25.6332 17.7264 25.7504 17.7264C25.8675 17.7264 25.9651 17.824 25.9651 17.9412V20.4983H28.2294C28.3466 20.4983 28.4442 20.5959 28.4442 20.713C28.4442 20.8302 28.3661 20.9278 28.2294 20.9278Z" fill="#093673"/>
<path d="M33.9702 20.9275H31.4911C31.374 20.9275 31.2764 20.8299 31.2764 20.7128C31.2764 20.5957 31.374 20.4981 31.4911 20.4981H33.7554V17.9409C33.7554 17.8238 33.853 17.7262 33.9702 17.7262C34.0873 17.7262 34.1849 17.8238 34.1849 17.9409V20.7128C34.2044 20.8299 34.0873 20.9275 33.9702 20.9275Z" fill="#093673"/>
<path d="M25.7504 15.7736C25.6332 15.7736 25.5356 15.676 25.5356 15.5589V12.787C25.5356 12.6699 25.6332 12.5723 25.7504 12.5723H28.2294C28.3466 12.5723 28.4442 12.6699 28.4442 12.787C28.4442 12.9041 28.3466 13.0017 28.2294 13.0017H25.9651V15.5589C25.9846 15.676 25.8675 15.7736 25.7504 15.7736Z" fill="#093673"/>
<path d="M33.9677 15.7736C33.8506 15.7736 33.753 15.676 33.753 15.5589V13.0017H31.4886C31.3715 13.0017 31.2739 12.9041 31.2739 12.787C31.2739 12.6699 31.3715 12.5723 31.4886 12.5723H33.9677C34.0848 12.5723 34.1824 12.6699 34.1824 12.787V15.5589C34.202 15.676 34.0848 15.7736 33.9677 15.7736Z" fill="#093673"/>
<path d="M29.7351 18.1355C30.4359 18.1355 31.0039 17.5675 31.0039 16.8667C31.0039 16.166 30.4359 15.5979 29.7351 15.5979C29.0344 15.5979 28.4663 16.166 28.4663 16.8667C28.4663 17.5675 29.0344 18.1355 29.7351 18.1355Z" fill="#49A2BA"/>
<path d="M29.8337 18.5446C28.2136 18.5446 26.9252 17.1001 26.8667 17.0416C26.7886 16.9635 26.7886 16.8269 26.8667 16.7488C26.9252 16.6902 28.2136 15.2457 29.8337 15.2457C31.4539 15.2457 32.7422 16.6902 32.8008 16.7488C32.8789 16.8269 32.8789 16.9635 32.8008 17.0416C32.7422 17.1001 31.4734 18.5446 29.8337 18.5446ZM27.3547 16.8854C27.706 17.2368 28.7016 18.0957 29.8533 18.0957C31.005 18.0957 31.981 17.2368 32.3518 16.8854C32.0005 16.5341 31.005 15.6752 29.8533 15.6752C28.7016 15.6752 27.706 16.5341 27.3547 16.8854Z" fill="#093673"/>
<path d="M66.1209 56.0656C69.1826 56.0656 71.6646 53.5049 71.6646 50.3461C71.6646 47.1874 69.1826 44.6267 66.1209 44.6267C63.0592 44.6267 60.5771 47.1874 60.5771 50.3461C60.5771 53.5049 63.0592 56.0656 66.1209 56.0656Z" fill="#B8DBCD"/>
<path d="M68.9724 48.3937H63.2529V52.2977H68.9724V48.3937Z" fill="#49A2BA"/>
<path d="M68.9722 52.4929H63.2528C63.1357 52.4929 63.0576 52.4149 63.0576 52.2977V48.3937C63.0576 48.2766 63.1357 48.1985 63.2528 48.1985H68.9722C69.0894 48.1985 69.1674 48.2766 69.1674 48.3937V52.2977C69.1674 52.3953 69.0894 52.4929 68.9722 52.4929ZM63.448 52.1025H68.777V48.5889H63.448V52.1025Z" fill="#49A2BA"/>
<path d="M66.0831 50.9876C66.0441 50.9876 66.0051 50.9681 65.966 50.9486L63.1356 48.8014C63.0575 48.7428 63.038 48.6062 63.0965 48.5281C63.1551 48.45 63.2917 48.4305 63.3698 48.4891L66.0831 50.5387L68.7379 48.4891C68.816 48.4305 68.9526 48.4305 69.0112 48.5281C69.0697 48.6062 69.0697 48.7428 68.9721 48.8014L66.2003 50.9486C66.1612 50.9681 66.1222 50.9876 66.0831 50.9876Z" fill="#093673"/>
<path d="M56.8653 32.6971H43.1621V51.4951H56.8653V32.6971Z" fill="#E3E3E3"/>
<path d="M56.8652 51.7107H43.162C43.0449 51.7107 42.9668 51.6326 42.9668 51.5155V32.7175C42.9668 32.6004 43.0449 32.5223 43.162 32.5223H56.8652C56.9823 32.5223 57.0604 32.6004 57.0604 32.7175V51.5155C57.0604 51.6131 56.9823 51.7107 56.8652 51.7107ZM43.3572 51.3203H56.67V32.9127H43.3572V51.3203Z" fill="#E3E3E3"/>
<path d="M58.233 31.3303H44.5298V50.1283H58.233V31.3303Z" fill="white"/>
<path d="M58.2334 50.3424H44.5302C44.413 50.3424 44.335 50.2643 44.335 50.1472V31.3493C44.335 31.2321 44.413 31.1541 44.5302 31.1541H58.2334C58.3505 31.1541 58.4286 31.2321 58.4286 31.3493V50.1472C58.4286 50.2448 58.3505 50.3424 58.2334 50.3424ZM44.7254 49.952H58.0382V31.5445H44.7254V49.952Z" fill="white"/>
<path d="M54.6239 32.7744L52.5938 36.2685H56.6344L54.6239 32.7744Z" fill="#F6C056"/>
<path d="M56.6328 36.4644H52.5922C52.5141 36.4644 52.4555 36.4253 52.4165 36.3668C52.3774 36.3082 52.3774 36.2301 52.4165 36.1716L54.4466 32.6774C54.4856 32.6189 54.5442 32.5798 54.6223 32.5798C54.7003 32.5798 54.7589 32.6189 54.7979 32.6774L56.8281 36.1716C56.8671 36.2301 56.8671 36.3082 56.8281 36.3668C56.7695 36.4253 56.7109 36.4644 56.6328 36.4644ZM52.924 36.074H56.301L54.6223 33.1654L52.924 36.074Z" fill="#F6C056"/>
<path d="M56.6327 38.7085H48.8246C48.7075 38.7085 48.6294 38.6304 48.6294 38.5133C48.6294 38.3962 48.7075 38.3181 48.8246 38.3181H56.6327C56.7498 38.3181 56.8279 38.3962 56.8279 38.5133C56.8279 38.6109 56.7498 38.7085 56.6327 38.7085Z" fill="#093673"/>
<path d="M56.6344 42.6922H46.601C46.4838 42.6922 46.4058 42.6141 46.4058 42.497C46.4058 42.3798 46.4838 42.3018 46.601 42.3018H56.6344C56.7515 42.3018 56.8296 42.3798 56.8296 42.497C56.8296 42.6141 56.7515 42.6922 56.6344 42.6922Z" fill="#093673"/>
<path d="M56.6321 40.7008H51.3031C51.186 40.7008 51.1079 40.6227 51.1079 40.5056C51.1079 40.3885 51.186 40.3104 51.3031 40.3104H56.6321C56.7492 40.3104 56.8273 40.3885 56.8273 40.5056C56.8273 40.6227 56.7492 40.7008 56.6321 40.7008Z" fill="#093673"/>
<path d="M56.4774 44.9182H48.6693C48.5522 44.9182 48.4741 44.8402 48.4741 44.723C48.4741 44.6059 48.5522 44.5278 48.6693 44.5278H56.4774C56.5945 44.5278 56.6726 44.6059 56.6726 44.723C56.6726 44.8402 56.5945 44.9182 56.4774 44.9182Z" fill="#093673"/>
<path d="M56.6344 47.1609H46.601C46.4838 47.1609 46.4058 47.0828 46.4058 46.9657C46.4058 46.8486 46.4838 46.7705 46.601 46.7705H56.6344C56.7515 46.7705 56.8296 46.8486 56.8296 46.9657C56.8296 47.0828 56.7515 47.1609 56.6344 47.1609Z" fill="#093673"/>
<path d="M45.639 68.6335C45.4828 68.6335 45.3852 68.6335 45.3657 68.6335C45.2486 68.6335 45.1705 68.5359 45.19 68.4383C45.2095 68.3407 45.2876 68.2431 45.3852 68.2431C45.4047 68.2431 48.2352 68.3602 51.9245 67.0719C55.321 65.8812 60.162 63.1874 63.9489 57.2142C64.0075 57.1166 64.1246 57.0971 64.2222 57.1556C64.3198 57.2142 64.3393 57.3313 64.2808 57.4289C60.4353 63.5192 55.4967 66.2325 52.0416 67.4428C48.9184 68.5359 46.4393 68.6335 45.639 68.6335Z" fill="#093673"/>
<path d="M64.0479 60.1428C63.9308 60.1428 63.8527 60.0452 63.8527 59.9476L63.9698 57.41L61.5103 58.6788C61.4127 58.7373 61.2956 58.6983 61.2565 58.6007C61.198 58.5031 61.237 58.386 61.3346 58.3469L64.0869 56.922C64.1455 56.8829 64.2236 56.9024 64.2822 56.922C64.3407 56.961 64.3798 57.0196 64.3798 57.0976L64.2626 59.9866C64.2431 60.0647 64.1455 60.1428 64.0479 60.1428Z" fill="#093673"/>
<path d="M68.2471 44.3892C68.2081 44.3892 68.1886 44.3892 68.1495 44.3696C68.0519 44.3111 68.0129 44.194 68.0715 44.0964C68.091 44.0768 69.3208 41.7735 69.516 40.7389C69.5355 40.6413 69.6331 40.5632 69.7502 40.5827C69.8478 40.6022 69.9259 40.6998 69.9064 40.817C69.7112 41.9101 68.4814 44.194 68.4228 44.2916C68.3838 44.3501 68.3057 44.3892 68.2471 44.3892Z" fill="#093673"/>
<path d="M70.5297 43.3552C70.4321 43.3552 70.354 43.2967 70.3345 43.1991L69.7489 40.72L67.7188 42.5939C67.6407 42.672 67.5236 42.672 67.4455 42.5744C67.3674 42.4963 67.3674 42.3792 67.465 42.3011L69.7293 40.1929C69.7879 40.1539 69.8465 40.1344 69.9246 40.1539C69.9831 40.1734 70.0417 40.232 70.0612 40.2905L70.7249 43.1015C70.7444 43.1991 70.6858 43.3162 70.5882 43.3357C70.5687 43.3552 70.5492 43.3552 70.5297 43.3552Z" fill="#093673"/>
<path d="M21.2439 74.9395C32.4235 74.9395 41.4864 65.8767 41.4864 54.697C41.4864 43.5174 32.4235 34.4546 21.2439 34.4546C10.0643 34.4546 1.00146 43.5174 1.00146 54.697C1.00146 65.8767 10.0643 74.9395 21.2439 74.9395Z" fill="#B8DBCD"/>
<path d="M40.2771 61.5489C14.12 69.9231 6.35097 53.3504 4.0671 43.9612C2.11508 47.0649 0.98291 50.7542 0.98291 54.6973C0.98291 65.8824 10.0403 74.9398 21.2254 74.9398C30.0095 74.9398 37.4662 69.357 40.2771 61.5489Z" fill="#9DCCB9"/>
<path d="M17.0877 74.3123L17.0487 70.3301C16.7559 68.6709 16.4631 67.0117 16.4435 65.3134C16.4045 63.1857 16.7754 63.0296 16.6778 60.9019C16.5802 58.7742 15.897 56.5489 14.2182 55.2605L8.88922 53.6013C4.53621 55.4557 3.853 59.5159 4.10677 65.0206L4.22389 65.6062C7.07384 70.0959 11.6806 73.1801 17.0877 74.3123Z" fill="#EC4258"/>
<path d="M17.1851 74.4315L17.068 74.412C11.6023 73.2603 6.99554 70.1566 4.10655 65.6669L4.08703 65.6279L3.96991 65.0423C3.71615 59.4595 4.45791 55.3798 8.81092 53.5058L8.84996 53.4863L14.2375 55.1846C16.2481 56.7267 16.6776 59.4205 16.7361 60.904C16.7947 62.0167 16.7166 62.5827 16.6385 63.2074C16.5604 63.754 16.4824 64.32 16.5019 65.3156C16.5409 66.9943 16.8337 68.673 17.107 70.3127L17.1851 74.4315ZM4.28223 65.5693C7.11266 69.9809 11.6218 73.0456 16.9899 74.1973L16.9509 70.3323C16.658 68.7121 16.3652 67.0138 16.3457 65.3156C16.3262 64.3005 16.4043 63.7149 16.4824 63.1684C16.5604 62.5632 16.6385 61.9971 16.58 60.904C16.5019 59.4595 16.1115 56.8438 14.1595 55.3407L8.889 53.7011C4.65312 55.5164 3.95039 59.5376 4.20415 65.0033L4.28223 65.5693Z" fill="#EC4258"/>
<path d="M17.0283 70.3325C16.8331 69.2199 16.6379 68.1072 16.5208 66.9946C14.2564 65.96 11.8359 63.4224 11.8359 63.4224L12.1287 67.5216L13.1048 72.1089L16.8136 71.8161C16.8136 71.8161 16.9112 71.7185 17.0478 71.5428L17.0283 70.3325Z" fill="#D63C50"/>
<path d="M13.0237 72.2065L12.0281 67.5412L11.7158 63.1492L11.911 63.3444C11.9305 63.3639 14.351 65.882 16.5764 66.897L16.6349 66.9166V66.9751C16.752 68.1268 16.9668 69.2785 17.1424 70.3131V70.3326L17.162 71.5819L17.1424 71.6014C17.0058 71.7771 16.9082 71.8747 16.9082 71.8747L16.8887 71.8942L13.0237 72.2065ZM11.9501 63.6762L12.2233 67.5217L13.1798 72.0113L16.752 71.7185C16.7911 71.6795 16.8496 71.6014 16.9277 71.5038L16.9082 70.3326C16.7325 69.3176 16.5373 68.1854 16.4007 67.0532C14.5463 66.1748 12.5552 64.2813 11.9501 63.6762Z" fill="#D63C50"/>
<path d="M12.5976 51.8628C13.1441 52.0385 13.6907 52.1947 14.2568 52.2532C15.6232 52.3899 16.365 52.0775 16.2869 51.1991C16.2869 51.1406 16.4821 50.7892 16.443 50.7306C16.3454 50.6135 16.2869 50.633 16.1307 50.633C15.7208 50.6135 14.7448 49.9889 15.1352 49.4423C15.4865 48.9348 16.0722 49.5399 16.404 49.5594C16.7358 49.5789 16.6578 49.5594 16.7163 49.2471C16.7554 49.0129 16.7358 48.7981 16.931 48.642C17.1067 48.5053 17.5557 48.5834 17.7509 48.4663C17.9266 48.3687 17.9656 48.1149 17.9266 47.9197C17.8875 47.7245 17.3019 46.3776 17.2043 46.2019C16.4821 44.9331 17.3019 43.2544 16.365 42.2393C16.365 42.2393 15.5841 41.0681 13.7492 41.5952C11.9143 42.1222 10.4113 42.9616 9.96233 44.1914L9.53288 50.1255C9.66952 51.2772 9.49384 52.6436 9.18152 53.7563C9.10344 54.0296 10.6651 55.7083 12.5 56.0792C13.6712 56.3134 14.2373 55.6107 14.2373 55.2984C14.2177 53.9515 14.1592 53.6196 14.2373 52.3313" fill="#C48448"/>
<path d="M12.9297 56.3731C12.7736 56.3731 12.6174 56.3536 12.4417 56.3146C10.8411 55.9827 9.43561 54.7139 9.08424 54.1283C8.98664 53.9721 8.9476 53.855 8.98664 53.7574C9.31848 52.5276 9.43561 51.2003 9.338 50.2047C9.338 50.1852 9.338 50.1852 9.338 50.1657L9.76745 44.2315C9.76745 44.212 9.76745 44.1925 9.78697 44.173C10.1969 43.0213 11.5243 42.1038 13.691 41.4597C15.5454 40.9131 16.4043 42.0062 16.5019 42.1624C17.029 42.748 17.029 43.5288 17.029 44.2901C17.029 44.9343 17.029 45.598 17.3413 46.1445C17.4389 46.3202 18.0245 47.6866 18.0831 47.9209C18.1416 48.1746 18.0831 48.526 17.8098 48.6822C17.6731 48.7602 17.4975 48.7798 17.3413 48.7798C17.2437 48.7798 17.068 48.7993 17.0094 48.8383C16.9314 48.8969 16.9118 48.9945 16.8923 49.1702C16.8923 49.2092 16.8728 49.2678 16.8728 49.3263C16.8728 49.3849 16.8533 49.4239 16.8533 49.463C16.8142 49.8143 16.6386 49.8143 16.3653 49.7948C16.2286 49.7948 16.0725 49.7167 15.9163 49.6386C15.5454 49.4434 15.3893 49.4239 15.2722 49.5996C15.2136 49.6972 15.1941 49.7948 15.2526 49.8924C15.3893 50.1852 15.8968 50.478 16.1115 50.478C16.1506 50.478 16.1701 50.478 16.1896 50.478C16.3067 50.478 16.4434 50.478 16.58 50.6537C16.6776 50.7708 16.619 50.927 16.5214 51.1222C16.5019 51.1612 16.4824 51.2198 16.4629 51.2393C16.4824 51.6102 16.3848 51.903 16.1701 52.1177C15.8382 52.4496 15.2526 52.5667 14.3937 52.4886C14.3352 53.3084 14.3547 53.7379 14.3742 54.3235C14.3742 54.6163 14.3937 54.9481 14.3937 55.3581C14.3937 55.5728 14.2571 55.8266 14.0033 56.0218C13.8277 56.1584 13.4763 56.3731 12.9297 56.3731ZM9.338 53.8355C9.43561 54.1283 10.802 55.5923 12.5003 55.9437C13.1835 56.0803 13.5934 55.8656 13.7691 55.7094C13.9448 55.5533 14.0033 55.4166 14.0033 55.3581C14.0033 54.9286 13.9838 54.6163 13.9838 54.3235C13.9643 53.7184 13.9448 53.2889 14.0033 52.43C13.4958 52.352 12.9883 52.1958 12.5198 52.0592C12.4222 52.0201 12.3636 51.9225 12.4027 51.8054C12.4417 51.7078 12.5393 51.6492 12.6564 51.6883C13.164 51.8444 13.7105 52.0201 14.2766 52.0787C15.0965 52.1568 15.6626 52.0787 15.9163 51.8249C16.053 51.6883 16.1115 51.4931 16.092 51.2393C16.092 51.1612 16.1115 51.1027 16.1701 50.966C16.1896 50.9465 16.1896 50.9075 16.2091 50.8684C16.1896 50.8684 16.1896 50.8684 16.1701 50.8684C16.1506 50.8684 16.131 50.8684 16.1115 50.8684C15.7797 50.8489 15.1355 50.5171 14.9208 50.0681C14.8037 49.8338 14.8232 49.5801 14.9598 49.3654C15.3112 48.8774 15.7992 49.1311 16.1115 49.2873C16.2286 49.3458 16.3458 49.4044 16.4043 49.4044C16.4238 49.4044 16.4629 49.4044 16.4824 49.4044C16.4824 49.3654 16.5019 49.3068 16.5019 49.2482C16.5019 49.2092 16.5214 49.1506 16.5214 49.1116C16.541 48.9164 16.58 48.7017 16.7752 48.526C16.9118 48.4089 17.1266 48.4089 17.3218 48.3894C17.4194 48.3894 17.5755 48.3698 17.6146 48.3503C17.7122 48.2917 17.7317 48.1356 17.6927 48.0185C17.6536 47.8428 17.068 46.4959 16.9899 46.3397C16.619 45.6956 16.619 44.9733 16.619 44.2901C16.619 43.5679 16.619 42.9042 16.1896 42.4162L16.1701 42.3966C16.1506 42.3576 15.4283 41.3621 13.7691 41.8501C11.7585 42.4357 10.5092 43.2751 10.1188 44.2901L9.68937 50.1852C9.80649 51.2198 9.68937 52.5667 9.338 53.8355Z" fill="#C48448"/>
<path d="M14.1782 46.263C14.1782 46.263 14.4905 47.2976 15.2909 47.1024C16.0717 46.9072 15.896 45.9702 15.896 45.9702C15.896 45.9702 15.1152 46.0678 14.9395 46.0873C14.7443 46.1264 14.1782 46.263 14.1782 46.263Z" fill="white"/>
<path d="M15.0952 47.3177C14.4706 47.3177 14.1192 46.693 14.0021 46.3221C13.9826 46.2636 13.9826 46.2245 14.0216 46.166C14.0606 46.1074 14.0997 46.0879 14.1387 46.0684C14.1582 46.0684 14.7243 45.9317 14.9 45.8927C15.0757 45.8537 15.837 45.7756 15.876 45.7561C15.9736 45.7365 16.0712 45.8146 16.0907 45.9122C16.1688 46.3026 16.1103 47.0834 15.349 47.2786C15.2514 47.3177 15.1733 47.3177 15.0952 47.3177ZM14.451 46.4002C14.5682 46.6345 14.8219 47.0249 15.2319 46.9078C15.6418 46.8102 15.7003 46.4198 15.7003 46.166C15.4271 46.205 15.0562 46.2441 14.9586 46.2636C14.861 46.3026 14.6267 46.3612 14.451 46.4002Z" fill="white"/>
<path d="M15.328 47.0836C15.4897 47.0836 15.6208 46.8389 15.6208 46.537C15.6208 46.2352 15.4897 45.9905 15.328 45.9905C15.1662 45.9905 15.0352 46.2352 15.0352 46.537C15.0352 46.8389 15.1662 47.0836 15.328 47.0836Z" fill="#093673"/>
<path d="M15.3298 47.2786C15.0565 47.2786 14.8418 46.9663 14.8418 46.5368C14.8418 46.1074 15.0565 45.795 15.3298 45.795C15.6031 45.795 15.8178 46.1074 15.8178 46.5368C15.8178 46.9663 15.6226 47.2786 15.3298 47.2786ZM15.3298 46.1854C15.3103 46.205 15.2322 46.3221 15.2322 46.5368C15.2322 46.7515 15.3103 46.8687 15.3493 46.8882C15.3688 46.8687 15.4469 46.7515 15.4469 46.5368C15.4469 46.3221 15.3688 46.205 15.3298 46.1854Z" fill="#093673"/>
<path d="M14.1995 46.341C14.1214 46.341 14.0434 46.341 13.9848 46.3215C13.8872 46.302 13.8091 46.1849 13.8482 46.0873C13.8677 45.9897 13.9848 45.9116 14.0824 45.9506C14.2776 45.9897 14.4728 45.9311 14.668 45.8726C14.707 45.853 14.7461 45.8335 14.7851 45.8335C14.9803 45.7554 15.1755 45.6774 15.3903 45.6578C15.7416 45.6188 16.0539 45.7554 16.1906 46.0092C16.2491 46.1068 16.2101 46.2239 16.132 46.2825C16.0344 46.341 15.9173 46.302 15.8587 46.2239C15.7807 46.0873 15.5855 46.0482 15.4293 46.0678C15.2731 46.0873 15.0975 46.1458 14.9413 46.2239C14.9022 46.2434 14.8632 46.263 14.8046 46.2825C14.629 46.263 14.4142 46.341 14.1995 46.341Z" fill="#093673"/>
<path d="M14.0234 45.2092C14.0038 45.2092 13.9843 45.2092 13.9648 45.2092C13.8477 45.2092 13.7696 45.1116 13.7891 45.014C13.7891 44.8968 13.8867 44.8188 13.9843 44.8383C14.2186 44.8578 14.4528 44.7602 14.6871 44.6626L14.7261 44.6431C14.9799 44.5455 15.2336 44.4284 15.5264 44.4284C15.8973 44.4088 16.2487 44.5845 16.3853 44.8773C16.4439 44.9749 16.4048 45.092 16.3072 45.1311C16.2096 45.1896 16.0925 45.1506 16.0535 45.053C15.9559 44.8773 15.7411 44.7992 15.5459 44.8188C15.3312 44.8188 15.097 44.9164 14.8627 45.014L14.8237 45.0335C14.5699 45.1311 14.3162 45.2092 14.0234 45.2092Z" fill="#093673"/>
<path d="M10.8401 46.4006C11.3085 46.1078 11.6014 45.6198 11.8161 45.1318C12.0308 44.6438 12.187 44.1167 12.4407 43.6287C12.9482 42.6722 13.9633 41.9305 15.0564 42.0086C15.3688 42.0281 15.6616 42.1257 15.9739 42.1452C16.2862 42.1647 16.618 42.1257 16.8328 41.9305C17.067 41.7353 17.1451 40.9545 16.9499 40.7202C16.7156 40.4469 16.2862 40.5445 15.9153 40.6031C14.6465 40.7983 13.3777 40.1737 12.0894 40.2127C8.00963 40.3298 7.58019 44.3119 7.46307 45.6784C7.34595 47.0448 7.91203 48.5478 8.77092 49.6019C8.90756 49.7776 9.06373 49.9338 9.23941 50.0314C9.43461 50.129 9.66885 50.168 9.86405 50.0704C10.274 49.8557 10.2545 49.2115 10.6253 48.9382" fill="#093673"/>
<path d="M9.59147 50.343C9.43531 50.343 9.29867 50.304 9.14251 50.2259C8.90826 50.1088 8.7521 49.9136 8.61546 49.7574C7.65897 48.5862 7.13193 47.0246 7.24905 45.6777C7.56137 42.0079 9.18155 40.1144 12.051 40.0363C12.6561 40.0168 13.2418 40.1339 13.8078 40.251C14.5106 40.3877 15.1743 40.5243 15.8575 40.4267L15.9551 40.4072C16.3259 40.3486 16.7749 40.2706 17.0677 40.6024C17.2434 40.7976 17.2434 41.1295 17.2239 41.3051C17.2044 41.5784 17.1263 41.9298 16.9311 42.0859C16.6968 42.3007 16.3455 42.3787 15.916 42.3397C15.7599 42.3202 15.6037 42.3007 15.4475 42.2616C15.2914 42.2421 15.1547 42.2031 14.9986 42.2031C13.925 42.125 13.0075 42.9058 12.5781 43.7061C12.4219 43.9989 12.3048 44.2917 12.1877 44.6041C12.1096 44.7993 12.0315 44.9945 11.9534 45.1897C11.6801 45.8338 11.3288 46.2828 10.8993 46.5366C10.8017 46.5951 10.6846 46.5561 10.626 46.478C10.5675 46.3804 10.6065 46.2633 10.6846 46.2047C11.036 45.99 11.3288 45.5996 11.5825 45.0335C11.6606 44.8578 11.7387 44.6626 11.7973 44.4674C11.9144 44.1551 12.0315 43.8232 12.2072 43.5109C12.7928 42.3983 13.925 41.7151 14.9986 41.7931C15.1743 41.8127 15.3304 41.8322 15.4866 41.8712C15.6427 41.8907 15.7794 41.9298 15.916 41.9298C16.1307 41.9493 16.4431 41.9298 16.6383 41.7541C16.6968 41.7151 16.7749 41.5199 16.7944 41.2466C16.814 41.0123 16.7554 40.8757 16.7359 40.8366C16.5797 40.6805 16.2869 40.7195 15.9746 40.7781L15.877 40.7976C15.1352 40.9147 14.413 40.7586 13.6907 40.6219C13.1442 40.5048 12.5781 40.3877 12.012 40.4072C8.02985 40.5048 7.69801 44.4089 7.58089 45.6972C7.46377 46.927 7.95177 48.391 8.8497 49.4841C8.96683 49.6207 9.10347 49.7769 9.25963 49.855C9.41579 49.9331 9.57195 49.9526 9.68907 49.894C9.84524 49.816 9.92332 49.6208 10.0209 49.406C10.1185 49.1913 10.2161 48.9375 10.4308 48.7814C10.5089 48.7228 10.6456 48.7423 10.7041 48.8204C10.7627 48.8985 10.7432 49.0351 10.6651 49.0937C10.5284 49.1913 10.4504 49.367 10.3723 49.5622C10.2747 49.8159 10.1576 50.0892 9.86475 50.2454C9.82571 50.304 9.70859 50.343 9.59147 50.343Z" fill="#093673"/>
<path d="M11.6791 66.9357C11.9915 67.5994 11.9915 68.3411 12.1086 69.0634C12.2257 69.7856 12.5576 70.5274 13.2212 70.8397C13.7678 71.0935 14.412 70.9373 14.9976 70.8202C19.0187 70.0003 23.2742 70.3127 27.1196 71.7181L25.0895 73.3969C20.3461 72.4404 16.5397 75.2903 11.7572 74.5486C11.2692 74.4705 10.8007 74.3534 10.3713 74.0996C9.39528 73.514 7.59942 69.3171 7.26758 68.224L11.6791 66.9357Z" fill="#C48448"/>
<path d="M13.4165 74.8607C12.8699 74.8607 12.3038 74.8217 11.7182 74.7241C11.0935 74.6265 10.6446 74.4899 10.2542 74.2556C9.16104 73.6114 7.34566 69.2194 7.05286 68.2629C7.03334 68.2043 7.03334 68.1653 7.07238 68.1067C7.0919 68.0677 7.13094 68.0287 7.1895 68.0091L11.6011 66.7403C11.6987 66.7208 11.7963 66.7598 11.8353 66.8379C12.0696 67.3259 12.1281 67.8725 12.2062 68.38C12.2257 68.5752 12.2648 68.7899 12.3038 69.0047C12.3819 69.4927 12.6356 70.332 13.2993 70.6248C13.7678 70.8396 14.3534 70.7224 14.9 70.6053L14.9585 70.5858C19.0383 69.7464 23.2742 70.0588 27.1782 71.4837C27.2368 71.5033 27.2953 71.5618 27.2953 71.6399C27.3148 71.718 27.2758 71.7765 27.2368 71.8156L25.2067 73.4943C25.1676 73.5334 25.1091 73.5529 25.0505 73.5334C22.669 73.0454 20.5608 73.5529 18.316 74.0604C16.7544 74.4899 15.1342 74.8607 13.4165 74.8607ZM7.50183 68.341C7.97031 69.7074 9.62953 73.4358 10.4689 73.9238C10.8007 74.119 11.2107 74.2556 11.7768 74.3532C14.0606 74.7046 16.1883 74.2166 18.2184 73.7481C20.3656 73.2406 22.591 72.733 25.0115 73.2015L26.7097 71.7961C22.9423 70.4882 18.9212 70.2149 15.0171 71.0153L14.9585 71.0348C14.3729 71.1519 13.7093 71.2885 13.1236 71.0348C12.499 70.7615 12.0696 70.0783 11.9134 69.1218C11.8744 68.9071 11.8548 68.6923 11.8158 68.4776C11.7572 68.0287 11.6987 67.5992 11.5425 67.1893L7.50183 68.341Z" fill="#C48448"/>
<path d="M11.1923 46.713C11.1142 46.5178 10.8799 46.4397 10.6847 46.4788C10.4895 46.5178 10.3334 46.674 10.1967 46.8496C9.94298 47.201 9.82586 47.6695 9.9625 48.0794C10.0991 48.4893 10.5091 48.8212 10.9385 48.8017" fill="#C48448"/>
<path d="M10.8985 48.9965C10.4105 48.9965 9.92249 48.6452 9.76633 48.1376C9.62969 47.6887 9.72729 47.1616 10.0396 46.7322C10.2153 46.4979 10.4105 46.3418 10.6252 46.3027C10.8985 46.2442 11.2499 46.3613 11.367 46.6541C11.406 46.7517 11.3475 46.8688 11.2499 46.9079C11.1523 46.9469 11.0351 46.8883 10.9961 46.7907C10.9571 46.6931 10.8204 46.6541 10.7033 46.6736C10.5471 46.7127 10.4105 46.8493 10.3324 46.9664C10.0982 47.2983 10.0201 47.7082 10.1177 48.04C10.2348 48.3914 10.5667 48.6452 10.8985 48.6256C11.0156 48.6256 11.0937 48.7037 11.0937 48.8208C11.0937 48.938 11.0156 49.016 10.8985 49.016C10.918 48.9965 10.918 48.9965 10.8985 48.9965Z" fill="#C48448"/>
<path d="M10.6647 47.7865C10.6061 47.7865 10.5671 47.767 10.528 47.7279C10.3719 47.5717 10.3133 47.357 10.3719 47.1423C10.4304 46.9471 10.5866 46.7714 10.8013 46.7324C10.8989 46.7129 11.0161 46.7714 11.0356 46.869C11.0551 46.9666 10.9965 47.0837 10.8989 47.1033C10.8208 47.1228 10.7623 47.1813 10.7428 47.2399C10.7232 47.2985 10.7428 47.3961 10.8013 47.4351C10.8794 47.5132 10.8794 47.6303 10.8013 47.7084C10.7623 47.7669 10.7037 47.7865 10.6647 47.7865Z" fill="#093673"/>
<path d="M14.1759 54.4039C14.1564 53.6426 14.1369 53.4083 14.1955 52.5299C13.7075 52.3933 13.0828 52.1981 12.8876 52.0614C12.5362 51.8467 11.8921 52.0419 12.7314 53.1936C13.1609 53.7597 13.7075 54.1501 14.1759 54.4039Z" fill="#AB733F"/>
<path d="M14.1766 54.5996C14.1375 54.5996 14.118 54.5996 14.0985 54.5801C13.5129 54.2873 12.9663 53.8383 12.5759 53.3113C11.9903 52.5305 12.0684 52.1401 12.2441 51.9449C12.4393 51.7301 12.7711 51.7692 12.9858 51.9058C13.0444 51.9449 13.2982 52.0815 14.2546 52.3353C14.3327 52.3548 14.4108 52.4524 14.3913 52.5305C14.3522 53.2722 14.3522 53.5455 14.3718 54.0921V54.3849C14.3718 54.4434 14.3327 54.5215 14.2742 54.5606C14.2546 54.5801 14.2156 54.5996 14.1766 54.5996ZM12.6149 52.1986C12.5759 52.1986 12.5369 52.1986 12.5369 52.2181C12.4978 52.2572 12.4783 52.5109 12.8882 53.077C13.181 53.4674 13.5519 53.7993 13.9814 54.053C13.9618 53.565 13.9618 53.2918 14.0009 52.6671C13.0249 52.3743 12.8492 52.2572 12.7906 52.2181C12.7321 52.1986 12.6735 52.1986 12.6149 52.1986Z" fill="#AB733F"/>
<path d="M12.0503 67.0705C11.9527 67.0705 11.8746 67.0119 11.8551 66.9143C11.5233 65.1575 11.3085 63.3617 11.2109 61.5658C11.2109 61.4487 11.289 61.3706 11.3866 61.3706C11.4842 61.3706 11.5818 61.4487 11.5818 61.5463C11.6794 63.3226 11.8746 65.099 12.2065 66.8363C12.226 66.9339 12.1479 67.051 12.0503 67.0705C12.0698 67.0705 12.0698 67.0705 12.0503 67.0705Z" fill="#B83345"/>
<path d="M7.09273 68.5344C7.01465 68.5344 6.93657 68.4758 6.89753 68.3977C6.74137 67.8707 6.60473 67.3436 6.44857 66.8361C5.92152 65.0597 5.414 63.381 5.29688 61.4876C5.29688 61.3704 5.37496 61.2923 5.47256 61.2728C5.58968 61.2728 5.66776 61.3509 5.68728 61.4485C5.8044 63.3029 6.31193 64.9621 6.81945 66.719C6.97561 67.2265 7.13178 67.7535 7.26842 68.2806C7.28794 68.3782 7.22938 68.4953 7.13178 68.5148C7.13178 68.5343 7.11226 68.5344 7.09273 68.5344Z" fill="#B83345"/>
<path d="M21.0497 31.6609H31.1416C32.2152 31.6609 33.0936 32.5393 33.0936 33.6129V37.3803C33.0936 38.4539 32.2152 39.3323 31.1416 39.3323H23.5873C23.4897 39.957 22.8651 40.5816 22.4161 40.894C21.7524 41.3624 20.913 41.5967 20.0932 41.4991C20.6788 41.4015 21.0692 40.7963 21.1473 40.2107C21.1863 39.9179 21.1473 39.6251 21.0887 39.3323H21.0497C19.9761 39.3323 19.0977 38.4539 19.0977 37.3803V33.6129C19.0977 32.5393 19.9761 31.6609 21.0497 31.6609Z" fill="#3B8396"/>
<path d="M20.482 41.7145C20.3454 41.7145 20.2087 41.7145 20.0721 41.695C19.9745 41.6755 19.8964 41.5974 19.8964 41.4998C19.8964 41.4022 19.955 41.3241 20.0526 41.3046C20.5601 41.2265 20.8919 40.6605 20.931 40.192C20.9505 39.9968 20.9505 39.782 20.8919 39.5283C19.7793 39.4502 18.8813 38.5327 18.8813 37.3811V33.6137C18.8813 32.4229 19.8378 31.4664 21.0286 31.4664H31.1205C32.3113 31.4664 33.2677 32.4229 33.2677 33.6137V37.3811C33.2677 38.5718 32.3113 39.5283 31.1205 39.5283H23.7224C23.5272 40.192 22.883 40.7776 22.5121 41.0509C21.9265 41.4803 21.2043 41.7145 20.482 41.7145ZM21.0481 31.8568C20.0721 31.8568 19.2913 32.6376 19.2913 33.6137V37.3811C19.2913 38.3571 20.0721 39.1379 21.0481 39.1379H21.0676C21.1652 39.1379 21.2433 39.1964 21.2628 39.294C21.3409 39.6454 21.3604 39.9382 21.3409 40.231C21.3019 40.6019 21.1262 41.0118 20.8529 41.3046C21.3799 41.2461 21.8875 41.0509 22.2974 40.7385C22.7659 40.4067 23.2929 39.8211 23.3905 39.294C23.41 39.1964 23.4881 39.1379 23.5857 39.1379H31.14C32.1161 39.1379 32.8969 38.3571 32.8969 37.3811V33.6137C32.8969 32.6376 32.1161 31.8568 31.14 31.8568H21.0481Z" fill="#3B8396"/>
<path d="M31.5329 33.8699H25.1498C25.0327 33.8699 24.9546 33.7918 24.9546 33.6747C24.9546 33.5576 25.0327 33.4795 25.1498 33.4795H31.5329C31.65 33.4795 31.7281 33.5576 31.7281 33.6747C31.7281 33.7918 31.6305 33.8699 31.5329 33.8699Z" fill="white"/>
<path d="M31.5327 37.128H22.163C22.0459 37.128 21.9678 37.0499 21.9678 36.9328C21.9678 36.8156 22.0459 36.7375 22.163 36.7375H31.5327C31.6498 36.7375 31.7279 36.8156 31.7279 36.9328C31.7279 37.0499 31.6303 37.128 31.5327 37.128Z" fill="white"/>
<path d="M31.5336 35.5094H27.1806C27.0634 35.5094 26.9854 35.4313 26.9854 35.3142C26.9854 35.1971 27.0634 35.119 27.1806 35.119H31.5336C31.6507 35.119 31.7288 35.1971 31.7288 35.3142C31.7288 35.4313 31.6312 35.5094 31.5336 35.5094Z" fill="white"/>
<path d="M42.0313 72.9259H26.5127L28.9137 60.8234H44.4323L42.0313 72.9259Z" fill="#49A2BA"/>
<path d="M42.03 73.12H26.5115C26.4529 73.12 26.3943 73.1005 26.3553 73.0419C26.3163 72.9834 26.2967 72.9443 26.3163 72.8858L28.7172 60.7832C28.7368 60.6856 28.8148 60.6271 28.9124 60.6271H44.431C44.4896 60.6271 44.5481 60.6466 44.5872 60.7052C44.6262 60.7637 44.6457 60.8028 44.6262 60.8613L42.2252 72.9638C42.2057 73.0614 42.1276 73.12 42.03 73.12ZM26.7652 72.7296H41.8934L44.2163 61.0175H29.0881L26.7652 72.7296Z" fill="#49A2BA"/>
<path d="M42.0502 72.9275H23.7402V74.8405H42.0502V72.9275Z" fill="#3B8396"/>
<path d="M42.0291 75.0345H23.7191C23.602 75.0345 23.5239 74.9564 23.5239 74.8393V72.9263C23.5239 72.8092 23.602 72.7311 23.7191 72.7311H42.0291C42.1462 72.7311 42.2243 72.8092 42.2243 72.9263V74.8393C42.2243 74.9369 42.1462 75.0345 42.0291 75.0345ZM23.9339 74.6441H41.8534V73.1215H23.9339V74.6441Z" fill="#3B8396"/>
<path d="M36.019 68.0474C36.5688 68.0474 37.0145 67.6104 37.0145 67.0713C37.0145 66.5323 36.5688 66.0953 36.019 66.0953C35.4692 66.0953 35.0234 66.5323 35.0234 67.0713C35.0234 67.6104 35.4692 68.0474 36.019 68.0474Z" fill="#97C3CF"/>
<path d="M36.0198 68.2432C35.3561 68.2432 34.8291 67.7161 34.8291 67.072C34.8291 66.4278 35.3561 65.9008 36.0198 65.9008C36.6835 65.9008 37.2106 66.4278 37.2106 67.072C37.2106 67.7161 36.664 68.2432 36.0198 68.2432ZM36.0198 66.2912C35.5709 66.2912 35.2195 66.6425 35.2195 67.072C35.2195 67.5014 35.5904 67.8528 36.0198 67.8528C36.4493 67.8528 36.8202 67.5014 36.8202 67.072C36.8202 66.6425 36.4493 66.2912 36.0198 66.2912Z" fill="#97C3CF"/>
<path d="M44.0204 62.8759C41.0533 66.6823 35.2753 72.187 26.6474 72.2846L26.5107 72.9483H42.0293L44.0204 62.8759Z" fill="#3C97B0"/>
<path d="M42.03 73.1224H26.5115C26.4529 73.1224 26.3943 73.1029 26.3553 73.0443C26.3163 72.9857 26.2967 72.9467 26.3163 72.8881L26.4529 72.2245C26.4724 72.1269 26.5505 72.0683 26.6481 72.0683C35.3736 71.9512 41.1907 66.1732 43.8844 62.7376C43.943 62.6595 44.0406 62.64 44.1187 62.6791C44.1968 62.7181 44.2553 62.7962 44.2358 62.8938L42.2447 72.9662C42.2057 73.0638 42.1276 73.1224 42.03 73.1224ZM26.7652 72.732H41.8934L43.6892 63.5965C40.8003 67.1102 35.1199 72.283 26.8238 72.4587L26.7652 72.732Z" fill="#3C97B0"/>
<path d="M72.6435 36.8724C82.2383 36.8724 90.0165 29.0943 90.0165 19.4995C90.0165 9.90462 82.2383 2.12646 72.6435 2.12646C63.0487 2.12646 55.2705 9.90462 55.2705 19.4995C55.2705 29.0943 63.0487 36.8724 72.6435 36.8724Z" fill="#B8DBCD"/>
<path d="M89.0406 25.5326C66.6899 32.677 60.0531 18.5249 58.101 10.5021C56.4418 13.1568 55.4658 16.2996 55.4658 19.6766C55.4658 29.222 63.2153 36.9715 72.7607 36.9715C80.2565 36.9715 86.6396 32.189 89.0406 25.5326Z" fill="#9DCCB9"/>
<path d="M86.1295 30.4332C85.4463 28.1493 84.5679 26.0607 83.1624 24.1087C81.7374 22.1176 79.4731 20.5755 77.0331 20.6341L66.9801 20.7707C63.6812 21.7467 59.4844 26.1778 58.645 29.5158V29.8086C61.8073 34.0835 66.9021 36.8749 72.6215 36.8749C78.0872 36.8749 82.9477 34.3568 86.1295 30.4332Z" fill="#093673"/>
<path d="M72.6409 37.0708C67.0972 37.0708 61.8072 34.3965 58.5083 29.9264C58.4888 29.8874 58.4692 29.8483 58.4692 29.8093V29.5165C58.4692 29.497 58.4692 29.4774 58.4692 29.4579C59.3281 26.0419 63.6031 21.5717 66.941 20.5762C66.9605 20.5762 66.98 20.5762 66.9996 20.5762L77.0525 20.4396C77.0915 20.4396 77.1501 20.4396 77.1891 20.4396C79.4339 20.4396 81.7373 21.7669 83.338 23.9923C84.6068 25.7686 85.5243 27.7206 86.3246 30.3754C86.3441 30.4339 86.3246 30.512 86.2855 30.551C82.9281 34.6893 77.9504 37.0708 72.6409 37.0708ZM58.8596 29.7507C62.1 34.0842 67.2338 36.6804 72.6409 36.6804C77.8138 36.6804 82.6353 34.3965 85.9147 30.3949C85.1338 27.8377 84.2359 25.9443 83.0061 24.2265C81.4445 22.0598 79.2192 20.7909 77.0525 20.83L67.0191 20.9666C63.7983 21.9426 59.699 26.2566 58.8401 29.536L58.8596 29.7507Z" fill="#9BC482"/>
<path d="M86.1295 30.4322C85.6415 28.7925 85.0559 27.2699 84.2555 25.8254C73.4023 33.3407 63.7984 28.3826 60.2847 26.2158C59.5039 27.3285 58.9183 28.4802 58.645 29.5148V29.8076C61.8073 34.0825 66.9021 36.8739 72.6215 36.8739C78.0872 36.8739 82.9477 34.3558 86.1295 30.4322Z" fill="#093673"/>
<path d="M72.6409 37.0697C67.0972 37.0697 61.8072 34.3954 58.5083 29.9253C58.4888 29.8863 58.4692 29.8472 58.4692 29.8082V29.5154C58.4692 29.4959 58.4692 29.4763 58.4692 29.4568C58.723 28.4418 59.3086 27.2705 60.1285 26.0993C60.187 26.0213 60.3041 25.9822 60.3822 26.0408C65.9845 29.4959 74.6515 32.2287 84.1383 25.6504C84.1774 25.6113 84.2359 25.6113 84.2945 25.6113C84.353 25.6308 84.3921 25.6504 84.4116 25.7089C85.1534 27.0363 85.7585 28.5198 86.3051 30.3547C86.3246 30.4133 86.3051 30.4914 86.266 30.5304C82.9281 34.6882 77.9504 37.0697 72.6409 37.0697ZM58.8596 29.7496C62.1 34.0831 67.2338 36.6793 72.6409 36.6793C77.8138 36.6793 82.6353 34.3954 85.9147 30.3938C85.4071 28.715 84.841 27.3486 84.1774 26.1189C79.5315 29.3006 74.5734 30.5499 69.4786 29.8472C66.3944 29.4178 63.3103 28.2856 60.3237 26.4702C59.5819 27.5438 59.0548 28.5979 58.8206 29.5349L58.8596 29.7496Z" fill="#093673"/>
<path d="M76.526 21.4904C75.9404 22.2907 75.1206 22.8958 74.2031 23.3057C73.0124 23.8328 71.6655 24.028 70.3967 23.7742C69.1279 23.5205 67.9176 22.7982 67.1758 21.7246C67.0197 21.4904 66.8635 21.1975 67.0002 20.9438C67.0978 20.7291 67.3515 20.6315 67.5662 20.5729C68.0933 20.4363 68.6594 20.3972 69.1864 20.2411C69.7135 20.0849 70.2405 20.202 70.4943 19.714C70.8652 19.0308 70.8652 18.0743 70.5919 17.3521L73.11 15.6538L74.4569 17.1373L76.7993 20.4753L76.526 21.4904Z" fill="#F58E9E"/>
<path d="M71.5111 24.0685C71.1207 24.0685 70.7108 24.0295 70.3399 23.9514C68.9735 23.6781 67.7633 22.8973 67.002 21.8237C66.7482 21.4528 66.6701 21.1209 66.8068 20.8477C66.9434 20.5549 67.2753 20.4377 67.5095 20.3792C67.7633 20.3206 68.0365 20.2621 68.2903 20.223C68.5831 20.1645 68.8564 20.1254 69.1297 20.0473C69.2858 20.0083 69.4615 19.9693 69.5982 19.9497C69.969 19.8912 70.1838 19.8521 70.3204 19.6179C70.6327 19.0323 70.6718 18.1539 70.418 17.4121C70.379 17.334 70.418 17.2364 70.4961 17.1779L73.0142 15.4796C73.0923 15.421 73.2094 15.4406 73.268 15.5186L74.6149 17.0022L74.6344 17.0217L76.9768 20.3597C77.0158 20.3987 77.0158 20.4573 76.9963 20.5158L76.723 21.5309C76.723 21.5504 76.7035 21.5699 76.684 21.5894C76.1374 22.3702 75.2981 23.0144 74.283 23.4634C73.3851 23.8733 72.4481 24.0685 71.5111 24.0685ZM70.8279 17.4121C71.0817 18.232 71.0231 19.1494 70.6718 19.7936C70.4375 20.223 70.0471 20.2816 69.6567 20.3401C69.5201 20.3597 69.3639 20.3792 69.2273 20.4182C68.9345 20.4963 68.6417 20.5549 68.3489 20.5939C68.0951 20.6329 67.8413 20.672 67.6071 20.7501C67.3533 20.8086 67.2167 20.9062 67.1581 21.0038C67.0801 21.1795 67.1972 21.4138 67.3338 21.5894C68.0365 22.585 69.1492 23.3072 70.418 23.561C71.6087 23.7952 72.9166 23.6391 74.1073 23.112C75.0443 22.7021 75.8251 22.1165 76.3326 21.3942L76.5669 20.4963L74.3025 17.2559L73.0728 15.9091L70.8279 17.4121Z" fill="#F58E9E"/>
<path d="M73.1504 16.1818C72.5843 16.4551 71.257 17.0798 70.6128 17.4116C70.7494 17.841 70.808 18.329 70.769 18.7975C71.1203 18.778 71.7059 18.5633 72.3306 17.802C73.209 16.6893 73.9312 15.8109 73.1504 16.1818Z" fill="#F07689"/>
<path d="M70.7686 18.9928C70.71 18.9928 70.671 18.9733 70.6319 18.9342C70.5929 18.8952 70.5734 18.8366 70.5734 18.7781C70.6124 18.3486 70.5734 17.8801 70.4367 17.4702C70.3977 17.3726 70.4563 17.275 70.5343 17.236C71.1004 16.9627 72.4864 16.2795 73.072 16.0062C73.2086 15.9476 73.4819 15.811 73.6185 16.0062C73.7942 16.2404 73.5405 16.5918 72.6035 17.7435L72.4668 17.9192C71.7641 18.7976 71.12 18.9537 70.7686 18.9928ZM70.8467 17.5093C70.9443 17.8411 70.9833 18.212 70.9833 18.5633C71.2761 18.4853 71.7056 18.251 72.174 17.6654L72.3107 17.4897C72.6035 17.1188 72.9744 16.6699 73.1501 16.3966C72.584 16.6699 71.4518 17.2164 70.8467 17.5093Z" fill="#F07689"/>
<path d="M72.1527 16.0071C71.5671 16.7684 70.7082 17.3149 69.7517 17.4906C69.2832 17.5882 68.7171 17.5296 68.4829 17.1197C68.3658 16.905 68.3658 16.866 68.3463 16.6122C68.3072 16.378 68.2487 16.1242 68.0339 16.0266C68.561 15.929 69.3808 15.3824 68.8928 14.8944C68.6781 14.6797 68.4634 15.1677 68.2291 15.2458C67.9949 15.3239 67.7607 15.3239 67.6045 15.1287C67.5264 15.0115 67.4874 14.8749 67.4093 14.7773C67.175 14.4259 66.5309 14.7773 66.2576 14.6016C65.9843 14.4259 66.8822 12.9229 66.7651 11.9664C66.648 11.0099 66.6285 8.49179 67.4678 7.9257C67.4678 7.9257 68.7562 6.79353 70.962 7.51578C73.1678 8.23802 74.0462 11.9664 74.0462 12.103C74.0462 12.2397 74.1047 17.393 74.1047 17.393L73.6167 18.3495" fill="#F58E9E"/>
<path d="M73.6191 18.5629C73.58 18.5629 73.5605 18.5629 73.5215 18.5434C73.4239 18.4848 73.3848 18.3677 73.4434 18.2896L73.9119 17.3721C73.9119 16.8256 73.8728 12.2578 73.8728 12.1212C73.8338 11.7698 72.9359 8.37332 70.9253 7.70964C68.8366 7.02643 67.6264 8.061 67.6069 8.08052L67.5873 8.10004C66.8651 8.58805 66.8261 10.8914 66.9627 11.965C67.0408 12.5311 66.8065 13.2143 66.6113 13.7804C66.5332 14.0147 66.4161 14.3465 66.4161 14.4636C66.4942 14.4832 66.6308 14.4636 66.7284 14.4441C67.0017 14.4051 67.3726 14.366 67.5678 14.6588C67.6069 14.7174 67.6459 14.7955 67.6849 14.854C67.7045 14.9126 67.7435 14.9712 67.763 15.0102C67.8021 15.0492 67.8801 15.1468 68.1729 15.0492C68.212 15.0297 68.2901 14.9516 68.3486 14.8931C68.4657 14.776 68.6024 14.6393 68.7781 14.6393C68.8366 14.6393 68.9342 14.6588 69.0318 14.7564C69.2075 14.9321 69.2661 15.1664 69.2075 15.3811C69.1099 15.7129 68.739 15.9667 68.4072 16.1033C68.5048 16.2595 68.5243 16.4547 68.5438 16.5718L68.5633 16.6499C68.5829 16.8061 68.5829 16.8451 68.6805 17.0013C68.8562 17.3136 69.3442 17.3526 69.7346 17.2745C70.6325 17.0989 71.4523 16.5913 72.0184 15.8691C72.077 15.791 72.2136 15.7715 72.2917 15.83C72.3698 15.8886 72.3893 16.0252 72.3308 16.1033C71.7256 16.9037 70.8082 17.4697 69.8126 17.6649C69.2856 17.7625 68.6219 17.704 68.3291 17.1965C68.212 16.9817 68.1925 16.9037 68.1729 16.7085L68.1534 16.6304C68.1144 16.3766 68.0558 16.24 67.9582 16.2009C67.8801 16.1619 67.8216 16.0838 67.8411 16.0057C67.8411 15.9276 67.9192 15.8496 67.9973 15.83C68.3291 15.7715 68.7585 15.4982 68.8366 15.264C68.8561 15.2054 68.8562 15.1468 68.7781 15.0492C68.739 15.0688 68.6805 15.1468 68.6414 15.1859C68.5438 15.2835 68.4267 15.4006 68.2901 15.4396C67.9192 15.5568 67.6459 15.4982 67.4507 15.264C67.3921 15.1859 67.3531 15.1078 67.3141 15.0297C67.2945 14.9712 67.275 14.9321 67.236 14.8931C67.1774 14.7955 67.0017 14.815 66.748 14.8345C66.5332 14.854 66.3185 14.8931 66.1428 14.776C65.8891 14.6198 66.0257 14.2489 66.2209 13.6438C66.3966 13.1167 66.6113 12.4726 66.5528 12.0041C66.4552 11.2818 66.338 8.47093 67.3336 7.78772C67.4702 7.6706 68.7976 6.61651 71.0229 7.35827C73.3458 8.11956 74.2242 11.8674 74.2242 12.1212C74.2242 12.2578 74.2633 17.3721 74.2828 17.4112C74.2828 17.4502 74.2828 17.4697 74.2633 17.5088L73.7752 18.4653C73.7557 18.5238 73.6972 18.5629 73.6191 18.5629Z" fill="#F58E9E"/>
<path d="M67.9769 12.2783C67.9769 12.2783 67.8598 13.0006 68.6406 12.8835C69.4214 12.7663 69.48 11.8879 69.48 11.8879C69.48 11.8879 68.6992 11.9075 68.543 11.9465C68.3673 11.9855 67.9769 12.2783 67.9769 12.2783Z" fill="white"/>
<path d="M68.2703 13.0789C68.1532 13.0594 68.0556 13.0008 67.958 12.9032C67.7237 12.6495 67.7628 12.2786 67.7823 12.2396L67.8018 12.1615L67.8604 12.1224C67.958 12.0444 68.3093 11.7906 68.485 11.7516C68.6607 11.7125 69.3244 11.693 69.461 11.693H69.6757L69.6562 11.9077C69.6367 12.2786 69.3829 12.9813 68.6412 13.0984C68.5045 13.118 68.3874 13.0984 68.2703 13.0789ZM68.1532 12.3957C68.1532 12.4738 68.1727 12.5909 68.2312 12.6495C68.3093 12.7276 68.4655 12.7276 68.6021 12.708C69.012 12.6495 69.1682 12.3176 69.2268 12.1029C68.934 12.1029 68.6412 12.1224 68.5631 12.142C68.524 12.142 68.3484 12.2591 68.1532 12.3957Z" fill="white"/>
<path d="M68.5444 12.9236C68.6948 12.9359 68.8346 12.7281 68.8566 12.4595C68.8785 12.1909 68.7744 11.9632 68.6239 11.9509C68.4735 11.9386 68.3338 12.1464 68.3118 12.415C68.2898 12.6836 68.394 12.9113 68.5444 12.9236Z" fill="#093673"/>
<path d="M68.4662 13.1192C68.232 13.0607 68.0758 12.7679 68.1149 12.397C68.1344 12.2408 68.1734 12.0847 68.2515 11.9675C68.3491 11.8114 68.4857 11.7333 68.6419 11.7528C68.7785 11.7723 68.9152 11.8699 68.9933 12.0261C69.0518 12.1432 69.0714 12.3189 69.0518 12.4751C69.0323 12.6312 68.9933 12.7874 68.9152 12.9045C68.8176 13.0607 68.681 13.1388 68.5248 13.1192C68.5053 13.1192 68.4857 13.1192 68.4662 13.1192ZM68.6029 12.1432C68.5638 12.1823 68.5053 12.2799 68.5053 12.4165C68.4857 12.5727 68.5248 12.6703 68.5638 12.7093C68.6029 12.6703 68.6614 12.5727 68.6614 12.436C68.6614 12.2994 68.6224 12.1823 68.6029 12.1432Z" fill="#093673"/>
<path d="M67.8395 12.4344C67.8199 12.4344 67.8004 12.4149 67.8004 12.4149C67.7028 12.3563 67.6638 12.2392 67.7223 12.1416C67.8785 11.8488 68.2103 11.6341 68.5422 11.6146C68.6788 11.6146 68.8155 11.6341 68.9326 11.6536C68.9911 11.6536 69.0497 11.6731 69.1083 11.6731C69.2059 11.6731 69.362 11.6927 69.4596 11.5951C69.5377 11.517 69.6548 11.517 69.7329 11.5951C69.811 11.6731 69.811 11.7903 69.7329 11.8683C69.5768 12.0245 69.362 12.0831 69.0692 12.0635C69.0107 12.0635 68.9326 12.044 68.874 12.044C68.7569 12.0245 68.6593 12.005 68.5617 12.0245C68.3665 12.044 68.1713 12.1611 68.0737 12.3368C67.9956 12.4149 67.9175 12.4539 67.8395 12.4344Z" fill="#093673"/>
<path d="M67.5682 11.5378C67.5487 11.5378 67.5096 11.5183 67.4901 11.4988C67.412 11.4207 67.3925 11.3036 67.4706 11.2255C67.7048 10.9327 67.9781 10.6399 68.3685 10.6009C68.5442 10.5813 68.7199 10.6204 68.8761 10.6399C68.9346 10.6594 68.9932 10.6594 69.0517 10.6789C69.325 10.718 69.6374 10.6789 69.8911 10.5423C69.9887 10.5032 70.1058 10.5228 70.1449 10.6204C70.1839 10.718 70.1644 10.8351 70.0668 10.8741C69.735 11.0498 69.3641 11.1084 68.9932 11.0498C68.9346 11.0303 68.8565 11.0303 68.798 11.0108C68.6613 10.9913 68.5442 10.9522 68.4271 10.9717C68.1733 11.0108 67.9781 11.2255 67.7829 11.4597C67.7244 11.5378 67.6463 11.5573 67.5682 11.5378Z" fill="#093673"/>
<path d="M69.4209 7.5936C70.0845 7.65216 70.7678 8.00353 71.041 8.60865C71.2948 9.17474 71.1582 9.81891 71.1386 10.4436C71.1191 11.2829 71.3143 12.1418 71.8023 12.8055C72.2123 13.3521 72.8369 15.2455 72.7588 15.9287C72.7198 16.3777 72.3684 16.7095 72.1732 17.1195C71.8804 17.6856 71.8609 18.3883 72.0366 19.0129C72.4075 20.2427 73.5787 21.1797 74.867 21.2773C76.1553 21.3554 78.6344 20.7112 79.1615 19.54C79.6885 18.3688 79.7471 16.163 78.8296 15.2846C78.5368 15.0113 78.1854 14.777 78.0098 14.4062C77.5413 13.5473 77.9707 11.6148 77.8536 10.6583C77.756 9.85795 76.6629 7.94497 76.1358 7.33984C75.1989 6.26623 74.2619 5.09502 72.7979 5.01693C72.0366 4.97789 70.7482 5.25118 70.026 5.48542C69.6356 5.60254 69.2842 5.99295 68.8743 6.09055C68.5815 6.16863 68.2496 6.18815 67.9568 6.26623C67.6445 6.32479 67.3517 6.44191 67.1175 6.67615C66.7271 7.06656 66.8052 7.90593 67.4688 7.92545C67.7031 7.92545 67.9764 7.7888 68.2106 7.73024C68.601 7.61312 69.0109 7.55456 69.4209 7.5936Z" fill="#F6C056"/>
<path d="M75.0444 21.4724C74.9858 21.4724 74.9078 21.4724 74.8492 21.4724C73.5023 21.3748 72.2335 20.3792 71.8431 19.0714C71.6284 18.3687 71.6869 17.6269 71.9992 17.0413C72.0773 16.9046 72.1554 16.7875 72.2335 16.6509C72.3896 16.3971 72.5458 16.1824 72.5653 15.9091C72.6239 15.2845 72.0188 13.43 71.6479 12.9225C71.1599 12.2588 70.9061 11.3804 70.9451 10.4239C70.9451 10.2873 70.9647 10.1311 70.9647 9.99448C71.0037 9.526 71.0232 9.07703 70.8475 8.68663C70.6328 8.19862 70.0472 7.84726 69.3835 7.76918C69.0322 7.73014 68.6418 7.76918 68.2123 7.86678C68.1342 7.8863 68.0562 7.90582 67.9586 7.94486C67.7829 8.00342 67.6072 8.06198 67.4315 8.06198C67.0997 8.06198 66.8264 7.8863 66.7093 7.5935C66.5726 7.24213 66.6507 6.77365 66.9435 6.50036C67.1582 6.28564 67.4705 6.12948 67.8805 6.0514C68.0171 6.01236 68.1538 5.99284 68.2904 5.97332C68.4661 5.9538 68.6222 5.91476 68.7979 5.87572C68.9736 5.83668 69.1493 5.71956 69.325 5.60244C69.5202 5.48531 69.7154 5.34867 69.9301 5.29011C70.7109 5.05587 71.5503 5.09491 72.3116 5.40723C73.3266 5.83668 74.0293 6.77365 74.7125 7.67158C74.9663 8.00342 75.2006 8.31574 75.4543 8.60855C76.0204 9.25271 76.3718 10.3849 76.4694 11.2047C76.5084 11.5951 76.4889 12.0831 76.4498 12.6297C76.3913 13.4691 76.3522 14.4061 76.606 14.8941C76.7231 15.1283 76.9183 15.304 77.1331 15.4797C77.2111 15.5577 77.3087 15.6358 77.3868 15.7139C78.3628 16.6509 78.6556 18.2515 78.1091 19.4813C77.6211 20.672 76.3327 21.4724 75.0444 21.4724ZM69.1102 7.39829C69.2274 7.39829 69.325 7.39829 69.4421 7.41781C70.0863 7.47637 70.8866 7.80822 71.2184 8.54999C71.4332 9.03799 71.3941 9.54552 71.3551 10.053C71.3356 10.1897 71.3356 10.3263 71.3356 10.463C71.316 11.3219 71.5307 12.1222 71.9602 12.7078C72.4092 13.3129 73.0338 15.2454 72.9557 15.9677C72.9167 16.319 72.741 16.5923 72.5458 16.8656C72.4677 16.9827 72.3896 17.0998 72.3311 17.217C72.0773 17.705 72.0383 18.3491 72.214 18.9543C72.5458 20.106 73.678 20.9844 74.8687 21.0624C76.0594 21.1405 77.2892 20.3988 77.7772 19.3056C78.2652 18.2125 77.9919 16.807 77.1331 15.9677C77.055 15.8896 76.9769 15.8115 76.8988 15.7529C76.6646 15.5577 76.4303 15.343 76.2742 15.0502C75.9618 14.4646 76.0204 13.5081 76.079 12.5712C76.118 12.0636 76.1375 11.5756 76.0985 11.2243C76.0009 10.4825 75.669 9.40888 75.1615 8.82327C74.9078 8.53047 74.654 8.1791 74.4002 7.86678C73.7561 7.00789 73.0728 6.10996 72.1554 5.73908C71.4917 5.46579 70.7304 5.42675 70.0472 5.62195C69.8911 5.661 69.7154 5.77812 69.5397 5.89524C69.3445 6.03188 69.1298 6.16852 68.8955 6.22708C68.7198 6.26612 68.5442 6.30516 68.3685 6.32468C68.2318 6.3442 68.1147 6.36372 67.9781 6.40276C67.6462 6.48084 67.412 6.59796 67.2363 6.75413C67.0606 6.92981 67.0021 7.22261 67.0997 7.43733C67.1582 7.5935 67.2753 7.67158 67.4705 7.67158C67.5877 7.67158 67.7243 7.61302 67.8609 7.57398C67.9586 7.53494 68.0562 7.4959 68.1538 7.47638C68.5051 7.43734 68.8174 7.39829 69.1102 7.39829Z" fill="#F6C056"/>
<path d="M73.384 14.3858C73.2669 14.3663 73.1888 14.2882 73.1888 14.1711C73.2864 13.117 72.7789 12.4143 72.33 11.8091C72.0176 11.3797 71.7248 10.9698 71.6858 10.5013C71.6467 10.1694 71.6467 9.85712 71.6467 9.56432C71.6272 8.90063 71.6272 8.33454 71.3735 8.0027C71.3149 7.92462 71.3149 7.78798 71.4125 7.72942C71.4906 7.67086 71.6272 7.67086 71.6858 7.76846C72.0176 8.1979 72.0372 8.82255 72.0372 9.56432C72.0372 9.85712 72.0567 10.1694 72.0762 10.4818C72.1152 10.8527 72.369 11.1845 72.6423 11.5944C73.0912 12.2386 73.6768 13.0389 73.5597 14.2296C73.5792 14.3077 73.4816 14.3858 73.384 14.3858Z" fill="#D1941D"/>
<path d="M74.1465 20.4776C74.127 20.4776 74.1075 20.4776 74.0879 20.4776C73.5609 20.3215 73.19 20.0091 72.9753 19.5602C72.5068 18.5842 73.0143 17.3154 73.0338 17.2568C73.0729 17.1592 73.19 17.1006 73.2876 17.1397C73.3852 17.1787 73.4438 17.2958 73.4047 17.3934C73.4047 17.413 72.9558 18.5646 73.3462 19.3845C73.5023 19.7359 73.8147 19.9701 74.2246 20.1067C74.3222 20.1458 74.3807 20.2434 74.3612 20.3605C74.3027 20.4191 74.2246 20.4776 74.1465 20.4776Z" fill="#D1941D"/>
<path d="M74.7492 16.1804C74.6907 16.1804 74.6321 16.1609 74.5931 16.1024C74.3003 15.6924 74.066 14.7945 74.3003 13.4866C74.4955 12.3545 73.5585 11.4956 73.5585 11.4956C73.4804 11.4175 73.4609 11.3004 73.539 11.2223C73.617 11.1442 73.7342 11.1247 73.8122 11.2028C73.8513 11.2418 74.9249 12.1983 74.6907 13.5647C74.4759 14.7555 74.6711 15.5558 74.9249 15.8876C74.9835 15.9657 74.9639 16.1024 74.8859 16.1609C74.8273 16.1609 74.7883 16.1804 74.7492 16.1804Z" fill="#D1941D"/>
<path d="M67.4896 15.5583C67.7238 15.5388 67.9776 15.5388 68.2118 15.4997C68.4656 15.4607 68.7194 15.4021 68.895 15.2069C68.9926 15.0898 69.0122 14.8946 68.895 14.797C68.7779 14.6994 68.6022 14.6799 68.4851 14.797C68.4656 14.8165 68.4461 14.836 68.4266 14.836C68.4656 14.8165 68.4656 14.797 68.4461 14.8165L68.4266 14.836C68.407 14.8556 68.3875 14.8556 68.368 14.8556C68.3485 14.8556 68.3485 14.8556 68.407 14.836C68.3875 14.836 68.3875 14.836 68.368 14.8556C68.3289 14.8751 68.2704 14.8751 68.2314 14.8946C68.2118 14.8946 68.1923 14.8946 68.1728 14.8946C68.2118 14.8946 68.2313 14.8946 68.1923 14.8946C68.1728 14.8946 68.1728 14.8946 68.1533 14.8946C67.9385 14.9141 67.7043 14.9336 67.4896 14.9336C67.3334 14.9532 67.1968 15.0703 67.1968 15.2264C67.2163 15.4021 67.3334 15.5583 67.4896 15.5583Z" fill="#EC4258"/>
<path d="M68.1117 16.2222C68.5021 16.0075 68.7754 15.6561 68.9121 15.2462C68.9511 15.1096 68.8535 14.9144 68.7168 14.8948C68.5607 14.8558 68.4045 14.9339 68.3655 15.09C68.346 15.1291 68.346 15.1681 68.3264 15.2072C68.3264 15.1876 68.346 15.1681 68.3655 15.1291C68.3264 15.2462 68.2484 15.3438 68.1703 15.4414C68.1898 15.4219 68.2093 15.4024 68.2093 15.3828C68.1312 15.4804 68.0532 15.5585 67.9556 15.6366C67.9751 15.6171 67.9946 15.5976 68.0141 15.5976C67.9556 15.6366 67.897 15.6756 67.8189 15.7147C67.6823 15.7928 67.6237 15.988 67.7213 16.1246C67.7994 16.2613 67.9556 16.3003 68.1117 16.2222Z" fill="#EC4258"/>
<path d="M71.1965 9.25224C71.0208 8.80327 70.4743 8.58855 69.9863 8.60807C69.4983 8.64711 69.0493 8.86183 68.5808 9.018C68.2294 9.15464 67.8781 9.25224 67.5072 9.33032C67.0192 9.42792 66.4921 9.46696 66.1017 9.17416C65.6918 8.86183 65.5942 8.27623 65.6528 7.74918C65.7309 7.00741 66.1213 6.24613 66.8045 5.91428C67.2925 5.68004 67.8586 5.69956 68.4051 5.71908C69.0493 5.7386 69.6739 5.77764 70.3181 5.79716C70.3767 6.77317 70.6499 7.72966 71.0989 8.58855" fill="#F6C056"/>
<path d="M79.726 25.2189H62.353V36.9896H79.726V25.2189Z" fill="#49A2BA"/>
<path d="M79.7259 37.1861H62.3529C62.2358 37.1861 62.1577 37.108 62.1577 36.9909V25.2202C62.1577 25.1031 62.2358 25.025 62.3529 25.025H79.7259C79.843 25.025 79.9211 25.1031 79.9211 25.2202V36.9909C79.9211 37.108 79.843 37.1861 79.7259 37.1861ZM62.5481 36.7957H79.5307V25.4154H62.5481V36.7957Z" fill="#49A2BA"/>
<path d="M70.747 32.3055C71.3184 32.3055 71.7815 31.8249 71.7815 31.2319C71.7815 30.639 71.3184 30.1583 70.747 30.1583C70.1756 30.1583 69.7124 30.639 69.7124 31.2319C69.7124 31.8249 70.1756 32.3055 70.747 32.3055Z" fill="#97C3CF"/>
<path d="M70.7464 32.5013C70.0632 32.5013 69.5166 31.9352 69.5166 31.2324C69.5166 30.5297 70.0632 29.9636 70.7464 29.9636C71.4296 29.9636 71.9761 30.5297 71.9761 31.2324C71.9957 31.9352 71.4296 32.5013 70.7464 32.5013ZM70.7464 30.354C70.2779 30.354 69.907 30.7444 69.907 31.2324C69.907 31.7204 70.2779 32.1108 70.7464 32.1108C71.2149 32.1108 71.5857 31.7204 71.5857 31.2324C71.6053 30.764 71.2149 30.354 70.7464 30.354Z" fill="#97C3CF"/>
<path d="M79.726 29.7692C76.4076 32.9119 70.6491 36.6012 62.353 35.879V37.0112H79.726V29.7692Z" fill="#3C97B0"/>
<path d="M79.7259 37.1858H62.3529C62.2358 37.1858 62.1577 37.1077 62.1577 36.9906V35.8584C62.1577 35.7999 62.1772 35.7608 62.2163 35.7218C62.2553 35.6828 62.3139 35.6632 62.3724 35.6632C70.5904 36.3855 76.2708 32.7742 79.5893 29.612C79.6478 29.5534 79.7259 29.5339 79.804 29.5729C79.8821 29.612 79.9211 29.6705 79.9211 29.7486V36.9711C79.9211 37.1077 79.843 37.1858 79.7259 37.1858ZM62.5481 36.7954H79.5307V30.2171C76.1342 33.3208 70.5319 36.7173 62.5481 36.0732V36.7954Z" fill="#3C97B0"/>
<path d="M79.9425 37.0673H62.0425V38.8241H79.9425V37.0673Z" fill="#3B8396"/>
<path d="M79.9224 39.0187H62.0419C61.9248 39.0187 61.8467 38.9406 61.8467 38.8235V37.0667C61.8467 36.9495 61.9248 36.8715 62.0419 36.8715H79.9419C80.059 36.8715 80.1371 36.9495 80.1371 37.0667V38.8235C80.1176 38.9211 80.0395 39.0187 79.9224 39.0187ZM62.2371 38.6283H79.7467V37.2619H62.2371V38.6283Z" fill="#3B8396"/>
<path d="M60.5596 5.40479H50.4676C49.394 5.40479 48.5156 6.28319 48.5156 7.35681V11.1242C48.5156 12.1978 49.394 13.0762 50.4676 13.0762H58.022C58.1196 13.7009 58.7442 14.3255 59.1932 14.6378C59.8569 15.1063 60.6962 15.3406 61.5161 15.243C60.9305 15.1454 60.5401 14.5402 60.462 13.9546C60.423 13.6618 60.462 13.369 60.5206 13.0762H60.5401C61.6137 13.0762 62.4921 12.1978 62.4921 11.1242V7.35681C62.5116 6.28319 61.6332 5.40479 60.5596 5.40479Z" fill="#3B8396"/>
<path d="M61.1265 15.4566C60.4043 15.4566 59.6625 15.2224 59.0769 14.7929C58.706 14.5196 58.0619 13.9145 57.8667 13.2703H50.4685C49.2778 13.2703 48.3213 12.3139 48.3213 11.1231V7.35572C48.3213 6.16499 49.2778 5.2085 50.4685 5.2085H60.5605C61.7512 5.2085 62.7077 6.16499 62.7077 7.35572V11.1231C62.7077 12.2553 61.8098 13.1923 60.6971 13.2703C60.6581 13.5046 60.6385 13.7388 60.6581 13.934C60.7166 14.422 61.0289 14.9686 61.5365 15.0467C61.6341 15.0662 61.7122 15.1443 61.6926 15.2419C61.6926 15.3395 61.6146 15.4176 61.5169 15.4371C61.3998 15.4371 61.2632 15.4566 61.1265 15.4566ZM50.4685 5.5989C49.4925 5.5989 48.7117 6.37971 48.7117 7.35572V11.1231C48.7117 12.0991 49.4925 12.8799 50.4685 12.8799H58.0228C58.1204 12.8799 58.1985 12.958 58.218 13.0361C58.2961 13.5436 58.8427 14.1488 59.3112 14.4806C59.7406 14.7929 60.2481 14.9881 60.7557 15.0467C60.4824 14.7539 60.3067 14.3635 60.2677 13.9731C60.2286 13.6803 60.2677 13.3875 60.3457 13.0361C60.3653 12.9385 60.4433 12.8799 60.5409 12.8799H60.5605C61.5365 12.8799 62.3173 12.0991 62.3173 11.1231V7.35572C62.3173 6.37971 61.5365 5.5989 60.5605 5.5989H50.4685Z" fill="#3B8396"/>
<path d="M56.4606 7.61123H50.0775C49.9604 7.61123 49.8823 7.53315 49.8823 7.41603C49.8823 7.29891 49.9604 7.22083 50.0775 7.22083H56.4606C56.5778 7.22083 56.6558 7.29891 56.6558 7.41603C56.6558 7.53315 56.5582 7.61123 56.4606 7.61123Z" fill="white"/>
<path d="M59.4448 10.872H50.0751C49.958 10.872 49.8799 10.7939 49.8799 10.6768C49.8799 10.5596 49.958 10.4816 50.0751 10.4816H59.4448C59.5619 10.4816 59.64 10.5596 59.64 10.6768C59.64 10.7939 59.5619 10.872 59.4448 10.872Z" fill="white"/>
<path d="M54.4496 9.23074H50.0966C49.9794 9.23074 49.9014 9.15266 49.9014 9.03553C49.9014 8.91841 49.9794 8.84033 50.0966 8.84033H54.4496C54.5667 8.84033 54.6448 8.91841 54.6448 9.03553C54.6448 9.15266 54.5472 9.23074 54.4496 9.23074Z" fill="white"/>
<path d="M41.1538 42.9261H26.377V57.7615H41.1538V42.9261Z" fill="white"/>
<path d="M41.1546 57.9577H26.3778C26.2607 57.9577 26.1826 57.8796 26.1826 57.7625V42.9271C26.1826 42.81 26.2607 42.7319 26.3778 42.7319H41.1546C41.2717 42.7319 41.3498 42.81 41.3498 42.9271V57.7625C41.3498 57.8601 41.2522 57.9577 41.1546 57.9577ZM26.573 57.5673H40.9594V43.1223H26.573V57.5673Z" fill="white"/>
<path d="M39.69 45.4837H28.7001C28.583 45.4837 28.5049 45.4056 28.5049 45.2885C28.5049 45.1713 28.583 45.0933 28.7001 45.0933H39.69C39.8071 45.0933 39.8852 45.1713 39.8852 45.2885C39.8852 45.4056 39.8071 45.4837 39.69 45.4837Z" fill="#093673"/>
<path d="M39.5346 47.924H30.9848C30.8676 47.924 30.7896 47.8459 30.7896 47.7288C30.7896 47.6117 30.8676 47.5336 30.9848 47.5336H39.5346C39.6517 47.5336 39.7298 47.6117 39.7298 47.7288C39.7298 47.8459 39.6322 47.924 39.5346 47.924Z" fill="#093673"/>
<path d="M39.69 50.3638H28.7001C28.583 50.3638 28.5049 50.2857 28.5049 50.1686C28.5049 50.0515 28.583 49.9734 28.7001 49.9734H39.69C39.8071 49.9734 39.8852 50.0515 39.8852 50.1686C39.8852 50.2857 39.8071 50.3638 39.69 50.3638Z" fill="#093673"/>
<path d="M39.8664 54.2695C39.8664 53.4887 38.578 52.864 36.9774 52.864C35.3767 52.864 34.0884 53.4887 34.0884 54.2695C34.0884 55.0503 35.3767 55.6749 36.9774 55.6749C37.1726 55.6749 37.3678 55.6749 37.5435 55.6554C37.4459 55.8311 37.3678 56.0263 37.2507 56.202C37.1726 56.2996 36.8602 56.7876 36.7236 56.7681C37.1531 56.8071 37.5825 56.6314 37.9339 56.3581C38.2071 56.1239 38.4804 55.792 38.6171 55.4407C39.3784 55.1674 39.8664 54.738 39.8664 54.2695Z" fill="#49A2BA"/>
<path d="M36.8611 56.9446C36.8221 56.9446 36.7831 56.9446 36.744 56.9446C36.6269 56.9446 36.5488 56.847 36.5683 56.7299C36.5683 56.6323 36.6464 56.5542 36.744 56.5542C36.7831 56.5347 36.8807 56.4371 37.1149 56.0857C37.1735 56.0076 37.2125 55.9295 37.2515 55.8515C37.1735 55.8515 37.0954 55.8515 37.0173 55.8515C35.2995 55.8515 33.9331 55.1487 33.9331 54.2508C33.9331 53.3529 35.28 52.6501 37.0173 52.6501C38.7546 52.6501 40.1015 53.3529 40.1015 54.2508C40.1015 54.7779 39.633 55.2463 38.8132 55.5587C38.6765 55.8905 38.4032 56.2223 38.1104 56.4761C37.72 56.7884 37.2906 56.9446 36.8611 56.9446ZM37.5639 55.4415C37.6224 55.4415 37.681 55.4806 37.72 55.5196C37.7591 55.5782 37.7591 55.6563 37.72 55.7148C37.681 55.7734 37.6615 55.8319 37.6224 55.91C37.5639 56.0271 37.5053 56.1638 37.4272 56.2809C37.3882 56.359 37.3296 56.4175 37.2906 56.4761C37.4858 56.4175 37.6615 56.3199 37.8176 56.1833C38.0909 55.9491 38.3252 55.6367 38.4423 55.3439C38.4618 55.2854 38.5008 55.2463 38.5594 55.2268C39.2426 54.9926 39.6525 54.6217 39.6525 54.2703C39.6525 53.6847 38.5789 53.0601 36.9587 53.0601C35.3386 53.0601 34.2649 53.6847 34.2649 54.2703C34.2649 54.8559 35.3386 55.4806 36.9587 55.4806C37.1735 55.4806 37.3687 55.4611 37.5639 55.4415C37.5443 55.4415 37.5443 55.4415 37.5639 55.4415Z" fill="#49A2BA"/>
<path d="M35.2991 54.5809C35.0648 54.5809 34.8892 54.3857 34.8892 54.1515C34.8892 53.9173 35.0844 53.722 35.2991 53.722C35.5138 53.722 35.709 53.9173 35.709 54.1515C35.709 54.3857 35.5138 54.5809 35.2991 54.5809ZM35.2991 54.1125C35.2796 54.1125 35.2796 54.132 35.2796 54.1515C35.2796 54.1905 35.3186 54.1905 35.3186 54.1515C35.3186 54.132 35.2991 54.1125 35.2991 54.1125Z" fill="#093673"/>
<path d="M36.8611 54.5809C36.6269 54.5809 36.4512 54.3857 36.4512 54.1515C36.4512 53.9173 36.6464 53.722 36.8611 53.722C37.0758 53.722 37.271 53.9173 37.271 54.1515C37.271 54.3857 37.0953 54.5809 36.8611 54.5809ZM36.8611 54.1125C36.8416 54.1125 36.8416 54.132 36.8416 54.1515C36.8416 54.1905 36.8806 54.1905 36.8806 54.1515C36.8806 54.132 36.8806 54.1125 36.8611 54.1125Z" fill="#093673"/>
<path d="M38.3616 54.5809C38.1273 54.5809 37.9517 54.3857 37.9517 54.1515C37.9517 53.9173 38.1273 53.722 38.3616 53.722C38.5958 53.722 38.7715 53.9173 38.7715 54.1515C38.7715 54.3857 38.5958 54.5809 38.3616 54.5809ZM38.3616 54.1125C38.3421 54.1125 38.3421 54.132 38.3421 54.1515C38.3421 54.1905 38.3811 54.1905 38.3811 54.1515C38.3811 54.132 38.3811 54.1125 38.3616 54.1125Z" fill="#093673"/>
</svg>
