<svg width="248" height="162" viewBox="0 0 248 162" fill="none" xmlns="http://www.w3.org/2000/svg">
<g opacity="0.3">
<path d="M247.936 14.3693H162.811H77.6865C56.4234 14.3693 37.1064 23.0187 23.1953 36.9298C9.21208 50.913 0.634766 70.1579 0.634766 91.421V161.697C0.634766 140.434 9.28416 121.117 23.1953 107.206C37.1785 93.223 56.4234 84.6457 77.6865 84.6457H177.659C216.51 84.6457 247.936 53.1474 247.936 14.3693Z" fill="white"/>
<path d="M23.2677 37.0021C36.5301 23.7396 54.6218 15.3065 74.7317 14.5136C75.7408 14.4415 76.7498 14.4415 77.7589 14.4415H162.811H247.936C247.936 53.0755 216.654 84.3576 178.02 84.4296C177.948 84.5017 136.287 84.5017 136.142 84.5017H78.0473C62.4783 84.5017 47.6302 89.1868 35.521 97.1875C31.1963 99.9985 27.16 103.314 23.556 106.918C9.57284 120.757 0.851375 140.002 0.779297 161.193V140.939C0.779297 140.867 0.779279 91.205 0.851358 91.1329C0.779279 70.086 9.35659 50.9132 23.2677 37.0021Z" fill="#FEFEFE"/>
<path d="M23.339 37.0741C36.6015 23.8117 54.6931 15.3785 74.7309 14.5856C75.74 14.5136 76.7491 14.5135 77.7582 14.5135H162.739H247.791C247.719 52.9313 216.653 84.0692 178.307 84.2133C178.163 84.3575 136.718 84.4296 136.502 84.4296H78.4069C62.91 84.4296 47.8457 89.0426 35.8807 97.0433C31.556 99.8543 27.5196 103.098 23.8436 106.702C9.78832 120.469 1.06682 139.642 0.850586 160.761V140.579C0.850586 140.434 0.850568 91.1329 0.922647 90.9887C0.922647 69.9418 9.5 50.9131 23.339 37.0741Z" fill="#FDFDFD"/>
<path d="M23.3393 37.1458C36.6017 23.8834 54.6933 15.4502 74.7311 14.7294C75.6681 14.6574 76.7493 14.6573 77.6863 14.6573H162.595H247.575C247.503 52.8589 216.581 83.9247 178.452 84.0688C178.236 84.2851 137.007 84.3571 136.646 84.3571H78.6954C63.3427 84.3571 48.0621 88.9701 36.1692 96.8267C31.8445 99.6377 27.8081 102.809 24.1321 106.413C10.0768 120.108 1.21117 139.137 0.922852 160.256V140.146C0.922852 139.93 0.994939 90.9163 1.06702 90.7721C1.06702 69.8694 9.64436 50.9128 23.3393 37.1458Z" fill="#FCFCFC"/>
<path d="M23.4113 37.2181C36.6737 23.9557 54.6933 15.5225 74.7311 14.8017C75.6681 14.7296 76.7493 14.7296 77.6863 14.7296H162.523H247.503C247.431 52.787 216.726 83.6365 178.74 83.8528C178.452 84.1411 137.439 84.2852 137.007 84.2852H78.9838C63.7752 84.2852 48.2063 88.8262 36.3855 96.6827C32.0608 99.4217 28.0243 102.665 24.3483 106.197C10.221 119.82 1.28324 138.776 0.922852 159.895V139.858C0.922852 139.569 0.994939 90.9165 1.06702 90.6282C1.21117 69.7975 9.71642 50.913 23.4113 37.2181Z" fill="#FBFBFB"/>
<path d="M23.4828 37.2181C36.7452 23.9557 54.7648 15.5946 74.8026 14.8017C75.7396 14.7296 76.8207 14.7296 77.7578 14.7296H162.522H247.43C247.358 52.5708 216.797 83.2761 179.1 83.5645C178.668 83.9249 137.943 84.069 137.367 84.069H79.4156C64.2791 84.069 48.5661 88.61 36.8173 96.3223C32.4926 99.0613 28.4562 102.233 24.7081 105.765C10.5087 119.315 1.57095 138.2 1.06641 159.247V139.281C1.06641 138.921 1.13848 90.5561 1.28263 90.2678C1.35471 69.6533 9.85999 50.913 23.4828 37.2181Z" fill="#FAFAFA"/>
<path d="M23.556 37.2905C36.7463 24.1002 54.838 15.667 74.8037 14.9462C75.7407 14.8741 76.8219 14.8741 77.7589 14.8741H162.451H247.359C247.215 52.4991 216.87 83.0603 179.389 83.4207C178.885 83.7811 138.377 84.0694 137.728 84.0694H79.7051C64.7128 84.0694 48.7114 88.5382 37.1068 96.2506C32.7821 98.9896 28.6736 102.161 24.9976 105.621C10.7981 119.099 1.71628 137.912 1.13965 158.887V138.993C1.13965 138.561 1.21172 90.5564 1.35587 90.196C1.57211 69.5816 10.0053 50.9133 23.556 37.2905Z" fill="#F9F9F9"/>
<path d="M23.6273 37.362C36.8176 24.1717 54.8372 15.7385 74.875 15.0177C75.812 15.0177 76.8933 14.9457 77.8303 14.9457H162.45H247.214C247.07 52.3544 216.941 82.7714 179.677 83.2039C179.1 83.6364 138.809 83.9247 138.016 83.9247H79.9926C65.1445 83.9247 48.9268 88.3935 37.3942 96.0338C33.0695 98.7728 28.9611 101.872 25.2851 105.332C11.0136 118.739 1.85964 137.479 1.21094 158.382V138.56C1.21094 138.056 1.28303 90.3397 1.49927 89.9072C1.7155 69.509 10.1486 50.9128 23.6273 37.362Z" fill="#F8F8F8"/>
<path d="M23.6996 37.4341C36.8899 24.2437 54.9095 15.8106 74.8752 15.0898C75.8122 15.0898 76.8935 15.0177 77.8305 15.0177H162.378H247.143C246.998 52.2822 217.014 82.4831 179.965 82.9876C179.317 83.4922 139.241 83.8525 138.376 83.8525H80.3532C65.6492 83.8525 49.1432 88.2493 37.7548 95.8176C33.3581 98.4845 29.3217 101.584 25.5736 105.044C11.23 118.306 2.07607 137.046 1.2832 157.877V138.128C1.2832 137.551 1.42738 90.1954 1.57153 89.6909C1.85985 69.3648 10.2209 50.9127 23.6996 37.4341Z" fill="#F7F7F7"/>
<path d="M23.772 37.5065C36.9624 24.3162 54.9819 15.9551 74.8756 15.2343C75.8126 15.2343 76.8938 15.1622 77.8308 15.1622H162.307H246.999C246.783 52.2105 217.014 82.2672 180.254 82.8438C179.533 83.4204 139.674 83.7809 138.665 83.7809H80.714C66.0821 83.7809 49.4319 88.1776 38.1156 95.6738C33.7188 98.3407 29.6825 101.44 25.9344 104.9C11.5908 118.09 2.29267 136.758 1.42773 157.517V137.84C1.42773 137.191 1.57189 90.1237 1.78813 89.6192C2.00436 69.2931 10.3655 50.9131 23.772 37.5065Z" fill="#F6F6F6"/>
<path d="M23.8443 37.5788C37.0346 24.3884 54.9822 16.0274 74.9479 15.3066C75.8849 15.3066 76.9661 15.2345 77.9031 15.2345H162.307H246.927C246.711 52.0665 217.159 81.9791 180.543 82.6999C179.75 83.3486 140.107 83.781 139.025 83.781H81.0745C66.5868 83.781 49.7204 88.1057 38.4762 95.6019C34.0794 98.2688 30.043 101.296 26.2949 104.756C11.8793 117.874 2.58118 136.398 1.5 157.157V137.551C1.5 136.831 1.64414 90.1239 1.93245 89.4752C2.14869 69.2212 10.5098 50.9133 23.8443 37.5788Z" fill="#F5F5F5"/>
<path d="M23.9168 37.6503C37.1071 24.4599 55.0547 16.0988 74.9483 15.4501C75.8853 15.4501 76.9665 15.3781 77.9035 15.3781H162.307H246.927C246.711 51.9939 217.303 81.8343 180.976 82.5551C180.111 83.2759 140.684 83.7084 139.458 83.7084H81.5074C67.1638 83.7084 50.0092 88.0331 38.9091 95.385C34.5123 97.9799 30.4038 101.007 26.6557 104.467C12.168 117.513 2.79779 135.965 1.64453 156.652V137.118C1.64453 136.326 1.78871 89.9071 2.07703 89.2584C2.36534 69.1485 10.6543 50.9127 23.9168 37.6503Z" fill="#F4F4F4"/>
<path d="M23.9168 37.7225C37.1071 24.5322 55.0547 16.2432 74.9483 15.5224C75.8853 15.5224 77.0385 15.4503 77.9035 15.4503H162.235H246.783C246.495 51.922 217.303 81.5462 181.192 82.3391C180.255 83.1319 141.044 83.6365 139.747 83.6365H81.7957C67.5242 83.6365 50.2254 87.8891 39.1253 95.2411C34.7285 97.8359 30.62 100.863 26.872 104.251C12.3842 117.225 2.86986 135.605 1.64453 156.219V136.758C1.64453 135.893 1.7887 89.8352 2.14909 89.1144C2.50948 69.0046 10.7264 50.9129 23.9168 37.7225Z" fill="#F3F3F3"/>
<path d="M23.9888 37.7948C37.1071 24.6765 55.0547 16.3154 74.9483 15.5947C75.8132 15.5947 77.0385 15.5226 77.9035 15.5226H162.163H246.639C246.351 51.778 217.375 81.2581 181.408 82.123C180.399 82.9879 141.405 83.4925 139.963 83.4925H82.0119C67.8846 83.4925 50.2975 87.7451 39.3416 94.953C34.9448 97.5478 30.8363 100.503 27.0882 103.891C12.5284 116.793 3.01402 135.101 1.64453 155.643V136.326C1.64453 135.389 1.86078 89.6192 2.14909 88.8263C2.65364 68.9327 10.8706 50.9131 23.9888 37.7948Z" fill="#F2F2F2"/>
<path d="M24.0597 37.795C37.178 24.6767 55.1255 16.3156 75.0191 15.6669C75.8841 15.6669 77.1094 15.5948 77.9743 15.5948H162.162H246.638C246.349 51.634 217.518 80.9699 181.839 81.9069C180.758 82.844 141.98 83.3485 140.466 83.3485H82.5874C68.6041 83.3485 50.8007 87.529 39.9169 94.7369C35.5201 97.2596 31.4117 100.287 27.5915 103.603C12.9596 116.432 3.37321 134.668 1.93164 155.211V135.966C1.93164 134.957 2.14787 89.5472 2.50826 88.6823C2.79657 68.8608 11.0135 50.9132 24.0597 37.795Z" fill="#F1F1F1"/>
<path d="M24.1318 37.8668C37.25 24.7485 55.1976 16.3874 75.0191 15.7387C75.8841 15.7387 77.1094 15.6666 77.9743 15.6666H162.09H246.494C246.205 51.4896 217.518 80.6813 182.056 81.6904C180.83 82.6995 142.34 83.2761 140.683 83.2761H82.8035C68.8924 83.2761 50.8729 87.4567 40.1332 94.5924C35.7364 97.1152 31.6279 100.07 27.8078 103.386C13.1759 116.144 3.44529 134.308 1.93164 154.778V135.533C1.93164 134.452 2.14787 89.3307 2.50826 88.4658C2.94073 68.7163 11.1577 50.9129 24.1318 37.8668Z" fill="#F0F0F0"/>
<path d="M24.2044 37.939C37.3227 24.8208 55.1981 16.5318 75.0918 15.811C75.9567 15.811 77.182 15.7389 78.047 15.7389H162.09H246.422C246.062 51.4177 217.663 80.3932 182.416 81.4744C181.119 82.5555 142.845 83.1322 141.116 83.1322H83.2366C69.4697 83.1322 51.2338 87.2406 40.5662 94.3043C36.1694 96.8271 31.9889 99.7102 28.2408 103.026C13.6089 115.712 3.80624 133.803 2.14844 154.201V135.101C2.14844 133.947 2.36469 89.1868 2.79716 88.1777C3.08547 68.6444 11.2303 50.9132 24.2044 37.939Z" fill="#EFEFEF"/>
<path d="M24.2765 38.011C37.3948 24.8927 55.2702 16.6037 75.0918 15.955C75.9567 15.955 77.182 15.8829 78.047 15.8829H162.018H246.35C245.99 51.3455 217.735 80.1768 182.705 81.3301C181.335 82.4833 143.278 83.132 141.404 83.132H83.5249C69.9021 83.132 51.378 87.2405 40.8545 94.2321C36.4578 96.6828 32.2772 99.638 28.457 102.882C13.7531 115.495 3.87832 133.443 2.14844 153.841V134.812C2.14844 133.587 2.36467 89.1146 2.86922 88.1055C3.30169 68.5722 11.3745 50.913 24.2765 38.011Z" fill="#EEEEEE"/>
<path d="M24.348 38.0832C37.4662 24.965 55.3417 16.676 75.0911 16.0273C75.9561 16.0273 77.1814 15.9552 78.0463 15.9552H161.946H246.205C242.529 50.9853 217.734 79.8887 182.992 81.114C181.551 82.2673 143.71 82.9881 141.764 82.9881H83.8847C70.406 82.9881 51.6657 87.0245 41.2143 93.944C36.8175 96.3946 32.637 99.2778 28.8168 102.521C14.0408 114.991 4.16603 132.938 2.29199 153.264V134.308C2.29199 133.01 2.58031 88.8985 3.01278 87.8173C3.44525 68.4282 11.518 50.9132 24.348 38.0832Z" fill="#EDEDED"/>
<path d="M24.4204 38.1549C37.4666 25.1087 55.342 16.7476 75.1636 16.0989C76.0285 16.0989 77.2538 16.0269 78.1188 16.0269H161.946H246.134C245.701 51.0569 217.879 79.6 183.281 80.8974C181.767 82.1227 144.143 82.9156 142.052 82.9156H84.2454C70.8389 82.9156 51.9544 86.952 41.5751 93.7994C37.1783 96.2501 32.9977 99.1332 29.1776 102.305C14.4015 114.702 4.38264 132.578 2.43652 152.832V133.947C2.43652 132.578 2.72482 88.7539 3.22937 87.6007C3.58976 68.3557 11.6626 50.9128 24.4204 38.1549Z" fill="#ECECEC"/>
<path d="M24.4933 38.227C37.5395 25.1808 55.4149 16.8918 75.1644 16.2431C76.0293 16.2431 77.2546 16.171 78.1196 16.171H161.875H245.99C245.558 51.057 217.88 79.4558 183.498 80.7532C181.912 82.0507 144.504 82.8435 142.341 82.8435H84.5346C71.2722 82.8435 52.0994 86.8078 41.7922 93.6553C37.3233 96.0339 33.2148 98.917 29.3226 102.088C14.4744 114.414 4.38343 132.217 2.36523 152.399V133.587C2.36523 132.145 2.65357 88.6819 3.15812 87.4565C3.73475 68.2837 11.7354 50.9128 24.4933 38.227Z" fill="#EBEBEB"/>
<path d="M24.4927 38.2993C37.5389 25.2531 55.4143 16.9641 75.1638 16.3154C76.0287 16.3154 77.254 16.2433 78.119 16.2433H161.802H245.917C242.241 50.6967 217.951 79.1677 183.858 80.5372C182.2 81.9067 145.008 82.7716 142.701 82.7716H84.8944C71.7761 82.7716 52.3871 86.7359 42.1519 93.4392C37.6831 95.8178 33.5746 98.6289 29.6823 101.8C14.7621 114.054 4.67114 131.785 2.50879 151.895V133.154C2.50879 131.641 2.79711 88.4658 3.37374 87.2405C3.87829 68.1397 11.879 50.913 24.4927 38.2993Z" fill="#EAEAEA"/>
<path d="M24.565 38.3715C37.6111 25.3254 55.4145 17.0363 75.1639 16.3876C75.9568 16.3876 77.2542 16.3156 78.1191 16.3156H161.73H245.773C245.341 50.769 218.023 78.8796 184.074 80.3211C182.344 81.7627 145.368 82.6277 142.99 82.6277H85.1829C72.1367 82.6277 52.5313 86.5199 42.4403 93.2232C37.9715 95.6017 33.791 98.4128 29.9708 101.584C15.0506 113.766 4.81548 131.425 2.58105 151.462V132.794C2.58105 131.208 2.86933 88.3939 3.44596 87.0244C4.02259 68.0678 12.0233 50.9132 24.565 38.3715Z" fill="#E9E9E9"/>
<path d="M24.6362 38.3712C37.6824 25.325 55.4858 17.1081 75.2352 16.4594C76.0281 16.4594 77.3256 16.3873 78.1905 16.3873H161.729H245.701C245.196 50.6246 218.095 78.591 184.434 80.1046C182.632 81.6183 145.872 82.5553 143.349 82.5553H85.5425C72.6404 82.5553 52.8189 86.4475 42.8 93.0787C38.3311 95.4573 34.1506 98.1963 30.2584 101.368C15.2661 113.477 5.03093 131.064 2.65234 151.03V132.434C2.65234 130.776 3.01273 88.2495 3.58935 86.88C4.23806 67.9954 12.1667 50.9129 24.6362 38.3712Z" fill="#E8E8E8"/>
<path d="M24.7087 38.4434C37.7549 25.3972 55.5582 17.1803 75.2356 16.5316C76.0285 16.5316 77.3259 16.4595 78.1909 16.4595H161.658H245.629C242.025 50.3363 218.167 78.3027 184.723 79.8884C182.849 81.4742 146.305 82.4112 143.71 82.4112H85.9032C73.1454 82.4112 53.0355 86.2314 43.1607 92.7905C38.6919 95.097 34.5114 97.908 30.6192 101.007C15.6269 113.045 5.24754 130.487 2.79688 150.525V132.001C2.79688 130.343 3.15726 88.1054 3.73389 86.6638C4.38259 67.9234 12.2391 50.9129 24.7087 38.4434Z" fill="#E7E7E7"/>
<path d="M24.7811 38.5156C37.8273 25.4694 55.5586 17.2525 75.236 16.6758C76.0288 16.6758 77.3263 16.6038 78.1912 16.6038H161.586H245.485C244.981 50.4806 218.239 78.0866 185.011 79.7444C182.993 81.4022 146.81 82.4113 143.999 82.4113H86.264C73.6503 82.4113 53.3241 86.2315 43.5215 92.7185C39.0526 95.025 34.8721 97.764 30.9799 100.863C15.9155 112.828 5.46415 130.199 2.94141 150.165V131.713C2.94141 129.983 3.30177 88.0334 3.95048 86.5198C4.5271 67.7794 12.3837 50.9131 24.7811 38.5156Z" fill="#E6E6E6"/>
<path d="M24.8532 38.5877C37.8273 25.6136 55.6307 17.3246 75.3081 16.748C76.101 16.748 77.4704 16.6759 78.2633 16.6759H161.586H245.413C244.836 50.3365 218.312 77.7983 185.3 79.5282C183.209 81.2581 147.242 82.2672 144.287 82.2672H86.5523C74.0107 82.2672 53.4683 86.0153 43.8098 92.4303C39.341 94.7368 35.1604 97.4037 31.1961 100.503C16.0596 112.324 5.60831 129.695 2.94141 149.588V131.208C2.94141 129.406 3.3018 87.8173 4.02258 86.2315C4.67129 67.7074 12.5278 50.9131 24.8532 38.5877Z" fill="#E5E5E5"/>
<path d="M24.9257 38.6595C37.8998 25.6854 55.6311 17.4684 75.3085 16.8197C76.1014 16.8197 77.4708 16.7477 78.2637 16.7477H161.514H245.341C241.737 50.0479 218.384 77.5097 185.588 79.3117C183.426 81.1137 147.675 82.1948 144.648 82.1948H86.9131C74.5156 82.1948 53.757 85.9429 44.1706 92.2858C39.7018 94.5202 35.4491 97.2592 31.5569 100.287C16.4204 112.035 5.82492 129.334 3.08594 149.156V130.848C3.08594 128.974 3.44633 87.6728 4.16711 86.015C4.81582 67.635 12.6724 50.9128 24.9257 38.6595Z" fill="#E4E4E4"/>
<path d="M24.9978 38.732C37.9719 25.7579 55.7032 17.5409 75.3806 16.9643C76.1734 16.9643 77.5429 16.8922 78.3358 16.8922H161.514H245.197C244.621 50.1924 218.456 77.2939 185.877 79.1679C183.642 81.042 148.108 82.1231 144.936 82.1231H87.2014C74.9481 82.1231 53.9733 85.7991 44.3869 92.142C39.918 94.3764 35.6654 97.0434 31.7732 100.071C16.5646 111.747 5.89699 128.974 3.08594 148.724V130.488C3.08594 128.542 3.51843 87.6011 4.23922 85.8712C4.96 67.4912 12.8165 50.9132 24.9978 38.732Z" fill="#E3E3E3"/>
<path d="M25.069 38.8038C38.0431 25.8297 55.7744 17.6128 75.3798 17.0362C76.1726 17.0362 77.5421 16.9641 78.2629 16.9641H161.369H245.052C244.476 50.0481 218.455 77.0775 186.092 78.9515C183.786 80.8255 148.467 81.9788 145.224 81.9788H87.561C75.3798 81.9788 54.1887 85.5827 44.7465 91.8535C40.2776 94.088 36.025 96.6828 32.0607 99.7101C16.7801 111.315 6.11244 128.469 3.15723 148.147V129.983C3.15723 127.965 3.58968 87.3126 4.31046 85.5827C5.1754 67.419 12.8878 50.913 25.069 38.8038Z" fill="#E2E2E2"/>
<path d="M25.0694 38.876C38.0435 25.9019 55.7027 17.757 75.3801 17.1083C76.173 17.1083 77.5425 17.0363 78.2633 17.0363H161.298H244.98C241.449 49.6878 218.528 76.7892 186.453 78.7353C184.074 80.6815 148.972 81.9068 145.584 81.9068H87.9218C75.8847 81.9068 54.4774 85.5107 45.1072 91.7094C40.6384 93.8718 36.3857 96.5387 32.4214 99.4939C17.1408 111.026 6.32905 128.109 3.30176 147.714V129.623C3.30176 127.532 3.73419 87.2406 4.52705 85.3665C5.31992 67.3469 13.0323 50.9131 25.0694 38.876Z" fill="#E1E1E1"/>
<path d="M25.1407 38.948C38.1148 25.9739 55.774 17.829 75.3794 17.2524C76.1001 17.2524 77.5417 17.1803 78.2625 17.1803H161.225H244.836C244.187 49.8318 218.599 76.5729 186.668 78.5911C184.218 80.6093 149.332 81.8346 145.872 81.8346H88.2093C76.3163 81.8346 54.6208 85.3664 45.3948 91.4931C40.8538 93.6555 36.6732 96.2503 32.7089 99.2055C17.3562 110.666 6.5445 127.604 3.37305 147.21V129.19C3.37305 127.028 3.80553 87.0243 4.59839 85.1502C5.46333 67.2027 13.1757 50.913 25.1407 38.948Z" fill="#E0E0E0"/>
<path d="M25.2128 38.948C38.1148 26.0459 55.8461 17.829 75.3794 17.2524C76.1001 17.2524 77.5417 17.1803 78.2625 17.1803H161.153H244.691C244.043 49.6876 218.599 76.2125 186.957 78.3028C184.434 80.393 149.764 81.6904 146.16 81.6904H88.4976C76.6767 81.6904 54.837 85.2223 45.683 91.2769C41.1421 93.4392 36.8895 96.034 32.9252 98.9172C17.5725 110.306 6.61657 127.172 3.37305 146.705V128.83C3.37305 126.595 3.80551 86.9522 4.67045 85.0061C5.60747 67.1306 13.3199 50.913 25.2128 38.948Z" fill="#DFDFDF"/>
<path d="M25.2855 39.02C38.1875 26.118 55.8467 17.901 75.452 17.3244C76.1728 17.3244 77.6143 17.2523 78.3351 17.2523H161.153H244.692C241.16 49.3272 218.744 75.9241 187.318 78.0865C184.723 80.2488 150.269 81.5462 146.593 81.5462H88.9306C77.2539 81.5462 55.1259 85.006 46.1161 91.0606C41.5752 93.1508 37.3225 95.7457 33.3582 98.6288C17.9334 109.945 6.90545 126.739 3.58984 146.201V128.397C3.58984 126.091 4.09438 86.7359 4.88725 84.7177C5.75219 67.0585 13.3925 50.9129 25.2855 39.02Z" fill="#DEDEDE"/>
<path d="M25.3579 39.0922C38.2599 26.1902 55.9191 18.0453 75.4524 17.4687C76.1731 17.4687 77.6147 17.3966 78.3355 17.3966H161.081H244.548C243.827 49.4715 218.816 75.708 187.606 77.9424C184.939 80.1769 150.702 81.5464 146.882 81.5464H89.2914C77.7588 81.5464 55.4146 85.0061 46.4769 90.9165C41.9359 93.0068 37.6833 95.5296 33.719 98.4127C18.2221 109.585 7.19414 126.379 3.73438 145.768V128.037C3.73438 125.658 4.23894 86.6639 5.10388 84.5736C5.89674 66.9865 13.537 50.9131 25.3579 39.0922Z" fill="#DDDDDD"/>
<path d="M25.4293 39.164C38.3314 26.2619 55.9906 18.1171 75.5238 17.5404C76.2446 17.5404 77.6862 17.4684 78.4069 17.4684H161.081H244.476C243.755 49.327 218.888 75.4194 187.894 77.7259C185.083 80.0324 151.134 81.4019 147.242 81.4019H89.6511C78.2628 81.4019 55.6302 84.7896 46.8367 90.7C42.2957 92.7903 38.0431 95.313 34.0787 98.1241C18.5819 109.224 7.40977 125.946 3.87793 145.335V127.676C3.87793 125.226 4.74287 86.6636 5.3195 84.4292C9.13965 67.2745 13.6806 50.9127 25.4293 39.164Z" fill="#DCDCDC"/>
<path d="M25.5021 39.2364C38.4041 26.3344 55.9912 18.1895 75.5244 17.685C76.2452 17.685 77.6868 17.6129 78.4075 17.6129H161.009H244.332C240.8 49.1112 218.888 75.2035 188.111 77.5821C185.228 79.9607 151.495 81.4023 147.459 81.4023H89.868C78.5517 81.4023 55.775 84.79 46.9814 90.5562C42.4405 92.6465 38.1878 95.0972 34.1514 97.9803C18.5825 109.008 7.41037 125.658 3.73438 144.975V127.388C3.73438 124.866 4.67139 86.664 5.17594 84.2854C9.28441 67.2028 13.8254 50.9131 25.5021 39.2364Z" fill="#DBDBDB"/>
<path d="M25.5739 39.3084C38.4759 26.4064 56.063 18.2616 75.5962 17.757C76.317 17.757 77.7586 17.6849 78.4794 17.6849H161.009H244.332C243.539 49.1832 219.104 74.9152 188.543 77.3658C185.588 79.8165 152.071 81.2581 147.963 81.2581H90.3723C79.2001 81.2581 56.2071 84.5737 47.4857 90.3399C42.9447 92.3581 38.6922 94.8809 34.6558 97.6919C19.0148 108.648 7.77054 125.154 4.02246 144.471V126.956C4.02246 124.361 4.95946 86.4477 5.53609 84.0691C9.35624 67.1307 13.8972 50.9131 25.5739 39.3084Z" fill="#DADADA"/>
<path d="M25.646 39.3806C38.4759 26.5506 56.1351 18.4058 75.5962 17.8292C76.317 17.8292 77.7586 17.7571 78.4794 17.7571H160.937H244.188C243.395 49.0391 219.104 74.699 188.759 77.1497C185.732 79.6724 152.432 81.186 148.179 81.186H90.5886C79.5606 81.186 56.2793 84.5016 47.7019 90.1958C43.161 92.214 38.8363 94.6647 34.872 97.4758C19.2309 108.36 7.84261 124.793 4.02246 144.038V126.595C4.02246 123.929 4.95946 86.3757 5.53609 83.925C9.5004 66.9866 14.0414 50.9131 25.646 39.3806Z" fill="#D9D9D9"/>
<path d="M25.6464 39.4525C38.4763 26.6225 56.0634 18.4776 75.5966 17.9731C76.3174 17.9731 77.759 17.901 78.4798 17.901H160.865H244.044C240.584 48.8226 219.105 74.4825 189.048 77.0053C185.949 79.6001 152.865 81.1137 148.54 81.1137H91.0214C80.0655 81.1137 56.64 84.3573 48.1348 89.9794C43.5939 91.9976 39.2691 94.3762 35.2328 97.1872C19.5197 107.999 8.1313 124.361 4.16699 143.534V126.163C4.16699 123.424 5.1761 86.1592 5.75273 83.6365C9.64496 66.9143 14.1859 50.9129 25.6464 39.4525Z" fill="#D8D8D8"/>
<path d="M25.7178 39.5246C38.5478 26.6946 56.1349 18.5498 75.596 18.0452C76.2447 18.0452 77.7584 17.9731 78.4792 17.9731H160.865H244.043C240.583 48.6785 219.32 74.1943 189.408 76.7891C186.236 79.456 153.369 81.0417 148.9 81.0417H91.3812C80.5695 81.0417 56.8557 84.2853 48.4946 89.8353C43.9536 91.7814 39.6289 94.2321 35.5925 96.971C19.8074 107.711 8.34694 124 4.31055 143.101V125.802C4.31055 122.991 5.31965 86.0872 5.89628 83.4924C9.71643 66.8423 14.3294 50.913 25.7178 39.5246Z" fill="#D7D7D7"/>
<path d="M25.7899 39.5246C38.6198 26.6946 56.2069 18.6219 75.596 18.0452C76.2447 18.0452 77.8305 17.9731 78.4792 17.9731H160.721H243.827C242.962 48.6785 219.248 73.8339 189.624 76.5008C186.381 79.1677 153.729 80.8255 149.188 80.8255H91.6695C81.0019 80.8255 57.0719 83.9969 48.7829 89.547C44.242 91.4931 39.9173 93.8717 35.8809 96.6106C20.0957 107.278 8.49109 123.496 4.31055 142.525V125.298C4.31055 122.415 5.31964 85.7989 5.96834 83.2041C9.86057 66.6981 14.4015 50.913 25.7899 39.5246Z" fill="#D6D6D6"/>
<path d="M25.862 39.5968C38.6919 26.7668 56.207 18.6941 75.6682 18.1895C76.3169 18.1895 77.9026 18.1174 78.5513 18.1174H160.721H243.755C240.295 48.3903 219.32 73.6178 189.912 76.3567C186.597 79.0957 154.161 80.7535 149.476 80.7535H91.9579C81.3624 80.7535 57.2161 83.925 49.0712 89.3309C44.5303 91.277 40.2056 93.5835 36.0971 96.3225C20.2399 106.846 8.63525 123.064 4.31055 142.02V124.866C4.31055 121.91 5.39171 85.6549 5.96834 82.9159C10.0047 66.6262 14.5457 50.9131 25.862 39.5968Z" fill="#D5D5D5"/>
<path d="M25.9346 39.6686C38.7646 26.8386 56.2797 18.7658 75.6687 18.2613C76.3175 18.2613 77.9032 18.1892 78.5519 18.1892H160.649H243.683C240.224 48.318 219.465 73.3292 190.201 76.1402C186.814 78.9513 154.594 80.6811 149.837 80.6811H92.3909C81.9395 80.6811 57.577 83.7805 49.5043 89.1864C44.8913 91.0604 40.5665 93.439 36.5302 96.1059C20.6729 106.557 8.92412 122.703 4.52734 141.587V124.505C4.52734 121.478 5.60854 85.5825 6.25724 82.7714C10.1495 66.5538 14.6904 50.9128 25.9346 39.6686Z" fill="#D4D4D4"/>
<path d="M26.0067 39.7407C38.8367 26.9108 56.3517 18.838 75.7408 18.3334C76.3895 18.3334 77.9752 18.2614 78.6239 18.2614H160.649H243.611C242.674 48.3901 219.537 73.0409 190.562 75.924C187.102 78.8072 155.099 80.5371 150.198 80.5371H92.6792C82.372 80.5371 57.7212 83.6364 49.7205 88.8982C45.1075 90.7722 40.7828 93.0787 36.7464 95.7456C20.8171 106.125 9.06828 122.126 4.52734 141.011V124C4.52734 120.901 5.60852 85.2942 6.3293 82.4832C10.2215 66.4097 14.8346 50.9129 26.0067 39.7407Z" fill="#D3D3D3"/>
<path d="M26.078 39.8132C38.8358 27.0553 56.3509 18.9825 75.74 18.478C76.3887 18.478 77.9744 18.4059 78.6231 18.4059H160.576H243.466C240.007 48.1022 219.536 72.8251 190.777 75.8524C187.173 78.8076 155.459 80.6095 150.485 80.6095H93.0388C82.8758 80.6095 58.0087 83.6368 50.0801 88.8985C45.4671 90.7726 41.1423 93.0791 37.0339 95.6739C21.0325 105.981 9.21165 121.91 4.59863 140.795V123.857C4.59863 120.685 5.67981 85.4388 6.40059 82.4836C10.3649 66.338 14.9058 50.9132 26.078 39.8132Z" fill="#D2D2D2"/>
<path d="M26.1506 39.8849C38.9085 27.1271 56.4235 19.0543 75.8126 18.5497C76.4613 18.5497 78.0471 18.4777 78.6958 18.4777H160.577H243.467C240.079 47.9577 219.753 72.6085 191.21 75.6358C187.534 78.6631 156.036 80.4651 150.918 80.4651H93.4718C83.3809 80.4651 58.3697 83.4923 50.5131 88.682C45.9001 90.4839 41.5754 92.7905 37.467 95.3853C21.4656 105.62 9.50052 121.478 4.81543 140.29V123.424C4.81543 120.18 5.96867 85.2222 6.68945 82.267C10.5096 66.2656 15.0505 50.9129 26.1506 39.8849Z" fill="#D1D1D1"/>
<path d="M26.2229 39.9569C38.9808 27.1991 56.4958 19.1263 75.8128 18.6217C76.4615 18.6217 78.0473 18.5497 78.696 18.5497H160.505H243.323C242.314 48.0297 219.753 72.3201 191.427 75.4195C187.678 78.5189 156.396 80.3929 151.207 80.3929H93.7604C83.8135 80.3929 58.5141 83.3481 50.8017 88.4657C46.1887 90.2677 41.8639 92.5021 37.7554 95.0969C21.6819 105.26 9.71695 121.045 4.8877 139.785V122.991C4.8877 119.676 6.04098 85.078 6.76176 82.0507C10.5819 66.1214 15.1949 50.9129 26.2229 39.9569Z" fill="#D0D0D0"/>
<path d="M26.2227 40.0294C38.9806 27.2715 56.4236 19.1987 75.7406 18.7662C76.3893 18.7662 77.975 18.7662 78.6237 18.7662H160.361H243.107C242.097 48.1021 219.681 72.1763 191.643 75.3478C187.822 78.5192 156.757 80.3932 151.423 80.3932H93.9763C84.1737 80.3932 58.658 83.3485 51.0176 88.3939C46.4046 90.1959 42.0079 92.4303 37.8994 94.9531C21.7539 105.044 9.71676 120.757 4.81543 139.425V122.703C4.81543 119.316 5.96869 85.0063 6.76155 81.9069C10.7259 66.0497 15.3389 50.9132 26.2227 40.0294Z" fill="#CFCFCF"/>
<path d="M26.2944 40.1014C39.0522 27.3435 56.4952 19.3428 75.8122 18.8383C76.4609 18.8383 78.0466 18.8383 78.6954 18.8383H160.36H243.106C239.718 47.7417 219.825 71.8879 192.003 75.1315C188.11 78.375 157.261 80.3211 151.855 80.3211H94.4085C84.6779 80.3211 58.9458 83.2042 51.4497 88.1776C46.8367 89.9075 42.4399 92.142 38.3315 94.7368C22.1859 104.756 10.0047 120.397 5.03125 138.993V122.343C5.03125 118.883 6.25659 84.9341 6.97737 81.7627C10.8696 65.9775 15.4105 50.9131 26.2944 40.1014Z" fill="#CECECE"/>
<path d="M26.3668 40.1008C39.1247 27.343 56.5677 19.3423 75.8126 18.9098C76.3892 18.9098 78.047 18.9098 78.6957 18.9098H160.288H243.034C241.953 47.8132 219.969 71.5991 192.291 74.9147C188.327 78.2303 157.694 80.1764 152.144 80.1764H94.7692C85.1828 80.1764 59.2345 83.0595 51.8105 87.9609C47.1974 89.6907 42.8007 91.9252 38.6922 94.4479C22.4746 104.323 10.2933 119.964 5.17578 138.488V121.91C5.17578 118.378 6.4011 84.7173 7.19397 81.5459C10.942 65.8328 15.5551 50.9847 26.3668 40.1008Z" fill="#CDCDCD"/>
<path d="M26.4391 40.1732C39.1249 27.4874 56.5678 19.4146 75.8848 18.9822C76.4615 18.9822 78.1193 18.9822 78.768 18.9822H160.289H242.89C241.809 47.6694 219.97 71.3111 192.58 74.6988C188.543 78.0865 158.126 80.1046 152.504 80.1046H95.1298C85.6876 80.1046 59.451 82.9157 52.171 87.817C47.558 89.5469 43.1613 91.7093 38.9808 94.232C22.691 104.035 10.4377 119.532 5.24805 138.056V121.55C5.24805 117.946 6.4734 84.6456 7.33834 81.33C11.0864 65.761 15.6994 50.985 26.4391 40.1732Z" fill="#CCCCCC"/>
<path d="M26.511 40.2454C39.1968 27.5596 56.6397 19.5589 75.8846 19.0543C76.4613 19.0543 78.1191 19.0543 78.7678 19.0543H160.216H242.746C239.358 47.3811 219.969 71.0228 192.796 74.4826C188.687 77.9423 158.486 79.9605 152.72 79.9605H95.3458C86.0477 79.9605 59.595 82.7716 52.3151 87.5288C47.702 89.2587 43.3052 91.3489 39.1247 93.8717C22.835 103.602 10.5096 119.027 5.17578 137.479V121.117C5.17578 117.441 6.47321 84.4294 7.26607 81.1138C11.2304 65.689 15.8434 50.985 26.511 40.2454Z" fill="#CBCBCB"/>
<path d="M26.583 40.3178C39.2688 27.632 56.7117 19.6313 75.9567 19.1989C76.5333 19.1989 78.1911 19.1989 78.8398 19.1989H160.288H242.818C241.737 47.5257 220.258 70.807 193.3 74.3388C189.12 77.7986 159.135 79.9609 153.297 79.9609H95.9224C86.6964 79.9609 60.0273 82.6999 52.8916 87.4571C48.2786 89.1149 43.8098 91.2772 39.7013 93.7279C23.3395 103.386 10.942 118.739 5.53613 137.119V120.829C5.53613 117.081 6.83354 84.4298 7.69848 80.97C11.3745 65.5452 15.9154 50.9854 26.583 40.3178Z" fill="#CACACA"/>
<path d="M26.6547 40.3893C39.3405 27.7035 56.7114 19.7029 75.9563 19.2704C76.5329 19.2704 78.1907 19.2704 78.8394 19.2704H160.144H242.602C241.448 47.381 220.185 70.5181 193.444 74.122C189.119 77.6539 159.423 79.8162 153.441 79.8162H96.0662C86.9843 79.8162 60.0991 82.5552 53.0354 87.2403C48.4224 88.8981 43.9535 90.9884 39.773 93.439C23.3391 103.025 10.8696 118.306 5.3916 136.614V120.396C5.3916 116.576 6.68901 84.213 7.55395 80.7532C11.4462 65.4726 16.0592 50.9849 26.6547 40.3893Z" fill="#C9C9C9"/>
<path d="M26.7274 40.4615C39.4132 27.7757 56.784 19.775 75.9569 19.3425C76.5335 19.3425 78.2634 19.3425 78.84 19.3425H160.144H242.53C239.214 47.0927 220.258 70.3019 193.805 73.9059C189.408 77.5098 159.928 79.7442 153.802 79.7442H96.4992C87.5615 79.7442 60.4601 82.4111 53.4685 87.0241C48.7834 88.6819 44.3866 90.7001 40.206 93.1508C23.7721 102.665 11.2305 117.874 5.6084 136.182V120.036C5.6084 116.144 6.90584 84.141 7.84285 80.6091C11.5909 65.4006 16.204 50.9849 26.7274 40.4615Z" fill="#C8C8C8"/>
<path d="M26.7988 40.5337C39.4846 27.8479 56.8556 19.9193 76.0284 19.4868C76.605 19.4868 78.3348 19.4868 78.8394 19.4868H160.072H242.457C241.304 47.1649 220.401 70.0858 194.093 73.7618C189.624 77.4378 160.36 79.6723 154.161 79.6723H96.859C87.9933 79.6723 60.6757 82.3392 53.8282 86.8801C49.1431 88.4658 44.7463 90.5561 40.5658 92.9347C24.0599 102.377 11.4461 117.513 5.75195 135.749V119.676C5.75195 115.711 7.12147 84.069 7.98641 80.393C11.7345 65.2566 16.3475 50.9851 26.7988 40.5337Z" fill="#C7C7C7"/>
<path d="M26.7988 40.6058C39.4846 27.92 56.7834 19.9914 75.9563 19.559C76.5329 19.559 78.2628 19.559 78.7673 19.559H159.928H242.313C241.088 47.0929 220.401 69.7976 194.381 73.5457C189.84 77.2937 160.793 79.5282 154.45 79.5282H97.1473C88.4258 79.5282 60.8919 82.123 54.1166 86.5918C49.4315 88.1776 45.0347 90.1958 40.7821 92.5743C24.2761 101.872 11.5903 117.009 5.75195 135.173V119.171C5.75195 115.135 7.12145 83.7808 8.05847 80.1048C11.8065 65.1846 16.4916 50.9851 26.7988 40.6058Z" fill="#C6C6C6"/>
<path d="M26.8711 40.6777C39.4848 28.064 56.8557 20.0633 76.0286 19.6309C76.6052 19.6309 78.335 19.6309 78.8396 19.6309H159.928H242.169C238.854 46.8044 220.402 69.5091 194.597 73.3292C189.984 77.1494 161.153 79.4559 154.738 79.4559H97.4358C88.8585 79.4559 61.0363 82.0507 54.4051 86.4475C49.72 88.0332 45.2511 90.0514 41.0706 92.3579C24.4925 101.584 11.7346 116.576 5.82422 134.74V118.811C5.82422 114.702 7.19367 83.7085 8.13069 79.9604C11.9508 65.1123 16.5639 50.9849 26.8711 40.6777Z" fill="#C5C5C5"/>
<path d="M26.9434 40.6778C39.5571 28.0641 56.8559 20.1355 76.0288 19.703C76.5333 19.703 78.3352 19.703 78.8398 19.703H159.856H242.097C240.872 46.8045 220.546 69.2208 194.886 73.1131C190.201 77.0053 161.586 79.3118 155.027 79.3118H97.7243C89.2191 79.3118 61.2526 81.8346 54.6935 86.2314C50.0084 87.745 45.5396 89.7632 41.359 92.0697C24.7089 101.224 11.879 116.144 5.89648 134.236V118.378C5.89648 114.198 7.26596 83.4924 8.27506 79.6722C12.0952 64.9682 16.7082 50.985 26.9434 40.6778Z" fill="#C4C4C4"/>
<path d="M27.0156 40.75C39.6294 28.1362 56.9282 20.2076 76.101 19.7751C76.6056 19.7751 78.4076 19.7751 78.9121 19.7751H159.856H242.025C240.728 46.6604 220.618 68.9326 195.247 72.8969C190.489 76.8612 162.091 79.2398 155.459 79.2398H98.157C89.7959 79.2398 61.5412 81.7625 55.0541 86.0152C50.369 87.5288 45.9002 89.4749 41.6475 91.7814C24.9974 100.863 12.0954 115.711 5.96875 133.731V117.946C5.96875 113.693 7.41034 83.3483 8.41943 79.4561C12.2396 64.8962 16.8526 50.9851 27.0156 40.75Z" fill="#C3C3C3"/>
<path d="M27.0879 40.8221C39.7016 28.2084 57.0004 20.2798 76.1012 19.8473C76.6058 19.8473 78.4077 19.8473 78.9123 19.8473H159.784H241.881C238.566 46.3721 220.618 68.6443 195.463 72.6807C190.634 76.7171 162.451 79.0957 155.676 79.0957H98.4455C90.2286 79.0957 61.7576 81.5464 55.3426 85.799C50.6575 87.3126 46.1887 89.2588 41.936 91.4932C25.2139 100.503 12.2398 115.279 6.04102 133.227V117.513C6.04102 113.189 7.48256 83.1321 8.49165 79.2399C12.3118 64.8242 16.9969 50.9852 27.0879 40.8221Z" fill="#C2C2C2"/>
<path d="M27.1596 40.8939C39.7733 28.2802 57 20.3516 76.1729 19.9912C76.6774 19.9912 78.4794 19.9912 78.9839 19.9912H159.784H241.881C240.584 46.5161 220.834 68.4279 195.895 72.5363C190.994 76.6448 163.027 79.0955 156.18 79.0955H98.8775C90.8048 79.0955 62.0455 81.5461 55.7746 85.6546C51.0895 87.0962 46.6207 89.0423 42.3681 91.3488C25.5738 100.287 12.5277 114.99 6.25684 132.866V117.225C6.25684 112.828 7.6984 83.1319 8.77958 79.0955C12.4556 64.6798 17.0686 50.9849 27.1596 40.8939Z" fill="#C1C1C1"/>
<path d="M27.2316 40.9661C39.8453 28.3524 57.0721 20.4958 76.1729 20.0634C76.6774 20.0634 78.4794 20.0634 78.9839 20.0634H159.712H241.737C240.439 46.372 220.834 68.1396 196.111 72.3202C191.138 76.5007 163.388 78.9514 156.396 78.9514H99.1659C91.1652 78.9514 62.2617 81.33 56.063 85.4384C51.3779 86.88 46.9091 88.8261 42.5844 91.0605C25.7901 99.9262 12.6718 114.558 6.25684 132.361V116.793C6.25684 112.324 7.77048 82.9157 8.77958 78.8793C12.5997 64.6078 17.2127 50.985 27.2316 40.9661Z" fill="#C0C0C0"/>
<path d="M27.3041 41.0383C39.8457 28.4966 57.1445 20.568 76.1732 20.2076C76.6778 20.2076 78.4797 20.2076 78.9843 20.2076H159.64H241.593C238.35 46.1559 220.835 67.9956 196.4 72.1762C191.282 76.3567 163.821 78.9515 156.757 78.9515H99.5266C91.6701 78.9515 62.5504 81.3301 56.4237 85.3665C51.7386 86.8081 47.1977 88.6821 42.9451 90.9165C26.0788 99.7101 12.8884 114.27 6.40137 132.001V116.504C6.40137 111.963 7.915 82.9158 8.99617 78.8074C12.6722 64.5358 17.3573 50.9851 27.3041 41.0383Z" fill="#BFBFBF"/>
<path d="M27.3755 41.1106C39.9172 28.5689 57.1439 20.6403 76.2447 20.2799C76.7492 20.2799 78.5512 20.2799 79.0557 20.2799H159.639H241.52C238.277 46.0119 220.978 67.7075 196.688 71.9601C191.498 76.2127 164.252 78.8075 157.045 78.8075H99.8864C92.174 78.8075 62.766 81.114 56.7835 85.0784C52.0984 86.5199 47.5575 88.3219 43.3049 90.5563C26.3665 99.2057 13.1761 113.693 6.54492 131.425V116C6.54492 111.387 8.05855 82.6277 9.13973 78.4471C12.8157 64.3919 17.5008 50.9853 27.3755 41.1106Z" fill="#BEBEBE"/>
<path d="M27.3755 41.1823C39.9172 28.6407 57.1439 20.7121 76.1726 20.3517C76.6772 20.3517 78.4791 20.3517 78.9837 20.3517H159.495H241.376C240.007 46.0837 220.978 67.4189 196.904 71.7436C191.642 76.0683 164.613 78.7352 157.333 78.7352H100.175C92.5344 78.7352 62.9823 81.0417 57.0718 84.9339C52.3867 86.3034 47.8458 88.1774 43.5211 90.3398C26.5827 98.9171 13.2482 113.333 6.54492 131.064V115.711C6.54492 111.026 8.05853 82.6274 9.21179 78.3748C12.9599 64.3195 17.5729 50.985 27.3755 41.1823Z" fill="#BDBDBD"/>
<path d="M27.4481 41.2544C39.9897 28.7128 57.2164 20.8562 76.2451 20.4958C76.7496 20.4958 78.5516 20.4958 79.0562 20.4958H159.496H241.305C238.061 45.8674 221.051 67.2026 197.265 71.5994C191.931 75.9962 165.118 78.6631 157.694 78.6631H100.536C93.0394 78.6631 63.1989 80.8975 57.4326 84.7898C52.6755 86.1593 48.2066 87.9612 43.8819 90.1236C26.8714 98.6288 13.4648 112.972 6.68945 130.632V115.351C6.68945 110.594 8.20311 82.4833 9.35636 78.2306C13.0324 64.2474 17.7175 50.985 27.4481 41.2544Z" fill="#BCBCBC"/>
<path d="M27.5201 41.2544C40.0618 28.7128 57.2164 20.8562 76.2451 20.4958C76.6776 20.4958 78.6237 20.4958 79.0562 20.4958H159.424H241.16C237.917 45.6512 221.123 66.8422 197.481 71.3111C192.075 75.78 165.55 78.5189 157.982 78.5189H100.824C93.4718 78.5189 63.4152 80.7534 57.6489 84.5015C52.8917 85.8709 48.4228 87.6008 44.0981 89.7632C27.0156 98.1963 13.609 112.468 6.68945 130.055V114.846C6.68945 110.017 8.27521 82.267 9.42847 77.8702C13.1765 64.1033 17.8616 50.985 27.5201 41.2544Z" fill="#BBBBBB"/>
<path d="M27.5917 41.3266C40.1334 28.7849 57.288 20.9284 76.3167 20.568C76.7492 20.568 78.6953 20.568 79.1278 20.568H159.423H241.16C239.718 45.7233 221.266 66.554 197.913 71.0949C192.435 75.6359 166.126 78.3749 158.414 78.3749H101.256C93.976 78.3749 63.703 80.5372 58.0809 84.2853C53.3237 85.5827 48.7828 87.3847 44.5301 89.4749C27.4476 97.836 13.8969 112.035 6.90527 129.55V114.414C6.90527 109.513 8.49097 82.0509 9.7163 77.6541C13.3202 64.0313 18.0053 50.9851 27.5917 41.3266Z" fill="#BABABA"/>
<path d="M27.664 41.3985C40.2057 28.8569 57.3603 21.0724 76.3169 20.712C76.7494 20.712 78.6955 20.712 79.128 20.712H159.351H241.016C237.845 45.507 221.266 66.3376 198.129 70.9506C192.579 75.5637 166.487 78.3026 158.703 78.3026H101.616C94.4807 78.3026 63.9915 80.465 58.4415 84.0689C53.6843 85.3663 49.1434 87.0962 44.8187 89.1865C27.664 97.4755 14.0412 111.603 6.97754 129.046V113.981C6.97754 109.008 8.56328 81.9066 9.78861 77.4377C13.4646 63.959 18.0776 50.9849 27.664 41.3985Z" fill="#B9B9B9"/>
<path d="M27.7363 41.4707C40.2059 29.0011 57.3605 21.1446 76.3171 20.7842C76.7496 20.7842 78.6957 20.7842 79.1282 20.7842H159.279H240.872C237.701 45.3629 221.339 66.0494 198.418 70.7345C192.796 75.4196 166.92 78.2307 158.991 78.2307H101.905C94.9133 78.2307 64.1359 80.3209 58.73 83.9248C53.9729 85.2222 49.4319 86.9521 45.1072 88.9703C27.8805 97.1873 14.2576 111.243 7.0498 128.613V113.693C7.0498 108.72 8.63553 81.8346 9.93294 77.2936C13.5369 63.815 18.222 50.985 27.7363 41.4707Z" fill="#B8B8B8"/>
<path d="M27.808 41.5426C40.2775 29.073 57.4322 21.2165 76.3888 20.8561C76.8213 20.8561 78.7673 20.8561 79.1998 20.8561H159.279H240.872C239.358 45.3627 221.483 65.7609 198.778 70.5181C193.084 75.2752 167.424 78.0863 159.423 78.0863H102.337C95.4896 78.0863 64.4959 80.1766 59.1621 83.7084C54.4049 84.9338 49.8639 86.6636 45.5392 88.6818C28.3125 96.7546 14.5455 110.738 7.26562 128.109V113.261C7.26562 108.215 8.92343 81.6902 10.1488 77.0772C13.6806 63.7427 18.3657 50.9848 27.808 41.5426Z" fill="#B7B7B7"/>
<path d="M27.8806 41.615C40.3502 29.1455 57.5049 21.2889 76.3894 21.0006C76.8219 21.0006 78.7679 21.0006 79.2004 21.0006H159.207H240.728C237.557 45.1469 221.483 65.6171 198.995 70.3743C193.228 75.2035 167.785 78.0867 159.64 78.0867H102.554C95.7784 78.0867 64.5685 80.1049 59.3788 83.5646C54.6217 84.79 50.0807 86.4478 45.684 88.466C28.3851 96.4667 14.6182 110.378 7.12207 127.677V112.901C7.12207 107.783 8.77986 81.5464 10.0773 76.9334C13.8253 63.671 18.5104 50.9852 27.8806 41.615Z" fill="#B6B6B6"/>
<path d="M27.9523 41.6868C40.4218 29.2172 57.5045 21.4328 76.4611 21.0724C76.8935 21.0724 78.8397 21.0724 79.2721 21.0724H159.207H240.656C237.484 45.0745 221.627 65.3285 199.355 70.1577C193.444 75.0591 168.289 77.9422 160.072 77.9422H102.986C96.3546 77.9422 64.9285 79.9604 59.811 83.3481C55.0538 84.5734 50.4408 86.2312 46.1161 88.1773C28.8173 96.106 14.9061 109.945 7.33789 127.172V112.468C7.33789 107.278 8.99568 81.402 10.2931 76.6448C13.897 63.5265 18.5821 50.9849 27.9523 41.6868Z" fill="#B5B5B5"/>
<path d="M27.9525 41.759C40.4221 29.2895 57.5047 21.505 76.3892 21.2167C76.8217 21.2167 78.7677 21.2167 79.2002 21.2167H159.063H240.512C238.926 45.1467 221.627 65.1124 199.571 70.0137C193.589 74.9871 168.649 77.9424 160.288 77.9424H103.274C96.7873 77.9424 65.1449 79.8885 60.0994 83.2041C55.3423 84.3573 50.7292 86.0151 46.4045 88.0333C29.0336 95.8899 15.0505 109.657 7.41016 126.811V112.18C7.41016 106.918 9.06797 81.4021 10.4375 76.5729C14.0414 63.4546 18.7265 50.985 27.9525 41.759Z" fill="#B4B4B4"/>
<path d="M28.0248 41.831C40.4943 29.3615 57.5769 21.577 76.4614 21.2887C76.8939 21.2887 78.84 21.2887 79.2725 21.2887H159.063H240.44C237.268 44.8583 221.699 64.824 199.932 69.7974C193.877 74.7708 169.154 77.7981 160.721 77.7981H103.707C97.292 77.7981 65.4334 79.7443 60.46 82.9878C55.7028 84.141 51.0898 85.7988 46.693 87.745C29.2501 95.5294 15.2669 109.224 7.48242 126.379V111.747C7.48242 106.413 9.21231 81.1858 10.5097 76.3566C14.1857 63.3825 18.8708 50.985 28.0248 41.831Z" fill="#B3B3B3"/>
<path d="M28.0968 41.831C40.4943 29.4336 57.5769 21.577 76.4614 21.2887C76.8218 21.2887 78.84 21.2887 79.2725 21.2887H158.991H240.296C237.124 44.7142 221.771 64.4636 200.148 69.5091C194.021 74.5546 169.515 77.654 160.937 77.654H103.923C97.6525 77.654 65.5776 79.528 60.6763 82.7715C55.9191 83.9248 51.3061 85.5105 46.9093 87.4566C29.4663 95.169 15.339 108.792 7.48242 125.874V111.387C7.48242 105.981 9.21229 81.1138 10.5818 76.1403C14.3299 63.2383 19.0149 50.985 28.0968 41.831Z" fill="#B2B2B2"/>
<path d="M28.1687 41.903C40.5662 29.5055 57.6488 21.7211 76.5333 21.4327C76.8937 21.4327 78.9119 21.4327 79.3444 21.4327H158.991H240.295C238.638 44.7861 221.915 64.2473 200.58 69.3649C194.381 74.4824 170.091 77.5818 161.442 77.5818H104.428C98.3009 77.5818 65.9377 79.4558 61.1806 82.5552C56.4234 83.7084 51.8104 85.2221 47.4136 87.1682C29.8986 94.7364 15.7712 108.359 7.77051 125.37V110.954C7.77051 105.476 9.50041 80.8974 10.942 75.924C14.4017 63.1661 19.0868 50.9849 28.1687 41.903Z" fill="#B1B1B1"/>
<path d="M28.2406 41.9752C40.6381 29.5777 57.7206 21.7932 76.5331 21.5049C76.8935 21.5049 78.9117 21.5049 79.3442 21.5049H158.919H240.151C237.052 44.4979 221.915 63.959 200.796 69.1487C194.525 74.3383 170.451 77.5098 161.658 77.5098H104.644C98.6611 77.5098 66.0817 79.3117 61.3966 82.4111C56.5674 83.4923 51.9544 85.078 47.5576 86.9521C29.9705 94.4482 15.771 107.927 7.69824 124.937V110.594C7.69824 105.044 9.42814 80.8254 10.8697 75.7799C14.5457 63.0941 19.2308 50.985 28.2406 41.9752Z" fill="#B0B0B0"/>
<path d="M28.3122 42.0475C40.7097 29.65 57.7202 21.8656 76.5327 21.5773C76.8931 21.5773 78.9113 21.5773 79.3438 21.5773H158.846H240.006C236.907 44.354 221.987 63.6711 201.084 69.0049C194.741 74.2666 170.883 77.438 162.018 77.438H105.076C99.1653 77.438 66.3696 79.1679 61.8287 82.2673C56.9994 83.3484 52.3864 84.8621 47.9897 86.7361C30.4025 94.1602 16.0589 107.567 7.91406 124.505V110.234C7.91406 104.612 9.64394 80.6815 11.1576 75.564C14.6894 62.9503 19.3745 50.9852 28.3122 42.0475Z" fill="#AFAFAF"/>
<path d="M28.3845 42.1195C40.782 29.722 57.7924 22.0096 76.6049 21.7213C76.9653 21.7213 78.9835 21.7213 79.416 21.7213H158.846H239.934C238.205 44.4981 222.059 63.5268 201.373 68.8606C194.958 74.1944 171.316 77.4379 162.306 77.4379H105.364C99.5979 77.4379 66.586 79.1678 62.1172 82.123C57.2879 83.2042 52.6749 84.6457 48.2782 86.5198C30.619 93.8718 16.2753 107.206 7.98633 124.073V109.873C7.98633 104.179 9.71621 80.6093 11.2299 75.4197C14.7617 62.8781 19.5189 50.9851 28.3845 42.1195Z" fill="#AEAEAE"/>
<path d="M28.4566 42.1913C40.854 29.7938 57.8645 22.0814 76.6049 21.7931C76.9653 21.7931 78.9835 21.7931 79.3439 21.7931H158.702H239.79C236.691 44.2095 222.059 63.2382 201.589 68.644C195.102 74.0499 171.676 77.2934 162.594 77.2934H105.653C100.03 77.2934 66.7302 78.9512 62.4055 81.9064C57.5762 82.9155 52.9632 84.4292 48.4943 86.2311C30.7631 93.5111 16.3474 106.773 7.98633 123.568V109.44C7.98633 103.674 9.78827 80.3928 11.3019 75.1311C14.9058 62.8057 19.5909 50.9848 28.4566 42.1913Z" fill="#ADADAD"/>
<path d="M28.5291 42.2635C40.9266 29.8661 57.8649 22.1537 76.6774 21.8654C77.0378 21.8654 79.1281 21.8654 79.4164 21.8654H158.703H239.719C236.619 44.0655 222.204 62.95 201.95 68.428C195.39 73.9059 172.181 77.1495 162.955 77.1495H106.013C100.463 77.1495 67.0189 78.8073 62.7663 81.6183C57.937 82.6274 53.324 84.069 48.8551 85.871C31.1239 93.0788 16.564 106.269 8.13086 122.991V108.936C8.13086 103.098 9.93285 80.1768 11.4465 74.843C15.0504 62.6617 19.7355 50.985 28.5291 42.2635Z" fill="#ACACAC"/>
<path d="M28.5287 42.3355C40.8541 30.0101 57.8645 22.2256 76.6049 22.0094C76.9653 22.0094 79.0556 22.0094 79.3439 22.0094H158.558H239.502C237.7 44.1375 222.131 62.7337 202.093 68.2837C195.39 73.8338 172.469 77.1494 163.099 77.1494H106.157C100.751 77.1494 67.0906 78.7351 62.838 81.5461C58.0087 82.5552 53.3236 83.9968 48.9268 85.7267C31.1234 92.8624 16.5637 105.981 7.98633 122.631V108.648C7.98633 102.737 9.78825 80.1046 11.374 74.7708C15.1941 62.5895 19.8793 50.9849 28.5287 42.3355Z" fill="#ABABAB"/>
<path d="M28.6013 42.4079C40.9267 30.0825 57.9372 22.3701 76.6775 22.0818C77.0379 22.0818 79.1282 22.0818 79.4165 22.0818H158.559H239.503C236.403 43.9215 222.276 62.4457 202.526 68.0678C195.751 73.6899 173.046 77.0055 163.604 77.0055H106.662C101.4 77.0055 67.4515 78.5912 63.343 81.3302C58.5138 82.2672 53.8288 83.7088 49.3599 85.4387C31.4845 92.4303 16.8525 105.549 8.20312 122.127V108.215C8.20312 102.233 10.0051 79.9607 11.6629 74.4827C15.2668 62.5177 20.024 50.9852 28.6013 42.4079Z" fill="#AAAAAA"/>
<path d="M28.6737 42.4078C40.9991 30.0824 57.9375 22.37 76.6779 22.0817C77.0383 22.0817 79.1286 22.0817 79.4169 22.0817H158.487H239.431C236.404 43.7052 222.42 62.0852 202.815 67.7793C195.968 73.4735 173.479 76.8612 163.893 76.8612H107.023C101.833 76.8612 67.7402 78.3749 63.7038 81.0418C58.8745 81.9788 54.1895 83.3483 49.7207 85.0782C31.8452 91.9977 17.1412 104.972 8.34766 121.622V107.783C8.34766 101.728 10.1496 79.7444 11.8074 74.2664C15.4113 62.3735 20.0964 50.9851 28.6737 42.4078Z" fill="#A9A9A9"/>
<path d="M28.7451 42.4797C41.0705 30.1543 58.0088 22.4419 76.6771 22.2257C76.9654 22.2257 79.1278 22.2257 79.4161 22.2257H158.414H239.214C237.412 43.7771 222.348 61.8688 203.031 67.6351C196.111 73.4014 173.839 76.789 164.18 76.789H107.31C102.265 76.789 67.8836 78.3027 63.9914 80.8975C59.1621 81.8345 54.477 83.204 50.0081 84.8618C32.0606 91.7093 17.2846 104.611 8.41895 121.189V107.422C8.41895 101.296 10.293 79.6722 11.9508 74.1221C15.5547 62.3013 20.2398 50.985 28.7451 42.4797Z" fill="#A8A8A8"/>
<path d="M28.8173 42.552C41.1427 30.2266 58.0812 22.5863 76.7495 22.298C77.0378 22.298 79.2001 22.298 79.4884 22.298H158.414H239.214C236.187 43.5611 222.492 61.5807 203.391 67.419C196.4 73.1853 174.344 76.7171 164.541 76.7171H107.671C102.77 76.7171 68.1721 78.1587 64.3519 80.6815C59.5227 81.5464 54.8376 82.9159 50.2967 84.6458C32.2771 91.4211 17.4289 104.251 8.49121 120.757V107.062C8.49121 100.863 10.3653 79.5282 12.0231 73.9061C15.627 62.1573 20.3842 50.9852 28.8173 42.552Z" fill="#A7A7A7"/>
<path d="M28.8896 42.6241C41.215 30.2987 58.0813 22.6584 76.7496 22.4421C77.038 22.4421 79.2003 22.4421 79.4886 22.4421H158.342H239.07C236.043 43.489 222.564 61.3644 203.608 67.2749C196.544 73.1132 174.704 76.6451 164.829 76.6451H107.96C103.202 76.6451 68.3164 78.0866 64.6404 80.5373C59.8112 81.4023 55.054 82.6997 50.5852 84.4295C32.5656 91.1328 17.6454 103.891 8.56348 120.325V106.702C8.56348 100.431 10.4375 79.4561 12.1674 73.7619C15.7713 62.0852 20.5285 50.9852 28.8896 42.6241Z" fill="#A6A6A6"/>
<path d="M28.962 42.6957C41.2153 30.4424 58.1538 22.73 76.8221 22.5138C77.1104 22.5138 79.2727 22.5138 79.561 22.5138H158.343H238.998C235.971 43.3444 222.637 61.1478 203.968 67.0582C196.833 72.9686 175.209 76.5726 165.19 76.5726H108.32C103.635 76.5726 68.6051 77.9421 65.0012 80.3927C60.0999 81.2577 55.4148 82.5551 50.9459 84.2129C32.8542 90.8441 17.862 103.53 8.70801 119.892V106.341C8.70801 99.998 10.582 79.3115 12.3119 73.6174C15.9158 62.0127 20.673 50.9848 28.962 42.6957Z" fill="#A5A5A5"/>
<path d="M29.0335 42.768C41.2868 30.5147 58.1532 22.8023 76.8215 22.5861C77.1098 22.5861 79.2721 22.5861 79.5604 22.5861H158.27H238.926C235.898 43.2005 222.708 60.8597 204.256 66.8422C197.048 72.8247 175.641 76.4286 165.55 76.4286H108.752C104.211 76.4286 68.8928 77.7981 65.4331 80.1046C60.5318 80.8975 55.8467 82.1949 51.3057 83.8527C33.142 90.3397 18.0776 103.026 8.85156 119.315V105.909C8.85156 99.4937 10.7256 79.1676 12.5276 73.3293C16.0594 61.8688 20.7445 50.9849 29.0335 42.768Z" fill="#A4A4A4"/>
<path d="M29.1058 42.8402C41.3591 30.5869 58.2254 22.9466 76.8937 22.7303C77.182 22.7303 79.3444 22.7303 79.6327 22.7303H158.27H238.854C235.826 43.2006 222.852 60.6436 204.617 66.6982C197.337 72.7527 176.146 76.4287 165.911 76.4287H109.113C104.716 76.4287 69.1813 77.7261 65.7216 80.0326C60.8202 80.8255 56.1352 82.1229 51.5942 83.7087C33.4305 90.1236 18.294 102.665 8.92383 118.955V105.62C8.92383 99.1334 10.7978 79.0956 12.5998 73.2573C16.1316 61.7968 20.8888 50.9851 29.1058 42.8402Z" fill="#A3A3A3"/>
<path d="M29.105 42.9122C41.3583 30.6589 58.2247 23.0186 76.8209 22.8024C77.1092 22.8024 79.2715 22.8024 79.5598 22.8024H158.125H238.709C235.682 43.0564 222.852 60.3552 204.832 66.4819C197.408 72.6085 176.505 76.2845 166.198 76.2845H109.4C105.076 76.2845 69.3968 77.5819 66.0091 79.8164C61.1078 80.6092 56.4227 81.8346 51.8818 83.4203C33.646 89.7632 18.4374 102.233 8.99512 118.45V105.188C8.99512 98.6288 10.8692 78.9514 12.7432 73.041C16.275 61.7247 21.0322 50.985 29.105 42.9122Z" fill="#A2A2A2"/>
<path d="M29.1778 42.9843C41.4312 30.7309 58.2254 23.0906 76.8217 22.8744C77.11 22.8744 79.2723 22.8744 79.5606 22.8744H158.054H238.493C235.538 42.9122 222.78 60.0668 205.049 66.2656C197.553 72.4643 176.866 76.2124 166.415 76.2124H109.617C105.437 76.2124 69.4696 77.4377 66.2261 79.6001C61.3248 80.3929 56.6397 81.5462 52.0267 83.1319C33.7188 89.4027 18.5103 101.8 8.92383 117.946V104.755C8.92383 98.1242 10.7979 78.7351 12.744 72.7526C16.42 61.5805 21.1771 50.985 29.1778 42.9843Z" fill="#A1A1A1"/>
<path d="M29.2497 42.9842C41.5031 30.7309 58.2973 23.0906 76.8935 22.9464C77.1818 22.9464 79.3442 22.9464 79.6325 22.9464H158.126H238.565C235.61 42.768 221.699 56.8233 205.481 66.0493C196.976 70.8785 177.443 76.0682 166.919 76.0682H110.122C106.085 76.0682 69.9019 77.2935 66.7305 79.3838C61.8292 80.1046 57.0719 81.3299 52.531 82.8435C34.2231 89.0423 18.8704 101.368 9.21191 117.441V104.323C9.21191 97.6196 11.1581 78.5188 13.0321 72.5363C16.4919 61.5084 21.249 50.9849 29.2497 42.9842Z" fill="#A0A0A0"/>
<path d="M29.322 43.0565C41.5753 30.8032 58.3695 23.2349 76.8937 23.0187C77.1099 23.0187 79.3444 23.0187 79.6327 23.0187H158.054H238.421C235.466 42.6961 221.699 56.6793 205.698 65.8332C197.12 70.7346 177.803 75.9963 167.136 75.9963H110.41C106.446 75.9963 70.0463 77.1495 67.019 79.1677C62.1177 79.8885 57.3604 81.0418 52.8195 82.5554C34.4395 88.6821 19.0148 100.935 9.28418 116.937V103.891C9.28418 97.1152 11.2303 78.3749 13.1764 72.3203C16.6361 61.4364 21.3933 50.9851 29.322 43.0565Z" fill="#9F9F9F"/>
<path d="M29.3932 43.1287C41.5745 30.9475 58.3688 23.3072 76.965 23.0909C77.1812 23.0909 79.4877 23.0909 79.704 23.0909H157.981H238.276C235.321 42.5521 221.77 56.4632 205.985 65.6172C197.336 70.6627 178.235 75.8523 167.495 75.8523H110.77C106.95 75.8523 70.3338 77.0056 67.3786 78.9517C62.4773 79.6725 57.7201 80.7536 53.107 82.2673C34.7271 88.3219 19.2302 100.503 9.35547 116.505V103.53C9.35547 96.683 11.3016 78.2309 13.2477 72.1042C16.7796 61.2925 21.5367 50.9853 29.3932 43.1287Z" fill="#9E9E9E"/>
<path d="M29.4657 43.2004C41.647 31.0192 58.4412 23.3789 76.9653 23.2347C77.1816 23.2347 79.4881 23.2347 79.7044 23.2347H157.981H238.277C235.322 42.4797 221.987 56.3908 206.346 65.4726C197.625 70.5902 178.74 75.7799 167.856 75.7799H111.131C107.455 75.7799 70.5504 76.861 67.7394 78.8071C62.838 79.4559 58.0808 80.6091 53.4678 82.0507C35.0157 87.9611 19.4468 100.142 9.5 116.072V103.17C9.5 96.2501 11.4461 78.1584 13.4643 71.9597C16.9241 61.22 21.6813 50.9849 29.4657 43.2004Z" fill="#9D9D9D"/>
<path d="M29.5374 43.2725C41.7186 31.0912 58.5129 23.523 77.037 23.3068C77.2532 23.3068 79.5598 23.3068 79.776 23.3068H157.981H238.204C235.249 42.4075 222.131 56.1745 206.706 65.2564C197.912 70.446 179.244 75.7077 168.288 75.7077H111.563C108.031 75.7077 70.9104 76.7889 68.1714 78.5909C63.2701 79.2396 58.5129 80.3208 53.8999 81.7623C35.3757 87.6007 19.8068 99.6378 9.71582 115.567V102.737C9.71582 95.7455 11.6619 77.9422 13.6801 71.7434C16.9957 61.0758 21.7529 51.0569 29.5374 43.2725Z" fill="#9C9C9C"/>
<path d="M29.6101 43.3447C41.7913 31.1635 58.5135 23.5953 77.0376 23.379C77.2538 23.379 79.5604 23.379 79.7766 23.379H157.91H238.061C235.105 42.2636 222.131 55.9585 206.923 65.0403C198.057 70.3021 179.605 75.5638 168.505 75.5638H111.779C108.32 75.5638 70.983 76.5729 68.3161 78.3748C63.4148 79.0235 58.5855 80.1047 53.9725 81.4742C35.4484 87.2405 19.7353 99.2055 9.57227 115.063V102.377C9.57227 95.3132 11.5184 77.8703 13.6087 71.5274C17.1405 61.0039 21.8977 51.0571 29.6101 43.3447Z" fill="#9B9B9B"/>
<path d="M29.6821 43.4172C41.8634 31.2359 58.5856 23.6677 77.1097 23.5236C77.326 23.5236 79.6324 23.5236 79.8486 23.5236H157.91H238.061C235.105 42.1919 222.348 55.8867 207.355 64.8965C198.418 70.2303 180.182 75.5641 169.01 75.5641H112.356C109.04 75.5641 71.4876 76.5732 68.8928 78.231C63.9914 78.8077 59.1622 79.8889 54.5491 81.2583C35.9529 86.9525 20.1677 98.8455 9.93262 114.631V101.945C9.93262 94.8091 11.8788 77.6544 13.969 71.3115C17.2846 60.9322 22.0418 51.0575 29.6821 43.4172Z" fill="#9A9A9A"/>
<path d="M29.6819 43.4887C41.8631 31.3075 58.5853 23.7392 77.0374 23.5951C77.2536 23.5951 79.5601 23.5951 79.7764 23.5951H157.765H237.844C234.961 42.0472 222.347 55.67 207.499 64.6798C198.489 70.1577 180.47 75.4194 169.154 75.4194H112.5C109.329 75.4194 71.5594 76.3565 69.0367 78.0143C64.0633 78.5909 59.3061 79.6 54.6931 81.0415C36.0248 86.6637 20.2396 98.4845 9.86035 114.198V101.584C9.86035 94.376 11.8065 77.5818 13.9688 71.1668C17.3565 60.7875 22.1858 51.0569 29.6819 43.4887Z" fill="#999999"/>
<path d="M29.7542 43.5609C41.8633 31.4518 58.5855 23.8835 77.0376 23.7394C77.2538 23.7394 79.5603 23.7394 79.7766 23.7394H157.693H237.7C234.817 42.0473 222.42 55.598 207.788 64.5357C198.706 70.0858 180.903 75.4196 169.514 75.4196H112.861C109.761 75.4196 71.7759 76.3566 69.3973 77.9423C64.4239 78.519 59.6667 79.5281 54.9816 80.8975C36.3133 86.4476 20.384 98.1963 9.93262 113.837V101.296C9.93262 94.0158 11.8788 77.5098 14.1132 71.0228C17.5009 60.7156 22.258 51.0571 29.7542 43.5609Z" fill="#989898"/>
<path d="M29.8264 43.5609C41.9356 31.4518 58.6578 23.8835 77.1099 23.7394C77.3261 23.7394 79.6326 23.7394 79.8488 23.7394H157.693H237.7C234.817 41.8311 222.564 55.3097 208.148 64.2474C198.994 69.8695 181.407 75.2033 169.875 75.2033H113.221C110.266 75.2033 72.0643 76.0683 69.7578 77.5819C64.7844 78.0865 60.0272 79.0956 55.3422 80.4651C36.6018 85.8709 20.6004 97.6197 10.0049 113.189V100.719C10.0049 93.3671 11.951 77.2215 14.1854 70.6624C17.6452 60.5714 22.4024 51.0571 29.8264 43.5609Z" fill="#979797"/>
<path d="M29.8977 43.6332C42.0069 31.524 58.7291 23.9558 77.1091 23.8116C77.2533 23.8116 79.6318 23.8116 79.848 23.8116H157.621H237.556C234.672 41.6871 222.635 55.1657 208.364 64.0314C199.138 69.7976 181.767 75.1315 170.162 75.1315H113.509C110.698 75.1315 72.2077 75.9964 70.0454 77.438C65.072 77.9425 60.2427 78.8795 55.6297 80.249C36.8173 85.5828 20.8158 97.2595 10.0762 112.756V100.359C10.0762 92.9348 12.0223 77.0776 14.3288 70.5184C17.7886 60.4995 22.5457 51.0573 29.8977 43.6332Z" fill="#969696"/>
<path d="M29.9704 43.7052C42.0796 31.596 58.7297 24.0278 77.1817 23.9557C77.3259 23.9557 79.7044 23.9557 79.9207 23.9557H157.621H237.484C234.601 41.687 222.78 55.0215 208.725 63.8871C199.499 69.7254 182.272 75.0592 170.523 75.0592H113.942C111.275 75.0592 72.5687 75.8521 70.4784 77.2216C65.505 77.7262 60.6758 78.6632 56.0627 79.9606C37.2503 85.2223 21.1047 96.7548 10.293 112.252V99.9263C10.293 92.4301 12.2391 76.9333 14.5456 70.23C17.8612 60.4273 22.6905 51.0572 29.9704 43.7052Z" fill="#959595"/>
<path d="M30.0426 43.7772C42.1518 31.668 58.8019 24.1719 77.1819 24.0277C77.326 24.0277 79.7046 24.0277 79.9208 24.0277H157.549H237.412C234.529 41.5428 222.924 54.8773 209.013 63.6708C199.715 69.5812 182.705 74.9871 170.884 74.9871H114.302C111.707 74.9871 72.7851 75.78 70.839 77.0774C65.8656 77.5819 61.0363 78.4469 56.3512 79.7443C37.4667 84.9339 21.3211 96.3944 10.3652 111.891V99.6379C10.3652 92.0697 12.3114 76.8612 14.6899 70.1579C18.0055 60.2831 22.7627 51.0571 30.0426 43.7772Z" fill="#949494"/>
<path d="M30.1147 43.8493C42.2238 31.7402 58.874 24.244 77.254 24.0999C77.3981 24.0999 79.7767 24.0999 79.993 24.0999H157.549H237.268C234.385 41.3987 222.996 54.6611 209.301 63.4546C199.931 69.5092 183.137 74.843 171.172 74.843H114.591C112.14 74.843 73.0013 75.5638 71.0552 76.8612C66.0818 77.2937 61.2526 78.2307 56.5675 79.4561C37.6109 84.5736 21.3932 95.962 10.3652 111.387V99.2055C10.3652 91.5652 12.3114 76.645 14.6899 69.9417C18.1497 60.2111 22.9068 51.0572 30.1147 43.8493Z" fill="#939393"/>
<path d="M30.187 43.9216C42.2962 31.8846 58.8742 24.3163 77.2542 24.2443C77.3983 24.2443 79.7769 24.2443 79.921 24.2443H157.405H237.124C234.241 41.3268 222.997 54.5172 209.518 63.3107C200.076 69.4374 183.498 74.8433 171.461 74.8433H114.879C112.573 74.8433 73.1457 75.5641 71.3438 76.7173C66.3704 77.1498 61.541 78.0147 56.8559 79.2401C37.8993 84.2135 21.5376 95.6018 10.4375 110.955V98.8454C10.4375 91.133 12.3836 76.5732 14.8343 69.7257C18.2941 60.0672 23.0512 51.0574 30.187 43.9216Z" fill="#929292"/>
<path d="M30.2591 43.9934C42.2961 31.9563 58.9463 24.4602 77.2542 24.316C77.3983 24.316 79.7769 24.316 79.921 24.316H157.333H236.98C234.169 41.2545 223.069 54.3727 209.806 63.0942C200.292 69.365 183.93 74.6988 171.749 74.6988H115.167C112.933 74.6988 73.3619 75.3475 71.632 76.5008C66.6586 76.9332 61.7573 77.7261 57.0722 78.9514C38.0435 83.8528 21.6817 95.1691 10.4375 110.45V98.4847C10.4375 90.7002 12.3836 76.4287 14.8343 69.5812C18.3661 59.9948 23.1954 51.0571 30.2591 43.9934Z" fill="#919191"/>
<path d="M30.2596 44.0652C42.2967 32.0281 58.9468 24.532 77.2547 24.3878C77.3989 24.3878 79.8495 24.3878 79.9216 24.3878H157.262H236.908C234.097 41.11 223.213 54.1562 210.095 62.8777C200.581 69.2206 184.363 74.5544 172.11 74.5544H115.6C113.51 74.5544 73.7229 75.2031 72.0651 76.2842C67.0917 76.6446 62.1903 77.5096 57.5052 78.6628C38.4045 83.4921 21.9706 94.7363 10.6543 109.945V98.0519C10.6543 90.1954 12.6004 76.2843 15.1232 69.2927C18.5108 59.9225 23.268 51.0568 30.2596 44.0652Z" fill="#909090"/>
<path d="M30.3309 44.1377C42.368 32.1006 58.946 24.6044 77.2539 24.5323C77.3981 24.5323 79.8487 24.5323 79.9208 24.5323H157.261H236.835C234.024 41.0383 223.357 54.0845 210.383 62.7339C200.796 69.2209 184.867 74.5547 172.397 74.5547H115.888C113.942 74.5547 73.8662 75.1314 72.3526 76.1405C67.3791 76.5009 62.4778 77.2937 57.7928 78.447C38.692 83.2041 22.114 94.3763 10.7256 109.513V97.6919C10.7256 89.7633 12.6717 76.1405 15.2665 69.1489C18.6542 59.7787 23.4114 51.0572 30.3309 44.1377Z" fill="#8F8F8F"/>
<path d="M30.403 44.1377C42.4401 32.1006 59.0181 24.6044 77.326 24.5323C77.4701 24.5323 79.9208 24.5323 79.9929 24.5323H157.189H236.691C233.88 40.8941 223.429 53.7962 210.671 62.4456C201.012 69.0047 185.299 74.3385 172.686 74.3385H116.176C114.302 74.3385 74.0824 74.9151 72.6409 75.8522C67.6675 76.2126 62.7662 76.9333 58.009 78.0866C38.8362 82.7717 22.2581 93.7997 10.7256 108.936V97.1873C10.7256 89.1866 12.6717 75.9242 15.2665 68.8605C18.7984 59.7066 23.5555 51.0572 30.403 44.1377Z" fill="#8E8E8E"/>
<path d="M30.4754 44.2095C42.5125 32.1724 59.0905 24.7483 77.3263 24.6763C77.4705 24.6763 79.9212 24.6763 79.9933 24.6763H157.117H236.62C233.808 40.8218 223.573 53.6518 210.96 62.3012C201.301 69.0045 185.732 74.3383 173.046 74.3383H116.537C114.807 74.3383 74.299 74.8428 73.0016 75.7077C67.9562 75.9961 63.127 76.7889 58.3698 77.8701C39.1249 82.411 22.4747 93.439 10.8701 108.503V96.8267C10.8701 88.7539 12.8162 75.7798 15.4831 68.6441C18.8708 59.5622 23.7 51.0569 30.4754 44.2095Z" fill="#8D8D8D"/>
<path d="M30.5479 44.2819C42.585 32.2448 59.0909 24.8207 77.3988 24.7487C77.4709 24.7487 79.9937 24.7487 80.0658 24.7487H157.118H236.548C233.737 40.678 223.718 53.5079 211.32 62.0853C201.59 68.8606 186.237 74.1944 173.407 74.1944H116.898C115.312 74.1944 74.5878 74.699 73.3624 75.4918C68.317 75.7802 63.4157 76.5009 58.7306 77.6542C39.4857 82.1231 22.7634 93.079 11.0146 108.071V96.4666C11.0146 88.3218 12.9608 75.636 15.6277 68.5002C19.0154 59.4904 23.7725 51.0573 30.5479 44.2819Z" fill="#8C8C8C"/>
<path d="M30.62 44.3537C42.585 32.3887 59.163 24.8925 77.3988 24.8204C77.4709 24.8204 79.9937 24.8204 80.0658 24.8204H157.045H236.404C233.593 40.6056 223.79 53.2914 211.537 61.9408C201.734 68.8603 186.598 74.1941 173.696 74.1941H117.258C115.817 74.1941 74.804 74.6266 73.6508 75.4195C68.6053 75.7078 63.7039 76.3565 58.9468 77.5097C39.6298 81.9065 22.8355 92.7903 11.0146 107.711V96.178C11.0146 87.9611 12.9608 75.6357 15.6997 68.4278C19.1595 59.346 23.9167 51.057 30.62 44.3537Z" fill="#8B8B8B"/>
<path d="M30.6915 44.4261C42.6565 32.4611 59.2345 24.965 77.4704 24.965C77.5424 24.965 80.0651 24.965 80.1372 24.965H157.045H236.403C233.592 40.5339 224.006 53.1476 211.969 61.797C202.166 68.7886 187.174 74.1224 174.127 74.1224H117.618C116.248 74.1224 75.0917 74.5549 74.0106 75.2036C68.9651 75.4198 64.0637 76.1406 59.3065 77.2218C39.9175 81.5465 23.0511 92.3582 11.1582 107.278V95.818C11.1582 87.529 13.1043 75.4919 15.8433 68.212C19.231 59.2743 24.0603 51.0573 30.6915 44.4261Z" fill="#8A8A8A"/>
<path d="M30.7629 44.4979C42.7279 32.5329 59.2339 25.1088 77.4697 25.0367C77.5418 25.0367 80.0645 25.0367 80.1366 25.0367H156.972H236.258C233.447 40.3894 224.077 53.0031 212.184 61.5805C202.309 68.7162 187.533 74.05 174.415 74.05H117.978C116.752 74.05 75.3074 74.4104 74.3703 75.0591C69.3248 75.2754 64.4235 75.9241 59.6663 77.0052C40.2772 81.2579 23.3388 91.9976 11.3018 106.846V95.4573C11.3018 87.1683 13.2479 75.4195 16.0589 68.0675C19.3745 59.2019 24.2038 51.057 30.7629 44.4979Z" fill="#898989"/>
<path d="M30.8358 44.57C42.8008 32.605 59.3068 25.181 77.4705 25.1089C77.5426 25.1089 80.0653 25.1089 80.1374 25.1089H156.901H236.115C233.376 40.2453 224.15 52.787 212.401 61.3643C202.526 68.6442 187.895 73.906 174.632 73.906H118.195C117.114 73.906 75.4523 74.2664 74.5874 74.7709C69.5419 74.9871 64.6406 75.6358 59.8113 76.6449C40.3501 80.7534 23.3396 91.4931 11.2305 106.269V94.9528C11.2305 86.5918 13.1765 75.1313 16.0597 67.7793C19.5194 59.0578 24.3487 51.0571 30.8358 44.57Z" fill="#888888"/>
<path d="M30.8353 44.6423C42.8004 32.6772 59.3064 25.2532 77.4701 25.2532C77.5422 25.2532 80.0649 25.2532 80.137 25.2532H156.828H236.043C233.304 40.2455 224.294 52.643 212.761 61.2203C202.814 68.5723 188.399 73.9061 175.064 73.9061H118.627C117.618 73.9061 75.8123 74.1944 75.0194 74.6989C69.9739 74.8431 65.0005 75.4918 60.2434 76.5009C40.7101 80.5373 23.6996 91.1328 11.4463 105.909V94.6646C11.4463 86.2315 13.3924 75.0593 16.2755 67.6352C19.6632 58.9858 24.4204 51.0572 30.8353 44.6423Z" fill="#878787"/>
<path d="M30.9076 44.7144C42.8726 32.7494 59.3066 25.3974 77.4703 25.3253C77.5424 25.3253 80.0651 25.3253 80.1372 25.3253H156.757H235.899C233.16 40.1014 224.366 52.4268 212.978 61.0041C203.031 68.5003 188.759 73.762 175.281 73.762H118.915C118.05 73.762 75.9567 74.0503 75.308 74.4827C70.2625 74.6269 65.2891 75.2036 60.5319 76.2126C40.9987 80.177 23.844 90.7004 11.5186 105.404V94.2322C11.5186 85.727 13.4647 74.9152 16.4199 67.4191C19.7355 58.8418 24.5647 51.0573 30.9076 44.7144Z" fill="#868686"/>
<path d="M30.9791 44.7144C42.8721 32.8215 59.378 25.3974 77.5418 25.3253C77.6138 25.3253 80.1365 25.3253 80.2086 25.3253H156.756H235.826C233.087 39.8851 224.51 52.2106 213.337 60.7158C203.319 68.3561 189.263 73.6178 175.712 73.6178H119.347C118.626 73.6178 76.3164 73.8341 75.7398 74.1944C70.6943 74.3386 65.7209 74.9152 60.8917 75.8523C41.2864 79.7445 24.0596 90.1958 11.6621 104.828V93.7277C11.6621 85.1504 13.6082 74.6269 16.5634 67.1308C19.879 58.7697 24.7083 51.0573 30.9791 44.7144Z" fill="#858585"/>
<path d="M31.0524 44.7864C42.9453 32.8934 59.3792 25.4694 77.5429 25.4694C77.615 25.4694 80.1377 25.4694 80.2098 25.4694H156.685H235.755C233.016 39.885 224.655 52.0663 213.627 60.5715C203.608 68.356 189.697 73.5456 176.002 73.5456H119.637C118.988 73.5456 76.4618 73.7619 76.0293 74.0502C70.9838 74.1944 66.0103 74.6989 61.1811 75.6359C41.5037 79.4561 24.277 89.8353 11.7354 104.395V93.3672C11.7354 84.7178 13.6094 74.5547 16.7088 66.9144C20.0244 58.6254 24.8537 51.0572 31.0524 44.7864Z" fill="#848484"/>
<path d="M31.1238 44.8586C43.0168 32.9657 59.4506 25.5416 77.6144 25.5416C77.6144 25.5416 80.2092 25.5416 80.2813 25.5416H156.684H235.682C232.943 39.7411 224.798 51.8502 213.987 60.3555C203.896 68.212 190.201 73.4737 176.434 73.4737H120.069C119.564 73.4737 76.8216 73.6179 76.3891 73.9062C71.3436 73.9783 66.3701 74.4828 61.5409 75.4199C41.8635 79.1679 24.4926 89.4752 11.8789 103.963V93.007C11.8789 84.2855 13.753 74.4108 16.8523 66.7705C20.1679 58.5535 24.9251 51.0574 31.1238 44.8586Z" fill="#838383"/>
<path d="M31.1957 44.9305C43.0886 33.0376 59.5225 25.6856 77.6142 25.6135H80.2811H156.612H235.538C232.799 39.5967 224.87 51.6338 214.203 60.1391C204.112 68.1398 190.561 73.3294 176.65 73.3294H120.285C119.924 73.3294 76.8934 73.4736 76.6051 73.6177C71.5596 73.6898 66.5141 74.1944 61.6849 75.0593C41.9354 78.7353 24.4924 88.9704 11.8066 103.386V92.5022C11.8066 83.7087 13.6807 74.1223 16.8521 66.482C20.2398 58.4092 25.069 51.0572 31.1957 44.9305Z" fill="#828282"/>
<path d="M31.2681 45.0024C43.1611 33.1094 59.5229 25.7574 77.6145 25.7574H80.2814H156.54H235.394C232.655 39.5965 224.943 51.5615 214.491 59.9947C204.328 68.1395 190.994 73.2571 177.011 73.2571H120.645C120.429 73.2571 77.1821 73.3292 76.9658 73.4733C71.8483 73.5454 66.8749 73.9779 62.0456 74.8428C42.2962 78.3746 24.7811 88.6098 11.9512 102.953V92.1416C11.9512 83.276 13.8252 74.0499 16.9967 66.2655C20.3843 58.3369 25.2135 51.0569 31.2681 45.0024Z" fill="#818181"/>
<path d="M31.3399 45.0745C43.2328 33.1816 59.5945 25.8296 77.6862 25.8296H80.3532H156.54H235.394C232.727 39.4524 225.159 51.3453 214.851 59.7785C204.688 68.0675 191.498 73.1851 177.371 73.1851H121.077C120.933 73.1851 77.47 73.2572 77.3979 73.2572C72.2803 73.2572 67.3069 73.7617 62.4777 74.5546C42.6561 78.0143 25.069 88.1053 12.167 102.521V91.7813C12.167 82.8436 14.041 73.9059 17.2845 66.1214C20.5281 58.2649 25.3574 51.057 31.3399 45.0745Z" fill="#808080"/>
<path d="M12.167 91.421C12.167 82.4112 13.969 73.7618 17.3566 65.9774C20.6722 58.1208 25.5015 51.0572 31.4119 45.1467C43.3049 33.2538 59.6666 25.9739 77.6862 25.9739H156.468H235.25C232.583 39.3805 225.231 51.2013 215.068 59.6345C204.905 68.0677 191.858 73.1131 177.659 73.1131H77.6862C51.738 73.1131 28.3846 84.2853 12.167 102.089V91.421Z" fill="#7F7F7F"/>
</g>
<path d="M247.936 0.314087H77.6143C35.016 0.314087 0.5625 34.8396 0.5625 77.3659V147.642C0.5625 105.044 35.0881 70.5905 77.6143 70.5905H177.587C216.509 70.6626 247.936 39.1643 247.936 0.314087Z" fill="#064779"/>
</svg>
