<svg width="248" height="162" viewBox="0 0 248 162" fill="none" xmlns="http://www.w3.org/2000/svg">
<g id="Group">
<g id="Group_2" opacity="0.3">
<path id="Vector" d="M247.9 14.3695H162.776H77.6514C56.3883 14.3695 37.0713 23.0189 23.1601 36.93C9.17694 50.9133 0.599609 70.1582 0.599609 91.4213V161.698C0.599609 140.435 9.24902 121.118 23.1601 107.206C37.1433 93.2233 56.3883 84.6459 77.6514 84.6459H177.624C216.474 84.6459 247.9 53.1477 247.9 14.3695Z" fill="white"/>
<path id="Vector_2" d="M23.2326 37.0023C36.495 23.7399 54.5867 15.3067 74.6966 14.5139C75.7057 14.4418 76.7147 14.4418 77.7238 14.4418H162.776H247.901C247.901 53.0758 216.619 84.3578 177.985 84.4299C177.913 84.502 136.251 84.502 136.107 84.502H78.0122C62.4432 84.502 47.5951 89.187 35.4859 97.1877C31.1612 99.9988 27.1248 103.314 23.5209 106.918C9.53771 120.757 0.816219 140.002 0.744141 161.193V140.939C0.744141 140.867 0.744145 91.2052 0.816223 91.1332C0.744145 70.0863 9.32148 50.9134 23.2326 37.0023Z" fill="#FEFEFE"/>
<path id="Vector_3" d="M23.3047 37.0741C36.5671 23.8117 54.6588 15.3785 74.6966 14.5856C75.7057 14.5136 76.7148 14.5135 77.6518 14.5135H162.632H247.685C247.613 52.9313 216.547 84.0692 178.201 84.2133C178.057 84.3575 136.612 84.4296 136.396 84.4296H78.3005C62.8036 84.4296 47.7392 89.0426 35.7742 97.0433C31.4495 99.8543 27.4131 103.098 23.7371 106.702C9.68187 120.469 0.960376 139.642 0.744141 160.761V140.579C0.744141 140.434 0.744145 91.1329 0.816223 90.9887C0.888302 69.9418 9.46562 50.9131 23.3047 37.0741Z" fill="#FDFDFD"/>
<path id="Vector_4" d="M23.3041 37.1461C36.5665 23.8836 54.6582 15.4505 74.6959 14.7297C75.633 14.6576 76.7141 14.6576 77.6512 14.6576H162.559H247.54C247.468 52.8591 216.546 83.9249 178.417 84.0691C178.2 84.2853 136.972 84.3574 136.611 84.3574H78.6603C63.3076 84.3574 48.0269 88.9704 36.134 96.8269C31.8093 99.638 27.7729 102.809 24.0969 106.413C10.0416 120.108 1.17601 139.137 0.887695 160.256V140.146C0.887695 139.93 0.959771 90.9165 1.03185 90.7724C1.03185 69.8696 9.60917 50.913 23.3041 37.1461Z" fill="#FCFCFC"/>
<path id="Vector_5" d="M23.3761 37.2183C36.6386 23.9559 54.6582 15.5227 74.6959 14.8019C75.633 14.7299 76.7141 14.7299 77.6512 14.7299H162.487H247.468C247.396 52.7872 216.69 83.6368 178.705 83.853C178.417 84.1413 137.404 84.2855 136.972 84.2855H78.9486C63.74 84.2855 48.1711 88.8264 36.3503 96.683C32.0255 99.422 27.9892 102.665 24.3132 106.197C10.1858 119.82 1.24809 138.777 0.887695 159.896V139.858C0.887695 139.57 0.959771 90.9167 1.03185 90.6284C1.17601 69.7977 9.68125 50.9132 23.3761 37.2183Z" fill="#FBFBFB"/>
<path id="Vector_6" d="M23.4476 37.2183C36.71 23.9559 54.7296 15.5948 74.7674 14.8019C75.7044 14.7299 76.7856 14.7299 77.7226 14.7299H162.487H247.395C247.323 52.571 216.762 83.2764 179.065 83.5647C178.632 83.9251 137.908 84.0693 137.331 84.0693H79.3804C64.244 84.0693 48.5309 88.6102 36.7821 96.3226C32.4574 99.0616 28.421 102.233 24.673 105.765C10.4735 119.316 1.5358 138.2 1.03125 159.247V139.281C1.03125 138.921 1.10333 90.5563 1.24749 90.268C1.31957 69.6536 9.82481 50.9132 23.4476 37.2183Z" fill="#FAFAFA"/>
<path id="Vector_7" d="M23.5209 37.2908C36.7112 24.1004 54.8029 15.6673 74.7686 14.9465C75.7056 14.8744 76.7868 14.8744 77.7238 14.8744H162.416H247.324C247.18 52.4993 216.835 83.0605 179.354 83.4209C178.85 83.7813 138.342 84.0696 137.693 84.0696H79.6699C64.6776 84.0696 48.6762 88.5385 37.0716 96.2509C32.7469 98.9898 28.6384 102.161 24.9624 105.621C10.763 119.1 1.68112 137.912 1.10449 158.887V138.993C1.10449 138.561 1.17657 90.5567 1.32073 90.1963C1.53696 69.5819 9.97014 50.9136 23.5209 37.2908Z" fill="#F9F9F9"/>
<path id="Vector_8" d="M23.5922 37.3623C36.7825 24.1719 54.8021 15.7388 74.8399 15.018C75.7769 15.018 76.8581 14.9459 77.7951 14.9459H162.415H247.179C247.035 52.3546 216.906 82.7717 179.642 83.2041C179.065 83.6366 138.773 83.9249 137.981 83.9249H79.9574C65.1093 83.9249 48.8917 88.3938 37.3591 96.0341C33.0344 98.7731 28.9259 101.872 25.25 105.332C10.9784 118.739 1.82449 137.479 1.17578 158.382V138.56C1.17578 138.056 1.24786 90.3399 1.46409 89.9074C1.68033 69.5093 10.1135 50.913 23.5922 37.3623Z" fill="#F8F8F8"/>
<path id="Vector_9" d="M23.6644 37.4343C36.8548 24.244 54.8743 15.8108 74.8401 15.09C75.7771 15.09 76.8583 15.0179 77.7953 15.0179H162.343H247.107C246.963 52.2825 216.979 82.4833 179.93 82.9879C179.282 83.4924 139.206 83.8528 138.341 83.8528H80.318C65.614 83.8528 49.1802 88.2496 37.7197 95.8178C33.3229 98.4847 29.2865 101.584 25.5385 105.044C11.1949 118.306 2.04091 137.047 1.24805 157.877V138.128C1.24805 137.551 1.3922 90.1957 1.53636 89.6911C1.82467 69.365 10.1858 50.913 23.6644 37.4343Z" fill="#F7F7F7"/>
<path id="Vector_10" d="M23.7367 37.5066C36.927 24.3163 54.9466 15.9552 74.8402 15.2344C75.7773 15.2344 76.8585 15.1624 77.7955 15.1624H162.271H246.963C246.747 52.2106 216.979 82.2673 180.219 82.8439C179.498 83.4206 139.639 83.781 138.63 83.781H80.6786C66.0467 83.781 49.3966 88.1777 38.0803 95.6739C33.6835 98.3408 29.6471 101.44 25.899 104.9C11.5554 118.09 2.25733 136.759 1.32031 157.517V137.84C1.32031 137.191 1.46447 90.1238 1.6807 89.6193C1.96902 69.2932 10.3301 50.9132 23.7367 37.5066Z" fill="#F6F6F6"/>
<path id="Vector_11" d="M23.8091 37.579C36.9995 24.3887 54.947 16.0276 74.9127 15.3068C75.8497 15.3068 76.9309 15.2347 77.8679 15.2347H162.272H246.892C246.675 52.0668 217.123 81.9793 180.508 82.7001C179.715 83.3488 140.072 83.7813 138.99 83.7813H81.0394C66.5516 83.7813 49.6853 88.106 38.4411 95.6021C34.0443 98.269 30.0079 101.296 26.2598 104.756C11.8441 117.874 2.54602 136.398 1.46484 157.157V137.552C1.46484 136.831 1.609 90.1242 1.89732 89.4755C2.11355 69.2214 10.4746 50.9135 23.8091 37.579Z" fill="#F5F5F5"/>
<path id="Vector_12" d="M23.8806 37.6505C37.071 24.4602 55.0185 16.0991 74.9121 15.4504C75.8491 15.4504 76.9303 15.3783 77.8673 15.3783H162.271H246.891C246.675 51.9941 217.267 81.8346 180.939 82.5553C180.074 83.2761 140.648 83.7086 139.422 83.7086H81.4712C67.1276 83.7086 49.973 88.0333 38.8729 95.3853C34.4761 97.9801 30.3677 101.007 26.6196 104.467C12.1318 117.513 2.76165 135.965 1.6084 156.652V137.119C1.6084 136.326 1.75255 89.9073 2.04086 89.2586C2.2571 69.1488 10.6182 50.9129 23.8806 37.6505Z" fill="#F4F4F4"/>
<path id="Vector_13" d="M23.8806 37.7228C37.071 24.5324 55.0185 16.2434 74.9121 15.5226C75.8491 15.5226 77.0024 15.4506 77.8673 15.4506H162.199H246.747C246.459 51.9222 217.267 81.5464 181.156 82.3393C180.219 83.1322 141.008 83.6367 139.711 83.6367H81.7595C67.488 83.6367 50.1892 87.8893 39.0891 95.2413C34.6924 97.8362 30.5839 100.863 26.8358 104.251C12.3481 117.225 2.83373 135.605 1.6084 156.22V136.758C1.6084 135.894 1.75255 89.8354 2.11294 89.1147C2.47334 69.0048 10.6903 50.9131 23.8806 37.7228Z" fill="#F3F3F3"/>
<path id="Vector_14" d="M23.9527 37.795C37.071 24.6768 55.0185 16.3157 74.9121 15.5949C75.777 15.5949 77.0024 15.5228 77.8673 15.5228H162.127H246.603C246.314 51.7782 217.339 81.2583 181.372 82.1232C180.363 82.9882 141.368 83.4927 139.927 83.4927H81.9758C67.8484 83.4927 50.2613 87.7454 39.3054 94.9532C34.9086 97.548 30.8001 100.503 27.0521 103.891C12.4922 116.793 2.97789 135.101 1.6084 155.643V136.326C1.6084 135.389 1.82463 89.6194 2.11294 88.8265C2.61749 68.9329 10.8344 50.9133 23.9527 37.795Z" fill="#F2F2F2"/>
<path id="Vector_15" d="M24.0245 37.7952C37.1428 24.677 55.0903 16.3159 74.9839 15.6672C75.8489 15.6672 77.0742 15.5951 77.9392 15.5951H162.127H246.603C246.314 51.6343 217.483 80.9702 181.804 81.9072C180.723 82.8442 141.945 83.3488 140.431 83.3488H82.5522C68.569 83.3488 50.7656 87.5293 39.8818 94.7371C35.485 97.2599 31.3765 100.287 27.5564 103.603C12.9245 116.433 3.33805 134.669 1.89648 155.211V135.966C1.89648 134.957 2.11272 89.5475 2.47311 88.6825C2.76143 68.861 10.9784 50.9135 24.0245 37.7952Z" fill="#F1F1F1"/>
<path id="Vector_16" d="M24.0966 37.867C37.2149 24.7487 55.1624 16.3876 74.9839 15.7389C75.8489 15.7389 77.0742 15.6669 77.9392 15.6669H162.055H246.458C246.17 51.4898 217.483 80.6815 182.02 81.6906C180.795 82.6997 142.305 83.2764 140.647 83.2764H82.7684C68.8573 83.2764 50.8377 87.4569 40.098 94.5927C35.7012 97.1154 31.5928 100.071 27.7726 103.386C13.1407 116.144 3.41013 134.308 1.89648 154.778V135.533C1.89648 134.452 2.11272 89.331 2.47311 88.466C2.90558 68.7166 11.1225 50.9132 24.0966 37.867Z" fill="#F0F0F0"/>
<path id="Vector_17" d="M24.1693 37.9393C37.2875 24.821 55.163 16.532 75.0566 15.8112C75.9215 15.8112 77.1469 15.7391 78.0118 15.7391H162.055H246.387C246.027 51.4179 217.628 80.3934 182.381 81.4746C181.084 82.5558 142.81 83.1324 141.08 83.1324H83.2014C69.4345 83.1324 51.1987 87.2409 40.5311 94.3046C36.1343 96.8273 31.9537 99.7104 28.2056 103.026C13.5737 115.712 3.77108 133.804 2.11328 154.202V135.101C2.11328 133.948 2.32951 89.187 2.76198 88.1779C3.0503 68.6447 11.1951 50.9134 24.1693 37.9393Z" fill="#EFEFEF"/>
<path id="Vector_18" d="M24.2413 38.0112C37.3596 24.893 55.235 16.604 75.0566 15.9553C75.9215 15.9553 77.1469 15.8832 78.0118 15.8832H161.983H246.315C245.954 51.3457 217.7 80.1771 182.67 81.3303C181.3 82.4836 143.243 83.1323 141.369 83.1323H83.4898C69.8669 83.1323 51.3428 87.2408 40.8194 94.2324C36.4226 96.683 32.242 99.6383 28.4219 102.882C13.7179 115.495 3.84316 133.443 2.11328 153.841V134.812C2.11328 133.587 2.32951 89.1148 2.76198 88.1057C3.19445 68.5725 11.3393 50.9133 24.2413 38.0112Z" fill="#EEEEEE"/>
<path id="Vector_19" d="M24.3128 38.0835C37.4311 24.9652 55.3065 16.6762 75.056 16.0275C75.9209 16.0275 77.1463 15.9554 78.0112 15.9554H161.91H246.17C242.494 50.9855 217.699 79.889 182.957 81.1143C181.516 82.2675 143.675 82.9883 141.728 82.9883H83.8495C70.3709 82.9883 51.6305 87.0247 41.1792 93.9442C36.7824 96.3949 32.6018 99.278 28.7817 102.522C14.0056 114.991 4.13087 132.939 2.25684 153.265V134.308C2.25684 133.011 2.54515 88.8987 2.97762 87.8176C3.41009 68.4285 11.4829 50.9134 24.3128 38.0835Z" fill="#EDEDED"/>
<path id="Vector_20" d="M24.3853 38.1551C37.4315 25.109 55.3069 16.7479 75.1284 16.0992C75.9934 16.0992 77.2187 16.0271 78.0837 16.0271H161.911H246.098C245.666 51.0572 217.844 79.6002 183.246 80.8976C181.732 82.123 144.107 82.9158 142.017 82.9158H84.2103C70.8037 82.9158 51.9192 86.9522 41.5399 93.7997C37.1431 96.2503 32.9626 99.1334 29.1424 102.305C14.3664 114.702 4.34748 132.578 2.40137 152.832V133.947C2.40137 132.578 2.68969 88.7542 3.19423 87.6009C3.55463 68.356 11.6274 50.913 24.3853 38.1551Z" fill="#ECECEC"/>
<path id="Vector_21" d="M24.4581 38.2273C37.5043 25.1811 55.3798 16.8921 75.1292 16.2433C75.9942 16.2433 77.2195 16.1713 78.0844 16.1713H161.84H245.955C245.523 51.0572 217.844 79.4561 183.463 80.7535C181.877 82.0509 144.469 82.8438 142.306 82.8438H84.4994C71.237 82.8438 52.0642 86.8081 41.7569 93.6555C37.2881 96.0341 33.1796 98.9172 29.2874 102.089C14.4392 114.414 4.34827 132.217 2.33008 152.399V133.587C2.33008 132.145 2.61839 88.6821 3.12293 87.4568C3.69956 68.2839 11.7003 50.913 24.4581 38.2273Z" fill="#EBEBEB"/>
<path id="Vector_22" d="M24.4575 38.2995C37.5037 25.2533 55.3792 16.9643 75.1286 16.3156C75.9936 16.3156 77.2189 16.2435 78.0838 16.2435H161.767H245.882C242.206 50.697 217.916 79.168 183.823 80.5374C182.165 81.9069 144.973 82.7719 142.666 82.7719H84.8592C71.741 82.7719 52.3519 86.7362 42.1167 93.4395C37.6479 95.8181 33.5394 98.6291 29.6472 101.801C14.727 114.054 4.63598 131.785 2.47363 151.895V133.155C2.47363 131.641 2.76194 88.4661 3.33857 87.2407C3.84312 68.14 11.8438 50.9132 24.4575 38.2995Z" fill="#EAEAEA"/>
<path id="Vector_23" d="M24.5298 38.3718C37.576 25.3256 55.3794 17.0366 75.1288 16.3879C75.9217 16.3879 77.2191 16.3158 78.084 16.3158H161.695H245.738C245.306 50.7693 217.988 78.8798 184.039 80.3214C182.309 81.7629 145.333 82.6279 142.955 82.6279H85.1477C72.1015 82.6279 52.4962 86.5201 42.4052 93.2234C37.9364 95.602 33.7558 98.4131 29.9357 101.585C15.0155 113.766 4.78033 131.425 2.5459 151.463V132.794C2.5459 131.209 2.83422 88.3942 3.41085 87.0247C3.98747 68.0681 11.9882 50.9134 24.5298 38.3718Z" fill="#E9E9E9"/>
<path id="Vector_24" d="M24.6011 38.3715C37.6473 25.3253 55.4506 17.1083 75.2001 16.4596C75.993 16.4596 77.2904 16.3876 78.1553 16.3876H161.694H245.665C245.161 50.6248 218.059 78.5912 184.399 80.1049C182.597 81.6185 145.837 82.5555 143.314 82.5555H85.5073C72.6053 82.5555 52.7837 86.4478 42.7648 93.079C38.296 95.4576 34.1154 98.1965 30.2232 101.368C15.2309 113.477 4.99577 131.064 2.61719 151.03V132.434C2.61719 130.776 2.97758 88.2497 3.55421 86.8802C4.20291 67.9957 12.1315 50.9131 24.6011 38.3715Z" fill="#E8E8E8"/>
<path id="Vector_25" d="M24.6735 38.4436C37.7197 25.3974 55.5231 17.1805 75.2005 16.5318C75.9933 16.5318 77.2908 16.4597 78.1557 16.4597H161.622H245.594C241.99 50.3366 218.132 78.303 184.688 79.8887C182.813 81.4744 146.27 82.4114 143.675 82.4114H85.8681C73.1102 82.4114 53.0003 86.2316 43.1256 92.7907C38.6567 95.0972 34.4762 97.9083 30.584 101.008C15.5917 113.045 5.21238 130.488 2.76172 150.525V132.001C2.76172 130.344 3.12211 88.1056 3.69874 86.6641C4.34745 67.9237 12.204 50.9132 24.6735 38.4436Z" fill="#E7E7E7"/>
<path id="Vector_26" d="M24.746 38.5158C37.7922 25.4696 55.5235 17.2527 75.2009 16.6761C75.9937 16.6761 77.2911 16.604 78.1561 16.604H161.551H245.45C241.846 50.2646 218.204 78.0869 184.976 79.7447C182.958 81.4025 146.775 82.4115 143.964 82.4115H86.2289C73.6151 82.4115 53.289 86.2317 43.4864 92.7188C39.0175 95.0253 34.837 97.7642 30.9447 100.864C15.8804 112.829 5.42899 130.2 2.90625 150.165V131.713C2.90625 129.983 3.26665 88.0337 3.91535 86.52C4.49198 67.7796 12.3485 50.9133 24.746 38.5158Z" fill="#E6E6E6"/>
<path id="Vector_27" d="M24.8181 38.588C37.7922 25.6139 55.5955 17.3249 75.2729 16.7482C76.0658 16.7482 77.4353 16.6761 78.2281 16.6761H161.551H245.378C244.801 50.3367 218.276 77.7986 185.265 79.5285C183.174 81.2583 147.207 82.2675 144.252 82.2675H86.5172C73.9755 82.2675 53.4332 86.0155 43.7747 92.4305C39.3058 94.737 35.1253 97.4039 31.161 100.503C16.0245 112.324 5.57315 129.695 2.90625 149.589V131.209C2.90625 129.407 3.26664 87.8175 3.98743 86.2318C4.63613 67.7076 12.4927 50.9134 24.8181 38.588Z" fill="#E5E5E5"/>
<path id="Vector_28" d="M24.8905 38.6597C37.8646 25.6856 55.5959 17.4687 75.2733 16.82C76.0662 16.82 77.4357 16.7479 78.2285 16.7479H161.479H245.306C241.702 50.0481 218.349 77.51 185.553 79.3119C183.391 81.1139 147.64 82.1951 144.613 82.1951H86.8779C74.4804 82.1951 53.7219 85.9432 44.1355 92.286C39.6666 94.5205 35.414 97.2595 31.5217 100.287C16.3853 112.036 5.78976 129.334 3.05078 149.156V130.848C3.05078 128.974 3.41117 87.673 4.13196 86.0152C4.78066 67.6352 12.6372 50.9131 24.8905 38.6597Z" fill="#E4E4E4"/>
<path id="Vector_29" d="M24.9626 38.7322C37.9367 25.7581 55.668 17.5412 75.3454 16.9645C76.1382 16.9645 77.5077 16.8925 78.3006 16.8925H161.479H245.162C244.585 50.1927 218.421 77.2941 185.842 79.1682C183.607 81.0422 148.072 82.1234 144.901 82.1234H87.1662C74.9129 82.1234 53.9381 85.7994 44.3517 92.1423C39.8828 94.3767 35.6302 97.0436 31.738 100.071C16.5294 111.748 5.86184 128.974 3.05078 148.724V130.488C3.05078 128.542 3.48324 87.6013 4.20403 85.8715C4.92481 67.4915 12.7093 50.9135 24.9626 38.7322Z" fill="#E3E3E3"/>
<path id="Vector_30" d="M25.0339 38.8041C38.008 25.83 55.7393 17.6131 75.3446 17.0364C76.1375 17.0364 77.507 16.9644 78.2277 16.9644H161.334H245.017C244.44 50.0483 218.42 77.0777 186.057 78.9518C183.75 80.8258 148.432 81.9791 145.189 81.9791H87.5258C75.3446 81.9791 54.1536 85.583 44.7113 91.8538C40.2424 94.0882 35.9898 96.683 32.0255 99.7103C16.7449 111.315 6.07728 128.47 3.12207 148.147V129.983C3.12207 127.965 3.55454 87.3129 4.27533 85.583C5.14027 67.4192 12.8527 50.9133 25.0339 38.8041Z" fill="#E2E2E2"/>
<path id="Vector_31" d="M25.0343 38.8762C38.0084 25.9021 55.6676 17.7573 75.345 17.1086C76.1378 17.1086 77.5073 17.0365 78.2281 17.0365H161.262H244.945C241.414 49.688 218.493 76.7895 186.418 78.7356C184.039 80.6817 148.937 81.907 145.549 81.907H87.8866C75.8495 81.907 54.4422 85.5109 45.0721 91.7097C40.6032 93.872 36.3506 96.5389 32.3863 99.4941C17.1057 111.027 6.29389 128.109 3.2666 147.715V129.623C3.2666 127.533 3.69908 87.2408 4.49194 85.3668C5.2848 67.3472 12.9972 50.9133 25.0343 38.8762Z" fill="#E1E1E1"/>
<path id="Vector_32" d="M25.1056 38.9482C38.0797 25.9741 55.7389 17.8293 75.3442 17.2526C76.065 17.2526 77.5065 17.1805 78.2273 17.1805H161.19H244.8C244.152 49.832 218.564 76.5731 186.633 78.5913C184.183 80.6095 149.297 81.8348 145.837 81.8348H88.1741C76.2812 81.8348 54.5856 85.3667 45.3596 91.4933C40.8186 93.6557 36.6381 96.2505 32.6738 99.2057C17.3211 110.666 6.50934 127.605 3.33789 147.21V129.19C3.33789 127.028 3.77036 87.0245 4.56322 85.1505C5.42816 67.2029 13.1405 50.9132 25.1056 38.9482Z" fill="#E0E0E0"/>
<path id="Vector_33" d="M25.1776 38.9482C38.0797 26.0462 55.8109 17.8293 75.3442 17.2526C76.065 17.2526 77.5065 17.1805 78.2273 17.1805H161.117H244.656C244.008 49.6879 218.564 76.2127 186.922 78.303C184.399 80.3933 149.729 81.6907 146.125 81.6907H88.4624C76.6416 81.6907 54.8018 85.2225 45.6479 91.2771C41.107 93.4395 36.8543 96.0343 32.89 98.9174C17.5373 110.306 6.58142 127.172 3.33789 146.705V128.83C3.33789 126.596 3.77036 86.9524 4.6353 85.0063C5.57232 67.1309 13.2847 50.9132 25.1776 38.9482Z" fill="#DFDFDF"/>
<path id="Vector_34" d="M25.2503 39.0205C38.1523 26.1185 55.8115 17.9015 75.4168 17.3249C76.1376 17.3249 77.5792 17.2528 78.3 17.2528H161.118H244.657C241.125 49.3277 218.709 75.9246 187.282 78.0869C184.688 80.2493 150.234 81.5467 146.558 81.5467H88.8955C77.2188 81.5467 55.0907 85.0065 46.0809 91.0611C41.54 93.1513 37.2874 95.7461 33.3231 98.6293C17.8983 109.946 6.87029 126.74 3.55469 146.201V128.398C3.55469 126.091 4.05924 86.7364 4.8521 84.7182C5.71704 67.059 13.3573 50.9134 25.2503 39.0205Z" fill="#DEDEDE"/>
<path id="Vector_35" d="M25.3218 39.0924C38.2238 26.1904 55.883 18.0456 75.4162 17.4689C76.137 17.4689 77.5786 17.3969 78.2994 17.3969H161.045H244.512C240.98 49.2555 218.78 75.7083 187.57 77.9427C184.903 80.1771 150.666 81.5466 146.846 81.5466H89.2553C77.7227 81.5466 55.3784 85.0064 46.4407 90.9168C41.8998 93.0071 37.6472 95.5298 33.6828 98.4129C18.186 109.585 7.158 126.379 3.69824 145.768V128.037C3.69824 125.659 4.20279 86.6642 5.06773 84.5739C5.86059 66.9868 13.5009 50.9133 25.3218 39.0924Z" fill="#DDDDDD"/>
<path id="Vector_36" d="M25.3942 39.1643C38.2962 26.2623 55.9554 18.1174 75.4887 17.5408C76.2095 17.5408 77.651 17.4688 78.3718 17.4688H161.046H244.44C243.72 49.3274 218.853 75.4197 187.859 77.7262C185.048 80.0328 151.099 81.4023 147.207 81.4023H89.616C78.2277 81.4023 55.595 84.7899 46.8015 90.7004C42.2605 92.7906 38.0079 95.3134 34.0436 98.1244C18.5468 109.225 7.37461 125.947 3.84277 145.336V127.677C3.84277 125.226 4.70771 86.664 5.28434 84.4296C9.10449 67.2749 13.6454 50.9131 25.3942 39.1643Z" fill="#DCDCDC"/>
<path id="Vector_37" d="M25.4659 39.2367C38.3679 26.3346 55.9551 18.1898 75.4883 17.6852C76.2091 17.6852 77.6507 17.6132 78.3714 17.6132H160.973H244.296C240.764 49.1114 218.852 75.2038 188.075 77.5824C185.192 79.961 151.459 81.4025 147.423 81.4025H89.8319C78.5156 81.4025 55.7388 84.7902 46.9453 90.5565C42.4043 92.6468 38.1517 95.0974 34.1153 97.9805C18.5464 109.009 7.37424 125.659 3.69824 144.976V127.389C3.69824 124.866 4.63526 86.6642 5.13981 84.2857C9.24828 67.2031 13.7892 50.9134 25.4659 39.2367Z" fill="#DBDBDB"/>
<path id="Vector_38" d="M25.5387 39.3087C38.4408 26.4067 56.0279 18.2618 75.5611 17.7573C76.2819 17.7573 77.7235 17.6852 78.4443 17.6852H160.974H244.297C243.504 49.1834 219.069 74.9154 188.508 77.3661C185.553 79.8167 152.036 81.2583 147.928 81.2583H90.3372C79.1651 81.2583 56.172 84.5739 47.4506 90.3402C42.9096 92.3584 38.657 94.8811 34.6206 97.6922C18.9796 108.648 7.73538 125.154 3.9873 144.471V126.956C3.9873 124.361 4.92433 86.448 5.50095 84.0694C9.32111 67.1309 13.862 50.9133 25.5387 39.3087Z" fill="#DADADA"/>
<path id="Vector_39" d="M25.6108 39.3808C38.4408 26.5509 56.1 18.406 75.5611 17.8294C76.2819 17.8294 77.7235 17.7573 78.4443 17.7573H160.902H244.152C243.36 49.0393 219.069 74.6992 188.724 77.1499C185.697 79.6726 152.397 81.1863 148.144 81.1863H90.5534C79.5254 81.1863 56.2441 84.5019 47.6668 90.1961C43.1259 92.2143 38.8012 94.6649 34.8368 97.476C19.1958 108.36 7.80746 124.794 3.9873 144.039V126.596C3.9873 123.929 4.92433 86.3759 5.50095 83.9253C9.46527 66.9868 14.0062 50.9134 25.6108 39.3808Z" fill="#D9D9D9"/>
<path id="Vector_40" d="M25.6112 39.4527C38.4411 26.6227 56.0283 18.4779 75.5615 17.9733C76.2823 17.9733 77.7238 17.9012 78.4446 17.9012H160.83H244.009C240.549 48.8229 219.07 74.4828 189.013 77.0055C185.913 79.6003 152.83 81.114 148.505 81.114H90.9863C80.0304 81.114 56.6049 84.3575 48.0996 89.9796C43.5587 91.9978 39.234 94.3764 35.1976 97.1875C19.4845 107.999 8.09615 124.361 4.13184 143.534V126.163C4.13184 123.424 5.14093 86.1595 5.71756 83.6367C9.60979 66.9145 14.1507 50.9132 25.6112 39.4527Z" fill="#D8D8D8"/>
<path id="Vector_41" d="M25.6827 39.5248C38.5126 26.6949 56.0997 18.55 75.5609 18.0455C76.2096 18.0455 77.7232 17.9734 78.444 17.9734H160.83H244.008C240.548 48.6788 219.285 74.1945 189.373 76.7893C186.201 79.4562 153.333 81.042 148.865 81.042H91.3461C80.5343 81.042 56.8205 84.2855 48.4594 89.8355C43.9185 91.7816 39.5938 94.2323 35.5574 96.9713C19.7722 107.711 8.31178 124.001 4.27539 143.101V125.803C4.27539 122.992 5.28449 86.0874 5.86111 83.4926C9.68127 66.8425 14.2943 50.9132 25.6827 39.5248Z" fill="#D7D7D7"/>
<path id="Vector_42" d="M25.7547 39.5248C38.5847 26.6949 56.1718 18.6221 75.5609 18.0455C76.2096 18.0455 77.7953 17.9734 78.444 17.9734H160.685H243.792C242.927 48.6788 219.213 73.8341 189.589 76.501C186.345 79.1679 153.694 80.8257 149.153 80.8257H91.6344C80.9668 80.8257 57.0368 83.9972 48.7477 89.5472C44.2068 91.4933 39.8821 93.8719 35.8457 96.6109C20.0606 107.278 8.45594 123.496 4.27539 142.525V125.298C4.27539 122.415 5.28449 85.7991 5.9332 83.2043C9.82543 66.6984 14.3664 50.9132 25.7547 39.5248Z" fill="#D6D6D6"/>
<path id="Vector_43" d="M25.8268 39.597C38.6568 26.7671 56.1718 18.6943 75.633 18.1898C76.2817 18.1898 77.8674 18.1177 78.5161 18.1177H160.685H243.72C240.26 48.3906 219.285 73.618 189.877 76.357C186.562 79.096 154.126 80.7538 149.441 80.7538H91.9227C81.3272 80.7538 57.1809 83.9252 49.0361 89.3311C44.4951 91.2772 40.1704 93.5837 36.0619 96.3227C20.2047 106.846 8.60009 123.064 4.27539 142.02V124.866C4.27539 121.911 5.35657 85.6551 5.9332 82.9161C9.96958 66.6264 14.5105 50.9133 25.8268 39.597Z" fill="#D5D5D5"/>
<path id="Vector_44" d="M25.8995 39.6688C38.7294 26.8388 56.2445 18.7661 75.6335 18.2615C76.2822 18.2615 77.868 18.1895 78.5167 18.1895H160.614H243.648C240.188 48.3182 219.43 73.3294 190.166 76.1405C186.778 78.9515 154.559 80.6814 149.802 80.6814H92.3557C81.9044 80.6814 57.5419 83.7808 49.4691 89.1866C44.8561 91.0607 40.5314 93.4393 36.495 96.1062C20.6377 106.558 8.88897 122.703 4.49219 141.588V124.505C4.49219 121.478 5.57336 85.5827 6.22206 82.7717C10.0422 66.554 14.6552 50.913 25.8995 39.6688Z" fill="#D4D4D4"/>
<path id="Vector_45" d="M25.9715 39.741C38.8015 26.911 56.3165 18.8382 75.7056 18.3337C76.3543 18.3337 77.94 18.2616 78.5887 18.2616H160.614H243.576C242.639 48.3904 219.502 73.0412 190.526 75.9243C187.067 78.8074 155.064 80.5373 150.163 80.5373H92.644C82.3368 80.5373 57.686 83.6367 49.6853 88.8984C45.0723 90.7724 40.7476 93.0789 36.7112 95.7458C20.7819 106.125 9.03312 122.127 4.49219 141.011V124.001C4.49219 120.901 5.57336 85.2945 6.29415 82.4834C10.1864 66.41 14.7994 50.9131 25.9715 39.741Z" fill="#D3D3D3"/>
<path id="Vector_46" d="M26.0428 39.8134C38.8007 27.0555 56.3157 18.9828 75.7048 18.4782C76.3535 18.4782 77.9393 18.4061 78.588 18.4061H160.541H243.431C239.971 48.1024 219.501 72.8253 190.742 75.8526C187.138 78.8078 155.424 80.6098 150.45 80.6098H93.0036C82.8406 80.6098 57.9736 83.637 50.0449 88.8988C45.4319 90.7728 41.1072 93.0793 36.9987 95.6741C20.9973 105.981 9.17649 121.911 4.56348 140.795V123.857C4.56348 120.685 5.64465 85.439 6.36544 82.4838C10.3297 66.3382 14.8707 50.9135 26.0428 39.8134Z" fill="#D2D2D2"/>
<path id="Vector_47" d="M26.1155 39.8852C38.8733 27.1273 56.3884 19.0545 75.7775 18.55C76.4262 18.55 78.0119 18.4779 78.6606 18.4779H160.542H243.432C240.044 47.958 219.718 72.6088 191.175 75.636C187.499 78.6633 156.001 80.4653 150.883 80.4653H93.4367C83.3457 80.4653 58.3345 83.4926 50.478 88.6822C45.8649 90.4842 41.5402 92.7907 37.4318 95.3855C21.4304 105.621 9.46537 121.478 4.78027 140.29V123.424C4.78027 120.18 5.93353 85.2225 6.65432 82.2673C10.4745 66.2659 15.0154 50.9132 26.1155 39.8852Z" fill="#D1D1D1"/>
<path id="Vector_48" d="M26.1877 39.9572C38.9456 27.1993 56.4606 19.1265 75.7776 18.622C76.4264 18.622 78.0121 18.5499 78.6608 18.5499H160.47H243.288C242.279 48.03 219.718 72.3204 191.391 75.4198C187.643 78.5191 156.361 80.3932 151.172 80.3932H93.7252C83.7783 80.3932 58.4788 83.3484 50.7665 88.466C46.1534 90.2679 41.8287 92.5023 37.7203 95.0971C21.6468 105.26 9.68179 121.045 4.85254 139.786V122.991C4.85254 119.676 6.00579 85.0782 6.72657 82.051C10.5467 66.1216 15.1597 50.9131 26.1877 39.9572Z" fill="#D0D0D0"/>
<path id="Vector_49" d="M26.1875 40.0296C38.9454 27.2717 56.3884 19.1989 75.7054 18.7665C76.3541 18.7665 77.9398 18.7665 78.5885 18.7665H160.325H243.071C242.062 48.1024 219.646 72.1766 191.607 75.348C187.787 78.5194 156.721 80.3935 151.388 80.3935H93.9412C84.1386 80.3935 58.6228 83.3487 50.9825 88.3942C46.3695 90.1962 41.9727 92.4306 37.8642 94.9533C21.7187 105.044 9.6816 120.757 4.78027 139.426V122.703C4.78027 119.316 5.93353 85.0065 6.72639 81.9071C10.6907 66.0499 15.3037 50.9134 26.1875 40.0296Z" fill="#CFCFCF"/>
<path id="Vector_50" d="M26.2592 40.1016C39.0171 27.3437 56.46 19.343 75.7771 18.8385C76.4258 18.8385 78.0115 18.8385 78.6602 18.8385H160.325H243.071C239.683 47.7419 219.79 71.8882 191.967 75.1317C188.075 78.3752 157.226 80.3213 151.82 80.3213H94.3733C84.6427 80.3213 58.9107 83.2045 51.4146 88.1779C46.8015 89.9078 42.4048 92.1422 38.2963 94.737C22.1507 104.756 9.9695 120.397 4.99609 138.993V122.343C4.99609 118.883 6.22142 84.9344 6.94221 81.7629C10.8344 65.9777 15.3754 50.9134 26.2592 40.1016Z" fill="#CECECE"/>
<path id="Vector_51" d="M26.3315 40.1013C39.0894 27.3434 56.5323 19.3427 75.7772 18.9103C76.3539 18.9103 78.0117 18.9103 78.6604 18.9103H160.253H242.927C239.539 47.6695 219.862 71.5996 192.184 74.9152C188.219 78.2308 157.586 80.1769 152.036 80.1769H94.6618C85.0754 80.1769 59.1271 83.06 51.7031 87.9613C47.0901 89.6912 42.6933 91.9257 38.5848 94.4484C22.3672 104.323 10.1859 119.964 5.06836 138.488V121.91C5.06836 118.378 6.29369 84.7178 7.08656 81.5464C10.9067 65.8333 15.5197 50.9851 26.3315 40.1013Z" fill="#CDCDCD"/>
<path id="Vector_52" d="M26.4039 40.1735C39.0897 27.4877 56.5327 19.4149 75.8497 18.9824C76.4263 18.9824 78.0841 18.9824 78.7328 18.9824H160.253H242.855C241.774 47.6696 219.934 71.3113 192.545 74.699C188.508 78.0867 158.091 80.1049 152.469 80.1049H95.0946C85.6523 80.1049 59.4158 82.9159 52.1359 87.8173C47.5229 89.5471 43.1261 91.7095 38.9456 94.2323C22.6558 104.035 10.4025 119.532 5.21289 138.056V121.55C5.21289 117.946 6.43822 84.6458 7.30316 81.3302C11.0512 65.7613 15.6643 50.9852 26.4039 40.1735Z" fill="#CCCCCC"/>
<path id="Vector_53" d="M26.4758 40.2456C39.1616 27.5598 56.6046 19.5591 75.8495 19.0546C76.4261 19.0546 78.0839 19.0546 78.7326 19.0546H160.181H242.711C239.323 47.3814 219.934 71.0231 192.761 74.4828C188.652 77.9426 158.451 79.9608 152.685 79.9608H95.3107C86.0126 79.9608 59.5598 82.7718 52.2799 87.529C47.6669 89.2589 43.2701 91.3492 39.0895 93.8719C22.7998 103.603 10.4744 119.027 5.14062 137.479V121.118C5.14062 117.442 6.43803 84.4296 7.23089 81.114C11.1952 65.6893 15.8082 50.9853 26.4758 40.2456Z" fill="#CBCBCB"/>
<path id="Vector_54" d="M26.5479 40.3181C39.2337 27.6323 56.6766 19.6316 75.9215 19.1991C76.4982 19.1991 78.156 19.1991 78.8047 19.1991H160.253H242.783C241.702 47.5259 220.222 70.8072 193.265 74.3391C189.085 77.7988 159.1 79.9612 153.262 79.9612H95.8873C86.6612 79.9612 59.9922 82.7001 52.8565 87.4573C48.2435 89.1151 43.7746 91.2775 39.6661 93.7281C23.3043 103.387 10.9069 118.739 5.50098 137.119V120.83C5.50098 117.082 6.79839 84.43 7.66333 80.9702C11.3393 65.5455 15.8803 50.9856 26.5479 40.3181Z" fill="#CACACA"/>
<path id="Vector_55" d="M26.6196 40.3896C39.3054 27.7038 56.6762 19.7031 75.9212 19.2706C76.4978 19.2706 78.1556 19.2706 78.8043 19.2706H160.109H242.566C241.413 47.3812 220.15 70.5183 193.409 74.1223C189.084 77.6541 159.388 79.8165 153.405 79.8165H96.031C86.9492 79.8165 60.0639 82.5554 53.0002 87.2405C48.3872 88.8983 43.9184 90.9886 39.7378 93.4393C23.304 103.026 10.8344 118.306 5.35645 136.614V120.397C5.35645 116.576 6.65386 84.2132 7.5188 80.7535C11.411 65.4729 16.024 50.9851 26.6196 40.3896Z" fill="#C9C9C9"/>
<path id="Vector_56" d="M26.6922 40.4618C39.378 27.776 56.7489 19.7752 75.9217 19.3428C76.4984 19.3428 78.2282 19.3428 78.8049 19.3428H160.109H242.495C239.179 47.0929 220.223 70.3022 193.77 73.9061C189.373 77.51 159.893 79.7445 153.766 79.7445H96.4641C87.5264 79.7445 60.4249 82.4114 53.4333 87.0244C48.7482 88.6822 44.3514 90.7004 40.1709 93.151C23.737 102.665 11.1954 117.874 5.57324 136.182V120.036C5.57324 116.144 6.87065 84.1412 7.80767 80.6094C11.5557 65.4009 16.1688 50.9852 26.6922 40.4618Z" fill="#C8C8C8"/>
<path id="Vector_57" d="M26.7637 40.534C39.4495 27.8482 56.8204 19.9195 75.9932 19.4871C76.5698 19.4871 78.2997 19.4871 78.8043 19.4871H160.037H242.422C241.269 47.1652 220.366 70.0861 194.058 73.7621C189.589 77.4381 160.325 79.6725 154.126 79.6725H96.8239C87.9582 79.6725 60.6405 82.3394 53.7931 86.8803C49.108 88.4661 44.7112 90.5563 40.5307 92.9349C24.0247 102.377 11.411 117.514 5.7168 135.749V119.676C5.7168 115.712 7.08628 84.0693 7.95122 80.3933C11.6993 65.2568 16.3123 50.9853 26.7637 40.534Z" fill="#C7C7C7"/>
<path id="Vector_58" d="M26.7637 40.6061C39.4495 27.9203 56.7483 19.9917 75.9211 19.5592C76.4977 19.5592 78.2276 19.5592 78.7322 19.5592H159.892H242.278C241.053 47.0931 220.366 69.7978 194.346 73.5459C189.805 77.294 160.757 79.5284 154.414 79.5284H97.1122C88.3907 79.5284 60.8567 82.1232 54.0814 86.5921C49.3963 88.1778 44.9995 90.196 40.7469 92.5746C24.2409 101.873 11.5551 117.009 5.7168 135.173V119.172C5.7168 115.135 7.08628 83.781 8.0233 80.105C11.7714 65.1848 16.3844 50.9854 26.7637 40.6061Z" fill="#C6C6C6"/>
<path id="Vector_59" d="M26.836 40.678C39.4497 28.0643 56.8206 20.0636 75.9934 19.6311C76.57 19.6311 78.2999 19.6311 78.8045 19.6311H159.893H242.134C238.818 46.8046 220.366 69.5093 194.562 73.3295C189.949 77.1496 161.118 79.4562 154.703 79.4562H97.4007C88.8233 79.4562 61.0011 82.051 54.3699 86.4477C49.6848 88.0335 45.288 90.0517 41.0354 92.3582C24.4574 101.584 11.6995 116.576 5.78906 134.74V118.811C5.78906 114.702 7.15856 83.7088 8.09558 79.9607C11.9157 65.1125 16.5287 50.9852 26.836 40.678Z" fill="#C5C5C5"/>
<path id="Vector_60" d="M26.9082 40.6778C39.5219 28.0641 56.8207 20.1355 75.9936 19.703C76.4981 19.703 78.3001 19.703 78.8046 19.703H159.821H242.062C238.747 46.6603 220.511 69.2208 194.851 73.1131C190.166 77.0053 161.551 79.3118 154.991 79.3118H97.6892C89.1839 79.3118 61.2175 81.8346 54.6584 86.2314C49.9733 87.745 45.5044 89.7632 41.3239 92.0697C24.6738 101.224 11.8438 116.144 5.86133 134.236V118.378C5.86133 114.198 7.23082 83.4924 8.23992 79.6722C12.0601 64.9682 16.6731 50.985 26.9082 40.6778Z" fill="#C4C4C4"/>
<path id="Vector_61" d="M26.9805 40.7502C39.5942 28.1365 56.893 20.2079 76.0658 19.7754C76.5704 19.7754 78.3724 19.7754 78.8769 19.7754H159.821H241.99C240.693 46.6606 220.583 68.9328 195.211 72.8972C190.454 76.8615 162.055 79.24 155.424 79.24H98.1218C89.7607 79.24 61.506 81.7628 55.019 86.0154C50.3339 87.5291 45.865 89.4752 41.6124 91.7817C24.9623 100.864 12.0603 115.712 5.93359 133.731V117.946C5.93359 113.694 7.37516 83.3485 8.38425 79.4563C12.1323 64.8965 16.8174 50.9853 26.9805 40.7502Z" fill="#C3C3C3"/>
<path id="Vector_62" d="M27.0518 40.8223C39.6655 28.2086 56.9643 20.28 76.0651 19.8475C76.5696 19.8475 78.3716 19.8475 78.8761 19.8475H159.748H241.845C238.53 46.3724 220.582 68.6446 195.427 72.681C190.598 76.7174 162.415 79.096 155.64 79.096H98.4094C90.1924 79.096 61.7215 81.5466 55.3065 85.7992C50.6214 87.3129 46.1525 89.259 41.8999 91.4934C25.1777 100.503 12.2036 115.279 6.00488 133.227V117.514C6.00488 113.189 7.44646 83.1323 8.45555 79.2401C12.2757 64.8244 16.8887 50.9854 27.0518 40.8223Z" fill="#C2C2C2"/>
<path id="Vector_63" d="M27.1244 40.8942C39.7381 28.2805 56.9649 20.3518 76.1377 19.9915C76.6423 19.9915 78.4442 19.9915 78.9488 19.9915H159.749H241.846C240.548 46.5163 220.799 68.4281 195.86 72.5366C190.959 76.6451 162.992 79.0957 156.145 79.0957H98.8424C90.7696 79.0957 62.0103 81.5464 55.7395 85.6548C51.0544 87.0964 46.5856 89.0425 42.3329 91.349C25.5387 100.287 12.4925 114.991 6.22168 132.866V117.225C6.22168 112.828 7.66325 83.1321 8.74442 79.0957C12.4204 64.68 17.0334 50.9852 27.1244 40.8942Z" fill="#C1C1C1"/>
<path id="Vector_64" d="M27.1965 40.9663C39.8102 28.3526 57.0369 20.4961 76.1377 20.0636C76.6423 20.0636 78.4442 20.0636 78.9488 20.0636H159.677H241.702C240.404 46.3722 220.799 68.1399 196.076 72.3204C191.103 76.501 163.353 78.9516 156.361 78.9516H99.1307C91.13 78.9516 62.2266 81.3302 56.0278 85.4387C51.3427 86.8803 46.8739 88.8264 42.5492 91.0608C25.7549 99.9264 12.6367 114.558 6.22168 132.362V116.793C6.22168 112.324 7.73533 82.9159 8.74442 78.8796C12.5646 64.608 17.1776 50.9852 27.1965 40.9663Z" fill="#C0C0C0"/>
<path id="Vector_65" d="M27.2689 41.0385C39.8106 28.4969 57.1094 20.5683 76.1381 20.2079C76.6426 20.2079 78.4446 20.2079 78.9491 20.2079H159.605H241.558C238.314 46.1561 220.799 67.9958 196.365 72.1764C191.247 76.3569 163.785 78.9518 156.722 78.9518H99.4915C91.6349 78.9518 62.5153 81.3303 56.3886 85.3667C51.7035 86.8083 47.1626 88.6823 42.9099 90.9168C26.0436 99.7103 12.8533 114.27 6.36621 132.001V116.505C6.36621 111.964 7.87986 82.9161 8.96104 78.8076C12.637 64.5361 17.3221 50.9853 27.2689 41.0385Z" fill="#BFBFBF"/>
<path id="Vector_66" d="M27.3404 41.1108C39.8821 28.5692 57.1088 20.6405 76.2096 20.2802C76.7141 20.2802 78.5161 20.2802 79.0206 20.2802H159.604H241.485C238.242 46.0121 220.943 67.7077 196.653 71.9603C191.463 76.213 164.217 78.8078 157.009 78.8078H99.8513C92.1389 78.8078 62.7309 81.1143 56.7484 85.0786C52.0633 86.5202 47.5224 88.3221 43.2697 90.5566C26.3313 99.206 13.141 113.694 6.50977 131.425V116C6.50977 111.387 8.02342 82.6279 9.10459 78.4474C12.7806 64.3921 17.4657 50.9855 27.3404 41.1108Z" fill="#BEBEBE"/>
<path id="Vector_67" d="M27.3404 41.1826C39.8821 28.6409 57.1088 20.7123 76.1375 20.3519C76.642 20.3519 78.444 20.3519 78.9485 20.3519H159.46H241.341C239.972 46.0839 220.943 67.4191 196.869 71.7438C191.607 76.0685 164.578 78.7354 157.298 78.7354H100.14C92.4993 78.7354 62.9471 81.0419 57.0367 84.9341C52.3516 86.3036 47.8107 88.1777 43.486 90.34C26.5476 98.9173 13.2131 113.333 6.50977 131.064V115.712C6.50977 111.027 8.02342 82.6276 9.17667 78.375C12.9247 64.3197 17.5378 50.9852 27.3404 41.1826Z" fill="#BDBDBD"/>
<path id="Vector_68" d="M27.4129 41.2547C39.9545 28.713 57.1812 20.8565 76.2099 20.4961C76.7145 20.4961 78.5164 20.4961 79.021 20.4961H159.46H241.269C238.026 45.8677 221.015 67.2029 197.23 71.5997C191.896 75.9964 165.083 78.6633 157.658 78.6633H100.5C93.0042 78.6633 63.1637 80.8978 57.3975 84.79C52.6403 86.1595 48.1714 87.9615 43.8467 90.1238C26.8362 98.6291 13.4297 112.973 6.6543 130.632V115.351C6.6543 110.594 8.16794 82.4835 9.32119 78.2309C12.9972 64.2477 17.6823 50.9853 27.4129 41.2547Z" fill="#BCBCBC"/>
<path id="Vector_69" d="M27.4849 41.2547C40.0266 28.713 57.1812 20.8565 76.2099 20.4961C76.6424 20.4961 78.5164 20.4961 79.021 20.4961H159.388H241.125C237.882 45.6514 221.087 66.8425 197.446 71.3113C192.04 75.7802 165.443 78.5192 157.947 78.5192H100.789C93.4367 78.5192 63.38 80.7536 57.6137 84.5017C52.8565 85.8712 48.3877 87.6011 44.063 89.7634C26.9804 98.1966 13.5738 112.468 6.6543 130.055V114.847C6.6543 110.017 8.24001 82.2673 9.39327 77.8705C13.1413 64.1035 17.8264 50.9853 27.4849 41.2547Z" fill="#BBBBBB"/>
<path id="Vector_70" d="M27.5566 41.3268C40.0983 28.7852 57.2529 20.9286 76.2816 20.5682C76.7141 20.5682 78.6602 20.5682 79.0927 20.5682H159.388H241.125C239.683 45.7236 221.231 66.5542 197.878 71.0952C192.4 75.6361 166.091 78.3751 158.379 78.3751H101.221C93.9408 78.3751 63.6679 80.5374 58.0458 84.2855C53.2886 85.5829 48.7477 87.3849 44.495 89.4752C27.4125 97.8363 13.8617 112.036 6.87012 129.551V114.414C6.87012 109.513 8.45585 82.0511 9.68118 77.6543C13.2851 64.0315 17.9702 50.9853 27.5566 41.3268Z" fill="#BABABA"/>
<path id="Vector_71" d="M27.6289 41.3988C40.1705 28.8571 57.3252 21.0727 76.2818 20.7123C76.7142 20.7123 78.6604 20.7123 79.0928 20.7123H159.316H240.981C237.809 45.5072 221.231 66.3379 198.094 70.9509C192.544 75.5639 166.452 78.3029 158.667 78.3029H101.581C94.4455 78.3029 63.9564 80.4652 58.4063 84.0692C53.6492 85.3666 49.1082 87.0965 44.7835 89.1867C27.6289 97.4757 14.0061 111.603 6.94238 129.046V113.982C6.94238 109.008 8.5281 81.9068 9.75343 77.4379C13.4294 63.9593 18.0424 50.9852 27.6289 41.3988Z" fill="#B9B9B9"/>
<path id="Vector_72" d="M27.7011 41.4709C40.1707 29.0014 57.3253 21.1448 76.282 20.7844C76.7144 20.7844 78.6606 20.7844 79.093 20.7844H159.244H240.837C237.665 45.3631 221.304 66.0497 198.383 70.7347C192.761 75.4198 166.884 78.2309 158.956 78.2309H101.87C94.8782 78.2309 64.1007 80.3212 58.6948 83.9251C53.9377 85.2225 49.3967 86.9524 45.072 88.9706C27.8453 97.1875 14.2225 111.243 7.01465 128.614V113.693C7.01465 108.72 8.60037 81.8348 9.89778 77.2939C13.5017 63.8152 18.1868 50.9853 27.7011 41.4709Z" fill="#B8B8B8"/>
<path id="Vector_73" d="M27.7728 41.5428C40.2424 29.0733 57.397 21.2167 76.3536 20.8563C76.7861 20.8563 78.7322 20.8563 79.1647 20.8563H159.244H240.836C239.323 45.363 221.447 65.7611 198.743 70.5183C193.049 75.2755 167.389 78.0865 159.388 78.0865H102.302C95.4544 78.0865 64.4607 80.1768 59.1269 83.7087C54.3697 84.934 49.8288 86.6639 45.5041 88.6821C28.2774 96.7549 14.5104 110.738 7.23047 128.109V113.261C7.23047 108.215 8.88827 81.6905 10.1136 77.0775C13.6454 63.743 18.3305 50.9851 27.7728 41.5428Z" fill="#B7B7B7"/>
<path id="Vector_74" d="M27.8455 41.6153C40.315 29.1457 57.4697 21.2892 76.3542 21.0009C76.7867 21.0009 78.7328 21.0009 79.1653 21.0009H159.172H240.693C237.521 45.1471 221.448 65.6174 198.96 70.3745C193.193 75.2038 167.75 78.0869 159.605 78.0869H102.519C95.7433 78.0869 64.5334 80.1051 59.3437 83.5649C54.5866 84.7902 50.0456 86.448 45.6488 88.4662C28.35 96.4669 14.5831 110.378 7.08691 127.677V112.901C7.08691 107.783 8.74472 81.5467 10.0421 76.9337C13.7902 63.6713 18.4753 50.9855 27.8455 41.6153Z" fill="#B6B6B6"/>
<path id="Vector_75" d="M27.9172 41.687C40.3867 29.2175 57.4693 21.433 76.4259 21.0726C76.8584 21.0726 78.8045 21.0726 79.237 21.0726H159.172H240.62C237.449 45.0747 221.592 65.3287 199.32 70.158C193.409 75.0593 168.254 77.9425 160.037 77.9425H102.951C96.3195 77.9425 64.8934 79.9607 59.7758 83.3483C55.0186 84.5737 50.4056 86.2315 46.0809 88.1776C28.7821 96.1062 14.871 109.945 7.30273 127.172V112.468C7.30273 107.278 8.96054 81.4022 10.258 76.645C13.8619 63.5268 18.547 50.9851 27.9172 41.687Z" fill="#B5B5B5"/>
<path id="Vector_76" d="M27.9173 41.7593C40.3869 29.2897 57.4695 21.5052 76.354 21.2169C76.7865 21.2169 78.7326 21.2169 79.1651 21.2169H159.028H240.476C237.305 45.0028 221.592 65.1127 199.536 70.014C193.553 74.9874 168.614 77.9426 160.253 77.9426H103.239C96.7522 77.9426 65.1098 79.8887 60.0643 83.2043C55.3071 84.3576 50.6941 86.0154 46.3694 88.0336C28.9985 95.8901 15.0153 109.657 7.375 126.812V112.18C7.375 106.918 9.0328 81.4024 10.4023 76.5731C14.0062 63.4549 18.6913 50.9853 27.9173 41.7593Z" fill="#B4B4B4"/>
<path id="Vector_77" d="M27.9896 41.8313C40.4592 29.3617 57.5417 21.5773 76.4263 21.2889C76.8587 21.2889 78.8049 21.2889 79.2373 21.2889H159.028H240.405C237.233 44.8586 221.664 64.8243 199.897 69.7977C193.842 74.7711 169.119 77.7984 160.686 77.7984H103.672C97.2569 77.7984 65.3983 79.7445 60.4249 82.988C55.6677 84.1413 51.0547 85.7991 46.6579 87.7452C29.2149 95.5297 15.2317 109.225 7.44727 126.379V111.747C7.44727 106.413 9.17714 81.1861 10.4746 76.3568C14.1506 63.3827 18.8356 50.9852 27.9896 41.8313Z" fill="#B3B3B3"/>
<path id="Vector_78" d="M28.0617 41.8313C40.4592 29.4338 57.5417 21.5773 76.4263 21.2889C76.7867 21.2889 78.8049 21.2889 79.2373 21.2889H158.956H240.26C237.089 44.7144 221.736 64.4639 200.113 69.5094C193.986 74.5549 169.479 77.6542 160.902 77.6542H103.888C97.6173 77.6542 65.5424 79.5283 60.6411 82.7718C55.8839 83.925 51.2709 85.5108 46.8741 87.4569C29.4312 95.1693 15.3038 108.792 7.44727 125.875V111.387C7.44727 105.981 9.17715 81.114 10.5466 76.1406C14.2226 63.2386 18.9798 50.9852 28.0617 41.8313Z" fill="#B2B2B2"/>
<path id="Vector_79" d="M28.1335 41.9032C40.531 29.5058 57.6136 21.7213 76.4981 21.433C76.8585 21.433 78.8767 21.433 79.3092 21.433H158.956H240.26C238.602 44.7864 221.88 64.2475 200.545 69.3651C194.346 74.4827 170.056 77.582 161.406 77.582H104.392C98.2658 77.582 65.9026 79.4561 61.1454 82.5554C56.3882 83.7087 51.7752 85.2223 47.3785 87.1684C29.8634 94.7367 15.7361 108.359 7.73535 125.37V110.954C7.73535 105.476 9.46523 80.8976 10.9068 75.9242C14.3666 63.1663 19.0516 50.9851 28.1335 41.9032Z" fill="#B1B1B1"/>
<path id="Vector_80" d="M28.2054 41.9754C40.6029 29.5779 57.6855 21.7934 76.4979 21.5051C76.8583 21.5051 78.8765 21.5051 79.309 21.5051H158.883H240.116C237.016 44.4981 221.88 63.9593 200.761 69.1489C194.49 74.3386 170.416 77.51 161.622 77.51H104.608C98.626 77.51 66.0466 79.312 61.3615 82.4114C56.5322 83.4925 51.9192 85.0783 47.5224 86.9523C29.9353 94.4484 15.7359 107.927 7.66309 124.938V110.594C7.66309 105.044 9.39296 80.8256 10.8345 75.7802C14.5105 63.0944 19.1956 50.9852 28.2054 41.9754Z" fill="#B0B0B0"/>
<path id="Vector_81" d="M28.2771 42.0475C40.6746 29.65 57.6851 21.8656 76.4975 21.5773C76.8579 21.5773 78.8761 21.5773 79.3086 21.5773H158.811H239.971C236.872 44.354 221.952 63.6711 201.049 69.0049C194.706 74.2666 170.848 77.438 161.982 77.438H105.041C99.1301 77.438 66.3345 79.1679 61.7935 82.2673C56.9643 83.3484 52.3513 84.8621 47.9545 86.7361C30.3674 94.1602 16.0238 107.567 7.87891 124.505V110.234C7.87891 104.612 9.60879 80.6815 11.1224 75.564C14.6543 62.9503 19.3394 50.9852 28.2771 42.0475Z" fill="#AFAFAF"/>
<path id="Vector_82" d="M28.3494 42.1197C40.7468 29.7222 57.7573 22.0099 76.5698 21.7216C76.9302 21.7216 78.9484 21.7216 79.3808 21.7216H158.811H239.899C238.169 44.4983 222.024 63.527 201.337 68.8608C194.922 74.1946 171.281 77.4381 162.271 77.4381H105.329C99.5628 77.4381 66.5509 79.168 62.082 82.1232C57.2528 83.2044 52.6398 84.646 48.243 86.52C30.5838 93.872 16.2402 107.207 7.95117 124.073V109.873C7.95117 104.179 9.68105 80.6096 11.1947 75.4199C14.7265 62.8783 19.4837 50.9854 28.3494 42.1197Z" fill="#AEAEAE"/>
<path id="Vector_83" d="M28.4216 42.1916C40.8191 29.7941 57.8296 22.0818 76.57 21.7935C76.9304 21.7935 78.9486 21.7935 79.381 21.7935H158.739H239.827C236.728 44.2098 222.096 63.2385 201.626 68.6444C195.139 74.0503 171.713 77.2938 162.632 77.2938H105.69C100.068 77.2938 66.7673 78.9516 62.4426 81.9068C57.6134 82.9159 53.0003 84.4296 48.5315 86.2315C30.8002 93.5114 16.3845 106.774 8.02344 123.568V109.441C8.02344 103.674 9.8254 80.3932 11.339 75.1315C14.8709 62.806 19.556 50.9852 28.4216 42.1916Z" fill="#ADADAD"/>
<path id="Vector_84" d="M28.4939 42.2638C40.8914 29.8663 57.8298 22.1539 76.6422 21.8656C77.0026 21.8656 79.0929 21.8656 79.3812 21.8656H158.667H239.684C236.584 44.0657 222.168 62.9503 201.914 68.4282C195.355 73.9062 172.146 77.1497 162.92 77.1497H105.978C100.428 77.1497 66.9837 78.8075 62.7311 81.6186C57.9018 82.6277 53.2888 84.0692 48.82 85.8712C31.0887 93.079 16.5289 106.269 8.0957 122.992V108.936C8.0957 103.098 9.89766 80.177 11.4113 74.8432C15.0152 62.662 19.7003 50.9853 28.4939 42.2638Z" fill="#ACACAC"/>
<path id="Vector_85" d="M28.4935 42.3358C40.8189 30.0104 57.8294 22.2259 76.5698 22.0096C76.9302 22.0096 79.0204 22.0096 79.3088 22.0096H158.523H239.467C236.368 43.9935 222.096 62.7339 202.058 68.284C195.355 73.834 172.434 77.1496 163.064 77.1496H106.122C100.716 77.1496 67.0554 78.7353 62.8028 81.5464C57.9736 82.5555 53.2885 83.997 48.8917 85.7269C31.0883 92.8627 16.5285 105.981 7.95117 122.631V108.648C7.95117 102.737 9.75314 80.1048 11.3389 74.771C15.0869 62.5898 19.8441 50.9852 28.4935 42.3358Z" fill="#ABABAB"/>
<path id="Vector_86" d="M28.5662 42.408C40.8916 30.0826 57.902 22.3702 76.6424 22.0819C77.0028 22.0819 79.0931 22.0819 79.3814 22.0819H158.523H239.467C236.368 43.9217 222.241 62.4458 202.491 68.0679C195.716 73.69 173.011 77.0056 163.569 77.0056H106.627C101.365 77.0056 67.4164 78.5913 63.3079 81.3303C58.4787 82.2673 53.7936 83.7089 49.3247 85.4388C31.4493 92.4304 16.8174 105.549 8.16797 122.127V108.216C8.16797 102.233 9.96993 79.9608 11.6277 74.4829C15.2317 62.5179 19.9888 50.9853 28.5662 42.408Z" fill="#AAAAAA"/>
<path id="Vector_87" d="M28.6386 42.408C40.964 30.0826 57.9024 22.3702 76.6428 22.0819C77.0032 22.0819 79.0935 22.0819 79.3818 22.0819H158.452H239.396C236.368 43.7054 222.385 62.0854 202.78 67.7796C195.933 73.4738 173.444 76.8615 163.858 76.8615H106.988C101.798 76.8615 67.7051 78.3751 63.6687 81.042C58.8394 81.979 54.1544 83.3485 49.6855 85.0784C31.8101 91.9979 17.1061 104.972 8.3125 121.622V107.783C8.3125 101.729 10.1145 79.7446 11.7723 74.2666C15.3762 62.3737 20.0613 50.9853 28.6386 42.408Z" fill="#A9A9A9"/>
<path id="Vector_88" d="M28.7099 42.48C41.0353 30.1546 57.9737 22.4422 76.642 22.226C76.9303 22.226 79.0927 22.226 79.381 22.226H158.379H239.179C237.377 43.7774 222.312 61.8691 202.995 67.6353C196.076 73.4016 173.804 76.7893 164.145 76.7893H107.275C102.23 76.7893 67.8484 78.3029 63.9562 80.8978C59.127 81.8348 54.4419 83.2043 49.973 84.8621C32.0255 91.7095 17.2494 104.612 8.38379 121.19V107.423C8.38379 101.296 10.2578 79.6724 11.9156 74.1224C15.5195 62.3015 20.2046 50.9852 28.7099 42.48Z" fill="#A8A8A8"/>
<path id="Vector_89" d="M28.7822 42.5522C41.1076 30.2268 58.046 22.5865 76.7143 22.2982C77.0026 22.2982 79.1649 22.2982 79.4532 22.2982H158.379H239.179C236.152 43.5613 222.457 61.5809 203.356 67.4193C196.364 73.1856 174.308 76.7174 164.506 76.7174H107.636C102.735 76.7174 68.1369 78.159 64.3168 80.6817C59.4875 81.5466 54.8024 82.9161 50.2615 84.646C32.2419 91.4214 17.3938 104.251 8.45605 120.757V107.062C8.45605 100.864 10.3301 79.5285 11.9879 73.9063C15.5918 62.1576 20.349 50.9854 28.7822 42.5522Z" fill="#A7A7A7"/>
<path id="Vector_90" d="M28.8544 42.6243C41.1798 30.2989 58.0462 22.6586 76.7145 22.4424C77.0028 22.4424 79.1651 22.4424 79.4534 22.4424H158.307H239.035C236.008 43.4893 222.529 61.3647 203.572 67.2751C196.509 73.1135 174.669 76.6453 164.794 76.6453H107.924C103.167 76.6453 68.2813 78.0869 64.6053 80.5376C59.776 81.4025 55.0189 82.6999 50.55 84.4298C32.5304 91.1331 17.6102 103.891 8.52832 120.325V106.702C8.52832 100.431 10.4024 79.4564 12.1322 73.7622C15.7362 62.0855 20.4933 50.9854 28.8544 42.6243Z" fill="#A6A6A6"/>
<path id="Vector_91" d="M28.9269 42.696C41.1802 30.4427 58.1186 22.7303 76.7869 22.514C77.0752 22.514 79.2376 22.514 79.5259 22.514H158.308H238.963C235.936 43.3447 222.601 61.148 203.933 67.0585C196.797 72.9689 175.174 76.5728 165.155 76.5728H108.285C103.6 76.5728 68.57 77.9423 64.9661 80.393C60.0647 81.2579 55.3796 82.5553 50.9108 84.2131C32.8191 90.8443 17.8268 103.53 8.67285 119.892V106.341C8.67285 99.9983 10.5469 79.3118 12.2768 73.6176C15.8807 62.013 20.5658 50.985 28.9269 42.696Z" fill="#A5A5A5"/>
<path id="Vector_92" d="M28.9984 42.7682C41.2517 30.5149 58.118 22.8025 76.7863 22.5863C77.0746 22.5863 79.237 22.5863 79.5253 22.5863H158.235H238.891C235.863 43.2007 222.673 60.8599 204.221 66.8424C197.013 72.8249 175.606 76.4289 165.515 76.4289H108.717C104.176 76.4289 68.8577 77.7983 65.3979 80.1049C60.4966 80.8977 55.8115 82.1951 51.2706 83.8529C33.1068 90.34 18.0424 103.026 8.81641 119.315V105.909C8.81641 99.4939 10.6904 79.1678 12.4924 73.3295C16.0242 61.869 20.7093 50.9852 28.9984 42.7682Z" fill="#A4A4A4"/>
<path id="Vector_93" d="M29.0706 42.8405C41.3239 30.5871 58.1903 22.9468 76.8586 22.7306C77.1469 22.7306 79.3092 22.7306 79.5976 22.7306H158.235H238.819C235.791 43.2008 222.817 60.6438 204.581 66.6984C197.302 72.753 176.11 76.429 165.875 76.429H109.078C104.681 76.429 69.1462 77.7264 65.6864 80.0329C60.7851 80.8258 56.1 82.1232 51.5591 83.7089C33.3953 90.1239 18.2589 102.666 8.88867 118.955V105.621C8.88867 99.1337 10.7627 79.0959 12.5647 73.2575C16.0965 61.7971 20.8537 50.9853 29.0706 42.8405Z" fill="#A3A3A3"/>
<path id="Vector_94" d="M29.0698 42.9125C41.3231 30.6592 58.1895 23.0188 76.7857 22.8026C77.074 22.8026 79.2364 22.8026 79.5247 22.8026H158.09H238.674C235.646 43.0566 222.816 60.3554 204.797 66.4821C197.373 72.6088 176.47 76.2848 166.163 76.2848H109.365C105.04 76.2848 69.3616 77.5822 65.9739 79.8166C61.0726 80.6095 56.3875 81.8348 51.8466 83.4205C33.6108 89.7634 18.4022 102.233 8.95996 118.451V105.188C8.95996 98.6291 10.834 78.9516 12.708 73.0412C16.2399 61.7249 20.997 50.9853 29.0698 42.9125Z" fill="#A2A2A2"/>
<path id="Vector_95" d="M29.1427 42.9845C41.396 30.7312 58.1903 23.0909 76.7865 22.8746C77.0748 22.8746 79.2372 22.8746 79.5255 22.8746H158.019H238.458C235.503 42.9124 222.745 60.0671 205.014 66.2658C197.518 72.4645 176.831 76.2126 166.38 76.2126H109.582C105.402 76.2126 69.4345 77.4379 66.191 79.6003C61.2896 80.3932 56.6046 81.5464 51.9915 83.1321C33.6836 89.403 18.4751 101.8 8.88867 117.946V104.756C8.88867 98.1244 10.7627 78.7354 12.7088 72.7529C16.3848 61.5807 21.0699 50.9852 29.1427 42.9845Z" fill="#A1A1A1"/>
<path id="Vector_96" d="M29.2145 42.9845C41.4679 30.7311 58.2621 23.0908 76.8583 22.9467C77.1467 22.9467 79.309 22.9467 79.5973 22.9467H158.091H238.53C235.575 42.7682 221.664 56.8235 205.446 66.0495C196.941 70.8788 177.408 76.0684 166.884 76.0684H110.086C106.05 76.0684 69.8667 77.2938 66.6953 79.384C61.794 80.1048 57.0368 81.3301 52.4959 82.8438C34.1879 89.0425 18.8353 101.368 9.17676 117.441V104.323C9.17676 97.6199 11.1229 78.5191 12.9969 72.5366C16.4567 61.5086 21.2138 50.9852 29.2145 42.9845Z" fill="#A0A0A0"/>
<path id="Vector_97" d="M29.2868 43.0567C41.5401 30.8034 58.3344 23.2352 76.8585 23.0189C77.0748 23.0189 79.3092 23.0189 79.5975 23.0189H158.019H238.386C235.431 42.6963 221.736 56.6795 205.663 65.8335C197.085 70.7348 177.768 75.9965 167.101 75.9965H110.375C106.411 75.9965 70.0111 77.1498 66.9838 79.168C62.0825 79.8888 57.3253 81.042 52.7844 82.5557C34.4044 88.6823 18.9796 100.936 9.24902 116.937V103.891C9.24902 97.1155 11.1951 78.3751 13.1413 72.3205C16.601 61.4367 21.3582 50.9853 29.2868 43.0567Z" fill="#9F9F9F"/>
<path id="Vector_98" d="M29.3581 43.129C41.5393 30.9477 58.3336 23.3074 76.9298 23.0912C77.1461 23.0912 79.4526 23.0912 79.6688 23.0912H157.946H238.241C235.286 42.5523 221.735 56.4635 205.95 65.6174C197.301 70.6629 178.2 75.8526 167.46 75.8526H110.735C106.914 75.8526 70.2986 77.0058 67.3434 78.9519C62.4421 79.6727 57.6849 80.7539 53.0719 82.2675C34.6919 88.3221 19.195 100.503 9.32031 116.505V103.531C9.32031 96.6832 11.2664 78.2311 13.2125 72.1045C16.7444 61.2927 21.5016 50.9855 29.3581 43.129Z" fill="#9E9E9E"/>
<path id="Vector_99" d="M29.4305 43.2007C41.6118 31.0194 58.4061 23.3791 76.9302 23.235C77.1464 23.235 79.4529 23.235 79.6692 23.235H157.946H238.242C235.286 42.4799 221.952 56.391 206.311 65.4729C197.589 70.5905 178.705 75.7801 167.821 75.7801H111.095C107.419 75.7801 70.5152 76.8613 67.7042 78.8074C62.8028 79.4561 58.0457 80.6094 53.4327 82.0509C34.9806 87.9613 19.4117 100.143 9.46484 116.072V103.17C9.46484 96.2504 11.411 78.1587 13.4292 71.9599C16.8889 61.2203 21.6461 50.9851 29.4305 43.2007Z" fill="#9D9D9D"/>
<path id="Vector_100" d="M29.5022 43.2727C41.6835 31.0915 58.4777 23.5232 77.0019 23.307C77.2181 23.307 79.5246 23.307 79.7408 23.307H157.946H238.169C235.214 42.4078 222.096 56.1748 206.671 65.2566C197.877 70.4463 179.209 75.708 168.253 75.708H111.527C107.996 75.708 70.8752 76.7892 68.1362 78.5911C63.2349 79.2398 58.4777 80.321 53.8647 81.7626C35.3406 87.6009 19.7716 99.638 9.68066 115.567V102.737C9.68066 95.7458 11.6268 77.9424 13.645 71.7437C16.9606 61.0761 21.7178 51.0572 29.5022 43.2727Z" fill="#9C9C9C"/>
<path id="Vector_101" d="M29.5749 43.345C41.7561 31.1637 58.4783 23.5955 77.0025 23.3793C77.2187 23.3793 79.5252 23.3793 79.7414 23.3793H157.874H238.026C235.07 42.2638 222.096 55.9587 206.888 65.0406C198.022 70.3023 179.57 75.564 168.47 75.564H111.744C108.284 75.564 70.9479 76.5731 68.281 78.3751C63.3797 79.0238 58.5504 80.1049 53.9374 81.4744C35.4132 87.2407 19.7002 99.2057 9.53711 115.063V102.377C9.53711 95.3135 11.4832 77.8705 13.5735 71.5276C17.1053 61.0042 21.8625 51.0574 29.5749 43.345Z" fill="#9B9B9B"/>
<path id="Vector_102" d="M29.6469 43.4174C41.8282 31.2362 58.5504 23.668 77.0745 23.5238C77.2907 23.5238 79.5972 23.5238 79.8135 23.5238H157.874H238.026C235.07 42.1921 222.312 55.887 207.32 64.8968C198.382 70.2306 180.147 75.5644 168.974 75.5644H112.321C109.005 75.5644 71.4524 76.5735 68.8576 78.2313C63.9562 78.8079 59.127 79.8891 54.514 81.2586C35.9177 86.9528 20.1326 98.8457 9.89746 114.631V101.945C9.89746 94.8093 11.8436 77.6547 13.9338 71.3118C17.2494 60.9325 22.0066 51.0577 29.6469 43.4174Z" fill="#9A9A9A"/>
<path id="Vector_103" d="M29.6467 43.4889C41.828 31.3077 58.5502 23.7395 77.0022 23.5953C77.2185 23.5953 79.525 23.5953 79.7412 23.5953H157.73H237.809C234.926 42.0474 222.312 55.6702 207.464 64.68C198.454 70.158 180.435 75.4197 169.118 75.4197H112.465C109.293 75.4197 71.5243 76.3567 69.0015 78.0145C64.0281 78.5911 59.271 79.6002 54.6579 81.0418C35.9896 86.6639 20.2045 98.4847 9.8252 114.198V101.584C9.8252 94.3763 11.7713 77.582 13.9337 71.1671C17.3213 60.7878 22.1506 51.0572 29.6467 43.4889Z" fill="#999999"/>
<path id="Vector_104" d="M29.719 43.5612C41.8282 31.452 58.5504 23.8838 77.0024 23.7396C77.2187 23.7396 79.5252 23.7396 79.7414 23.7396H157.658H237.665C234.782 42.0475 222.384 55.5983 207.753 64.536C198.671 70.086 180.867 75.4198 169.479 75.4198H112.825C109.726 75.4198 71.7407 76.3568 69.3621 77.9426C64.3887 78.5192 59.6315 79.5283 54.9464 80.8978C36.2781 86.4478 20.3488 98.1966 9.89746 113.838V101.296C9.89746 94.016 11.8436 77.5101 14.078 71.023C17.4657 60.7158 22.2229 51.0573 29.719 43.5612Z" fill="#989898"/>
<path id="Vector_105" d="M29.7913 43.5612C41.9004 31.452 58.6226 23.8838 77.0747 23.7396C77.2909 23.7396 79.5974 23.7396 79.8137 23.7396H157.658H237.665C234.782 41.8313 222.529 55.31 208.113 64.2477C198.959 69.8698 181.372 75.2036 169.84 75.2036H113.186C110.231 75.2036 72.0292 76.0685 69.7227 77.5822C64.7493 78.0867 59.9921 79.0958 55.307 80.4653C36.5667 85.8712 20.5652 97.62 9.96973 113.189V100.719C9.96973 93.3673 11.9158 77.2218 14.1503 70.6626C17.61 60.5717 22.3672 51.0573 29.7913 43.5612Z" fill="#979797"/>
<path id="Vector_106" d="M29.8626 43.6334C41.9717 31.5243 58.6939 23.956 77.0739 23.8119C77.2181 23.8119 79.5966 23.8119 79.8129 23.8119H157.585H237.52C234.637 41.6873 222.6 55.166 208.329 64.0316C199.103 69.7979 181.732 75.1317 170.127 75.1317H113.473C110.662 75.1317 72.1726 75.9966 70.0102 77.4382C65.0368 77.9427 60.2076 78.8798 55.5945 80.2492C36.7821 85.583 20.7807 97.2597 10.041 112.757V100.359C10.041 92.9351 11.9871 77.0778 14.2936 70.5187C17.7534 60.4998 22.5106 51.0575 29.8626 43.6334Z" fill="#969696"/>
<path id="Vector_107" d="M29.9352 43.7054C42.0444 31.5962 58.6945 24.028 77.1465 23.9559C77.2907 23.9559 79.6693 23.9559 79.8855 23.9559H157.586H237.449C234.566 41.6872 222.745 55.0217 208.69 63.8873C199.464 69.7257 182.237 75.0595 170.488 75.0595H113.907C111.24 75.0595 72.5335 75.8524 70.4433 77.2218C65.4698 77.7264 60.6406 78.6634 56.0276 79.9608C37.2151 85.2225 21.0696 96.7551 10.2578 112.252V99.9265C10.2578 92.4304 12.2039 76.9335 14.5104 70.2302C17.826 60.4276 22.6553 51.0574 29.9352 43.7054Z" fill="#959595"/>
<path id="Vector_108" d="M30.0075 43.7774C42.1166 31.6683 58.7667 24.1721 77.1467 24.028C77.2909 24.028 79.6695 24.028 79.8857 24.028H157.514H237.377C234.494 41.543 222.889 54.8775 208.978 63.6711C199.68 69.5815 182.669 74.9874 170.849 74.9874H114.267C111.672 74.9874 72.75 75.7802 70.8038 77.0776C65.8304 77.5822 61.0012 78.4471 56.3161 79.7445C37.4315 84.9342 21.286 96.3947 10.3301 111.892V99.6382C10.3301 92.07 12.2762 76.8614 14.6548 70.1581C17.9704 60.2834 22.7276 51.0574 30.0075 43.7774Z" fill="#949494"/>
<path id="Vector_109" d="M30.0796 43.8496C42.1887 31.7404 58.8388 24.2443 77.2188 24.1001C77.363 24.1001 79.7416 24.1001 79.9578 24.1001H157.514H237.233C234.35 41.3989 222.961 54.6613 209.266 63.4549C199.896 69.5095 183.102 74.8433 171.137 74.8433H114.555C112.105 74.8433 72.9662 75.5641 71.0201 76.8615C66.0467 77.2939 61.2174 78.231 56.5323 79.4563C37.5757 84.5739 21.3581 95.9622 10.3301 111.387V99.2058C10.3301 91.5655 12.2762 76.6452 14.6548 69.9419C18.1145 60.2114 22.8717 51.0574 30.0796 43.8496Z" fill="#939393"/>
<path id="Vector_110" d="M30.1518 43.9219C42.261 31.8848 58.839 24.3166 77.219 24.2445C77.3632 24.2445 79.7417 24.2445 79.8859 24.2445H157.37H237.089C234.206 41.3271 222.961 54.5174 209.483 63.311C200.041 69.4376 183.463 74.8435 171.425 74.8435H114.844C112.537 74.8435 73.1105 75.5643 71.3086 76.7176C66.3352 77.15 61.5059 78.015 56.8208 79.2403C37.8642 84.2137 21.5024 95.6021 10.4023 110.955V98.8456C10.4023 91.1332 12.3485 76.5734 14.7991 69.726C18.2589 60.0675 23.0161 51.0577 30.1518 43.9219Z" fill="#929292"/>
<path id="Vector_111" d="M30.2239 43.9937C42.261 31.9566 58.9111 24.4604 77.219 24.3163C77.3632 24.3163 79.7417 24.3163 79.8859 24.3163H157.298H236.945C234.134 41.2547 223.034 54.373 209.771 63.0944C200.257 69.3653 183.895 74.6991 171.714 74.6991H115.132C112.898 74.6991 73.3268 75.3478 71.5969 76.501C66.6235 76.9335 61.7221 77.7263 57.037 78.9517C38.0084 83.853 21.6466 95.1693 10.4023 110.45V98.4849C10.4023 90.7005 12.3485 76.4289 14.7991 69.5815C18.331 59.9951 23.1602 51.0574 30.2239 43.9937Z" fill="#919191"/>
<path id="Vector_112" d="M30.2245 44.0655C42.2615 32.0284 58.9116 24.5322 77.2196 24.3881C77.3637 24.3881 79.8144 24.3881 79.8865 24.3881H157.227H236.873C234.062 41.1102 223.178 54.1564 210.06 62.8779C200.546 69.2208 184.328 74.5546 172.075 74.5546H115.565C113.475 74.5546 73.6877 75.2033 72.0299 76.2845C67.0565 76.6449 62.1552 77.5098 57.4701 78.6631C38.3693 83.4923 21.9354 94.7366 10.6191 109.945V98.0522C10.6191 90.1956 12.5653 76.2845 15.088 69.2929C18.4757 59.9227 23.2329 51.0571 30.2245 44.0655Z" fill="#909090"/>
<path id="Vector_113" d="M30.2957 44.1379C42.3328 32.1008 58.9109 24.6047 77.2188 24.5326C77.3629 24.5326 79.8136 24.5326 79.8857 24.5326H157.226H236.8C233.989 41.0385 223.322 54.0847 210.348 62.7341C200.761 69.2212 184.832 74.555 172.362 74.555H115.853C113.907 74.555 73.8311 75.1316 72.3174 76.1407C67.344 76.5011 62.4427 77.294 57.7576 78.4472C38.6568 83.2044 22.0788 94.3765 10.6904 109.513V97.6921C10.6904 89.7635 12.6365 76.1407 15.2314 69.1491C18.6191 59.7789 23.3762 51.0574 30.2957 44.1379Z" fill="#8F8F8F"/>
<path id="Vector_114" d="M30.3678 44.1379C42.4049 32.1008 58.9829 24.6047 77.2908 24.5326C77.435 24.5326 79.8857 24.5326 79.9577 24.5326H157.154H236.656C233.845 40.8944 223.394 53.7964 210.636 62.4458C200.977 69.005 185.264 74.3388 172.651 74.3388H116.141C114.267 74.3388 74.0473 74.9154 72.6058 75.8524C67.6324 76.2128 62.731 76.9336 57.9738 78.0868C38.801 82.7719 22.223 93.7999 10.6904 108.936V97.1876C10.6904 89.1869 12.6365 75.9245 15.2314 68.8608C18.6911 59.7068 23.5204 51.0574 30.3678 44.1379Z" fill="#8E8E8E"/>
<path id="Vector_115" d="M30.4403 44.2097C42.4774 32.1726 59.0554 24.7486 77.2912 24.6765C77.4354 24.6765 79.886 24.6765 79.9581 24.6765H157.082H236.584C233.773 40.8221 223.538 53.652 210.925 62.3014C201.266 69.0047 185.697 74.3385 173.011 74.3385H116.502C114.772 74.3385 74.2639 74.843 72.9665 75.708C67.921 75.9963 63.0918 76.7892 58.3346 77.8703C39.0897 82.4113 22.4396 93.4393 10.835 108.504V96.8269C10.835 88.7542 12.7811 75.7801 15.448 68.6443C18.8357 59.5624 23.6649 51.0572 30.4403 44.2097Z" fill="#8D8D8D"/>
<path id="Vector_116" d="M30.5127 44.2821C42.5498 32.2451 59.0558 24.821 77.3637 24.7489C77.4357 24.7489 79.9585 24.7489 80.0306 24.7489H157.082H236.513C233.702 40.6782 223.683 53.5082 211.285 62.0855C201.555 68.8609 186.202 74.1947 173.372 74.1947H116.863C115.277 74.1947 74.5526 74.6992 73.3273 75.4921C68.2818 75.7804 63.3805 76.5012 58.6954 77.6544C39.4504 82.1233 22.7283 93.0792 10.9795 108.072V96.4669C10.9795 88.322 12.9256 75.6362 15.5925 68.5005C18.9802 59.4907 23.7374 51.0575 30.5127 44.2821Z" fill="#8C8C8C"/>
<path id="Vector_117" d="M30.5848 44.3539C42.5498 32.3889 59.1278 24.8928 77.3637 24.8207C77.4357 24.8207 79.9585 24.8207 80.0306 24.8207H157.01H236.369C233.557 40.6058 223.755 53.2916 211.502 61.941C201.699 68.8606 186.562 74.1944 173.66 74.1944H117.223C115.781 74.1944 74.7688 74.6268 73.6156 75.4197C68.5701 75.708 63.6688 76.3567 58.9116 77.51C39.5946 81.9068 22.8003 92.7906 10.9795 107.711V96.1783C10.9795 87.9613 12.9256 75.6359 15.6646 68.4281C19.1243 59.3462 23.8815 51.0572 30.5848 44.3539Z" fill="#8B8B8B"/>
<path id="Vector_118" d="M30.6563 44.4264C42.6213 32.4614 59.1993 24.9652 77.4352 24.9652C77.5072 24.9652 80.03 24.9652 80.102 24.9652H157.01H236.368C233.557 40.5341 223.97 53.1479 211.933 61.7973C202.131 68.7889 187.138 74.1226 174.092 74.1226H117.583C116.213 74.1226 75.0566 74.5551 73.9754 75.2038C68.9299 75.4201 64.0286 76.1409 59.2714 77.222C39.8823 81.5467 23.016 92.3585 11.123 107.279V95.8182C11.123 87.5292 13.0692 75.4921 15.8081 68.2122C19.1958 59.2745 24.0251 51.0576 30.6563 44.4264Z" fill="#8A8A8A"/>
<path id="Vector_119" d="M30.7278 44.4981C42.6928 32.5331 59.1987 25.1091 77.4345 25.037C77.5066 25.037 80.0294 25.037 80.1014 25.037H156.937H236.223C233.412 40.3897 224.042 53.0034 212.149 61.5807C202.274 68.7165 187.498 74.0503 174.38 74.0503H117.943C116.717 74.0503 75.2722 74.4107 74.3352 75.0594C69.2897 75.2756 64.3884 75.9243 59.6312 77.0055C40.2421 81.2581 23.3037 91.9978 11.2666 106.846V95.4575C11.2666 87.1685 13.2127 75.4198 16.0238 68.0678C19.3394 59.2021 24.1686 51.0573 30.7278 44.4981Z" fill="#898989"/>
<path id="Vector_120" d="M30.8006 44.5703C42.7656 32.6053 59.2716 25.1812 77.4353 25.1091C77.5074 25.1091 80.0302 25.1091 80.1022 25.1091H156.866H236.08C233.341 40.2456 224.115 52.7872 212.366 61.3646C202.491 68.6445 187.859 73.9062 174.597 73.9062H118.16C117.078 73.9062 75.4171 74.2666 74.5522 74.7711C69.5067 74.9874 64.6054 75.6361 59.7761 76.6452C40.315 80.7536 23.3045 91.4933 11.1953 106.269V94.9531C11.1953 86.592 13.1414 75.1315 15.9525 67.7795C19.4843 59.0581 24.2415 51.0573 30.8006 44.5703Z" fill="#888888"/>
<path id="Vector_121" d="M30.8002 44.6425C42.7652 32.6775 59.2712 25.2534 77.4349 25.2534C77.507 25.2534 80.0297 25.2534 80.1018 25.2534H156.793H236.007C233.268 40.2457 224.259 52.6432 212.726 61.2205C202.779 68.5725 188.364 73.9063 175.029 73.9063H118.592C117.583 73.9063 75.7771 74.1946 74.9843 74.6992C69.9388 74.8433 64.9654 75.492 60.2082 76.5011C40.6749 80.5375 23.6645 91.133 11.4111 105.909V94.6649C11.4111 86.2317 13.3572 75.0596 16.2404 67.6355C19.6281 58.9861 24.3852 51.0575 30.8002 44.6425Z" fill="#878787"/>
<path id="Vector_122" d="M30.8725 44.7146C42.8375 32.7496 59.2714 25.3976 77.4351 25.3256C77.5072 25.3256 80.0299 25.3256 80.102 25.3256H156.721H235.863C233.124 40.1016 224.331 52.427 212.942 61.0044C202.924 68.5005 188.724 73.7622 175.245 73.7622H118.88C118.015 73.7622 75.9215 74.0505 75.2728 74.483C70.2273 74.6272 65.2539 75.2038 60.4967 76.2129C40.9635 80.1772 23.8088 90.7006 11.4834 105.405V94.2325C11.4834 85.7272 13.4295 74.9155 16.3847 67.4193C19.7003 58.842 24.5296 51.0575 30.8725 44.7146Z" fill="#868686"/>
<path id="Vector_123" d="M30.944 44.7146C42.8369 32.8217 59.3428 25.3976 77.5066 25.3256C77.5787 25.3256 80.1014 25.3256 80.1735 25.3256H156.721H235.791C233.052 39.8854 224.474 52.2108 213.302 60.716C203.283 68.3564 189.228 73.6181 175.677 73.6181H119.312C118.591 73.6181 76.2812 73.8343 75.7046 74.1947C70.6591 74.3388 65.6857 74.9155 60.8565 75.8525C41.2512 79.7447 24.0244 90.1961 11.627 104.828V93.7279C11.627 85.1506 13.5731 74.6272 16.5283 67.131C19.8439 58.7699 24.6731 51.0575 30.944 44.7146Z" fill="#858585"/>
<path id="Vector_124" d="M31.0172 44.7866C42.9101 32.8937 59.344 25.4696 77.5077 25.4696C77.5798 25.4696 80.1026 25.4696 80.1746 25.4696H156.65H235.72C232.981 39.8853 224.62 52.0665 213.592 60.5718C203.573 68.3562 189.662 73.5459 175.967 73.5459H119.602C118.953 73.5459 76.4266 73.7621 75.9941 74.0504C70.9486 74.1946 65.9752 74.6991 61.146 75.6362C41.4686 79.4563 24.2418 89.8356 11.7002 104.395V93.3674C11.7002 84.718 13.5742 74.555 16.6736 66.9147C19.9892 58.6257 24.7464 51.0574 31.0172 44.7866Z" fill="#848484"/>
<path id="Vector_125" d="M31.0887 44.8589C42.9816 32.966 59.4155 25.5419 77.5792 25.5419C77.5792 25.5419 80.174 25.5419 80.2461 25.5419H156.649H235.647C232.908 39.7413 224.763 51.8505 213.952 60.3557C203.861 68.2123 190.166 73.474 176.399 73.474H120.033C119.529 73.474 76.7864 73.6181 76.3539 73.9065C71.3084 73.9785 66.335 74.4831 61.5057 75.4201C41.8283 79.1682 24.4575 89.4754 11.8438 103.963V93.0072C11.8438 84.2857 13.7178 74.411 16.8172 66.7707C20.1328 58.5538 24.8899 51.0576 31.0887 44.8589Z" fill="#838383"/>
<path id="Vector_126" d="M31.1606 44.9308C43.0535 33.0378 59.4874 25.6858 77.579 25.6138H80.2459H156.577H235.503C232.764 39.597 224.835 51.6341 214.168 60.1393C204.077 68.14 190.526 73.3297 176.615 73.3297H120.249C119.889 73.3297 76.8583 73.4738 76.5699 73.618C71.5245 73.69 66.479 74.1946 61.6497 75.0595C41.9002 78.7355 24.4573 88.9707 11.7715 103.386V92.5025C11.7715 83.7089 13.6455 74.1225 16.817 66.4822C20.2047 58.4094 25.0339 51.0574 31.1606 44.9308Z" fill="#828282"/>
<path id="Vector_127" d="M31.233 45.0026C43.126 33.1097 59.4877 25.7577 77.5794 25.7577H80.2463H156.505H235.359C232.62 39.5967 224.908 51.5617 214.456 59.9949C204.293 68.1398 190.959 73.2573 176.975 73.2573H120.61C120.394 73.2573 77.1469 73.3294 76.9307 73.4736C71.8132 73.5456 66.8397 73.9781 62.0105 74.843C42.261 78.3749 24.746 88.61 11.916 102.954V92.1419C11.916 83.2762 13.7901 74.0502 16.9615 66.2657C20.3492 58.3371 25.1784 51.0572 31.233 45.0026Z" fill="#818181"/>
<path id="Vector_128" d="M31.3047 45.0748C43.1976 33.1818 59.5594 25.8298 77.6511 25.8298H80.318H156.505H235.359C232.692 39.4526 225.123 51.3456 214.816 59.7788C204.653 68.0678 191.463 73.1853 177.335 73.1853H121.042C120.898 73.1853 77.4348 73.2574 77.3628 73.2574C72.2452 73.2574 67.2718 73.762 62.4425 74.5548C42.621 78.0146 25.0339 88.1056 12.1318 102.521V91.7815C12.1318 82.8438 14.0059 73.9061 17.2494 66.1217C20.4929 58.2651 25.3222 51.0573 31.3047 45.0748Z" fill="#808080"/>
<path id="Vector_129" d="M12.1318 91.4213C12.1318 82.4115 13.9338 73.7621 17.3215 65.9776C20.7092 58.1932 25.4663 51.0574 31.3768 45.147C43.2697 33.254 59.6315 25.9741 77.6511 25.9741H156.433H235.214C232.548 39.3807 225.195 51.2016 215.032 59.6347C204.869 68.0679 191.823 73.1134 177.624 73.1134H77.6511C51.7029 73.1134 28.3495 84.2855 12.1318 102.089V91.4213Z" fill="#7F7F7F"/>
</g>
<path id="Vector_130" d="M247.9 0.314331H77.6514C35.0531 0.314331 0.599609 34.8399 0.599609 77.3661V147.643C0.599609 105.044 35.1252 70.5907 77.6514 70.5907H177.624C216.474 70.6628 247.9 39.1646 247.9 0.314331Z" fill="#4C4C4C"/>
</g>
</svg>
