<svg width="248" height="162" viewBox="0 0 248 162" fill="none" xmlns="http://www.w3.org/2000/svg">
<g opacity="0.3">
<path d="M247.864 14.3693H162.74H77.6152C56.3521 14.3693 37.0351 23.0187 23.124 36.9298C9.14079 50.913 0.563477 70.1579 0.563477 91.421V161.697C0.563477 140.434 9.21287 121.117 23.124 107.206C37.1072 93.223 56.3521 84.6457 77.6152 84.6457H177.588C216.438 84.6457 247.864 53.1474 247.864 14.3693Z" fill="white"/>
<path d="M23.1964 37.0019C36.4588 23.7395 54.5505 15.3064 74.6604 14.5135C75.6695 14.4414 76.6786 14.4414 77.6877 14.4414H162.74H247.865C247.865 53.0754 216.583 84.3574 177.949 84.4295C177.877 84.5016 136.215 84.5016 136.071 84.5016H77.976C62.4071 84.5016 47.5589 89.1867 35.4497 97.1874C31.125 99.9984 27.0887 103.314 23.4848 106.918C9.50155 120.757 0.780086 140.002 0.708008 161.193V140.939C0.708008 140.867 0.70799 91.2049 0.780069 91.1328C0.70799 70.0859 9.2853 50.9131 23.1964 37.0019Z" fill="#FEFEFE"/>
<path d="M23.2685 37.0741C36.5309 23.8117 54.6226 15.3785 74.6604 14.5856C75.6695 14.5136 76.6786 14.5135 77.6156 14.5135H162.596H247.648C247.576 52.9313 216.511 84.0692 178.165 84.2133C178.021 84.3575 136.576 84.4296 136.359 84.4296H78.2643C62.7675 84.4296 47.7031 89.0426 35.7381 97.0433C31.4134 99.8543 27.377 103.098 23.701 106.702C9.6457 120.469 0.924243 139.642 0.708008 160.761V140.579C0.708008 140.434 0.70799 91.1329 0.780069 90.9887C0.852147 69.9418 9.42948 50.9131 23.2685 37.0741Z" fill="#FDFDFD"/>
<path d="M23.2689 37.1458C36.5314 23.8834 54.623 15.4502 74.6608 14.7294C75.5978 14.6574 76.679 14.6573 77.616 14.6573H162.524H247.505C247.433 52.8589 216.511 83.9247 178.382 84.0688C178.165 84.2851 136.937 84.3571 136.576 84.3571H78.6251C63.2724 84.3571 47.9918 88.9701 36.0989 96.8267C31.7742 99.6377 27.7378 102.809 24.0618 106.413C10.0065 120.108 1.14085 139.137 0.852539 160.256V140.146C0.852539 139.93 0.924626 90.9163 0.996705 90.7721C0.996705 69.8694 9.57405 50.9128 23.2689 37.1458Z" fill="#FCFCFC"/>
<path d="M23.341 37.2181C36.6034 23.9557 54.623 15.5225 74.6608 14.8017C75.5978 14.7296 76.679 14.7296 77.616 14.7296H162.452H247.433C247.361 52.787 216.655 83.6365 178.67 83.8528C178.382 84.1411 137.369 84.2852 136.937 84.2852H78.9135C63.7049 84.2852 48.136 88.8262 36.3151 96.6827C31.9904 99.4217 27.954 102.665 24.278 106.197C10.1506 119.82 1.21293 138.776 0.852539 159.895V139.858C0.852539 139.569 0.924626 90.9165 0.996705 90.6282C1.14086 69.7975 9.64611 50.913 23.341 37.2181Z" fill="#FBFBFB"/>
<path d="M23.4125 37.2181C36.6749 23.9557 54.6945 15.5946 74.7323 14.8017C75.6693 14.7296 76.7505 14.7296 77.6875 14.7296H162.452H247.36C247.288 52.5708 216.727 83.2761 179.03 83.5645C178.597 83.9249 137.873 84.069 137.296 84.069H79.3453C64.2088 84.069 48.4958 88.61 36.747 96.3223C32.4223 99.0613 28.3859 102.233 24.6378 105.765C10.4384 119.315 1.50064 138.2 0.996094 159.247V139.281C0.996094 138.921 1.06816 90.5561 1.21232 90.2678C1.2844 69.6533 9.78968 50.913 23.4125 37.2181Z" fill="#FAFAFA"/>
<path d="M23.4847 37.2903C36.6751 24.0999 54.7667 15.6668 74.7324 14.946C75.6694 14.8739 76.7506 14.8739 77.6877 14.8739H162.38H247.288C247.144 52.4988 216.799 83.06 179.318 83.4204C178.814 83.7808 138.306 84.0691 137.657 84.0691H79.6338C64.6415 84.0691 48.6401 88.538 37.0354 96.2504C32.7107 98.9894 28.6023 102.161 24.9263 105.621C10.7268 119.099 1.64499 137.912 1.06836 158.886V138.993C1.06836 138.56 1.14043 90.5562 1.28459 90.1958C1.50082 69.5814 9.93398 50.9131 23.4847 37.2903Z" fill="#F9F9F9"/>
<path d="M23.556 37.3623C36.7463 24.1719 54.766 15.7388 74.8037 15.018C75.7408 15.018 76.8219 14.9459 77.7589 14.9459H162.379H247.143C246.999 52.3546 216.87 82.7717 179.606 83.2041C179.029 83.6366 138.737 83.9249 137.944 83.9249H79.9213C65.0732 83.9249 48.8555 88.3938 37.323 96.0341C32.9983 98.7731 28.8898 101.872 25.2138 105.332C10.9423 118.739 1.78835 137.479 1.13965 158.382V138.56C1.13965 138.056 1.21174 90.3399 1.42798 89.9074C1.64421 69.5093 10.0773 50.913 23.556 37.3623Z" fill="#F8F8F8"/>
<path d="M23.6293 37.4341C36.8196 24.2437 54.8392 15.8106 74.8049 15.0898C75.742 15.0898 76.8231 15.0177 77.7601 15.0177H162.308H247.072C246.928 52.2822 216.943 82.4831 179.895 82.9876C179.246 83.4922 139.171 83.8525 138.306 83.8525H80.2829C65.5789 83.8525 49.145 88.2493 37.6846 95.8176C33.2878 98.4845 29.2514 101.584 25.5033 105.044C11.1597 118.306 2.00575 137.046 1.21289 157.877V138.128C1.21289 137.551 1.35706 90.1954 1.50122 89.6909C1.78954 69.3648 10.1506 50.9127 23.6293 37.4341Z" fill="#F7F7F7"/>
<path d="M23.7005 37.5065C36.8909 24.3162 54.9105 15.9551 74.8041 15.2343C75.7411 15.2343 76.8223 15.1622 77.7593 15.1622H162.235H246.927C246.711 52.2105 216.943 82.2672 180.183 82.8438C179.462 83.4204 139.603 83.7809 138.593 83.7809H80.6424C66.0105 83.7809 49.3605 88.1776 38.0441 95.6738C33.6474 98.3407 29.611 101.44 25.8629 104.9C11.5193 118.09 2.2212 136.758 1.28418 157.517V137.84C1.28418 137.191 1.42834 90.1237 1.64457 89.6192C1.93289 69.2931 10.294 50.9131 23.7005 37.5065Z" fill="#F6F6F6"/>
<path d="M23.773 37.5787C36.9633 24.3883 54.9108 16.0272 74.8765 15.3065C75.8136 15.3065 76.8948 15.2344 77.8318 15.2344H162.236H246.856C246.639 52.0664 217.087 81.9789 180.471 82.6997C179.678 83.3484 140.035 83.7809 138.954 83.7809H81.0032C66.5154 83.7809 49.6491 88.1056 38.4049 95.6018C34.0081 98.2687 29.9717 101.296 26.2236 104.756C11.808 117.874 2.50989 136.398 1.42871 157.157V137.551C1.42871 136.831 1.57285 90.1238 1.86116 89.4751C2.0774 69.2211 10.4385 50.9132 23.773 37.5787Z" fill="#F5F5F5"/>
<path d="M23.8455 37.6503C37.0358 24.4599 54.9833 16.0988 74.877 15.4501C75.814 15.4501 76.8952 15.3781 77.8322 15.3781H162.236H246.856C246.64 51.9939 217.232 81.8343 180.904 82.5551C180.039 83.2759 140.612 83.7084 139.387 83.7084H81.4361C67.0925 83.7084 49.9378 88.0331 38.8378 95.385C34.441 97.9799 30.3325 101.007 26.5844 104.467C12.0967 117.513 2.7265 135.965 1.57324 156.652V137.118C1.57324 136.326 1.71743 89.9071 2.00574 89.2584C2.22197 69.1485 10.5831 50.9127 23.8455 37.6503Z" fill="#F4F4F4"/>
<path d="M23.8455 37.7225C37.0358 24.5322 54.9833 16.2432 74.877 15.5224C75.814 15.5224 76.9673 15.4503 77.8322 15.4503H162.164H246.712C246.423 51.922 217.232 81.5462 181.12 82.3391C180.183 83.1319 140.973 83.6365 139.675 83.6365H81.7244C67.4529 83.6365 50.1541 87.8891 39.054 95.2411C34.6572 97.8359 30.5487 100.863 26.8007 104.251C12.3129 117.225 2.79857 135.605 1.57324 156.219V136.758C1.57324 135.893 1.71741 89.8352 2.0778 89.1144C2.43819 69.0046 10.6551 50.9129 23.8455 37.7225Z" fill="#F3F3F3"/>
<path d="M23.9175 37.7948C37.0358 24.6765 54.9833 16.3154 74.877 15.5947C75.7419 15.5947 76.9673 15.5226 77.8322 15.5226H162.092H246.568C246.279 51.778 217.304 81.2581 181.337 82.123C180.328 82.9879 141.333 83.4925 139.892 83.4925H81.9406C67.8133 83.4925 50.2262 87.7451 39.2703 94.953C34.8735 97.5478 30.765 100.503 27.0169 103.891C12.4571 116.793 2.94273 135.101 1.57324 155.643V136.326C1.57324 135.389 1.78949 89.6192 2.0778 88.8263C2.58235 68.9327 10.7993 50.9131 23.9175 37.7948Z" fill="#F2F2F2"/>
<path d="M23.9884 37.795C37.1067 24.6767 55.0542 16.3156 74.9478 15.6669C75.8128 15.6669 77.0381 15.5948 77.903 15.5948H162.091H246.566C246.278 51.634 217.447 80.9699 181.768 81.9069C180.687 82.844 141.909 83.3485 140.395 83.3485H82.5161C68.5329 83.3485 50.7295 87.529 39.8457 94.7369C35.4489 97.2596 31.3404 100.287 27.5202 103.603C12.8883 116.432 3.30192 134.668 1.86035 155.211V135.966C1.86035 134.957 2.07658 89.5472 2.43697 88.6823C2.72528 68.8608 10.9422 50.9132 23.9884 37.795Z" fill="#F1F1F1"/>
<path d="M24.0605 37.8668C37.1787 24.7485 55.1263 16.3874 74.9478 15.7387C75.8128 15.7387 77.0381 15.6666 77.903 15.6666H162.018H246.422C246.134 51.4896 217.447 80.6813 181.984 81.6904C180.759 82.6995 142.269 83.2761 140.611 83.2761H82.7323C68.8212 83.2761 50.8016 87.4567 40.0619 94.5924C35.6651 97.1152 31.5567 100.07 27.7365 103.386C13.1046 116.144 3.374 134.308 1.86035 154.778V135.533C1.86035 134.452 2.07658 89.3307 2.43697 88.4658C2.86944 68.7163 11.0864 50.9129 24.0605 37.8668Z" fill="#F0F0F0"/>
<path d="M24.1332 37.939C37.2514 24.8208 55.1268 16.5318 75.0205 15.811C75.8854 15.811 77.1107 15.7389 77.9757 15.7389H162.019H246.351C245.99 51.4177 217.592 80.3932 182.345 81.4744C181.048 82.5555 142.774 83.1322 141.044 83.1322H83.1653C69.3983 83.1322 51.1625 87.2406 40.4949 94.3043C36.0981 96.8271 31.9176 99.7102 28.1695 103.026C13.5376 115.712 3.73495 133.803 2.07715 154.201V135.101C2.07715 133.947 2.2934 89.1868 2.72587 88.1777C3.01418 68.6444 11.159 50.9132 24.1332 37.939Z" fill="#EFEFEF"/>
<path d="M24.2052 38.011C37.3235 24.8927 55.1989 16.6037 75.0205 15.955C75.8854 15.955 77.1107 15.8829 77.9757 15.8829H161.947H246.279C245.918 51.3455 217.664 80.1768 182.633 81.3301C181.264 82.4833 143.207 83.132 141.333 83.132H83.4536C69.8308 83.132 51.3067 87.2405 40.7832 94.2321C36.3865 96.6828 32.2059 99.638 28.3858 102.882C13.6818 115.495 3.80703 133.443 2.07715 153.841V134.812C2.07715 133.587 2.2934 89.1146 2.72587 88.1055C3.23042 68.5722 11.3032 50.913 24.2052 38.011Z" fill="#EEEEEE"/>
<path d="M24.2767 38.0832C37.3949 24.965 55.2704 16.676 75.0199 16.0273C75.8848 16.0273 77.1101 15.9552 77.9751 15.9552H161.874H246.134C242.458 50.9853 217.663 79.8887 182.921 81.114C181.48 82.2673 143.638 82.9881 141.692 82.9881H83.8134C70.3348 82.9881 51.5944 87.0245 41.143 93.944C36.7462 96.3946 32.5657 99.2778 28.7455 102.521C13.9695 114.991 4.09474 132.938 2.2207 153.264V134.308C2.2207 133.01 2.50902 88.8985 2.94149 87.8173C3.37396 68.4282 11.4467 50.9132 24.2767 38.0832Z" fill="#EDEDED"/>
<path d="M24.3491 38.155C37.3953 25.1088 55.2707 16.7477 75.0923 16.099C75.9572 16.099 77.1826 16.027 78.0475 16.027H161.875H246.062C245.63 51.0571 217.807 79.6001 183.21 80.8975C181.696 82.1228 144.071 82.9157 141.981 82.9157H84.1742C70.7676 82.9157 51.8831 86.9521 41.5038 93.7995C37.107 96.2502 32.9264 99.1333 29.1063 102.305C14.3302 114.702 4.31135 132.578 2.36523 152.832V133.947C2.36523 132.578 2.65353 88.754 3.15808 87.6008C3.51847 68.3559 11.5913 50.9129 24.3491 38.155Z" fill="#ECECEC"/>
<path d="M24.422 38.227C37.4682 25.1808 55.3436 16.8918 75.0931 16.2431C75.958 16.2431 77.1834 16.171 78.0483 16.171H161.803H245.919C245.486 51.057 217.808 79.4558 183.427 80.7532C181.841 82.0507 144.432 82.8435 142.27 82.8435H84.4633C71.2009 82.8435 52.028 86.8078 41.7208 93.6553C37.252 96.0339 33.1435 98.917 29.2513 102.088C14.4031 114.414 4.31214 132.217 2.29395 152.399V133.587C2.29395 132.145 2.58229 88.6819 3.08683 87.4565C3.66346 68.2837 11.6641 50.9128 24.422 38.227Z" fill="#EBEBEB"/>
<path d="M24.4214 38.2993C37.4676 25.2531 55.343 16.9641 75.0925 16.3154C75.9574 16.3154 77.1828 16.2433 78.0477 16.2433H161.731H245.846C242.17 50.6967 217.88 79.1677 183.787 80.5372C182.129 81.9067 144.936 82.7716 142.63 82.7716H84.8231C71.7048 82.7716 52.3157 86.7359 42.0806 93.4392C37.6117 95.8178 33.5033 98.6289 29.6111 101.8C14.6908 114.054 4.59985 131.785 2.4375 151.895V133.154C2.4375 131.641 2.72582 88.4658 3.30245 87.2405C3.807 68.1397 11.8077 50.913 24.4214 38.2993Z" fill="#EAEAEA"/>
<path d="M24.4937 38.3715C37.5399 25.3254 55.3432 17.0363 75.0927 16.3876C75.8855 16.3876 77.183 16.3156 78.0479 16.3156H161.659H245.702C245.27 50.769 217.952 78.8796 184.003 80.3211C182.273 81.7627 145.297 82.6277 142.918 82.6277H85.1116C72.0654 82.6277 52.4601 86.5199 42.3691 93.2232C37.9002 95.6017 33.7197 98.4128 29.8995 101.584C14.9793 113.766 4.74419 131.425 2.50977 151.462V132.794C2.50977 131.208 2.79804 88.3939 3.37467 87.0244C3.9513 68.0678 11.952 50.9132 24.4937 38.3715Z" fill="#E9E9E9"/>
<path d="M24.565 38.3712C37.6111 25.325 55.4145 17.1081 75.164 16.4594C75.9568 16.4594 77.2542 16.3873 78.1192 16.3873H161.658H245.629C245.125 50.6246 218.023 78.591 184.363 80.1046C182.561 81.6183 145.801 82.5553 143.278 82.5553H85.4712C72.5692 82.5553 52.7476 86.4475 42.7287 93.0787C38.2599 95.4573 34.0793 98.1963 30.1871 101.368C15.1948 113.477 4.95964 131.064 2.58105 151.03V132.434C2.58105 130.776 2.94144 88.2495 3.51806 86.88C4.16677 67.9954 12.0954 50.9129 24.565 38.3712Z" fill="#E8E8E8"/>
<path d="M24.6374 38.4434C37.6836 25.3972 55.487 17.1803 75.1644 16.5316C75.9572 16.5316 77.2546 16.4595 78.1195 16.4595H161.586H245.558C241.954 50.3363 218.096 78.3027 184.651 79.8884C182.777 81.4742 146.234 82.4112 143.639 82.4112H85.8319C73.0741 82.4112 52.9642 86.2314 43.0895 92.7905C38.6206 95.097 34.4401 97.908 30.5478 101.007C15.5555 113.045 5.17625 130.487 2.72559 150.525V132.001C2.72559 130.343 3.08597 88.1054 3.6626 86.6638C4.3113 67.9234 12.1678 50.9129 24.6374 38.4434Z" fill="#E7E7E7"/>
<path d="M24.7099 38.5156C37.756 25.4694 55.4873 17.2525 75.1647 16.6758C75.9576 16.6758 77.255 16.6038 78.1199 16.6038H161.515H245.414C244.909 50.4806 218.168 78.0866 184.94 79.7444C182.922 81.4022 146.739 82.4113 143.927 82.4113H86.1927C73.579 82.4113 53.2529 86.2315 43.4502 92.7185C38.9814 95.025 34.8008 97.764 30.9086 100.863C15.8442 112.828 5.39286 130.199 2.87012 150.165V131.713C2.87012 129.983 3.23048 88.0334 3.87919 86.5198C4.45581 67.7794 12.3124 50.9131 24.7099 38.5156Z" fill="#E6E6E6"/>
<path d="M24.7819 38.5877C37.756 25.6136 55.5594 17.3246 75.2368 16.748C76.0296 16.748 77.3992 16.6759 78.192 16.6759H161.515H245.342C244.765 50.3365 218.24 77.7983 185.228 79.5282C183.138 81.2581 147.171 82.2672 144.216 82.2672H86.481C73.9394 82.2672 53.397 86.0153 43.7385 92.4303C39.2697 94.7368 35.0891 97.4037 31.1248 100.503C15.9883 112.324 5.53702 129.695 2.87012 149.588V131.208C2.87012 129.406 3.23051 87.8173 3.95129 86.2315C4.6 67.7074 12.4565 50.9131 24.7819 38.5877Z" fill="#E5E5E5"/>
<path d="M24.8544 38.6595C37.8285 25.6854 55.5598 17.4684 75.2372 16.8197C76.03 16.8197 77.3996 16.7477 78.1924 16.7477H161.443H245.27C241.666 50.0479 218.313 77.5097 185.517 79.3117C183.355 81.1137 147.604 82.1948 144.577 82.1948H86.8418C74.4444 82.1948 53.6857 85.9429 44.0993 92.2858C39.6305 94.5202 35.3778 97.2592 31.4856 100.287C16.3491 112.035 5.75363 129.334 3.01465 149.156V130.848C3.01465 128.974 3.37504 87.6728 4.09582 86.015C4.74453 67.635 12.6011 50.9128 24.8544 38.6595Z" fill="#E4E4E4"/>
<path d="M24.9265 38.7317C37.9006 25.7576 55.6319 17.5407 75.3093 16.9641C76.1021 16.9641 77.4716 16.892 78.2645 16.892H161.443H245.126C244.549 50.1922 218.385 77.2936 185.805 79.1677C183.571 81.0417 148.036 82.1229 144.865 82.1229H87.1301C74.8768 82.1229 53.902 85.7989 44.3156 92.1418C39.8467 94.3762 35.5941 97.0431 31.7019 100.07C16.4933 111.747 5.82571 128.974 3.01465 148.723V130.487C3.01465 128.541 3.44715 87.6009 4.16793 85.871C4.88871 67.491 12.6732 50.913 24.9265 38.7317Z" fill="#E3E3E3"/>
<path d="M24.9977 38.8037C37.9718 25.8296 55.7032 17.6127 75.3085 17.0361C76.1013 17.0361 77.4708 16.964 78.1916 16.964H161.298H244.981C244.404 50.048 218.384 77.0774 186.021 78.9514C183.714 80.8254 148.396 81.9787 145.152 81.9787H87.4897C75.3084 81.9787 54.1174 85.5826 44.6752 91.8534C40.2063 94.0878 35.9537 96.6827 31.9893 99.71C16.7087 111.315 6.04115 128.469 3.08594 148.147V129.983C3.08594 127.965 3.51839 87.3125 4.23917 85.5826C5.10411 67.4189 12.8165 50.9129 24.9977 38.8037Z" fill="#E2E2E2"/>
<path d="M24.9981 38.876C37.9722 25.9019 55.6314 17.757 75.3088 17.1083C76.1017 17.1083 77.4712 17.0363 78.192 17.0363H161.226H244.909C241.377 49.6878 218.456 76.7892 186.382 78.7353C184.003 80.6815 148.901 81.9068 145.513 81.9068H87.8504C75.8134 81.9068 54.4061 85.5107 45.0359 91.7094C40.5671 93.8718 36.3144 96.5387 32.3501 99.4939C17.0695 111.026 6.25776 128.109 3.23047 147.714V129.623C3.23047 127.532 3.6629 87.2406 4.45577 85.3665C5.24863 67.3469 12.961 50.9131 24.9981 38.876Z" fill="#E1E1E1"/>
<path d="M25.0704 38.948C38.0445 25.9739 55.7037 17.829 75.309 17.2524C76.0298 17.2524 77.4714 17.1803 78.1922 17.1803H161.154H244.765C244.117 49.8318 218.529 76.5729 186.598 78.5911C184.147 80.6093 149.261 81.8346 145.802 81.8346H88.139C76.2461 81.8346 54.5504 85.3664 45.3244 91.4931C40.7835 93.6555 36.603 96.2503 32.6386 99.2055C17.2859 110.666 6.47418 127.604 3.30273 147.21V129.19C3.30273 127.028 3.73521 87.0243 4.52808 85.1502C5.39302 67.2027 13.1054 50.913 25.0704 38.948Z" fill="#E0E0E0"/>
<path d="M25.1425 38.948C38.0445 26.0459 55.7758 17.829 75.309 17.2524C76.0298 17.2524 77.4714 17.1803 78.1922 17.1803H161.082H244.621C243.972 49.6876 218.529 76.2125 186.886 78.3028C184.364 80.393 149.694 81.6904 146.09 81.6904H88.4273C76.6064 81.6904 54.7667 85.2223 45.6127 91.2769C41.0718 93.4392 36.8192 96.034 32.8549 98.9172C17.5022 110.306 6.54626 127.172 3.30273 146.705V128.83C3.30273 126.595 3.7352 86.9522 4.60014 85.0061C5.53716 67.1306 13.2495 50.913 25.1425 38.948Z" fill="#DFDFDF"/>
<path d="M25.2142 39.0201C38.1162 26.1181 55.7754 17.9012 75.3807 17.3245C76.1015 17.3245 77.5431 17.2524 78.2638 17.2524H161.082H244.621C241.089 49.3273 218.673 75.9242 187.246 78.0866C184.652 80.2489 150.198 81.5464 146.522 81.5464H88.8594C77.1827 81.5464 55.0546 85.0061 46.0448 91.0607C41.5039 93.151 37.2512 95.7458 33.2869 98.6289C17.8621 109.945 6.83416 126.739 3.51855 146.201V128.397C3.51855 126.091 4.02309 86.736 4.81596 84.7178C5.6809 67.0586 13.3212 50.913 25.2142 39.0201Z" fill="#DEDEDE"/>
<path d="M25.2866 39.0922C38.1886 26.1902 55.8478 18.0453 75.3811 17.4687C76.1019 17.4687 77.5434 17.3966 78.2642 17.3966H161.01H244.477C240.945 49.2552 218.745 75.708 187.535 77.9424C184.868 80.1769 150.631 81.5464 146.811 81.5464H89.2201C77.6876 81.5464 55.3433 85.0061 46.4056 90.9165C41.8646 93.0068 37.612 95.5296 33.6477 98.4127C18.1508 109.585 7.12285 126.379 3.66309 145.768V128.037C3.66309 125.658 4.16765 86.6639 5.03259 84.5736C5.82545 66.9865 13.4657 50.9131 25.2866 39.0922Z" fill="#DDDDDD"/>
<path d="M25.358 39.164C38.2601 26.2619 55.9193 18.1171 75.4525 17.5404C76.1733 17.5404 77.6149 17.4684 78.3356 17.4684H161.01H244.404C243.683 49.327 218.816 75.4194 187.823 77.7259C185.012 80.0324 151.063 81.4019 147.171 81.4019H89.5799C78.1915 81.4019 55.5589 84.7896 46.7653 90.7C42.2244 92.7903 37.9718 95.313 34.0075 98.1241C18.5106 109.224 7.33848 125.946 3.80664 145.335V127.676C3.80664 125.226 4.67158 86.6636 5.24821 84.4292C9.06836 67.2745 13.6093 50.9127 25.358 39.164Z" fill="#DCDCDC"/>
<path d="M25.4308 39.2364C38.3328 26.3344 55.9199 18.1895 75.4531 17.685C76.1739 17.685 77.6155 17.6129 78.3363 17.6129H160.938H244.261C240.729 49.1112 218.817 75.2035 188.04 77.5821C185.156 79.9607 151.424 81.4023 147.387 81.4023H89.7967C78.4804 81.4023 55.7037 84.79 46.9101 90.5562C42.3692 92.6465 38.1166 95.0972 34.0802 97.9803C18.5112 109.008 7.33908 125.658 3.66309 144.975V127.388C3.66309 124.866 4.6001 86.664 5.10465 84.2854C9.21312 67.2028 13.7541 50.9131 25.4308 39.2364Z" fill="#DBDBDB"/>
<path d="M25.5026 39.3084C38.4046 26.4064 55.9917 18.2616 75.525 17.757C76.2458 17.757 77.6873 17.6849 78.4081 17.6849H160.938H244.26C243.468 49.1832 219.033 74.9152 188.472 77.3658C185.517 79.8165 152 81.2581 147.892 81.2581H90.301C79.1289 81.2581 56.1359 84.5737 47.4144 90.3399C42.8735 92.3581 38.6209 94.8809 34.5845 97.6919C18.9435 108.648 7.69925 125.154 3.95117 144.471V126.956C3.95117 124.361 4.88817 86.4477 5.4648 84.0691C9.28495 67.1307 13.8259 50.9131 25.5026 39.3084Z" fill="#DADADA"/>
<path d="M25.5747 39.3806C38.4046 26.5506 56.0638 18.4058 75.525 17.8292C76.2458 17.8292 77.6873 17.7571 78.4081 17.7571H160.866H244.116C243.323 49.0391 219.033 74.699 188.688 77.1497C185.661 79.6724 152.361 81.186 148.108 81.186H90.5173C79.4893 81.186 56.208 84.5016 47.6306 90.1958C43.0897 92.214 38.765 94.6647 34.8007 97.4758C19.1597 108.36 7.77133 124.793 3.95117 144.038V126.595C3.95117 123.929 4.88817 86.3757 5.4648 83.925C9.42911 66.9866 13.9701 50.9131 25.5747 39.3806Z" fill="#D9D9D9"/>
<path d="M25.5751 39.4525C38.405 26.6225 55.9922 18.4776 75.5254 17.9731C76.2462 17.9731 77.6877 17.901 78.4085 17.901H160.794H243.973C240.513 48.8226 219.033 74.4825 188.977 77.0053C185.877 79.6001 152.793 81.1137 148.469 81.1137H90.9501C79.9942 81.1137 56.5688 84.3573 48.0635 89.9794C43.5226 91.9976 39.1979 94.3762 35.1615 97.1872C19.4484 107.999 8.06001 124.361 4.0957 143.534V126.163C4.0957 123.424 5.10481 86.1592 5.68144 83.6365C9.57367 66.9143 14.1146 50.9129 25.5751 39.4525Z" fill="#D8D8D8"/>
<path d="M25.6465 39.5246C38.4765 26.6946 56.0636 18.5498 75.5248 18.0452C76.1735 18.0452 77.7592 17.9731 78.4079 17.9731H160.793H243.972C240.512 48.6785 219.249 74.1943 189.337 76.7891C186.165 79.456 153.297 81.0417 148.828 81.0417H91.3099C80.4982 81.0417 56.7844 84.2853 48.4233 89.8353C43.8824 91.7814 39.5577 94.2321 35.5213 96.971C19.7361 107.711 8.27565 124 4.23926 143.101V125.802C4.23926 122.991 5.24836 86.0872 5.82499 83.4924C9.64514 66.8423 14.2582 50.913 25.6465 39.5246Z" fill="#D7D7D7"/>
<path d="M25.7186 39.5246C38.5486 26.6946 56.1357 18.6219 75.5248 18.0452C76.1735 18.0452 77.7592 17.9731 78.4079 17.9731H160.649H243.756C242.891 48.6785 219.177 73.8339 189.553 76.5008C186.309 79.1677 153.658 80.8255 149.117 80.8255H91.5983C80.9307 80.8255 57.0006 83.9969 48.7116 89.547C44.1707 91.4931 39.846 93.8717 35.8096 96.6106C20.0244 107.278 8.4198 123.496 4.23926 142.525V125.298C4.23926 122.415 5.24835 85.7989 5.89705 83.2041C9.78928 66.6981 14.3302 50.913 25.7186 39.5246Z" fill="#D6D6D6"/>
<path d="M25.7907 39.5968C38.6207 26.7668 56.1357 18.6941 75.5968 18.1895C76.2456 18.1895 77.8313 18.1174 78.48 18.1174H160.649H243.684C240.224 48.3903 219.249 73.6178 189.841 76.3567C186.525 79.0957 154.09 80.7535 149.405 80.7535H91.8866C81.2911 80.7535 57.1448 83.925 49 89.3309C44.459 91.277 40.1343 93.5835 36.0258 96.3225C20.1686 106.846 8.56396 123.064 4.23926 142.02V124.866C4.23926 121.91 5.32042 85.6549 5.89705 82.9159C9.93344 66.6262 14.4744 50.9131 25.7907 39.5968Z" fill="#D5D5D5"/>
<path d="M25.8633 39.6687C38.6933 26.8387 56.2083 18.7659 75.5974 18.2614C76.2461 18.2614 77.8318 18.1893 78.4806 18.1893H160.578H243.612C240.152 48.3181 219.394 73.3293 190.13 76.1403C186.742 78.9514 154.523 80.6813 149.766 80.6813H92.3196C81.8682 80.6813 57.5058 83.7806 49.433 89.1865C44.82 91.0606 40.4953 93.4391 36.4589 96.106C20.6016 106.557 8.85284 122.703 4.45605 141.587V124.505C4.45605 121.478 5.53725 85.5826 6.18595 82.7715C10.0061 66.5539 14.6191 50.9129 25.8633 39.6687Z" fill="#D4D4D4"/>
<path d="M25.9354 39.7408C38.7654 26.9109 56.2804 18.8381 75.6695 18.3336C76.3182 18.3336 77.904 18.2615 78.5527 18.2615H160.578H243.54C242.603 48.3902 219.466 73.041 190.49 75.9242C187.031 78.8073 155.028 80.5372 150.126 80.5372H92.6079C82.3007 80.5372 57.6499 83.6366 49.6492 88.8983C45.0362 90.7723 40.7115 93.0788 36.6751 95.7457C20.7458 106.125 8.99699 122.126 4.45605 141.011V124C4.45605 120.901 5.53723 85.2944 6.25801 82.4833C10.1502 66.4098 14.7633 50.913 25.9354 39.7408Z" fill="#D3D3D3"/>
<path d="M26.0067 39.8132C38.7646 27.0553 56.2796 18.9825 75.6687 18.478C76.3174 18.478 77.9031 18.4059 78.5518 18.4059H160.505H243.395C239.935 48.1022 219.465 72.8251 190.706 75.8524C187.102 78.8076 155.387 80.6095 150.414 80.6095H92.9675C82.8045 80.6095 57.9374 83.6368 50.0088 88.8985C45.3958 90.7726 41.0711 93.0791 36.9626 95.6739C20.9612 105.981 9.14036 121.91 4.52734 140.795V123.857C4.52734 120.685 5.60852 85.4388 6.3293 82.4836C10.2936 66.338 14.8345 50.9132 26.0067 39.8132Z" fill="#D2D2D2"/>
<path d="M26.0793 39.8849C38.8372 27.1271 56.3523 19.0543 75.7413 18.5497C76.39 18.5497 77.9758 18.4777 78.6245 18.4777H160.505H243.396C240.008 47.9577 219.682 72.6085 191.139 75.6358C187.463 78.6631 155.965 80.4651 150.847 80.4651H93.4005C83.3096 80.4651 58.2984 83.4923 50.4418 88.682C45.8288 90.4839 41.5041 92.7905 37.3956 95.3853C21.3942 105.62 9.42923 121.478 4.74414 140.29V123.424C4.74414 120.18 5.89738 85.2222 6.61816 82.267C10.4383 66.2656 14.9793 50.9129 26.0793 39.8849Z" fill="#D1D1D1"/>
<path d="M26.1516 39.9569C38.9095 27.1991 56.4245 19.1263 75.7415 18.6217C76.3902 18.6217 77.976 18.5497 78.6247 18.5497H160.434H243.252C242.243 48.0297 219.682 72.3201 191.355 75.4195C187.607 78.5189 156.325 80.3929 151.135 80.3929H93.6891C83.7423 80.3929 58.4427 83.3481 50.7303 88.4657C46.1173 90.2677 41.7926 92.5021 37.6842 95.0969C21.6107 105.26 9.64566 121.045 4.81641 139.785V122.991C4.81641 119.676 5.96969 85.078 6.69047 82.0507C10.5106 66.1214 15.1236 50.9129 26.1516 39.9569Z" fill="#D0D0D0"/>
<path d="M26.1514 40.0294C38.9093 27.2715 56.3523 19.1987 75.6693 18.7662C76.318 18.7662 77.9037 18.7662 78.5524 18.7662H160.289H243.035C242.026 48.1021 219.61 72.1763 191.571 75.3478C187.751 78.5192 156.685 80.3932 151.352 80.3932H93.9051C84.1024 80.3932 58.5867 83.3485 50.9464 88.3939C46.3333 90.1959 41.9366 92.4303 37.8281 94.9531C21.6826 105.044 9.64547 120.757 4.74414 139.425V122.703C4.74414 119.316 5.8974 85.0063 6.69027 81.9069C10.6546 66.0497 15.2676 50.9132 26.1514 40.0294Z" fill="#CFCFCF"/>
<path d="M26.2231 40.1014C38.981 27.3435 56.4239 19.3428 75.7409 18.8383C76.3896 18.8383 77.9754 18.8383 78.6241 18.8383H160.289H243.035C239.647 47.7417 219.754 71.8879 191.931 75.1315C188.039 78.375 157.189 80.3211 151.784 80.3211H94.3371C84.6066 80.3211 58.8746 83.2042 51.3784 88.1776C46.7654 89.9075 42.3686 92.142 38.2602 94.7368C22.1146 104.756 9.93337 120.397 4.95996 138.993V122.343C4.95996 118.883 6.1853 84.9341 6.90609 81.7627C10.7983 65.9775 15.3392 50.9131 26.2231 40.1014Z" fill="#CECECE"/>
<path d="M26.2956 40.1011C39.0534 27.3432 56.4964 19.3425 75.7413 18.91C76.3179 18.91 77.9757 18.91 78.6244 18.91H160.217H242.963C241.882 47.8135 219.898 71.5993 192.22 74.9149C188.256 78.2305 157.622 80.1767 152.072 80.1767H94.6979C85.1115 80.1767 59.1633 83.0598 51.7392 87.9611C47.1262 89.691 42.7294 91.9254 38.6209 94.4482C22.4033 104.323 10.2221 119.964 5.10449 138.488V121.91C5.10449 118.378 6.32982 84.7176 7.12268 81.5461C10.8708 65.833 15.4838 50.9849 26.2956 40.1011Z" fill="#CDCDCD"/>
<path d="M26.3678 40.1732C39.0536 27.4874 56.4966 19.4146 75.8136 18.9822C76.3902 18.9822 78.048 18.9822 78.6967 18.9822H160.217H242.819C241.738 47.6694 219.898 71.3111 192.508 74.6988C188.472 78.0865 158.055 80.1046 152.433 80.1046H95.0585C85.6162 80.1046 59.3797 82.9157 52.0998 87.817C47.4868 89.5469 43.09 91.7093 38.9095 94.232C22.6198 104.035 10.3664 119.532 5.17676 138.056V121.55C5.17676 117.946 6.40211 84.6456 7.26705 81.33C11.0151 65.761 15.6281 50.985 26.3678 40.1732Z" fill="#CCCCCC"/>
<path d="M26.4397 40.2454C39.1255 27.5596 56.5684 19.5589 75.8134 19.0543C76.39 19.0543 78.0478 19.0543 78.6965 19.0543H160.145H242.675C239.287 47.3811 219.898 71.0228 192.724 74.4826C188.616 77.9423 158.415 79.9605 152.649 79.9605H95.2745C85.9764 79.9605 59.5237 82.7716 52.2438 87.5288C47.6307 89.2587 43.2339 91.3489 39.0534 93.8717C22.7637 103.602 10.4383 119.027 5.10449 137.479V121.117C5.10449 117.441 6.40192 84.4294 7.19478 81.1138C11.1591 65.689 15.7721 50.985 26.4397 40.2454Z" fill="#CBCBCB"/>
<path d="M26.5117 40.3176C39.1975 27.6318 56.6405 19.6311 75.8854 19.1986C76.4621 19.1986 78.1199 19.1986 78.7686 19.1986H160.217H242.747C241.666 47.5254 220.186 70.8067 193.229 74.3386C189.048 77.7983 159.064 79.9607 153.226 79.9607H95.8511C86.6251 79.9607 59.9561 82.6996 52.8203 87.4568C48.2073 89.1146 43.7385 91.277 39.63 93.7276C23.2682 103.386 10.8707 118.739 5.46484 137.119V120.829C5.46484 117.081 6.76225 84.4295 7.62719 80.9698C11.3032 65.545 15.8441 50.9852 26.5117 40.3176Z" fill="#CACACA"/>
<path d="M26.5834 40.3895C39.2692 27.7037 56.6401 19.703 75.8851 19.2705C76.4617 19.2705 78.1195 19.2705 78.7682 19.2705H160.073H242.53C241.377 47.3811 220.114 70.5182 193.373 74.1221C189.048 77.654 159.352 79.8163 153.369 79.8163H95.9949C86.913 79.8163 60.0278 82.5553 52.9641 87.2404C48.3511 88.8982 43.8823 90.9885 39.7017 93.4391C23.2678 103.026 10.7983 118.306 5.32031 136.614V120.396C5.32031 116.576 6.61772 84.2131 7.48266 80.7533C11.3749 65.4727 15.9879 50.985 26.5834 40.3895Z" fill="#C9C9C9"/>
<path d="M26.6561 40.4616C39.3419 27.7758 56.7128 19.7751 75.8856 19.3427C76.4622 19.3427 78.1921 19.3427 78.7688 19.3427H160.073H242.459C239.143 47.0928 220.187 70.3021 193.734 73.906C189.337 77.5099 159.857 79.7443 153.73 79.7443H96.428C87.4902 79.7443 60.3888 82.4112 53.3972 87.0243C48.7121 88.6821 44.3153 90.7003 40.1347 93.1509C23.7009 102.665 11.1592 117.874 5.53711 136.182V120.036C5.53711 116.144 6.83455 84.1411 7.77157 80.6093C11.5196 65.4007 16.1327 50.9851 26.6561 40.4616Z" fill="#C8C8C8"/>
<path d="M26.7276 40.5338C39.4133 27.848 56.7842 19.9194 75.9571 19.4869C76.5337 19.4869 78.2636 19.4869 78.7682 19.4869H160H242.386C241.233 47.165 220.33 70.0859 194.021 73.7619C189.553 77.4379 160.289 79.6724 154.09 79.6724H96.7877C87.9221 79.6724 60.6044 82.3393 53.7569 86.8802C49.0719 88.4659 44.6751 90.5562 40.4945 92.9348C23.9886 102.377 11.3749 117.514 5.68066 135.749V119.676C5.68066 115.712 7.05018 84.0692 7.91512 80.3932C11.6632 65.2567 16.2762 50.9852 26.7276 40.5338Z" fill="#C7C7C7"/>
<path d="M26.7276 40.606C39.4133 27.9202 56.7122 19.9916 75.885 19.5591C76.4616 19.5591 78.1915 19.5591 78.696 19.5591H159.856H242.242C241.017 47.093 220.33 69.7977 194.31 73.5458C189.769 77.2939 160.721 79.5283 154.378 79.5283H97.076C88.3545 79.5283 60.8206 82.1231 54.0453 86.592C49.3602 88.1777 44.9634 90.1959 40.7108 92.5745C24.2048 101.873 11.519 117.009 5.68066 135.173V119.171C5.68066 115.135 7.05016 83.7809 7.98718 80.1049C11.7353 65.1847 16.3483 50.9852 26.7276 40.606Z" fill="#C6C6C6"/>
<path d="M26.7998 40.6779C39.4135 28.0641 56.7844 20.0635 75.9572 19.631C76.5339 19.631 78.2638 19.631 78.7683 19.631H159.856H242.098C238.782 46.8045 220.33 69.5092 194.526 73.3294C189.913 77.1495 161.082 79.456 154.667 79.456H97.3645C88.7872 79.456 60.9649 82.0508 54.3337 86.4476C49.6486 88.0333 45.2519 90.0515 40.9992 92.3581C24.4212 101.584 11.6634 116.576 5.75293 134.74V118.811C5.75293 114.702 7.12238 83.7086 8.0594 79.9606C11.8796 65.1124 16.4926 50.9851 26.7998 40.6779Z" fill="#C5C5C5"/>
<path d="M26.8721 40.6778C39.4858 28.0641 56.7846 20.1355 75.9574 19.703C76.462 19.703 78.264 19.703 78.7685 19.703H159.785H242.026C238.71 46.6603 220.475 69.2208 194.815 73.1131C190.13 77.0053 161.514 79.3118 154.955 79.3118H97.6531C89.1478 79.3118 61.1814 81.8346 54.6223 86.2314C49.9372 87.745 45.4683 89.7632 41.2878 92.0697C24.6377 101.224 11.8077 116.144 5.8252 134.236V118.378C5.8252 114.198 7.19468 83.4924 8.20377 79.6722C12.0239 64.9682 16.637 50.985 26.8721 40.6778Z" fill="#C4C4C4"/>
<path d="M26.9444 40.75C39.5581 28.1362 56.8569 20.2076 76.0298 19.7751C76.5343 19.7751 78.3362 19.7751 78.8408 19.7751H159.785H241.954C240.657 46.6604 220.547 68.9326 195.175 72.8969C190.418 76.8612 162.019 79.2398 155.388 79.2398H98.0857C89.7246 79.2398 61.4699 81.7625 54.9829 86.0152C50.2978 87.5288 45.8289 89.4749 41.5763 91.7814C24.9262 100.863 12.0241 115.711 5.89746 133.731V117.946C5.89746 113.693 7.33905 83.3483 8.34814 79.4561C12.0962 64.8962 16.7813 50.9851 26.9444 40.75Z" fill="#C3C3C3"/>
<path d="M27.0166 40.8221C39.6303 28.2084 56.9291 20.2798 76.0299 19.8473C76.5345 19.8473 78.3364 19.8473 78.8409 19.8473H159.713H241.81C238.495 46.3721 220.547 68.6443 195.392 72.6807C190.562 76.7171 162.38 79.0957 155.604 79.0957H98.3742C90.1573 79.0957 61.6863 81.5464 55.2713 85.799C50.5862 87.3126 46.1174 89.2588 41.8647 91.4932C25.1426 100.503 12.1685 115.279 5.96973 133.227V117.513C5.96973 113.189 7.41127 83.1321 8.42036 79.2399C12.2405 64.8242 16.9256 50.9852 27.0166 40.8221Z" fill="#C2C2C2"/>
<path d="M27.0883 40.8939C39.702 28.2802 56.9287 20.3516 76.1016 19.9912C76.6061 19.9912 78.4081 19.9912 78.9126 19.9912H159.712H241.81C240.512 46.5161 220.763 68.4279 195.824 72.5363C190.922 76.6448 162.956 79.0955 156.109 79.0955H98.8063C90.7335 79.0955 61.9742 81.5461 55.7034 85.6546C51.0183 87.0962 46.5494 89.0423 42.2968 91.3488C25.5025 100.287 12.4564 114.99 6.18555 132.866V117.225C6.18555 112.828 7.62711 83.1319 8.70829 79.0955C12.3843 64.6798 16.9973 50.9849 27.0883 40.8939Z" fill="#C1C1C1"/>
<path d="M27.1603 40.9661C39.7741 28.3524 57.0008 20.4958 76.1016 20.0634C76.6061 20.0634 78.4081 20.0634 78.9126 20.0634H159.64H241.666C240.368 46.372 220.763 68.1396 196.04 72.3202C191.067 76.5007 163.316 78.9514 156.325 78.9514H99.0946C91.0939 78.9514 62.1904 81.33 55.9917 85.4384C51.3066 86.88 46.8378 88.8261 42.5131 91.0605C25.7188 99.9262 12.6005 114.558 6.18555 132.361V116.793C6.18555 112.324 7.69919 82.9157 8.70829 78.8793C12.5284 64.6078 17.1414 50.985 27.1603 40.9661Z" fill="#C0C0C0"/>
<path d="M27.2328 41.0383C39.7744 28.4966 57.0732 20.568 76.1019 20.2076C76.6065 20.2076 78.4085 20.2076 78.913 20.2076H159.569H241.522C238.278 46.1559 220.763 67.9956 196.329 72.1762C191.211 76.3567 163.749 78.9515 156.686 78.9515H99.4553C91.5988 78.9515 62.4791 81.3301 56.3524 85.3665C51.6673 86.8081 47.1264 88.6821 42.8738 90.9165C26.0075 99.7101 12.8171 114.27 6.33008 132.001V116.504C6.33008 111.963 7.84371 82.9158 8.92488 78.8074C12.6009 64.5358 17.286 50.9851 27.2328 41.0383Z" fill="#BFBFBF"/>
<path d="M27.3043 41.1106C39.8459 28.5689 57.0726 20.6403 76.1734 20.2799C76.6779 20.2799 78.4799 20.2799 78.9845 20.2799H159.568H241.449C238.206 46.0119 220.907 67.7075 196.616 71.9601C191.427 76.2127 164.181 78.8075 156.973 78.8075H99.8151C92.1027 78.8075 62.6947 81.114 56.7122 85.0784C52.0271 86.5199 47.4862 88.3219 43.2336 90.5563C26.2952 99.2057 13.1048 113.693 6.47363 131.425V116C6.47363 111.387 7.98726 82.6277 9.06844 78.4471C12.7444 64.3919 17.4295 50.9853 27.3043 41.1106Z" fill="#BEBEBE"/>
<path d="M27.3043 41.1823C39.8459 28.6407 57.0726 20.7121 76.1013 20.3517C76.6059 20.3517 78.4078 20.3517 78.9124 20.3517H159.424H241.305C239.935 46.0837 220.907 67.4189 196.833 71.7436C191.571 76.0683 164.541 78.7352 157.262 78.7352H100.103C92.4631 78.7352 62.911 81.0417 57.0006 84.9339C52.3155 86.3034 47.7745 88.1774 43.4498 90.3398C26.5114 98.9171 13.1769 113.333 6.47363 131.064V115.711C6.47363 111.026 7.98724 82.6274 9.1405 78.3748C12.8886 64.3195 17.5016 50.985 27.3043 41.1823Z" fill="#BDBDBD"/>
<path d="M27.3768 41.2546C39.9184 28.7129 57.1451 20.8564 76.1738 20.496C76.6783 20.496 78.4803 20.496 78.9849 20.496H159.424H241.233C237.99 45.8676 220.979 67.2028 197.193 71.5995C191.86 75.9963 165.046 78.6632 157.622 78.6632H100.464C92.9681 78.6632 63.1276 80.8977 57.3614 84.7899C52.6042 86.1594 48.1353 87.9613 43.8106 90.1237C26.8001 98.6289 13.3935 112.973 6.61816 130.632V115.351C6.61816 110.594 8.13182 82.4834 9.28507 78.2308C12.9611 64.2475 17.6462 50.9851 27.3768 41.2546Z" fill="#BCBCBC"/>
<path d="M27.4488 41.2546C39.9905 28.7129 57.1451 20.8564 76.1738 20.496C76.6063 20.496 78.5524 20.496 78.9849 20.496H159.352H241.089C237.846 45.6513 221.051 66.8424 197.41 71.3112C192.004 75.7801 165.407 78.5191 157.911 78.5191H100.753C93.4006 78.5191 63.3438 80.7535 57.5776 84.5016C52.8204 85.8711 48.3516 87.6009 44.0269 89.7633C26.9443 98.1965 13.5377 112.468 6.61816 130.055V114.847C6.61816 110.017 8.20392 82.2671 9.35718 77.8704C13.1053 64.1034 17.7903 50.9851 27.4488 41.2546Z" fill="#BBBBBB"/>
<path d="M27.5204 41.3266C40.0621 28.7849 57.2168 20.9284 76.2454 20.568C76.6779 20.568 78.624 20.568 79.0565 20.568H159.352H241.089C239.647 45.7233 221.195 66.554 197.842 71.0949C192.364 75.6359 166.055 78.3749 158.343 78.3749H101.185C93.9046 78.3749 63.6317 80.5372 58.0096 84.2853C53.2525 85.5827 48.7115 87.3847 44.4589 89.4749C27.3763 97.836 13.8256 112.035 6.83398 129.55V114.414C6.83398 109.513 8.41968 82.0509 9.64501 77.6541C13.2489 64.0313 17.934 50.9851 27.5204 41.3266Z" fill="#BABABA"/>
<path d="M27.5928 41.3985C40.1344 28.8569 57.289 21.0724 76.2457 20.712C76.6781 20.712 78.6242 20.712 79.0567 20.712H159.28H240.945C237.773 45.507 221.195 66.3376 198.058 70.9506C192.508 75.5637 166.416 78.3026 158.631 78.3026H101.545C94.4094 78.3026 63.9203 80.465 58.3702 84.0689C53.6131 85.3663 49.0721 87.0962 44.7474 89.1865C27.5927 97.4755 13.9699 111.603 6.90625 129.046V113.981C6.90625 109.008 8.49199 81.9066 9.71732 77.4377C13.3933 63.959 18.0063 50.9849 27.5928 41.3985Z" fill="#B9B9B9"/>
<path d="M27.665 41.4707C40.1346 29.0011 57.2892 21.1446 76.2459 20.7842C76.6783 20.7842 78.6244 20.7842 79.0569 20.7842H159.208H240.801C237.629 45.3629 221.268 66.0494 198.347 70.7345C192.724 75.4196 166.848 78.2307 158.92 78.2307H101.834C94.8421 78.2307 64.0646 80.3209 58.6587 83.9248C53.9015 85.2222 49.3606 86.9521 45.0359 88.9703C27.8092 97.1873 14.1864 111.243 6.97852 128.613V113.693C6.97852 108.72 8.56424 81.8346 9.86165 77.2936C13.4656 63.815 18.1507 50.985 27.665 41.4707Z" fill="#B8B8B8"/>
<path d="M27.7376 41.5426C40.2072 29.073 57.3618 21.2165 76.3184 20.8561C76.7509 20.8561 78.697 20.8561 79.1295 20.8561H159.209H240.801C239.288 45.3627 221.412 65.7609 198.708 70.5181C193.013 75.2752 167.353 78.0863 159.353 78.0863H102.267C95.4192 78.0863 64.4255 80.1766 59.0917 83.7084C54.3346 84.9338 49.7936 86.6636 45.4689 88.6818C28.2422 96.7546 14.4752 110.738 7.19531 128.109V113.261C7.19531 108.215 8.85311 81.6902 10.0784 77.0772C13.6103 63.7427 18.2954 50.9848 27.7376 41.5426Z" fill="#B7B7B7"/>
<path d="M27.8093 41.615C40.2789 29.1455 57.4335 21.2889 76.3181 21.0006C76.7505 21.0006 78.6967 21.0006 79.1292 21.0006H159.136H240.657C237.485 45.1469 221.412 65.6171 198.923 70.3743C193.157 75.2035 167.713 78.0867 159.569 78.0867H102.483C95.7072 78.0867 64.4972 80.1049 59.3076 83.5646C54.5504 84.79 50.0095 86.4478 45.6127 88.466C28.3139 96.4667 14.5469 110.378 7.05078 127.677V112.901C7.05078 107.783 8.70857 81.5464 10.006 76.9334C13.7541 63.671 18.4392 50.9852 27.8093 41.615Z" fill="#B6B6B6"/>
<path d="M27.881 41.6868C40.3506 29.2172 57.4332 21.4328 76.3898 21.0724C76.8223 21.0724 78.7683 21.0724 79.2008 21.0724H159.136H240.584C237.413 45.0745 221.556 65.3285 199.283 70.1577C193.373 75.0591 168.218 77.9422 160.001 77.9422H102.915C96.2834 77.9422 64.8572 79.9604 59.7396 83.3481C54.9825 84.5734 50.3695 86.2312 46.0448 88.1773C28.7459 96.106 14.8348 109.945 7.2666 127.172V112.468C7.2666 107.278 8.92439 81.402 10.2218 76.6448C13.8257 63.5265 18.5108 50.9849 27.881 41.6868Z" fill="#B5B5B5"/>
<path d="M27.8812 41.7593C40.3508 29.2897 57.4333 21.5052 76.3179 21.2169C76.7504 21.2169 78.6965 21.2169 79.129 21.2169H158.992H240.44C238.855 45.1469 221.556 65.1127 199.5 70.014C193.517 74.9874 168.578 77.9426 160.217 77.9426H103.203C96.716 77.9426 65.0737 79.8887 60.0282 83.2043C55.271 84.3576 50.658 86.0154 46.3333 88.0336C28.9624 95.8901 14.9792 109.657 7.33887 126.812V112.18C7.33887 106.918 8.99668 81.4024 10.3662 76.5731C13.9701 63.4549 18.6552 50.9853 27.8812 41.7593Z" fill="#B4B4B4"/>
<path d="M27.9535 41.8312C40.423 29.3616 57.5056 21.5771 76.3901 21.2888C76.8226 21.2888 78.7687 21.2888 79.2012 21.2888H158.992H240.368C237.197 44.8584 221.628 64.8241 199.86 69.7976C193.806 74.771 169.083 77.7983 160.65 77.7983H103.636C97.2208 77.7983 65.3621 79.7444 60.3887 82.9879C55.6316 84.1412 51.0185 85.799 46.6217 87.7451C29.1788 95.5295 15.1956 109.224 7.41113 126.379V111.747C7.41113 106.413 9.14102 81.1859 10.4384 76.3567C14.1144 63.3826 18.7995 50.9851 27.9535 41.8312Z" fill="#B3B3B3"/>
<path d="M28.0255 41.8312C40.423 29.4337 57.5056 21.5771 76.3901 21.2888C76.7505 21.2888 78.7687 21.2888 79.2012 21.2888H158.92H240.224C237.053 44.7143 221.7 64.4638 200.077 69.5092C193.95 74.5547 169.443 77.6541 160.866 77.6541H103.852C97.5812 77.6541 65.5063 79.5281 60.605 82.7717C55.8478 83.9249 51.2348 85.5106 46.838 87.4568C29.395 95.1691 15.2677 108.792 7.41113 125.875V111.387C7.41113 105.981 9.141 81.1139 10.5105 76.1405C14.2586 63.2384 18.9437 50.9851 28.0255 41.8312Z" fill="#B2B2B2"/>
<path d="M28.0974 41.903C40.4949 29.5055 57.5775 21.7211 76.462 21.4327C76.8224 21.4327 78.8406 21.4327 79.2731 21.4327H158.92H240.224C238.566 44.7861 221.844 64.2473 200.509 69.3649C194.31 74.4824 170.02 77.5818 161.37 77.5818H104.356C98.2297 77.5818 65.8665 79.4558 61.1093 82.5552C56.3521 83.7084 51.7391 85.2221 47.3423 87.1682C29.8273 94.7364 15.6999 108.359 7.69922 125.37V110.954C7.69922 105.476 9.42912 80.8974 10.8707 75.924C14.3304 63.1661 19.0156 50.9849 28.0974 41.903Z" fill="#B1B1B1"/>
<path d="M28.1693 41.9753C40.5668 29.5778 57.6493 21.7933 76.4618 21.505C76.8222 21.505 78.8404 21.505 79.2729 21.505H158.847H240.08C236.98 44.498 221.844 63.9592 200.725 69.1488C194.454 74.3385 170.38 77.5099 161.586 77.5099H104.572C98.5899 77.5099 66.0104 79.3119 61.3253 82.4112C56.4961 83.4924 51.8831 85.0781 47.4863 86.9522C29.8992 94.4483 15.6997 107.927 7.62695 124.937V110.594C7.62695 105.044 9.35685 80.8255 10.7984 75.78C14.4744 63.0942 19.1595 50.9851 28.1693 41.9753Z" fill="#B0B0B0"/>
<path d="M28.2409 42.0475C40.6384 29.65 57.6489 21.8656 76.4614 21.5773C76.8218 21.5773 78.84 21.5773 79.2725 21.5773H158.775H239.935C236.836 44.354 221.916 63.6711 201.013 69.0049C194.67 74.2666 170.812 77.438 161.946 77.438H105.004C99.094 77.438 66.2983 79.1679 61.7574 82.2673C56.9281 83.3484 52.3152 84.8621 47.9184 86.7361C30.3313 94.1602 15.9876 107.567 7.84277 124.505V110.234C7.84277 104.612 9.57265 80.6815 11.0863 75.564C14.6181 62.9503 19.3032 50.9852 28.2409 42.0475Z" fill="#AFAFAF"/>
<path d="M28.3142 42.1195C40.7117 29.722 57.7221 22.0096 76.5346 21.7213C76.895 21.7213 78.9132 21.7213 79.3457 21.7213H158.776H239.864C238.134 44.4981 221.989 63.5268 201.302 68.8606C194.887 74.1944 171.246 77.4379 162.236 77.4379H105.294C99.5276 77.4379 66.5157 79.1678 62.0469 82.123C57.2176 83.2042 52.6046 84.6457 48.2078 86.5198C30.5486 93.8718 16.205 107.206 7.91602 124.073V109.873C7.91602 104.179 9.6459 80.6093 11.1595 75.4197C14.6914 62.8781 19.4485 50.9851 28.3142 42.1195Z" fill="#AEAEAE"/>
<path d="M28.3855 42.1914C40.783 29.7939 57.7934 22.0815 76.5338 21.7932C76.8942 21.7932 78.9124 21.7932 79.3449 21.7932H158.703H239.791C236.692 44.2096 222.06 63.2383 201.59 68.6442C195.103 74.05 171.677 77.2936 162.595 77.2936H105.653C100.031 77.2936 66.7312 78.9514 62.4065 81.9066C57.5772 82.9157 52.9642 84.4293 48.4954 86.2313C30.7641 93.5112 16.3484 106.774 7.9873 123.568V109.44C7.9873 103.674 9.78925 80.3929 11.3029 75.1312C14.8347 62.8058 19.5198 50.9849 28.3855 42.1914Z" fill="#ADADAD"/>
<path d="M28.4578 42.2635C40.8553 29.8661 57.7937 22.1537 76.6061 21.8654C76.9665 21.8654 79.0568 21.8654 79.3451 21.8654H158.631H239.647C236.548 44.0655 222.132 62.95 201.878 68.428C195.319 73.9059 172.11 77.1495 162.884 77.1495H105.942C100.392 77.1495 66.9476 78.8073 62.695 81.6183C57.8658 82.6274 53.2527 84.069 48.7839 85.871C31.0526 93.0788 16.4927 106.269 8.05957 122.991V108.936C8.05957 103.098 9.86156 80.1768 11.3752 74.843C14.9791 62.6617 19.6642 50.985 28.4578 42.2635Z" fill="#ACACAC"/>
<path d="M28.4584 42.3355C40.7838 30.0101 57.7942 22.2256 76.5346 22.0094C76.895 22.0094 78.9853 22.0094 79.2736 22.0094H158.488H239.432C236.332 43.9933 222.061 62.7337 202.023 68.2837C195.32 73.8338 172.399 77.1494 163.029 77.1494H106.087C100.681 77.1494 67.0203 78.7351 62.7676 81.5461C57.9384 82.5552 53.2533 83.9968 48.8565 85.7267C31.0532 92.8624 16.4933 105.981 7.91602 122.631V108.648C7.91602 102.737 9.71794 80.1046 11.3037 74.7708C15.1238 62.5895 19.8089 50.9849 28.4584 42.3355Z" fill="#ABABAB"/>
<path d="M28.53 42.4079C40.8554 30.0825 57.8659 22.3701 76.6063 22.0818C76.9667 22.0818 79.0569 22.0818 79.3453 22.0818H158.487H239.431C236.332 43.9215 222.205 62.4457 202.455 68.0678C195.68 73.6899 172.975 77.0055 163.533 77.0055H106.591C101.329 77.0055 67.3803 78.5912 63.2718 81.3302C58.4425 82.2672 53.7574 83.7088 49.2886 85.4387C31.4131 92.4303 16.7812 105.549 8.13184 122.127V108.215C8.13184 102.233 9.93379 79.9607 11.5916 74.4827C15.1955 62.5177 19.9527 50.9852 28.53 42.4079Z" fill="#AAAAAA"/>
<path d="M28.6024 42.4078C40.9278 30.0824 57.8663 22.37 76.6067 22.0817C76.967 22.0817 79.0573 22.0817 79.3456 22.0817H158.416H239.36C236.332 43.7052 222.349 62.0852 202.744 67.7793C195.896 73.4735 173.408 76.8612 163.821 76.8612H106.952C101.762 76.8612 67.6689 78.3749 63.6325 81.0418C58.8033 81.9788 54.1182 83.3483 49.6493 85.0782C31.7739 91.9977 17.0699 104.972 8.27637 121.622V107.783C8.27637 101.728 10.0783 79.7444 11.7361 74.2664C15.34 62.3735 20.0251 50.9851 28.6024 42.4078Z" fill="#A9A9A9"/>
<path d="M28.6738 42.4797C40.9992 30.1543 57.9376 22.4419 76.6059 22.2257C76.8942 22.2257 79.0565 22.2257 79.3448 22.2257H158.343H239.143C237.341 43.7771 222.276 61.8688 202.959 67.6351C196.04 73.4014 173.768 76.789 164.109 76.789H107.239C102.194 76.789 67.8123 78.3027 63.9201 80.8975C59.0908 81.8345 54.4057 83.204 49.9369 84.8618C31.9894 91.7093 17.2133 104.611 8.34766 121.189V107.422C8.34766 101.296 10.2217 79.6722 11.8795 74.1221C15.4834 62.3013 20.1685 50.985 28.6738 42.4797Z" fill="#A8A8A8"/>
<path d="M28.746 42.552C41.0714 30.2266 58.0098 22.5863 76.6781 22.298C76.9665 22.298 79.1288 22.298 79.4171 22.298H158.343H239.143C236.116 43.5611 222.421 61.5807 203.32 67.419C196.328 73.1853 174.272 76.7171 164.47 76.7171H107.6C102.698 76.7171 68.1008 78.1587 64.2807 80.6815C59.4514 81.5464 54.7663 82.9159 50.2254 84.6458C32.2058 91.4211 17.3576 104.251 8.41992 120.757V107.062C8.41992 100.863 10.294 79.5282 11.9518 73.9061C15.5557 62.1573 20.3129 50.9852 28.746 42.552Z" fill="#A7A7A7"/>
<path d="M28.8183 42.6241C41.1437 30.2987 58.01 22.6584 76.6783 22.4421C76.9666 22.4421 79.129 22.4421 79.4173 22.4421H158.271H238.999C235.972 43.489 222.493 61.3644 203.536 67.2749C196.473 73.1132 174.633 76.6451 164.758 76.6451H107.888C103.131 76.6451 68.2451 78.0866 64.5692 80.5373C59.7399 81.4023 54.9827 82.6997 50.5139 84.4295C32.4943 91.1328 17.5741 103.891 8.49219 120.325V106.702C8.49219 100.431 10.3662 79.4561 12.0961 73.7619C15.7 62.0852 20.4572 50.9852 28.8183 42.6241Z" fill="#A6A6A6"/>
<path d="M28.8907 42.6957C41.144 30.4424 58.0825 22.73 76.7508 22.5138C77.0391 22.5138 79.2014 22.5138 79.4897 22.5138H158.271H238.927C235.9 43.3444 222.565 61.1478 203.897 67.0582C196.761 72.9686 175.138 76.5726 165.119 76.5726H108.249C103.564 76.5726 68.5338 77.9421 64.9299 80.3927C60.0286 81.2577 55.3435 82.5551 50.8746 84.2129C32.783 90.8441 17.7907 103.53 8.63672 119.892V106.341C8.63672 99.998 10.5108 79.3115 12.2406 73.6174C15.8446 62.0127 20.5296 50.9848 28.8907 42.6957Z" fill="#A5A5A5"/>
<path d="M28.9622 42.768C41.2155 30.5147 58.0819 22.8023 76.7502 22.5861C77.0385 22.5861 79.2009 22.5861 79.4892 22.5861H158.199H238.854C235.827 43.2005 222.637 60.8597 204.185 66.8422C196.977 72.8247 175.57 76.4286 165.479 76.4286H108.681C104.14 76.4286 68.8216 77.7981 65.3618 80.1046C60.4605 80.8975 55.7754 82.1949 51.2345 83.8527C33.0707 90.3397 18.0063 103.026 8.78027 119.315V105.909C8.78027 99.4937 10.6543 79.1676 12.4563 73.3293C15.9881 61.8688 20.6732 50.9849 28.9622 42.768Z" fill="#A4A4A4"/>
<path d="M29.0345 42.8403C41.2878 30.587 58.1541 22.9467 76.8224 22.7305C77.1107 22.7305 79.2731 22.7305 79.5614 22.7305H158.199H238.783C235.755 43.2007 222.781 60.6437 204.545 66.6983C197.265 72.7529 176.074 76.4289 165.839 76.4289H109.041C104.645 76.4289 69.1101 77.7263 65.6503 80.0328C60.749 80.8256 56.0639 82.1231 51.5229 83.7088C33.3592 90.1237 18.2227 102.665 8.85254 118.955V105.621C8.85254 99.1335 10.7266 79.0958 12.5285 73.2574C16.0604 61.797 20.8175 50.9852 29.0345 42.8403Z" fill="#A3A3A3"/>
<path d="M29.0337 42.9122C41.287 30.6589 58.1534 23.0186 76.7496 22.8024C77.0379 22.8024 79.2003 22.8024 79.4886 22.8024H158.054H238.638C235.61 43.0564 222.78 60.3552 204.761 66.4819C197.337 72.6085 176.434 76.2845 166.127 76.2845H109.329C105.004 76.2845 69.3255 77.5819 65.9378 79.8164C61.0365 80.6092 56.3514 81.8346 51.8105 83.4203C33.5746 89.7632 18.3661 102.233 8.92383 118.45V105.188C8.92383 98.6288 10.7979 78.9514 12.6719 73.041C16.2038 61.7247 20.9609 50.985 29.0337 42.9122Z" fill="#A2A2A2"/>
<path d="M29.1065 42.9843C41.3599 30.7309 58.1542 23.0906 76.7504 22.8744C77.0387 22.8744 79.201 22.8744 79.4893 22.8744H157.983H238.422C235.467 42.9122 222.709 60.0668 204.978 66.2656C197.482 72.4643 176.795 76.2124 166.344 76.2124H109.546C105.365 76.2124 69.3984 77.4377 66.1548 79.6001C61.2535 80.3929 56.5684 81.5462 51.9554 83.1319C33.6475 89.4027 18.439 101.8 8.85254 117.946V104.755C8.85254 98.1242 10.7266 78.7351 12.6727 72.7526C16.3487 61.5805 21.1058 50.985 29.1065 42.9843Z" fill="#A1A1A1"/>
<path d="M29.1784 42.9842C41.4318 30.7309 58.226 23.0906 76.8222 22.9464C77.1105 22.9464 79.2729 22.9464 79.5612 22.9464H158.055H238.494C235.539 42.768 221.628 56.8233 205.41 66.0493C196.905 70.8785 177.372 76.0682 166.848 76.0682H110.05C106.014 76.0682 69.8307 77.2935 66.6592 79.3838C61.7579 80.1046 57.0007 81.3299 52.4598 82.8435C34.1518 89.0423 18.7991 101.368 9.14062 117.441V104.323C9.14062 97.6196 11.0868 78.5188 12.9608 72.5363C16.4206 61.5084 21.1777 50.9849 29.1784 42.9842Z" fill="#A0A0A0"/>
<path d="M29.2507 43.0565C41.504 30.8032 58.2983 23.2349 76.8224 23.0187C77.0386 23.0187 79.273 23.0187 79.5614 23.0187H157.983H238.35C235.395 42.6961 221.7 56.6793 205.626 65.8332C197.049 70.7346 177.732 75.9963 167.065 75.9963H110.339C106.375 75.9963 69.9749 77.1495 66.9476 79.1677C62.0463 79.8885 57.2891 81.0418 52.7482 82.5554C34.3682 88.6821 18.9435 100.935 9.21289 116.937V103.891C9.21289 97.1152 11.159 78.3749 13.1051 72.3203C16.5649 61.4364 21.322 50.9851 29.2507 43.0565Z" fill="#9F9F9F"/>
<path d="M29.3229 43.1287C41.5042 30.9475 58.2984 23.3072 76.8947 23.0909C77.1109 23.0909 79.4174 23.0909 79.6337 23.0909H157.911H238.206C235.251 42.5521 221.7 56.4632 205.915 65.6172C197.266 70.6627 178.165 75.8523 167.425 75.8523H110.699C106.879 75.8523 70.2635 77.0056 67.3082 78.9517C62.4069 79.6725 57.6498 80.7536 53.0367 82.2673C34.6568 88.3219 19.1599 100.503 9.28516 116.505V103.53C9.28516 96.683 11.2313 78.2309 13.1774 72.1042C16.7092 61.2925 21.4664 50.9853 29.3229 43.1287Z" fill="#9E9E9E"/>
<path d="M29.3944 43.2007C41.5757 31.0194 58.3699 23.3791 76.8941 23.235C77.1103 23.235 79.4168 23.235 79.6331 23.235H157.91H238.205C235.25 42.4799 221.916 56.391 206.275 65.4729C197.553 70.5905 178.669 75.7801 167.785 75.7801H111.059C107.383 75.7801 70.4791 76.8613 67.668 78.8074C62.7667 79.4561 58.0095 80.6094 53.3965 82.0509C34.9445 87.9613 19.3755 100.143 9.42871 116.072V103.17C9.42871 96.2504 11.3748 78.1587 13.393 71.9599C16.8528 61.2203 21.61 50.9851 29.3944 43.2007Z" fill="#9D9D9D"/>
<path d="M29.4671 43.2725C41.6483 31.0912 58.4426 23.523 76.9667 23.3068C77.183 23.3068 79.4895 23.3068 79.7057 23.3068H157.911H238.134C235.179 42.4075 222.06 56.1745 206.636 65.2564C197.842 70.446 179.174 75.7077 168.218 75.7077H111.492C107.96 75.7077 70.8401 76.7889 68.1011 78.5909C63.1998 79.2396 58.4426 80.3208 53.8295 81.7623C35.3054 87.6007 19.7365 99.6378 9.64551 115.567V102.737C9.64551 95.7455 11.5916 77.9422 13.6098 71.7434C16.9254 61.0758 21.6826 51.0569 29.4671 43.2725Z" fill="#9C9C9C"/>
<path d="M29.5398 43.3447C41.721 31.1635 58.4432 23.5953 76.9673 23.379C77.1836 23.379 79.4901 23.379 79.7063 23.379H157.839H237.99C235.035 42.2636 222.061 55.9585 206.853 65.0403C197.987 70.3021 179.535 75.5638 168.435 75.5638H111.709C108.249 75.5638 70.9127 76.5729 68.2458 78.3748C63.3445 79.0235 58.5153 80.1047 53.9023 81.4742C35.3781 87.2405 19.665 99.2055 9.50195 115.063V102.377C9.50195 95.3132 11.4481 77.8703 13.5384 71.5274C17.0702 61.0039 21.8274 51.0571 29.5398 43.3447Z" fill="#9B9B9B"/>
<path d="M29.6118 43.4172C41.793 31.2359 58.5152 23.6677 77.0394 23.5236C77.2556 23.5236 79.5621 23.5236 79.7783 23.5236H157.839H237.99C235.035 42.1919 222.277 55.8867 207.285 64.8965C198.347 70.2303 180.111 75.5641 168.939 75.5641H112.286C108.97 75.5641 71.4173 76.5732 68.8224 78.231C63.9211 78.8077 59.0919 79.8889 54.4788 81.2583C35.8826 86.9525 20.0974 98.8455 9.8623 114.631V101.945C9.8623 94.8091 11.8084 77.6544 13.8987 71.3115C17.2143 60.9322 21.9715 51.0575 29.6118 43.4172Z" fill="#9A9A9A"/>
<path d="M29.6106 43.4889C41.7919 31.3077 58.514 23.7395 76.9661 23.5953C77.1824 23.5953 79.4888 23.5953 79.7051 23.5953H157.694H237.773C234.89 42.0474 222.276 55.6702 207.428 64.68C198.418 70.158 180.399 75.4197 169.082 75.4197H112.429C109.257 75.4197 71.4881 76.3567 68.9654 78.0145C63.992 78.5911 59.2348 79.6002 54.6218 81.0418C35.9535 86.6639 20.1683 98.4847 9.78906 114.198V101.584C9.78906 94.3763 11.7352 77.582 13.8975 71.1671C17.2852 60.7878 22.1145 51.0572 29.6106 43.4889Z" fill="#999999"/>
<path d="M29.6839 43.5609C41.793 31.4518 58.5152 23.8835 76.9673 23.7394C77.1835 23.7394 79.49 23.7394 79.7063 23.7394H157.623H237.63C234.747 42.0473 222.349 55.598 207.717 64.5357C198.636 70.0858 180.832 75.4196 169.444 75.4196H112.79C109.691 75.4196 71.7055 76.3566 69.327 77.9423C64.3536 78.519 59.5964 79.5281 54.9113 80.8975C36.243 86.4476 20.3137 98.1963 9.8623 113.837V101.296C9.8623 94.0158 11.8085 77.5098 14.0429 71.0228C17.4306 60.7156 22.1877 51.0571 29.6839 43.5609Z" fill="#989898"/>
<path d="M29.7551 43.5611C41.8643 31.4519 58.5865 23.8837 77.0385 23.7395C77.2548 23.7395 79.5613 23.7395 79.7775 23.7395H157.622H237.629C234.746 41.8312 222.493 55.3098 208.077 64.2476C198.923 69.8697 181.336 75.2035 169.803 75.2035H113.15C110.195 75.2035 71.993 76.0684 69.6865 77.5821C64.7131 78.0866 59.956 79.0957 55.2709 80.4652C36.5305 85.8711 20.5291 97.6198 9.93359 113.189V100.719C9.93359 93.3672 11.8797 77.2217 14.1141 70.6625C17.5739 60.5716 22.3311 51.0572 29.7551 43.5611Z" fill="#979797"/>
<path d="M29.8274 43.6332C41.9366 31.524 58.6588 23.9558 77.0387 23.8116C77.1829 23.8116 79.5615 23.8116 79.7777 23.8116H157.55H237.485C234.602 41.6871 222.565 55.1657 208.293 64.0314C199.067 69.7976 181.697 75.1315 170.092 75.1315H113.438C110.627 75.1315 72.1374 75.9964 69.9751 77.438C65.0017 77.9425 60.1724 78.8795 55.5594 80.249C36.7469 85.5828 20.7455 97.2595 10.0059 112.756V100.359C10.0059 92.9348 11.952 77.0776 14.2585 70.5184C17.7183 60.4995 22.4754 51.0573 29.8274 43.6332Z" fill="#969696"/>
<path d="M29.9001 43.7052C42.0093 31.596 58.6594 24.0278 77.1114 23.9557C77.2556 23.9557 79.6342 23.9557 79.8504 23.9557H157.551H237.414C234.531 41.687 222.71 55.0215 208.654 63.8871C199.428 69.7254 182.202 75.0592 170.453 75.0592H113.871C111.204 75.0592 72.4984 75.8521 70.4081 77.2216C65.4347 77.7262 60.6054 78.6632 55.9924 79.9606C37.18 85.2223 21.0344 96.7548 10.2227 112.252V99.9263C10.2227 92.4301 12.1688 76.9333 14.4753 70.23C17.7909 60.4273 22.6202 51.0572 29.9001 43.7052Z" fill="#959595"/>
<path d="M29.9713 43.7772C42.0805 31.668 58.7306 24.1719 77.1106 24.0277C77.2548 24.0277 79.6333 24.0277 79.8496 24.0277H157.478H237.341C234.458 41.5428 222.853 54.8773 208.942 63.6708C199.644 69.5812 182.633 74.9871 170.812 74.9871H114.231C111.636 74.9871 72.7138 75.78 70.7677 77.0774C65.7943 77.5819 60.965 78.4469 56.2799 79.7443C37.3954 84.9339 21.2499 96.3944 10.2939 111.891V99.6379C10.2939 92.0697 12.2401 76.8612 14.6186 70.1579C17.9343 60.2831 22.6914 51.0571 29.9713 43.7772Z" fill="#949494"/>
<path d="M30.0434 43.8493C42.1526 31.7402 58.8027 24.244 77.1827 24.0999C77.3268 24.0999 79.7054 24.0999 79.9216 24.0999H157.478H237.197C234.314 41.3987 222.925 54.6611 209.23 63.4546C199.86 69.5092 183.066 74.843 171.101 74.843H114.519C112.069 74.843 72.9301 75.5638 70.9839 76.8612C66.0105 77.2937 61.1813 78.2307 56.4962 79.4561C37.5396 84.5736 21.3219 95.962 10.2939 111.387V99.2055C10.2939 91.5652 12.2401 76.645 14.6186 69.9417C18.0784 60.2111 22.8356 51.0572 30.0434 43.8493Z" fill="#939393"/>
<path d="M30.1157 43.9216C42.2249 31.8846 58.8029 24.3163 77.1829 24.2443C77.327 24.2443 79.7056 24.2443 79.8498 24.2443H157.334H237.053C234.17 41.3268 222.925 54.5172 209.447 63.3107C200.004 69.4374 183.426 74.8433 171.389 74.8433H114.808C112.501 74.8433 73.0744 75.5641 71.2724 76.7173C66.299 77.1498 61.4698 78.0147 56.7847 79.2401C37.8281 84.2135 21.4663 95.6018 10.3662 110.955V98.8454C10.3662 91.133 12.3124 76.5732 14.763 69.7257C18.2228 60.0672 22.9799 51.0574 30.1157 43.9216Z" fill="#929292"/>
<path d="M30.1878 43.9934C42.2249 31.9563 58.875 24.4602 77.1829 24.316C77.327 24.316 79.7056 24.316 79.8498 24.316H157.262H236.909C234.097 41.2545 222.997 54.3727 209.735 63.0942C200.221 69.365 183.859 74.6988 171.678 74.6988H115.096C112.862 74.6988 73.2906 75.3475 71.5608 76.5008C66.5874 76.9332 61.686 77.7261 57.0009 78.9514C37.9722 83.8528 21.6104 95.1691 10.3662 110.45V98.4847C10.3662 90.7002 12.3124 76.4287 14.763 69.5812C18.2949 59.9948 23.1241 51.0571 30.1878 43.9934Z" fill="#919191"/>
<path d="M30.1883 44.0657C42.2254 32.0286 58.8755 24.5325 77.1834 24.3883C77.3276 24.3883 79.7783 24.3883 79.8503 24.3883H157.19H236.837C234.026 41.1105 223.142 54.1567 210.024 62.8782C200.51 69.2211 184.292 74.5549 172.039 74.5549H115.529C113.439 74.5549 73.6516 75.2036 71.9938 76.2847C67.0204 76.6451 62.119 77.5101 57.4339 78.6633C38.3332 83.4926 21.8993 94.7368 10.583 109.945V98.0524C10.583 90.1959 12.5291 76.2847 15.0519 69.2931C18.4396 59.923 23.1967 51.0573 30.1883 44.0657Z" fill="#909090"/>
<path d="M30.2596 44.1377C42.2967 32.1006 58.8747 24.6044 77.1826 24.5323C77.3268 24.5323 79.7775 24.5323 79.8495 24.5323H157.19H236.764C233.953 41.0383 223.285 54.0845 210.311 62.7339C200.725 69.2209 184.796 74.5547 172.326 74.5547H115.817C113.87 74.5547 73.7949 75.1314 72.2813 76.1405C67.3079 76.5009 62.4066 77.2937 57.7215 78.447C38.6207 83.2041 22.0427 94.3763 10.6543 109.513V97.6919C10.6543 89.7633 12.6004 76.1405 15.1952 69.1489C18.5829 59.7787 23.3401 51.0572 30.2596 44.1377Z" fill="#8F8F8F"/>
<path d="M30.3317 44.1377C42.3688 32.1006 58.9468 24.6044 77.2547 24.5323C77.3988 24.5323 79.8495 24.5323 79.9216 24.5323H157.118H236.62C233.809 40.8941 223.358 53.7962 210.6 62.4456C200.941 69.0047 185.228 74.3385 172.614 74.3385H116.105C114.231 74.3385 74.0112 74.9151 72.5696 75.8522C67.5962 76.2126 62.6949 76.9333 57.9377 78.0866C38.7648 82.7717 22.1868 93.7997 10.6543 108.936V97.1873C10.6543 89.1866 12.6004 75.9242 15.1952 68.8605C18.655 59.7066 23.4842 51.0572 30.3317 44.1377Z" fill="#8E8E8E"/>
<path d="M30.4041 44.2095C42.4412 32.1724 59.0192 24.7483 77.2551 24.6763C77.3992 24.6763 79.8499 24.6763 79.922 24.6763H157.046H236.548C233.737 40.8218 223.502 53.6518 210.888 62.3012C201.23 69.0045 185.661 74.3383 172.975 74.3383H116.466C114.736 74.3383 74.2278 74.8428 72.9303 75.7077C67.8849 75.9961 63.0556 76.7889 58.2984 77.8701C39.0535 82.411 22.4034 93.439 10.7988 108.503V96.8267C10.7988 88.7539 12.7449 75.7798 15.4118 68.6441C18.7995 59.5622 23.6287 51.0569 30.4041 44.2095Z" fill="#8D8D8D"/>
<path d="M30.4766 44.2819C42.5137 32.2448 59.0197 24.8207 77.3276 24.7487C77.3996 24.7487 79.9224 24.7487 79.9945 24.7487H157.046H236.477C233.666 40.678 223.647 53.5079 211.249 62.0853C201.519 68.8606 186.166 74.1944 173.336 74.1944H116.827C115.241 74.1944 74.5165 74.699 73.2911 75.4918C68.2457 75.7802 63.3443 76.5009 58.6592 77.6542C39.4143 82.1231 22.6921 93.079 10.9434 108.071V96.4666C10.9434 88.3218 12.8895 75.636 15.5564 68.5002C18.9441 59.4904 23.7013 51.0573 30.4766 44.2819Z" fill="#8C8C8C"/>
<path d="M30.5487 44.3537C42.5137 32.3887 59.0917 24.8925 77.3276 24.8204C77.3996 24.8204 79.9224 24.8204 79.9945 24.8204H156.974H236.332C233.521 40.6056 223.719 53.2914 211.465 61.9408C201.663 68.8603 186.526 74.1941 173.624 74.1941H117.187C115.745 74.1941 74.7327 74.6266 73.5795 75.4195C68.534 75.7078 63.6326 76.3565 58.8755 77.5097C39.5585 81.9065 22.7642 92.7903 10.9434 107.711V96.178C10.9434 87.9611 12.8895 75.6357 15.6285 68.4278C19.0882 59.346 23.8454 51.057 30.5487 44.3537Z" fill="#8B8B8B"/>
<path d="M30.6202 44.4261C42.5852 32.4611 59.1632 24.965 77.399 24.965C77.4711 24.965 79.9938 24.965 80.0659 24.965H156.974H236.332C233.521 40.5339 223.934 53.1476 211.897 61.797C202.095 68.7886 187.102 74.1224 174.056 74.1224H117.547C116.177 74.1224 75.0204 74.5549 73.9393 75.2036C68.8938 75.4198 63.9924 76.1406 59.2353 77.2218C39.8462 81.5465 22.9798 92.3582 11.0869 107.278V95.818C11.0869 87.529 13.033 75.4919 15.772 68.212C19.1597 59.2743 23.989 51.0573 30.6202 44.4261Z" fill="#8A8A8A"/>
<path d="M30.6916 44.4979C42.6566 32.5329 59.1626 25.1088 77.3984 25.0367C77.4705 25.0367 79.9932 25.0367 80.0653 25.0367H156.901H236.187C233.376 40.3894 224.006 53.0031 212.113 61.5805C202.238 68.7162 187.462 74.05 174.344 74.05H117.906C116.681 74.05 75.2361 74.4104 74.299 75.0591C69.2536 75.2754 64.3522 75.9241 59.595 77.0052C40.206 81.2579 23.2676 91.9976 11.2305 106.846V95.4573C11.2305 87.1683 13.1766 75.4195 15.9876 68.0675C19.3032 59.2019 24.1325 51.057 30.6916 44.4979Z" fill="#898989"/>
<path d="M30.7645 44.57C42.7295 32.605 59.2354 25.181 77.3992 25.1089C77.4713 25.1089 79.994 25.1089 80.0661 25.1089H156.83H236.044C233.305 40.2453 224.079 52.787 212.33 61.3643C202.455 68.6442 187.823 73.906 174.561 73.906H118.123C117.042 73.906 75.381 74.2664 74.516 74.7709C69.4706 74.9871 64.5692 75.6358 59.74 76.6449C40.2788 80.7534 23.2683 91.4931 11.1592 106.269V94.9528C11.1592 86.5918 13.1053 75.1313 15.9163 67.7793C19.4482 59.0578 24.2053 51.0571 30.7645 44.57Z" fill="#888888"/>
<path d="M30.7641 44.6423C42.7291 32.6772 59.235 25.2532 77.3988 25.2532C77.4708 25.2532 79.9936 25.2532 80.0657 25.2532H156.757H235.971C233.232 40.2455 224.222 52.643 212.69 61.2203C202.743 68.5723 188.327 73.9061 174.993 73.9061H118.556C117.546 73.9061 75.741 74.1944 74.9481 74.6989C69.9026 74.8431 64.9292 75.4918 60.1721 76.5009C40.6388 80.5373 23.6283 91.1328 11.375 105.909V94.6646C11.375 86.2315 13.3211 75.0593 16.2043 67.6352C19.5919 58.9858 24.3491 51.0572 30.7641 44.6423Z" fill="#878787"/>
<path d="M30.8364 44.7144C42.8014 32.7494 59.2352 25.3974 77.399 25.3253C77.4711 25.3253 79.9938 25.3253 80.0659 25.3253H156.685H235.827C233.088 40.1014 224.295 52.4268 212.906 61.0041C202.887 68.5003 188.688 73.762 175.209 73.762H118.844C117.979 73.762 75.8853 74.0503 75.2366 74.4827C70.1911 74.6269 65.2177 75.2036 60.4606 76.2126C40.9273 80.177 23.7727 90.7004 11.4473 105.404V94.2322C11.4473 85.727 13.3934 74.9152 16.3486 67.4191C19.6642 58.8418 24.4935 51.0573 30.8364 44.7144Z" fill="#868686"/>
<path d="M30.9088 44.7144C42.8017 32.8215 59.3077 25.3974 77.4714 25.3253C77.5435 25.3253 80.0662 25.3253 80.1383 25.3253H156.686H235.756C233.017 39.8851 224.439 52.2106 213.267 60.7158C203.248 68.3561 189.193 73.6178 175.642 73.6178H119.277C118.556 73.6178 76.2461 73.8341 75.6695 74.1944C70.624 74.3386 65.6506 74.9152 60.8213 75.8523C41.216 79.7445 23.9893 90.1958 11.5918 104.828V93.7277C11.5918 85.1504 13.5379 74.6269 16.4931 67.1308C19.8087 58.7697 24.638 51.0573 30.9088 44.7144Z" fill="#858585"/>
<path d="M30.9811 44.7863C42.874 32.8933 59.3079 25.4692 77.4716 25.4692C77.5437 25.4692 80.0664 25.4692 80.1385 25.4692H156.614H235.684C232.945 39.8849 224.584 52.0662 213.556 60.5714C203.537 68.3559 189.626 73.5455 175.931 73.5455H119.565C118.917 73.5455 76.3904 73.7618 75.958 74.0501C70.9125 74.1942 65.9391 74.6988 61.1099 75.6358C41.4325 79.4559 24.2057 89.8352 11.6641 104.395V93.3671C11.6641 84.7177 13.5381 74.5546 16.6375 66.9143C19.9531 58.6253 24.7824 51.0571 30.9811 44.7863Z" fill="#848484"/>
<path d="M31.0526 44.8584C42.9455 32.9655 59.3793 25.5414 77.5431 25.5414C77.5431 25.5414 80.1379 25.5414 80.21 25.5414H156.613H235.611C232.872 39.7408 224.727 51.85 213.915 60.3552C203.824 68.2118 190.13 73.4735 176.363 73.4735H119.997C119.493 73.4735 76.7502 73.6177 76.3178 73.906C71.2723 73.9781 66.2989 74.4826 61.4696 75.4196C41.7922 79.1677 24.4213 89.4749 11.8076 103.963V93.0067C11.8076 84.2853 13.6817 74.4105 16.781 66.7702C20.0966 58.5533 24.8538 51.0571 31.0526 44.8584Z" fill="#838383"/>
<path d="M31.1244 44.9304C43.0173 33.0375 59.4512 25.6855 77.5429 25.6134H80.2098H156.541H235.467C232.728 39.5966 224.799 51.6337 214.131 60.1389C204.04 68.1396 190.49 73.3293 176.579 73.3293H120.213C119.853 73.3293 76.8221 73.4734 76.5338 73.6176C71.4883 73.6897 66.4428 74.1942 61.6136 75.0592C41.8641 78.7352 24.4211 88.9703 11.7354 103.386V92.5021C11.7354 83.7086 13.6094 74.1222 16.7808 66.4818C20.1685 58.4091 24.9977 51.0571 31.1244 44.9304Z" fill="#828282"/>
<path d="M31.1969 45.0024C43.0898 33.1094 59.4516 25.7574 77.5433 25.7574H80.2102H156.469H235.323C232.584 39.5965 224.871 51.5615 214.42 59.9947C204.257 68.1395 190.923 73.2571 176.939 73.2571H120.574C120.358 73.2571 77.1108 73.3292 76.8945 73.4733C71.777 73.5454 66.8036 73.9779 61.9743 74.8428C42.2249 78.3746 24.7098 88.6098 11.8799 102.953V92.1416C11.8799 83.276 13.7539 74.0499 16.9254 66.2655C20.3131 58.3369 25.1423 51.0569 31.1969 45.0024Z" fill="#818181"/>
<path d="M31.2685 45.0746C43.1615 33.1817 59.5232 25.8297 77.6149 25.8297H80.2818H156.469H235.322C232.656 39.4525 225.087 51.3455 214.78 59.7786C204.617 68.0676 191.427 73.1852 177.299 73.1852H121.006C120.862 73.1852 77.3987 73.2573 77.3266 73.2573C72.2091 73.2573 67.2356 73.7618 62.4064 74.5547C42.5848 78.0145 24.9977 88.1054 12.0957 102.521V91.7814C12.0957 82.8437 13.9697 73.906 17.2132 66.1215C20.4568 58.265 25.286 51.0571 31.2685 45.0746Z" fill="#808080"/>
<path d="M12.0957 91.4209C12.0957 82.4111 13.8977 73.7617 17.2854 65.9772C20.673 58.1928 25.4302 51.057 31.3406 45.1466C43.2336 33.2537 59.5953 25.9738 77.6149 25.9738H156.397H235.178C232.511 39.3803 225.159 51.2012 214.996 59.6344C204.833 68.0675 191.787 73.113 177.588 73.113H77.6149C51.6667 73.113 28.3133 84.2852 12.0957 102.089V91.4209Z" fill="#7F7F7F"/>
</g>
<path d="M247.864 0.314087H77.6152C35.0169 0.314087 0.563477 34.8396 0.563477 77.3659V147.642C0.563477 105.044 35.089 70.5905 77.6152 70.5905H177.588C216.438 70.6626 247.864 39.1643 247.864 0.314087Z" fill="#FDB03E"/>
</svg>
