<svg width="248" height="162" viewBox="0 0 248 162" fill="none" xmlns="http://www.w3.org/2000/svg">
<g opacity="0.3">
<path d="M247.899 14.3693H162.774H77.6495C56.3863 14.3693 37.0693 23.0187 23.1582 36.9298C9.17502 50.913 0.597656 70.1579 0.597656 91.421V161.697C0.597656 140.434 9.2471 121.117 23.1582 107.206C37.1414 93.223 56.3863 84.6457 77.6495 84.6457H177.622C216.472 84.6457 247.899 53.1474 247.899 14.3693Z" fill="white"/>
<path d="M23.2306 37.0019C36.493 23.7395 54.5847 15.3064 74.6946 14.5135C75.7037 14.4414 76.7127 14.4414 77.7218 14.4414H162.774H247.899C247.899 53.0754 216.617 84.3574 177.983 84.4295C177.911 84.5016 136.249 84.5016 136.105 84.5016H78.0102C62.4412 84.5016 47.5931 89.1867 35.4839 97.1874C31.1592 99.9984 27.1229 103.314 23.5189 106.918C9.53573 120.757 0.814266 140.002 0.742188 161.193V140.939C0.742188 140.867 0.74217 91.2049 0.814248 91.1328C0.74217 70.0859 9.31948 50.9131 23.2306 37.0019Z" fill="#FEFEFE"/>
<path d="M23.3029 37.0738C36.5653 23.8114 54.657 15.3783 74.6948 14.5854C75.7039 14.5133 76.7129 14.5133 77.722 14.5133H162.702H247.755C247.683 52.9311 216.617 84.0689 178.271 84.2131C178.127 84.3572 136.682 84.4293 136.466 84.4293H78.3708C62.8739 84.4293 47.8095 89.0423 35.8445 97.043C31.5198 99.8541 27.4835 103.098 23.8075 106.702C9.75219 120.469 1.03069 139.641 0.814453 160.76V140.578C0.814453 140.434 0.814436 91.1326 0.886514 90.9885C0.886514 69.9416 9.46382 50.9129 23.3029 37.0738Z" fill="#FDFDFD"/>
<path d="M23.3752 37.1459C36.6376 23.8835 54.7293 15.4503 74.7671 14.7296C75.7041 14.6575 76.7852 14.6575 77.7222 14.6575H162.631H247.611C247.539 52.859 216.617 83.9248 178.488 84.069C178.272 84.2852 137.043 84.3573 136.682 84.3573H78.6593C63.3066 84.3573 48.026 88.9703 36.1331 96.8268C31.8084 99.6379 27.772 102.809 24.096 106.413C10.0407 120.108 1.17503 139.137 0.886719 160.256V140.146C0.886719 139.93 0.95885 90.9164 1.03093 90.7722C1.03093 69.8695 9.60825 50.9129 23.3752 37.1459Z" fill="#FCFCFC"/>
<path d="M23.3752 37.2181C36.6376 23.9557 54.6572 15.5225 74.695 14.8017C75.632 14.7296 76.7132 14.7296 77.6502 14.7296H162.486H247.467C247.395 52.787 216.689 83.6365 178.704 83.8528C178.416 84.1411 137.403 84.2852 136.971 84.2852H78.9476C63.7391 84.2852 48.1702 88.8262 36.3493 96.6827C32.0246 99.4217 27.9882 102.665 24.3122 106.197C10.1848 119.82 1.24711 138.776 0.886719 159.895V139.858C0.886719 139.569 0.95885 90.9165 1.03093 90.6282C1.17509 69.7975 9.68033 50.913 23.3752 37.2181Z" fill="#FBFBFB"/>
<path d="M23.4476 37.2181C36.71 23.9557 54.7296 15.5946 74.7674 14.8017C75.7044 14.7296 76.7855 14.7296 77.7226 14.7296H162.487H247.395C247.323 52.5708 216.762 83.2761 179.065 83.5645C178.632 83.9249 137.908 84.069 137.331 84.069H79.3804C64.2439 84.069 48.5309 88.61 36.7821 96.3223C32.4574 99.0613 28.421 102.233 24.6729 105.765C10.4735 119.315 1.5358 138.2 1.03125 159.247V139.281C1.03125 138.921 1.10328 90.5561 1.24743 90.2678C1.39159 69.6533 9.82479 50.913 23.4476 37.2181Z" fill="#FAFAFA"/>
<path d="M23.5189 37.2903C36.7092 24.0999 54.8009 15.6668 74.7666 14.946C75.7036 14.8739 76.7848 14.8739 77.7218 14.8739H162.414H247.322C247.178 52.4988 216.833 83.06 179.352 83.4204C178.848 83.7808 138.34 84.0691 137.691 84.0691H79.668C64.6757 84.0691 48.6743 88.538 37.0697 96.2504C32.745 98.9894 28.6365 102.161 24.9605 105.621C10.761 119.099 1.67917 137.912 1.10254 158.886V138.993C1.10254 138.56 1.17456 90.5562 1.31872 90.1958C1.53496 69.5814 9.96816 50.9131 23.5189 37.2903Z" fill="#F9F9F9"/>
<path d="M23.5912 37.3623C36.7815 24.1719 54.8011 15.7388 74.8389 15.018C75.7759 15.018 76.8571 14.9459 77.7942 14.9459H162.414H247.178C247.034 52.3546 216.905 82.7717 179.641 83.2041C179.064 83.6366 138.772 83.9249 137.98 83.9249H79.9565C65.1084 83.9249 48.8907 88.3938 37.3581 96.0341C33.0334 98.7731 28.925 101.872 25.249 105.332C10.9775 118.739 1.82351 137.479 1.1748 158.382V138.56C1.1748 138.056 1.2469 90.3399 1.46314 89.9074C1.67937 69.5093 10.1125 50.913 23.5912 37.3623Z" fill="#F8F8F8"/>
<path d="M23.6634 37.4342C36.8538 24.2439 54.8734 15.8107 74.8391 15.0899C75.7761 15.0899 76.8573 15.0178 77.7943 15.0178H162.342H247.106C246.962 52.2823 216.978 82.4832 179.929 82.9877C179.281 83.4923 139.205 83.8527 138.34 83.8527H80.3171C65.6131 83.8527 49.1071 88.2495 37.7187 95.8177C33.3219 98.4846 29.2856 101.584 25.5375 105.044C11.1939 118.306 2.03993 137.047 1.24707 157.877V138.128C1.24707 137.551 1.39124 90.1956 1.5354 89.691C1.82371 69.3649 10.1848 50.9129 23.6634 37.4342Z" fill="#F7F7F7"/>
<path d="M23.7359 37.5065C36.9262 24.3162 54.9458 15.9551 74.8394 15.2343C75.7764 15.2343 76.8577 15.1622 77.7947 15.1622H162.27H246.963C246.746 52.2105 216.978 82.2672 180.218 82.8438C179.497 83.4204 139.638 83.7809 138.629 83.7809H80.6778C66.0459 83.7809 49.3957 88.1776 38.0794 95.6738C33.6826 98.3407 29.6463 101.44 25.8982 104.9C11.5547 118.09 2.25654 136.758 1.3916 157.517V137.84C1.3916 137.191 1.53576 90.1237 1.75199 89.6192C1.96823 69.2931 10.3293 50.9131 23.7359 37.5065Z" fill="#F6F6F6"/>
<path d="M23.8072 37.5787C36.9975 24.3883 54.9451 16.0272 74.9108 15.3065C75.8478 15.3065 76.9289 15.2344 77.866 15.2344H162.27H246.89C246.674 52.0664 217.121 81.9789 180.506 82.6997C179.713 83.3484 140.07 83.7809 138.988 83.7809H81.0374C66.5497 83.7809 49.6833 88.1056 38.439 95.6018C34.0423 98.2687 30.0059 101.296 26.2579 104.756C11.8422 117.874 2.54407 136.398 1.46289 157.157V137.551C1.46289 136.831 1.60703 90.1238 1.89534 89.4751C2.11158 69.2211 10.4727 50.9132 23.8072 37.5787Z" fill="#F5F5F5"/>
<path d="M23.8797 37.6505C37.07 24.4602 55.0175 16.0991 74.9112 15.4504C75.8482 15.4504 76.9294 15.3783 77.8664 15.3783H162.27H246.89C243.142 51.8499 217.266 81.8346 180.938 82.5553C180.074 83.2761 140.647 83.7086 139.421 83.7086H81.4703C67.1267 83.7086 49.9721 88.0333 38.872 95.3853C34.4752 97.9801 30.3667 101.007 26.6187 104.467C12.1309 117.513 2.76068 135.965 1.60742 156.652V137.119C1.60742 136.326 1.75156 89.9073 2.03987 89.2586C2.32819 69.1488 10.6172 50.9129 23.8797 37.6505Z" fill="#F4F4F4"/>
<path d="M23.9509 37.7225C37.1413 24.5322 55.0888 16.2432 74.9825 15.5224C75.9195 15.5224 77.0727 15.4503 77.9377 15.4503H162.269H246.817C246.529 51.922 217.337 81.5462 181.226 82.3391C180.289 83.1319 141.078 83.6365 139.781 83.6365H81.8299C67.5584 83.6365 50.2595 87.8891 39.1595 95.2411C34.7627 97.8359 30.6542 100.863 26.9061 104.251C12.4184 117.225 2.90404 135.605 1.67871 156.219V136.758C1.67871 135.893 1.82292 89.8352 2.18331 89.1144C2.47163 69.0046 10.6885 50.9129 23.9509 37.7225Z" fill="#F3F3F3"/>
<path d="M23.9517 37.7948C37.07 24.6765 55.0175 16.3154 74.9112 15.5947C75.7761 15.5947 77.0014 15.5226 77.8664 15.5226H162.126H246.602C246.314 51.778 217.338 81.2581 181.371 82.123C180.362 82.9879 141.367 83.4925 139.926 83.4925H81.9748C67.8474 83.4925 50.2604 87.7451 39.3044 94.953C34.9077 97.5478 30.7992 100.503 27.0511 103.891C12.4913 116.793 2.97691 135.101 1.60742 155.643V136.326C1.60742 135.389 1.82371 89.6192 2.11202 88.8263C2.61657 68.9327 10.8335 50.9131 23.9517 37.7948Z" fill="#F2F2F2"/>
<path d="M24.0235 37.795C37.1418 24.6767 55.0894 16.3156 74.983 15.6669C75.8479 15.6669 77.0732 15.5948 77.9382 15.5948H162.126H246.602C246.313 51.634 217.482 80.9699 181.803 81.9069C180.722 82.844 141.944 83.3485 140.43 83.3485H82.5512C68.568 83.3485 50.7646 87.529 39.8808 94.7369C35.484 97.2596 31.3755 100.287 27.5554 103.603C12.9235 116.432 3.33708 134.668 1.89551 155.211V135.966C1.89551 134.957 2.11178 89.5472 2.47217 88.6823C2.76048 68.8608 10.9773 50.9132 24.0235 37.795Z" fill="#F1F1F1"/>
<path d="M24.0957 37.8668C37.2139 24.7485 55.1614 16.3874 74.983 15.7387C75.8479 15.7387 77.0732 15.6666 77.9382 15.6666H162.054H246.457C246.169 51.4896 217.482 80.6813 182.019 81.6904C180.794 82.6995 142.304 83.2761 140.646 83.2761H82.7674C68.8563 83.2761 50.8367 87.4567 40.097 94.5924C35.7003 97.1152 31.5918 100.07 27.7717 103.386C13.1398 116.144 3.40915 134.308 1.89551 154.778V135.533C1.89551 134.452 2.11178 89.3307 2.47217 88.4658C2.90464 68.7163 11.1216 50.9129 24.0957 37.8668Z" fill="#F0F0F0"/>
<path d="M24.1683 37.939C37.2865 24.8208 55.1619 16.5318 75.0556 15.811C75.9205 15.811 77.1458 15.7389 78.0108 15.7389H162.054H246.386C246.025 51.4177 217.627 80.3932 182.38 81.4744C181.083 82.5555 142.809 83.1322 141.079 83.1322H83.2005C69.4335 83.1322 51.1976 87.2406 40.53 94.3043C36.1332 96.8271 31.9527 99.7102 28.2046 103.026C13.5727 115.712 3.77011 133.803 2.1123 154.201V135.101C2.1123 133.947 2.32847 89.1868 2.76094 88.1777C3.04925 68.6444 11.1942 50.9132 24.1683 37.939Z" fill="#EFEFEF"/>
<path d="M24.2403 38.011C37.3586 24.8927 55.234 16.6037 75.0556 15.955C75.9205 15.955 77.1458 15.8829 78.0108 15.8829H161.982H246.314C245.953 51.3455 217.699 80.1768 182.669 81.3301C181.299 82.4833 143.242 83.132 141.368 83.132H83.4887C69.8659 83.132 51.3418 87.2405 40.8184 94.2321C36.4216 96.6828 32.2411 99.638 28.4209 102.882C13.7169 115.495 3.84219 133.443 2.1123 153.841V134.812C2.1123 133.587 2.32854 89.1146 2.83309 88.1055C3.26556 68.5722 11.3383 50.913 24.2403 38.011Z" fill="#EEEEEE"/>
<path d="M24.3118 38.0832C37.4301 24.965 55.3055 16.676 75.055 16.0273C75.92 16.0273 77.1453 15.9552 78.0102 15.9552H161.909H246.169C242.493 50.9853 217.698 79.8887 182.956 81.114C181.515 82.2673 143.674 82.9881 141.728 82.9881H83.8485C70.3699 82.9881 51.6295 87.0245 41.1782 93.944C36.7814 96.3946 32.6009 99.2778 28.7807 102.521C14.0047 114.991 4.1299 132.938 2.25586 153.264V134.308C2.25586 133.01 2.54417 88.8985 2.97664 87.8173C3.40911 68.4282 11.4819 50.9132 24.3118 38.0832Z" fill="#EDEDED"/>
<path d="M24.3833 38.155C37.4295 25.1088 55.305 16.7477 75.1265 16.099C75.9914 16.099 77.2168 16.027 78.0817 16.027H161.909H246.096C245.664 51.0571 217.842 79.6001 183.244 80.8975C181.73 82.1228 144.106 82.9157 142.015 82.9157H84.2084C70.8018 82.9157 51.9173 86.9521 41.538 93.7995C37.1412 96.2502 32.9607 99.1333 29.1406 102.305C14.3645 114.702 4.34553 132.578 2.39941 152.832V133.947C2.39941 132.578 2.6878 88.754 3.19235 87.6008C3.55274 68.3559 11.6254 50.9129 24.3833 38.155Z" fill="#ECECEC"/>
<path d="M24.4562 38.2271C37.5024 25.1809 55.3778 16.8919 75.1273 16.2432C75.9922 16.2432 77.2175 16.1711 78.0825 16.1711H161.838H245.953C245.521 51.0571 217.842 79.456 183.461 80.7534C181.875 82.0508 144.467 82.8436 142.304 82.8436H84.4975C71.235 82.8436 52.0623 86.8079 41.755 93.6554C37.2862 96.034 33.1777 98.9171 29.2855 102.089C14.4373 114.414 4.34632 132.217 2.32812 152.399V133.587C2.32812 132.145 2.61642 88.682 3.12097 87.4566C3.6976 68.2838 11.6984 50.9129 24.4562 38.2271Z" fill="#EBEBEB"/>
<path d="M24.5286 38.2993C37.5748 25.2531 55.4502 16.9641 75.1997 16.3154C76.0646 16.3154 77.29 16.2433 78.1549 16.2433H161.838H245.881C242.205 50.6967 217.915 79.1677 183.822 80.5372C182.164 81.9067 144.972 82.7716 142.665 82.7716H84.8582C71.7399 82.7716 52.3509 86.7359 42.1158 93.4392C37.6469 95.8178 33.5384 98.6289 29.6462 101.8C14.7259 114.054 4.63501 131.785 2.47266 151.895V133.154C2.47266 131.641 2.76093 88.4658 3.33756 87.2405C3.84211 68.1397 11.8428 50.913 24.5286 38.2993Z" fill="#EAEAEA"/>
<path d="M24.5278 38.3715C37.574 25.3254 55.3774 17.0363 75.1268 16.3876C75.9197 16.3876 77.2171 16.3156 78.082 16.3156H161.693H245.736C245.304 50.769 217.986 78.8796 184.037 80.3211C182.307 81.7627 145.331 82.6277 142.953 82.6277H85.1457C72.0996 82.6277 52.4942 86.5199 42.4032 93.2232C37.9344 95.6017 33.7539 98.4128 29.9337 101.584C15.0135 113.766 4.77837 131.425 2.54395 151.462V132.794C2.54395 131.208 2.83222 88.3939 3.40885 87.0244C3.98548 68.0678 11.9862 50.9132 24.5278 38.3715Z" fill="#E9E9E9"/>
<path d="M24.6001 38.3712C37.6463 25.325 55.4496 17.1081 75.1991 16.4594C75.992 16.4594 77.2894 16.3873 78.1544 16.3873H161.693H245.664C245.16 50.6246 218.058 78.591 184.398 80.1046C182.596 81.6183 145.836 82.5553 143.313 82.5553H85.5063C72.6043 82.5553 52.7827 86.4475 42.7638 93.0787C38.295 95.4573 34.1145 98.1963 30.2223 101.368C15.23 113.477 4.9948 131.064 2.61621 151.03V132.434C2.61621 130.776 2.97664 88.2495 3.55326 86.88C4.20197 67.9954 12.1306 50.9129 24.6001 38.3712Z" fill="#E8E8E8"/>
<path d="M24.6716 38.4435C37.7178 25.3973 55.5211 17.1804 75.1985 16.5317C75.9914 16.5317 77.2889 16.4596 78.1538 16.4596H161.621H245.592C241.988 50.3364 218.13 78.3028 184.686 79.8886C182.812 81.4743 146.268 82.4113 143.673 82.4113H85.8662C73.1083 82.4113 52.9984 86.2315 43.1237 92.7906C38.6548 95.0971 34.4743 97.9082 30.5821 101.008C15.5898 113.045 5.21043 130.488 2.75977 150.525V132.001C2.75977 130.343 3.12019 88.1055 3.69682 86.6639C4.34552 67.9236 12.2741 50.9131 24.6716 38.4435Z" fill="#E7E7E7"/>
<path d="M24.744 38.5155C37.7902 25.4693 55.5215 17.2523 75.1989 16.6757C75.9917 16.6757 77.2892 16.6036 78.1541 16.6036H161.549H245.448C244.943 50.4805 218.202 78.0865 184.974 79.7443C182.956 81.4021 146.773 82.4112 143.962 82.4112H86.2269C73.6132 82.4112 53.287 86.2313 43.4844 92.7184C39.0155 95.0249 34.835 97.7639 30.9428 100.863C15.8784 112.828 5.42704 130.199 2.9043 150.165V131.713C2.9043 129.983 3.26471 88.0333 3.91341 86.5197C4.49004 67.7793 12.3465 50.9129 24.744 38.5155Z" fill="#E6E6E6"/>
<path d="M24.8161 38.5877C37.7902 25.6136 55.5936 17.3246 75.271 16.748C76.0639 16.748 77.4333 16.6759 78.2262 16.6759H161.549H245.376C244.799 50.3365 218.274 77.7983 185.263 79.5282C183.172 81.2581 147.205 82.2672 144.25 82.2672H86.5152C73.9736 82.2672 53.4312 86.0153 43.7727 92.4303C39.3038 94.7368 35.1233 97.4037 31.159 100.503C16.0225 112.324 5.5712 129.695 2.9043 149.588V131.208C2.9043 129.406 3.26469 87.8173 3.98547 86.2315C4.63418 67.7074 12.4907 50.9131 24.8161 38.5877Z" fill="#E5E5E5"/>
<path d="M24.8886 38.6595C37.8627 25.6854 55.594 17.4684 75.2714 16.8197C76.0643 16.8197 77.4337 16.7477 78.2266 16.7477H161.477H245.304C241.7 50.0479 218.347 77.5097 185.551 79.3117C183.389 81.1137 147.638 82.1948 144.611 82.1948H86.876C74.4785 82.1948 53.7199 85.9429 44.1335 92.2858C39.6646 94.5202 35.412 97.2592 31.5198 100.287C16.3833 112.035 5.78781 129.334 3.04883 149.156V130.848C3.04883 128.974 3.40922 87.6728 4.13 86.015C4.77871 67.635 12.6353 50.9128 24.8886 38.6595Z" fill="#E4E4E4"/>
<path d="M24.9607 38.7317C37.9348 25.7576 55.6661 17.5407 75.3435 16.9641C76.1363 16.9641 77.5058 16.892 78.2987 16.892H161.477H245.16C244.583 50.1922 218.419 77.2936 185.84 79.1677C183.605 81.0417 148.071 82.1229 144.899 82.1229H87.1643C74.911 82.1229 53.9362 85.7989 44.3498 92.1418C39.8809 94.3762 35.6283 97.0431 31.7361 100.07C16.5275 111.747 5.85988 128.974 3.04883 148.723V130.487C3.04883 128.541 3.48128 87.6009 4.20206 85.871C4.92285 67.491 12.7794 50.913 24.9607 38.7317Z" fill="#E3E3E3"/>
<path d="M25.0329 38.8037C38.007 25.8296 55.7384 17.6127 75.3437 17.0361C76.1365 17.0361 77.506 16.964 78.2268 16.964H161.333H245.016C244.44 50.048 218.419 77.0774 186.056 78.9514C183.75 80.8254 148.431 81.9787 145.188 81.9787H87.5249C75.3437 81.9787 54.1526 85.5826 44.7104 91.8534C40.2415 94.0878 35.9889 96.6827 32.0246 99.71C16.744 111.315 6.07631 128.469 3.12109 148.147V129.983C3.12109 127.965 3.55363 87.3125 4.27442 85.5826C5.13936 67.4189 12.8517 50.9129 25.0329 38.8037Z" fill="#E2E2E2"/>
<path d="M25.1045 38.876C38.0787 25.9019 55.7379 17.757 75.4153 17.1083C76.2081 17.1083 77.5776 17.0363 78.2984 17.0363H161.333H245.016C241.484 49.6878 218.563 76.7892 186.488 78.7353C184.109 80.6815 149.007 81.9068 145.62 81.9068H87.9569C75.9199 81.9068 54.5126 85.5107 45.1424 91.7094C40.6735 93.8718 36.4209 96.5387 32.4566 99.4939C17.176 111.026 6.36421 128.109 3.33691 147.714V129.623C3.33691 127.532 3.76935 87.2406 4.56221 85.3665C5.28299 67.3469 12.9954 50.9131 25.1045 38.876Z" fill="#E1E1E1"/>
<path d="M25.1045 38.9479C38.0787 25.9737 55.7379 17.8289 75.3432 17.2523C76.064 17.2523 77.5056 17.1802 78.2264 17.1802H161.189H244.799C244.151 49.8317 218.563 76.5728 186.632 78.591C184.182 80.6091 149.296 81.8345 145.836 81.8345H88.1731C76.2802 81.8345 54.5847 85.3663 45.3586 91.493C40.8177 93.6553 36.6371 96.2502 32.6728 99.2054C17.3201 110.666 6.50836 127.604 3.33691 147.21V129.19C3.33691 127.028 3.76935 87.0241 4.56221 85.1501C5.42715 67.2026 13.1395 50.9129 25.1045 38.9479Z" fill="#E0E0E0"/>
<path d="M25.1767 38.9479C38.0787 26.0458 55.81 17.8289 75.3432 17.2523C76.064 17.2523 77.5056 17.1802 78.2264 17.1802H161.116H244.655C244.007 49.6875 218.563 76.2124 186.92 78.3026C184.398 80.3929 149.728 81.6903 146.124 81.6903H88.4615C76.6406 81.6903 54.8008 85.2222 45.6469 91.2768C41.1059 93.4391 36.8534 96.0339 32.889 98.9171C17.5364 110.305 6.58044 127.172 3.33691 146.705V128.83C3.33691 126.595 3.76942 86.952 4.63436 85.0059C5.57138 67.1305 13.2838 50.9129 25.1767 38.9479Z" fill="#DFDFDF"/>
<path d="M25.2493 39.02C38.1513 26.118 55.8105 17.901 75.4158 17.3244C76.1366 17.3244 77.5782 17.2523 78.299 17.2523H161.117H244.656C241.124 49.3272 218.708 75.9241 187.281 78.0865C184.687 80.2488 150.233 81.5462 146.557 81.5462H88.8944C77.2177 81.5462 55.0897 85.006 46.0799 91.0606C41.539 93.1508 37.2863 95.7457 33.322 98.6288C17.8973 109.945 6.86932 126.739 3.55371 146.201V128.397C3.55371 126.091 4.05821 86.7359 4.85107 84.7177C5.71601 67.0585 13.3564 50.9129 25.2493 39.02Z" fill="#DEDEDE"/>
<path d="M25.3208 39.0923C38.2228 26.1903 55.882 18.0454 75.4152 17.4688C76.136 17.4688 77.5776 17.3967 78.2984 17.3967H161.044H244.511C243.79 49.4716 218.779 75.7081 187.569 77.9426C184.902 80.177 150.665 81.5465 146.845 81.5465H89.2543C77.7217 81.5465 55.3775 85.0062 46.4398 90.9167C41.8988 93.0069 37.6462 95.5297 33.6819 98.4128C18.185 109.585 7.15703 126.379 3.69727 145.768V128.037C3.69727 125.658 4.20183 86.664 5.06677 84.5738C5.93171 66.9866 13.4999 50.9132 25.3208 39.0923Z" fill="#DDDDDD"/>
<path d="M25.3932 39.164C38.2953 26.2619 55.9545 18.1171 75.4877 17.5404C76.2085 17.5404 77.6501 17.4684 78.3708 17.4684H161.045H244.439C243.719 49.327 218.852 75.4194 187.858 77.7259C185.047 80.0324 151.098 81.4019 147.206 81.4019H89.6151C78.2267 81.4019 55.5941 84.7896 46.8006 90.7C42.2596 92.7903 38.007 95.313 34.0427 98.1241C18.5458 109.224 7.37364 125.946 3.8418 145.335V127.676C3.8418 125.226 4.70674 86.6636 5.28336 84.4292C9.10352 67.2745 13.6445 50.9127 25.3932 39.164Z" fill="#DCDCDC"/>
<path d="M25.4649 39.2363C38.3669 26.3343 55.9541 18.1894 75.4873 17.6849C76.2081 17.6849 77.6497 17.6128 78.3704 17.6128H160.972H244.295C240.763 49.111 218.851 75.2034 188.074 77.582C185.191 79.9606 151.458 81.4022 147.422 81.4022H89.8309C78.5146 81.4022 55.7379 84.7898 46.9443 90.5561C42.4034 92.6464 38.1507 95.097 34.1143 97.9802C18.5454 109.008 7.37326 125.658 3.69727 144.975V127.388C3.69727 124.865 4.63428 86.6639 5.13883 84.2853C9.2473 67.2027 13.7882 50.913 25.4649 39.2363Z" fill="#DBDBDB"/>
<path d="M25.5368 39.3082C38.4388 26.4062 56.0259 18.2613 75.5591 17.7568C76.2799 17.7568 77.7215 17.6847 78.4423 17.6847H160.972H244.295C243.502 49.1829 219.067 74.9149 188.506 77.3656C185.551 79.8162 152.034 81.2578 147.926 81.2578H90.3352C79.163 81.2578 56.17 84.5734 47.4486 90.3397C42.9076 92.3579 38.655 94.8806 34.6187 97.6917C18.9777 108.648 7.73343 125.154 3.98535 144.471V126.956C3.98535 124.361 4.92235 86.4475 5.49898 84.0689C9.31913 67.1305 13.8601 50.9128 25.5368 39.3082Z" fill="#DADADA"/>
<path d="M25.6089 39.3805C38.4388 26.5505 56.098 18.4057 75.5591 17.829C76.2799 17.829 77.7215 17.757 78.4423 17.757H160.9H244.15C243.358 49.039 219.067 74.6989 188.722 77.1495C185.695 79.6723 152.395 81.1859 148.142 81.1859H90.5515C79.5235 81.1859 56.2422 84.5015 47.6648 90.1957C43.1239 92.2139 38.7992 94.6646 34.8348 97.4756C19.1938 108.359 7.80551 124.793 3.98535 144.038V126.595C3.98535 123.928 4.92235 86.3756 5.49898 83.9249C9.46329 66.9865 14.0042 50.913 25.6089 39.3805Z" fill="#D9D9D9"/>
<path d="M25.6813 39.4525C38.5113 26.6225 56.0984 18.4776 75.6317 17.9731C76.3525 17.9731 77.794 17.901 78.5148 17.901H160.828H244.007C240.547 48.8226 219.068 74.4825 189.011 77.0053C185.912 79.6001 152.828 81.1137 148.503 81.1137H90.9843C80.0284 81.1137 56.6029 84.3573 48.0977 89.9794C43.5568 91.9976 39.232 94.3762 35.1956 97.1872C19.4826 107.999 8.09419 124.361 4.12988 143.534V126.163C4.12988 123.424 5.13903 86.1592 5.71566 83.6365C9.60789 66.9143 14.1488 50.9129 25.6813 39.4525Z" fill="#D8D8D8"/>
<path d="M25.6817 39.5246C38.5116 26.6946 56.0987 18.5498 75.5599 18.0452C76.2086 18.0452 77.7943 17.9731 78.443 17.9731H160.829H244.007C240.547 48.6785 219.284 74.1943 189.372 76.7891C186.2 79.456 153.332 81.0417 148.864 81.0417H91.345C80.5333 81.0417 56.8195 84.2853 48.4584 89.8353C43.9175 91.7814 39.5927 94.2321 35.5564 96.971C19.7712 107.711 8.3108 124 4.27441 143.101V125.802C4.27441 122.991 5.28348 86.0872 5.8601 83.4924C9.68026 66.8423 14.2933 50.913 25.6817 39.5246Z" fill="#D7D7D7"/>
<path d="M25.7537 39.5246C38.5837 26.6946 56.1708 18.6219 75.5599 18.0452C76.2086 18.0452 77.7943 17.9731 78.443 17.9731H160.684H243.791C242.926 48.6785 219.212 73.8339 189.588 76.5008C186.344 79.1677 153.693 80.8255 149.152 80.8255H91.6334C80.9658 80.8255 57.0357 83.9969 48.7467 89.547C44.2058 91.4931 39.8811 93.8717 35.8447 96.6106C20.0595 107.278 8.45496 123.496 4.27441 142.525V125.298C4.27441 122.415 5.28346 85.7989 5.93216 83.2041C9.8244 66.6981 14.3653 50.913 25.7537 39.5246Z" fill="#D6D6D6"/>
<path d="M25.8258 39.5968C38.6557 26.7668 56.1708 18.6941 75.632 18.1895C76.2807 18.1895 77.8664 18.1174 78.5151 18.1174H160.684H243.719C240.259 48.3903 219.284 73.6178 189.876 76.3567C186.561 79.0957 154.125 80.7535 149.44 80.7535H91.9217C81.3262 80.7535 57.1799 83.925 49.0351 89.3309C44.4941 91.277 40.1694 93.5835 36.061 96.3225C20.2037 106.846 8.59912 123.064 4.27441 142.02V124.866C4.27441 121.91 5.35554 85.6549 5.93216 82.9159C9.96855 66.6262 14.5095 50.9131 25.8258 39.5968Z" fill="#D5D5D5"/>
<path d="M25.8976 39.6686C38.7275 26.8386 56.2426 18.7658 75.6316 18.2613C76.2803 18.2613 77.8661 18.1892 78.5148 18.1892H160.612H243.646C240.187 48.318 219.428 73.3292 190.164 76.1402C186.776 78.9513 154.557 80.6811 149.8 80.6811H92.3538C81.9024 80.6811 57.5399 83.7805 49.4672 89.1864C44.8541 91.0604 40.5294 93.439 36.493 96.1059C20.6358 106.557 8.88701 122.703 4.49023 141.587V124.505C4.49023 121.478 5.57143 85.5825 6.22013 82.7714C10.1124 66.5538 14.6533 50.9128 25.8976 39.6686Z" fill="#D4D4D4"/>
<path d="M25.9696 39.7407C38.7996 26.9108 56.3146 18.838 75.7037 18.3334C76.3524 18.3334 77.9381 18.2614 78.5868 18.2614H160.612H243.574C242.637 48.3901 219.5 73.0409 190.524 75.924C187.065 78.8072 155.062 80.5371 150.161 80.5371H92.6421C82.3349 80.5371 57.6841 83.6364 49.6834 88.8982C45.0704 90.7722 40.7457 93.0787 36.7093 95.7456C20.78 106.125 9.03117 122.126 4.49023 141.011V124C4.49023 120.901 5.57141 85.2942 6.29219 82.4832C10.1844 66.4097 14.7975 50.9129 25.9696 39.7407Z" fill="#D3D3D3"/>
<path d="M26.0419 39.8132C38.7998 27.0553 56.3148 18.9825 75.7039 18.478C76.3526 18.478 77.9383 18.4059 78.587 18.4059H160.54H243.43C239.97 48.1022 219.5 72.8251 190.741 75.8524C187.137 78.8076 155.423 80.6095 150.449 80.6095H93.0027C82.8397 80.6095 57.9726 83.6368 50.044 88.8985C45.431 90.7726 41.1062 93.0791 36.9978 95.6739C20.9964 105.981 9.17552 121.91 4.5625 140.795V123.857C4.5625 120.685 5.64368 85.4388 6.36446 82.4836C10.3288 66.338 14.8697 50.9132 26.0419 39.8132Z" fill="#D2D2D2"/>
<path d="M26.1135 39.885C38.8714 27.1272 56.3864 19.0544 75.7755 18.5499C76.4242 18.5499 78.0099 18.4778 78.6587 18.4778H160.54H243.43C240.042 47.9578 219.716 72.6086 191.173 75.6359C187.497 78.6632 155.999 80.4652 150.881 80.4652H93.4347C83.3437 80.4652 58.3326 83.4925 50.476 88.6821C45.863 90.4841 41.5383 92.7906 37.4299 95.3854C21.4285 105.621 9.46341 121.478 4.77832 140.29V123.424C4.77832 120.18 5.93156 85.2224 6.65234 82.2671C10.4725 66.2657 15.0134 50.913 26.1135 39.885Z" fill="#D1D1D1"/>
<path d="M26.1858 39.9569C38.9436 27.1991 56.4587 19.1263 75.7757 18.6217C76.4244 18.6217 78.0101 18.5497 78.6589 18.5497H160.468H243.286C242.277 48.0297 219.716 72.3201 191.389 75.4195C187.641 78.5189 156.359 80.3929 151.17 80.3929H93.7233C83.7764 80.3929 58.4769 83.3481 50.7646 88.4657C46.1515 90.2677 41.8268 92.5021 37.7183 95.0969C21.6448 105.26 9.67984 121.045 4.85059 139.785V122.991C4.85059 119.676 6.00382 85.078 6.72461 82.0507C10.5448 66.1214 15.1578 50.9129 26.1858 39.9569Z" fill="#D0D0D0"/>
<path d="M26.2579 40.0292C39.0158 27.2714 56.4587 19.1986 75.7757 18.7661C76.4244 18.7661 78.0101 18.7661 78.6589 18.7661H160.396H243.142C242.133 48.102 219.716 72.1762 191.678 75.3476C187.858 78.5191 156.792 80.3931 151.458 80.3931H94.0116C84.2089 80.3931 58.6931 83.3483 51.0528 88.3938C46.4398 90.1958 42.043 92.4302 37.9346 94.953C21.789 105.044 9.75192 120.757 4.85059 139.425V122.703C4.85059 119.315 6.00389 85.0061 6.79675 81.9068C10.689 66.0495 15.302 50.9131 26.2579 40.0292Z" fill="#CFCFCF"/>
<path d="M26.2582 40.1014C39.0161 27.3435 56.459 19.3428 75.776 18.8383C76.4248 18.8383 78.0105 18.8383 78.6592 18.8383H160.324H243.07C239.682 47.7417 219.789 71.8879 191.966 75.1315C188.074 78.375 157.225 80.3211 151.819 80.3211H94.3723C84.6417 80.3211 58.9097 83.2042 51.4135 88.1776C46.8005 89.9075 42.4038 92.142 38.2953 94.7368C22.1497 104.756 9.96852 120.397 4.99512 138.993V122.343C4.99512 118.883 6.22041 84.9341 6.9412 81.7627C10.8334 65.9775 15.3744 50.9131 26.2582 40.1014Z" fill="#CECECE"/>
<path d="M26.3297 40.1011C39.0876 27.3432 56.5305 19.3425 75.7755 18.91C76.3521 18.91 78.0099 18.91 78.6586 18.91H160.251H242.997C241.916 47.8135 219.932 71.5993 192.254 74.9149C188.29 78.2305 157.657 80.1767 152.106 80.1767H94.7321C85.1457 80.1767 59.1974 83.0598 51.7733 87.9611C47.1603 89.691 42.7636 91.9254 38.6551 94.4482C22.4375 104.323 10.2562 119.964 5.13867 138.488V121.91C5.13867 118.378 6.36404 84.7176 7.1569 81.5461C10.905 65.833 15.518 50.9849 26.3297 40.1011Z" fill="#CDCDCD"/>
<path d="M26.402 40.1731C39.0878 27.4873 56.5307 19.4145 75.8477 18.9821C76.4244 18.9821 78.0822 18.9821 78.7309 18.9821H160.251H242.853C241.772 47.6692 219.932 71.311 192.543 74.6987C188.506 78.0863 158.089 80.1045 152.467 80.1045H95.0927C85.6505 80.1045 59.4139 82.9156 52.1339 87.8169C47.5209 89.5468 43.1242 91.7092 38.9436 94.2319C22.6539 104.035 10.4006 119.531 5.21094 138.056V121.55C5.21094 117.946 6.43629 84.6455 7.30123 81.3298C11.0493 65.7609 15.6623 50.9849 26.402 40.1731Z" fill="#CCCCCC"/>
<path d="M26.4739 40.2454C39.1596 27.5596 56.6026 19.5589 75.8475 19.0543C76.4242 19.0543 78.082 19.0543 78.7307 19.0543H160.179H242.709C239.321 47.3811 219.932 71.0228 192.759 74.4826C188.65 77.9423 158.449 79.9605 152.683 79.9605H95.3087C86.0106 79.9605 59.5579 82.7716 52.2779 87.5288C47.6649 89.2587 43.2681 91.3489 39.0876 93.8717C22.7979 103.602 10.4725 119.027 5.13867 137.479V121.117C5.13867 117.441 6.4361 84.4294 7.22896 81.1138C11.1933 65.689 15.8063 50.985 26.4739 40.2454Z" fill="#CBCBCB"/>
<path d="M26.5459 40.3176C39.2317 27.6318 56.6746 19.6311 75.9196 19.1986C76.4962 19.1986 78.154 19.1986 78.8027 19.1986H160.251H242.781C241.7 47.5254 220.22 70.8067 193.263 74.3386C189.083 77.7983 159.098 79.9607 153.26 79.9607H95.8853C86.6593 79.9607 59.9902 82.6996 52.8545 87.4568C48.2415 89.1146 43.7727 91.277 39.6642 93.7276C23.3024 103.386 10.9049 118.739 5.49902 137.119V120.829C5.49902 117.081 6.79643 84.4295 7.66137 80.9698C11.3374 65.545 15.9504 50.9852 26.5459 40.3176Z" fill="#CACACA"/>
<path d="M26.6186 40.3893C39.3044 27.7035 56.6752 19.7029 75.9201 19.2704C76.4967 19.2704 78.1546 19.2704 78.8033 19.2704H160.108H242.565C241.412 47.381 220.149 70.5181 193.408 74.122C189.083 77.6539 159.387 79.8162 153.404 79.8162H96.03C86.9481 79.8162 60.0629 82.5552 52.9993 87.2403C48.3862 88.8981 43.9174 90.9884 39.7368 93.439C23.3029 103.025 10.8334 118.306 5.35547 136.614V120.396C5.35547 116.576 6.65288 84.213 7.51782 80.7532C11.4101 65.4726 16.0231 50.9849 26.6186 40.3893Z" fill="#C9C9C9"/>
<path d="M26.6903 40.4614C39.3761 27.7756 56.7469 19.7749 75.9198 19.3424C76.4964 19.3424 78.2263 19.3424 78.8029 19.3424H160.107H242.493C239.177 47.0926 220.221 70.3018 193.768 73.9057C189.371 77.5097 159.891 79.7441 153.764 79.7441H96.4621C87.5244 79.7441 60.4229 82.411 53.4313 87.024C48.7463 88.6818 44.3495 90.7 40.1689 93.1507C23.735 102.665 11.1934 117.874 5.57129 136.181V120.036C5.57129 116.144 6.86868 84.1409 7.8057 80.609C11.5538 65.4005 16.1668 50.9848 26.6903 40.4614Z" fill="#C8C8C8"/>
<path d="M26.7627 40.5337C39.4485 27.8479 56.8194 19.9193 75.9922 19.4868C76.5689 19.4868 78.2987 19.4868 78.8032 19.4868H160.036H242.421C241.268 47.1649 220.365 70.0858 194.057 73.7618C189.588 77.4378 160.324 79.6723 154.125 79.6723H96.8228C87.9572 79.6723 60.6395 82.3392 53.7921 86.8801C49.107 88.4658 44.7102 90.5561 40.5296 92.9347C24.0237 102.377 11.41 117.513 5.71582 135.749V119.676C5.71582 115.711 7.08529 84.069 7.95023 80.393C11.6983 65.2566 16.3113 50.9851 26.7627 40.5337Z" fill="#C7C7C7"/>
<path d="M26.8347 40.6058C39.5205 27.92 56.8194 19.9914 75.9922 19.559C76.5689 19.559 78.2987 19.559 78.8032 19.559H159.964H242.277C241.052 47.0929 220.365 69.7976 194.345 73.5457C189.804 77.2937 160.756 79.5282 154.413 79.5282H97.1111C88.3897 79.5282 60.8558 82.123 54.0804 86.5918C49.3953 88.1776 44.9985 90.1958 40.7459 92.5743C24.2399 101.872 11.5542 117.009 5.71582 135.173V119.171C5.71582 115.135 7.08527 83.7808 8.02229 80.1048C11.7704 65.1846 16.4554 50.9851 26.8347 40.6058Z" fill="#C6C6C6"/>
<path d="M26.8349 40.6779C39.4487 28.0641 56.8196 20.0635 75.9924 19.631C76.5691 19.631 78.2989 19.631 78.8034 19.631H159.892H242.133C238.817 46.8045 220.365 69.5092 194.561 73.3294C189.948 77.1495 161.117 79.456 154.702 79.456H97.3997C88.8223 79.456 61.0001 82.0508 54.3689 86.4476C49.6838 88.0333 45.215 90.0515 41.0344 92.3581C24.4564 101.584 11.6985 116.576 5.78809 134.74V118.811C5.78809 114.702 7.15754 83.7086 8.09456 79.9606C11.9147 65.1124 16.5277 50.9851 26.8349 40.6779Z" fill="#C5C5C5"/>
<path d="M26.9062 40.6778C39.5199 28.0641 56.8188 20.1355 75.9917 19.703C76.4962 19.703 78.2981 19.703 78.8027 19.703H159.819H242.06C240.835 46.8045 220.509 69.2208 194.849 73.1131C190.164 77.0053 161.549 79.3118 154.99 79.3118H97.6872C89.182 79.3118 61.2155 81.8346 54.6564 86.2314C49.9713 87.745 45.5024 89.7632 41.3219 92.0697C24.6718 101.224 11.8419 116.144 5.85938 134.236V118.378C5.85938 114.198 7.2289 83.4924 8.238 79.6722C12.0582 64.9682 16.6711 50.985 26.9062 40.6778Z" fill="#C4C4C4"/>
<path d="M26.9786 40.7498C39.5923 28.1361 56.8911 20.2075 76.0639 19.775C76.5685 19.775 78.3705 19.775 78.875 19.775H159.819H241.988C240.691 46.6603 220.581 68.9325 195.209 72.8968C190.452 76.8611 162.053 79.2397 155.422 79.2397H98.1199C89.7588 79.2397 61.504 81.7624 55.017 86.015C50.3319 87.5287 45.8631 89.4748 41.6104 91.7813C24.9603 100.863 12.0583 115.711 5.93164 133.731V117.946C5.93164 113.693 7.37323 83.3482 8.38232 79.4559C12.2025 64.8961 16.8155 50.985 26.9786 40.7498Z" fill="#C3C3C3"/>
<path d="M27.0508 40.8221C39.6646 28.2084 56.9634 20.2798 76.0641 19.8473C76.5687 19.8473 78.3707 19.8473 78.8752 19.8473H159.747H241.844C238.529 46.3721 220.581 68.6443 195.426 72.6807C190.597 76.7171 162.414 79.0957 155.639 79.0957H98.4084C90.1915 79.0957 61.7205 81.5464 55.3055 85.799C50.6204 87.3126 46.1516 89.2588 41.899 91.4932C25.1768 100.503 12.2026 115.279 6.00391 133.227V117.513C6.00391 113.189 7.44549 83.1321 8.45459 79.2399C12.2747 64.8242 16.9599 50.9852 27.0508 40.8221Z" fill="#C2C2C2"/>
<path d="M27.1225 40.8939C39.7362 28.2802 56.9629 20.3516 76.1357 19.9912C76.6403 19.9912 78.4423 19.9912 78.9468 19.9912H159.747H241.844C240.547 46.5161 220.797 68.4279 195.858 72.5363C190.957 76.6448 162.99 79.0955 156.143 79.0955H98.8404C90.7677 79.0955 62.0084 81.5461 55.7375 85.6546C51.0524 87.0962 46.5836 89.0423 42.331 91.3488C25.5367 100.287 12.4905 114.99 6.21973 132.866V117.225C6.21973 112.828 7.66129 83.1319 8.74247 79.0955C12.4185 64.6798 17.0315 50.9849 27.1225 40.8939Z" fill="#C1C1C1"/>
<path d="M27.1945 40.9661C39.8082 28.3524 57.035 20.4958 76.1357 20.0634C76.6403 20.0634 78.4423 20.0634 78.9468 20.0634H159.675H241.7C240.402 46.372 220.797 68.1396 196.074 72.3202C191.101 76.5007 163.351 78.9514 156.359 78.9514H99.1288C91.1281 78.9514 62.2246 81.33 56.0259 85.4384C51.3408 86.88 46.8719 88.8261 42.5472 91.0605C25.753 99.9262 12.6347 114.558 6.21973 132.361V116.793C6.21973 112.324 7.73337 82.9157 8.74247 78.8793C12.5626 64.6078 17.1756 50.985 27.1945 40.9661Z" fill="#C0C0C0"/>
<path d="M27.267 41.0383C39.8086 28.4966 57.1075 20.568 76.1362 20.2076C76.6407 20.2076 78.4427 20.2076 78.9472 20.2076H159.603H241.556C238.312 46.1559 220.797 67.9956 196.363 72.1762C191.245 76.3567 163.783 78.9515 156.72 78.9515H99.4896C91.633 78.9515 62.5133 81.3301 56.3867 85.3665C51.7016 86.8081 47.1607 88.6821 42.908 90.9165C26.0417 99.7101 12.8513 114.27 6.36426 132.001V116.504C6.36426 111.963 7.87797 82.9158 8.95915 78.8074C12.6351 64.5358 17.3202 50.9851 27.267 41.0383Z" fill="#BFBFBF"/>
<path d="M27.3395 41.1106C39.8811 28.5689 57.1078 20.6403 76.2085 20.2799C76.7131 20.2799 78.5151 20.2799 79.0196 20.2799H159.603H241.484C238.241 46.0119 220.942 67.7075 196.651 71.9601C191.462 76.2127 164.216 78.8075 157.008 78.8075H99.8503C92.1379 78.8075 62.7299 81.114 56.7474 85.0784C52.0623 86.5199 47.5214 88.3219 43.2688 90.5563C26.3303 99.2057 13.14 113.693 6.50879 131.425V116C6.50879 111.387 8.02242 82.6277 9.10359 78.4471C12.7796 64.3919 17.4647 50.9853 27.3395 41.1106Z" fill="#BEBEBE"/>
<path d="M27.4107 41.1822C39.9524 28.6406 57.1791 20.712 76.2078 20.3516C76.7123 20.3516 78.5143 20.3516 79.0188 20.3516H159.53H241.411C240.042 46.0835 221.013 67.4187 196.939 71.7434C191.677 76.0681 164.648 78.735 157.368 78.735H100.21C92.5696 78.735 63.0174 81.0415 57.107 84.9338C52.4219 86.3033 47.881 88.1773 43.5563 90.3396C26.6179 98.917 13.2834 113.333 6.58008 131.064V115.711C6.58008 111.026 8.09369 82.6273 9.24694 78.3747C12.9229 64.3194 17.536 50.9849 27.4107 41.1822Z" fill="#BDBDBD"/>
<path d="M27.4109 41.2543C39.9526 28.7127 57.1793 20.8561 76.208 20.4957C76.7125 20.4957 78.5145 20.4957 79.019 20.4957H159.458H241.267C238.024 45.8673 221.013 67.2025 197.228 71.5993C191.894 75.9961 165.081 78.663 157.657 78.663H100.498C93.0023 78.663 63.1618 80.8974 57.3955 84.7896C52.6384 86.1591 48.1695 87.9611 43.8448 90.1234C26.8343 98.6287 13.4277 112.972 6.65234 130.631V115.351C6.65234 110.594 8.16604 82.4831 9.3193 78.2305C12.9953 64.2473 17.6804 50.9849 27.4109 41.2543Z" fill="#BCBCBC"/>
<path d="M27.483 41.2543C40.0246 28.7127 57.1793 20.8561 76.208 20.4957C76.6404 20.4957 78.5866 20.4957 79.019 20.4957H159.386H241.123C237.88 45.6511 221.086 66.8421 197.444 71.311C192.038 75.7798 165.513 78.5188 157.945 78.5188H100.787C93.4347 78.5188 63.3781 80.7533 57.6118 84.5013C52.8546 85.8708 48.3857 87.6007 44.061 89.763C26.9785 98.1962 13.5719 112.468 6.65234 130.055V114.846C6.65234 110.017 8.2381 82.2669 9.39136 77.8701C13.1394 64.1031 17.8245 50.9849 27.483 41.2543Z" fill="#BBBBBB"/>
<path d="M27.5556 41.3266C40.0972 28.7849 57.2519 20.9284 76.2806 20.568C76.713 20.568 78.6592 20.568 79.0916 20.568H159.387H241.124C239.682 45.7233 221.23 66.554 197.877 71.0949C192.399 75.6359 166.09 78.3749 158.378 78.3749H101.22C93.9398 78.3749 63.6669 80.5372 58.0448 84.2853C53.2876 85.5827 48.7466 87.3847 44.494 89.4749C27.4114 97.836 13.8607 112.035 6.86914 129.55V114.414C6.86914 109.513 8.45488 82.0509 9.68021 77.6541C13.2841 64.0313 17.9692 50.9851 27.5556 41.3266Z" fill="#BABABA"/>
<path d="M27.6269 41.3985C40.1685 28.8569 57.3232 21.0724 76.2798 20.712C76.7123 20.712 78.6584 20.712 79.0909 20.712H159.314H240.979C237.807 45.507 221.229 66.3376 198.092 70.9506C192.542 75.5637 166.45 78.3026 158.665 78.3026H101.579C94.4436 78.3026 63.9544 80.465 58.4044 84.0689C53.6472 85.3663 49.1063 87.0962 44.7816 89.1865C27.6269 97.4755 14.0041 111.603 6.94043 129.046V113.981C6.94043 109.008 8.52617 81.9066 9.7515 77.4377C13.4275 63.959 18.0405 50.9849 27.6269 41.3985Z" fill="#B9B9B9"/>
<path d="M27.6992 41.4708C40.1688 29.0012 57.3234 21.1447 76.28 20.7843C76.7125 20.7843 78.6586 20.7843 79.0911 20.7843H159.242H240.835C237.663 45.363 221.302 66.0495 198.381 70.7346C192.759 75.4197 166.883 78.2308 158.954 78.2308H101.868C94.8762 78.2308 64.0988 80.321 58.6929 83.925C53.9358 85.2224 49.3948 86.9522 45.0701 88.9704C27.8434 97.1874 14.2205 111.243 7.0127 128.614V113.693C7.0127 108.72 8.59842 81.8347 9.89583 77.2938C13.4997 63.8151 18.1849 50.9851 27.6992 41.4708Z" fill="#B8B8B8"/>
<path d="M27.7718 41.5426C40.2414 29.073 57.3961 21.2165 76.3527 20.8561C76.7851 20.8561 78.7312 20.8561 79.1637 20.8561H159.243H240.835C239.322 45.3627 221.446 65.7609 198.742 70.5181C193.048 75.2752 167.388 78.0863 159.387 78.0863H102.301C95.4534 78.0863 64.4597 80.1766 59.1259 83.7084C54.3687 84.9338 49.8278 86.6636 45.5031 88.6818C28.2764 96.7546 14.5094 110.738 7.22949 128.109V113.261C7.22949 108.215 8.88729 81.6902 10.1126 77.0772C13.6445 63.7427 18.3296 50.9848 27.7718 41.5426Z" fill="#B7B7B7"/>
<path d="M27.8436 41.615C40.3131 29.1455 57.4678 21.2889 76.3523 21.0006C76.7848 21.0006 78.7309 21.0006 79.1633 21.0006H159.17H240.691C237.52 45.1469 221.446 65.6171 198.958 70.3743C193.191 75.2035 167.748 78.0867 159.603 78.0867H102.517C95.7414 78.0867 64.5314 80.1049 59.3418 83.5646C54.5846 84.79 50.0437 86.4478 45.6469 88.466C28.3481 96.4667 14.5811 110.378 7.08496 127.677V112.901C7.08496 107.783 8.74283 81.5464 10.0402 76.9334C13.7883 63.671 18.4734 50.9852 27.8436 41.615Z" fill="#B6B6B6"/>
<path d="M27.9152 41.6868C40.3847 29.2172 57.4673 21.4328 76.424 21.0724C76.8564 21.0724 78.8026 21.0724 79.235 21.0724H159.17H240.618C237.447 45.0745 221.59 65.3285 199.318 70.1577C193.407 75.0591 168.252 77.9422 160.035 77.9422H102.949C96.3175 77.9422 64.8914 79.9604 59.7739 83.3481C55.0167 84.5734 50.4037 86.2312 46.079 88.1773C28.7802 96.106 14.869 109.945 7.30078 127.172V112.468C7.30078 107.278 8.95857 81.402 10.256 76.6448C13.8599 63.5265 18.545 50.9849 27.9152 41.6868Z" fill="#B5B5B5"/>
<path d="M27.9876 41.759C40.4572 29.2895 57.5398 21.505 76.4244 21.2167C76.8568 21.2167 78.803 21.2167 79.2354 21.2167H159.098H240.547C238.961 45.1467 221.662 65.1124 199.606 70.0137C193.624 74.9871 168.685 77.9424 160.324 77.9424H103.31C96.8225 77.9424 65.1802 79.8885 60.1347 83.2041C55.3775 84.3573 50.7645 86.0151 46.4398 88.0333C29.0689 95.8899 15.0856 109.657 7.44531 126.811V112.18C7.44531 106.918 9.10317 81.4021 10.4727 76.5729C14.0045 63.4546 18.6895 50.985 27.9876 41.759Z" fill="#B4B4B4"/>
<path d="M27.9876 41.8312C40.4572 29.3616 57.5398 21.5771 76.4244 21.2888C76.8568 21.2888 78.803 21.2888 79.2354 21.2888H159.026H240.403C237.231 44.8584 221.662 64.8241 199.895 69.7976C193.84 74.771 169.117 77.7983 160.684 77.7983H103.67C97.255 77.7983 65.3963 79.7444 60.4229 82.9879C55.6657 84.1412 51.0527 85.799 46.656 87.7451C29.213 95.5295 15.2298 109.224 7.44531 126.379V111.747C7.44531 106.413 9.17525 81.1859 10.4727 76.3567C14.1487 63.3826 18.8337 50.9851 27.9876 41.8312Z" fill="#B3B3B3"/>
<path d="M28.0598 41.8312C40.4573 29.4337 57.5398 21.5771 76.4244 21.2888C76.7848 21.2888 78.803 21.2888 79.2354 21.2888H158.954H240.258C237.087 44.7143 221.734 64.4638 200.111 69.5092C193.984 74.5547 169.478 77.6541 160.9 77.6541H103.886C97.6154 77.6541 65.5405 79.5281 60.6392 82.7717C55.882 83.9249 51.269 85.5106 46.8722 87.4568C29.4293 95.1691 15.3019 108.792 7.44531 125.875V111.387C7.44531 105.981 9.17523 81.1139 10.5447 76.1405C14.2928 63.2384 18.9779 50.9851 28.0598 41.8312Z" fill="#B2B2B2"/>
<path d="M28.1326 41.903C40.5301 29.5055 57.6126 21.7211 76.4972 21.4327C76.8576 21.4327 78.8758 21.4327 79.3082 21.4327H158.955H240.259C238.601 44.7861 221.879 64.2473 200.544 69.3649C194.345 74.4824 170.055 77.5818 161.406 77.5818H104.391C98.2648 77.5818 65.9016 79.4558 61.1444 82.5552C56.3873 83.7084 51.7743 85.2221 47.3775 87.1682C29.8624 94.7364 15.7351 108.359 7.73438 125.37V110.954C7.73438 105.476 9.46427 80.8974 10.9058 75.924C14.3656 63.1661 19.0507 50.9849 28.1326 41.903Z" fill="#B1B1B1"/>
<path d="M28.2035 41.9753C40.6009 29.5778 57.6835 21.7933 76.496 21.505C76.8564 21.505 78.8746 21.505 79.3071 21.505H158.882H240.114C237.015 44.498 221.878 63.9592 200.759 69.1488C194.488 74.3385 170.414 77.5099 161.621 77.5099H104.607C98.624 77.5099 66.0446 79.3119 61.3595 82.4112C56.5303 83.4924 51.9173 85.0781 47.5205 86.9522C29.9334 94.4483 15.7339 107.927 7.66113 124.937V110.594C7.66113 105.044 9.39103 80.8255 10.8326 75.78C14.5086 63.0942 19.1937 50.9851 28.2035 41.9753Z" fill="#B0B0B0"/>
<path d="M28.2761 42.0475C40.6735 29.65 57.684 21.8656 76.4965 21.5773C76.8569 21.5773 78.8751 21.5773 79.3076 21.5773H158.81H239.97C236.871 44.354 221.951 63.6711 201.048 69.0049C194.705 74.2666 170.847 77.438 161.981 77.438H105.04C99.1291 77.438 66.3334 79.1679 61.7925 82.2673C56.9632 83.3484 52.3503 84.8621 47.9535 86.7361C30.3664 94.1602 16.0228 107.567 7.87793 124.505V110.234C7.87793 104.612 9.60781 80.6815 11.1215 75.564C14.6533 62.9503 19.3383 50.9852 28.2761 42.0475Z" fill="#AFAFAF"/>
<path d="M28.3483 42.1195C40.7458 29.722 57.7563 22.0096 76.5688 21.7213C76.9292 21.7213 78.9474 21.7213 79.3798 21.7213H158.81H239.898C238.168 44.4981 222.023 63.5268 201.336 68.8606C194.921 74.1944 171.28 77.4379 162.27 77.4379H105.328C99.5618 77.4379 66.5499 79.1678 62.081 82.123C57.2518 83.2042 52.6388 84.6457 48.242 86.5198C30.5828 93.8718 16.2392 107.206 7.9502 124.073V109.873C7.9502 104.179 9.68008 80.6093 11.1937 75.4197C14.7256 62.8781 19.4827 50.9851 28.3483 42.1195Z" fill="#AEAEAE"/>
<path d="M28.4205 42.1914C40.818 29.7939 57.8284 22.0815 76.5688 21.7932C76.9292 21.7932 78.9474 21.7932 79.3078 21.7932H158.666H239.754C236.655 44.2096 222.023 63.2383 201.553 68.6442C195.066 74.05 171.64 77.2936 162.558 77.2936H105.616C99.9943 77.2936 66.6941 78.9514 62.3694 81.9066C57.5401 82.9157 52.9271 84.4293 48.4582 86.2313C30.7269 93.5112 16.3113 106.774 7.9502 123.568V109.44C7.9502 103.674 9.75214 80.3929 11.2658 75.1312C14.8697 62.8058 19.5548 50.9849 28.4205 42.1914Z" fill="#ADADAD"/>
<path d="M28.4929 42.2635C40.8904 29.8661 57.8288 22.1537 76.6412 21.8654C77.0016 21.8654 79.0919 21.8654 79.3803 21.8654H158.666H239.683C236.583 44.0655 222.168 62.95 201.913 68.428C195.354 73.9059 172.145 77.1495 162.919 77.1495H105.977C100.427 77.1495 66.9828 78.8073 62.7302 81.6183C57.9009 82.6274 53.2879 84.069 48.819 85.871C31.0877 93.0788 16.5279 106.269 8.09473 122.991V108.936C8.09473 103.098 9.89667 80.1768 11.4103 74.843C15.0142 62.6617 19.6994 50.985 28.4929 42.2635Z" fill="#ACACAC"/>
<path d="M28.5638 42.3355C40.8892 30.0101 57.8997 22.2256 76.6401 22.0094C77.0005 22.0094 79.0908 22.0094 79.3791 22.0094H158.593H239.537C237.735 44.1375 222.166 62.7337 202.129 68.2837C195.425 73.8338 172.504 77.1494 163.134 77.1494H106.192C100.786 77.1494 67.1257 78.7351 62.8731 81.5461C58.0439 82.5552 53.3588 83.9968 48.962 85.7267C31.1587 92.8624 16.5988 105.981 8.02148 122.631V108.648C8.02148 102.737 9.82341 80.1046 11.4091 74.7708C15.1572 62.5895 19.8423 50.9849 28.5638 42.3355Z" fill="#ABABAB"/>
<path d="M28.5642 42.4079C40.8896 30.0825 57.9001 22.3701 76.6405 22.0818C77.0009 22.0818 79.0912 22.0818 79.3795 22.0818H158.522H239.466C236.366 43.9215 222.239 62.4457 202.489 68.0678C195.714 73.6899 173.009 77.0055 163.567 77.0055H106.625C101.363 77.0055 67.4144 78.5912 63.306 81.3302C58.4767 82.2672 53.7917 83.7088 49.3228 85.4387C31.4474 92.4303 16.8154 105.549 8.16602 122.127V108.215C8.16602 102.233 9.96801 79.9607 11.6258 74.4827C15.2297 62.5177 19.9869 50.9852 28.5642 42.4079Z" fill="#AAAAAA"/>
<path d="M28.6366 42.4079C40.962 30.0825 57.9004 22.3701 76.6408 22.0818C77.0012 22.0818 79.0915 22.0818 79.3798 22.0818H158.45H239.394C236.367 43.7053 222.383 62.0853 202.778 67.7795C195.93 73.4737 173.442 76.8614 163.856 76.8614H106.986C101.796 76.8614 67.7031 78.375 63.6667 81.0419C58.8374 81.9789 54.1524 83.3484 49.6835 85.0783C31.8081 91.9978 17.1041 104.972 8.31055 121.622V107.783C8.31055 101.728 10.1125 79.7445 11.7703 74.2665C15.3742 62.3736 20.1314 50.9852 28.6366 42.4079Z" fill="#A9A9A9"/>
<path d="M28.7079 42.4797C41.0333 30.1543 57.9717 22.4419 76.64 22.2257C76.9283 22.2257 79.0907 22.2257 79.379 22.2257H158.377H239.177C237.375 43.7771 222.31 61.8688 202.993 67.6351C196.074 73.4014 173.802 76.789 164.143 76.789H107.273C102.228 76.789 67.8465 78.3027 63.9542 80.8975C59.125 81.8345 54.4399 83.204 49.971 84.8618C32.0235 91.7093 17.2475 104.611 8.38184 121.189V107.422C8.38184 101.296 10.2559 79.6722 11.9137 74.1221C15.5176 62.3013 20.2027 50.985 28.7079 42.4797Z" fill="#A8A8A8"/>
<path d="M28.7812 42.552C41.1066 30.2266 58.0451 22.5863 76.7133 22.298C77.0017 22.298 79.164 22.298 79.4523 22.298H158.378H239.178C236.151 43.5611 222.456 61.5807 203.355 67.419C196.363 73.1853 174.307 76.7171 164.505 76.7171H107.635C102.734 76.7171 68.136 78.1587 64.3158 80.6815C59.4866 81.5464 54.8015 82.9159 50.2605 84.6458C32.2409 91.4211 17.3928 104.251 8.45508 120.757V107.062C8.45508 100.863 10.3291 79.5282 11.9869 73.9061C15.5909 62.1573 20.3481 50.9852 28.7812 42.552Z" fill="#A7A7A7"/>
<path d="M28.8525 42.6241C41.1779 30.2987 58.0443 22.6584 76.7126 22.4421C77.0009 22.4421 79.1632 22.4421 79.4515 22.4421H158.305H239.033C236.006 43.489 222.527 61.3644 203.571 67.2749C196.507 73.1132 174.667 76.6451 164.792 76.6451H107.922C103.165 76.6451 68.2794 78.0866 64.6034 80.5373C59.7741 81.4023 55.017 82.6997 50.5481 84.4295C32.5285 91.1328 17.6082 103.891 8.52637 120.325V106.702C8.52637 100.431 10.4004 79.4561 12.1303 73.7619C15.7342 62.0852 20.4914 50.9852 28.8525 42.6241Z" fill="#A6A6A6"/>
<path d="M28.9249 42.6959C41.1782 30.4425 58.1167 22.7302 76.785 22.5139C77.0733 22.5139 79.2356 22.5139 79.5239 22.5139H158.306H238.961C235.934 43.3446 222.6 61.1479 203.931 67.0583C196.795 72.9688 175.172 76.5727 165.153 76.5727H108.283C103.598 76.5727 68.568 77.9422 64.9641 80.3928C60.0628 81.2578 55.3777 82.5552 50.9088 84.213C32.8171 90.8442 17.8249 103.53 8.6709 119.892V106.341C8.6709 99.9982 10.5449 79.3117 12.2748 73.6175C15.8787 62.0129 20.6359 50.9849 28.9249 42.6959Z" fill="#A5A5A5"/>
<path d="M28.9974 42.768C41.2507 30.5147 58.1171 22.8023 76.7854 22.5861C77.0737 22.5861 79.236 22.5861 79.5243 22.5861H158.234H238.89C235.862 43.2005 222.672 60.8597 204.22 66.8422C197.012 72.8247 175.605 76.4286 165.514 76.4286H108.716C104.175 76.4286 68.8567 77.7981 65.3969 80.1046C60.4956 80.8975 55.8105 82.1949 51.2696 83.8527C33.1059 90.3397 18.0415 103.026 8.81543 119.315V105.909C8.81543 99.4937 10.6894 79.1676 12.4914 73.3293C16.0232 61.8688 20.7084 50.9849 28.9974 42.768Z" fill="#A4A4A4"/>
<path d="M29.0687 42.8402C41.322 30.5869 58.1884 22.9466 76.8567 22.7303C77.145 22.7303 79.3074 22.7303 79.5957 22.7303H158.233H238.817C235.789 43.2006 222.815 60.6436 204.579 66.6982C197.3 72.7527 176.109 76.4287 165.873 76.4287H109.076C104.679 76.4287 69.1443 77.7261 65.6845 80.0326C60.7832 80.8255 56.0981 82.1229 51.5572 83.7087C33.3934 90.1236 18.2569 102.665 8.88672 118.955V105.62C8.88672 99.1334 10.7608 79.0956 12.5628 73.2573C16.0946 61.7968 20.8517 50.9851 29.0687 42.8402Z" fill="#A3A3A3"/>
<path d="M29.1409 42.9122C41.3943 30.6589 58.2606 23.0186 76.8568 22.8024C77.1451 22.8024 79.3075 22.8024 79.5958 22.8024H158.161H238.673C235.645 43.0564 222.815 60.3552 204.796 66.4819C197.372 72.6085 176.469 76.2845 166.162 76.2845H109.364C105.039 76.2845 69.3606 77.5819 65.973 79.8164C61.0716 80.6092 56.3866 81.8346 51.8456 83.4203C33.6098 89.7632 18.4013 102.233 8.95898 118.45V105.188C8.95898 98.6288 10.833 78.9514 12.707 73.041C16.2389 61.7247 20.9961 50.985 29.1409 42.9122Z" fill="#A2A2A2"/>
<path d="M29.1408 42.9843C41.3941 30.7309 58.1884 23.0906 76.7846 22.8744C77.0729 22.8744 79.2352 22.8744 79.5235 22.8744H158.017H238.456C235.501 42.9122 222.743 60.0668 205.012 66.2656C197.516 72.4643 176.829 76.2124 166.378 76.2124H109.58C105.4 76.2124 69.4325 77.4377 66.189 79.6001C61.2877 80.3929 56.6026 81.5462 51.9896 83.1319C33.6817 89.4027 18.4731 101.8 8.88672 117.946V104.755C8.88672 98.1242 10.7608 78.7351 12.7069 72.7526C16.3829 61.5805 21.1401 50.985 29.1408 42.9843Z" fill="#A1A1A1"/>
<path d="M29.2136 42.9842C41.4669 30.7309 58.2612 23.0906 76.8574 22.9464C77.1457 22.9464 79.3081 22.9464 79.5964 22.9464H158.09H238.529C235.574 42.768 221.663 56.8233 205.445 66.0493C196.94 70.8785 177.407 76.0682 166.883 76.0682H110.086C106.049 76.0682 69.8658 77.2935 66.6944 79.3838C61.793 80.1046 57.0358 81.3299 52.4949 82.8435C34.187 89.0423 18.8343 101.368 9.17578 117.441V104.323C9.17578 97.6196 11.1219 78.5188 12.996 72.5363C16.4557 61.5084 21.2129 50.9849 29.2136 42.9842Z" fill="#A0A0A0"/>
<path d="M29.285 43.0565C41.5383 30.8032 58.3326 23.2349 76.8567 23.0187C77.073 23.0187 79.3074 23.0187 79.5957 23.0187H158.017H238.384C235.429 42.6961 221.734 56.6793 205.733 65.8332C197.156 70.7346 177.839 75.9963 167.171 75.9963H110.445C106.481 75.9963 70.0814 77.1495 67.0541 79.1677C62.1528 79.8885 57.3955 81.0418 52.8546 82.5554C34.4746 88.6821 19.0499 100.935 9.31934 116.937V103.891C9.31934 97.1152 11.2654 78.3749 13.2115 72.3203C16.5992 61.4364 21.3564 50.9851 29.285 43.0565Z" fill="#9F9F9F"/>
<path d="M29.3571 43.1287C41.5383 30.9475 58.3326 23.3072 76.9288 23.0909C77.145 23.0909 79.4516 23.0909 79.6678 23.0909H157.945H238.24C235.285 42.5521 221.734 56.4632 205.949 65.6172C197.3 70.6627 178.199 75.8523 167.459 75.8523H110.734C106.913 75.8523 70.2976 77.0056 67.3424 78.9517C62.4411 79.6725 57.6839 80.7536 53.0709 82.2673C34.6909 88.3219 19.1941 100.503 9.31934 116.505V103.53C9.31934 96.683 11.2654 78.2309 13.2115 72.1042C16.7433 61.2925 21.5005 50.9853 29.3571 43.1287Z" fill="#9E9E9E"/>
<path d="M29.4295 43.2002C41.6108 31.0189 58.4051 23.3787 76.9292 23.2345C77.1454 23.2345 79.452 23.2345 79.6682 23.2345H157.945H238.241C235.285 42.4794 221.951 56.3905 206.31 65.4724C197.588 70.59 178.704 75.7796 167.82 75.7796H111.094C107.418 75.7796 70.5143 76.8608 67.7032 78.8069C62.8019 79.4556 58.0447 80.6089 53.4317 82.0504C34.9796 87.9609 19.4107 100.142 9.46387 116.071V103.169C9.46387 96.2499 11.41 78.1582 13.4282 71.9595C16.8879 61.2198 21.6451 50.9847 29.4295 43.2002Z" fill="#9D9D9D"/>
<path d="M29.5022 43.2725C41.6835 31.0912 58.4776 23.523 77.0018 23.3068C77.218 23.3068 79.5246 23.3068 79.7408 23.3068H157.946H238.169C235.214 42.4075 222.096 56.1745 206.671 65.2564C197.877 70.446 179.209 75.7077 168.253 75.7077H111.527C107.996 75.7077 70.8752 76.7889 68.1362 78.5909C63.2349 79.2396 58.4777 80.3208 53.8647 81.7623C35.3405 87.6007 19.7716 99.6378 9.68066 115.567V102.737C9.68066 95.7455 11.6268 77.9422 13.645 71.7434C16.9606 61.0758 21.7178 51.0569 29.5022 43.2725Z" fill="#9C9C9C"/>
<path d="M29.5732 43.3447C41.7544 31.1635 58.4766 23.5953 77.0007 23.379C77.2169 23.379 79.5235 23.379 79.7397 23.379H157.873H238.024C235.069 42.2636 222.095 55.9585 206.886 65.0403C198.02 70.3021 179.568 75.5638 168.468 75.5638H111.815C108.355 75.5638 71.0182 76.5729 68.3513 78.3748C63.45 79.0235 58.6208 80.1047 54.0078 81.4742C35.4836 87.2405 19.7705 99.2055 9.60742 115.063V102.377C9.60742 95.3132 11.5536 77.8703 13.6439 71.5274C17.1036 61.0039 21.8608 51.0571 29.5732 43.3447Z" fill="#9B9B9B"/>
<path d="M29.646 43.417C41.8272 31.2357 58.5494 23.6675 77.0736 23.5233C77.2898 23.5233 79.5963 23.5233 79.8125 23.5233H157.873H238.025C235.069 42.1916 222.311 55.8865 207.319 64.8963C198.381 70.2301 180.146 75.5639 168.973 75.5639H112.32C109.004 75.5639 71.4514 76.573 68.8566 78.2308C63.9553 78.8074 59.126 79.8886 54.513 81.2581C35.9168 86.9523 20.1316 98.8452 9.89648 114.63V101.945C9.89648 94.8088 11.8426 77.6542 13.9329 71.3113C17.2485 60.932 22.0057 51.0573 29.646 43.417Z" fill="#9A9A9A"/>
<path d="M29.718 43.4887C41.8993 31.3075 58.6215 23.7392 77.0736 23.5951C77.2898 23.5951 79.5963 23.5951 79.8125 23.5951H157.801H237.88C234.997 42.0472 222.384 55.67 207.535 64.6798C198.526 70.1577 180.506 75.4194 169.19 75.4194H112.536C109.365 75.4194 71.5956 76.3565 69.0728 78.0143C64.0994 78.5909 59.3423 79.6 54.7293 81.0415C36.061 86.6637 20.2758 98.4845 9.89648 114.198V101.584C9.89648 94.376 11.8427 77.5818 14.005 71.1668C17.3927 60.7875 22.1498 51.0569 29.718 43.4887Z" fill="#999999"/>
<path d="M29.718 43.5609C41.8272 31.4518 58.5494 23.8835 77.0014 23.7394C77.2177 23.7394 79.5242 23.7394 79.7404 23.7394H157.657H237.664C234.781 42.0473 222.384 55.598 207.752 64.5357C198.67 70.0858 180.866 75.4196 169.478 75.4196H112.824C109.725 75.4196 71.7397 76.3566 69.3611 77.9423C64.3877 78.519 59.6306 79.5281 54.9455 80.8975C36.2772 86.4476 20.3478 98.1963 9.89648 113.837V101.296C9.89648 94.0158 11.8426 77.5098 14.0771 71.0228C17.4647 60.7156 22.2219 51.0571 29.718 43.5609Z" fill="#989898"/>
<path d="M29.7893 43.5609C41.8985 31.4518 58.6207 23.8835 77.0728 23.7394C77.289 23.7394 79.5955 23.7394 79.8117 23.7394H157.656H237.663C234.78 41.8311 222.527 55.3097 208.111 64.2474C198.957 69.8695 181.37 75.2033 169.838 75.2033H113.184C110.229 75.2033 72.0273 76.0683 69.7208 77.5819C64.7474 78.0865 59.9902 79.0956 55.3051 80.4651C36.5647 85.8709 20.5633 97.6197 9.96777 113.189V100.719C9.96777 93.3671 11.9139 77.2215 14.1484 70.6624C17.6081 60.5714 22.3653 51.0571 29.7893 43.5609Z" fill="#979797"/>
<path d="M29.8626 43.6332C41.9717 31.524 58.6939 23.9558 77.0739 23.8116C77.2181 23.8116 79.5966 23.8116 79.8128 23.8116H157.585H237.52C234.637 41.6871 222.6 55.1657 208.329 64.0314C199.103 69.7976 181.732 75.1315 170.127 75.1315H113.473C110.662 75.1315 72.1725 75.9964 70.0102 77.438C65.0368 77.9425 60.2075 78.8795 55.5945 80.249C36.7821 85.5828 20.7807 97.2595 10.041 112.756V100.359C10.041 92.9348 11.9871 77.0776 14.2936 70.5184C17.7533 60.4995 22.5106 51.0573 29.8626 43.6332Z" fill="#969696"/>
<path d="M29.9343 43.705C42.0434 31.5959 58.6935 24.0276 77.1456 23.9556C77.2898 23.9556 79.6683 23.9556 79.8845 23.9556H157.585H237.448C234.565 41.6868 222.744 55.0213 208.689 63.887C199.463 69.7253 182.236 75.0591 170.487 75.0591H113.906C111.239 75.0591 72.5325 75.852 70.4423 77.2215C65.4689 77.726 60.6396 78.663 56.0266 79.9604C37.2141 85.2222 21.0686 96.7547 10.2568 112.252V99.9262C10.2568 92.43 12.203 76.9332 14.5095 70.2299C17.8251 60.4272 22.6544 51.057 29.9343 43.705Z" fill="#959595"/>
<path d="M30.0056 43.777C42.1147 31.6678 58.7648 24.1716 77.1448 24.0275C77.289 24.0275 79.6675 24.0275 79.8838 24.0275H157.512H237.375C234.492 41.5425 222.887 54.877 208.976 63.6706C199.678 69.581 182.668 74.9869 170.847 74.9869H114.265C111.67 74.9869 72.748 75.7797 70.8019 77.0772C65.8285 77.5817 60.9993 78.4466 56.3142 79.7441C37.4296 84.9337 21.284 96.3942 10.3281 111.891V99.6377C10.3281 92.0695 12.2742 76.8609 14.6528 70.1576C17.9684 60.2829 22.7256 51.0569 30.0056 43.777Z" fill="#949494"/>
<path d="M30.0776 43.8492C42.1868 31.74 58.8369 24.2439 77.2169 24.0997C77.361 24.0997 79.7397 24.0997 79.9559 24.0997H157.512H237.231C234.348 41.3985 222.959 54.661 209.264 63.4545C199.894 69.5091 183.1 74.8429 171.135 74.8429H114.554C112.103 74.8429 72.9643 75.5637 71.0182 76.8611C66.0448 77.2936 61.2155 78.2306 56.5304 79.4559C37.5738 84.5735 21.3561 95.9619 10.3281 111.387V99.2054C10.3281 91.5651 12.2742 76.6449 14.6528 69.9416C18.1126 60.211 22.8698 51.057 30.0776 43.8492Z" fill="#939393"/>
<path d="M30.1508 43.9216C42.2599 31.8846 58.838 24.3163 77.218 24.2443C77.3621 24.2443 79.7407 24.2443 79.8848 24.2443H157.369H237.088C234.205 41.3268 222.96 54.5172 209.482 63.3107C200.04 69.4374 183.461 74.8433 171.424 74.8433H114.843C112.536 74.8433 73.1096 75.5641 71.3076 76.7173C66.3342 77.1498 61.5049 78.0147 56.8198 79.2401C37.8632 84.2135 21.5014 95.6018 10.4014 110.955V98.8454C10.4014 91.133 12.3475 76.5732 14.7981 69.7257C18.2579 60.0672 23.015 51.0574 30.1508 43.9216Z" fill="#929292"/>
<path d="M30.2229 43.9934C42.26 31.9563 58.9101 24.4602 77.218 24.316C77.3621 24.316 79.7407 24.316 79.8848 24.316H157.297H236.944C234.133 41.2545 223.033 54.3727 209.77 63.0942C200.256 69.365 183.894 74.6988 171.713 74.6988H115.131C112.897 74.6988 73.3257 75.3475 71.5958 76.5008C66.6224 76.9332 61.7211 77.7261 57.036 78.9514C38.0073 83.8528 21.6456 95.1691 10.4014 110.45V98.4847C10.4014 90.7002 12.3475 76.4287 14.7981 69.5812C18.33 59.9948 23.1592 51.0571 30.2229 43.9934Z" fill="#919191"/>
<path d="M30.2938 44.0652C42.3309 32.0281 58.981 24.532 77.2889 24.3878C77.4331 24.3878 79.8838 24.3878 79.9559 24.3878H157.296H236.943C234.131 41.11 223.248 54.1562 210.129 62.8777C200.615 69.2206 184.397 74.5544 172.144 74.5544H115.635C113.544 74.5544 73.7571 75.2031 72.0993 76.2842C67.1259 76.6446 62.2245 77.5096 57.5394 78.6628C38.4387 83.4921 22.0048 94.7363 10.6885 109.945V98.0519C10.6885 90.1954 12.6346 76.2843 15.1574 69.2927C18.473 59.9225 23.2302 51.0568 30.2938 44.0652Z" fill="#909090"/>
<path d="M30.2938 44.1377C42.3309 32.1006 58.9089 24.6044 77.2169 24.5323C77.361 24.5323 79.8116 24.5323 79.8837 24.5323H157.224H236.798C233.987 41.0383 223.32 54.0845 210.346 62.7339C200.759 69.2209 184.83 74.5547 172.36 74.5547H115.851C113.905 74.5547 73.8291 75.1314 72.3155 76.1405C67.3421 76.5009 62.4408 77.2937 57.7557 78.447C38.6549 83.2041 22.0769 94.3763 10.6885 109.513V97.6919C10.6885 89.7633 12.6346 76.1405 15.2294 69.1489C18.6171 59.7787 23.3743 51.0572 30.2938 44.1377Z" fill="#8F8F8F"/>
<path d="M30.3659 44.1377C42.403 32.1006 58.981 24.6044 77.2889 24.5323C77.4331 24.5323 79.8838 24.5323 79.9559 24.5323H157.152H236.654C233.843 40.8941 223.392 53.7962 210.634 62.4456C200.975 69.0047 185.262 74.3385 172.649 74.3385H116.139C114.265 74.3385 74.0454 74.9151 72.6038 75.8522C67.6304 76.2126 62.7291 76.9333 57.972 78.0866C38.7991 82.7717 22.221 93.7997 10.6885 108.936V97.1873C10.6885 89.1866 12.6346 75.9242 15.2294 68.8605C18.7613 59.7066 23.5185 51.0572 30.3659 44.1377Z" fill="#8E8E8E"/>
<path d="M30.4383 44.2095C42.4754 32.1724 59.0534 24.7483 77.2892 24.6763C77.4334 24.6763 79.8841 24.6763 79.9562 24.6763H157.08H236.582C233.771 40.8218 223.536 53.6518 210.923 62.3012C201.264 69.0045 185.695 74.3383 173.009 74.3383H116.5C114.77 74.3383 74.2619 74.8428 72.9645 75.7077C67.919 75.9961 63.0898 76.7889 58.3327 77.8701C39.0877 82.411 22.4376 93.439 10.833 108.503V96.8267C10.833 88.7539 12.7791 75.7798 15.446 68.6441C18.8337 59.5622 23.6629 51.0569 30.4383 44.2095Z" fill="#8D8D8D"/>
<path d="M30.5108 44.2817C42.5478 32.2446 59.0538 24.8205 77.3617 24.7484C77.4338 24.7484 79.9566 24.7484 80.0287 24.7484H157.08H236.511C233.7 40.6777 223.681 53.5077 211.283 62.085C201.553 68.8604 186.2 74.1942 173.37 74.1942H116.861C115.275 74.1942 74.5507 74.6987 73.3253 75.4916C68.2798 75.7799 63.3786 76.5007 58.6935 77.654C39.4485 82.1228 22.7263 93.0787 10.9775 108.071V96.4664C10.9775 88.3215 12.9237 75.6357 15.5906 68.5C18.9783 59.4902 23.8075 51.057 30.5108 44.2817Z" fill="#8C8C8C"/>
<path d="M30.5829 44.3538C42.5479 32.3888 59.1259 24.8926 77.3617 24.8206C77.4338 24.8206 79.9566 24.8206 80.0287 24.8206H157.008H236.367C233.556 40.6057 223.753 53.2915 211.5 61.9409C201.697 68.8604 186.561 74.1942 173.658 74.1942H117.221C115.78 74.1942 74.7669 74.6267 73.6137 75.4196C68.5682 75.7079 63.6668 76.3566 58.9097 77.5098C39.5927 81.9066 22.7984 92.7905 10.9775 107.711V96.1781C10.9775 87.9612 12.9237 75.6358 15.6626 68.428C19.1224 59.3461 23.8796 51.0571 30.5829 44.3538Z" fill="#8B8B8B"/>
<path d="M30.6553 44.4261C42.6203 32.4611 59.1983 24.965 77.4342 24.965C77.5062 24.965 80.029 24.965 80.101 24.965H157.009H236.367C233.556 40.5339 223.969 53.1476 211.932 61.797C202.13 68.7886 187.137 74.1224 174.091 74.1224H117.582C116.212 74.1224 75.0555 74.5549 73.9744 75.2036C68.9289 75.4198 64.0275 76.1406 59.2704 77.2218C39.8813 81.5465 23.015 92.3582 11.1221 107.278V95.818C11.1221 87.529 13.0682 75.4919 15.8072 68.212C19.2669 59.2743 24.0241 51.0573 30.6553 44.4261Z" fill="#8A8A8A"/>
<path d="M30.7268 44.4979C42.6918 32.5329 59.1978 25.1088 77.4336 25.0367C77.5057 25.0367 80.0284 25.0367 80.1005 25.0367H156.936H236.222C233.411 40.3894 224.041 53.0031 212.148 61.5805C202.273 68.7162 187.497 74.05 174.379 74.05H117.942C116.716 74.05 75.2712 74.4104 74.3342 75.0591C69.2887 75.2754 64.3874 75.9241 59.6302 77.0052C40.2411 81.2579 23.3027 91.9976 11.2656 106.846V95.4573C11.2656 87.1683 13.2117 75.4195 16.0228 68.0675C19.3384 59.2019 24.1677 51.057 30.7268 44.4979Z" fill="#898989"/>
<path d="M30.7986 44.57C42.7637 32.605 59.2696 25.181 77.4334 25.1089C77.5055 25.1089 80.0282 25.1089 80.1003 25.1089H156.864H236.078C233.339 40.2453 224.113 52.787 212.364 61.3643C202.489 68.6442 187.857 73.906 174.595 73.906H118.158C117.077 73.906 75.4152 74.2664 74.5503 74.7709C69.5048 74.9871 64.6035 75.6358 59.7742 76.6449C40.313 80.7534 23.3025 91.4931 11.1934 106.269V94.9528C11.1934 86.5918 13.1394 75.1313 16.0226 67.7793C19.4823 59.0578 24.3116 51.0571 30.7986 44.57Z" fill="#888888"/>
<path d="M30.8714 44.6421C42.8364 32.6771 59.3424 25.2531 77.5062 25.2531C77.5783 25.2531 80.101 25.2531 80.1731 25.2531H156.864H236.079C233.34 40.2454 224.33 52.6428 212.797 61.2202C202.85 68.5721 188.435 73.906 175.1 73.906H118.663C117.654 73.906 75.8484 74.1943 75.0555 74.6988C70.01 74.843 65.0366 75.4917 60.2794 76.5008C40.7462 80.5372 23.7357 91.1327 11.4824 105.909V94.6645C11.4824 86.2313 13.4285 75.0592 16.3116 67.6351C19.6272 58.9857 24.3844 51.0571 30.8714 44.6421Z" fill="#878787"/>
<path d="M30.8714 44.7144C42.8364 32.7494 59.2704 25.3974 77.4341 25.3253C77.5062 25.3253 80.0289 25.3253 80.101 25.3253H156.72H235.862C233.123 40.1014 224.33 52.4268 212.941 61.0041C202.995 68.5003 188.723 73.762 175.244 73.762H118.879C118.014 73.762 75.9205 74.0503 75.2718 74.4827C70.2263 74.6269 65.2529 75.2036 60.4957 76.2126C40.9625 80.177 23.8078 90.7004 11.4824 105.404V94.2322C11.4824 85.727 13.4285 74.9152 16.3837 67.4191C19.6993 58.8418 24.5285 51.0573 30.8714 44.7144Z" fill="#868686"/>
<path d="M30.943 44.7144C42.8359 32.8215 59.3419 25.3974 77.5056 25.3253C77.5777 25.3253 80.1004 25.3253 80.1725 25.3253H156.72H235.79C233.051 39.8851 224.473 52.2106 213.301 60.7158C203.282 68.3561 189.227 73.6178 175.676 73.6178H119.311C118.59 73.6178 76.2803 73.8341 75.7037 74.1944C70.6582 74.3386 65.6848 74.9152 60.8555 75.8523C41.2502 79.7445 24.0235 90.1958 11.626 104.828V93.7277C11.626 85.1504 13.5721 74.6269 16.5273 67.1308C19.8429 58.7697 24.6722 51.0573 30.943 44.7144Z" fill="#858585"/>
<path d="M31.0153 44.7863C42.9082 32.8933 59.3421 25.4692 77.5058 25.4692C77.5779 25.4692 80.1006 25.4692 80.1727 25.4692H156.648H235.718C232.979 39.8849 224.618 52.0662 213.59 60.5714C203.571 68.3559 189.66 73.5455 175.965 73.5455H119.6C118.951 73.5455 76.4247 73.7618 75.9922 74.0501C70.9467 74.1942 65.9732 74.6988 61.144 75.6358C41.4666 79.4559 24.2399 89.8352 11.6982 104.395V93.3671C11.6982 84.7177 13.5723 74.5546 16.6717 66.9143C19.9873 58.6253 24.8165 51.0571 31.0153 44.7863Z" fill="#848484"/>
<path d="M31.0877 44.8584C42.9806 32.9655 59.4145 25.5414 77.5782 25.5414C77.5782 25.5414 80.173 25.5414 80.2451 25.5414H156.648H235.646C232.907 39.7408 224.762 51.85 213.95 60.3552C203.859 68.2118 190.165 73.4735 176.398 73.4735H120.032C119.528 73.4735 76.7854 73.6177 76.3529 73.906C71.3074 73.9781 66.334 74.4826 61.5047 75.4196C41.8273 79.1677 24.4565 89.4749 11.8428 103.963V93.0067C11.8428 84.2853 13.7167 74.4105 16.8161 66.7702C20.1317 58.5533 24.8889 51.0571 31.0877 44.8584Z" fill="#838383"/>
<path d="M31.1596 44.9304C43.0525 33.0375 59.4864 25.6855 77.5781 25.6134H80.245H156.576H235.502C232.763 39.5966 224.834 51.6337 214.167 60.1389C204.076 68.1396 190.525 73.3293 176.614 73.3293H120.248C119.888 73.3293 76.8573 73.4734 76.569 73.6176C71.5235 73.6897 66.478 74.1942 61.6488 75.0592C41.8993 78.7352 24.4563 88.9703 11.7705 103.386V92.5021C11.7705 83.7086 13.6445 74.1222 16.816 66.4818C20.2037 58.4091 25.0329 51.0571 31.1596 44.9304Z" fill="#828282"/>
<path d="M31.231 45.0024C43.1239 33.1094 59.4858 25.7574 77.5774 25.7574H80.2443H156.503H235.357C232.618 39.5965 224.906 51.5615 214.454 59.9947C204.291 68.1395 190.957 73.2571 176.974 73.2571H120.608C120.392 73.2571 77.145 73.3292 76.9287 73.4733C71.8112 73.5454 66.8378 73.9779 62.0085 74.8428C42.2591 78.3746 24.744 88.6098 11.9141 102.953V92.1416C11.9141 83.276 13.7881 74.0499 16.9595 66.2655C20.3472 58.3369 25.1764 51.0569 31.231 45.0024Z" fill="#818181"/>
<path d="M31.3038 45.0746C43.1967 33.1817 59.5584 25.8297 77.6501 25.8297H80.3171H156.504H235.358C232.691 39.4525 225.122 51.3455 214.815 59.7786C204.652 68.0676 191.462 73.1852 177.335 73.1852H121.041C120.897 73.1852 77.4339 73.2573 77.3618 73.2573C72.2442 73.2573 67.2708 73.7618 62.4416 74.5547C42.62 78.0145 25.0329 88.1054 12.1309 102.521V91.7814C12.1309 82.8437 14.005 73.906 17.2485 66.1215C20.492 58.265 25.3213 51.0571 31.3038 45.0746Z" fill="#808080"/>
<path d="M12.1309 91.4209C12.1309 82.4111 13.9329 73.7617 17.3206 65.9772C20.6362 58.1207 25.4654 51.057 31.3758 45.1466C43.2688 33.2537 59.6305 25.9738 77.6501 25.9738H156.432H235.213C232.547 39.3803 225.195 51.2012 215.031 59.6344C204.868 68.0675 191.822 73.113 177.623 73.113H77.6501C51.7019 73.113 28.3485 84.2852 12.1309 102.089V91.4209Z" fill="#7F7F7F"/>
</g>
<path d="M247.898 0.314087H77.5772C34.9789 0.314087 0.525391 34.8396 0.525391 77.3659V147.642C0.525391 105.044 35.0509 70.5905 77.5772 70.5905H177.55C216.472 70.6626 247.898 39.1643 247.898 0.314087Z" fill="#588F6E"/>
</svg>
