<svg width="384" height="324" viewBox="0 0 384 324" fill="none" xmlns="http://www.w3.org/2000/svg">
<path d="M371.688 257.124C368.101 270.225 364.093 282.5 356.947 293.919H15.6667C14.5495 293.067 13.4757 292.172 12.4452 291.234C3.65754 283.196 -1.88507 272.114 0.591618 260.604C4.0422 244.223 21.4884 232.742 30.1469 218.06C30.887 216.847 31.5545 215.605 32.1494 214.334C36.2995 205.583 36.9811 195.979 35.7913 186.405C35.501 184.036 35.0946 181.682 34.5874 179.329C33.6588 174.867 32.3964 170.462 30.9605 166.173C29.6981 162.389 28.3198 158.62 26.9273 154.851C22.5745 143.024 18.1491 131.182 17.3081 118.748C15.0737 86.1102 41.3208 53.8207 75.5466 47.1047C116.019 39.1576 158.564 63.6699 198.22 50.7588C208.144 47.5242 217.139 41.2999 223.262 33.2993C226.178 29.4726 228.5 25.2124 229.762 20.6631C230.763 17.0673 229.11 10.0341 230.677 7.21902C234.868 -0.261723 253.527 -0.405295 260.898 0.244062C271.561 1.18244 281.979 4.63379 291.41 9.26937C320.123 23.3929 342.772 46.2677 358.354 73.0124C359.197 74.4387 361.189 78.0027 361.256 78.1678C391.061 133.326 388.301 197.244 371.688 257.123V257.124Z" fill="#F3F1FC"/>
<path d="M34.5868 179.329C35.095 181.683 35.5004 184.037 35.7908 186.406C36.9806 195.98 36.2989 205.583 32.1488 214.335C31.5482 215.604 30.8732 216.842 30.1492 218.058H380.266C385.611 184.801 385.792 149.959 376.78 117.073H358.035C356.786 117.073 355.771 118.084 355.771 119.326V159.256C355.771 161.639 353.841 163.559 351.447 163.559H332.092C329.698 163.559 327.769 161.639 327.769 159.256V111.296C327.769 110.055 326.753 109.043 325.505 109.043H317.612C316.364 109.043 315.348 110.055 315.348 111.296V145.421C315.348 147.804 313.419 149.725 311.025 149.725H276.291C273.897 149.725 271.967 147.804 271.967 145.421V103.686C271.967 102.445 270.952 101.433 269.704 101.433H221.128C219.879 101.433 218.864 102.445 218.864 103.686V127.962C218.864 130.344 216.934 132.265 214.54 132.265H187.075C184.682 132.265 182.752 130.344 182.752 127.962V104.423C182.752 103.181 181.736 102.17 180.488 102.17H176.396C175.148 102.17 174.133 103.181 174.133 104.423V150.548C174.133 152.931 172.203 154.851 169.809 154.851H162.221C159.827 154.851 157.897 152.93 157.897 150.548V131.659C157.897 129.869 156.446 128.424 154.647 128.424H132.957C131.158 128.424 129.707 129.869 129.707 131.659V157.956C129.707 160.339 127.777 162.259 125.383 162.259H112.978C110.585 162.259 108.655 160.339 108.655 157.956V102.445C108.655 101.202 107.639 100.191 106.391 100.191H76.14C74.8917 100.191 73.8763 101.202 73.8763 102.445V150.548C73.8763 152.931 71.9465 154.851 69.5527 154.851H26.9258C28.3183 158.62 29.6966 162.389 30.959 166.173C32.3958 170.462 33.6572 174.867 34.5859 179.329L34.5868 179.329Z" fill="#D0CEF2"/>
<path d="M68.3485 48.9251V221.982H60.6592V50.9651C63.1547 50.1797 65.7229 49.4966 68.3485 48.9251Z" fill="white"/>
<path d="M139.297 221.859V51.1781C139.108 51.1462 132.881 50.068 131.593 49.8494V221.858H139.297V221.859Z" fill="white"/>
<path d="M380.292 218.06C379.987 219.965 379.381 223.644 378.957 225.728H24.7354C26.7227 223.26 28.58 220.718 30.1469 218.06H380.292Z" fill="white"/>
<path d="M281.181 221.982V4.89457C278.657 3.98434 276.089 3.16139 273.477 2.48294V221.982H281.181Z" fill="white"/>
<path d="M356.546 293.863C351.703 302.433 345.11 309.96 336.484 314.918C323.547 322.37 307.683 323.179 292.547 323.554C217.422 325.403 142.142 321.504 67.6741 311.915C53.0091 310.023 37.9727 307.784 25.2357 300.65C23.0937 299.452 21.0233 298.08 19.0671 296.549C17.9678 295.697 16.9109 294.801 15.8965 293.863H356.547H356.546Z" fill="#E2DFF4"/>
<path d="M155.298 17.4754C151.559 13.3268 145.71 11.1282 140.15 11.8554C135.555 12.456 131.25 14.8855 126.617 14.8066C122.764 14.74 119.149 12.929 115.985 10.7407C112.821 8.55236 109.948 5.94837 106.655 3.95619C103.363 1.96402 99.4798 0.59305 95.6795 1.22645C92.6173 1.73693 89.8823 3.51234 87.7035 5.71377C85.6634 7.77633 81.3322 13.2912 81.9648 17.4763H155.299L155.298 17.4754Z" fill="#F3F1FC"/>
<path d="M138.342 69.3301C135.365 66.027 130.709 64.277 126.281 64.8559C119.825 65.7005 116.021 70.1784 107.042 63.9682C104.523 62.2257 102.235 60.1528 99.6139 58.566C96.992 56.9801 93.9006 55.8879 90.8743 56.3927C88.4362 56.799 86.2594 58.2122 84.5246 59.9651C82.9002 61.6063 79.4515 65.9979 79.955 69.3301H138.341H138.342Z" fill="white"/>
<path d="M257.74 18.0844C257.36 14.4989 259.719 8.9737 262.23 8.38721C264.741 7.79979 267.264 9.18014 269.55 10.7716C271.837 12.3622 274.107 14.2211 276.63 14.6894C282.441 15.7666 287.73 9.29462 293.585 8.95868C300.233 8.5777 306.531 16.141 313.003 13.949C315.91 12.9646 318.578 10.0425 321.548 10.5061C324.535 10.9715 326.684 14.6706 328.497 18.0853H257.74V18.0844Z" fill="white"/>
<path d="M194.845 44.2942H310.191C317.216 44.2942 322.919 49.9705 322.919 56.9623V272.681C322.919 279.673 317.216 285.349 310.191 285.349H194.845C187.82 285.349 182.117 279.673 182.117 272.681V56.9623C182.117 49.9705 187.82 44.2942 194.845 44.2942Z" fill="url(#paint0_linear_1731_48874)"/>
<path d="M316.932 57.7496V272.739C316.932 276.4 313.95 279.368 310.272 279.368H194.758C191.098 279.368 188.128 276.412 188.128 272.753V57.7505C188.128 54.1125 191.118 51.1359 194.774 51.1359H244.469C245.248 51.1359 245.886 51.7008 246.042 52.4609C246.661 55.4572 249.333 57.7205 252.522 57.7205C255.71 57.7205 258.386 55.4581 259.003 52.4619C259.159 51.7008 259.796 51.1359 260.577 51.1359H310.287C313.942 51.1359 316.932 54.1125 316.932 57.7496Z" fill="white"/>
<path d="M313.467 58.4299C313.467 60.8772 311.47 62.8647 309.006 62.8647C306.543 62.8647 304.545 60.8763 304.545 58.4299C304.545 55.9836 306.543 53.9895 309.006 53.9895C311.47 53.9895 313.467 55.978 313.467 58.4299Z" fill="#EBF4FE"/>
<path d="M310.702 60.1153C310.518 60.2982 310.221 60.2982 310.037 60.1153L307.311 57.4015C307.127 57.2185 307.127 56.9229 307.311 56.739C307.495 56.556 307.792 56.556 307.975 56.739" fill="url(#paint1_linear_1731_48874)"/>
<path d="M310.036 56.739C310.22 56.556 310.517 56.556 310.701 56.739C310.885 56.922 310.885 57.2176 310.701 57.4015L307.974 60.1153C307.882 60.2063 307.763 60.2523 307.642 60.2523C307.52 60.2523 307.401 60.2063 307.309 60.1153C307.125 59.9313 307.125 59.6367 307.309 59.4528" fill="url(#paint2_linear_1731_48874)"/>
<path d="M202.918 55.7415H193.496C193.231 55.7415 193.017 55.5285 193.017 55.2648C193.017 55.0011 193.231 54.789 193.496 54.789H202.918C203.183 54.789 203.396 55.002 203.396 55.2648C203.396 55.5275 203.182 55.7415 202.918 55.7415Z" fill="#EBF4FE"/>
<path d="M202.918 58.5697H193.496C193.231 58.5697 193.017 58.3567 193.017 58.094C193.017 57.8312 193.231 57.6173 193.496 57.6173H202.918C203.183 57.6173 203.396 57.8303 203.396 58.094C203.396 58.3577 203.182 58.5697 202.918 58.5697Z" fill="#EBF4FE"/>
<path d="M202.918 61.3971H193.496C193.231 61.3971 193.017 61.1841 193.017 60.9213C193.017 60.6586 193.231 60.4446 193.496 60.4446H202.918C203.183 60.4446 203.396 60.6576 203.396 60.9213C203.396 61.185 203.182 61.3971 202.918 61.3971Z" fill="#EBF4FE"/>
<path d="M223.776 65.8403C223.776 65.9773 223.664 66.088 223.527 66.088C222.486 66.088 221.639 66.9307 221.639 67.9676C221.639 68.1046 221.528 68.2153 221.39 68.2153C221.252 68.2153 221.141 68.1037 221.141 67.9676C221.141 67.4656 220.945 66.9936 220.588 66.6389C220.232 66.2842 219.758 66.088 219.253 66.088C219.115 66.088 219.004 65.9764 219.004 65.8403C219.004 65.7042 219.116 65.5926 219.253 65.5926C219.757 65.5926 220.231 65.3974 220.588 65.0417C220.945 64.687 221.141 64.2141 221.141 63.713C221.141 63.576 221.252 63.4653 221.39 63.4653C221.528 63.4653 221.639 63.5769 221.639 63.713C221.639 64.216 221.835 64.688 222.192 65.0417C222.549 65.3964 223.024 65.5926 223.527 65.5926C223.665 65.5926 223.776 65.7033 223.776 65.8403Z" fill="#FFB961"/>
<path d="M300.308 92.5709L296.466 95.2462C296.225 95.4142 295.899 95.2171 295.937 94.9272L296.727 88.8568C296.763 88.5715 297.121 88.4617 297.314 88.6757L300.366 92.0707C300.502 92.2209 300.474 92.4555 300.307 92.5709H300.308Z" fill="#F45170"/>
<path d="M201.458 212.067C201.458 212.176 201.369 212.264 201.259 212.264C200.429 212.264 199.755 212.936 199.755 213.761C199.755 213.87 199.666 213.959 199.556 213.959C199.446 213.959 199.358 213.87 199.358 213.761C199.358 213.362 199.201 212.985 198.918 212.703C198.634 212.42 198.257 212.265 197.854 212.265C197.745 212.265 197.656 212.176 197.656 212.068C197.656 211.959 197.745 211.871 197.854 211.871C198.256 211.871 198.634 211.715 198.918 211.432C199.201 211.15 199.358 210.774 199.358 210.374C199.358 210.265 199.447 210.177 199.556 210.177C199.665 210.177 199.755 210.265 199.755 210.374C199.755 210.775 199.911 211.151 200.195 211.432C200.479 211.715 200.857 211.871 201.259 211.871C201.368 211.871 201.458 211.959 201.458 212.068V212.067Z" fill="#B28AFD"/>
<path d="M307.167 195.731C307.167 195.853 307.067 195.953 306.945 195.953C306.013 195.953 305.255 196.707 305.255 197.634C305.255 197.756 305.155 197.856 305.033 197.856C304.91 197.856 304.81 197.756 304.81 197.634C304.81 197.186 304.635 196.764 304.315 196.445C303.997 196.128 303.573 195.953 303.121 195.953C302.998 195.953 302.898 195.853 302.898 195.731C302.898 195.609 302.998 195.51 303.121 195.51C303.572 195.51 303.997 195.335 304.315 195.017C304.634 194.699 304.81 194.277 304.81 193.828C304.81 193.706 304.91 193.607 305.033 193.607C305.155 193.607 305.255 193.706 305.255 193.828C305.255 194.278 305.431 194.7 305.75 195.017C306.07 195.335 306.493 195.51 306.945 195.51C307.067 195.51 307.167 195.609 307.167 195.731Z" fill="#6EB954"/>
<path d="M196.068 126.249L198.123 128.833C198.254 128.998 198.227 129.238 198.061 129.368L196.905 130.28C196.739 130.411 196.498 130.383 196.367 130.218L194.311 127.634C194.18 127.469 194.208 127.23 194.374 127.098L195.529 126.187C195.695 126.057 195.937 126.084 196.068 126.249Z" fill="url(#paint3_linear_1731_48874)"/>
<path d="M191.475 71.7333V102.693C191.475 104.072 190.353 105.188 188.968 105.188H169.596L162.53 115.332C161.533 116.763 159.407 116.763 158.41 115.332L152.085 106.26C151.616 105.588 150.847 105.187 150.026 105.187H131.965C130.58 105.187 129.458 104.071 129.458 102.692V71.7324C129.458 70.3539 130.581 69.2372 131.965 69.2372H188.969C190.354 69.2372 191.476 70.3539 191.476 71.7324L191.475 71.7333Z" fill="#6EB954"/>
<path d="M151.024 100.538C150.37 100.538 149.791 100.116 149.594 99.4952L145.955 88.0442H140.65C139.822 88.0442 139.15 87.3761 139.15 86.5512C139.15 85.7264 139.822 85.0583 140.65 85.0583H147.054C147.708 85.0583 148.286 85.4796 148.484 86.1008L150.995 94.0048L156.664 75.4446C156.862 74.799 157.513 74.3063 158.149 74.388C158.828 74.4096 159.407 74.8834 159.56 75.5422L162.599 88.6016L165.854 79.641C166.056 79.0846 166.569 78.6989 167.163 78.6585C167.739 78.6351 168.317 78.9316 168.593 79.4562L172.153 86.2303H177.215C178.044 86.2303 178.715 86.8984 178.715 87.7233C178.715 88.5481 178.044 89.2162 177.215 89.2162H171.246C170.687 89.2162 170.175 88.9075 169.916 88.4158L167.515 83.8478L163.694 94.3698C163.469 94.9919 162.851 95.3973 162.194 95.3523C161.53 95.3129 160.972 94.8437 160.822 94.199L157.902 81.6529L152.457 99.4792C152.265 100.105 151.688 100.533 151.03 100.538H151.023H151.024Z" fill="#4B9534"/>
<path d="M191.469 92.3626V102.696C191.469 104.069 190.347 105.186 188.968 105.186H169.599L162.536 115.338C161.536 116.771 159.414 116.771 158.413 115.338L152.078 106.256C151.608 105.593 150.85 105.186 150.032 105.186H131.965C130.586 105.186 129.449 104.069 129.449 102.696V99.377C137.149 101.987 147.349 103.133 158.534 102.198C171.72 101.097 183.511 97.3707 191.468 92.3626H191.469Z" fill="#4B9534"/>
<path d="M282.667 88.8531C275.586 80.1778 265.119 74.8093 253.949 74.1243C253.328 74.0849 252.857 73.5538 252.895 72.9372C252.933 72.3189 253.467 71.8544 254.086 71.8872C265.883 72.6116 276.938 78.2804 284.413 87.4408C284.805 87.9203 284.732 88.626 284.249 89.0154C283.77 89.4048 283.059 89.3335 282.667 88.8521V88.8531Z" fill="#F3F1FC"/>
<path d="M261.153 154.092C260.99 153.495 261.345 152.88 261.945 152.72C274.652 149.302 284.884 139.889 289.317 127.538C289.526 126.955 290.167 126.647 290.755 126.86C291.34 127.068 291.645 127.708 291.436 128.29C286.756 141.334 275.95 151.274 262.533 154.881C261.951 155.043 261.318 154.701 261.153 154.092Z" fill="#F3F1FC"/>
<path d="M292.774 115.192C292.153 115.192 291.649 114.69 291.649 114.073C291.649 108.08 290.352 102.317 287.793 96.9447C287.527 96.3863 287.767 95.7182 288.328 95.4536C288.891 95.1899 289.561 95.4273 289.826 95.9856C292.528 101.662 293.898 107.746 293.898 114.074C293.898 114.692 293.393 115.193 292.773 115.193L292.774 115.192Z" fill="#F3F1FC"/>
<path d="M215.959 92.8928C215.436 92.5606 215.282 91.8681 215.616 91.3473C221.942 81.4849 232.171 74.6197 243.679 72.5103C244.282 72.392 244.875 72.8002 244.989 73.4083C245.101 74.0164 244.698 74.5991 244.086 74.7117C233.19 76.7105 223.504 83.2134 217.513 92.5512C217.179 93.0729 216.481 93.2259 215.959 92.8928Z" fill="#F3F1FC"/>
<path d="M222.289 144.379C222.002 144.379 221.716 144.271 221.496 144.053C213.418 136.06 208.969 125.413 208.969 114.073C208.969 111.595 209.187 109.11 209.614 106.69C209.722 106.079 210.307 105.672 210.917 105.781C211.528 105.887 211.938 106.468 211.83 107.077C211.425 109.37 211.218 111.724 211.218 114.073C211.218 124.813 215.432 134.895 223.083 142.464C223.793 143.167 223.287 144.379 222.29 144.379H222.289Z" fill="#F3F1FC"/>
<path d="M238.775 154.432C235.717 153.483 232.764 152.183 229.998 150.571C229.462 150.258 229.282 149.573 229.596 149.039C229.911 148.505 230.601 148.328 231.134 148.638C233.753 150.166 236.549 151.395 239.443 152.295C240.036 152.479 240.367 153.107 240.182 153.698C239.996 154.293 239.359 154.616 238.774 154.432L238.775 154.432Z" fill="#F3F1FC"/>
<path d="M258.04 82.1343C257.967 82.1343 257.894 82.1268 257.819 82.1127C253.77 81.3151 249.478 81.2916 245.408 82.0432C244.799 82.1624 244.209 81.7542 244.096 81.1462C243.983 80.5381 244.386 79.9535 244.997 79.8409C249.346 79.0376 253.928 79.062 258.257 79.9169C258.866 80.0361 259.263 80.6254 259.142 81.2325C259.036 81.7664 258.566 82.1352 258.04 82.1352V82.1343Z" fill="#F3F1FC"/>
<path d="M226.194 138.186C219.91 131.67 216.45 123.108 216.45 114.073C216.45 105.038 219.753 96.8762 225.749 90.4258C226.171 89.9725 226.883 89.9472 227.338 90.3648C227.795 90.7842 227.823 91.4927 227.4 91.9478C221.789 97.9806 218.7 105.84 218.7 114.073C218.7 122.306 221.937 130.54 227.816 136.635C228.247 137.081 228.232 137.79 227.784 138.218C227.337 138.645 226.626 138.633 226.194 138.186Z" fill="#F3F1FC"/>
<path d="M276.842 136.373C276.363 135.979 276.296 135.275 276.691 134.797C285.954 123.626 286.907 107.164 277.88 94.868C277.514 94.3698 277.623 93.6679 278.125 93.3038C278.624 92.9378 279.329 93.0476 279.696 93.5468C289.37 106.724 288.3 124.314 278.426 136.222C278.032 136.697 277.326 136.768 276.842 136.372V136.373Z" fill="#F3F1FC"/>
<path d="M240.038 83.8673H265.021C270.492 83.8673 274.934 88.288 274.934 93.7334V135.063C274.934 140.509 270.492 144.929 265.021 144.929H240.038C234.567 144.929 230.125 140.509 230.125 135.062V93.7325C230.125 88.2871 234.566 83.8664 240.037 83.8664L240.038 83.8673Z" fill="#F3F1FC"/>
<path d="M274.937 93.7336V135.056C274.937 140.505 270.496 144.927 265.021 144.927H240.037C234.563 144.927 230.121 140.506 230.121 135.056V131.679C234.424 135.256 239.683 137.359 245.358 137.359C259.933 137.359 271.761 123.467 271.761 106.336C271.761 97.4946 268.615 89.5118 263.556 83.8637H265.021C270.496 83.8637 274.937 88.2844 274.937 93.7336Z" fill="#D0CEF2"/>
<path d="M274.934 96.4717V104.381H260.069C259.327 104.381 258.726 103.783 258.726 103.044V97.8099C258.726 97.0713 259.327 96.4727 260.069 96.4727H274.934V96.4717Z" fill="#8FB7FF"/>
<path d="M274.934 110.444V118.354H260.069C259.327 118.354 258.726 117.755 258.726 117.017V111.782C258.726 111.044 259.327 110.445 260.069 110.445H274.934V110.444Z" fill="#8FB7FF"/>
<path d="M274.934 124.417V132.326H260.069C259.327 132.326 258.726 131.727 258.726 130.989V125.755C258.726 125.016 259.327 124.418 260.069 124.418H274.934V124.417Z" fill="#8FB7FF"/>
<path d="M274.937 102.468V104.387H260.07C259.33 104.387 258.729 103.788 258.729 103.052V97.8174C258.729 97.1117 259.253 96.5431 259.916 96.4821V101.134C259.916 101.87 260.518 102.469 261.258 102.469H274.938L274.937 102.468Z" fill="#497BFE"/>
<path d="M274.937 116.437V118.356H260.07C259.33 118.356 258.729 117.757 258.729 117.02V111.786C258.729 111.095 259.253 110.528 259.916 110.466V115.101C259.916 115.838 260.518 116.437 261.258 116.437H274.938H274.937Z" fill="#497BFE"/>
<path d="M274.937 130.42V132.324H260.07C259.33 132.324 258.729 131.726 258.729 130.989V125.755C258.729 125.064 259.253 124.496 259.916 124.434V129.07C259.916 129.823 260.518 130.42 261.258 130.42H274.938H274.937Z" fill="#497BFE"/>
<path d="M230.126 96.4719V104.381H244.991C245.733 104.381 246.334 103.783 246.334 103.044V97.81C246.334 97.0715 245.733 96.4728 244.991 96.4728H230.126V96.4719Z" fill="#8FB7FF"/>
<path d="M230.126 110.444V118.354H244.991C245.733 118.354 246.334 117.755 246.334 117.017V111.782C246.334 111.044 245.733 110.445 244.991 110.445H230.126V110.444Z" fill="#8FB7FF"/>
<path d="M230.126 124.417V132.326H244.991C245.733 132.326 246.334 131.727 246.334 130.989V125.755C246.334 125.016 245.733 124.418 244.991 124.418H230.126V124.417Z" fill="#8FB7FF"/>
<path d="M246.328 97.8164V103.051C246.328 103.787 245.727 104.386 244.987 104.386H230.12V102.913H243.383C244.123 102.913 244.725 102.314 244.725 101.577V96.4661H244.987C245.727 96.4661 246.328 97.0648 246.328 97.8164Z" fill="#497BFE"/>
<path d="M246.328 111.785V117.019C246.328 117.756 245.727 118.355 244.987 118.355H230.12V116.881H243.383C244.123 116.881 244.725 116.283 244.725 115.546V110.45H244.987C245.727 110.45 246.328 111.048 246.328 111.785Z" fill="#497BFE"/>
<path d="M246.328 125.754V130.988C246.328 131.725 245.727 132.323 244.987 132.323H230.12V130.849H243.383C244.123 130.849 244.725 130.25 244.725 129.514V124.418H244.987C245.727 124.418 246.328 125.016 246.328 125.753V125.754Z" fill="#497BFE"/>
<path d="M261.05 141.795H244.009C243.353 141.795 242.82 142.325 242.82 142.979V146.879C242.82 147.532 243.353 148.062 244.009 148.062H261.05C261.707 148.062 262.239 147.532 262.239 146.879V142.979C262.239 142.325 261.707 141.795 261.05 141.795Z" fill="#F45170"/>
<path d="M262.245 146.8V146.877C262.245 147.537 261.705 148.059 261.057 148.059H244.015C243.352 148.059 242.827 147.537 242.827 146.877V142.978C242.827 142.44 243.198 141.964 243.707 141.841V145.663C243.707 146.323 244.231 146.846 244.895 146.846H261.936C262.045 146.846 262.152 146.831 262.245 146.8Z" fill="#DF3260"/>
<path d="M255.307 148.062H249.753V158.064H255.307V148.062Z" fill="#F3F1FC"/>
<path d="M255.305 148.058V149.531H251.938C251.549 149.531 251.234 149.846 251.234 150.232V158.066H249.754V148.058H255.306H255.305Z" fill="#D0CEF2"/>
<path d="M265.126 163.075V165.842H239.935V163.075C239.935 160.308 242.189 158.064 244.969 158.064H260.091C262.872 158.064 265.126 160.308 265.126 163.075Z" fill="#F45170"/>
<path d="M265.126 164.202H239.935V165.843H265.126V164.202Z" fill="#DF3260"/>
<path d="M275.416 167.564C275.416 168.512 274.643 169.279 273.692 169.279H231.366C230.414 169.279 229.643 168.511 229.643 167.564C229.643 166.616 230.415 165.849 231.366 165.849H273.692C274.644 165.849 275.416 166.616 275.416 167.564Z" fill="#F45170"/>
<path d="M267.347 199.319C267.347 207.466 260.716 214.078 252.531 214.078C244.345 214.078 237.715 207.466 237.715 199.319C237.715 191.172 244.345 184.572 252.531 184.572C260.716 184.572 267.347 191.184 267.347 199.319Z" fill="#F3F1FC"/>
<path d="M263.249 199.321C263.249 205.215 258.452 209.998 252.53 209.998C246.608 209.998 241.812 205.216 241.812 199.321C241.812 193.426 246.608 188.652 252.53 188.652C258.452 188.652 263.249 193.435 263.249 199.321Z" fill="#4C5C75"/>
<path d="M256.896 200.283L251.823 204.294C251.012 204.935 249.814 204.361 249.814 203.329V195.322C249.814 194.292 251.009 193.717 251.821 194.356L256.894 198.352C257.52 198.845 257.521 199.79 256.896 200.283Z" fill="white"/>
<path d="M279.719 193.133L285.531 198.587C285.958 198.988 285.958 199.663 285.532 200.064L279.736 205.518C279.085 206.13 278.016 205.672 278.014 204.781L277.998 193.874C277.997 192.983 279.066 192.523 279.718 193.134L279.719 193.133Z" fill="#F3F1FC"/>
<path d="M293.047 193.133L298.859 198.587C299.286 198.988 299.286 199.663 298.86 200.064L293.064 205.518C292.413 206.13 291.344 205.672 291.342 204.781L291.326 193.874C291.325 192.983 292.395 192.523 293.047 193.134V193.133Z" fill="#F3F1FC"/>
<path d="M225.343 193.133L219.53 198.587C219.103 198.988 219.103 199.663 219.529 200.064L225.326 205.518C225.975 206.13 227.045 205.672 227.047 204.781L227.063 193.874C227.064 192.983 225.994 192.523 225.343 193.134V193.133Z" fill="#F3F1FC"/>
<path d="M212.014 193.133L206.201 198.587C205.774 198.988 205.774 199.663 206.2 200.064L211.997 205.518C212.646 206.13 213.716 205.672 213.718 204.781L213.734 193.874C213.735 192.983 212.665 192.523 212.014 193.134V193.133Z" fill="#F3F1FC"/>
<path d="M299.063 230.267H204.153C203.532 230.267 203.028 229.766 203.028 229.148C203.028 228.53 203.532 228.028 204.153 228.028H299.063C299.684 228.028 300.188 228.53 300.188 229.148C300.188 229.765 299.684 230.267 299.063 230.267Z" fill="#D0CEF2"/>
<path d="M225.138 229.153C225.138 231.455 223.25 233.334 220.937 233.334C218.623 233.334 216.723 231.455 216.723 229.153C216.723 226.85 218.61 224.958 220.937 224.958C223.264 224.958 225.138 226.837 225.138 229.153Z" fill="#111D33"/>
<path d="M223.267 229.15C223.267 230.429 222.219 231.472 220.934 231.472C219.649 231.472 218.593 230.429 218.593 229.15C218.593 227.871 219.641 226.82 220.934 226.82C222.226 226.82 223.267 227.863 223.267 229.15Z" fill="#4C5C75"/>
<path d="M203.98 270.191C201.598 270.191 199.674 268.275 199.674 265.894V245.756C199.674 243.383 201.607 241.459 203.991 241.459H299.252C301.637 241.459 303.569 243.383 303.569 245.756V265.894C303.569 268.275 301.635 270.191 299.252 270.191H203.98Z" fill="#A9E0FF"/>
<path d="M292.661 247.751H232.155C231.358 247.751 230.712 248.395 230.712 249.188C230.712 249.982 231.359 250.625 232.155 250.625H292.661C293.459 250.625 294.106 249.981 294.106 249.187C294.106 248.393 293.459 247.75 292.661 247.75V247.751Z" fill="white"/>
<path d="M226.533 249.188C226.533 248.394 225.887 247.751 225.09 247.751H211.305C210.508 247.751 209.861 248.395 209.861 249.188C209.861 249.981 210.508 250.626 211.305 250.626H225.09C225.888 250.626 226.533 249.982 226.533 249.189V249.188Z" fill="white"/>
<path d="M218.211 255.861C218.211 255.067 217.564 254.424 216.767 254.424H211.305C210.508 254.424 209.861 255.068 209.861 255.862C209.861 256.655 210.508 257.298 211.305 257.298H216.767C217.565 257.298 218.211 256.655 218.211 255.862V255.861Z" fill="white"/>
<path d="M283.394 254.424H224.289C223.492 254.424 222.846 255.068 222.846 255.861C222.846 256.655 223.492 257.297 224.289 257.297H283.394C284.192 257.297 284.838 256.654 284.838 255.861C284.838 255.068 284.192 254.423 283.394 254.423V254.424Z" fill="white"/>
<path d="M244.637 262.461C244.637 261.667 243.991 261.024 243.193 261.024H210.582C209.784 261.024 209.139 261.667 209.139 262.461C209.139 263.255 209.785 263.898 210.582 263.898H243.193C243.991 263.898 244.637 263.254 244.637 262.461Z" fill="white"/>
<path d="M291.819 261.025H258.319C257.522 261.025 256.876 261.668 256.876 262.462C256.876 263.256 257.523 263.899 258.319 263.899H291.819C292.617 263.899 293.263 263.255 293.263 262.462C293.263 261.669 292.616 261.025 291.819 261.025Z" fill="white"/>
<path d="M158.241 154.617C158.241 154.617 160.559 148.67 162.509 148.022C164.46 147.375 164.053 153.477 162.306 160.521L158.24 154.617H158.241Z" fill="#E27659"/>
<path d="M140.699 200.925C135.444 193.855 129.026 200.588 129.026 200.588C129.026 200.588 138.4 226.713 146.569 227.379C153.564 227.95 158.102 213.664 159.345 200.925H140.699Z" fill="#E27659"/>
<path d="M130.735 293.809C133.697 269.857 125.271 248.537 125.237 248.387L39.6492 253.11C33.2194 271.501 37.4072 289.225 38.7054 293.829C56.0866 293.826 -7.50033 293.84 130.735 293.809Z" fill="#4C5C75"/>
<path d="M74.4458 281.112C70.4653 279.252 81.6797 288.819 80.1986 292.951C80.0648 293.323 79.8649 293.603 79.6282 293.829H85.5272C85.3161 291.672 84.3902 289.527 83.027 287.805C80.77 284.941 75.0171 281.379 74.4467 281.112H74.4458Z" fill="#111D33"/>
<path d="M74.9583 293.829C73.1105 293.137 71.1768 292.003 69.8333 291.102C66.7995 289.049 64.2257 286.32 60.9853 284.615C57.5753 282.828 53.5939 282.284 50.2565 280.375C46.9068 278.478 44.2736 274.251 46.0696 270.856C47.7807 267.655 52.1383 267.232 55.7916 267.232C71.339 267.184 86.8977 267.147 102.457 267.111C112.249 267.081 122.424 266.61 128.345 258.752C126.792 252.349 125.239 248.387 125.239 248.387L39.6511 253.109C33.2213 271.5 37.4092 289.224 38.7074 293.828H74.9602L74.9583 293.829Z" fill="#111D33"/>
<path d="M153.386 185.563V185.578C151.125 193.509 136.696 208.07 129.21 204.776C127.076 203.848 125.062 191.344 125.062 191.344C120.366 210.026 135.535 241.786 126.321 249.719C124.469 251.296 121.358 252.83 117.359 254.246C113.818 255.499 109.582 256.679 104.93 257.725C77.2869 264.007 34.8598 266.145 34.8448 257.342C34.8448 254.688 41.7931 183.486 41.7931 183.486C41.7931 183.486 36.8303 203.774 31.793 203.568C28.6818 203.45 10.5945 194.81 7.14204 189.693C6.8611 189.28 6.68291 188.896 6.60843 188.542C6.56412 188.307 6.54903 188.07 6.60843 187.864C7.00817 186.228 7.67472 183.883 8.57884 181.081C9.1266 179.327 9.77901 177.396 10.5342 175.346C14.0894 165.628 19.5707 153.509 26.2372 146.446C26.2372 146.431 26.2372 146.416 26.2522 146.416C26.6378 146.018 27.0074 145.649 27.393 145.281C27.393 145.271 27.398 145.266 27.4081 145.266C27.7937 144.913 28.1783 144.559 28.5639 144.234C28.5639 144.224 28.569 144.219 28.579 144.219C28.9788 143.895 29.3644 143.586 29.7641 143.29C30.1638 142.995 30.5787 142.73 30.9784 142.479C31.3932 142.229 31.8081 142.007 32.2229 141.801C45.5255 135.239 70.8279 129.164 84.2796 129.961C96.8572 130.727 120.56 138.63 131.092 143.703C141.684 148.818 155.494 179.442 153.387 185.563H153.386Z" fill="#FFD475"/>
<path d="M151.416 189.836C146.657 197.748 135.48 207.532 129.206 204.778C127.069 203.848 125.055 191.345 125.055 191.345C120.37 210.021 135.528 241.792 126.317 249.716C124.473 251.298 121.353 252.833 117.36 254.246C116.827 250.392 116.815 246.37 116.354 242.528C115.031 231.415 116.438 220.169 118.137 209.103C120.965 190.79 124.618 172.598 129.097 154.611C133.272 168.019 141.076 180.304 151.417 189.836H151.416Z" fill="#EF9645"/>
<path d="M104.055 250.427C102.292 240.945 100.189 230.771 93.0926 224.21C87.2256 218.739 78.9452 216.779 72.012 212.709C65.3456 208.802 59.9085 202.845 56.6201 195.871C52.0721 186.212 54.2122 189.155 43.3269 170.094C43.3269 170.094 41.4743 184.578 41.7317 183.707C41.776 183.56 41.7911 183.487 41.7911 183.487C41.7911 183.487 40.4834 196.885 39.0033 212.272C38.7591 214.84 34.8428 255.36 34.8428 257.343C34.8579 266.146 77.285 264.009 104.928 257.726C104.913 255.293 104.498 252.817 104.054 250.427L104.055 250.427Z" fill="#EF9645"/>
<path d="M53.5098 271.447C53.5098 271.447 62.9178 268.125 64.7581 268.36C66.5984 268.595 68.3152 271.277 57.6693 274.182L53.5098 271.447Z" fill="#E27659"/>
<path d="M29.0599 211.441L38.9798 252.409C38.9798 252.409 52.9443 264.574 51.9025 266.524C50.3865 269.347 43.0272 265.672 43.0272 265.672C43.0272 265.672 44.6205 272.13 53.8267 271.428C63.0283 270.715 64.9308 274.203 64.6546 275.358C64.3793 276.513 55.1363 277.165 55.1363 277.165C55.1363 277.165 51.8233 279.583 49.4777 280.179C47.1481 280.78 40.4166 277.734 38.0257 275.832C34.9805 273.421 31.9674 269.421 29.4087 263.931C28.7572 262.541 28.1406 261.055 27.5589 259.472C27.5589 259.472 10.6322 229.128 6.33031 216.863C2.628 206.278 9.18411 185.519 9.18411 185.519L38.598 191.243L35.4915 197.816L29.0599 211.44V211.441Z" fill="#F7A386"/>
<path d="M38.5979 191.244L35.4914 197.817C34.4223 197.594 33.4277 197.443 32.4991 198.234C31.1707 199.371 30.3231 200.564 28.6355 201.307C25.6469 202.616 21.9455 202.521 19.2284 200.637C17.72 199.591 16.5387 198.127 14.9793 197.172C13.42 196.217 11.1856 195.907 9.86945 197.185C8.46941 198.542 8.84653 200.832 9.32735 202.715C10.7981 208.51 12.2632 214.294 13.7452 220.085C14.7304 223.987 15.7458 227.953 17.7294 231.471C20.0138 235.517 23.5888 239.002 24.5288 243.55C25.2132 246.898 24.376 250.539 25.745 253.662C26.634 255.702 28.3612 257.273 29.3388 259.273C30.0431 260.718 30.1647 262.634 29.4067 263.932C28.7553 262.542 28.1387 261.056 27.557 259.473C27.557 259.473 10.6303 229.129 6.32835 216.864C2.62605 206.279 9.18216 185.52 9.18216 185.52L38.596 191.244H38.5979Z" fill="url(#paint4_linear_1731_48874)"/>
<path d="M53.827 271.428C44.6208 272.13 43.0275 265.672 43.0275 265.672C43.0275 265.672 50.3878 269.346 51.9028 266.523C52.8371 264.775 41.7104 254.819 39.4015 252.78L27.0322 258.523C27.366 259.126 27.5583 259.472 27.5583 259.472C28.14 261.055 28.7556 262.541 29.408 263.931C31.9677 269.421 34.9799 273.421 38.0251 275.832C40.4169 277.734 47.1474 280.78 49.477 280.179C51.8227 279.583 55.1356 277.165 55.1356 277.165C55.1356 277.165 64.3787 276.513 64.654 275.358C64.9302 274.203 63.0277 270.715 53.8261 271.428H53.827Z" fill="#F7A386"/>
<path d="M41.6457 275.203C43.832 276.009 46.1107 276.554 48.4035 276.863C49.5528 277.021 50.7086 277.04 51.8569 277.105C53.0109 277.189 54.1573 277.123 55.3377 277.125C55.3547 277.125 55.3688 277.137 55.3697 277.154C55.3697 277.168 55.3603 277.181 55.3481 277.184C54.2186 277.526 53.0326 277.684 51.8494 277.708C50.6643 277.722 49.4849 277.565 48.3291 277.34C46.0117 276.917 43.7509 276.229 41.6212 275.257C41.6061 275.25 41.5995 275.232 41.6061 275.217C41.6127 275.203 41.6306 275.196 41.6457 275.202V275.203Z" fill="#E27659"/>
<path d="M64.6549 275.358C64.619 275.481 64.5021 275.603 64.2928 275.7C64.0553 274.277 61.6361 271.602 53.4688 272.234C44.2625 272.936 42.4033 265.336 42.4033 265.336C42.4033 265.336 43.018 265.181 43.5215 266.869L43.5271 266.88C44.5086 268.716 47.1955 271.935 53.828 271.428C63.0295 270.715 64.932 274.203 64.6558 275.358H64.6549Z" fill="#FEE1BC"/>
<path d="M41.7921 183.485C41.7921 183.485 41.777 183.558 41.7327 183.705C41.3028 185.401 38.4886 196.164 35.0955 201.104C35.0955 201.114 35.0905 201.119 35.0804 201.119C34.0292 202.652 32.9026 203.611 31.792 203.566C30.2515 203.507 25.0662 201.383 19.7923 198.612C14.3854 195.766 8.88899 192.287 7.14107 189.692C6.86012 189.279 6.68193 188.895 6.60745 188.542C6.56314 188.306 6.54806 188.07 6.60745 187.863C7.00719 186.227 7.67374 183.882 8.57787 181.081C9.12562 179.326 9.77803 177.395 10.5332 175.345C10.6067 175.153 10.6812 174.947 10.7548 174.74H41.4791L41.7902 183.484L41.7921 183.485Z" fill="#FFD475"/>
<path d="M39.2589 191.963C38.1181 195.28 36.6813 198.82 35.0965 201.105C35.0965 201.115 35.0915 201.12 35.0814 201.12C34.0302 202.653 32.9036 203.612 31.793 203.567C30.2525 203.508 25.0672 201.384 19.7932 198.613C14.3864 195.767 8.88996 192.288 7.14204 189.693C6.8611 189.28 6.68291 188.896 6.60843 188.542C6.56412 188.307 6.54903 188.07 6.60843 187.864C7.00817 186.228 7.67472 183.883 8.57884 181.081C9.1266 179.327 9.77901 177.396 10.5342 175.346C10.6077 175.154 10.6822 174.948 10.7557 174.741H10.8C10.4295 175.802 10.1033 176.82 9.80823 177.792C8.88902 180.594 8.23756 182.939 7.82273 184.575C7.77842 184.781 7.77842 185.017 7.82273 185.253C7.89721 185.607 8.07446 185.99 8.35541 186.404C10.1033 188.999 15.5997 192.478 21.0217 195.324C26.2956 198.096 31.4809 200.22 33.0063 200.279C34.1169 200.324 35.2436 199.365 36.2948 197.831C36.3048 197.831 36.3099 197.826 36.3099 197.816C37.3761 196.268 38.3689 194.175 39.2579 191.963H39.2589Z" fill="#EF9645"/>
<path d="M153.386 185.563C151.727 175.227 140.261 151.916 131.091 147.477C120.559 142.405 96.8562 134.516 84.2786 133.751C70.827 132.954 45.5255 139.029 32.2219 145.575C19.5556 151.798 9.94113 179.283 7.14201 189.692C6.86106 189.279 6.68288 188.895 6.6084 188.542C6.62348 188.129 6.68288 187.731 6.7715 187.362C7.15616 185.814 7.76425 183.646 8.57881 181.081C9.12657 179.326 9.77898 177.395 10.5341 175.345C14.0149 165.686 19.4962 153.537 26.2371 146.445C26.2371 146.43 26.2371 146.415 26.2522 146.415C26.6227 146.017 27.0074 145.633 27.393 145.28C27.393 145.27 27.398 145.265 27.4081 145.265C27.7786 144.897 28.1642 144.558 28.5639 144.233C28.5639 144.223 28.5689 144.218 28.579 144.218C28.9637 143.895 29.3643 143.585 29.7641 143.289C30.1789 142.994 30.5786 142.729 30.9784 142.478C31.3932 142.228 31.808 142.006 32.2229 141.8C45.5255 135.238 70.8279 129.163 84.2795 129.96C96.8572 130.726 120.56 138.629 131.092 143.702C141.684 148.817 155.494 179.441 153.387 185.562L153.386 185.563Z" fill="#EF9645"/>
<path d="M68.3669 128.285C68.3669 128.285 62.5885 129.904 62.2982 133.905C62.0069 137.907 69.6019 153.571 75.3962 153.05C78.8572 152.739 79.5539 146.168 87.0905 145.57C87.0905 145.57 88.8252 137.557 73.7775 136.647C66.6359 136.216 68.3678 128.286 68.3678 128.286L68.3669 128.285Z" fill="#EF9645"/>
<path d="M87.09 145.569C87.09 145.569 84.2947 141.981 96.6696 133.681C96.6696 133.681 108.899 148.478 99.3123 149.327C96.1266 149.609 92.4978 144.487 87.091 145.569H87.09Z" fill="#EF9645"/>
<path d="M162.866 126.498L157.234 176.151C157.062 177.666 155.785 178.816 154.254 178.836L126.501 179.2C124.671 179.223 123.235 177.645 123.441 175.836L129.073 126.184C129.244 124.669 130.522 123.519 132.053 123.499L159.806 123.135C161.635 123.11 163.072 124.69 162.867 126.499L162.866 126.498Z" fill="#4C5C75"/>
<path d="M134.559 123.46L132.058 123.493C130.516 123.518 129.242 124.665 129.072 126.187L123.441 175.836C123.234 177.648 124.666 179.23 126.499 179.207L128.756 179.171C127.154 178.953 125.977 177.491 126.159 175.837L131.802 126.188C131.963 124.74 133.129 123.643 134.559 123.518V123.461V123.46Z" fill="#111D33"/>
<path d="M159.693 194.728C159.559 208.451 154.632 228.842 146.573 227.38C140.19 226.22 139.122 217.487 139.122 217.487C138.903 214.78 139 211.942 139.303 209.103C140.772 195.393 147.168 181.5 147.168 181.5C143.162 175.907 147.168 169.384 147.168 169.384C147.168 169.384 147.472 168.538 142.302 167.101C137.131 165.651 137.738 162.607 139.086 161.846C139.571 161.58 141.33 162.002 141.33 162.002C138.212 159.647 139.522 157.243 140.772 156.965C144 156.264 153.067 161.858 153.067 161.858V161.846C152.232 159.772 149.76 156.908 145.628 154.996C139.668 152.242 141.72 149.995 143.152 149.766C145.082 149.464 150.519 151.977 150.835 152.122C147.849 147.411 150.835 145.84 151.769 146.082C152.703 146.335 163.178 156.701 164.269 161.64C166.095 170.031 159.826 181.014 159.694 194.727L159.693 194.728Z" fill="#F7A386"/>
<path d="M146.949 181.983C147.011 182.092 147.095 182.201 147.168 182.31C147.168 182.31 140.772 196.202 139.303 209.913C139.121 211.581 139.012 213.235 139.012 214.878C138.881 204.574 142.828 191.336 146.949 181.984V181.983Z" fill="#FEE1BC"/>
<path d="M141.671 151.772C141.367 150.648 142.35 149.899 143.151 149.767C144.74 149.513 148.685 151.168 150.214 151.857H150.226C151.091 152.251 152.725 152.818 152.967 153.193C152.651 153.047 145.08 150.275 143.151 150.577C142.568 150.673 141.877 151.108 141.671 151.773V151.772Z" fill="#FEE1BC"/>
<path d="M154.26 162.569C154.26 162.569 144.001 157.076 140.772 157.776C140.178 157.897 139.583 158.501 139.437 159.358C139.219 158.102 140.008 157.136 140.772 156.966C143.491 156.374 150.373 160.264 152.46 161.496C152.545 161.617 154.26 162.568 154.26 162.568V162.569Z" fill="#FEE1BC"/>
<path d="M164.596 165.519C164.596 164.462 164.469 163.372 164.268 162.451C163.175 157.51 152.702 147.145 151.768 146.892C151.173 146.735 149.753 147.315 149.559 148.957C149.316 146.697 151.088 145.901 151.768 146.082C152.702 146.335 163.176 156.701 164.268 161.64C164.425 162.366 164.523 163.114 164.572 163.875C164.608 164.419 164.608 164.963 164.596 165.518V165.519Z" fill="#FEE1BC"/>
<path d="M150.862 152.102C152.715 152.967 154.489 154.02 156.08 155.339C156.874 155.992 157.667 156.69 158.239 157.579C158.795 158.458 159.249 159.467 159.229 160.518L159.168 160.526C158.845 159.553 158.355 158.704 157.744 157.929C156.453 156.225 154.628 154.339 150.836 152.158L150.862 152.103V152.102Z" fill="#E27659"/>
<path d="M157.217 167.717L157.156 167.729C156.89 166.739 156.44 165.869 155.87 165.06C155.082 163.919 154.121 162.752 153.067 161.859V161.847C153.042 161.787 152.922 161.484 152.666 161.025C153.877 161.904 155.631 163.434 156.38 164.734C156.89 165.64 157.289 166.678 157.217 167.718V167.717Z" fill="#E27659"/>
<path d="M141.328 161.979C143.932 162.272 147.305 163.425 149.045 165.274C149.686 165.996 150.191 166.843 150.436 167.76L150.38 167.785C149.822 167.021 149.289 166.303 148.613 165.698C147.943 165.099 147.259 164.505 146.481 164.017C144.906 163.085 143.145 162.417 141.321 162.039L141.329 161.979H141.328Z" fill="#E27659"/>
<path d="M68.3669 126.612C68.3669 126.612 70.3873 125.564 71.5676 125.64C72.7471 125.716 74.692 130.293 74.692 130.293C72.0268 134.149 69.3615 134.997 66.6963 132.837L68.3678 126.611L68.3669 126.612Z" fill="#AF1E4E"/>
<path d="M91.5603 130.798C91.5603 130.798 93.5806 129.749 94.761 129.825C95.9404 129.901 97.8854 134.478 97.8854 134.478C95.2201 138.335 92.5549 139.183 89.8896 137.023L91.5612 130.798H91.5603Z" fill="#AF1E4E"/>
<path d="M95.7311 98.7651V138.792L87.0896 143.896L69.1758 136.1V98.7651H95.7311Z" fill="#F7A386"/>
<path d="M87.0896 143.896L69.1758 134.004V98.8646C69.2333 98.8355 69.2899 98.7933 69.3474 98.7651C71.2358 97.64 73.5682 97.2271 75.714 97.7686C76.5729 97.9825 77.345 98.3241 78.0464 98.7651C80.1922 100.132 81.58 102.468 82.238 104.96C84.282 112.524 85.5019 118.586 84.7703 126.806C84.627 128.529 84.413 130.338 85.0852 131.932C85.7433 133.527 87.9551 132.841 89.2344 133.997C93.2695 137.642 85.4011 138.727 87.0886 143.896H87.0896Z" fill="url(#paint5_linear_1731_48874)"/>
<path d="M101.497 128.21C91.3846 126.263 80.7274 120.603 72.3838 114.383C70.3361 112.849 69.1755 111.84 69.1755 111.84V104.927C69.1755 104.927 65.8824 101.209 64.636 97.2159C63.6018 93.9588 63.9393 90.5337 68.5203 88.8108L70.2936 73.7658C88.215 72.9982 105.013 73.1108 111.292 81.4774C111.292 81.4774 118.892 131.614 101.497 128.21Z" fill="url(#paint6_linear_1731_48874)"/>
<path d="M62.662 94.3286C65.0718 99.1416 67.4815 102.721 67.6333 102.938C65.2754 98.2651 63.7556 90.4325 68.0962 89.0906C73.0354 87.5676 75.2265 96.5094 75.2265 96.5094C75.2265 96.5094 77.0432 102.063 78.4687 101.571C81.1698 100.638 77.459 91.5566 80.3109 90.3396C83.1685 89.1225 86.3324 88.2263 86.5201 82.8232C86.619 79.8551 88.0087 78.8548 90.0743 78.5958C104.565 76.7932 107.786 86.1751 114.526 79.9067C117.847 76.8241 119.19 73.1926 118.373 69.654C116.832 62.9709 107.553 56.6096 89.2211 54.8849C61.5109 52.279 68.1103 67.1157 68.2565 67.4422L68.2612 67.4479C54.0393 68.7203 56.3086 81.6662 62.6611 94.3296L62.662 94.3286Z" fill="#8A4852"/>
<path opacity="0.1" d="M118.57 72.4136C118.542 71.9726 118.47 71.5447 118.37 71.1177C116.839 64.4243 107.554 58.0734 89.2253 56.3355C71.6264 54.6839 67.8637 60.0665 67.4913 64.2967C67.1623 59.9961 69.523 53.0324 89.2253 54.8838C107.554 56.6067 116.839 62.9726 118.37 69.652C118.585 70.5772 118.642 71.4884 118.57 72.4146V72.4136Z" fill="white"/>
<path d="M68.2639 67.443C68.0923 67.4581 67.9348 67.4721 67.7774 67.4862C67.5775 66.6745 67.405 65.5494 67.4917 64.3389C67.635 66.0627 68.2073 67.3436 68.2639 67.443Z" fill="white"/>
<path opacity="0.3" d="M101.497 128.21C99.8721 127.895 98.2675 127.496 96.6836 127.013C97.7178 127.286 98.7737 127.517 99.8297 127.727C116.655 131.006 111.293 81.4774 111.293 81.4774C111.293 81.4774 118.893 131.614 101.497 128.21Z" fill="#FEE1BC"/>
<path d="M88.8511 96.5243C87.996 97.0141 87.5792 96.6707 87.6603 95.9247C87.8215 94.4355 88.8379 93.164 90.0107 92.2256C92.3676 90.3376 95.5288 89.4808 98.5231 89.9162C99.6054 90.0748 100.779 90.422 101.465 91.2684C101.83 91.7189 102.032 92.3194 101.922 92.8881C101.597 94.5706 99.9099 94.0057 98.7267 93.879C94.3239 93.407 92.6618 94.3407 88.8501 96.5234L88.8511 96.5243Z" fill="#8A4852"/>
<path d="M106.663 90.5356C108.217 89.5024 111.188 88.7602 114.208 89.3814C115.088 89.5625 115.705 90.3554 115.659 91.2478C115.607 92.2697 114.715 93.0307 113.69 92.9538C113.475 92.9378 113.259 92.9284 113.044 92.9275C111.562 92.919 110.11 93.2766 108.714 93.7429C107.591 94.1183 106.071 95.0266 105.394 93.4596C105.036 92.6291 105.313 91.4336 106.664 90.5365L106.663 90.5356Z" fill="#8A4852"/>
<path d="M109.653 113.412C107.829 113.458 102.347 113.499 97.956 112.524C97.5845 112.441 97.281 112.81 97.4469 113.15C98.3058 114.917 100.721 118.845 105.163 118.65C108.181 118.519 109.608 115.365 110.084 114.006C110.188 113.71 109.968 113.404 109.653 113.412Z" fill="#E27659"/>
<path d="M99.7666 114.444C100.856 115.86 102.513 117.266 104.835 117.363C106.548 117.435 107.635 116.275 108.287 115.177C105.734 115.343 102.846 115.029 99.7666 114.444Z" fill="#FCFCFC"/>
<path d="M101.367 104.447C101.217 104.356 101.05 104.537 101.107 104.741C102.031 108.075 104.632 109.058 106.009 108.06C107.129 107.247 107.922 105.543 107.241 105.13C106.747 104.83 105.919 106.33 105.3 106.387C102.803 106.617 101.959 104.805 101.366 104.446L101.367 104.447Z" fill="#E27659"/>
<path d="M105.253 122.979C105.253 122.979 102.477 120.564 100.147 122.63L105.253 122.979Z" fill="#E27659"/>
<path d="M72.2546 97.138C71.4607 93.8152 68.721 91.7855 65.8257 93.3751C65.7107 93.437 65.6683 93.5797 65.7314 93.6941C65.7965 93.8096 65.9407 93.848 66.052 93.788C66.5677 93.5065 67.074 93.3441 67.568 93.3047C69.2009 93.1743 71.0629 94.3519 71.7662 97.1671C71.1949 96.7204 70.5773 96.559 69.6063 96.8583C69.3885 96.9259 69.1396 97.0198 68.9388 97.2065C68.5164 97.6091 68.5909 98.2687 68.9558 98.189C68.9595 98.189 68.9633 98.188 68.968 98.1862C69.0925 98.1514 69.166 98.0229 69.133 97.8962C69.1038 97.7902 69.1556 97.6485 69.2622 97.5471C69.462 97.3604 70.1804 97.1145 70.7499 97.1952C71.2015 97.259 71.6276 97.5387 71.8614 97.9253C71.8699 97.9394 71.8916 97.9309 71.902 97.9431C72.0358 98.7726 72.1037 99.6172 72.1329 100.484C72.1367 100.615 72.2461 100.715 72.3771 100.711C72.3922 100.709 72.4073 100.709 72.4195 100.706C72.5289 100.682 72.61 100.584 72.6053 100.468" fill="#E27659"/>
<path d="M95.1357 98.4067C95.1357 99.2146 95.7966 99.8621 96.6093 99.8621C97.422 99.8621 98.0716 99.2146 98.0716 98.4067C98.0716 97.5987 97.4107 96.9513 96.6093 96.9513C95.8079 96.9513 95.1357 97.5978 95.1357 98.4067Z" fill="#111D33"/>
<path d="M99.5203 98.1618C98.537 97.8737 97.549 97.5969 96.5798 97.2741L96.8702 97.2637C96.1688 97.6616 95.506 98.1402 94.7932 98.5165C94.0579 98.8477 93.2829 99.102 92.408 99.1565C92.3769 99.1583 92.3486 99.1349 92.3477 99.103C92.3477 99.0879 92.3514 99.0729 92.3609 99.0626C92.9293 98.3973 93.5968 97.9328 94.3039 97.5443C95.0346 97.2018 95.8152 96.9606 96.5562 96.6397C96.7637 96.5215 96.6967 96.5205 99.5599 98.0642C99.5863 98.0783 99.5958 98.1102 99.5816 98.1355C99.5694 98.158 99.543 98.1674 99.5203 98.1608V98.1618Z" fill="#111D33"/>
<path d="M108.331 98.2096C108.331 99.0176 108.993 99.6641 109.805 99.6641C110.616 99.6641 111.267 99.0176 111.267 98.2096C111.267 97.4017 110.606 96.7542 109.805 96.7542C109.003 96.7542 108.331 97.4007 108.331 98.2096Z" fill="#111D33"/>
<path d="M109.799 98.5061C109.799 98.7173 109.971 98.8862 110.183 98.8862C110.396 98.8862 110.564 98.7173 110.564 98.5061C110.564 98.295 110.392 98.1261 110.183 98.1261C109.975 98.1261 109.799 98.295 109.799 98.5061Z" fill="#FCFCFC"/>
<path d="M96.7822 98.5061C96.7822 98.7173 96.9548 98.8862 97.1669 98.8862C97.379 98.8862 97.5487 98.7173 97.5487 98.5061C97.5487 98.295 97.3762 98.1261 97.1669 98.1261C96.9576 98.1261 96.7822 98.295 96.7822 98.5061Z" fill="#FCFCFC"/>
<path d="M112.717 97.9638C111.733 97.6757 110.745 97.3998 109.776 97.077L110.066 97.0667C109.364 97.4655 108.702 97.9431 107.99 98.3194C107.254 98.6507 106.479 98.9049 105.604 98.9594C105.572 98.9613 105.546 98.9378 105.544 98.9059C105.544 98.8899 105.548 98.8759 105.557 98.8655C106.126 98.2002 106.793 97.7357 107.501 97.3472C108.231 97.0047 109.012 96.7636 109.753 96.4427L109.792 96.4258C109.981 96.3451 109.929 96.3422 112.758 97.8671C112.814 97.8971 112.779 97.9825 112.718 97.9638H112.717Z" fill="#111D33"/>
<path d="M67.6324 102.938C65.2745 98.265 63.7547 90.4324 68.0953 89.0905C73.0345 87.5675 75.2255 96.5093 75.2255 96.5093C75.2255 96.5093 77.0423 102.063 78.4678 101.571C81.1688 100.638 77.458 91.5565 80.3099 90.3394C83.1675 89.1224 86.3315 88.2262 86.5191 82.8231C86.6181 79.855 88.0078 78.8547 90.0734 78.5957C104.564 76.793 107.785 86.1749 114.525 79.9066C117.846 76.824 119.189 73.1925 118.372 69.6539C116.558 71.4115 113.661 71.8553 111.127 71.799C106.77 71.7061 102.549 70.4008 98.2813 69.5506C94.0076 68.7014 89.4276 68.3336 85.4255 70.0377C81.4177 71.7418 78.2641 76.0517 79.1692 80.2951C79.4558 81.6369 80.1214 82.8906 80.2779 84.2578C80.4391 85.6204 79.8716 87.2419 78.5498 87.6304C77.4354 87.9569 76.2598 87.2728 75.4791 86.4133C74.6985 85.5584 74.1366 84.5074 73.2674 83.7352C71.5345 82.1962 68.6562 82.1549 66.881 83.6469C65.4187 84.88 64.82 86.8224 64.294 88.656C63.7481 90.5468 63.206 92.4377 62.6592 94.3285C65.0689 99.1414 67.4787 102.72 67.6305 102.938H67.6324Z" fill="#51383C"/>
<path d="M57.9981 81.2475C58.0443 81.2269 58.0763 81.0814 58.0867 80.8065C58.1904 77.4499 60.8038 71.3936 64.7229 69.3376C68.5487 67.3323 74.6325 70.3426 74.9191 70.4871C71.0264 67.2648 68.2621 67.4468 68.2621 67.4468C58.7117 68.3017 56.8535 74.3626 57.999 81.2475H57.9981Z" fill="#51383C"/>
<path d="M68.3669 126.612C68.3669 126.612 62.5885 128.232 62.2982 132.233C62.0069 136.235 69.6019 151.899 75.3962 151.378C78.8572 151.067 79.5539 144.496 87.0905 143.897C87.0905 143.897 80.2082 137.173 73.7775 134.975C67.0111 132.662 68.3678 126.613 68.3678 126.613L68.3669 126.612Z" fill="#ED3B66"/>
<path d="M87.0898 143.896C87.0898 143.896 94.7961 140.072 96.6695 132.009C96.6695 132.009 108.899 146.805 99.3121 147.655C96.1264 147.937 92.4976 142.814 87.0908 143.896H87.0898Z" fill="#ED3B66"/>
<path d="M159.693 194.728C159.559 208.451 154.632 228.842 146.573 227.38C140.19 226.22 139.122 217.487 139.122 217.487C138.903 214.78 139 211.942 139.303 209.103L139.522 209.139C141.076 209.465 141.743 211.29 141.938 212.86C142.253 215.409 142.059 218.054 142.884 220.494C143.721 222.922 146.052 225.157 148.6 224.698C150.7 224.335 152.132 222.257 152.484 220.168C153.183 216.018 150.529 211.67 151.974 207.58C152.787 205.334 154.778 203.606 155.385 201.287C156.004 198.895 155.021 196.394 155.032 193.93C155.056 189.678 158.018 186.017 159.11 181.91C160.021 178.492 159.62 174.844 160.47 171.401C161.174 168.514 162.885 166.231 164.572 163.875C165.07 171.896 159.814 182.189 159.693 194.727V194.728Z" fill="url(#paint7_linear_1731_48874)"/>
<path d="M160.46 128.053L159.036 140.682C159.009 140.926 158.802 141.109 158.554 141.109H153.88C153.583 141.109 153.349 140.849 153.382 140.557L154.807 127.928C154.834 127.683 155.04 127.5 155.288 127.5H159.963C160.26 127.5 160.493 127.76 160.46 128.053Z" fill="#111D33"/>
<path d="M158.775 130.375C158.702 131.084 158.059 131.66 157.33 131.66C156.601 131.66 156.08 131.084 156.153 130.375C156.229 129.655 156.884 129.078 157.6 129.078C158.315 129.078 158.85 129.655 158.774 130.375H158.775Z" fill="white"/>
<path d="M158.139 130.372C158.101 130.737 157.77 131.033 157.396 131.033C157.022 131.033 156.753 130.737 156.792 130.372C156.83 130.002 157.167 129.705 157.536 129.705C157.904 129.705 158.179 130.002 158.14 130.372H158.139Z" fill="#4C5C75"/>
<path d="M158.439 134.311C158.365 135.019 157.723 135.596 156.994 135.596C156.265 135.596 155.744 135.019 155.817 134.311C155.893 133.59 156.548 133.014 157.264 133.014C157.979 133.014 158.514 133.59 158.438 134.311H158.439Z" fill="white"/>
<path d="M157.803 134.308C157.764 134.672 157.434 134.969 157.06 134.969C156.686 134.969 156.417 134.672 156.455 134.308C156.493 133.937 156.83 133.641 157.199 133.641C157.567 133.641 157.842 133.937 157.803 134.308Z" fill="#4C5C75"/>
<path d="M158.135 138.081C158.06 138.79 157.418 139.366 156.69 139.366C155.961 139.366 155.439 138.79 155.514 138.081C155.589 137.361 156.244 136.784 156.96 136.784C157.677 136.784 158.21 137.361 158.135 138.081Z" fill="white"/>
<path d="M157.498 138.077C157.46 138.442 157.13 138.738 156.755 138.738C156.381 138.738 156.112 138.442 156.15 138.077C156.189 137.707 156.525 137.41 156.894 137.41C157.262 137.41 157.537 137.707 157.498 138.077Z" fill="#4C5C75"/>
<path d="M151.024 99.2118C150.37 99.2118 149.791 98.7905 149.594 98.1693L145.955 86.7183H140.65C139.822 86.7183 139.15 86.0501 139.15 85.2253C139.15 84.4005 139.822 83.7323 140.65 83.7323H147.054C147.708 83.7323 148.286 84.1537 148.484 84.7749L150.995 92.6788L156.664 74.1187C156.862 73.4731 157.513 72.9804 158.149 73.0621C158.828 73.0836 159.407 73.5575 159.56 74.2163L162.599 87.2757L165.854 78.3151C166.056 77.7577 166.569 77.373 167.163 77.3326C167.739 77.3091 168.317 77.6057 168.593 78.1302L172.153 84.9044H177.215C178.044 84.9044 178.715 85.5725 178.715 86.3973C178.715 87.2222 178.044 87.8903 177.215 87.8903H171.246C170.687 87.8903 170.175 87.5816 169.916 87.0899L167.515 82.5218L163.694 93.0439C163.469 93.666 162.851 94.0714 162.194 94.0263C161.53 93.9869 160.972 93.5177 160.822 92.8731L157.902 80.327L152.457 98.1533C152.265 98.7792 151.688 99.2071 151.03 99.2118H151.023H151.024Z" fill="white"/>
<path d="M362.004 127.238V161.602C362.004 163.009 360.857 164.149 359.444 164.149H324.348L311.574 174.206C310.757 174.85 309.554 174.27 309.554 173.233V164.149H303.265C301.851 164.149 300.705 163.009 300.705 161.602V127.238C300.705 125.832 301.851 124.691 303.265 124.691H359.443C360.857 124.691 362.003 125.832 362.003 127.238H362.004Z" fill="#AA6256"/>
<path d="M361.999 146.583V161.6C361.999 163.013 360.853 164.155 359.446 164.155H324.343L311.576 174.212C310.757 174.851 309.556 174.266 309.556 173.233V164.155H303.262C301.855 164.155 300.709 163.013 300.709 161.6V154.927C307.918 160.812 320.575 163.489 334.215 161.164C346.436 159.072 356.567 153.458 362.001 146.582L361.999 146.583Z" fill="#8A4852"/>
<path d="M319.581 136.209C319.359 136.44 319.247 136.72 319.247 137.04V141.572H312.956V137.04C312.956 136.717 312.839 136.436 312.608 136.204C312.151 135.748 311.377 135.748 310.933 136.209C310.712 136.439 310.599 136.719 310.599 137.04V148.339C310.599 148.664 310.713 148.941 310.938 149.165C311.385 149.61 312.141 149.61 312.603 149.169C312.836 148.944 312.955 148.664 312.955 148.339V143.806H319.246V148.339C319.246 148.662 319.36 148.94 319.586 149.165C319.812 149.39 320.091 149.502 320.416 149.502C320.741 149.502 321.022 149.387 321.251 149.169C321.482 148.948 321.604 148.66 321.604 148.339V137.04C321.604 136.717 321.487 136.436 321.255 136.204C320.799 135.748 320.025 135.748 319.581 136.209Z" fill="#8A4852"/>
<path d="M332.464 144.986C332.681 144.762 332.79 144.487 332.79 144.164C332.79 143.285 332.605 142.463 332.24 141.717C331.871 140.96 331.322 140.347 330.609 139.894C329.895 139.439 329.041 139.208 328.07 139.208C327.037 139.208 326.149 139.456 325.431 139.946C324.717 140.432 324.181 141.077 323.838 141.868C323.502 142.639 323.332 143.491 323.332 144.401C323.332 146.026 323.788 147.31 324.691 148.22C325.594 149.133 326.855 149.594 328.439 149.594C329.202 149.594 329.84 149.521 330.336 149.379C330.825 149.239 331.326 149.025 331.828 148.743C332.365 148.435 332.478 148.044 332.478 147.77C332.478 147.469 332.363 147.205 332.146 147.007C331.804 146.696 331.31 146.633 330.917 146.825C330.573 146.996 330.215 147.13 329.855 147.222C329.496 147.312 329.069 147.357 328.586 147.357C327.707 147.357 327.022 147.146 326.55 146.728C326.152 146.378 325.894 145.918 325.767 145.326H331.604C331.957 145.326 332.247 145.211 332.465 144.984L332.464 144.986ZM326.982 141.551C327.694 141.216 328.445 141.216 329.157 141.551C329.504 141.714 329.802 141.974 330.041 142.323C330.225 142.591 330.348 142.918 330.411 143.294H325.746C325.807 142.916 325.928 142.589 326.109 142.32C326.345 141.967 326.631 141.716 326.982 141.551H326.982Z" fill="#8A4852"/>
<path d="M334.65 135.623C334.431 135.85 334.315 136.136 334.315 136.453V148.339C334.315 148.662 334.429 148.94 334.654 149.165H334.655C334.88 149.39 335.159 149.502 335.484 149.502C335.81 149.502 336.092 149.387 336.32 149.169C336.555 148.945 336.673 148.664 336.673 148.339V136.453C336.673 136.119 336.559 135.835 336.333 135.61C335.891 135.169 335.105 135.153 334.65 135.623Z" fill="#8A4852"/>
<path d="M339.231 135.623C339.012 135.85 338.896 136.136 338.896 136.453V148.339C338.896 148.662 339.011 148.94 339.235 149.165H339.236C339.461 149.39 339.74 149.502 340.066 149.502C340.391 149.502 340.672 149.387 340.9 149.169C341.135 148.945 341.253 148.664 341.253 148.339V136.453C341.253 136.119 341.139 135.835 340.913 135.61C340.471 135.169 339.686 135.153 339.23 135.623H339.231Z" fill="#8A4852"/>
<path d="M350.594 139.859C349.834 139.428 348.948 139.209 347.96 139.209C346.972 139.209 346.066 139.428 345.307 139.859C344.542 140.291 343.942 140.913 343.526 141.71C343.116 142.494 342.907 143.4 342.907 144.403C342.907 145.406 343.116 146.314 343.526 147.095C343.941 147.89 344.54 148.513 345.307 148.947C346.067 149.378 346.96 149.596 347.96 149.596C351.031 149.596 353.011 147.435 353.011 144.403C353.011 143.4 352.215 140.776 350.594 139.86V139.859ZM349.249 147.084C348.419 147.504 347.462 147.494 346.651 147.083C346.252 146.884 345.919 146.559 345.66 146.118C345.398 145.671 345.265 145.088 345.265 144.383C345.265 143.679 345.398 143.115 345.66 142.669C345.918 142.23 346.251 141.907 346.647 141.714C347.058 141.512 347.5 141.41 347.96 141.41C348.42 141.41 348.842 141.512 349.253 141.714C349.65 141.908 349.986 142.232 350.252 142.672C350.805 143.593 350.781 145.234 350.252 146.116C349.987 146.558 349.649 146.884 349.25 147.083L349.249 147.084Z" fill="#8A4852"/>
<path d="M319.581 134.961C319.359 135.192 319.247 135.472 319.247 135.792V140.324H312.956V135.792C312.956 135.469 312.839 135.188 312.608 134.956C312.151 134.5 311.377 134.5 310.933 134.961C310.712 135.191 310.599 135.471 310.599 135.792V147.091C310.599 147.416 310.713 147.693 310.938 147.917C311.385 148.362 312.141 148.362 312.603 147.921C312.836 147.696 312.955 147.417 312.955 147.091V142.558H319.246V147.091C319.246 147.414 319.36 147.692 319.586 147.917C319.812 148.142 320.091 148.254 320.416 148.254C320.741 148.254 321.022 148.139 321.251 147.921C321.482 147.7 321.604 147.412 321.604 147.091V135.792C321.604 135.469 321.487 135.188 321.255 134.956C320.799 134.5 320.025 134.5 319.581 134.961Z" fill="white"/>
<path d="M332.464 143.738C332.681 143.514 332.79 143.239 332.79 142.917C332.79 142.038 332.605 141.215 332.24 140.469C331.871 139.713 331.322 139.099 330.609 138.647C329.895 138.192 329.041 137.961 328.07 137.961C327.037 137.961 326.149 138.21 325.431 138.699C324.717 139.185 324.181 139.83 323.838 140.62C323.502 141.392 323.332 142.244 323.332 143.154C323.332 144.778 323.788 146.063 324.691 146.973C325.594 147.884 326.855 148.347 328.439 148.347C329.202 148.347 329.84 148.274 330.336 148.132C330.825 147.991 331.326 147.777 331.828 147.497C332.365 147.189 332.478 146.798 332.478 146.524C332.478 146.223 332.363 145.958 332.146 145.761C331.804 145.449 331.31 145.387 330.917 145.579C330.573 145.75 330.215 145.884 329.855 145.976C329.496 146.066 329.069 146.111 328.586 146.111C327.707 146.111 327.022 145.9 326.55 145.482C326.152 145.131 325.894 144.671 325.767 144.08H331.604C331.957 144.08 332.247 143.965 332.465 143.738H332.464ZM326.982 140.303C327.694 139.969 328.445 139.969 329.157 140.303C329.504 140.466 329.802 140.726 330.041 141.075C330.225 141.343 330.348 141.67 330.411 142.046H325.746C325.807 141.668 325.928 141.341 326.109 141.072C326.345 140.719 326.631 140.468 326.982 140.303H326.982Z" fill="white"/>
<path d="M334.65 134.375C334.431 134.602 334.315 134.888 334.315 135.206V147.092C334.315 147.415 334.429 147.693 334.654 147.918H334.655C334.88 148.143 335.159 148.255 335.484 148.255C335.81 148.255 336.092 148.14 336.32 147.922C336.555 147.698 336.673 147.418 336.673 147.092V135.206C336.673 134.871 336.559 134.588 336.333 134.362C335.891 133.92 335.105 133.905 334.65 134.375Z" fill="white"/>
<path d="M339.231 134.375C339.012 134.602 338.896 134.888 338.896 135.206V147.092C338.896 147.415 339.011 147.693 339.235 147.918H339.236C339.461 148.143 339.74 148.255 340.066 148.255C340.391 148.255 340.672 148.14 340.9 147.922C341.135 147.698 341.253 147.418 341.253 147.092V135.206C341.253 134.871 341.139 134.588 340.913 134.362C340.471 133.92 339.686 133.905 339.23 134.375H339.231Z" fill="white"/>
<path d="M350.594 138.61C349.834 138.179 348.948 137.96 347.96 137.96C346.972 137.96 346.066 138.179 345.307 138.609C344.542 139.041 343.942 139.663 343.526 140.46C343.116 141.243 342.907 142.15 342.907 143.153C342.907 144.156 343.116 145.065 343.526 145.846C343.941 146.641 344.54 147.263 345.307 147.698C346.067 148.129 346.96 148.347 347.96 148.347C351.029 148.347 353.011 146.188 353.011 143.154C353.011 142.151 352.218 139.528 350.594 138.611V138.61ZM349.249 145.835C348.419 146.256 347.462 146.245 346.651 145.834C346.252 145.635 345.919 145.31 345.66 144.869C345.398 144.422 345.265 143.84 345.265 143.135C345.265 142.431 345.398 141.867 345.66 141.421C345.918 140.982 346.251 140.659 346.647 140.466C347.058 140.264 347.5 140.162 347.96 140.162C348.42 140.162 348.842 140.264 349.253 140.466C349.65 140.66 349.986 140.983 350.252 141.424C350.52 141.869 350.655 142.446 350.655 143.135C350.655 143.825 350.52 144.422 350.252 144.868C349.987 145.31 349.649 145.636 349.25 145.835H349.249Z" fill="white"/>
<defs>
<linearGradient id="paint0_linear_1731_48874" x1="182.118" y1="164.821" x2="322.919" y2="164.821" gradientUnits="userSpaceOnUse">
<stop stop-color="#57B3FE"/>
<stop offset="1" stop-color="#497BFE"/>
</linearGradient>
<linearGradient id="paint1_linear_1731_48874" x1="307.172" y1="58.4271" x2="310.702" y2="58.4271" gradientUnits="userSpaceOnUse">
<stop stop-color="#57B3FE"/>
<stop offset="1" stop-color="#497BFE"/>
</linearGradient>
<linearGradient id="paint2_linear_1731_48874" x1="307.172" y1="58.4271" x2="310.839" y2="58.4271" gradientUnits="userSpaceOnUse">
<stop stop-color="#57B3FE"/>
<stop offset="1" stop-color="#497BFE"/>
</linearGradient>
<linearGradient id="paint3_linear_1731_48874" x1="194.228" y1="128.233" x2="198.206" y2="128.233" gradientUnits="userSpaceOnUse">
<stop stop-color="#88CFFF"/>
<stop offset="1" stop-color="#A9E0FF"/>
</linearGradient>
<linearGradient id="paint4_linear_1731_48874" x1="11.3274" y1="228.44" x2="47.9785" y2="211.262" gradientUnits="userSpaceOnUse">
<stop stop-color="#F7A386"/>
<stop offset="1" stop-color="#FD6B58"/>
</linearGradient>
<linearGradient id="paint5_linear_1731_48874" x1="72.5189" y1="118.659" x2="108.367" y2="127.513" gradientUnits="userSpaceOnUse">
<stop stop-color="#F7A386"/>
<stop offset="1" stop-color="#FD6B58"/>
</linearGradient>
<linearGradient id="paint6_linear_1731_48874" x1="124.541" y1="101.12" x2="37.7978" y2="100.57" gradientUnits="userSpaceOnUse">
<stop stop-color="#FEE1BC"/>
<stop offset="1" stop-color="#FD6B58"/>
</linearGradient>
<linearGradient id="paint7_linear_1731_48874" x1="139.004" y1="195.666" x2="164.606" y2="195.666" gradientUnits="userSpaceOnUse">
<stop stop-color="#F7A386"/>
<stop offset="1" stop-color="#FD6B58"/>
</linearGradient>
</defs>
</svg>
