<svg width="20" height="22" viewBox="0 0 20 22" fill="none" xmlns="http://www.w3.org/2000/svg">
<path d="M16.6338 18.9348C17.5603 18.0543 18.298 16.9944 18.8018 15.8197C19.3057 14.645 19.5651 13.3801 19.5644 12.1019C19.5644 10.3863 19.1022 8.76854 18.3022 7.38188C18.7555 6.67076 19.0311 5.82632 19.0311 4.91965C19.0311 2.43965 17.0133 0.421875 14.5333 0.421875C12.88 0.421875 11.4222 1.31965 10.6489 2.66187C10.4711 2.66187 10.3022 2.65299 10.1244 2.65299C9.64444 2.65299 9.17333 2.68854 8.7111 2.75965C8.30304 2.12908 7.7435 1.61079 7.08359 1.25211C6.42367 0.893425 5.68442 0.705784 4.93333 0.706319C2.45333 0.706319 0.435547 2.7241 0.435547 5.2041C0.435547 6.3241 0.853325 7.3641 1.54666 8.15521C0.734182 9.911 0.482598 11.8745 0.826161 13.7785C1.16972 15.6824 2.09174 17.4341 3.46666 18.7952L3.46755 18.7961L2.43377 20.1037C2.28761 20.2885 2.22085 20.5238 2.24819 20.7578C2.27553 20.9919 2.39472 21.2055 2.57955 21.3517C2.76437 21.4978 2.99969 21.5646 3.23374 21.5372C3.46778 21.5099 3.68138 21.3907 3.82755 21.2059L4.83466 19.9321C6.34577 20.9463 8.16888 21.541 10.1244 21.541C12.0089 21.541 13.7591 20.9908 15.2338 20.0317L16.1404 21.2263C16.2831 21.4142 16.4945 21.5377 16.7282 21.5698C16.9619 21.6018 17.1988 21.5396 17.3867 21.397C17.5745 21.2544 17.6981 21.0429 17.7301 20.8092C17.7621 20.5755 17.7 20.3387 17.5573 20.1508L16.6338 18.9348ZM14.5333 2.19965C14.963 2.19948 15.3866 2.30111 15.7695 2.49622C16.1523 2.69132 16.4835 2.97435 16.7358 3.32211C16.9882 3.66987 17.1546 4.07248 17.2213 4.49694C17.2881 4.9214 17.2534 5.35565 17.12 5.7641C15.9165 4.42888 14.3557 3.46645 12.6222 2.99076C12.8729 2.73947 13.1708 2.54021 13.4988 2.40444C13.8268 2.26867 14.1784 2.19907 14.5333 2.19965ZM2.21332 5.2041C2.21332 3.70187 3.43999 2.4841 4.93333 2.4841C5.66221 2.4841 6.32888 2.76854 6.82666 3.24854C5.10221 3.89743 3.60888 5.02632 2.53332 6.4841C2.32888 6.10187 2.21332 5.66632 2.21332 5.2041ZM12.4889 14.4752C12.322 14.6401 12.0968 14.7326 11.8622 14.7326C11.6276 14.7326 11.4024 14.6401 11.2355 14.4752L9.49333 12.733C9.32444 12.5641 9.23555 12.333 9.23555 12.1019V7.53299C9.23555 7.0441 9.62666 6.6441 10.1244 6.6441C10.5813 6.6441 11.0133 7.02365 11.0133 7.53299V11.7285L12.4889 13.213C12.8355 13.5597 12.8355 14.1285 12.4889 14.4752Z" fill="#19517E"/>
</svg>
