<svg width="32" height="32" viewBox="0 0 32 32" fill="none" xmlns="http://www.w3.org/2000/svg">
<g clip-path="url(#clip0_1727_92390)">
<path d="M29.8722 16.4145C29.8087 16.2855 29.7757 16.1437 29.7757 16C29.7757 15.8563 29.8087 15.7145 29.8722 15.5855L31.0657 13.144C31.7302 11.7846 31.2037 10.1642 29.8671 9.45506L27.4665 8.18132C27.3393 8.11436 27.2292 8.01906 27.1448 7.9028C27.0603 7.78653 27.0036 7.6524 26.9792 7.51076L26.5097 4.83397C26.2483 3.3436 24.8697 2.34211 23.3718 2.55404L20.681 2.93467C20.5387 2.95523 20.3937 2.94282 20.257 2.8984C20.1203 2.85398 19.9956 2.77874 19.8927 2.67848L17.9395 0.78899C16.8519 -0.263128 15.1482 -0.263191 14.0607 0.78899L12.1075 2.67867C12.0045 2.7789 11.8798 2.85413 11.7431 2.89855C11.6064 2.94297 11.4614 2.95539 11.3191 2.93485L8.62835 2.55423C7.12992 2.34217 5.75181 3.34379 5.49037 4.83415L5.02087 7.51083C4.99647 7.65246 4.93985 7.78659 4.85538 7.90287C4.77091 8.01915 4.66084 8.11446 4.53369 8.18145L2.13308 9.45519C0.796461 10.1643 0.269964 11.7847 0.93446 13.1442L2.12789 15.5857C2.19142 15.7146 2.22446 15.8564 2.22446 16.0001C2.22446 16.1439 2.19142 16.2857 2.12789 16.4146L0.934397 18.8561C0.269901 20.2155 0.796398 21.8358 2.13301 22.545L4.53363 23.8187C4.66079 23.8857 4.77087 23.981 4.85535 24.0973C4.93984 24.2135 4.99647 24.3477 5.02087 24.4893L5.49037 27.1661C5.72837 28.5228 6.89174 29.4743 8.22879 29.4742C8.36048 29.4742 8.4941 29.4649 8.62841 29.4459L11.3192 29.0653C11.4615 29.0447 11.6065 29.0571 11.7432 29.1016C11.8799 29.146 12.0045 29.2212 12.1075 29.3215L14.0607 31.211C14.6046 31.7371 15.3022 32.0001 16.0001 32.0001C16.6977 32 17.3958 31.737 17.9394 31.211L19.8927 29.3215C20.1034 29.1177 20.3907 29.0246 20.681 29.0653L23.3718 29.4459C24.8704 29.6579 26.2483 28.6564 26.5097 27.166L26.9793 24.4894C27.0037 24.3477 27.0603 24.2136 27.1448 24.0973C27.2293 23.981 27.3393 23.8857 27.4665 23.8187L29.8671 22.545C31.2037 21.8359 31.7302 20.2154 31.0657 18.856L29.8722 16.4145ZM12.3088 7.6947C14.1745 7.6947 15.6924 9.21263 15.6924 11.0784C15.6924 12.9441 14.1745 14.462 12.3088 14.462C10.443 14.462 8.9251 12.9441 8.9251 11.0784C8.9251 9.21263 10.443 7.6947 12.3088 7.6947ZM10.5623 22.7427C10.3821 22.9229 10.1459 23.013 9.90978 23.013C9.67366 23.013 9.43741 22.923 9.25729 22.7427C8.89691 22.3824 8.89691 21.7981 9.25729 21.4377L21.4378 9.25719C21.7981 8.89682 22.3825 8.89682 22.7428 9.25719C23.1032 9.61756 23.1032 10.2019 22.7428 10.5622L10.5623 22.7427ZM19.6912 24.3054C17.8255 24.3054 16.3076 22.7874 16.3076 20.9217C16.3076 19.0559 17.8255 17.538 19.6912 17.538C21.557 17.538 23.0749 19.0559 23.0749 20.9217C23.0749 22.7874 21.557 24.3054 19.6912 24.3054Z" fill="#A0C882"/>
<path d="M19.6912 19.3837C18.8431 19.3837 18.1531 20.0736 18.1531 20.9217C18.1531 21.7697 18.8431 22.4596 19.6912 22.4596C20.5393 22.4596 21.2292 21.7697 21.2292 20.9217C21.2292 20.0736 20.5393 19.3837 19.6912 19.3837ZM12.3087 9.54028C11.4607 9.54028 10.7708 10.2302 10.7708 11.0783C10.7708 11.9263 11.4607 12.6163 12.3087 12.6163C13.1568 12.6163 13.8468 11.9264 13.8468 11.0783C13.8467 10.2303 13.1568 9.54028 12.3087 9.54028Z" fill="#A0C882"/>
</g>
<defs>
<clipPath id="clip0_1727_92390">
<rect width="32" height="32" fill="white"/>
</clipPath>
</defs>
</svg>
