<svg width="121" height="106" viewBox="0 0 121 106" fill="none" xmlns="http://www.w3.org/2000/svg">
<path opacity="0.3" d="M7.06006 36.5344C3.1609 66.884 24.6032 94.6481 54.9528 98.5473C85.3024 102.446 113.067 81.0041 116.966 50.6545C120.865 20.3049 96.3968 16.092 66.0472 12.1929C35.6976 8.29369 10.9592 6.1848 7.06006 36.5344Z" fill="url(#paint0_linear_2948_111283)"/>
<path fill-rule="evenodd" clip-rule="evenodd" d="M61.749 50.3958C64.2555 48.9482 66.9285 48.5968 69.7241 49.3457L82.3906 52.5871L79.7861 48.0758L85.988 44.4952V2.86719H34.0098V45.5877L40.2117 49.1683L39.0056 51.2572L39.5887 51.4119L47.3004 49.3457C50.0959 48.5968 52.769 48.9486 55.2758 50.3958L58.5123 52.2644L61.749 50.3958Z" fill="#E4F3FF"/>
<path d="M84.1914 2.86719H85.9881V49.1559H84.1914V2.86719Z" fill="#C3DAFD"/>
<path fill-rule="evenodd" clip-rule="evenodd" d="M69.0527 2.86719V18.1431L69.3871 17.6964L73.907 11.6584L78.4269 17.6964L78.7612 18.1431V2.86719H69.0527Z" fill="#A0C882"/>
<path d="M41.2383 9.09082H50.2909V18.1435H41.2383V9.09082Z" fill="#A0C882"/>
<path fill-rule="evenodd" clip-rule="evenodd" d="M42.1582 29.7109C41.993 29.7109 41.8295 29.6784 41.6769 29.6152C41.5243 29.552 41.3856 29.4593 41.2688 29.3425C41.152 29.2257 41.0593 29.0871 40.9961 28.9345C40.9329 28.7819 40.9004 28.6183 40.9004 28.4531C40.9004 28.2879 40.9329 28.1244 40.9961 27.9718C41.0593 27.8192 41.152 27.6805 41.2688 27.5637C41.3856 27.4469 41.5243 27.3543 41.6769 27.2911C41.8295 27.2278 41.993 27.1953 42.1582 27.1953H78.76C78.9252 27.1953 79.0887 27.2278 79.2414 27.2911C79.394 27.3543 79.5326 27.4469 79.6494 27.5637C79.7662 27.6805 79.8589 27.8192 79.9221 27.9718C79.9853 28.1244 80.0178 28.2879 80.0178 28.4531C80.0178 28.6183 79.9853 28.7819 79.9221 28.9345C79.8589 29.0871 79.7662 29.2257 79.6494 29.3425C79.5326 29.4593 79.394 29.552 79.2414 29.6152C79.0887 29.6784 78.9252 29.7109 78.76 29.7109H42.1582ZM42.1582 36.7955C41.8246 36.7955 41.5047 36.663 41.2688 36.4271C41.0329 36.1912 40.9004 35.8713 40.9004 35.5377C40.9004 35.2041 41.0329 34.8841 41.2688 34.6483C41.5047 34.4124 41.8246 34.2799 42.1582 34.2799H78.76C79.0936 34.2799 79.4135 34.4124 79.6494 34.6483C79.8853 34.8841 80.0178 35.2041 80.0178 35.5377C80.0178 35.8713 79.8853 36.1912 79.6494 36.4271C79.4135 36.663 79.0936 36.7955 78.76 36.7955H42.1582ZM42.1582 43.88C41.8246 43.88 41.5047 43.7475 41.2688 43.5116C41.0329 43.2757 40.9004 42.9558 40.9004 42.6222C40.9004 42.2886 41.0329 41.9687 41.2688 41.7328C41.5047 41.4969 41.8246 41.3644 42.1582 41.3644H78.76C79.0936 41.3644 79.4135 41.4969 79.6494 41.7328C79.8853 41.9687 80.0178 42.2886 80.0178 42.6222C80.0178 42.9558 79.8853 43.2757 79.6494 43.5116C79.4135 43.7475 79.0936 43.88 78.76 43.88H42.1582Z" fill="#19517E"/>
<path fill-rule="evenodd" clip-rule="evenodd" d="M59.0454 85.9849L36.1913 75.2741C31.275 72.0965 32.4225 73.2241 29 68.5565L38.9931 51.2477L39.5768 51.4025L47.2934 49.3348C50.0908 48.5853 52.7658 48.9375 55.2741 50.3856L58.5126 52.2556L85.7687 70.4283C85.8785 71.2649 85.6186 72.0317 85.0217 72.6284L83.5122 74.1378C82.6597 74.9902 81.3852 75.1579 80.3412 74.5552L78.0818 73.2508C80.5669 75.0209 76.6684 80.3142 73.8849 78.707L72.8599 78.1152C75.7529 80.11 71.4706 85.2018 68.8166 83.6598L67.0163 82.6138C68.8342 83.8815 65.3833 89.4116 62.3856 87.7904L59.0452 85.9846L59.0454 85.9849Z" fill="#D4B995"/>
<path fill-rule="evenodd" clip-rule="evenodd" d="M29.9221 66.9584L38.9925 51.2477L39.5761 51.4025L47.2928 49.3348C50.0902 48.5853 52.7652 48.9375 55.2734 50.3856L58.512 52.2556L85.768 70.4283C85.8778 71.2649 85.618 72.0317 85.0211 72.6284L83.5115 74.1378C82.6591 74.9902 81.3846 75.1579 80.3406 74.5552L78.0812 73.2508C80.5663 75.0209 76.6678 80.3142 73.8842 78.707L72.8593 78.1152C75.7523 80.11 71.4699 85.2018 68.816 83.6598L67.0157 82.6138C68.2271 83.4585 67.0987 86.1955 65.3239 87.4483L62.524 85.9348L37.015 73.7845C36.1425 73.2223 35.2595 72.6749 34.3896 72.1093C33.9765 71.8406 33.541 71.5551 33.1791 71.2186C32.8242 70.8885 30.4872 67.7152 30.1973 67.3285C30.105 67.2054 30.0131 67.0819 29.9219 66.958L29.9221 66.9584Z" fill="#EBCEA5"/>
<path fill-rule="evenodd" clip-rule="evenodd" d="M85.021 72.6285L91.0078 67.4777L82.4056 52.5784L69.7308 49.3349C66.9335 48.5854 64.2585 48.9372 61.7504 50.3857L46.7598 59.0403L48.4039 61.888C49.3058 63.4497 51.0874 64.2085 52.8228 63.7185L65.4336 60.1582C67.4842 59.5792 69.5289 59.7131 71.3044 60.8909L83.8719 69.2288C84.4977 69.6439 84.9502 70.1792 85.1141 70.8907C85.3333 71.8945 85.0366 72.5983 85.021 72.6285Z" fill="#E7B889"/>
<path fill-rule="evenodd" clip-rule="evenodd" d="M85.0229 72.6284L91.0097 67.4777L83.9235 55.2041L65.6797 60.0925C67.648 59.5913 69.6012 59.7595 71.3062 60.8907L83.8738 69.2285C84.4996 69.6436 84.9521 70.1789 85.1159 70.8905C85.3352 71.8942 85.0385 72.598 85.0229 72.6282V72.6284Z" fill="#D6A279"/>
<path fill-rule="evenodd" clip-rule="evenodd" d="M42.085 71.3392L44.8324 74.5172C45.0505 74.7686 45.1651 75.0935 45.1531 75.4261C45.1411 75.7588 45.0033 76.0745 44.7675 76.3096L41.4604 79.6167C40.9037 80.1734 40.188 80.4165 39.4076 80.3133C38.6276 80.2106 37.9994 79.7914 37.6059 79.1093L36.6103 77.385C36.048 76.4109 36.2043 75.2224 36.9996 74.4275L40.1571 71.2697C40.4256 71.0012 40.7569 70.871 41.1361 70.8848C41.5154 70.8986 41.8368 71.0523 42.0848 71.3394L42.085 71.3392Z" fill="#E7B889"/>
<path fill-rule="evenodd" clip-rule="evenodd" d="M47.3866 75.3762L49.9037 78.2877C50.1035 78.5181 50.2084 78.8157 50.1974 79.1205C50.1864 79.4253 50.0601 79.7145 49.8442 79.9299L46.8145 82.9598C46.3045 83.4697 45.6488 83.6925 44.9339 83.598C44.2192 83.5038 43.6437 83.1199 43.2833 82.4947L42.3712 80.9151C41.8562 80.0228 41.9994 78.9339 42.728 78.2056L45.6206 75.3126C45.8666 75.0666 46.1701 74.9473 46.5174 74.9599C46.865 74.9725 47.1595 75.1132 47.3866 75.3762Z" fill="#E7B889"/>
<path fill-rule="evenodd" clip-rule="evenodd" d="M52.4451 78.8832L54.7138 81.5072C54.8939 81.7148 54.9886 81.9831 54.9786 82.2578C54.9687 82.5325 54.8549 82.7932 54.6603 82.9873L51.9296 85.718C51.4699 86.1776 50.8791 86.3783 50.2346 86.2932C49.5906 86.2084 49.0718 85.8621 48.7469 85.2988L47.9249 83.8749C47.4607 83.0707 47.5898 82.0894 48.2465 81.433L50.8536 78.8255C51.0753 78.6038 51.3488 78.4962 51.6618 78.5077C51.9752 78.519 52.2404 78.646 52.4453 78.883L52.4451 78.8832Z" fill="#E7B889"/>
<path fill-rule="evenodd" clip-rule="evenodd" d="M56.949 82.1L59.0966 84.584C59.2671 84.7805 59.3566 85.0345 59.3472 85.2945C59.3378 85.5545 59.2302 85.8013 59.046 85.985L56.461 88.57C56.026 89.0052 55.4666 89.1951 54.8565 89.1146C54.2469 89.0343 53.7558 88.7065 53.4482 88.1734L52.6699 86.8258C52.2304 86.0644 52.3528 85.1354 52.9743 84.5141L55.4423 82.0459C55.6522 81.836 55.9111 81.7341 56.2074 81.7449C56.5039 81.7557 56.7551 81.8759 56.949 82.1003V82.1Z" fill="#E7B889"/>
<path d="M18.041 64.9789L30.431 43.5195L40.1976 49.1585L27.8076 70.6178L18.041 64.9789Z" fill="#213B80"/>
<path d="M20.3613 64.3566L31.9019 44.3682L40.1976 49.1579L28.657 69.1463L20.3613 64.3566Z" fill="#2B4C9F"/>
<path d="M79.7969 48.0628L89.5634 42.4238L101.953 63.8834L92.1869 69.5223L79.7969 48.0628Z" fill="#213B80"/>
<path d="M79.7969 48.063L88.0925 43.2734L99.6331 63.2619L91.3375 68.0516L79.7969 48.063Z" fill="#2B4C9F"/>
<defs>
<linearGradient id="paint0_linear_2948_111283" x1="11.0944" y1="5.13279" x2="54.9528" y2="98.5473" gradientUnits="userSpaceOnUse">
<stop stop-color="#1A5B80"/>
<stop offset="1" stop-color="#7CAB82"/>
</linearGradient>
</defs>
</svg>
