<svg width="121" height="106" viewBox="0 0 121 106" fill="none" xmlns="http://www.w3.org/2000/svg">
<path opacity="0.3" d="M7.06006 36.5344C3.1609 66.884 24.6032 94.6481 54.9528 98.5473C85.3024 102.446 113.067 81.0041 116.966 50.6545C120.865 20.3049 96.3968 16.092 66.0472 12.1929C35.6976 8.29369 10.9592 6.1848 7.06006 36.5344Z" fill="url(#paint0_linear_2955_128102)"/>
<g clip-path="url(#clip0_2955_128102)">
<path d="M60.0005 81.1973L35.0876 87.2041C33.5347 87.5786 31.9725 86.6232 31.5981 85.0705L14.4289 13.861C14.0544 12.3082 15.0098 10.746 16.5625 10.3715L48.3379 2.71017C49.8908 2.3357 51.453 3.2911 51.8274 4.84378L60.0005 38.742L68.1736 4.84378C68.5481 3.29092 70.1103 2.3357 71.6632 2.71017L103.439 10.3715C104.991 10.746 105.947 12.3082 105.572 13.861L88.403 85.0703C88.0286 86.6232 86.4663 87.5784 84.9135 87.2039L60.0005 81.1973Z" fill="#73B640"/>
<path d="M81.6509 91.9996H38.0199C36.7113 91.9996 35.6504 90.9387 35.6504 89.6301V25.9292L60.9946 13.0225L84.352 28.9846V89.2985C84.352 90.7903 83.1427 91.9996 81.6509 91.9996Z" fill="#A0C882"/>
<path d="M81.9815 0H78.0898C79.3985 0 80.4594 1.06088 80.4594 2.36954V92H81.65C83.1418 92 84.3512 90.7907 84.3512 89.2988V2.36954C84.3509 1.06088 83.2902 0 81.9815 0Z" fill="#7CA260"/>
<path d="M35.6506 25.9296C48.7642 20.834 65.7892 35.1422 84.3522 28.9849V2.36954C84.352 1.06088 83.2913 0 81.9826 0H38.0199C36.7113 0 35.6504 1.06088 35.6504 2.36954L35.6506 25.9296Z" fill="#FAF7F8"/>
<path d="M81.9815 0H78.0898C79.3985 0 80.4594 1.06088 80.4594 2.36954V29.9909C81.7775 29.7424 83.0776 29.4064 84.3511 28.985V2.36954C84.3509 1.06088 83.2902 0 81.9815 0Z" fill="#F0EEF0"/>
<path d="M60.0003 22.8737C64.7294 22.8737 68.5632 19.04 68.5632 14.3109C68.5632 9.58176 64.7294 5.74805 60.0003 5.74805C55.2712 5.74805 51.4375 9.58176 51.4375 14.3109C51.4375 19.04 55.2712 22.8737 60.0003 22.8737Z" fill="#A2DBFF"/>
<path d="M51.4375 14.311C51.4375 16.465 52.2348 18.4319 53.5479 19.9366C55.2383 17.2091 58.809 14.1782 59.5504 11.4597C60.0442 9.64914 58.9251 7.70348 57.5413 6.1084C54.0112 7.16514 51.4375 10.4367 51.4375 14.311ZM68.5632 14.311C68.5632 13.4019 68.4203 12.5265 68.1578 11.7046C65.5778 12.2756 62.6556 13.4325 62.0022 15.7684C61.323 18.1971 62.1149 20.2954 62.5133 22.4982C66.0159 21.4244 68.5632 18.1654 68.5632 14.311Z" fill="#6CE79A"/>
<path d="M58.1511 44.7494L58.2555 42.3148C58.4287 38.2749 61.8444 35.1403 65.8843 35.3135L68.3189 35.4179C68.5134 35.4262 68.6967 35.5115 68.8284 35.655C68.9601 35.7985 69.0294 35.9884 69.0211 36.183L68.9167 38.6176C68.7435 42.6575 65.3278 45.7921 61.2879 45.6189L58.8533 45.5145C58.7569 45.5104 58.6623 45.4874 58.5749 45.4467C58.4875 45.406 58.4089 45.3485 58.3437 45.2774C58.2785 45.2064 58.2279 45.1232 58.1948 45.0326C58.1618 44.942 58.1469 44.8458 58.1511 44.7494Z" fill="#00C4A4"/>
<path d="M60.9368 47.2038H58.3002C54.2566 47.2038 50.9785 43.9257 50.9785 39.8821V37.2455C50.9785 37.1037 51.0348 36.9678 51.1351 36.8675C51.2353 36.7673 51.3713 36.7109 51.5131 36.7109H54.1496C58.1933 36.7109 61.4714 39.989 61.4714 44.0327V46.6692C61.4714 46.7394 61.4575 46.8089 61.4307 46.8738C61.4038 46.9386 61.3644 46.9976 61.3148 47.0472C61.2652 47.0969 61.2062 47.1362 61.1414 47.1631C61.0765 47.19 61.007 47.2038 60.9368 47.2038Z" fill="#00D8A2"/>
<path d="M44.5167 14.4109H41.1752C40.4085 14.4109 39.7871 13.7896 39.7871 13.0229C39.7871 12.2561 40.4085 11.6348 41.1752 11.6348H44.5167C45.2834 11.6348 45.9048 12.2561 45.9048 13.0229C45.9048 13.7896 45.2834 14.4109 44.5167 14.4109ZM78.8266 14.4109H75.4851C74.7184 14.4109 74.097 13.7896 74.097 13.0229C74.097 12.2561 74.7184 11.6348 75.4851 11.6348H78.8266C79.5933 11.6348 80.2146 12.2561 80.2146 13.0229C80.2146 13.7896 79.5933 14.4109 78.8266 14.4109Z" fill="#6CE79A"/>
<path d="M72.1654 61.446H47.8358C47.5064 61.446 47.1904 61.3151 46.9575 61.0822C46.7246 60.8493 46.5938 60.5334 46.5938 60.204V54.7764C46.5937 54.4469 46.7246 54.131 46.9575 53.8981C47.1904 53.6651 47.5063 53.5342 47.8358 53.5342H72.1654C72.3286 53.5342 72.4901 53.5663 72.6408 53.6287C72.7915 53.6912 72.9284 53.7827 73.0437 53.898C73.1591 54.0134 73.2505 54.1503 73.3129 54.301C73.3754 54.4517 73.4075 54.6132 73.4074 54.7764V60.204C73.4074 60.5334 73.2765 60.8493 73.0436 61.0822C72.8107 61.3151 72.4948 61.446 72.1654 61.446Z" fill="#FAF7F8"/>
<path d="M72.1659 53.5342H68.3906C68.7201 53.5342 69.036 53.665 69.269 53.898C69.5019 54.131 69.6328 54.4469 69.6328 54.7764V60.204C69.6328 60.5334 69.5019 60.8494 69.269 61.0824C69.036 61.3153 68.7201 61.4462 68.3906 61.4462H72.1659C72.4953 61.4462 72.8113 61.3153 73.0442 61.0824C73.2772 60.8494 73.408 60.5334 73.408 60.204V54.7764C73.408 54.4469 73.2771 54.131 73.0442 53.8981C72.8112 53.6651 72.4953 53.5342 72.1659 53.5342Z" fill="#F0EEF0"/>
<path d="M70.8996 68.3387H49.1029C48.3362 68.3387 47.7148 67.7173 47.7148 66.9506C47.7148 66.1839 48.3362 65.5625 49.1029 65.5625H70.8994C71.0817 65.5625 71.2622 65.5984 71.4306 65.6681C71.599 65.7379 71.7521 65.8401 71.881 65.969C72.0099 66.0979 72.1121 66.2509 72.1819 66.4194C72.2516 66.5878 72.2875 66.7683 72.2875 66.9506C72.2875 67.1329 72.2516 67.3134 72.1819 67.4818C72.1122 67.6502 72.01 67.8033 71.8811 67.9322C71.7522 68.0611 71.5992 68.1633 71.4308 68.2331C71.2624 68.3028 71.0818 68.3387 70.8996 68.3387ZM70.8996 74.4921H49.1029C48.3362 74.4921 47.7148 73.8707 47.7148 73.104C47.7148 72.3373 48.3362 71.7159 49.1029 71.7159H70.8994C71.6661 71.7159 72.2875 72.3373 72.2875 73.104C72.2875 73.8707 71.6663 74.4921 70.8996 74.4921ZM70.8996 80.6455H49.1029C48.3362 80.6455 47.7148 80.0241 47.7148 79.2574C47.7148 78.4907 48.3362 77.8693 49.1029 77.8693H70.8994C71.0817 77.8693 71.2622 77.9052 71.4306 77.9749C71.599 78.0447 71.7521 78.1469 71.881 78.2758C72.0099 78.4047 72.1121 78.5577 72.1819 78.7262C72.2516 78.8946 72.2875 79.0751 72.2875 79.2574C72.2875 79.4397 72.2516 79.6202 72.1819 79.7886C72.1122 79.957 72.01 80.11 71.8811 80.239C71.7522 80.3679 71.5992 80.4701 71.4308 80.5399C71.2624 80.6096 71.0818 80.6455 70.8996 80.6455ZM70.8996 86.7987H49.1029C48.3362 86.7987 47.7148 86.1773 47.7148 85.4106C47.7148 84.6439 48.3362 84.0225 49.1029 84.0225H70.8994C71.0817 84.0225 71.2622 84.0584 71.4306 84.1281C71.599 84.1979 71.7521 84.3001 71.881 84.429C72.0099 84.5579 72.1121 84.711 72.1819 84.8794C72.2516 85.0478 72.2875 85.2283 72.2875 85.4106C72.2875 85.5929 72.2516 85.7734 72.1819 85.9418C72.1122 86.1102 72.01 86.2633 71.8811 86.3922C71.7522 86.5211 71.5992 86.6233 71.4308 86.6931C71.2624 86.7628 71.0818 86.7987 70.8996 86.7987Z" fill="#00C4A4"/>
</g>
<defs>
<linearGradient id="paint0_linear_2955_128102" x1="11.0944" y1="5.13279" x2="54.9528" y2="98.5473" gradientUnits="userSpaceOnUse">
<stop stop-color="#1A5B80"/>
<stop offset="1" stop-color="#7CAB82"/>
</linearGradient>
<clipPath id="clip0_2955_128102">
<rect width="92" height="92" fill="white" transform="translate(14)"/>
</clipPath>
</defs>
</svg>
