<svg width="51" height="51" viewBox="0 0 51 51" fill="none" xmlns="http://www.w3.org/2000/svg">
<path d="M28.6875 36.125H13.8125C13.5307 36.125 13.2605 36.2369 13.0612 36.4362C12.8619 36.6355 12.75 36.9057 12.75 37.1875C12.75 37.4693 12.8619 37.7395 13.0612 37.9388C13.2605 38.1381 13.5307 38.25 13.8125 38.25H28.6875C28.9693 38.25 29.2395 38.1381 29.4388 37.9388C29.6381 37.7395 29.75 37.4693 29.75 37.1875C29.75 36.9057 29.6381 36.6355 29.4388 36.4362C29.2395 36.2369 28.9693 36.125 28.6875 36.125ZM28.6875 40.375H13.8125C13.5307 40.375 13.2605 40.4869 13.0612 40.6862C12.8619 40.8855 12.75 41.1557 12.75 41.4375C12.75 41.7193 12.8619 41.9895 13.0612 42.1888C13.2605 42.3881 13.5307 42.5 13.8125 42.5H28.6875C28.9693 42.5 29.2395 42.3881 29.4388 42.1888C29.6381 41.9895 29.75 41.7193 29.75 41.4375C29.75 41.1557 29.6381 40.8855 29.4388 40.6862C29.2395 40.4869 28.9693 40.375 28.6875 40.375ZM37.1875 8.5H13.8125C13.5307 8.5 13.2605 8.61194 13.0612 8.8112C12.8619 9.01046 12.75 9.28071 12.75 9.5625V13.8125C12.75 14.0943 12.8619 14.3645 13.0612 14.5638C13.2605 14.7631 13.5307 14.875 13.8125 14.875H37.1875C37.4693 14.875 37.7395 14.7631 37.9388 14.5638C38.1381 14.3645 38.25 14.0943 38.25 13.8125V9.5625C38.25 9.28071 38.1381 9.01046 37.9388 8.8112C37.7395 8.61194 37.4693 8.5 37.1875 8.5ZM36.125 12.75H14.875V10.625H36.125V12.75ZM37.1875 4.25H13.8125C12.4035 4.25 11.0523 4.80971 10.056 5.806C9.05971 6.80228 8.5 8.15354 8.5 9.5625V41.4375C8.5 42.8465 9.05971 44.1977 10.056 45.194C11.0523 46.1903 12.4035 46.75 13.8125 46.75H32.9375C33.0702 46.7816 33.2085 46.7816 33.3412 46.75C33.4739 46.7047 33.5915 46.6238 33.6813 46.5163L42.1813 38.0163C42.3141 37.8918 42.4035 37.7279 42.4362 37.5488C42.4362 37.5488 42.4362 37.5488 42.4362 37.4212V9.5625C42.4363 8.16451 41.8854 6.82283 40.9029 5.82836C39.9203 4.83388 38.5854 4.26678 37.1875 4.25ZM34 43.1163V41.4375C34 40.5921 34.3358 39.7814 34.9336 39.1836C35.5314 38.5858 36.3421 38.25 37.1875 38.25H38.8663L34 43.1163ZM40.375 36.125H37.1875C35.7785 36.125 34.4273 36.6847 33.431 37.681C32.4347 38.6773 31.875 40.0285 31.875 41.4375V44.625H13.8125C12.9671 44.625 12.1564 44.2892 11.5586 43.6914C10.9608 43.0936 10.625 42.2829 10.625 41.4375V9.5625C10.625 8.71712 10.9608 7.90637 11.5586 7.3086C12.1564 6.71082 12.9671 6.375 13.8125 6.375H37.1875C38.0329 6.375 38.8436 6.71082 39.4414 7.3086C40.0392 7.90637 40.375 8.71712 40.375 9.5625V36.125ZM31.875 18.0625C31.875 17.7807 31.7631 17.5105 31.5638 17.3112C31.3645 17.1119 31.0943 17 30.8125 17H20.1875C19.9057 17 19.6355 17.1119 19.4362 17.3112C19.2369 17.5105 19.125 17.7807 19.125 18.0625C19.125 18.3443 19.2369 18.6145 19.4362 18.8138C19.6355 19.0131 19.9057 19.125 20.1875 19.125H24.4375C25.0944 19.1299 25.734 19.3363 26.2698 19.7163C26.8056 20.0964 27.2119 20.6317 27.4338 21.25H20.1875C19.9057 21.25 19.6355 21.3619 19.4362 21.5612C19.2369 21.7605 19.125 22.0307 19.125 22.3125C19.125 22.5943 19.2369 22.8645 19.4362 23.0638C19.6355 23.2631 19.9057 23.375 20.1875 23.375H27.4338C27.2119 23.9933 26.8056 24.5286 26.2698 24.9087C25.734 25.2887 25.0944 25.4951 24.4375 25.5H20.1875C19.9777 25.501 19.773 25.5642 19.599 25.6814C19.4251 25.7986 19.2897 25.9647 19.21 26.1588C19.1232 26.3503 19.0991 26.5643 19.141 26.7704C19.183 26.9764 19.289 27.1639 19.4437 27.3063L25.8187 33.6813C25.9136 33.7833 26.0288 33.8644 26.1569 33.9193C26.285 33.9742 26.4232 34.0017 26.5625 34H28.6875C28.9693 34 29.2395 33.8881 29.4388 33.6888C29.6381 33.4895 29.75 33.2193 29.75 32.9375C29.75 32.6557 29.6381 32.3855 29.4388 32.1862C29.2395 31.9869 28.9693 31.875 28.6875 31.875H27.0088L22.7587 27.625H24.4375C25.6803 27.6501 26.8926 27.2385 27.8633 26.4619C28.834 25.6854 29.5016 24.593 29.75 23.375H30.9188C31.2005 23.375 31.4708 23.2631 31.67 23.0638C31.8693 22.8645 31.9813 22.5943 31.9813 22.3125C31.9813 22.0307 31.8693 21.7605 31.67 21.5612C31.4708 21.3619 31.2005 21.25 30.9188 21.25H29.75C29.5834 20.4787 29.2497 19.7534 28.7725 19.125H30.8975C31.1643 19.1036 31.4132 18.9823 31.5944 18.7853C31.7757 18.5883 31.8759 18.3302 31.875 18.0625Z" fill="#19517E"/>
</svg>
