<svg width="121" height="106" viewBox="0 0 121 106" fill="none" xmlns="http://www.w3.org/2000/svg">
<path opacity="0.3" d="M7.06006 36.5344C3.1609 66.884 24.6032 94.6481 54.9528 98.5473C85.3024 102.446 113.067 81.0041 116.966 50.6545C120.865 20.3049 96.3968 16.092 66.0472 12.1929C35.6976 8.29369 10.9592 6.1848 7.06006 36.5344Z" fill="url(#paint0_linear_2955_127996)"/>
<g clip-path="url(#clip0_2955_127996)">
<g clip-path="url(#clip1_2955_127996)">
<path d="M60.0008 91.1784C84.9523 91.1784 105.179 70.9513 105.179 45.9999C105.179 21.0484 84.9523 0.821289 60.0008 0.821289C35.0494 0.821289 14.8223 21.0484 14.8223 45.9999C14.8223 70.9513 35.0494 91.1784 60.0008 91.1784Z" fill="#F1F2F2"/>
<path d="M80.0807 71.2836L80.3436 57.4277H77.7808L78.0436 71.2836L66.8755 87.0682C66.7825 87.2174 66.749 87.3961 66.7818 87.5689C66.8146 87.7416 66.9112 87.8957 67.0524 88.0004C67.1936 88.1052 67.369 88.153 67.5439 88.1343C67.7187 88.1155 67.8801 88.0317 67.9959 87.8995L78.1126 74.7287L78.3672 87.4756C78.3672 88.4942 79.7587 88.4942 79.7587 87.4756L80.0134 74.7287L90.112 87.8995C90.228 88.034 90.3903 88.12 90.5668 88.1402C90.7432 88.1604 90.9208 88.1134 91.0642 88.0086C91.2076 87.9038 91.3062 87.7488 91.3404 87.5745C91.3746 87.4002 91.342 87.2194 91.2489 87.0682L80.0807 71.2836Z" fill="#485F66"/>
<path d="M99.6175 5.7716V58.9969C99.6175 60.119 98.709 61.0077 97.6066 61.0077H60.5109C60.2463 61.0095 59.9841 60.9587 59.7393 60.8582C59.4946 60.7578 59.2722 60.6097 59.0851 60.4227C58.898 60.2356 58.75 60.0132 58.6496 59.7685C58.5491 59.5237 58.4983 59.2614 58.5 58.9969V5.7716C58.5 4.66924 59.3888 3.76074 60.5109 3.76074H97.6066C98.1391 3.76333 98.6491 3.97602 99.0256 4.35257C99.4022 4.72912 99.6149 5.23909 99.6175 5.7716Z" fill="#EFE3D3"/>
<path d="M63.1387 50.9404H94.9772V52.2564H63.1387V50.9404ZM63.1387 54.535H84.9492V55.8509H63.1387V54.535Z" fill="#E0CDB8"/>
<path d="M68.8476 29.3235V27.6297C66.7267 27.4128 64.8226 26.5701 63.1387 25.0981L64.8325 23.079C66.132 24.2093 67.4692 24.8828 68.8476 25.0981V20.595C65.9118 19.8951 63.7876 18.9341 63.7876 15.9178C63.7876 13.0937 65.9956 11.3884 68.8476 11.2406V10.084H70.3327V11.2685C72.0347 11.3917 73.6431 11.9733 75.1611 13.0083L73.6513 15.144C72.6704 14.433 71.5317 13.9707 70.3327 13.7968V18.1603H70.4034C73.3835 18.8601 75.5784 19.8951 75.5784 22.9541C75.5784 25.8817 73.234 27.5114 70.3327 27.6527V29.3235H68.8476ZM66.6182 15.6418C66.6182 16.9166 67.5382 17.3224 68.8476 17.7413V13.7262C67.6631 13.833 66.6182 14.4523 66.6182 15.6418ZM72.7461 23.1726C72.7461 21.8304 71.7193 21.4098 70.3327 20.9909V25.1687C71.578 25.0389 72.7461 24.4196 72.7461 23.1726Z" fill="#485F66"/>
<path d="M78.5078 15.1045H88.9071V16.4204H78.5078V15.1045ZM78.5078 18.6974H94.9775V20.0133H78.5078V18.6974ZM78.5078 22.292H94.9775V23.6079H78.5078V22.292ZM78.5078 25.8866H94.9775V27.2025H78.5078V25.8866Z" fill="#E0CDB8"/>
<path d="M29.8231 88.2345H27.1913L24.3245 87.9601V88.2345H22.0508V84.543H25.2001L25.2034 85.2724L28.1704 86.1464C28.6417 86.2558 29.0618 86.522 29.3621 86.9013C29.6623 87.2807 29.8249 87.7507 29.8231 88.2345Z" fill="#823003"/>
<path d="M26.0183 88.131L24.313 87.9601V88.2394H22.0508V84.543H25.1969L25.2034 85.2724C25.0802 85.5517 25.026 85.8622 25.026 86.1891C25.026 86.981 25.4137 87.6956 26.0183 88.131Z" fill="#772A03"/>
<path d="M29.8188 88.2391H27.2001L24.3333 87.9598V88.2391H22.0547V87.5557H24.3333L27.2001 87.8514H29.7876C29.804 87.9746 29.8188 88.1159 29.8188 88.2391Z" fill="#5B1E00"/>
<path d="M41.1591 88.2345H38.5272L35.6604 87.9601V88.2345H33.3867V84.543H36.5361L36.5394 85.2724L39.5064 86.1464C39.9776 86.2558 40.3978 86.522 40.698 86.9013C40.9983 87.2807 41.1608 87.7507 41.1591 88.2345Z" fill="#823003"/>
<path d="M37.3542 88.131L35.6489 87.9601V88.2394H33.3867V84.543H36.5328L36.5394 85.2724C36.4161 85.5517 36.3619 85.8622 36.3619 86.1891C36.3619 86.981 36.7496 87.6956 37.3542 88.131Z" fill="#772A03"/>
<path d="M41.1567 88.2391H38.538L35.6712 87.9598V88.2391H33.3926V87.5557H35.6712L38.538 87.8514H41.1255C41.1403 87.9746 41.1567 88.1159 41.1567 88.2391Z" fill="#5B1E00"/>
<path d="M36.6717 85.2033H33.2414L30.0362 56.3925L28.4706 57.1712L25.3064 85.2033H21.9353L20.7031 51.6019L36.8705 51.5986L36.6717 85.2033Z" fill="#40335E"/>
<path d="M25.3064 85.2033L22.7797 84.4656L22.3739 53.7836C27.8216 53.7836 32.8143 53.1889 36.8705 51.5986C31.8187 52.0931 26.4071 52.0586 20.7031 51.6019L21.9353 85.2033H25.3064Z" fill="#252241"/>
<path d="M36.8736 51.5937C31.4588 52.3347 26.0801 52.4053 20.6997 51.5937C21.2649 42.1375 21.3207 33.0114 20.6816 24.3437C23.1689 25.9487 25.9371 24.7314 28.7776 22.7041C30.4895 23.427 32.0716 24.6 32.0716 24.6L36.1689 27.8545C35.6941 34.6345 36.0916 42.8061 36.8736 51.5937Z" fill="#40335E"/>
<path d="M56.8255 20.215L57.3151 19.4362C57.8046 18.6575 57.2066 18.1992 56.4131 17.6981C55.6344 17.2069 54.9641 16.8635 54.4746 17.6422L53.985 18.421C53.8504 18.6299 53.7651 18.8667 53.7355 19.1135C53.7059 19.3602 53.7328 19.6105 53.8141 19.8453L53.5332 20.2922L55.3354 21.4307L55.6163 20.9838C55.8631 20.956 56.1002 20.8723 56.3098 20.7391C56.5193 20.6059 56.6957 20.4266 56.8255 20.215Z" fill="#FECF7F"/>
<path d="M33.0172 30.2088L32.002 24.5179C32.002 24.5179 47.1787 26.4927 53.3131 19.9902C54.3908 20.235 55.2812 20.6244 55.6854 21.5181C50.8948 27.2582 41.7556 29.785 33.0172 30.2088Z" fill="#40335E"/>
<path d="M29.1143 25.035H28.4489C28.0481 25.035 27.6636 24.8758 27.3802 24.5924C27.0967 24.3089 26.9375 23.9245 26.9375 23.5236V17.8278C26.9375 17.427 27.0967 17.0425 27.3802 16.7591C27.6636 16.4756 28.0481 16.3164 28.4489 16.3164H29.1143C29.5151 16.3164 29.8996 16.4756 30.183 16.7591C30.4665 17.0425 30.6257 17.427 30.6257 17.8278V23.5236C30.6257 23.9245 30.4665 24.3089 30.183 24.5924C29.8996 24.8758 29.5151 25.035 29.1143 25.035Z" fill="#FECF7F"/>
<path d="M31.2328 25.0352V32.7434L28.7833 42.6515L26.3223 32.7434V25.0352H31.2328Z" fill="#E6E7E8"/>
<path d="M26.9707 25.2405L28.0156 26.2854L27.1646 36.1277L28.7811 42.6351L28.8008 42.5907L30.3944 36.1392L29.5434 26.2854L30.5866 25.2405L30.3813 25.0352H27.1761L26.9707 25.2405Z" fill="#FE6F6B"/>
<path d="M31.768 24.3259C31.4476 25.2525 30.8628 26.0082 30.1284 26.667C30.1843 25.8226 28.7812 25.034 28.7812 25.034C29.6257 24.4228 30.3157 23.7411 30.618 22.8818C31.0615 23.3238 31.5922 23.7887 31.768 24.3259Z" fill="#F1F2F2"/>
<path d="M25.7949 24.3259C26.1153 25.2525 26.7001 26.0082 27.4345 26.667C27.3786 25.8226 28.7816 25.034 28.7816 25.034C27.9372 24.4228 27.2472 23.7411 26.9449 22.8818C26.5014 23.3238 25.9707 23.7887 25.7949 24.3259Z" fill="#F1F2F2"/>
<path d="M33.6079 27.17C32.9442 31.2229 31.1453 38.5221 28.7861 42.6522C30.3041 37.3097 31.0056 28.614 30.6229 22.8887C31.9503 23.4127 33.0592 24.3722 33.9398 25.7785L32.039 25.9707C32.6124 26.0955 33.1348 26.429 33.6079 27.17ZM23.9627 27.17C24.6264 31.2229 26.4254 38.5221 28.7845 42.6522C27.2665 37.3097 26.565 28.614 26.9478 22.8887C25.6204 23.4127 24.5114 24.3722 23.6309 25.7785L25.5316 25.9707C24.9583 26.0955 24.4359 26.429 23.9627 27.17ZM36.6719 85.2039H33.2416L30.0249 56.3931L31.1502 55.8132L33.9759 84.2083L36.6719 85.2039Z" fill="#252241"/>
<path d="M30.4641 12.8475L30.9832 9.20199C29.8129 8.86755 28.5681 8.89956 27.4165 9.29371C26.2649 9.68787 25.2616 10.4253 24.5416 11.4067C22.5866 14.0747 25.1675 21.5021 27.6647 22.3547C30.7697 23.416 33.1025 21.6992 34.1884 18.5088C34.9622 16.2351 35.3138 14.7056 35.2251 13.5276L30.4641 12.8475Z" fill="#FECF7F"/>
<path d="M31.7074 20.9692C31.6204 21.4834 31.1456 21.8694 30.6544 21.8267C30.1631 21.784 29.8461 21.3125 29.9348 20.7983C30.0399 20.2841 30.4966 19.898 30.9879 19.9407C31.4791 19.9834 31.7961 20.4336 31.7074 20.9692Z" fill="#823003"/>
<path opacity="0.65" d="M28.4319 21.7748C27.0913 21.3148 25.7425 18.9606 25.0722 16.4667L24.1309 16.332C24.7157 19.0789 26.2009 21.8602 27.6696 22.363C29.5638 23.0152 31.1623 22.6127 32.3649 21.4906C31.2609 22.1461 29.9482 22.2907 28.4319 21.7748Z" fill="#F4BD6C"/>
<path d="M34.7648 12.3407C34.756 12.3272 34.7467 12.314 34.7369 12.3013C34.8683 12.9781 35.325 13.448 36.0051 13.7897C33.2451 15.5574 27.6545 13.471 25.9788 11.2104C25.9328 14.1018 25.6223 16.2474 24.3852 17.9658C21.1997 11.4897 21.7106 6.98663 24.7006 7.73906C25.2756 3.09142 37.4295 5.02342 38.3939 10.3266C38.7717 12.3982 36.1661 13.9031 34.7648 12.3407Z" fill="#933801"/>
<path d="M36.5776 11.3689C35.9681 11.6614 34.4878 11.5529 33.9687 11.0831C33.9687 11.0831 35.7873 11.2392 36.5628 9.90187C33.8126 12.1805 27.1147 9.9298 27.21 7.20265C27.2527 6.0543 28.1612 5.11458 29.3293 5.12608C31.7213 5.1228 35.1696 6.02965 36.6991 7.73165C38.0036 9.21022 37.5994 10.8416 36.5776 11.3689Z" fill="#A33A00"/>
<path d="M30.7051 16.1064C30.756 16.7274 30.9121 17.5834 31.2981 18.0746C31.8304 18.7646 31.5101 19.3232 31.0583 19.4201C30.5868 19.4874 30.4143 19.1638 30.4225 19.1901C30.4077 19.1835 30.6656 19.3987 31.0188 19.2788C31.3655 19.1654 31.5462 18.7744 31.0763 18.229C30.6821 17.6179 30.5736 16.6502 30.7051 16.1064Z" fill="#F4BD6C"/>
<path d="M28.8695 17.2843C29.2099 17.3329 29.5302 17.0622 29.5849 16.6796C29.6396 16.2969 29.408 15.9473 29.0676 15.8987C28.7271 15.85 28.4068 16.1207 28.3521 16.5034C28.2974 16.886 28.5291 17.2356 28.8695 17.2843Z" fill="#352F2E"/>
<path d="M32.6813 16.2274C32.3409 16.1788 32.0206 16.4495 31.9659 16.8321C31.9112 17.2148 32.1428 17.5644 32.4832 17.6131C32.8236 17.6617 33.1439 17.391 33.1986 17.0084C33.2533 16.6257 33.0217 16.2761 32.6813 16.2274Z" fill="#352F2E"/>
<path d="M34.3406 16.0901C34.3052 16.1537 34.2528 16.2061 34.1892 16.2415C34.1256 16.2769 34.0535 16.2939 33.9808 16.2905C33.5848 15.9817 32.6961 15.4444 31.6972 15.6153C31.6972 15.6153 31.8319 13.7244 34.3406 16.0901ZM27.1465 15.6235C27.181 15.7287 27.3108 15.8634 27.4767 15.8699C27.9104 15.6169 28.8633 15.2046 29.8309 15.5085C29.8309 15.5085 29.9492 13.6176 27.1465 15.6235Z" fill="#933801"/>
<path d="M24.3852 17.9661C25.6223 16.2476 25.9328 14.1021 25.9788 11.2106C27.6545 13.4712 33.2468 15.5576 36.0068 13.7899C31.2096 14.7707 27.482 11.2878 27.482 11.2878C29.4518 12.3787 31.7912 12.3721 31.7912 12.3721C26.6096 11.5901 24.7006 7.73927 24.7006 7.73927C21.7106 6.98684 21.1997 11.4899 24.3852 17.9661Z" fill="#823003"/>
<path d="M24.7285 18.9499C25.4825 18.9499 26.0937 18.1092 26.0937 17.0721C26.0937 16.0351 25.4825 15.1943 24.7285 15.1943C23.9745 15.1943 23.3633 16.0351 23.3633 17.0721C23.3633 18.1092 23.9745 18.9499 24.7285 18.9499Z" fill="#FECF7F"/>
<path d="M24.6397 7.03198C24.5821 7.37836 24.9976 7.73599 25.5677 7.83078C26.1379 7.92556 26.6467 7.72161 26.7043 7.37522C26.7619 7.02884 26.3464 6.67121 25.7763 6.57642C25.2061 6.48164 24.6972 6.6856 24.6397 7.03198Z" fill="#FECF7F"/>
<path d="M26.2359 7.30258L27.0475 6.86887C27.859 6.43515 27.5666 5.74022 27.1263 4.91222C26.6942 4.09901 26.2819 3.46815 25.4703 3.90187L24.6587 4.33394C24.4381 4.44861 24.2464 4.61208 24.0984 4.81192C23.9504 5.01176 23.8499 5.24271 23.8045 5.48722L23.3379 5.7353L24.3384 7.61801L24.805 7.36994C25.237 7.5638 25.7693 7.55065 26.2359 7.30258Z" fill="#FECF7F"/>
<path d="M23.1521 26.217L21.3433 32.7638C21.0755 31.5185 6.31113 17.9715 23.2983 5.36426C24.2018 5.9984 24.7801 6.77876 24.8163 7.7579C24.8163 7.7579 24.0671 8.59576 23.1208 9.93633C14.4876 22.1362 23.0453 25.6618 23.1521 26.217Z" fill="#40335E"/>
<path d="M87.4719 41.6584L79.6651 41.4399L73.4879 36.025L64.7923 35.7819L64.4785 35.5059V36.3273L64.5541 36.393L73.2481 36.6361L79.4252 42.051L87.2337 42.2695L93.4552 47.7238L93.8643 47.2605L87.4719 41.6584Z" fill="#485F66"/>
<path d="M93.6609 49.1841C94.5954 49.1841 95.353 48.4265 95.353 47.4919C95.353 46.5574 94.5954 45.7998 93.6609 45.7998C92.7263 45.7998 91.9688 46.5574 91.9688 47.4919C91.9688 48.4265 92.7263 49.1841 93.6609 49.1841Z" fill="#FE6F6B"/>
<path d="M87.6238 43.6753C88.5583 43.6753 89.3159 42.9177 89.3159 41.9832C89.3159 41.0486 88.5583 40.291 87.6238 40.291C86.6892 40.291 85.9316 41.0486 85.9316 41.9832C85.9316 42.9177 86.6892 43.6753 87.6238 43.6753Z" fill="#8464D1"/>
<path d="M79.4031 43.4487C80.3376 43.4487 81.0952 42.6911 81.0952 41.7566C81.0952 40.8221 80.3376 40.0645 79.4031 40.0645C78.4685 40.0645 77.7109 40.8221 77.7109 41.7566C77.7109 42.6911 78.4685 43.4487 79.4031 43.4487Z" fill="#FE6F6B"/>
<path d="M73.4324 38.0044C74.3669 38.0044 75.1245 37.2468 75.1245 36.3123C75.1245 35.3777 74.3669 34.6201 73.4324 34.6201C72.4978 34.6201 71.7402 35.3777 71.7402 36.3123C71.7402 37.2468 72.4978 38.0044 73.4324 38.0044Z" fill="#F5B644"/>
<path d="M64.4558 37.9136C65.3904 37.9136 66.148 37.156 66.148 36.2214C66.148 35.2869 65.3904 34.5293 64.4558 34.5293C63.5213 34.5293 62.7637 35.2869 62.7637 36.2214C62.7637 37.156 63.5213 37.9136 64.4558 37.9136Z" fill="#56BB99"/>
</g>
</g>
<defs>
<linearGradient id="paint0_linear_2955_127996" x1="11.0944" y1="5.13279" x2="54.9528" y2="98.5473" gradientUnits="userSpaceOnUse">
<stop stop-color="#1A5B80"/>
<stop offset="1" stop-color="#7CAB82"/>
</linearGradient>
<clipPath id="clip0_2955_127996">
<rect width="92" height="92" fill="white" transform="translate(14)"/>
</clipPath>
<clipPath id="clip1_2955_127996">
<rect width="92" height="92" fill="white" transform="translate(14)"/>
</clipPath>
</defs>
</svg>
