<svg width="24" height="25" viewBox="0 0 24 25" fill="none" xmlns="http://www.w3.org/2000/svg">
<path fill-rule="evenodd" clip-rule="evenodd" d="M1.93527 17.1201C2.27475 17.1201 2.60032 17.255 2.84037 17.495C3.08042 17.7351 3.21527 18.0606 3.21527 18.4001V20.9601C3.21527 21.2996 3.35013 21.6252 3.59018 21.8652C3.83022 22.1053 4.1558 22.2401 4.49527 22.2401H19.8553C20.1947 22.2401 20.5203 22.1053 20.7604 21.8652C21.0004 21.6252 21.1353 21.2996 21.1353 20.9601V18.4001C21.1353 18.0606 21.2701 17.7351 21.5102 17.495C21.7502 17.255 22.0758 17.1201 22.4153 17.1201C22.7548 17.1201 23.0803 17.255 23.3204 17.495C23.5604 17.7351 23.6953 18.0606 23.6953 18.4001V20.9601C23.6953 21.9785 23.2907 22.9553 22.5706 23.6754C21.8504 24.3955 20.8737 24.8001 19.8553 24.8001H4.49527C3.47684 24.8001 2.50012 24.3955 1.77998 23.6754C1.05984 22.9553 0.655273 21.9785 0.655273 20.9601V18.4001C0.655273 18.0606 0.79013 17.7351 1.03018 17.495C1.27022 17.255 1.5958 17.1201 1.93527 17.1201Z" fill="#19517E"/>
<path fill-rule="evenodd" clip-rule="evenodd" d="M4.86988 9.81557C5.10992 9.57561 5.43543 9.44081 5.77484 9.44081C6.11425 9.44081 6.43977 9.57561 6.6798 9.81557L12.1748 15.3106L17.6699 9.81557C17.788 9.69332 17.9292 9.59581 18.0854 9.52872C18.2415 9.46164 18.4095 9.42633 18.5794 9.42485C18.7494 9.42338 18.918 9.45576 19.0753 9.52012C19.2326 9.58448 19.3755 9.67953 19.4957 9.79971C19.6159 9.91989 19.7109 10.0628 19.7753 10.2201C19.8396 10.3774 19.872 10.546 19.8705 10.7159C19.869 10.8859 19.8337 11.0538 19.7667 11.21C19.6996 11.3662 19.6021 11.5074 19.4798 11.6255L13.0798 18.0255C12.8398 18.2655 12.5143 18.4003 12.1748 18.4003C11.8354 18.4003 11.5099 18.2655 11.2699 18.0255L4.86988 11.6255C4.62992 11.3855 4.49512 11.0599 4.49512 10.7205C4.49512 10.3811 4.62992 10.0556 4.86988 9.81557Z" fill="#19517E"/>
<path fill-rule="evenodd" clip-rule="evenodd" d="M12.1755 0.480469C12.515 0.480469 12.8406 0.615325 13.0806 0.855372C13.3207 1.09542 13.4555 1.42099 13.4555 1.76047V17.1205C13.4555 17.4599 13.3207 17.7855 13.0806 18.0256C12.8406 18.2656 12.515 18.4005 12.1755 18.4005C11.836 18.4005 11.5105 18.2656 11.2704 18.0256C11.0304 17.7855 10.8955 17.4599 10.8955 17.1205V1.76047C10.8955 1.42099 11.0304 1.09542 11.2704 0.855372C11.5105 0.615325 11.836 0.480469 12.1755 0.480469Z" fill="#19517E"/>
</svg>
