<svg width="121" height="106" viewBox="0 0 121 106" fill="none" xmlns="http://www.w3.org/2000/svg">
<path opacity="0.3" d="M7.06006 36.5344C3.1609 66.884 24.6032 94.6481 54.9528 98.5473C85.3024 102.446 113.067 81.0041 116.966 50.6545C120.865 20.3049 96.3968 16.092 66.0472 12.1929C35.6976 8.29369 10.9592 6.1848 7.06006 36.5344Z" fill="url(#paint0_linear_2800_139566)"/>
<g clip-path="url(#clip0_2800_139566)">
<path d="M27.5703 2.04883H96.9194V92.9632H27.5703V2.04883Z" fill="#19517E"/>
<path d="M31.1508 10.8506H89.1901V88.9757H39.6311C34.9468 88.9757 31.1496 85.1776 31.1504 80.4934L31.1508 10.8506Z" fill="#3E7199"/>
<path d="M91.0085 9.00684V87.1326H40.2613C40.1295 87.1326 39.9975 87.1284 39.8646 87.1194C36.0025 86.9178 32.9738 83.7298 32.9688 79.8629V9.00684H91.0085Z" fill="white"/>
<path d="M96.9188 38.625V51.1726L91.0078 57.0836V44.536L96.9188 38.625Z" fill="#0C1E88"/>
<path d="M91.0077 44.5361V57.0838L88.3728 59.7183L87.8005 60.289L87.2183 60.8705L85.8442 62.2454L82.7292 69.2338L71.3499 71.628L71.1925 71.6616L69.8848 71.9372L70.1618 70.6148L70.1929 70.4678L72.5838 59.0928L79.5758 55.9761L80.9506 54.6026L80.945 54.597L81.3747 54.1665L84.8215 50.7194L85.5457 49.9977L91.0077 44.5361Z" fill="#FED5C5"/>
<path d="M25.8467 2.04883H27.57V92.9632H25.8467V2.04883Z" fill="#3E7199"/>
<path d="M48.9026 2.04883H73.2411V7.31288H48.9023L48.9026 2.04883Z" fill="#0C1E88"/>
<path d="M51.1578 1.6525e-05H72.1863C72.4647 1.6525e-05 72.7316 0.110592 72.9285 0.307418C73.1253 0.504244 73.2359 0.771198 73.2359 1.04955V5.52897H50.1016V1.05585C50.1009 0.916958 50.1277 0.779301 50.1805 0.650848C50.2333 0.522394 50.3111 0.405693 50.4094 0.3075C50.5076 0.209307 50.6243 0.131571 50.7528 0.0787919C50.8813 0.0260124 51.0189 -0.000762544 51.1578 1.6525e-05Z" fill="#FF8C5F"/>
<path d="M51.1577 0.995117H72.1862C72.7657 0.995117 73.2357 1.46573 73.2357 2.04465V6.21173H50.1014V2.04969C50.101 1.91084 50.128 1.77327 50.181 1.64491C50.2339 1.51655 50.3118 1.39994 50.41 1.30179C50.5082 1.2039 50.6249 1.12643 50.7532 1.07383C50.8815 1.02123 51.019 0.994343 51.1577 0.995117ZM91.0081 77.4399V87.1334H40.261C40.1292 87.1334 39.9971 87.1292 39.8643 87.1202C43.9616 85.6647 46.6984 81.7881 46.6984 77.4399H91.0081Z" fill="#FED5C5"/>
<path d="M87.6476 87.1328H94.2238C98.521 87.1328 102.005 83.6488 102.005 79.3516H48.3696C48.3696 83.6479 44.8872 87.1311 40.5908 87.1328" fill="#FF8C5F"/>
<path d="M67.0494 3.45728C67.0509 3.58343 67.0255 3.70896 66.9764 3.82461C66.9266 3.93735 66.8553 4.03931 66.7665 4.12478C66.6796 4.21306 66.5759 4.28306 66.4616 4.33065C66.3472 4.37823 66.2245 4.40245 66.1006 4.40186H57.2363C57.0507 4.40188 56.8694 4.34711 56.7149 4.24441C56.5604 4.14171 56.4397 3.99567 56.3679 3.82461C56.318 3.70862 56.2929 3.58352 56.294 3.45728C56.2946 3.20734 56.394 2.96779 56.5705 2.79084C56.747 2.6139 56.9863 2.51391 57.2363 2.5127H66.1071C66.3572 2.51336 66.5969 2.61317 66.7735 2.79023C66.9501 2.9673 67.0494 3.20718 67.0494 3.45728Z" fill="#030303"/>
<path d="M66.9765 3.81466C66.9262 3.92717 66.855 4.02905 66.7665 4.11483C66.6796 4.20291 66.576 4.27278 66.4617 4.32035C66.3475 4.36792 66.2249 4.39225 66.1011 4.39191H57.2366C57.0511 4.39177 56.8698 4.33692 56.7153 4.23425C56.5608 4.13157 56.4401 3.98562 56.3682 3.81466C56.4176 3.70146 56.4889 3.59915 56.5781 3.51366C56.7542 3.34197 56.9906 3.24624 57.2366 3.24708H66.1074C66.2919 3.24664 66.4724 3.30014 66.6268 3.40098C66.7812 3.50183 66.9027 3.64562 66.9765 3.81466Z" fill="#2044B4"/>
<path d="M53.2233 26.5053H51.2333C50.955 26.5053 50.688 26.3947 50.4912 26.1979C50.2944 26.0011 50.1838 25.7341 50.1838 25.4558C50.1838 25.1774 50.2944 24.9105 50.4912 24.7137C50.688 24.5168 50.955 24.4062 51.2333 24.4062H53.2233C53.5016 24.4063 53.7686 24.5168 53.9654 24.7137C54.1622 24.9105 54.2728 25.1774 54.2728 25.4558C54.2728 25.7341 54.1622 26.0011 53.9654 26.1979C53.7686 26.3947 53.5016 26.5053 53.2233 26.5053ZM82.8915 26.5053H57.4928C57.2144 26.5053 56.9475 26.3947 56.7506 26.1979C56.5538 26.0011 56.4432 25.7341 56.4432 25.4558C56.4432 25.1774 56.5538 24.9105 56.7506 24.7137C56.9475 24.5168 57.2144 24.4062 57.4928 24.4062H82.8915C83.1699 24.4063 83.4368 24.5168 83.6337 24.7137C83.8305 24.9105 83.9411 25.1774 83.9411 25.4558C83.9411 25.7341 83.8305 26.0011 83.6337 26.1979C83.4368 26.3947 83.1699 26.5053 82.8915 26.5053ZM53.2233 38.3149H51.2333C50.955 38.3149 50.688 38.2043 50.4912 38.0075C50.2944 37.8107 50.1838 37.5437 50.1838 37.2654C50.1838 36.987 50.2944 36.7201 50.4912 36.5232C50.688 36.3264 50.955 36.2158 51.2333 36.2158H53.2233C53.5016 36.2158 53.7686 36.3264 53.9654 36.5232C54.1622 36.7201 54.2728 36.987 54.2728 37.2654C54.2728 37.5437 54.1622 37.8107 53.9654 38.0075C53.7686 38.2043 53.5016 38.3149 53.2233 38.3149ZM82.8915 38.3149H57.4928C57.2144 38.3149 56.9475 38.2043 56.7506 38.0075C56.5538 37.8107 56.4432 37.5437 56.4432 37.2654C56.4432 36.987 56.5538 36.7201 56.7506 36.5232C56.9475 36.3264 57.2144 36.2158 57.4928 36.2158H82.8915C83.1699 36.2158 83.4368 36.3264 83.6337 36.5232C83.8305 36.7201 83.9411 36.987 83.9411 37.2654C83.9411 37.5437 83.8305 37.8107 83.6337 38.0075C83.4368 38.2043 83.1699 38.3149 82.8915 38.3149ZM82.8915 32.5213H79.5708C79.2924 32.5213 79.0255 32.4107 78.8287 32.2139C78.6318 32.017 78.5213 31.7501 78.5213 31.4717C78.5213 31.1934 78.6318 30.9264 78.8287 30.7296C79.0255 30.5328 79.2924 30.4222 79.5708 30.4222H82.8915C83.1699 30.4222 83.4368 30.5328 83.6337 30.7296C83.8305 30.9264 83.9411 31.1934 83.9411 31.4717C83.9411 31.7501 83.8305 32.017 83.6337 32.2139C83.4368 32.4107 83.1699 32.5213 82.8915 32.5213ZM75.8049 32.5213H51.2331C50.9548 32.5213 50.6878 32.4107 50.491 32.2139C50.2942 32.017 50.1836 31.7501 50.1836 31.4717C50.1836 31.1934 50.2942 30.9264 50.491 30.7296C50.6878 30.5328 50.9548 30.4222 51.2331 30.4222H75.8049C76.0832 30.4222 76.3502 30.5328 76.547 30.7296C76.7438 30.9264 76.8544 31.1934 76.8544 31.4717C76.8544 31.7501 76.7438 32.017 76.547 32.2139C76.3502 32.4107 76.0832 32.5213 75.8049 32.5213ZM76.0148 44.2488H51.3024C51.024 44.2488 50.7571 44.1382 50.5603 43.9414C50.3634 43.7445 50.2529 43.4776 50.2529 43.1992C50.2529 42.9209 50.3634 42.6539 50.5603 42.4571C50.7571 42.2603 51.024 42.1497 51.3024 42.1497H76.0148C76.2931 42.1497 76.5601 42.2603 76.7569 42.4571C76.9537 42.6539 77.0643 42.9209 77.0643 43.1992C77.0643 43.4776 76.9537 43.7445 76.7569 43.9414C76.5601 44.1382 76.2931 44.2488 76.0148 44.2488Z" fill="#383838"/>
<path d="M39.6692 68.5471C39.4755 68.5475 39.2855 68.4942 39.1202 68.3932C38.9549 68.2922 38.8208 68.1474 38.7327 67.9749C38.6447 67.8023 38.6062 67.6087 38.6214 67.4156C38.6367 67.2225 38.7051 67.0374 38.8191 66.8808L43.5124 60.4115C43.6086 60.2783 43.6662 60.1212 43.6787 59.9574C43.6913 59.7936 43.6585 59.6296 43.5838 59.4833C43.5091 59.3369 43.3955 59.2139 43.2554 59.128C43.1153 59.042 42.9542 58.9965 42.7899 58.9963H39.6692C39.3908 58.9963 39.1239 58.8857 38.9271 58.6889C38.7302 58.4921 38.6197 58.2251 38.6197 57.9467C38.6197 57.6684 38.7302 57.4014 38.9271 57.2046C39.1239 57.0078 39.3908 56.8972 39.6692 56.8972H42.7899C43.915 56.8964 44.944 57.5269 45.4549 58.5288C45.7054 59.0201 45.8152 59.571 45.7721 60.1208C45.7289 60.6706 45.5346 61.1977 45.2105 61.6438L43.7664 63.6354L56.5266 55.4868C56.7613 55.3373 57.0458 55.287 57.3175 55.3469C57.5893 55.4069 57.8262 55.5722 57.9762 55.8065C58.1259 56.0413 58.1763 56.3259 58.1162 56.5978C58.0561 56.8697 57.8904 57.1066 57.6557 57.2564L40.2334 68.3814C40.0653 68.4895 39.8692 68.5471 39.6692 68.5471Z" fill="#FCC924"/>
<path d="M55.7245 72.4116H39.6687C39.3903 72.4116 39.1234 72.301 38.9265 72.1042C38.7297 71.9073 38.6191 71.6404 38.6191 71.362C38.6191 71.0837 38.7297 70.8167 38.9265 70.6199C39.1234 70.4231 39.3903 70.3125 39.6687 70.3125H55.724C56.0024 70.3125 56.2694 70.4231 56.4662 70.6199C56.663 70.8167 56.7736 71.0837 56.7736 71.362C56.7736 71.6404 56.663 71.9073 56.4662 72.1042C56.2694 72.301 56.0024 72.4116 55.724 72.4116H55.7245Z" fill="#383838"/>
<path d="M85.9055 58.447L79.6314 52.1729L79.0477 52.7543L79.0542 52.7583L77.6793 54.1332L70.6873 57.2499L68.3531 68.3586L68.2964 68.6252L68.2654 68.7719L67.9883 70.0943L69.296 69.8197L69.4534 69.7862L80.8319 67.3911L83.9469 60.4033L85.3218 59.0284L85.3243 59.0301L85.9055 58.447Z" fill="#FF8C5F"/>
<path d="M84.507 57.0827L82.5507 59.0391L79.4356 66.0269L68.3525 68.3589L70.6867 57.25L77.6787 54.1335L79.6185 52.1934L84.507 57.0827Z" fill="#FFB69F"/>
<path d="M107.012 35.5101C107.013 36.0924 106.898 36.6691 106.675 37.2069C106.452 37.7448 106.125 38.2332 105.712 38.644L89.205 55.1502L82.9307 48.877L99.4378 32.3697C100.985 30.8224 103.429 30.6346 105.194 31.9268C105.265 31.9769 105.334 32.0317 105.404 32.0884C105.908 32.5045 106.314 33.0271 106.592 33.6187C106.87 34.2103 107.013 34.8564 107.012 35.5101Z" fill="#3C51D1"/>
<path d="M105.676 33.9519C105.678 34.5345 105.564 35.1116 105.341 35.6499C105.118 36.1882 104.791 36.677 104.378 37.0881L87.8728 53.5954L83.0449 48.7675L99.4383 32.3734C100.985 30.8264 103.429 30.6385 105.194 31.9307C105.512 32.5569 105.678 33.2495 105.676 33.9519Z" fill="#6175E9"/>
<path d="M86.4778 57.8759L80.2043 51.6017L83.6506 48.1553L89.9249 54.4294L86.4778 57.8759ZM73.5671 65.4474L69.159 69.8555L67.9814 70.1029L68.2314 68.9107L72.6248 64.5198C72.6861 64.4582 72.759 64.4094 72.8393 64.376C72.9196 64.3427 73.0057 64.3255 73.0926 64.3255C73.1795 64.3255 73.2656 64.3427 73.3459 64.376C73.4261 64.4094 73.499 64.4582 73.5604 64.5198C73.622 64.5813 73.6708 64.6542 73.7042 64.7346C73.7375 64.8149 73.7547 64.9011 73.7547 64.988C73.7547 65.075 73.7375 65.1612 73.7042 65.2415C73.6708 65.3218 73.622 65.3948 73.5604 65.4562L73.5671 65.4474Z" fill="#0C1E88"/>
<path d="M89.2001 55.1502L85.7538 58.5973L84.3411 57.1847H84.3386L79.4795 52.3232L82.9257 48.877L89.2001 55.1502Z" fill="#EAAE06"/>
<path d="M87.7886 53.7384L84.3419 57.1847H84.3396L79.4805 52.3232L82.9267 48.877L87.7886 53.7384Z" fill="#FCC924"/>
<path d="M77.3343 62.5308C77.3343 63.5182 76.5348 64.3175 75.5484 64.3175C74.5621 64.3175 73.7617 63.5182 73.7617 62.5308C73.7617 61.5444 74.5621 60.7451 75.5484 60.7451C76.5348 60.7451 77.3343 61.5444 77.3343 62.5308Z" fill="#0C1E88"/>
<path d="M76.275 62.5308C76.2751 62.6262 76.2563 62.7206 76.2198 62.8088C76.1833 62.897 76.1298 62.9771 76.0623 63.0445C75.9948 63.112 75.9147 63.1655 75.8266 63.202C75.7384 63.2385 75.644 63.2573 75.5485 63.2572C75.4049 63.2572 75.2645 63.2146 75.145 63.1348C75.0256 63.055 74.9325 62.9416 74.8776 62.8089C74.8226 62.6762 74.8082 62.5302 74.8362 62.3893C74.8642 62.2484 74.9334 62.119 75.035 62.0174C75.1366 61.9158 75.266 61.8467 75.4069 61.8186C75.5477 61.7906 75.6938 61.805 75.8265 61.86C75.9592 61.9149 76.0726 62.008 76.1524 62.1275C76.2322 62.2469 76.2748 62.3873 76.2748 62.531L76.275 62.5308Z" fill="#FCC924"/>
<path d="M41.5897 19.4397V31.7946C41.592 39.0931 37.3554 45.7289 30.7333 48.7971L28.6342 49.7696C28.4396 49.8603 28.2275 49.9073 28.0128 49.9073C27.7981 49.9073 27.586 49.8603 27.3913 49.7696L26.6443 49.4268L25.2923 48.7971C18.6729 45.7272 14.4386 39.092 14.4424 31.7946V19.4395C14.4451 19.0507 14.6008 18.6785 14.8758 18.4035C15.1507 18.1286 15.5229 17.9729 15.9117 17.9701H21.4701C22.7696 17.9703 24.0426 17.6033 25.1427 16.9115C26.2427 16.2197 27.1248 15.2311 27.6875 14.0598C27.716 13.9976 27.7618 13.945 27.8194 13.9081C27.8769 13.8712 27.9439 13.8516 28.0122 13.8516C28.1516 13.8516 28.278 13.9328 28.3361 14.0598C28.901 15.228 29.7837 16.2134 30.8831 16.9029C31.9824 17.5923 33.2538 17.9579 34.5515 17.9578H40.1081C40.3028 17.9577 40.4955 17.9961 40.6753 18.0705C40.8551 18.145 41.0184 18.2541 41.156 18.3918C41.2936 18.5294 41.4028 18.6928 41.4772 18.8726C41.5516 19.0524 41.5897 19.2451 41.5897 19.4397Z" fill="#FE5E22"/>
<path d="M41.5899 19.439V31.794C41.5922 39.0924 37.3557 45.7282 30.7335 48.7964L28.6345 49.7689C28.4398 49.8596 28.2277 49.9066 28.013 49.9066C27.7983 49.9066 27.5862 49.8596 27.3916 49.7689L26.6445 49.4262L27.9942 48.7964C34.6168 45.7289 38.8544 39.0931 38.8527 31.794V17.959H40.1122C40.5041 17.9601 40.8797 18.1164 41.1566 18.3938C41.4336 18.6711 41.5894 19.0471 41.5899 19.439Z" fill="#FF8C5F"/>
<path d="M35.569 32.1534C35.569 37.0828 31.5735 41.0786 26.6438 41.0786C26.2569 41.0786 25.8707 41.0538 25.487 41.0056C21.0428 40.4233 17.7188 36.6359 17.7188 32.1534C17.7188 27.6706 21.0428 23.8832 25.487 23.302C25.8705 23.2511 26.2569 23.2256 26.6438 23.2256C31.5735 23.2273 35.569 27.2237 35.569 32.1534Z" fill="#030303"/>
<path d="M36.9384 32.1534C36.9384 37.0828 32.9426 41.0786 28.0131 41.0786C27.6261 41.0786 27.2398 41.0538 26.8561 41.0056C22.412 40.4233 19.0879 36.6359 19.0879 32.1534C19.0879 27.6706 22.412 23.8832 26.8561 23.302C27.2397 23.2511 27.6262 23.2256 28.0131 23.2256C32.9426 23.2273 36.9384 27.2237 36.9384 32.1534Z" fill="white"/>
<path d="M34.7825 32.1542C34.7825 35.8948 31.7504 38.926 28.0104 38.926C24.2699 38.9252 21.2384 35.8931 21.2393 32.1523C21.2401 28.4126 24.273 25.3813 28.013 25.3828C31.7527 25.3828 34.7833 28.4143 34.7825 32.1542Z" fill="#FCC924"/>
<path d="M27.941 37.1973C27.8031 37.1975 27.6665 37.1706 27.539 37.118C27.4115 37.0654 27.2956 36.9882 27.198 36.8909L22.58 32.2729C22.48 32.176 22.4003 32.0602 22.3455 31.9322C22.2907 31.8041 22.2619 31.6665 22.2608 31.5273C22.2597 31.388 22.2862 31.25 22.339 31.1211C22.3917 30.9922 22.4695 30.8751 22.568 30.7766C22.6664 30.6781 22.7834 30.6001 22.9122 30.5473C23.041 30.4944 23.1791 30.4677 23.3183 30.4687C23.4576 30.4697 23.5952 30.4983 23.7233 30.553C23.8514 30.6077 23.9673 30.6873 24.0643 30.7872L27.9452 34.6679L38.2454 24.3678C38.4433 24.1766 38.7084 24.0708 38.9836 24.0733C39.2587 24.0757 39.5219 24.1862 39.7164 24.3808C39.9111 24.5753 40.0215 24.8385 40.024 25.1137C40.0264 25.3888 39.9206 25.6539 39.7294 25.8518L28.6822 36.8909C28.4854 37.087 28.2189 37.1972 27.941 37.1973Z" fill="#A0C882"/>
</g>
<defs>
<linearGradient id="paint0_linear_2800_139566" x1="11.0944" y1="5.13279" x2="54.9528" y2="98.5473" gradientUnits="userSpaceOnUse">
<stop stop-color="#1A5B80"/>
<stop offset="1" stop-color="#7CAB82"/>
</linearGradient>
<clipPath id="clip0_2800_139566">
<rect width="92.9637" height="92.9637" fill="white" transform="translate(14.2578)"/>
</clipPath>
</defs>
</svg>
