<svg width="41" height="41" viewBox="0 0 41 41" fill="none" xmlns="http://www.w3.org/2000/svg">
<path d="M20.5011 41.0002C31.8224 41.0002 41.0002 31.8224 41.0002 20.5011C41.0002 9.17973 31.8224 0.00195312 20.5011 0.00195312C9.17973 0.00195312 0.00195312 9.17973 0.00195312 20.5011C0.00195312 31.8224 9.17973 41.0002 20.5011 41.0002Z" fill="white"/>
<path d="M39.828 13.665H27.1973C27.7459 18.0442 27.7492 22.8694 27.2079 27.254H39.8549C40.6132 25.0831 41.0001 22.7998 40.9991 20.5003C40.9995 18.1024 40.5842 15.803 39.828 13.665Z" fill="#EFECEC"/>
<path d="M27.1978 13.6648H39.8282C39.8265 13.6587 39.8243 13.6527 39.8217 13.6469C37.1983 6.24922 30.4494 0.80647 22.3408 0.0839844C25.479 1.80403 26.3956 7.25362 27.1978 13.6648Z" fill="#429945"/>
<path d="M22.3418 40.915C30.4649 40.1912 37.2232 34.7297 39.8366 27.3122C39.8434 27.2924 39.8492 27.2729 39.8563 27.2539H27.209C26.4131 33.6998 25.4925 39.1878 22.3418 40.915Z" fill="#0B0B0B"/>
<path d="M0 20.5003C0 22.8674 0.406555 25.1387 1.14419 27.254H28.2634C28.8053 22.869 28.8014 18.0442 28.2534 13.665H1.17145C0.415297 15.8031 0 18.1025 0 20.5003Z" fill="#EFEFEF"/>
<path d="M1.17739 13.6471C1.17542 13.6531 1.17326 13.659 1.1709 13.6649H28.2529C27.4502 7.25368 25.4783 1.80418 22.3405 0.0841327C21.7336 0.0303813 21.1199 9.86556e-10 20.4991 9.86556e-10C11.5813 -8.65553e-05 3.99766 5.69541 1.17739 13.6471Z" fill="#49A948"/>
<path d="M28.2638 27.2539H1.14453C1.15137 27.273 1.15777 27.2924 1.16427 27.3122C3.97328 35.2842 11.5678 40.9998 20.4999 40.9998C21.1208 40.9998 21.7345 40.9694 22.3413 40.915C25.4924 39.1879 27.4678 33.6998 28.2638 27.2539Z" fill="#151515"/>
<path d="M0 20.4999C0 29.0332 5.21614 36.3472 12.6331 39.4328V1.56641C5.21614 4.65145 0 11.9655 0 20.4999Z" fill="#E73B36"/>
</svg>
