<svg width="60" height="60" viewBox="0 0 60 60" fill="none" xmlns="http://www.w3.org/2000/svg">
<circle cx="30" cy="30" r="30" fill="#19517E"/>
<g clip-path="url(#clip0_3151_111820)">
<path d="M47.9342 20.5364C47.8727 20.3082 47.7669 20.0943 47.6228 19.907C47.4787 19.7198 47.2991 19.5627 47.0943 19.4448C46.8894 19.3263 46.6631 19.2494 46.4284 19.2185C46.1938 19.1876 45.9553 19.2033 45.7267 19.2647C45.2657 19.3888 44.8729 19.6909 44.6346 20.1045L44.3347 20.6264C44.1977 20.5478 44.0351 20.5263 43.8824 20.5668C43.7296 20.6073 43.599 20.7064 43.5189 20.8426L41.9952 23.4399L41.4733 23.1399C41.4048 23.1003 41.3292 23.0746 41.2507 23.0643C41.1723 23.054 41.0926 23.0593 41.0162 23.0799C40.9398 23.1006 40.8683 23.1361 40.8056 23.1845C40.743 23.2329 40.6905 23.2932 40.6513 23.3619C40.4887 23.6487 40.5877 24.0131 40.8733 24.1778L41.3953 24.4777L36.2961 33.3142L35.0364 36.6798L34.4365 37.8014C34.2645 38.1005 34.1821 38.4427 34.1991 38.7874C34.2161 39.132 34.3318 39.4645 34.5324 39.7452L33.1827 41.4007L32.8048 40.4531C32.7213 40.2461 32.5818 40.0665 32.4018 39.9345C32.2218 39.8025 32.0086 39.7233 31.786 39.7059C31.5635 39.6884 31.3405 39.7333 31.1421 39.8356C30.9437 39.9379 30.7778 40.0935 30.663 40.285L30.4471 40.6509L30.2433 38.2514C30.2205 37.976 30.1034 37.7169 29.9118 37.5179C29.7201 37.3188 29.4657 37.192 29.1914 37.1587C28.9171 37.1256 28.6397 37.1882 28.4062 37.3359C28.1726 37.4836 27.9972 37.7074 27.9096 37.9695L26.4338 42.3967C26.3843 42.5471 26.3963 42.7109 26.4671 42.8525C26.5379 42.9941 26.6618 43.102 26.8118 43.1527C26.8703 43.18 26.9333 43.1962 26.9977 43.2004C27.1235 43.2008 27.2462 43.1616 27.3485 43.0885C27.4508 43.0153 27.5275 42.9119 27.5678 42.7927L29.0373 38.3655L29.2474 40.8009C29.2684 41.0541 29.3692 41.2941 29.5354 41.4863C29.7016 41.6785 29.9245 41.813 30.172 41.8704C30.4195 41.9278 30.6788 41.9052 30.9126 41.8057C31.1464 41.7063 31.3426 41.5352 31.473 41.3171L31.6949 40.9509L32.067 41.893C32.1446 42.0881 32.272 42.2594 32.4366 42.3899C32.6012 42.5203 32.7971 42.6052 33.0048 42.6362C33.2125 42.6671 33.4247 42.643 33.6201 42.5663C33.8156 42.4895 33.9875 42.3628 34.1186 42.1988L35.5164 40.4292C35.6711 40.4696 35.8304 40.4898 35.9903 40.4892C36.3062 40.4916 36.6173 40.4108 36.8921 40.255C37.167 40.0991 37.3959 39.8736 37.556 39.6011L38.1559 38.5993L40.4415 35.8219L45.5946 26.8772L46.1165 27.1772C46.1853 27.2165 46.2457 27.2692 46.2941 27.332C46.3425 27.3949 46.3779 27.4667 46.3983 27.5433C46.4189 27.6195 46.4242 27.699 46.4139 27.7772C46.4037 27.8554 46.3781 27.9308 46.3386 27.9991L43.939 32.1565C43.8942 32.2241 43.8635 32.3 43.8489 32.3798C43.8342 32.4595 43.8359 32.5414 43.8539 32.6204C43.8718 32.6995 43.9056 32.7741 43.9532 32.8397C44.0008 32.9053 44.0612 32.9606 44.1308 33.0022C44.1993 33.0419 44.2749 33.0677 44.3534 33.0781C44.4318 33.0885 44.5116 33.0832 44.588 33.0626C44.6644 33.042 44.736 33.0064 44.7986 32.958C44.8612 32.9096 44.9136 32.8492 44.9527 32.7804L47.3523 28.6231C47.4708 28.4182 47.5477 28.1919 47.5786 27.9572C47.6095 27.7225 47.5937 27.484 47.5322 27.2554C47.4081 26.7944 47.106 26.4017 46.6924 26.1634L46.1705 25.8635L47.6702 23.2659C47.8339 22.9808 47.7375 22.6171 47.4542 22.4501L47.7542 21.9281C47.8759 21.72 47.9546 21.4896 47.9855 21.2505C48.0164 21.0114 47.9989 20.7686 47.9342 20.5364ZM45.6725 20.7044C45.7119 20.6355 45.7645 20.5751 45.8274 20.5268C45.8902 20.4784 45.962 20.4429 46.0386 20.4225C46.1927 20.3844 46.3555 20.4058 46.4944 20.4825C46.5633 20.5219 46.6236 20.5745 46.6721 20.6373C46.7205 20.7001 46.756 20.7718 46.7765 20.8484C46.8146 21.0025 46.7932 21.1652 46.7164 21.3042L46.4165 21.8262L45.3725 21.2263L45.6725 20.7044ZM37.4959 37.4536L37.196 37.2796L36.3081 36.7635L37.16 34.484L39.0496 35.5757L37.4959 37.4536ZM35.6963 39.1871C35.574 39.1019 35.4878 38.9742 35.4545 38.8289C35.4213 38.6836 35.4434 38.5312 35.5164 38.4013L35.8164 37.8795L36.8601 38.4794L36.5601 38.9952C36.5186 39.0673 36.4625 39.13 36.3954 39.1793C36.3283 39.2285 36.2517 39.2633 36.1705 39.2814C36.0892 39.2994 36.0051 39.3004 35.9235 39.2841C35.8418 39.2679 35.7644 39.2348 35.6963 39.1871ZM39.7336 34.5921L37.6579 33.3923L42.4571 25.0775L44.5327 26.2772L39.7336 34.5921ZM45.1326 25.2395L43.057 24.0397L44.2568 21.9641L46.3324 23.1639L45.1326 25.2395ZM21.4665 38.8872L19.3432 41.005L18.0713 39.7331C17.9588 39.6214 17.8068 39.5587 17.6483 39.5587C17.4898 39.5587 17.3378 39.6214 17.2253 39.7331C17.1691 39.7889 17.1245 39.8552 17.094 39.9283C17.0635 40.0014 17.0479 40.0798 17.0479 40.159C17.0479 40.2382 17.0635 40.3166 17.094 40.3897C17.1245 40.4628 17.1691 40.5292 17.2253 40.585L18.4971 41.8567C18.7221 42.08 19.0261 42.2051 19.3431 42.2047C19.6618 42.2065 19.9685 42.0814 20.195 41.8567L22.3125 39.7331C22.4107 39.6183 22.462 39.4707 22.4561 39.3198C22.4502 39.1688 22.3876 39.0256 22.2808 38.9188C22.174 38.812 22.0308 38.7494 21.8799 38.7435C21.7289 38.7377 21.5813 38.789 21.4665 38.8872Z" fill="white"/>
<path d="M14.3994 40.5012C14.3994 43.3176 16.6824 45.6003 19.4985 45.6003C22.3147 45.6003 24.5977 43.3176 24.5977 40.5012C24.5977 40.3421 24.5345 40.1895 24.422 40.077C24.3095 39.9645 24.1569 39.9013 23.9978 39.9013C23.8387 39.9013 23.6861 39.9645 23.5736 40.077C23.4611 40.1895 23.3979 40.3421 23.3979 40.5012C23.3979 42.6547 21.6521 44.4005 19.4985 44.4005C17.345 44.4005 15.5992 42.6547 15.5992 40.5012C15.5992 38.3477 17.345 36.6019 19.4985 36.6019C20.3427 36.5994 21.1644 36.8734 21.8381 37.3818C21.9012 37.4291 21.9729 37.4635 22.0492 37.483C22.1255 37.5026 22.2049 37.5069 22.2829 37.4958C22.3608 37.4846 22.4359 37.4582 22.5036 37.4181C22.5714 37.3779 22.6306 37.3248 22.6778 37.2618C22.7252 37.1988 22.7596 37.1271 22.7792 37.0508C22.7988 36.9744 22.8031 36.895 22.792 36.817C22.7809 36.739 22.7545 36.664 22.7144 36.5962C22.6742 36.5284 22.6211 36.4692 22.5581 36.4219C21.8005 35.8537 20.8997 35.5077 19.9565 35.4226C19.0134 35.3376 18.0652 35.5168 17.2182 35.9403C16.3712 36.3638 15.6588 37.0148 15.161 37.8204C14.6631 38.6259 14.3994 39.5542 14.3994 40.5011V40.5012ZM33.5961 16.8053C33.7552 16.8053 33.9078 16.7421 34.0203 16.6296C34.1328 16.5171 34.196 16.3645 34.196 16.2054C34.196 16.0463 34.1328 15.8937 34.0203 15.7812C33.9078 15.6687 33.7552 15.6055 33.5961 15.6055H17.9988C17.8397 15.6055 17.6871 15.6687 17.5746 15.7812C17.4621 15.8937 17.3989 16.0463 17.3989 16.2054V18.605C17.3989 18.9364 17.6675 19.2049 17.9988 19.2049H33.5961C33.7552 19.2049 33.9078 19.1417 34.0203 19.0291C34.1328 18.9166 34.196 18.7641 34.196 18.605C34.196 18.4459 34.1328 18.2933 34.0203 18.1808C33.9078 18.0683 33.7552 18.0051 33.5961 18.0051H18.5987V16.8053H33.5961ZM19.7985 20.4046C19.6394 20.4046 19.4868 20.4679 19.3743 20.5804C19.2618 20.6929 19.1986 20.8454 19.1986 21.0045C19.1986 21.1636 19.2618 21.3162 19.3743 21.4287C19.4868 21.5412 19.6394 21.6044 19.7985 21.6044H31.7964C31.9555 21.6044 32.1081 21.5412 32.2206 21.4287C32.3331 21.3162 32.3963 21.1636 32.3963 21.0045C32.3963 20.8454 32.3331 20.6929 32.2206 20.5804C32.1081 20.4679 31.9555 20.4046 31.7964 20.4046H19.7985ZM35.3958 24.6039H22.1981C22.039 24.6039 21.8864 24.6671 21.7739 24.7796C21.6614 24.8921 21.5982 25.0447 21.5982 25.2038C21.5982 25.3629 21.6614 25.5155 21.7739 25.628C21.8864 25.7405 22.039 25.8037 22.1981 25.8037H35.3958C35.5549 25.8037 35.7075 25.7405 35.82 25.628C35.9325 25.5155 35.9957 25.3629 35.9957 25.2038C35.9957 25.0447 35.9325 24.8921 35.82 24.7796C35.7075 24.6671 35.5549 24.6039 35.3958 24.6039ZM29.3969 28.8032C29.3969 28.6441 29.3336 28.4915 29.2211 28.379C29.1086 28.2665 28.9561 28.2033 28.797 28.2033H16.799C16.6399 28.2033 16.4873 28.2665 16.3748 28.379C16.2623 28.4915 16.1991 28.6441 16.1991 28.8032C16.1991 28.9623 16.2623 29.1149 16.3748 29.2274C16.4873 29.3399 16.6399 29.4031 16.799 29.4031H28.797C29.1282 29.4031 29.3969 29.1347 29.3969 28.8032ZM35.3958 28.2033H31.1965C31.0374 28.2033 30.8849 28.2665 30.7724 28.379C30.6598 28.4915 30.5966 28.6441 30.5966 28.8032C30.5966 28.9623 30.6598 29.1149 30.7724 29.2274C30.8849 29.3399 31.0374 29.4031 31.1965 29.4031H35.3958C35.5549 29.4031 35.7075 29.3399 35.82 29.2274C35.9325 29.1149 35.9957 28.9623 35.9957 28.8032C35.9957 28.6441 35.9325 28.4915 35.82 28.379C35.7075 28.2665 35.5549 28.2033 35.3958 28.2033ZM22.798 32.4026C22.9571 32.4026 23.1097 32.3394 23.2222 32.2269C23.3347 32.1144 23.3979 31.9618 23.3979 31.8027C23.3979 31.6436 23.3347 31.491 23.2222 31.3785C23.1097 31.266 22.9571 31.2028 22.798 31.2028H16.799C16.6399 31.2028 16.4873 31.266 16.3748 31.3785C16.2623 31.491 16.1991 31.6436 16.1991 31.8027C16.1991 31.9618 16.2623 32.1144 16.3748 32.2269C16.4873 32.3394 16.6399 32.4026 16.799 32.4026H22.798ZM25.1976 32.4026H29.3969C29.556 32.4026 29.7085 32.3394 29.821 32.2269C29.9335 32.1144 29.9967 31.9618 29.9967 31.8027C29.9967 31.6436 29.9335 31.491 29.821 31.3785C29.7085 31.266 29.556 31.2028 29.3969 31.2028H25.1976C25.0385 31.2028 24.8859 31.266 24.7734 31.3785C24.6609 31.491 24.5977 31.6436 24.5977 31.8027C24.5977 31.9618 24.6609 32.1144 24.7734 32.2269C24.8859 32.3394 25.0385 32.4026 25.1976 32.4026Z" fill="white"/>
<path d="M38.9954 39.6011C38.8363 39.6011 38.6837 39.6643 38.5712 39.7768C38.4587 39.8893 38.3955 40.0419 38.3955 40.201V46.2C38.3955 46.5315 38.1269 46.7999 37.7956 46.7999H13.7997C13.4684 46.7999 13.1998 46.5315 13.1998 46.2V13.8056C13.1998 13.6464 13.263 13.4939 13.3755 13.3814C13.488 13.2689 13.6406 13.2057 13.7997 13.2057H37.7956C37.9547 13.2057 38.1073 13.2689 38.2198 13.3814C38.3323 13.4939 38.3955 13.6464 38.3955 13.8056V25.0716C38.3955 25.2307 38.4587 25.3833 38.5712 25.4958C38.6837 25.6083 38.8363 25.6715 38.9954 25.6715C39.1545 25.6715 39.3071 25.6083 39.4196 25.4958C39.5321 25.3833 39.5953 25.2307 39.5953 25.0716V13.8056C39.5953 12.8117 38.7895 12.0059 37.7956 12.0059H13.7997C12.8058 12.0059 12 12.8117 12 13.8056V46.2C12 47.1942 12.8058 47.9997 13.7997 47.9997H37.7956C38.7895 47.9997 39.5953 47.1942 39.5953 46.2V40.201C39.5953 40.0419 39.5321 39.8893 39.4196 39.7768C39.3071 39.6643 39.1545 39.6011 38.9954 39.6011Z" fill="white"/>
</g>
<defs>
<clipPath id="clip0_3151_111820">
<rect width="36" height="36" fill="white" transform="translate(12 12)"/>
</clipPath>
</defs>
</svg>
