<svg width="60" height="60" viewBox="0 0 60 60" fill="none" xmlns="http://www.w3.org/2000/svg">
<circle cx="30" cy="30" r="30" fill="#19517E"/>
<g clip-path="url(#clip0_3151_111547)">
<path d="M30 12H22.2C22.0409 12 21.8883 12.0632 21.7757 12.1757C21.6632 12.2883 21.6 12.4409 21.6 12.6V16.8H12.6C12.4409 16.8 12.2883 16.8632 12.1757 16.9757C12.0632 17.0883 12 17.2409 12 17.4V47.4C12 47.5591 12.0632 47.7117 12.1757 47.8243C12.2883 47.9368 12.4409 48 12.6 48H30C30.1591 48 30.3117 47.9368 30.4243 47.8243C30.5368 47.7117 30.6 47.5591 30.6 47.4V12.6C30.6 12.4409 30.5368 12.2883 30.4243 12.1757C30.3117 12.0632 30.1591 12 30 12ZM29.4 43.2H22.8V42H29.4V43.2ZM13.2 21H21.6V39H13.2V21ZM29.4 18.6H22.8V16.8H29.4V18.6ZM13.2 40.2H21.6V42H13.2V40.2ZM22.8 40.8V19.8H29.4V40.8H22.8ZM29.4 13.2V15.6H22.8V13.2H29.4ZM21.6 18V19.8H13.2V18H21.6ZM13.2 43.2H21.6V46.8H13.2V43.2ZM22.8 46.8V44.4H29.4V46.8H22.8Z" fill="white"/>
<path d="M47.981 44.8485L40.781 17.2485C40.7612 17.172 40.7263 17.1001 40.6785 17.037C40.6307 16.974 40.5709 16.921 40.5026 16.8812C40.4342 16.8414 40.3586 16.8155 40.2802 16.8051C40.2018 16.7946 40.1221 16.7998 40.0457 16.8203L31.0457 19.2203C30.8925 19.2611 30.7618 19.3608 30.6819 19.4977C30.6021 19.6346 30.5797 19.7976 30.6197 19.9509L37.8197 47.5509C37.8396 47.6275 37.8744 47.6993 37.9222 47.7623C37.9701 47.8253 38.0299 47.8782 38.0983 47.9179C38.1667 47.9576 38.2422 47.9834 38.3206 47.9937C38.399 48.004 38.4787 47.9987 38.555 47.9781L47.555 45.5781C47.7079 45.5372 47.8384 45.4376 47.9182 45.301C47.998 45.1644 48.0206 45.0017 47.981 44.8485ZM32.8876 23.8905L40.7283 21.8001L41.0105 22.88L33.1703 24.9735L32.8876 23.8905ZM41.3134 24.0442L44.7932 37.3928L36.9554 39.484L33.4756 26.1346L41.3134 24.0442ZM45.0988 38.5545L45.7132 40.909L37.8725 42.9993L37.2605 40.6456L45.0988 38.5545ZM39.7721 18.1347L40.4254 20.6397L32.5847 22.7294L31.9319 20.2257L39.7721 18.1347ZM38.8288 46.6646L38.1754 44.1598L46.0161 42.0688L46.6688 44.5726L38.8288 46.6646ZM19.8004 22.7997H15.0004C14.8413 22.7997 14.6886 22.863 14.5761 22.9755C14.4636 23.088 14.4004 23.2406 14.4004 23.3997V28.1997C14.4004 28.3589 14.4636 28.5115 14.5761 28.624C14.6886 28.7365 14.8413 28.7997 15.0004 28.7997H19.8004C19.9595 28.7997 20.1121 28.7365 20.2247 28.624C20.3372 28.5115 20.4004 28.3589 20.4004 28.1997V23.3997C20.4004 23.2406 20.3372 23.088 20.2247 22.9755C20.1121 22.863 19.9595 22.7997 19.8004 22.7997ZM19.2004 27.5997H15.6004V23.9997H19.2004V27.5997Z" fill="white"/>
</g>
<defs>
<clipPath id="clip0_3151_111547">
<rect width="36" height="36" fill="white" transform="translate(12 12)"/>
</clipPath>
</defs>
</svg>
