<svg width="60" height="60" viewBox="0 0 60 60" fill="none" xmlns="http://www.w3.org/2000/svg">
<circle cx="30" cy="30" r="30" fill="#19517E"/>
<path fill-rule="evenodd" clip-rule="evenodd" d="M31.6011 38.1546C31.601 38.2286 31.5863 38.3019 31.5578 38.3703C31.5294 38.4386 31.4877 38.5007 31.4352 38.5529C31.3828 38.6052 31.3205 38.6466 31.2521 38.6747C31.1836 38.7029 31.1102 38.7173 31.0362 38.7171H22.1777C22.0285 38.7171 21.8854 38.6578 21.7799 38.5523C21.6744 38.4468 21.6152 38.3038 21.6152 38.1546C21.6152 38.0054 21.6744 37.8623 21.7799 37.7568C21.8854 37.6514 22.0285 37.5921 22.1777 37.5921H31.0362C31.1102 37.5919 31.1836 37.6063 31.2521 37.6344C31.3205 37.6626 31.3828 37.704 31.4352 37.7562C31.4877 37.8085 31.5294 37.8706 31.5578 37.9389C31.5863 38.0073 31.601 38.0805 31.6011 38.1546ZM31.6011 33.3643C31.6007 33.5138 31.541 33.657 31.4351 33.7625C31.3292 33.868 31.1857 33.9271 31.0362 33.9268H22.1777C22.0285 33.9268 21.8854 33.8675 21.7799 33.762C21.6744 33.6565 21.6152 33.5135 21.6152 33.3643C21.6152 33.2151 21.6744 33.072 21.7799 32.9665C21.8854 32.861 22.0285 32.8018 22.1777 32.8018H31.0362C31.1102 32.8016 31.1836 32.816 31.252 32.8442C31.3205 32.8724 31.3827 32.9137 31.4352 32.966C31.4876 33.0182 31.5293 33.0803 31.5578 33.1486C31.5862 33.217 31.6009 33.2902 31.6011 33.3643ZM31.6011 35.759C31.601 35.833 31.5863 35.9063 31.5578 35.9747C31.5294 36.043 31.4877 36.1051 31.4352 36.1573C31.3828 36.2096 31.3205 36.2509 31.2521 36.2791C31.1836 36.3073 31.1102 36.3217 31.0362 36.3215H22.1777C22.0285 36.3215 21.8854 36.2622 21.7799 36.1567C21.6744 36.0512 21.6152 35.9082 21.6152 35.759C21.6152 35.6098 21.6744 35.4667 21.7799 35.3612C21.8854 35.2557 22.0285 35.1965 22.1777 35.1965H31.0362C31.1102 35.1963 31.1836 35.2106 31.2521 35.2388C31.3205 35.267 31.3828 35.3084 31.4353 35.3606C31.4877 35.4128 31.5294 35.4749 31.5578 35.5433C31.5863 35.6116 31.601 35.6849 31.6011 35.759ZM22.1777 31.5589H24.5501C24.6992 31.5587 24.842 31.4993 24.9473 31.3939C25.0526 31.2884 25.1117 31.1454 25.1117 30.9964V26.9544C25.1117 26.8053 25.0526 26.6624 24.9473 26.5569C24.842 26.4515 24.6992 26.3921 24.5501 26.3919H22.1777C22.1038 26.3917 22.0306 26.4062 21.9624 26.4344C21.8941 26.4627 21.8321 26.5041 21.78 26.5564C21.7278 26.6086 21.6864 26.6707 21.6583 26.739C21.6302 26.8073 21.6159 26.8805 21.6161 26.9544V30.9965C21.6159 31.0704 21.6302 31.1435 21.6583 31.2118C21.6865 31.2801 21.7278 31.3422 21.78 31.3945C21.8322 31.4467 21.8941 31.4882 21.9624 31.5164C22.0306 31.5447 22.1038 31.5591 22.1777 31.559V31.5589ZM28.6904 31.5589C28.8394 31.5587 28.9822 31.4993 29.0875 31.3938C29.1927 31.2884 29.2519 31.1454 29.2519 30.9964V24.7878C29.2519 24.6388 29.1927 24.4959 29.0875 24.3904C28.9822 24.285 28.8394 24.2256 28.6904 24.2253H26.3179C26.244 24.2252 26.1709 24.2397 26.1026 24.2679C26.0344 24.2962 25.9724 24.3376 25.9202 24.3899C25.868 24.4422 25.8267 24.5042 25.7985 24.5725C25.7704 24.6408 25.7561 24.714 25.7563 24.7878V30.9964C25.756 31.0703 25.7704 31.1435 25.7985 31.2118C25.8266 31.2801 25.8679 31.3422 25.9201 31.3944C25.9723 31.4467 26.0343 31.4881 26.1026 31.5164C26.1708 31.5446 26.244 31.5591 26.3179 31.5589H28.6904ZM34.0367 20.4558V30.9965C34.0367 31.1455 34.0958 31.2884 34.2011 31.3939C34.3064 31.4994 34.4492 31.5587 34.5982 31.559H36.9707C37.0446 31.5591 37.1177 31.5447 37.186 31.5164C37.2542 31.4882 37.3162 31.4467 37.3684 31.3945C37.4206 31.3422 37.4619 31.2801 37.49 31.2118C37.5181 31.1435 37.5325 31.0704 37.5322 30.9965V20.4558C37.5325 20.382 37.5181 20.3088 37.49 20.2405C37.4618 20.1722 37.4205 20.1102 37.3683 20.0579C37.3162 20.0056 37.2542 19.9642 37.1859 19.9359C37.1177 19.9077 37.0446 19.8932 36.9707 19.8933H34.5984C34.4494 19.8936 34.3066 19.9529 34.2013 20.0584C34.096 20.1639 34.0369 20.3068 34.0369 20.4558H34.0367ZM32.8305 22.0596H30.458C30.309 22.0598 30.1662 22.1192 30.0609 22.2247C29.9556 22.3301 29.8965 22.473 29.8965 22.6221V30.9963C29.8965 31.1453 29.9556 31.2882 30.0609 31.3937C30.1662 31.4991 30.309 31.5585 30.458 31.5588H32.8305C32.9795 31.5585 33.1224 31.4992 33.2277 31.3937C33.3329 31.2882 33.3921 31.1453 33.3921 30.9963V22.6221C33.3921 22.473 33.3329 22.3301 33.2277 22.2246C33.1224 22.1192 32.9795 22.0598 32.8305 22.0596ZM33.4253 18.3682L33.6214 17.7951L23.6829 23.5207C23.5982 23.5703 23.5019 23.5964 23.4038 23.5963C23.2798 23.5966 23.1593 23.5559 23.0609 23.4806C22.9624 23.4053 22.8916 23.2996 22.8594 23.18C22.8272 23.0603 22.8354 22.9334 22.8828 22.8188C22.9302 22.7043 23.014 22.6087 23.1213 22.5467L33.0565 16.8209L32.4617 16.7032C32.3892 16.6888 32.3203 16.6602 32.2588 16.6192C32.1974 16.5781 32.1446 16.5254 32.1035 16.464C32.0625 16.4025 32.0339 16.3336 32.0195 16.2611C32.005 16.1886 32.005 16.114 32.0194 16.0416C32.0338 15.9691 32.0623 15.9001 32.1034 15.8387C32.1444 15.7772 32.1972 15.7244 32.2586 15.6834C32.32 15.6423 32.389 15.6137 32.4614 15.5993C32.5339 15.5849 32.6085 15.5849 32.681 15.5993L34.7478 16.0081C34.8264 16.0239 34.9009 16.0562 34.9661 16.1029C35.0314 16.1495 35.0861 16.2095 35.1266 16.2788C35.1659 16.3484 35.1904 16.4254 35.1984 16.505C35.2065 16.5845 35.1978 16.6649 35.1731 16.741L34.4919 18.7308C34.4436 18.8719 34.3413 18.9881 34.2074 19.0539C34.0735 19.1196 33.919 19.1296 33.7778 19.0816C33.6366 19.0336 33.5202 18.9316 33.4541 18.7979C33.388 18.6642 33.3776 18.5097 33.4253 18.3684V18.3682ZM47.5641 27.8219C47.7981 27.5875 47.9296 27.2698 47.9296 26.9386C47.9296 26.6073 47.7981 26.2896 47.5641 26.0553L46.3945 24.8896C46.1599 24.6556 45.842 24.5242 45.5106 24.5242C45.1792 24.5242 44.8614 24.6556 44.6268 24.8896L42.015 27.4962V16.7655C42.013 15.9359 41.6819 15.141 41.0945 14.5551C40.5071 13.9693 39.7113 13.6404 38.8817 13.6406H15.1301C14.301 13.6411 13.5059 13.9703 12.9191 14.5561C12.3324 15.1419 12.0018 15.9364 12 16.7655V19.4789C12.0001 19.6279 12.0593 19.7707 12.1645 19.8762C12.2698 19.9816 12.4125 20.041 12.5615 20.0414H17.1337V43.2354C17.1355 44.0645 17.4661 44.859 18.0528 45.4448C18.6396 46.0305 19.4347 46.3596 20.2638 46.36H42.6394C43.469 46.3603 44.2648 46.0315 44.8523 45.4457C45.4397 44.86 45.7708 44.065 45.7728 43.2354V40.5221C45.7727 40.448 45.7579 40.3748 45.7295 40.3064C45.701 40.2381 45.6594 40.176 45.6069 40.1238C45.5545 40.0715 45.4922 40.0301 45.4237 40.002C45.3553 39.9738 45.2819 39.9594 45.2079 39.9596H42.0146V33.3606L47.5641 27.8219ZM40.8849 39.9597H22.8323C22.6832 39.9599 22.5404 40.0193 22.4351 40.1247C22.3298 40.2302 22.2707 40.3731 22.2707 40.5222V43.2355C22.2675 43.7653 22.0549 44.2723 21.6792 44.6458C21.3035 45.0193 20.7952 45.2289 20.2654 45.2289C19.7356 45.2289 19.2274 45.0193 18.8516 44.6458C18.4759 44.2723 18.2633 43.7653 18.2601 43.2355V16.7655C18.2609 16.0345 18.0045 15.3265 17.5359 14.7655H38.8813C39.4122 14.7653 39.9214 14.9758 40.2971 15.3508C40.6729 15.7258 40.8844 16.2347 40.8852 16.7655V28.6211L34.5517 34.9433C34.4931 35.0018 34.4477 35.0722 34.4188 35.1499L33.5016 37.6913C33.4497 37.8366 33.4334 37.9922 33.4541 38.145C33.4747 38.2979 33.5316 38.4436 33.6201 38.57C33.7086 38.6963 33.8261 38.7996 33.9627 38.8712C34.0993 38.9429 34.2511 38.9807 34.4054 38.9817C34.5187 38.9814 34.6311 38.9615 34.7377 38.923L37.283 38.0071C37.3605 37.9789 37.4309 37.934 37.489 37.8754L40.8851 34.4855L40.8849 39.9597ZM37.0903 36.6835L35.748 35.3421L43.9219 27.1815L45.2677 28.5225L37.0903 36.6835Z" fill="white"/>
</svg>
