<svg width="34" height="34" viewBox="0 0 34 34" fill="none" xmlns="http://www.w3.org/2000/svg">
<path d="M18.1426 1.85968C9.8551 1.91281 3.10822 8.71281 3.08166 17.0003C3.08166 19.6566 3.77228 22.18 4.99416 24.3316C4.64885 25.1019 4.19728 25.8456 3.61291 26.5362C3.24103 26.9347 2.81603 27.3331 2.31135 27.6784C1.83322 28.0237 1.30197 28.2894 0.744158 28.5284C0.55822 28.6081 0.66447 28.7144 0.77072 28.7675C0.956658 28.8472 1.1426 28.9534 1.3551 29.0331C1.75353 29.1925 2.15197 29.3253 2.55041 29.4316C3.24103 29.6441 4.01135 29.7237 4.7551 29.7503C5.52541 29.7769 6.32228 29.6972 7.0926 29.5909C7.78322 29.4581 8.44728 29.3253 9.11135 29.1128C11.6348 31.0253 14.8223 32.1675 18.2488 32.1675C26.616 32.1675 33.3895 25.3941 33.3895 17.0269C33.3895 8.60656 26.5363 1.80656 18.1426 1.85968ZM18.1692 25.7659C17.3192 25.7659 16.602 25.0487 16.602 24.1987C16.602 23.3222 17.3192 22.6316 18.1692 22.6316C19.0457 22.605 19.7363 23.2956 19.7629 24.1722C19.7629 25.0487 19.0988 25.7659 18.1692 25.7659ZM20.9317 17.2394C20.4004 17.7175 19.7895 18.1691 19.7363 18.9659C19.6832 19.5503 19.6567 20.1347 19.6567 20.7191C19.6832 21.0378 19.5504 21.1441 19.2317 21.1175C18.8598 21.0909 18.4879 21.1175 18.1426 21.1175C17.7442 21.1175 17.3192 21.1175 16.9207 21.1175C16.7082 21.1175 16.602 21.0378 16.602 20.7987C16.5754 19.6566 16.5488 18.1425 17.0535 17.1066C17.6645 15.7519 19.152 15.3269 20.002 14.1581C22.127 11.2628 16.7879 9.32375 15.6988 12.9097C15.5395 13.4409 15.5129 13.4409 14.9551 13.3612C14.2645 13.2816 13.5738 13.1753 12.8832 13.0956C12.6176 13.0691 12.5113 12.9628 12.5379 12.6972C12.9629 8.18156 19.3379 6.88 22.4192 9.58937C23.3488 10.3862 23.9598 11.5816 23.9598 12.8034C23.9332 14.7691 22.2067 16.0706 20.9317 17.2394Z" fill="url(#paint0_linear_2433_92142)"/>
<defs>
<linearGradient id="paint0_linear_2433_92142" x1="7.3498" y1="-42.6561" x2="89.53" y2="-25.8088" gradientUnits="userSpaceOnUse">
<stop offset="0.006561" stop-color="#F7A518"/>
<stop offset="0.7894" stop-color="#7F3C00"/>
</linearGradient>
</defs>
</svg>
