<svg width="33" height="33" viewBox="0 0 33 33" fill="none" xmlns="http://www.w3.org/2000/svg">
<path d="M23.7188 0.773438H18.5625C18.1353 0.773438 17.7891 1.11972 17.7891 1.54688V3.09375C17.7891 3.52091 18.1353 3.86719 18.5625 3.86719H23.7188C24.1459 3.86719 24.4922 3.52091 24.4922 3.09375V1.54688C24.4922 1.11972 24.1459 0.773438 23.7188 0.773438Z" fill="url(#paint0_linear_2433_92123)"/>
<path d="M8.76562 12.1172H3.60938C3.40425 12.1172 3.20752 12.1987 3.06247 12.3437C2.91742 12.4888 2.83594 12.6855 2.83594 12.8906C2.83594 13.0958 2.91742 13.2925 3.06247 13.4375C3.20752 13.5826 3.40425 13.6641 3.60938 13.6641H8.76562C8.97075 13.6641 9.16748 13.5826 9.31253 13.4375C9.45757 13.2925 9.53906 13.0958 9.53906 12.8906C9.53906 12.6855 9.45757 12.4888 9.31253 12.3437C9.16748 12.1987 8.97075 12.1172 8.76562 12.1172ZM8.50781 19.0781C8.50781 18.873 8.42632 18.6763 8.28128 18.5312C8.13623 18.3862 7.9395 18.3047 7.73438 18.3047H2.57812C2.373 18.3047 2.17627 18.3862 2.03122 18.5312C1.88617 18.6763 1.80469 18.873 1.80469 19.0781C1.80469 19.2833 1.88617 19.48 2.03122 19.625C2.17627 19.7701 2.373 19.8516 2.57812 19.8516H7.73438C7.9395 19.8516 8.13623 19.7701 8.28128 19.625C8.42632 19.48 8.50781 19.2833 8.50781 19.0781ZM8.25 21.3984H4.64062C4.4355 21.3984 4.23877 21.4799 4.09372 21.625C3.94867 21.77 3.86719 21.9667 3.86719 22.1719C3.86719 22.377 3.94867 22.5737 4.09372 22.7188C4.23877 22.8638 4.4355 22.9453 4.64062 22.9453H8.25C8.45513 22.9453 8.65185 22.8638 8.7969 22.7188C8.94195 22.5737 9.02344 22.377 9.02344 22.1719C9.02344 21.9667 8.94195 21.77 8.7969 21.625C8.65185 21.4799 8.45513 21.3984 8.25 21.3984ZM8.50781 15.9844C8.50781 15.7792 8.42632 15.5825 8.28128 15.4375C8.13623 15.2924 7.9395 15.2109 7.73438 15.2109H1.03125C0.826122 15.2109 0.629395 15.2924 0.484347 15.4375C0.339299 15.5825 0.257813 15.7792 0.257812 15.9844C0.257813 16.1895 0.339299 16.3862 0.484347 16.5313C0.629395 16.6763 0.826122 16.7578 1.03125 16.7578H7.73438C7.9395 16.7578 8.13623 16.6763 8.28128 16.5313C8.42632 16.3862 8.50781 16.1895 8.50781 15.9844ZM21.1406 17.5312V8.76562C16.3072 8.76562 12.375 12.6978 12.375 17.5312C12.375 22.3647 16.3072 26.2969 21.1406 26.2969C25.974 26.2969 29.9062 22.3647 29.9062 17.5312H21.1406Z" fill="url(#paint1_linear_2433_92123)"/>
<path d="M29.6238 9.62627L30.4531 8.79689C30.5259 8.72528 30.5838 8.63997 30.6235 8.54589C30.6631 8.4518 30.6837 8.35079 30.6841 8.2487C30.6846 8.1466 30.6648 8.04543 30.6259 7.95102C30.587 7.85661 30.5298 7.77084 30.4576 7.69864C30.3854 7.62645 30.2996 7.56926 30.2052 7.53038C30.1108 7.4915 30.0097 7.4717 29.9076 7.47212C29.8055 7.47253 29.7045 7.49316 29.6104 7.5328C29.5163 7.57245 29.431 7.63033 29.3594 7.70312L28.4962 8.56621C26.8339 7.19686 24.822 6.31938 22.6875 6.03281V4.64062H19.5938V6.03281C17.4593 6.31927 15.4474 7.19661 13.785 8.56582L12.9219 7.70273C12.8503 7.62995 12.765 7.57206 12.6709 7.53242C12.5768 7.49277 12.4758 7.47214 12.3737 7.47173C12.2716 7.47131 12.1704 7.49112 12.076 7.53C11.9816 7.56887 11.8958 7.62606 11.8236 7.69826C11.7515 7.77045 11.6943 7.85623 11.6554 7.95063C11.6165 8.04504 11.5967 8.14621 11.5971 8.24831C11.5975 8.35041 11.6182 8.45141 11.6578 8.5455C11.6975 8.63959 11.7553 8.72489 11.8281 8.7965L12.6574 9.62588C10.6518 11.7694 9.53692 14.5957 9.53907 17.5312C9.53907 23.9284 14.7435 29.1328 21.1406 29.1328C27.5377 29.1328 32.7422 23.9284 32.7422 17.5312C32.7442 14.5959 31.6294 11.7697 29.6238 9.62627ZM21.1406 27.0703C19.254 27.0703 17.4097 26.5109 15.841 25.4627C14.2723 24.4145 13.0497 22.9247 12.3277 21.1817C11.6057 19.4387 11.4168 17.5207 11.7849 15.6703C12.1529 13.8199 13.0614 12.1202 14.3955 10.7861C15.7296 9.45205 17.4293 8.54354 19.2796 8.17548C21.13 7.80741 23.048 7.99632 24.7911 8.71831C26.5341 9.44029 28.0239 10.6629 29.0721 12.2316C30.1202 13.8003 30.6797 15.6446 30.6797 17.5312C30.6797 18.7839 30.433 20.0244 29.9536 21.1817C29.4742 22.339 28.7715 23.3906 27.8858 24.2764C27 25.1622 25.9484 25.8648 24.7911 26.3442C23.6337 26.8236 22.3933 27.0703 21.1406 27.0703Z" fill="url(#paint2_linear_2433_92123)"/>
<defs>
<linearGradient id="paint0_linear_2433_92123" x1="25.0763" y1="-6.35613" x2="10.8154" y2="-2.13216" gradientUnits="userSpaceOnUse">
<stop offset="0.006561" stop-color="#186AF7"/>
<stop offset="0.7894" stop-color="#00437F"/>
</linearGradient>
<linearGradient id="paint1_linear_2433_92123" x1="32.4897" y1="-31.6353" x2="-32.6399" y2="-16.5779" gradientUnits="userSpaceOnUse">
<stop offset="0.006561" stop-color="#186AF7"/>
<stop offset="0.7894" stop-color="#00437F"/>
</linearGradient>
<linearGradient id="paint2_linear_2433_92123" x1="34.764" y1="-51.8018" x2="-18.0456" y2="-44.9625" gradientUnits="userSpaceOnUse">
<stop offset="0.006561" stop-color="#186AF7"/>
<stop offset="0.7894" stop-color="#00437F"/>
</linearGradient>
</defs>
</svg>
