<svg width="22" height="22" viewBox="0 0 22 22" fill="none" xmlns="http://www.w3.org/2000/svg">
<path d="M15.1263 0C11.841 0 9.16797 2.673 9.16797 5.95833C9.16797 9.24367 11.841 11.9167 15.1263 11.9167C18.4116 11.9167 21.0846 9.24367 21.0846 5.95833C21.0846 2.673 18.4116 0 15.1263 0ZM17.1494 7.98142C17.0643 8.06662 16.9633 8.13421 16.8521 8.18033C16.7409 8.22645 16.6217 8.25018 16.5013 8.25018C16.3809 8.25018 16.2617 8.22645 16.1505 8.18033C16.0393 8.13421 15.9383 8.06662 15.8532 7.98142L14.4782 6.60642C14.393 6.52141 14.3254 6.42039 14.2793 6.30917C14.2332 6.19795 14.2095 6.07872 14.2096 5.95833V3.66667C14.2096 3.42355 14.3062 3.19039 14.4781 3.01849C14.65 2.84658 14.8832 2.75 15.1263 2.75C15.3694 2.75 15.6026 2.84658 15.7745 3.01849C15.9464 3.19039 16.043 3.42355 16.043 3.66667V5.57883L17.1494 6.68525C17.2346 6.77031 17.3022 6.87133 17.3483 6.98253C17.3944 7.09374 17.4182 7.21294 17.4182 7.33333C17.4182 7.45372 17.3944 7.57293 17.3483 7.68413C17.3022 7.79534 17.2346 7.89636 17.1494 7.98142Z" fill="white"/>
<path d="M17.418 13.4108C16.6938 13.6308 15.9238 13.75 15.1263 13.75C10.8271 13.75 7.33464 10.2575 7.33464 5.95833C7.33464 3.575 8.40714 1.43 10.103 0H3.66797C2.15547 0 0.917969 1.2375 0.917969 2.75V16.0417C0.917969 16.94 2.14539 18.3333 3.66797 18.3333H6.41797V21.3125C6.41797 21.9102 7.13114 22.2191 7.5638 21.8258L9.16797 20.3958L10.7721 21.8258C11.1901 22.2136 11.918 21.9203 11.918 21.3125V18.3333H16.5013C17.0055 18.3333 17.418 17.9208 17.418 17.4167V13.4108ZM6.41797 16.5H3.66797C3.1638 16.5 2.7513 16.0875 2.7513 15.5833C2.7513 15.0792 3.1638 14.6667 3.66797 14.6667H6.41797V16.5ZM15.5846 16.5H11.918V14.6667H15.5846V16.5Z" fill="white"/>
</svg>
