<svg width="100" height="100" viewBox="0 0 100 100" fill="none" xmlns="http://www.w3.org/2000/svg">
<path d="M87.9336 49.0793C87.9336 50.8793 86.4789 52.3339 84.679 52.3339C82.8608 52.3339 81.4062 50.8793 81.4062 49.0793C81.4062 47.2612 82.8608 45.8066 84.679 45.8066C86.4789 45.8066 87.9336 47.2612 87.9336 49.0793Z" fill="#F7CC6D"/>
<path d="M85.9658 46.0723C85.9658 48.3316 84.1343 50.1631 81.875 50.1631H81.6055C82.15 51.6952 83.7873 52.709 85.592 52.217C86.6406 51.9311 87.5025 51.0872 87.8033 50.0427C88.3046 48.3025 87.3996 46.6903 85.9658 46.0723Z" fill="#F4BC5F"/>
<path d="M76.0803 38.4607V75.9334C76.0803 78.2426 74.1893 80.1334 71.8803 80.1334H14.0984C11.7894 80.1334 9.89844 78.2426 9.89844 75.9334V38.4607C9.89844 36.1335 11.7894 34.2607 14.0984 34.2607H71.8803C74.1893 34.2607 76.0803 36.1335 76.0803 38.4607Z" fill="#626681"/>
<path d="M76.0842 38.4549V75.9277C76.0842 78.2549 74.1932 80.1277 71.8842 80.1277H14.1023C11.7932 80.1277 9.90234 78.2549 9.90234 75.9277V65.2368H19.1387C27.6842 65.2368 35.4296 61.764 41.0478 56.1641C46.6478 50.564 50.1205 42.8186 50.1205 34.2549H71.8842C74.1932 34.2549 76.0842 36.1277 76.0842 38.4549Z" fill="#4D5471"/>
<path d="M76.0826 38.4549V46.964C74.8826 47.164 72.3372 46.4185 69.428 45.2004L64.5371 34.2549H71.8826C74.1916 34.2549 76.0826 36.1277 76.0826 38.4549Z" fill="#41485E"/>
<path d="M72.8559 37.4785H13.125V76.9094H72.8559V37.4785Z" fill="#E7E7E7"/>
<path d="M72.852 37.4727H13.1211V76.9181H72.852V37.4727Z" fill="#63AFFA"/>
<path d="M56.5247 37.4727L13.1211 74.1545V37.4727H56.5247Z" fill="#82C8FB"/>
<path d="M67.2971 72.1852C65.5996 72.1852 64.2227 70.8091 64.2227 69.1117V52.8137C64.2227 51.1163 65.5996 49.7402 67.2971 49.7402C68.9945 49.7402 70.3714 51.1163 70.3714 52.8137V69.1117C70.3714 70.8091 68.9945 72.1852 67.2971 72.1852Z" fill="#82C8FB"/>
<path d="M8.40129 79.2539C7.49234 79.2539 6.84175 80.267 7.10645 81.2703L7.59589 83.1253C7.627 83.2568 7.65801 83.3882 7.70466 83.5199L7.72022 83.6185H7.73567C8.01543 84.4078 8.45043 84.9998 9.04087 84.9998H77.0796C77.7944 84.9998 78.2916 84.1776 78.5402 83.0924H78.5713L79.0553 81.2739C79.3225 80.2699 78.6717 79.2539 77.7614 79.2539H8.40129Z" fill="#E7E7E7"/>
<path d="M7.43164 82.5029L7.59587 83.1252C7.62694 83.2567 7.65791 83.3881 7.70463 83.5198L7.72016 83.6184H7.73559C8.01536 84.4077 8.45038 84.9997 9.04078 84.9997H77.0796C77.7944 84.9997 78.2916 84.1775 78.5402 83.0922H78.5712L78.7281 82.5029H7.43164Z" fill="#D5D3D4"/>
<path d="M84.083 30.4213L76.76 44.8052C76.27 45.7677 73.1431 44.9618 69.4276 43.414C62.9403 40.6845 54.6289 35.6833 55.4963 33.9796L62.8193 19.5957L84.083 30.4213Z" fill="#626681"/>
<path d="M83.3089 31.9428L76.7606 44.8051C76.2706 45.7675 73.1437 44.9616 69.4282 43.4138L60.668 23.8223L81.6447 30.1293L83.3089 31.9428Z" fill="#4D5471"/>
<path d="M91.9412 36.2906L69.727 32.3447C69.5634 32.3169 69.4047 32.2361 69.286 32.1201C56.2203 19.5513 86.1555 48.3483 53.0262 16.4785C52.4151 15.8898 52.936 14.8667 53.7716 15.0144L75.9858 18.9603C76.1494 18.9881 76.3081 19.0689 76.4268 19.1848L92.6866 34.8264C93.2976 35.4152 92.7767 36.4383 91.9412 36.2906Z" fill="#6C728C"/>
<path d="M92.6839 34.8286L80.7215 23.3191C80.3362 22.9485 79.7024 23.0552 79.4599 23.5316C77.9099 26.5762 74.1853 27.7878 71.1407 26.2377L59.7381 20.4325C58.7941 19.952 57.918 21.183 58.6813 21.9175L69.2843 32.119C69.4066 32.2367 69.5612 32.3153 69.7283 32.345L91.9405 36.2887C92.7736 36.4366 93.2936 35.4152 92.6839 34.8286Z" fill="#626681"/>
<path d="M84.6741 48.2975C84.3039 48.2975 84.0003 48.0028 83.9923 47.6299L83.7224 35.2613L73.5378 26.1615C73.2572 25.9111 73.2333 25.4797 73.4836 25.1991C73.7349 24.9186 74.1646 24.8937 74.4469 25.1459L84.8526 34.4427C84.9929 34.5688 85.0754 34.7464 85.0799 34.9364L85.356 47.6015C85.364 47.9779 85.0657 48.2886 84.6892 48.2975C84.6839 48.2975 84.6786 48.2975 84.6741 48.2975Z" fill="#F4BC5F"/>
</svg>
