<svg width="20" height="20" viewBox="0 0 20 20" fill="none" xmlns="http://www.w3.org/2000/svg">
<path d="M19.4401 7.2542L13.3223 6.36525L10.5863 0.821543C10.347 0.336621 9.6532 0.336387 9.41371 0.821543L6.67777 6.36525L0.56 7.2542C0.0249615 7.33197 -0.189921 7.99166 0.197657 8.3694L4.62449 12.6846L3.57941 18.7776C3.55879 18.8978 3.57221 19.0215 3.61818 19.1345C3.66414 19.2475 3.74081 19.3454 3.8395 19.4171C3.9382 19.4888 4.05499 19.5314 4.17667 19.5402C4.29835 19.549 4.42007 19.5236 4.52805 19.4668L10 16.5901C15.9573 19.722 15.5481 19.542 15.7761 19.542C16.1791 19.542 16.4894 19.1787 16.4206 18.7776L15.3755 12.6846L19.8024 8.3694C20.1896 7.99194 19.9755 7.33205 19.4401 7.2542Z" fill="#F7AC16"/>
<path d="M10 0.456543C9.87804 0.456549 9.75847 0.490684 9.65485 0.555089C9.55123 0.619493 9.46769 0.711599 9.41367 0.820996L6.67774 6.36471L0.560001 7.25365C0.0249615 7.33143 -0.189921 7.99111 0.197657 8.36885L4.62449 12.684L3.57942 18.7771C3.55879 18.8973 3.57222 19.0209 3.61818 19.1339C3.66414 19.2469 3.74081 19.3448 3.83951 19.4165C3.9382 19.4882 4.055 19.5309 4.17667 19.5397C4.29835 19.5485 4.42007 19.523 4.52805 19.4663L10 16.5896H10V0.456543Z" fill="#F2D422"/>
<path d="M0.56 7.25373C0.0249615 7.3315 -0.189921 7.99119 0.197657 8.36893L4.62449 12.6841L3.57941 18.7771C3.55879 18.8974 3.57222 19.021 3.61818 19.134C3.66414 19.247 3.74081 19.3449 3.8395 19.4166C3.9382 19.4883 4.055 19.531 4.17667 19.5398C4.29835 19.5485 4.42007 19.5231 4.52805 19.4663L10 16.5897C15.9573 19.7215 15.5481 19.5415 15.7761 19.5415C15.9142 19.5415 16.0488 19.4978 16.1605 19.4166L6.67773 6.36475L0.56 7.25373Z" fill="#F7AC16"/>
<path d="M6.97492 11.9315C2.23297 7.3092 2.4368 7.55693 2.37316 7.31721C2.34727 7.22092 2.34195 7.10889 2.37012 6.99072L0.56 7.25373C0.0249615 7.3315 -0.189921 7.99119 0.197657 8.36893L4.62449 12.6841L3.57941 18.7772C3.55879 18.8974 3.57221 19.021 3.61818 19.134C3.66414 19.247 3.74081 19.3449 3.8395 19.4166C3.9382 19.4883 4.05499 19.531 4.17667 19.5398C4.29835 19.5486 4.42007 19.5232 4.52805 19.4664L6.13691 18.6206C6.05488 18.5468 5.99288 18.4534 5.95667 18.3492C5.92046 18.245 5.91123 18.1333 5.92984 18.0246L6.97492 11.9315Z" fill="#F48B19"/>
<path d="M0.197201 8.36872L4.62404 12.6839L3.57896 18.7769C3.55833 18.8972 3.57176 19.0208 3.61772 19.1338C3.66369 19.2468 3.74035 19.3447 3.83905 19.4164C3.93775 19.4881 4.05454 19.5308 4.17622 19.5396C4.2979 19.5483 4.41961 19.5229 4.52759 19.4661L9.99954 16.5895C15.9568 19.7213 15.5476 19.5413 15.7757 19.5413C16.1786 19.5413 16.4889 19.178 16.4201 18.7769L15.3751 12.6839L0.0316927 7.69849C-0.0447526 7.97251 0.0317709 8.20755 0.197201 8.36872Z" fill="#F2D422"/>
<path d="M0.197201 8.36872L4.62404 12.6839L3.57896 18.7769C3.55833 18.8972 3.57176 19.0208 3.61772 19.1338C3.66369 19.2468 3.74035 19.3447 3.83905 19.4164C3.93775 19.4881 4.05454 19.5308 4.17622 19.5396C4.2979 19.5483 4.41961 19.5229 4.52759 19.4661L6.13646 18.6203C6.05443 18.5465 5.99242 18.4532 5.95621 18.349C5.92 18.2447 5.91078 18.1331 5.92939 18.0243L6.97447 11.9313L3.93236 8.96591L0.0316927 7.69849C-0.0447526 7.97251 0.0317709 8.20755 0.197201 8.36872Z" fill="#EFB616"/>
<path d="M3.57973 18.7771C3.5591 18.8974 3.57253 19.021 3.61849 19.134C3.66445 19.247 3.74112 19.3449 3.83982 19.4166C3.93851 19.4883 4.05531 19.531 4.17699 19.5398C4.29866 19.5486 4.42038 19.5231 4.52836 19.4663L10.0003 16.5897C15.9576 19.7215 15.5484 19.5415 15.7764 19.5415C16.1794 19.5415 16.4897 19.1782 16.4209 18.7771L15.3759 12.6841L19.8027 8.36893C19.8901 8.28376 19.9518 8.17586 19.9811 8.05743C20.0103 7.939 20.0058 7.81475 19.9682 7.69873L4.6248 12.6841L3.57973 18.7771Z" fill="#F7AC16"/>
<path d="M3.57973 18.7771C3.5591 18.8973 3.57253 19.0209 3.61849 19.1339C3.66445 19.2469 3.74112 19.3448 3.83982 19.4165C3.93851 19.4883 4.05531 19.5309 4.17699 19.5397C4.29866 19.5485 4.42038 19.5231 4.52836 19.4663L6.13722 18.6205C6.0552 18.5467 5.99319 18.4533 5.95698 18.3491C5.92077 18.2449 5.91154 18.1332 5.93015 18.0245L6.97523 11.9314L6.96668 11.9231L4.6248 12.684L3.57973 18.7771Z" fill="#F48B19"/>
<path d="M4.5284 19.4663L10.0003 16.5896C15.9576 19.7215 15.5484 19.5415 15.7764 19.5415C16.1794 19.5415 16.4897 19.1782 16.4209 18.7771L15.3759 12.684L19.8027 8.36889C20.1898 7.99143 19.9758 7.33154 19.4404 7.25369L13.3226 6.36475L3.83984 19.4166C3.93855 19.4883 4.05534 19.5309 4.17702 19.5397C4.2987 19.5485 4.42042 19.5231 4.5284 19.4663Z" fill="#F2D422"/>
<path d="M19.9682 7.69849L10.0003 10.9372L3.83984 19.4164C3.93854 19.4881 4.05533 19.5308 4.177 19.5396C4.29868 19.5483 4.42038 19.5229 4.52836 19.4661L10.0003 16.5895C15.9576 19.7213 15.5484 19.5413 15.7764 19.5413C16.1794 19.5413 16.4897 19.178 16.4209 18.7769L15.3759 12.6839L19.8027 8.36872C19.8901 8.28355 19.9519 8.17565 19.9811 8.05721C20.0103 7.93878 20.0059 7.81452 19.9682 7.69849Z" fill="#F7AC16"/>
<path d="M15.3759 12.6841L10.0003 10.9375L3.83984 19.4167C3.93854 19.4884 4.05533 19.531 4.177 19.5398C4.29868 19.5486 4.42038 19.5232 4.52836 19.4664L10.0003 16.5897C15.9576 19.7216 15.5484 19.5416 15.7764 19.5416C16.1794 19.5416 16.4897 19.1783 16.4209 18.7772L15.3759 12.6841Z" fill="#F2D422"/>
<path d="M3.83984 19.4167C3.93854 19.4884 4.05533 19.531 4.177 19.5398C4.29868 19.5486 4.42038 19.5232 4.52836 19.4664L10.0003 16.5897C15.9576 19.7216 15.5484 19.5416 15.7764 19.5416C15.9145 19.5416 16.0491 19.4979 16.1608 19.4167L10.0003 10.9375L3.83984 19.4167Z" fill="#F7AC16"/>
<path d="M10.0004 10.9376L10.0003 10.9375L3.83984 19.4167C3.93854 19.4884 4.05533 19.531 4.177 19.5398C4.29868 19.5486 4.42038 19.5232 4.52836 19.4664L10.0003 16.5897H10.0004V10.9376Z" fill="#F2D422"/>
<path d="M6.26356 16.0806L3.83984 19.4165C3.93854 19.4882 4.05533 19.5309 4.177 19.5396C4.29868 19.5484 4.42038 19.523 4.52836 19.4662L6.13723 18.6204C6.0552 18.5466 5.99319 18.4533 5.95698 18.3491C5.92077 18.2448 5.91154 18.1331 5.93016 18.0244L6.26356 16.0806Z" fill="#EFB616"/>
</svg>
