<svg width="24" height="24" viewBox="0 0 24 24" fill="none" xmlns="http://www.w3.org/2000/svg">
<g clip-path="url(#clip0_2415_93623)">
<path d="M22.4049 12.3109C22.3573 12.2142 22.3325 12.1079 22.3325 12.0001C22.3325 11.8923 22.3573 11.7859 22.4049 11.6892L23.3 9.85808C23.7984 8.8385 23.4035 7.62328 22.4011 7.09139L20.6006 6.13608C20.5052 6.08586 20.4227 6.01439 20.3593 5.92719C20.2959 5.83999 20.2535 5.73939 20.2352 5.63316L19.883 3.62557C19.687 2.50779 18.653 1.75667 17.5296 1.91562L15.5115 2.20109C15.4048 2.21651 15.296 2.20721 15.1935 2.17389C15.0909 2.14058 14.9975 2.08414 14.9202 2.00895L13.4553 0.591834C12.6397 -0.197255 11.3619 -0.197302 10.5463 0.591834L9.08132 2.00909C9.00408 2.08427 8.91059 2.14069 8.80808 2.174C8.70557 2.20732 8.59678 2.21663 8.49009 2.20123L6.472 1.91576C5.34818 1.75672 4.31459 2.50793 4.11851 3.62571L3.76639 5.63321C3.74809 5.73944 3.70562 5.84004 3.64227 5.92725C3.57891 6.01445 3.49637 6.08594 3.401 6.13618L1.60054 7.09148C0.598078 7.62332 0.203205 8.83865 0.701577 9.85822L1.59665 11.6893C1.64429 11.786 1.66907 11.8924 1.66907 12.0002C1.66907 12.108 1.64429 12.2143 1.59665 12.311L0.70153 14.1421C0.203158 15.1617 0.598031 16.3769 1.60049 16.9088L3.40095 17.8641C3.49633 17.9144 3.57889 17.9858 3.64225 18.073C3.70561 18.1602 3.74808 18.2608 3.76639 18.3671L4.11851 20.3747C4.29701 21.3922 5.16954 22.1058 6.17233 22.1057C6.27109 22.1057 6.37131 22.0988 6.47204 22.0846L8.49014 21.7991C8.59682 21.7836 8.70563 21.7929 8.80814 21.8263C8.91066 21.8596 9.00414 21.916 9.08137 21.9912L10.5463 23.4083C10.9542 23.8029 11.4774 24.0002 12.0008 24.0001C12.524 24.0001 13.0476 23.8028 13.4553 23.4083L14.9202 21.9912C15.0783 21.8384 15.2937 21.7685 15.5115 21.7991L17.5296 22.0846C18.6535 22.2436 19.687 21.4924 19.883 20.3746L20.2352 18.3671C20.2535 18.2609 20.296 18.1603 20.3593 18.0731C20.4227 17.9859 20.5052 17.9144 20.6006 17.8641L22.4011 16.9088C23.4035 16.377 23.7984 15.1617 23.3 14.1421L22.4049 12.3109ZM9.23231 5.77112C10.6316 5.77112 11.7701 6.90956 11.7701 8.30887C11.7701 9.70817 10.6316 10.8466 9.23231 10.8466C7.833 10.8466 6.69456 9.70817 6.69456 8.30887C6.69456 6.90956 7.833 5.77112 9.23231 5.77112ZM7.92244 17.0571C7.7873 17.1923 7.61016 17.2599 7.43307 17.2599C7.25598 17.2599 7.07879 17.1923 6.9437 17.0571C6.67342 16.7869 6.67342 16.3486 6.9437 16.0784L16.0791 6.94299C16.3493 6.67271 16.7876 6.67271 17.0579 6.94299C17.3281 7.21326 17.3281 7.6515 17.0579 7.92178L7.92244 17.0571ZM14.7691 18.2291C13.3698 18.2291 12.2314 17.0907 12.2314 15.6914C12.2314 14.2921 13.3698 13.1536 14.7691 13.1536C16.1685 13.1536 17.3069 14.2921 17.3069 15.6914C17.3069 17.0907 16.1685 18.2291 14.7691 18.2291Z" fill="#A0C882"/>
<path d="M14.7685 14.5378C14.1324 14.5378 13.6149 15.0553 13.6149 15.6913C13.6149 16.3273 14.1324 16.8448 14.7685 16.8448C15.4045 16.8448 15.922 16.3273 15.922 15.6913C15.922 15.0553 15.4045 14.5378 14.7685 14.5378ZM9.23162 7.15527C8.59558 7.15527 8.07812 7.67272 8.07812 8.30877C8.07812 8.94481 8.59558 9.46231 9.23162 9.46231C9.86766 9.46231 10.3852 8.94486 10.3852 8.30877C10.3851 7.67277 9.86766 7.15527 9.23162 7.15527Z" fill="#A0C882"/>
</g>
<defs>
<clipPath id="clip0_2415_93623">
<rect width="24" height="24" fill="white"/>
</clipPath>
</defs>
</svg>
