<svg width="20" height="22" viewBox="0 0 20 22" fill="none" xmlns="http://www.w3.org/2000/svg">
<path d="M10.0021 11.4241C13.145 11.4241 15.7142 8.8549 15.7142 5.71203C15.7142 2.56915 13.145 0 10.0021 0C6.85925 0 4.29015 2.56915 4.29015 5.71203C4.29015 8.8549 6.8593 11.4241 10.0021 11.4241ZM19.8049 15.9887C19.6552 15.6145 19.4557 15.2653 19.2312 14.941C18.0838 13.2449 16.3129 12.1224 14.3174 11.8481C14.068 11.8231 13.7936 11.873 13.594 12.0227C12.5464 12.7959 11.2993 13.195 10.0022 13.195C8.70509 13.195 7.45795 12.7959 6.41032 12.0227C6.21076 11.873 5.93638 11.7982 5.68697 11.8481C3.6915 12.1224 1.89559 13.2449 0.773156 14.941C0.548668 15.2653 0.349102 15.6395 0.199475 15.9887C0.124662 16.1383 0.149583 16.3129 0.224397 16.4626C0.423963 16.8118 0.673373 17.1611 0.89786 17.4604C1.24705 17.9343 1.62122 18.3583 2.04527 18.7574C2.39446 19.1066 2.79355 19.4309 3.19268 19.7551C5.16318 21.2268 7.53281 22 9.97725 22C12.4217 22 14.7913 21.2268 16.7618 19.7551C17.1609 19.4558 17.56 19.1066 17.9092 18.7574C18.3083 18.3583 18.7074 17.9342 19.0566 17.4604C19.3061 17.1361 19.5306 16.8118 19.7301 16.4626C19.8548 16.3129 19.8797 16.1383 19.8049 15.9887Z" fill="white"/>
</svg>
