<svg width="18" height="20" viewBox="0 0 18 20" fill="none" xmlns="http://www.w3.org/2000/svg">
<path d="M5.33594 4.271C4.9601 4.271 4.64844 3.95933 4.64844 3.5835V0.833496C4.64844 0.457663 4.9601 0.145996 5.33594 0.145996C5.71177 0.145996 6.02344 0.457663 6.02344 0.833496V3.5835C6.02344 3.95933 5.71177 4.271 5.33594 4.271ZM12.6693 4.271C12.2934 4.271 11.9818 3.95933 11.9818 3.5835V0.833496C11.9818 0.457663 12.2934 0.145996 12.6693 0.145996C13.0451 0.145996 13.3568 0.457663 13.3568 0.833496V3.5835C13.3568 3.95933 13.0451 4.271 12.6693 4.271ZM5.79427 12.2918C5.6751 12.2918 5.55594 12.2643 5.44594 12.2185C5.32677 12.1727 5.2351 12.1085 5.14344 12.026C4.97844 11.8518 4.8776 11.6227 4.8776 11.3752C4.8776 11.256 4.9051 11.1368 4.95094 11.0268C4.99677 10.9168 5.06094 10.816 5.14344 10.7243C5.2351 10.6418 5.32677 10.5777 5.44594 10.5318C5.77594 10.3943 6.18844 10.4677 6.4451 10.7243C6.6101 10.8985 6.71094 11.1368 6.71094 11.3752C6.71094 11.4302 6.70177 11.4943 6.6926 11.5585C6.68344 11.6135 6.6651 11.6685 6.6376 11.7235C6.61927 11.7785 6.59177 11.8335 6.5551 11.8885C6.5276 11.9343 6.48177 11.9802 6.4451 12.026C6.27094 12.191 6.0326 12.2918 5.79427 12.2918ZM9.0026 12.2918C8.88344 12.2918 8.76427 12.2643 8.65427 12.2185C8.5351 12.1727 8.44344 12.1085 8.35177 12.026C8.18677 11.8518 8.08594 11.6227 8.08594 11.3752C8.08594 11.256 8.11344 11.1368 8.15927 11.0268C8.2051 10.9168 8.26927 10.816 8.35177 10.7243C8.44344 10.6418 8.5351 10.5777 8.65427 10.5318C8.98427 10.3852 9.39677 10.4677 9.65344 10.7243C9.81844 10.8985 9.91927 11.1368 9.91927 11.3752C9.91927 11.4302 9.9101 11.4943 9.90094 11.5585C9.89177 11.6135 9.87344 11.6685 9.84594 11.7235C9.8276 11.7785 9.8001 11.8335 9.76344 11.8885C9.73594 11.9343 9.6901 11.9802 9.65344 12.026C9.47927 12.191 9.24094 12.2918 9.0026 12.2918ZM12.2109 12.2918C12.0918 12.2918 11.9726 12.2643 11.8626 12.2185C11.7434 12.1727 11.6518 12.1085 11.5601 12.026L11.4501 11.8885C11.4154 11.8374 11.3876 11.7819 11.3676 11.7235C11.3411 11.6716 11.3226 11.6159 11.3126 11.5585C11.3034 11.4943 11.2943 11.4302 11.2943 11.3752C11.2943 11.1368 11.3951 10.8985 11.5601 10.7243C11.6518 10.6418 11.7434 10.5777 11.8626 10.5318C12.2018 10.3852 12.6051 10.4677 12.8618 10.7243C13.0268 10.8985 13.1276 11.1368 13.1276 11.3752C13.1276 11.4302 13.1184 11.4943 13.1093 11.5585C13.1001 11.6135 13.0818 11.6685 13.0543 11.7235C13.0359 11.7785 13.0084 11.8335 12.9718 11.8885C12.9443 11.9343 12.8984 11.9802 12.8618 12.026C12.6876 12.191 12.4493 12.2918 12.2109 12.2918ZM5.79427 15.5002C5.6751 15.5002 5.55594 15.4727 5.44594 15.4268C5.33594 15.381 5.2351 15.3168 5.14344 15.2343C4.97844 15.0602 4.8776 14.8218 4.8776 14.5835C4.8776 14.4643 4.9051 14.3452 4.95094 14.2352C4.99677 14.116 5.06094 14.0152 5.14344 13.9327C5.4826 13.5935 6.10594 13.5935 6.4451 13.9327C6.6101 14.1068 6.71094 14.3452 6.71094 14.5835C6.71094 14.8218 6.6101 15.0602 6.4451 15.2343C6.27094 15.3993 6.0326 15.5002 5.79427 15.5002ZM9.0026 15.5002C8.76427 15.5002 8.52594 15.3993 8.35177 15.2343C8.18677 15.0602 8.08594 14.8218 8.08594 14.5835C8.08594 14.4643 8.11344 14.3452 8.15927 14.2352C8.2051 14.116 8.26927 14.0152 8.35177 13.9327C8.69094 13.5935 9.31427 13.5935 9.65344 13.9327C9.73594 14.0152 9.8001 14.116 9.84594 14.2352C9.89177 14.3452 9.91927 14.4643 9.91927 14.5835C9.91927 14.8218 9.81844 15.0602 9.65344 15.2343C9.47927 15.3993 9.24094 15.5002 9.0026 15.5002ZM12.2109 15.5002C11.9726 15.5002 11.7343 15.3993 11.5601 15.2343C11.4753 15.1482 11.4097 15.0451 11.3676 14.9318C11.3218 14.8218 11.2943 14.7027 11.2943 14.5835C11.2943 14.4643 11.3218 14.3452 11.3676 14.2352C11.4134 14.116 11.4776 14.0152 11.5601 13.9327C11.7709 13.7218 12.0918 13.621 12.3851 13.6852C12.4493 13.6943 12.5043 13.7127 12.5593 13.7402C12.6143 13.7585 12.6693 13.786 12.7243 13.8227C12.7701 13.8502 12.8159 13.896 12.8618 13.9327C13.0268 14.1068 13.1276 14.3452 13.1276 14.5835C13.1276 14.8218 13.0268 15.0602 12.8618 15.2343C12.6876 15.3993 12.4493 15.5002 12.2109 15.5002ZM16.7943 8.02016H1.21094C0.835104 8.02016 0.523438 7.7085 0.523438 7.33266C0.523438 6.95683 0.835104 6.64516 1.21094 6.64516H16.7943C17.1701 6.64516 17.4818 6.95683 17.4818 7.33266C17.4818 7.7085 17.1701 8.02016 16.7943 8.02016Z" fill="white"/>
<path d="M12.6667 19.8543H5.33333C1.9875 19.8543 0.0625 17.9293 0.0625 14.5835V6.79183C0.0625 3.446 1.9875 1.521 5.33333 1.521H12.6667C16.0125 1.521 17.9375 3.446 17.9375 6.79183V14.5835C17.9375 17.9293 16.0125 19.8543 12.6667 19.8543ZM5.33333 2.896C2.71167 2.896 1.4375 4.17016 1.4375 6.79183V14.5835C1.4375 17.2052 2.71167 18.4793 5.33333 18.4793H12.6667C15.2883 18.4793 16.5625 17.2052 16.5625 14.5835V6.79183C16.5625 4.17016 15.2883 2.896 12.6667 2.896H5.33333Z" fill="white"/>
</svg>
