<svg width="100" height="100" viewBox="0 0 100 100" fill="none" xmlns="http://www.w3.org/2000/svg">
<g clip-path="url(#clip0_2415_92889)">
<path fill-rule="evenodd" clip-rule="evenodd" d="M36.0282 98.2976C31.8461 99.4449 27.553 100 23.2228 100C18.4486 100 13.7114 99.2969 9.12217 97.9275C7.19767 97.3353 5.93934 95.5959 5.97635 93.5604C6.01336 92.4131 6.05037 91.3028 6.05037 90.1555C6.12439 88.157 6.05037 85.4183 6.38346 83.4567C6.67953 81.6433 7.7158 79.7188 9.19619 78.5715C9.60329 78.2384 9.97339 78.0163 10.4915 77.8683L14.8587 76.3139V75.4627C14.7106 75.2036 14.5626 74.9075 14.4516 74.6484C13.3413 73.5012 12.7861 71.8357 12.49 70.2813C12.231 68.912 12.157 67.3946 12.5641 66.0622L12.416 65.5441C11.6758 62.8794 12.342 60.6218 13.7484 58.7343C13.5633 58.7713 13.3783 58.7713 13.1932 58.7713C12.6751 58.8824 12.1199 58.9194 11.5648 58.8453C10.8616 58.9194 10.1214 58.8453 9.45526 58.5863C9.04815 58.4382 8.71506 58.2532 8.38198 57.9941C7.90085 57.8091 7.41973 57.513 7.01262 57.1059L6.49449 56.6248C5.42121 55.6255 4.94008 54.3302 5.12513 52.8868C5.19915 52.4057 5.27317 51.8875 5.27317 51.4064C4.56999 50.4812 4.27391 49.4079 4.42195 48.2236L5.75429 37.3798C5.7913 37.0467 5.86532 36.7506 5.97635 36.4175C6.86458 34.0119 7.7158 31.6063 8.60403 29.2376C9.19619 27.6092 9.78834 26.0178 10.3805 24.3894C10.6766 23.5382 11.0097 22.5389 11.3798 21.7247C12.1199 20.1703 13.5633 19.171 15.1547 18.986L17.9305 17.9127C16.4501 16.1733 15.9319 13.2865 16.6721 11.0289C16.6721 10.3997 16.7091 9.77059 16.7832 9.17843C17.0052 7.06888 18.4486 5.18139 20.3361 4.29316C21.5574 3.14586 23.1118 2.44268 24.8142 2.22062C26.4057 2.03558 27.9971 2.29464 29.4775 2.92381C32.9194 4.40419 35.362 7.8831 34.9549 11.436C35.51 13.6196 34.9549 16.2473 33.5855 17.9127L36.3983 18.986C37.6196 19.134 38.7299 19.6892 39.5441 20.6144C40.2843 21.2066 41.1355 21.8357 41.9497 22.3909V20.0593C40.8764 19.2451 40.1362 17.9497 40.1362 16.5063V15.063C40.1362 12.6203 42.0977 10.6588 44.5404 10.6588H93.319C95.7617 10.6588 97.7232 12.6203 97.7232 15.063V16.5063C97.7232 17.9497 97.02 19.2451 95.9097 20.0593V45.1888C96.983 46.003 97.7232 47.2983 97.7232 48.7417V50.1851C97.7232 52.6277 95.7617 54.5892 93.319 54.5892H78.4042C79.4404 54.8853 80.4397 55.3664 81.2539 56.0326C84.2147 58.4382 86.3982 61.473 85.2509 65.5441L85.1029 66.0252C85.51 67.3576 85.436 68.8379 85.1769 70.2443C84.8809 71.7617 84.3257 73.4641 83.2154 74.6114C82.9564 75.1296 82.6973 75.6107 82.4012 76.0918L87.1754 77.7943C87.6566 77.9793 88.0637 78.2014 88.4338 78.4975C89.8772 79.6818 90.9134 81.5692 91.2465 83.3827C91.5796 85.3442 91.5426 88.0459 91.5796 90.0815C91.6166 91.2288 91.6536 92.339 91.6906 93.4863C91.7646 95.5219 90.5063 97.2613 88.5448 97.8535C83.9556 99.2228 79.2184 99.926 74.4441 99.926C70.114 99.926 65.7839 99.3709 61.6388 98.2236C57.4567 99.3709 53.1636 99.926 48.8335 99.926C44.5034 99.926 40.1732 99.3709 36.0282 98.2236V98.2976ZM37.2125 77.4982L40.9134 76.1658C40.6174 75.6847 40.3213 75.2036 40.0992 74.6855C38.9889 73.5382 38.4338 71.8727 38.1377 70.3183C37.8786 68.912 37.8046 67.4316 38.2117 66.0992L38.0637 65.6181C36.9164 61.547 39.1 58.5493 42.0607 56.1066C42.8749 55.4405 43.8742 54.9593 44.9105 54.6633H44.5404C42.8379 54.6633 41.3946 53.701 40.6544 52.3316C40.8764 54.2191 39.8772 56.0326 38.1007 56.8468C37.9156 56.9208 37.7306 57.0319 37.5085 57.1059L37.1755 77.5352L37.2125 77.4982ZM52.7565 54.6633C53.7928 54.9593 54.792 55.4405 55.6062 56.1066C58.567 58.5123 60.7506 61.547 59.6033 65.6181L59.4552 66.1362C59.8253 67.4686 59.7883 68.949 59.5293 70.3553C59.2332 71.8727 58.678 73.5382 57.5678 74.7225C57.3087 75.2406 57.0496 75.7587 56.7165 76.2399L61.4908 77.9423C61.5278 77.9423 61.5648 77.9793 61.6018 77.9793C61.6388 77.9793 61.6758 77.9423 61.7128 77.9423L66.4871 76.2399C66.191 75.7587 65.8949 75.2406 65.6358 74.7225C64.5256 73.5752 63.9704 71.9097 63.6743 70.3553C63.4153 68.986 63.3413 67.4686 63.7484 66.1362L63.6003 65.6181C62.453 61.547 64.6366 58.5493 67.5974 56.1066C68.4116 55.4405 69.4108 54.9593 70.4471 54.6633H52.6455H52.7565ZM40.1362 49.741V48.7787C40.1362 47.3354 40.8394 46.04 41.9497 45.2258V38.305C41.5796 38.268 41.2465 38.157 40.8764 38.0089L38.4338 37.0097L38.1007 39.8224L40.1362 49.704V49.741Z" fill="#CED3DB"/>
<path fill-rule="evenodd" clip-rule="evenodd" d="M33.8447 96.0769C29.6626 97.2242 25.3695 97.7793 21.0393 97.7793C16.2651 97.7793 11.5279 97.0761 6.93868 95.7068C5.01418 95.1146 3.75585 93.3752 3.79286 91.3397C3.82987 90.1924 3.86688 89.0821 3.90389 87.9348C3.9409 85.9363 3.90389 83.1975 4.23697 81.236C4.53305 79.4226 5.56932 77.4981 7.0497 76.3508C7.45681 76.0177 7.82691 75.7956 8.34504 75.6476L12.7122 74.0932V73.242C12.5641 72.9829 12.4161 72.6868 12.3051 72.4277C11.1948 71.2804 10.6396 69.615 10.3436 68.0606C10.0845 66.6913 10.0105 65.1739 10.4176 63.8415L10.2695 63.3234C9.52935 60.6587 10.1955 58.4011 11.6019 56.5136C11.4168 56.5136 11.2318 56.5506 11.0467 56.5506C10.5286 56.6616 9.97346 56.6987 9.41832 56.6246C8.71514 56.6987 7.97495 56.6246 7.30877 56.3656C6.90167 56.2175 6.56858 56.0325 6.23549 55.7734C5.75437 55.5884 5.27324 55.2923 4.86614 54.8852L4.348 54.4041C3.27472 53.4048 2.7936 52.1095 2.97865 50.6661C3.05267 50.185 3.12669 49.6668 3.12669 49.1857C2.4235 48.2605 2.12743 47.1872 2.27546 46.0029L3.60781 35.1591C3.64482 34.826 3.71884 34.5299 3.82987 34.1968C4.7181 31.7912 5.56932 29.3856 6.45755 27.0169C7.0497 25.3885 7.64186 23.7971 8.23401 22.1687C8.53009 21.3175 8.86318 20.3182 9.23327 19.504C9.97346 17.9496 11.4168 16.9503 13.0083 16.7653L15.784 15.692C14.3036 13.9525 13.7855 11.0658 14.5256 8.80821C14.5256 8.17905 14.5627 7.54988 14.6367 6.95773C14.8587 4.84818 16.3021 2.96069 18.1896 2.07246C19.4109 0.925162 20.9653 0.221979 22.6678 -7.88607e-05C24.2592 -0.185127 25.8506 0.0739404 27.331 0.703104C30.7729 2.18349 33.2155 5.66239 32.8084 9.21532C33.3635 11.3989 32.8084 14.0266 31.439 15.692L34.2518 16.7653C35.4731 16.9133 36.5834 17.4685 37.3976 18.3937C38.1378 18.9859 38.989 19.615 39.8032 20.1702V17.8386C38.7299 17.0243 37.9897 15.729 37.9897 14.2856V12.8423C37.9897 10.3996 39.9513 8.43811 42.3939 8.43811H91.1726C93.6152 8.43811 95.5767 10.3996 95.5767 12.8423V14.2856C95.5767 15.729 94.8735 17.0243 93.7632 17.8386V42.9681C94.8365 43.7823 95.5767 45.0776 95.5767 46.521V47.9644C95.5767 50.407 93.6152 52.3685 91.1726 52.3685H76.2577C77.294 52.6646 78.2932 53.1457 79.1074 53.8119C82.0682 56.2175 84.2518 59.2523 83.1045 63.3234L82.9564 63.8045C83.3635 65.1368 83.2895 66.6172 83.0304 68.0236C82.7344 69.541 82.1792 71.2434 81.0689 72.3907C80.8099 72.9089 80.5508 73.39 80.2547 73.8711L85.029 75.5736C85.5101 75.7586 85.9172 75.9807 86.2873 76.2767C87.7307 77.4611 88.7669 79.3485 89.1 81.162C89.4331 83.1235 89.3961 85.8252 89.4331 87.8608C89.4701 89.0081 89.5071 90.1183 89.5441 91.2656C89.6182 93.3012 88.3598 95.0406 86.3983 95.6328C81.8091 97.0021 77.0719 97.7053 72.2977 97.7053C67.9675 97.7053 63.6374 97.1502 59.4923 96.0029C55.3102 97.1502 51.0171 97.7053 46.687 97.7053C42.3569 97.7053 38.0268 97.1502 33.8817 96.0029L33.8447 96.0769ZM35.029 75.2775L38.7299 73.9451C38.4339 73.464 38.1378 72.9829 37.9157 72.4648C36.8054 71.3175 36.2503 69.652 35.9542 68.0976C35.6951 66.6913 35.6211 65.2109 36.0282 63.8785L35.8802 63.3974C34.7329 59.3263 36.9165 56.3286 39.8772 53.8859C40.6914 53.2198 41.6907 52.7386 42.727 52.4426H42.3569C40.6544 52.4426 39.2111 51.4803 38.4709 50.1109C38.6929 51.9984 37.6937 53.8119 35.9172 54.6261C35.7322 54.7001 35.5471 54.8112 35.3251 54.8852L34.992 75.3145L35.029 75.2775ZM50.573 52.4426C51.6093 52.7386 52.6085 53.2198 53.4228 53.8859C56.3835 56.2915 58.5671 59.3263 57.4198 63.3974L57.2718 63.9155C57.6418 65.2479 57.6048 66.7283 57.3458 68.1346C57.0497 69.652 56.4945 71.3175 55.3843 72.5018C55.1252 73.0199 54.8661 73.538 54.533 74.0192L59.3073 75.7216C59.3443 75.7216 59.3813 75.7586 59.4183 75.7586C59.4553 75.7586 59.4923 75.7216 59.5293 75.7216L64.3036 74.0192C64.0075 73.538 63.7114 73.0199 63.4524 72.5018C62.3421 71.3545 61.7869 69.689 61.4908 68.1346C61.2318 66.7653 61.1578 65.2479 61.5649 63.9155L61.4168 63.3974C60.2695 59.3263 62.4531 56.3286 65.4139 53.8859C66.2281 53.2198 67.2273 52.7386 68.2636 52.4426H50.462H50.573ZM37.9527 47.5203V46.558C37.9527 45.1146 38.6559 43.8193 39.7662 43.0051V36.0843C39.3961 36.0473 39.063 35.9363 38.6929 35.7882L36.2503 34.789L35.9172 37.6017L37.9527 47.4833V47.5203Z" fill="white"/>
<path d="M89.3236 13.2861H44.1719V47.7051H89.3236V13.2861Z" fill="#F2F2F2"/>
<path fill-rule="evenodd" clip-rule="evenodd" d="M51.166 36.8249C54.867 35.3815 59.8633 33.0129 64.3784 26.2031L63.0091 25.2038L67.0802 24.0195L67.0431 28.1276L65.8218 27.2394C63.1941 30.9403 59.3081 35.6776 51.166 36.8249Z" fill="#B9C1C9"/>
<path fill-rule="evenodd" clip-rule="evenodd" d="M81.6238 18.0234L77.5527 22.0205L81.8458 25.7584C82.6971 24.7592 83.2152 23.4639 83.2152 22.0205C83.2152 20.4661 82.586 19.0597 81.5868 18.0234H81.6238Z" fill="#FFE356"/>
<path fill-rule="evenodd" clip-rule="evenodd" d="M77.7383 15.4697V21.1692L81.8093 17.1722C80.7731 16.1359 79.3297 15.4697 77.7383 15.4697Z" fill="#FF7069"/>
<path fill-rule="evenodd" clip-rule="evenodd" d="M77.2581 16.5801C74.1123 16.5801 71.5586 19.1337 71.5586 22.2796C71.5586 25.4254 74.1123 27.979 77.2581 27.979C78.9605 27.979 80.5149 27.2018 81.5512 26.0175L77.2581 22.2796V16.5801Z" fill="#8597B1"/>
<path fill-rule="evenodd" clip-rule="evenodd" d="M73.1133 30.4219H85.8076V31.014H73.1133V30.4219ZM73.1133 34.1969H80.4412V34.789H73.1133V34.1969ZM73.1133 32.9385H85.8076V33.5307H73.1133V32.9385ZM73.1133 31.6802H85.8076V32.2724H73.1133V31.6802ZM73.1133 35.8253H83.8831V36.4174H73.1133V35.8253ZM73.1133 39.6003H78.2946V40.1924H73.1133V39.6003ZM73.1133 38.3419H82.2176V38.9341H73.1133V38.3419ZM73.1133 37.0836H85.8076V37.6758H73.1133V37.0836Z" fill="#B9C1C9"/>
<path fill-rule="evenodd" clip-rule="evenodd" d="M51.6461 25.8332C51.6461 25.8332 52.4973 24.0567 53.3486 24.2047C54.1998 24.3158 54.2368 24.3898 54.2368 24.3898L58.4559 23.9457C58.937 23.9087 59.048 24.6489 58.4929 24.7229L55.7172 25.093C55.7172 25.093 56.1983 25.278 56.1613 25.5741C56.1243 25.8702 55.9022 26.3143 55.9022 26.3143C55.9022 26.3143 56.1243 26.8324 56.1243 26.9805C56.0873 27.1285 55.5691 27.5726 55.5691 27.5726L55.7912 28.0537L55.4211 28.4609C55.4211 28.4609 53.6076 28.7939 53.3486 28.868C53.0895 28.979 51.9792 28.5719 51.9792 28.5719L50.2027 28.868L50.1287 26.3883L51.6461 25.8332ZM10.6765 48.15C10.6765 48.15 11.3056 48.15 11.5647 48.7051L12.0828 49.8524C11.9348 50.5926 11.5647 50.8887 11.5647 50.8887C11.8238 51.1107 11.8238 51.3698 11.6017 51.8879C11.3797 52.3691 10.7875 52.258 10.5284 52.036C10.5284 52.036 10.1583 52.4061 9.86226 52.3321C9.56618 52.258 9.41814 52.184 9.41814 52.184C9.41814 52.184 8.93702 52.3691 8.82599 52.3321C8.71496 52.295 8.34486 51.6289 8.34486 51.6289L7.82673 51.7399L7.30859 51.2588C7.30859 51.2588 7.56766 49.2973 7.49364 49.0382C7.45663 48.7421 7.90075 47.8909 7.90075 47.8909L8.01178 46.1144L10.4544 46.5586L10.6765 48.15Z" fill="#FED298"/>
<path fill-rule="evenodd" clip-rule="evenodd" d="M20.8175 17.543H26.406L29.8479 49.2602C25.9619 50.0744 22.1499 50.0744 18.3379 49.2602L20.4474 19.6895L20.8545 17.543H20.8175Z" fill="#6B7F9E"/>
<path fill-rule="evenodd" clip-rule="evenodd" d="M20.8187 17.543H26.4071L28.0726 32.7909H19.4863L20.4486 19.6895L20.8187 17.543Z" fill="white"/>
<path fill-rule="evenodd" clip-rule="evenodd" d="M20.8183 17.543C22.6687 17.543 24.5562 17.543 26.4067 17.543L26.4437 17.839L23.705 20.8738L20.7812 17.802L20.8183 17.543Z" fill="#AAB5BD"/>
<path fill-rule="evenodd" clip-rule="evenodd" d="M22.9652 20.9844C23.4093 20.9844 23.8534 20.9844 24.2975 20.9844C24.3345 21.2064 24.4085 21.4655 24.4455 21.6876C25.0377 24.3523 25.2968 27.8682 25.8519 30.5329L23.7424 32.3093L21.6328 30.5329C22.1139 28.2753 22.484 23.242 22.9652 20.9844Z" fill="#FF7069"/>
<path fill-rule="evenodd" clip-rule="evenodd" d="M22.3359 20.7997C22.632 20.4296 22.9651 20.0595 23.2612 19.6895H24.0014C24.2974 20.0595 24.6305 20.4296 24.9266 20.7997C24.7786 21.1328 24.6305 21.5029 24.4825 21.836C23.9644 21.799 23.3352 21.836 22.8171 21.836C22.669 21.5029 22.521 21.1328 22.3729 20.7997H22.3359Z" fill="#FF7069"/>
<path fill-rule="evenodd" clip-rule="evenodd" d="M16.5996 45.8181L17.2288 82.1985H22.2991L24.1126 45.707L16.5996 45.8181Z" fill="#8597B1"/>
<path fill-rule="evenodd" clip-rule="evenodd" d="M19.7441 82.1985H22.2978L24.1113 45.707L20.3733 45.744L19.7441 82.1985Z" fill="#6B7F9E"/>
<path fill-rule="evenodd" clip-rule="evenodd" d="M31.1068 45.8181L30.5146 82.1985H25.4443L23.6309 45.707L31.1068 45.8181Z" fill="#6B7F9E"/>
<path fill-rule="evenodd" clip-rule="evenodd" d="M27.961 82.1985H25.4443L23.6309 45.707L27.3688 45.744L27.961 82.1985Z" fill="#8597B1"/>
<path fill-rule="evenodd" clip-rule="evenodd" d="M20.1527 24.2783L23.6316 30.2739L27.1105 24.2783L28.5168 44.7076C28.5168 44.7076 25.5931 47.1873 25.26 47.2613C24.9269 47.2983 24.8159 47.0392 24.8159 47.0392L23.6686 44.5226L22.5213 47.0392C22.5213 47.0392 22.4102 47.2983 22.0772 47.2613C21.7441 47.2243 18.8203 44.7076 18.8203 44.7076L20.2267 24.2783H20.1527Z" fill="#ECF0F1"/>
<path fill-rule="evenodd" clip-rule="evenodd" d="M20.4844 18.1721L20.8175 17.543L23.2971 19.7265L21.4836 21.8731L20.4844 18.1721ZM26.739 18.1721L26.4059 17.543L23.9263 19.7265L25.7397 21.8731L26.739 18.1721Z" fill="white"/>
<path fill-rule="evenodd" clip-rule="evenodd" d="M26.5908 17.7646L27.8491 19.097L33.4005 21.2436C33.4005 21.2436 33.9187 21.0955 34.0667 21.4286C34.2147 21.7987 41.2466 26.721 41.2466 26.721L50.1659 25.8698L50.462 30.0148L40.3213 31.7543L32.5493 28.6085L31.439 37.8609L34.0667 50.6292C34.0667 50.6292 29.2184 52.8128 28.3672 52.9238C27.516 53.0348 27.331 52.4057 27.331 52.4057L24.7773 36.5285L26.5538 17.8017L26.5908 17.7646ZM20.6322 17.7646L19.3739 19.097L13.8224 21.2436C13.8224 21.2436 13.4153 21.0955 13.2303 21.4286C13.0823 21.7987 7.97492 35.7883 7.97492 35.7883L6.64258 46.6322L11.0467 46.7802L11.972 37.3797L15.0808 30.8661L15.784 37.8609L13.1563 50.6292C13.1563 50.6292 18.0045 52.8128 18.8558 52.9238C19.707 53.0348 19.892 52.4057 19.892 52.4057L22.4457 36.5285L20.6692 17.8017L20.6322 17.7646Z" fill="#6B7F9E"/>
<path fill-rule="evenodd" clip-rule="evenodd" d="M7.53115 46.5947L10.751 46.7058V47.4459H7.49414L7.53115 46.5947Z" fill="#F2F2F2"/>
<path fill-rule="evenodd" clip-rule="evenodd" d="M21.4474 15.9512L20.7812 17.5426L23.2609 19.7262H23.9641L26.3697 17.5426L26.0736 15.9882L21.4474 15.9512Z" fill="#F0BA7D"/>
<path fill-rule="evenodd" clip-rule="evenodd" d="M19.2631 8.95654C19.2631 9.25262 19.1521 9.5487 19.1521 9.80776C18.1529 9.62272 18.634 12.5835 19.1891 12.9906C19.2261 13.0276 19.3372 12.9536 19.4482 12.8796C19.6332 13.9528 21.2987 16.8766 22.372 18.0979C22.668 18.431 24.4815 18.431 24.7776 18.0979C25.8509 16.9136 27.5163 13.9528 27.7384 12.8796C27.8494 12.9536 27.9234 13.0276 27.9974 12.9906C28.5526 12.5835 29.0337 9.62272 28.0344 9.80776C28.0344 9.51169 27.9234 9.25262 27.9234 8.95654C27.8864 6.66195 25.7768 5.51465 23.5933 5.51465C21.4097 5.51465 19.3372 6.66195 19.2631 8.95654Z" fill="#FED298"/>
<path fill-rule="evenodd" clip-rule="evenodd" d="M20.596 5.99535C20.3 5.95834 19.1527 6.29143 19.0046 7.51275C18.8566 8.69705 18.9306 9.80734 18.9306 9.80734C18.9306 9.80734 19.5968 9.99239 19.6708 10.6586C19.7448 11.3247 19.7078 11.3247 19.7078 11.3247L19.9669 11.2877L20.1519 10.1034C21.1512 9.47426 20.1519 8.54902 21.1512 8.32696C23.8529 10.2515 26.2215 9.91837 27.2948 9.03014C27.2948 9.03014 27.0357 9.95538 27.2208 10.3255C27.4058 10.6586 27.2948 11.1767 27.2948 11.1767H27.5539C27.5539 11.1767 27.5168 9.80734 28.072 9.80734C30.1815 6.32844 23.5198 1.99831 20.6331 5.99535H20.596Z" fill="#596366"/>
<path fill-rule="evenodd" clip-rule="evenodd" d="M50.2402 26.1283L51.2025 25.9062L51.5356 29.3852L50.4993 29.5332L50.2402 26.1283Z" fill="white"/>
<path fill-rule="evenodd" clip-rule="evenodd" d="M40.9133 61.4364C40.9133 61.8805 40.7653 64.3602 40.7653 64.7673C39.4329 64.5082 40.3582 68.8754 41.0984 69.4675C41.1724 69.5045 41.3204 69.3935 41.4315 69.3195C41.6165 70.5408 42.6898 72.1322 43.9111 73.6126L43.393 78.4238L46.6128 78.2018L49.8326 78.4238L49.3145 73.6126C50.5728 72.1322 51.6091 70.5408 51.7942 69.3195C51.9052 69.3935 52.0532 69.5045 52.1272 69.4675C52.8674 68.8754 53.7557 64.4712 52.4603 64.7673C52.4603 64.3602 52.3123 61.8805 52.3123 61.4364C52.2383 58.0315 49.4996 56.3291 46.5758 56.3291C43.6891 56.3291 40.9133 58.0315 40.8393 61.4364H40.9133Z" fill="#FED298"/>
<path fill-rule="evenodd" clip-rule="evenodd" d="M42.5789 77.2764L38.5078 78.7197L44.7994 88.4903H48.1673L53.6077 78.3126L50.721 77.2764L48.1673 79.2749H45.1325L42.5789 77.2764Z" fill="#CCCCCC"/>
<path fill-rule="evenodd" clip-rule="evenodd" d="M45.763 79.0897L46.0961 80.052L45.5039 88.4902H47.7985L47.2063 80.052L47.5764 79.0897L46.6512 79.0527L45.763 79.0897Z" fill="#0F5F9B"/>
<path fill-rule="evenodd" clip-rule="evenodd" d="M42.654 77.2395L35.4371 79.8302C35.4371 79.8302 34.4749 80.6074 34.2158 82.0138C34.0308 83.1241 33.9197 88.1944 33.8457 91.4882C37.9168 92.7096 42.2099 93.3757 46.651 93.3757C51.0922 93.3757 55.4223 92.7096 59.4564 91.4882C59.3453 88.1944 59.2713 83.0871 59.0863 82.0138C58.8642 80.6074 57.8649 79.8302 57.8649 79.8302L50.6851 77.2766C47.9464 75.8332 45.2817 75.6851 42.617 77.2395H42.654Z" fill="#83CF8F"/>
<path fill-rule="evenodd" clip-rule="evenodd" d="M43.9485 74.4635C42.9492 74.9816 43.0602 75.4998 43.0602 75.4998L42.9492 77.0912C45.2808 75.7958 48.0936 75.7958 50.4252 77.0912L50.3141 75.4998C50.3141 75.4998 50.3511 75.0186 49.4259 74.4635C48.0936 73.6493 45.5769 73.6123 43.9855 74.4635H43.9485Z" fill="#F2F2F2"/>
<path fill-rule="evenodd" clip-rule="evenodd" d="M42.6529 57.3284C41.2465 58.4757 39.47 59.956 40.0992 62.2136L41.3945 66.8028C41.9867 68.8754 42.0607 72.6874 44.8364 72.6503L46.6499 72.6133L48.4634 72.6503C51.2021 72.6874 51.3131 68.8754 51.9053 66.8028L53.2006 62.2136C53.8298 59.956 52.0903 58.4757 50.6469 57.3284C49.0185 55.996 44.2813 55.996 42.6529 57.3284Z" fill="#666666"/>
<path fill-rule="evenodd" clip-rule="evenodd" d="M42.3945 12.916H91.1732V14.3594H42.3945V12.916ZM42.3945 46.5948H91.1732V48.0381H42.3945V46.5948Z" fill="#596366"/>
<path d="M54.0523 41.8574H52.4238V44.5591H54.0523V41.8574Z" fill="#8597B1"/>
<path d="M57.8648 39.1562H56.2363V44.5597H57.8648V39.1562Z" fill="#83CF8F"/>
<path d="M61.6773 36.2695H60.0488V44.5597H61.6773V36.2695Z" fill="#FFE356"/>
<path d="M65.4878 33.1602H63.8594V44.5591H65.4878V33.1602Z" fill="#FF7069"/>
<path fill-rule="evenodd" clip-rule="evenodd" d="M78.0343 61.4364C78.0343 61.8805 78.1823 64.3602 78.1823 64.7673C79.5146 64.5082 78.5894 68.8754 77.8492 69.4675C77.7752 69.5045 77.6272 69.3935 77.5161 69.3195C77.3311 70.5408 76.2578 72.1322 75.0365 73.6126L75.5546 78.4238L72.3348 78.2018L69.1149 78.4238L69.6331 73.6126C68.3748 72.1322 67.3385 70.5408 67.1534 69.3195C67.0424 69.3935 66.8944 69.5045 66.8203 69.4675C66.0802 68.8754 65.1919 64.4712 66.4873 64.7673C66.4873 64.3602 66.6353 61.8805 66.6353 61.4364C66.7093 58.0315 69.448 56.3291 72.3718 56.3291C75.2585 56.3291 78.0343 58.0315 78.1083 61.4364H78.0343Z" fill="#FED298"/>
<path fill-rule="evenodd" clip-rule="evenodd" d="M76.3687 77.2764L80.4398 78.7197L74.1481 88.4903H70.7803L65.3398 78.3126L68.2266 77.2764L70.7803 79.2749H73.815L76.3687 77.2764Z" fill="#CCCCCC"/>
<path fill-rule="evenodd" clip-rule="evenodd" d="M73.2229 79.0897L72.8528 80.052L73.445 88.4902H71.1504L71.7425 80.052L71.3724 79.0897L72.2977 79.0527L73.2229 79.0897Z" fill="#0F5F9B"/>
<path fill-rule="evenodd" clip-rule="evenodd" d="M76.2946 77.2395L83.5114 79.8302C83.5114 79.8302 84.4737 80.6074 84.7327 82.0138C84.9178 83.1241 85.0288 88.1944 85.1028 91.4882C81.0318 92.7096 76.7387 93.3757 72.2975 93.3757C67.8564 93.3757 63.5262 92.7096 59.4922 91.4882C59.6032 88.1944 59.6772 83.0871 59.8623 82.0138C60.0843 80.6074 61.0836 79.8302 61.0836 79.8302L68.2635 77.2766C71.0022 75.8332 73.6669 75.6851 76.3316 77.2395H76.2946Z" fill="#83CF8F"/>
<path fill-rule="evenodd" clip-rule="evenodd" d="M75.0001 74.4635C75.9994 74.9816 75.8884 75.4998 75.8884 75.4998L75.9994 77.0912C73.6678 75.7958 70.855 75.7958 68.5234 77.0912L68.6345 75.4998C68.6345 75.4998 68.5975 75.0186 69.5227 74.4635C70.855 73.6493 73.3717 73.6123 74.9631 74.4635H75.0001Z" fill="#F2F2F2"/>
<path fill-rule="evenodd" clip-rule="evenodd" d="M76.2954 57.3284C77.7018 58.4757 79.4782 59.956 78.849 62.2136L77.5537 66.8028C76.9616 68.8754 76.8875 72.6874 74.1118 72.6503L72.2983 72.6133L70.4849 72.6503C67.7462 72.6874 67.6351 68.8754 67.043 66.8028L65.7476 62.2136C65.1185 59.956 66.8579 58.4757 68.3013 57.3284C69.9297 55.996 74.667 55.996 76.2954 57.3284Z" fill="#666666"/>
<path fill-rule="evenodd" clip-rule="evenodd" d="M26.7393 61.4364C26.7393 61.8805 26.8874 64.3602 26.8874 64.7673C28.2197 64.5082 27.2945 68.8754 26.5543 69.4675C26.4803 69.5045 26.3322 69.3935 26.2212 69.3195C26.0362 70.5408 24.9629 72.1322 23.7416 73.6126L24.2597 78.4238L21.0399 78.2018L17.82 78.4238L18.3382 73.6126C17.0798 72.1322 16.0436 70.5408 15.8585 69.3195C15.7475 69.3935 15.5994 69.5045 15.5254 69.4675C14.7852 68.8754 13.897 64.4712 15.1923 64.7673C15.1923 64.3602 15.3034 61.8805 15.3034 61.4364C15.3774 58.0315 18.1161 56.3291 21.0399 56.3291C23.9266 56.3291 26.7023 58.0315 26.7763 61.4364H26.7393Z" fill="#FED298"/>
<path fill-rule="evenodd" clip-rule="evenodd" d="M25.1109 77.2764L29.182 78.7197L22.8533 88.4903H19.4854L14.082 78.3126L16.9688 77.2764L19.4854 79.2749H22.5202L25.1109 77.2764Z" fill="#CCCCCC"/>
<path fill-rule="evenodd" clip-rule="evenodd" d="M21.928 79.0897L21.5579 80.052L22.1871 88.4902H19.8555L20.4476 80.052L20.1145 79.0897L21.0028 79.0527L21.928 79.0897Z" fill="#0F5F9B"/>
<path fill-rule="evenodd" clip-rule="evenodd" d="M25.0367 77.2395L32.2536 79.8302C32.2536 79.8302 33.2159 80.6074 33.4749 82.0138C33.66 83.1241 33.771 88.1944 33.845 91.4882C29.774 92.7096 25.4809 93.3757 21.0397 93.3757C16.5985 93.3757 12.2684 92.7096 8.23438 91.4882C8.3454 88.1944 8.41942 83.0871 8.60447 82.0138C8.82653 80.6074 9.82579 79.8302 9.82579 79.8302L17.0057 77.2766C19.7444 75.8332 22.4091 75.6851 25.0738 77.2395H25.0367Z" fill="#83CF8F"/>
<path fill-rule="evenodd" clip-rule="evenodd" d="M23.7423 74.4635C24.7416 74.9816 24.6305 75.4998 24.6305 75.4998L24.7416 77.0912C22.41 75.7958 19.5972 75.7958 17.2656 77.0912L17.3767 75.4998C17.3767 75.4998 17.3396 75.0186 18.2649 74.4635C19.5972 73.6493 22.1139 73.6123 23.7053 74.4635H23.7423Z" fill="#F2F2F2"/>
<path fill-rule="evenodd" clip-rule="evenodd" d="M25.0005 57.3284C26.4068 58.4757 28.1833 59.956 27.5541 62.2136L26.2588 66.8028C25.6666 68.8754 25.5926 72.6874 22.8169 72.6503L21.0034 72.6133L19.19 72.6503C16.4512 72.6874 16.3402 68.8754 15.7481 66.8028L14.4527 62.2136C13.8236 59.956 15.563 58.4757 17.0064 57.3284C18.6348 55.996 23.372 55.996 25.0005 57.3284Z" fill="#666666"/>
</g>
<defs>
<clipPath id="clip0_2415_92889">
<rect width="100" height="100" fill="white"/>
</clipPath>
</defs>
</svg>
