<svg width="22" height="22" viewBox="0 0 22 22" fill="none" xmlns="http://www.w3.org/2000/svg">
<path d="M11.0009 6.41377C10.9057 6.4138 10.8114 6.39414 10.7241 6.35602L4.99492 3.83518C4.87317 3.78098 4.76974 3.69265 4.69716 3.58088C4.62457 3.46912 4.58594 3.3387 4.58594 3.20543C4.58594 3.07216 4.62457 2.94175 4.69716 2.82998C4.76974 2.71821 4.87317 2.62988 4.99492 2.57568L10.7241 0.0548488C10.8114 0.0167404 10.9057 -0.00292969 11.0009 -0.00292969C11.0962 -0.00292969 11.1904 0.0167404 11.2778 0.0548488L17.0069 2.57568C17.1287 2.62988 17.2321 2.71821 17.3047 2.82998C17.3773 2.94175 17.4159 3.07216 17.4159 3.20543C17.4159 3.3387 17.3773 3.46912 17.3047 3.58088C17.2321 3.69265 17.1287 3.78098 17.0069 3.83518L11.2778 6.35602C11.1904 6.39414 11.0962 6.4138 11.0009 6.41377Z" fill="white"/>
<path d="M11.8279 7.61472C11.5669 7.7299 11.2847 7.78954 10.9994 7.78986C10.7141 7.79017 10.4318 7.73116 10.1706 7.61656L6.41406 5.96289V6.59356C6.41406 7.15272 6.70648 7.67889 7.17673 7.96397C8.49765 8.76606 9.74798 9.16664 10.9974 9.16664C12.2468 9.16664 13.4971 8.76514 14.8181 7.96397C15.2883 7.67889 15.5807 7.15364 15.5807 6.59356V5.96289L11.8279 7.61472Z" fill="white"/>
<path d="M20.3958 3.6665H19.2042C19.0575 4.47317 18.5258 5.16067 17.765 5.49984H20.1667V15.5832H1.83333V5.49984H4.235C3.86378 5.3348 3.53858 5.08146 3.28773 4.76191C3.03688 4.44235 2.86801 4.06629 2.79583 3.6665H1.60417C0.724167 3.6665 0 4.39067 0 5.27067V17.6457C0 18.5257 0.724167 19.2498 1.60417 19.2498H8.62583C8.51583 19.7082 8.23167 20.4507 7.47083 21.2207C7.33333 21.349 7.29667 21.5415 7.37 21.7157C7.44333 21.8898 7.60833 21.9998 7.79167 21.9998H14.2083C14.3917 21.9998 14.5567 21.8898 14.63 21.7157C14.7033 21.5415 14.6667 21.349 14.5292 21.2207C13.7683 20.4598 13.475 19.7082 13.365 19.2498H20.3958C21.2758 19.2498 22 18.5257 22 17.6457V5.27067C22 4.39067 21.2758 3.6665 20.3958 3.6665Z" fill="white"/>
</svg>
