<svg width="30" height="30" viewBox="0 0 30 30" fill="none" xmlns="http://www.w3.org/2000/svg">
<g clip-path="url(#clip0_2433_92112)">
<path d="M14.1288 10.4288L8.38471 8.41797C8.38471 10.2539 8.36918 10.2409 8.42691 10.4141C8.46689 10.5393 8.53446 10.6539 8.62464 10.7494C8.71482 10.845 8.8253 10.9191 8.94793 10.9662C15.2067 13.3737 14.7667 13.2314 15.0003 13.2314C15.232 13.2314 14.7865 13.3763 21.0521 10.9662C21.2181 10.9026 21.3609 10.7901 21.4616 10.6436C21.5623 10.4971 21.6161 10.3235 21.6159 10.1457V8.51408L15.8343 10.4417C15.2801 10.6265 14.6802 10.622 14.1288 10.4288Z" fill="url(#paint0_linear_2433_92112)"/>
<path d="M5.66708 5.5679C5.87865 5.70808 5.17097 5.43046 14.7102 8.76904C14.8939 8.8338 15.094 8.83545 15.2787 8.77373L23.3888 6.07016V11.0284C23.3888 11.271 23.4873 11.4914 23.6467 11.6502C24.1975 12.2011 25.147 11.8089 25.147 11.0284C25.147 5.03416 25.1455 4.8986 25.1453 4.89936C25.1717 4.52445 24.9355 4.14649 24.5457 4.01656C15.1605 0.88838 15.2093 0.882812 15.0009 0.882812C14.7847 0.882812 14.8475 0.884629 5.8851 4.02066C5.21651 4.25462 5.08382 5.15079 5.66708 5.5679ZM5.28906 19.4063H7.06135V21.178H5.28906V19.4063Z" fill="url(#paint1_linear_2433_92112)"/>
<path d="M29.1209 4.85059H26.9044V11.0284C26.9044 12.483 25.7211 13.6657 24.267 13.6657C23.3311 13.6657 22.5076 13.1758 22.0393 12.4391C21.7972 12.5764 22.1994 12.4089 15.9471 14.8139C15.3375 15.0485 14.6625 15.0485 14.0529 14.8139L8.3164 12.6073C7.81883 12.416 7.39095 12.0783 7.08919 11.6389C6.78744 11.1995 6.626 10.6788 6.62616 10.1458V7.80323L5.30339 7.33965C4.2467 6.97042 3.53696 5.96999 3.53696 4.85059H0.879112C0.393842 4.85059 0 5.24443 0 5.7297V24.7086C0 25.1938 0.393842 25.5877 0.879112 25.5877H8.82553V27.3594H6.1743C5.68903 27.3594 5.29519 27.7532 5.29519 28.2385C5.29519 28.7243 5.68903 29.1176 6.1743 29.1176H23.8257C24.311 29.1176 24.7048 28.7243 24.7048 28.2385C24.7048 27.7532 24.311 27.3594 23.8257 27.3594H21.1744V25.5877H29.1209C29.6062 25.5877 30 25.1938 30 24.7086V5.7297C30 5.24443 29.6062 4.85059 29.1209 4.85059ZM8.81867 22.0572C8.81867 22.543 8.42483 22.9363 7.93956 22.9363H4.40904C3.92377 22.9363 3.52993 22.543 3.52993 22.0572V18.5272C3.52993 18.0414 3.92377 17.6481 4.40904 17.6481H7.93956C8.42483 17.6481 8.81867 18.0414 8.81867 18.5272V22.0572ZM25.591 22.9363H11.4695C10.9842 22.9363 10.5904 22.543 10.5904 22.0572C10.5904 21.5719 10.9842 21.178 11.4695 21.178H25.591C26.0762 21.178 26.4701 21.5719 26.4701 22.0572C26.4701 22.543 26.0762 22.9363 25.591 22.9363ZM25.591 19.4063H11.4695C10.9842 19.4063 10.5904 19.0125 10.5904 18.5272C10.5904 18.0414 10.9842 17.6481 11.4695 17.6481H25.591C26.0762 17.6481 26.4701 18.0414 26.4701 18.5272C26.4701 19.0125 26.0762 19.4063 25.591 19.4063Z" fill="url(#paint2_linear_2433_92112)"/>
</g>
<defs>
<linearGradient id="paint0_linear_2433_92112" x1="8.38281" y1="10.8255" x2="21.6159" y2="10.8255" gradientUnits="userSpaceOnUse">
<stop stop-color="#054A80"/>
<stop offset="1" stop-color="#9BC582"/>
</linearGradient>
<linearGradient id="paint1_linear_2433_92112" x1="5.28906" y1="11.0304" x2="25.1473" y2="11.0304" gradientUnits="userSpaceOnUse">
<stop stop-color="#054A80"/>
<stop offset="1" stop-color="#9BC582"/>
</linearGradient>
<linearGradient id="paint2_linear_2433_92112" x1="-2.23517e-07" y1="16.9841" x2="30" y2="16.9841" gradientUnits="userSpaceOnUse">
<stop stop-color="#054A80"/>
<stop offset="1" stop-color="#9BC582"/>
</linearGradient>
<clipPath id="clip0_2433_92112">
<rect width="30" height="30" fill="white"/>
</clipPath>
</defs>
</svg>
