<svg width="30" height="30" viewBox="0 0 30 30" fill="none" xmlns="http://www.w3.org/2000/svg">
<g clip-path="url(#clip0_2433_92157)">
<path d="M22.3125 22.5469C21.9844 22.5938 21.6562 22.6875 21.375 22.875L20.0625 21.5625V24.2344C20.0625 24.2812 20.0625 24.3281 20.0156 24.375V24.4219C19.9219 24.6094 19.7812 24.75 19.5469 24.75C19.3594 24.75 19.1719 24.6094 19.0781 24.4219V24.375C19.0781 24.3281 19.0312 24.2812 19.0312 24.2344V21.5625L17.7188 22.875C17.4375 22.7344 17.1094 22.5938 16.7812 22.5469C16.875 22.4062 16.9688 22.2656 17.0625 22.125L19.0312 20.1562V17.0625H20.0156V20.1562L21.9844 22.125C22.125 22.2656 22.2188 22.4062 22.3125 22.5469ZM25.9688 23.4844H22.7812C21.7031 23.4844 20.8594 24.3281 20.8594 25.4062V27.75H27.9375V25.4062C27.8906 24.375 27.0469 23.4844 25.9688 23.4844ZM24.375 19.2188C23.4844 19.2188 22.7344 19.9688 22.7344 20.8594C22.7344 21.75 23.4844 22.5 24.375 22.5C25.2656 22.5 26.0156 21.75 26.0156 20.8594C26.0156 19.9219 25.2656 19.2188 24.375 19.2188ZM16.3594 23.4844H13.1719C12.0938 23.4844 11.25 24.3281 11.25 25.4062V27.75H18.2812V25.4062C18.2812 24.375 17.3906 23.4844 16.3594 23.4844ZM14.7656 19.2188C13.875 19.2188 13.125 19.9688 13.125 20.8594C13.125 21.75 13.875 22.5 14.7656 22.5C15.6562 22.5 16.4062 21.75 16.4062 20.8594C16.4062 19.9219 15.6562 19.2188 14.7656 19.2188ZM29.25 2.25H19.5469H9.1875C8.8125 2.25 8.53125 2.53125 8.53125 2.90625C8.53125 3.28125 8.8125 3.5625 9.1875 3.5625H29.3438C29.5312 3.5625 29.6719 3.51562 29.8125 3.375C29.9531 3.23437 30 3.04687 30 2.85937C29.9531 2.53125 29.625 2.25 29.25 2.25ZM23.25 6.46875C21.375 6.46875 19.8281 8.01562 19.8281 9.89062C19.8281 11.7656 21.375 13.3125 23.25 13.3125C25.125 13.3125 26.6719 11.7656 26.6719 9.89062C26.6719 8.01562 25.125 6.46875 23.25 6.46875ZM25.4062 8.85937L24 9.9375L25.2656 11.2031C25.4531 11.3906 25.4531 11.7187 25.2656 11.9062C25.1719 12 25.0312 12.0469 24.9375 12.0469C24.7969 12.0469 24.7031 12 24.5625 11.9062L22.9219 10.2656C22.9219 10.2656 22.9219 10.2188 22.875 10.2188C22.875 10.2188 22.875 10.1719 22.8281 10.1719C22.8281 10.125 22.7812 10.125 22.7812 10.0781C22.7812 10.0313 22.7812 10.0312 22.7812 9.98438V9.9375V7.59375C22.7812 7.3125 23.0156 7.07812 23.2969 7.07812C23.5781 7.07812 23.8125 7.3125 23.8125 7.59375V8.95312L24.8906 8.15625C25.125 7.96875 25.4062 8.01562 25.5938 8.25C25.6875 8.39062 25.6406 8.67187 25.4062 8.85937ZM23.25 6.46875C21.375 6.46875 19.8281 8.01562 19.8281 9.89062C19.8281 11.7656 21.375 13.3125 23.25 13.3125C25.125 13.3125 26.6719 11.7656 26.6719 9.89062C26.6719 8.01562 25.125 6.46875 23.25 6.46875ZM25.4062 8.85937L24 9.9375L25.2656 11.2031C25.4531 11.3906 25.4531 11.7187 25.2656 11.9062C25.1719 12 25.0312 12.0469 24.9375 12.0469C24.7969 12.0469 24.7031 12 24.5625 11.9062L22.9219 10.2656C22.9219 10.2656 22.9219 10.2188 22.875 10.2188C22.875 10.2188 22.875 10.1719 22.8281 10.1719C22.8281 10.125 22.7812 10.125 22.7812 10.0781C22.7812 10.0313 22.7812 10.0312 22.7812 9.98438V9.9375V7.59375C22.7812 7.3125 23.0156 7.07812 23.2969 7.07812C23.5781 7.07812 23.8125 7.3125 23.8125 7.59375V8.95312L24.8906 8.15625C25.125 7.96875 25.4062 8.01562 25.5938 8.25C25.6875 8.39062 25.6406 8.67187 25.4062 8.85937ZM23.25 6.46875C21.375 6.46875 19.8281 8.01562 19.8281 9.89062C19.8281 11.7656 21.375 13.3125 23.25 13.3125C25.125 13.3125 26.6719 11.7656 26.6719 9.89062C26.6719 8.01562 25.125 6.46875 23.25 6.46875ZM25.4062 8.85937L24 9.9375L25.2656 11.2031C25.4531 11.3906 25.4531 11.7187 25.2656 11.9062C25.1719 12 25.0312 12.0469 24.9375 12.0469C24.7969 12.0469 24.7031 12 24.5625 11.9062L22.9219 10.2656C22.9219 10.2656 22.9219 10.2188 22.875 10.2188C22.875 10.2188 22.875 10.1719 22.8281 10.1719C22.8281 10.125 22.7812 10.125 22.7812 10.0781C22.7812 10.0313 22.7812 10.0312 22.7812 9.98438V9.9375V7.59375C22.7812 7.3125 23.0156 7.07812 23.2969 7.07812C23.5781 7.07812 23.8125 7.3125 23.8125 7.59375V8.95312L24.8906 8.15625C25.125 7.96875 25.4062 8.01562 25.5938 8.25C25.6875 8.39062 25.6406 8.67187 25.4062 8.85937ZM23.25 6.46875C21.375 6.46875 19.8281 8.01562 19.8281 9.89062C19.8281 11.7656 21.375 13.3125 23.25 13.3125C25.125 13.3125 26.6719 11.7656 26.6719 9.89062C26.6719 8.01562 25.125 6.46875 23.25 6.46875ZM25.4062 8.85937L24 9.9375L25.2656 11.2031C25.4531 11.3906 25.4531 11.7187 25.2656 11.9062C25.1719 12 25.0312 12.0469 24.9375 12.0469C24.7969 12.0469 24.7031 12 24.5625 11.9062L22.9219 10.2656C22.9219 10.2656 22.9219 10.2188 22.875 10.2188C22.875 10.2188 22.875 10.1719 22.8281 10.1719C22.8281 10.125 22.7812 10.125 22.7812 10.0781C22.7812 10.0313 22.7812 10.0312 22.7812 9.98438V9.9375V7.59375C22.7812 7.3125 23.0156 7.07812 23.2969 7.07812C23.5781 7.07812 23.8125 7.3125 23.8125 7.59375V8.95312L24.8906 8.15625C25.125 7.96875 25.4062 8.01562 25.5938 8.25C25.6875 8.39062 25.6406 8.67187 25.4062 8.85937ZM23.25 6.46875C21.375 6.46875 19.8281 8.01562 19.8281 9.89062C19.8281 11.7656 21.375 13.3125 23.25 13.3125C25.125 13.3125 26.6719 11.7656 26.6719 9.89062C26.6719 8.01562 25.125 6.46875 23.25 6.46875ZM25.4062 8.85937L24 9.9375L25.2656 11.2031C25.4531 11.3906 25.4531 11.7187 25.2656 11.9062C25.1719 12 25.0312 12.0469 24.9375 12.0469C24.7969 12.0469 24.7031 12 24.5625 11.9062L22.9219 10.2656C22.9219 10.2656 22.9219 10.2188 22.875 10.2188C22.875 10.2188 22.875 10.1719 22.8281 10.1719C22.8281 10.125 22.7812 10.125 22.7812 10.0781C22.7812 10.0313 22.7812 10.0312 22.7812 9.98438V9.9375V7.59375C22.7812 7.3125 23.0156 7.07812 23.2969 7.07812C23.5781 7.07812 23.8125 7.3125 23.8125 7.59375V8.95312L24.8906 8.15625C25.125 7.96875 25.4062 8.01562 25.5938 8.25C25.6875 8.39062 25.6406 8.67187 25.4062 8.85937ZM23.25 6.46875C21.375 6.46875 19.8281 8.01562 19.8281 9.89062C19.8281 11.7656 21.375 13.3125 23.25 13.3125C25.125 13.3125 26.6719 11.7656 26.6719 9.89062C26.6719 8.01562 25.125 6.46875 23.25 6.46875ZM25.4062 8.85937L24 9.9375L25.2656 11.2031C25.4531 11.3906 25.4531 11.7187 25.2656 11.9062C25.1719 12 25.0312 12.0469 24.9375 12.0469C24.7969 12.0469 24.7031 12 24.5625 11.9062L22.9219 10.2656C22.9219 10.2656 22.9219 10.2188 22.875 10.2188C22.875 10.2188 22.875 10.1719 22.8281 10.1719C22.8281 10.125 22.7812 10.125 22.7812 10.0781C22.7812 10.0313 22.7812 10.0312 22.7812 9.98438V9.9375V7.59375C22.7812 7.3125 23.0156 7.07812 23.2969 7.07812C23.5781 7.07812 23.8125 7.3125 23.8125 7.59375V8.95312L24.8906 8.15625C25.125 7.96875 25.4062 8.01562 25.5938 8.25C25.6875 8.39062 25.6406 8.67187 25.4062 8.85937ZM10.5 4.54687V9.60938C10.9219 10.3125 11.2031 11.1562 11.2031 12.0938V16.3594H27.5156C28.0781 16.3594 28.5938 15.8906 28.5938 15.2812V4.54687H10.5ZM16.5938 10.3125C16.5938 10.0313 16.8281 9.79687 17.1094 9.79687C17.3906 9.79687 17.625 10.0313 17.625 10.3125V13.5469C17.625 13.8281 17.3906 14.0625 17.1094 14.0625C16.8281 14.0625 16.5938 13.8281 16.5938 13.5469V10.3125ZM15.375 12C15.375 11.7188 15.6094 11.4844 15.8906 11.4844C16.1719 11.4844 16.4062 11.7188 16.4062 12V13.5938C16.4062 13.875 16.1719 14.1094 15.8906 14.1094C15.6094 14.1094 15.375 13.875 15.375 13.5938V12ZM14.1094 11.3906C14.1094 11.1094 14.3438 10.875 14.625 10.875C14.9062 10.875 15.1406 11.1094 15.1406 11.3906V13.5938C15.1406 13.875 14.9062 14.1094 14.625 14.1094C14.3438 14.1094 14.1094 13.875 14.1094 13.5938V11.3906ZM12.8906 12.6094C12.8906 12.3281 13.125 12.0938 13.4062 12.0938C13.6875 12.0938 13.9219 12.3281 13.9219 12.6094V13.5469C13.9219 13.8281 13.6875 14.0625 13.4062 14.0625C13.125 14.0625 12.8906 13.8281 12.8906 13.5469V12.6094ZM17.8594 15.4688H12.5625C12.2812 15.4688 12.0469 15.2344 12.0469 14.9531C12.0469 14.6719 12.2812 14.4375 12.5625 14.4375H17.9062C18.1875 14.4375 18.4219 14.6719 18.4219 14.9531C18.375 15.2344 18.1406 15.4688 17.8594 15.4688ZM23.25 14.2969C20.8125 14.2969 18.8438 12.3281 18.8438 9.89062C18.8438 7.45312 20.8125 5.48437 23.25 5.48437C25.6875 5.48437 27.6562 7.45312 27.6562 9.89062C27.6562 12.3281 25.6875 14.2969 23.25 14.2969ZM23.25 6.46875C21.375 6.46875 19.8281 8.01562 19.8281 9.89062C19.8281 11.7656 21.375 13.3125 23.25 13.3125C25.125 13.3125 26.6719 11.7656 26.6719 9.89062C26.6719 8.01562 25.125 6.46875 23.25 6.46875ZM25.4062 8.85937L24 9.9375L25.2656 11.2031C25.4531 11.3906 25.4531 11.7187 25.2656 11.9062C25.1719 12 25.0312 12.0469 24.9375 12.0469C24.7969 12.0469 24.7031 12 24.5625 11.9062L22.9219 10.2656C22.9219 10.2656 22.9219 10.2188 22.875 10.2188C22.875 10.2188 22.875 10.1719 22.8281 10.1719C22.8281 10.125 22.7812 10.125 22.7812 10.0781C22.7812 10.0313 22.7812 10.0312 22.7812 9.98438V9.9375V7.59375C22.7812 7.3125 23.0156 7.07812 23.2969 7.07812C23.5781 7.07812 23.8125 7.3125 23.8125 7.59375V8.95312L24.8906 8.15625C25.125 7.96875 25.4062 8.01562 25.5938 8.25C25.6875 8.39062 25.6406 8.67187 25.4062 8.85937ZM23.25 6.46875C21.375 6.46875 19.8281 8.01562 19.8281 9.89062C19.8281 11.7656 21.375 13.3125 23.25 13.3125C25.125 13.3125 26.6719 11.7656 26.6719 9.89062C26.6719 8.01562 25.125 6.46875 23.25 6.46875ZM25.4062 8.85937L24 9.9375L25.2656 11.2031C25.4531 11.3906 25.4531 11.7187 25.2656 11.9062C25.1719 12 25.0312 12.0469 24.9375 12.0469C24.7969 12.0469 24.7031 12 24.5625 11.9062L22.9219 10.2656C22.9219 10.2656 22.9219 10.2188 22.875 10.2188C22.875 10.2188 22.875 10.1719 22.8281 10.1719C22.8281 10.125 22.7812 10.125 22.7812 10.0781C22.7812 10.0313 22.7812 10.0312 22.7812 9.98438V9.9375V7.59375C22.7812 7.3125 23.0156 7.07812 23.2969 7.07812C23.5781 7.07812 23.8125 7.3125 23.8125 7.59375V8.95312L24.8906 8.15625C25.125 7.96875 25.4062 8.01562 25.5938 8.25C25.6875 8.39062 25.6406 8.67187 25.4062 8.85937ZM23.25 6.46875C21.375 6.46875 19.8281 8.01562 19.8281 9.89062C19.8281 11.7656 21.375 13.3125 23.25 13.3125C25.125 13.3125 26.6719 11.7656 26.6719 9.89062C26.6719 8.01562 25.125 6.46875 23.25 6.46875ZM25.4062 8.85937L24 9.9375L25.2656 11.2031C25.4531 11.3906 25.4531 11.7187 25.2656 11.9062C25.1719 12 25.0312 12.0469 24.9375 12.0469C24.7969 12.0469 24.7031 12 24.5625 11.9062L22.9219 10.2656C22.9219 10.2656 22.9219 10.2188 22.875 10.2188C22.875 10.2188 22.875 10.1719 22.8281 10.1719C22.8281 10.125 22.7812 10.125 22.7812 10.0781C22.7812 10.0313 22.7812 10.0312 22.7812 9.98438V9.9375V7.59375C22.7812 7.3125 23.0156 7.07812 23.2969 7.07812C23.5781 7.07812 23.8125 7.3125 23.8125 7.59375V8.95312L24.8906 8.15625C25.125 7.96875 25.4062 8.01562 25.5938 8.25C25.6875 8.39062 25.6406 8.67187 25.4062 8.85937ZM23.25 6.46875C21.375 6.46875 19.8281 8.01562 19.8281 9.89062C19.8281 11.7656 21.375 13.3125 23.25 13.3125C25.125 13.3125 26.6719 11.7656 26.6719 9.89062C26.6719 8.01562 25.125 6.46875 23.25 6.46875ZM25.4062 8.85937L24 9.9375L25.2656 11.2031C25.4531 11.3906 25.4531 11.7187 25.2656 11.9062C25.1719 12 25.0312 12.0469 24.9375 12.0469C24.7969 12.0469 24.7031 12 24.5625 11.9062L22.9219 10.2656C22.9219 10.2656 22.9219 10.2188 22.875 10.2188C22.875 10.2188 22.875 10.1719 22.8281 10.1719C22.8281 10.125 22.7812 10.125 22.7812 10.0781C22.7812 10.0313 22.7812 10.0312 22.7812 9.98438V9.9375V7.59375C22.7812 7.3125 23.0156 7.07812 23.2969 7.07812C23.5781 7.07812 23.8125 7.3125 23.8125 7.59375V8.95312L24.8906 8.15625C25.125 7.96875 25.4062 8.01562 25.5938 8.25C25.6875 8.39062 25.6406 8.67187 25.4062 8.85937ZM23.25 6.46875C21.375 6.46875 19.8281 8.01562 19.8281 9.89062C19.8281 11.7656 21.375 13.3125 23.25 13.3125C25.125 13.3125 26.6719 11.7656 26.6719 9.89062C26.6719 8.01562 25.125 6.46875 23.25 6.46875ZM25.4062 8.85937L24 9.9375L25.2656 11.2031C25.4531 11.3906 25.4531 11.7187 25.2656 11.9062C25.1719 12 25.0312 12.0469 24.9375 12.0469C24.7969 12.0469 24.7031 12 24.5625 11.9062L22.9219 10.2656C22.9219 10.2656 22.9219 10.2188 22.875 10.2188C22.875 10.2188 22.875 10.1719 22.8281 10.1719C22.8281 10.125 22.7812 10.125 22.7812 10.0781C22.7812 10.0313 22.7812 10.0312 22.7812 9.98438V9.9375V7.59375C22.7812 7.3125 23.0156 7.07812 23.2969 7.07812C23.5781 7.07812 23.8125 7.3125 23.8125 7.59375V8.95312L24.8906 8.15625C25.125 7.96875 25.4062 8.01562 25.5938 8.25C25.6875 8.39062 25.6406 8.67187 25.4062 8.85937ZM23.25 6.46875C21.375 6.46875 19.8281 8.01562 19.8281 9.89062C19.8281 11.7656 21.375 13.3125 23.25 13.3125C25.125 13.3125 26.6719 11.7656 26.6719 9.89062C26.6719 8.01562 25.125 6.46875 23.25 6.46875ZM25.4062 8.85937L24 9.9375L25.2656 11.2031C25.4531 11.3906 25.4531 11.7187 25.2656 11.9062C25.1719 12 25.0312 12.0469 24.9375 12.0469C24.7969 12.0469 24.7031 12 24.5625 11.9062L22.9219 10.2656C22.9219 10.2656 22.9219 10.2188 22.875 10.2188C22.875 10.2188 22.875 10.1719 22.8281 10.1719C22.8281 10.125 22.7812 10.125 22.7812 10.0781C22.7812 10.0313 22.7812 10.0312 22.7812 9.98438V9.9375V7.59375C22.7812 7.3125 23.0156 7.07812 23.2969 7.07812C23.5781 7.07812 23.8125 7.3125 23.8125 7.59375V8.95312L24.8906 8.15625C25.125 7.96875 25.4062 8.01562 25.5938 8.25C25.6875 8.39062 25.6406 8.67187 25.4062 8.85937ZM23.25 6.46875C21.375 6.46875 19.8281 8.01562 19.8281 9.89062C19.8281 11.7656 21.375 13.3125 23.25 13.3125C25.125 13.3125 26.6719 11.7656 26.6719 9.89062C26.6719 8.01562 25.125 6.46875 23.25 6.46875ZM25.4062 8.85937L24 9.9375L25.2656 11.2031C25.4531 11.3906 25.4531 11.7187 25.2656 11.9062C25.1719 12 25.0312 12.0469 24.9375 12.0469C24.7969 12.0469 24.7031 12 24.5625 11.9062L22.9219 10.2656C22.9219 10.2656 22.9219 10.2188 22.875 10.2188C22.875 10.2188 22.875 10.1719 22.8281 10.1719C22.8281 10.125 22.7812 10.125 22.7812 10.0781C22.7812 10.0313 22.7812 10.0312 22.7812 9.98438V9.9375V7.59375C22.7812 7.3125 23.0156 7.07812 23.2969 7.07812C23.5781 7.07812 23.8125 7.3125 23.8125 7.59375V8.95312L24.8906 8.15625C25.125 7.96875 25.4062 8.01562 25.5938 8.25C25.6875 8.39062 25.6406 8.67187 25.4062 8.85937ZM6.46875 8.34375H5.48438C5.39062 8.34375 5.25 8.34375 5.10938 8.34375C4.96875 8.34375 4.875 8.34375 4.73438 8.34375H3.75C1.6875 8.34375 0 10.0312 0 12.0938V16.6406C0 17.3438 0.421875 17.9063 0.984375 18.1406V11.5312C0.984375 11.25 1.21875 11.0156 1.5 11.0156C1.78125 11.0156 2.01562 11.25 2.01562 11.5312V26.8594C2.01562 27.3281 2.39062 27.75 2.90625 27.75C3.375 27.75 3.79688 27.3281 3.79688 26.8594V20.7656C3.79688 20.0156 4.40625 19.4063 5.15625 19.4063C5.90625 19.4063 6.51562 20.0156 6.51562 20.7656V26.8594C6.51562 27.3281 6.89062 27.75 7.40625 27.75C7.92188 27.75 8.29688 27.3281 8.29688 26.8594V11.5312C8.29688 11.25 8.53125 11.0156 8.8125 11.0156C9.09375 11.0156 9.32812 11.25 9.32812 11.5312V18.1406C9.9375 17.9063 10.3125 17.2969 10.3125 16.6406V12.0938C10.2188 10.0312 8.53125 8.34375 6.46875 8.34375ZM5.10938 2.53125C3.75 2.53125 2.71875 3.51562 2.71875 4.78125C2.71875 6.09375 3.75 7.21875 4.92188 7.35938H5.29688C6.51562 7.26562 7.5 6.09375 7.5 4.78125C7.5 3.51562 6.46875 2.53125 5.10938 2.53125Z" fill="url(#paint0_linear_2433_92157)"/>
</g>
<defs>
<linearGradient id="paint0_linear_2433_92157" x1="-2.23517e-07" y1="15" x2="30" y2="15" gradientUnits="userSpaceOnUse">
<stop stop-color="#054A80"/>
<stop offset="1" stop-color="#9BC582"/>
</linearGradient>
<clipPath id="clip0_2433_92157">
<rect width="30" height="30" fill="white"/>
</clipPath>
</defs>
</svg>
