<svg width="24" height="13" viewBox="0 0 24 13" fill="none" xmlns="http://www.w3.org/2000/svg">
<path d="M2.01792 7.50166H19.5852L16.2932 10.7898C15.3483 11.7347 16.7656 13.1558 17.7105 12.2109L20.7077 9.21L22.7108 7.20685C22.8978 7.01914 23.0027 6.76501 23.0027 6.50008C23.0027 6.23516 22.8978 5.98102 22.7108 5.79331L17.7067 0.789215C17.6124 0.692479 17.4995 0.615823 17.3748 0.563861C17.2501 0.511898 17.1162 0.485704 16.9811 0.486853C16.7815 0.487376 16.5867 0.547484 16.4216 0.659471C16.2564 0.771457 16.1285 0.930217 16.0542 1.11539C15.9799 1.30057 15.9626 1.50373 16.0045 1.69881C16.0464 1.89389 16.1456 2.072 16.2894 2.21032L19.5889 5.49851H1.96501C0.577922 5.57032 0.679969 7.56969 2.01792 7.50166Z" fill="#262626"/>
</svg>
