<svg width="30" height="34" viewBox="0 0 30 34" fill="none" xmlns="http://www.w3.org/2000/svg">
<path d="M21.9727 14.9414H19.9805V13.9453C19.9805 11.1992 17.7461 8.96484 15 8.96484C12.2539 8.96484 10.0195 11.1992 10.0195 13.9453V14.9414H8.02734V23.043H21.9727V14.9414ZM17.9883 14.9414H15.9961V18.9258H14.0039V14.9414H12.0117V13.9453C12.0117 12.2975 13.3522 10.957 15 10.957C16.6478 10.957 17.9883 12.2975 17.9883 13.9453V14.9414Z" fill="url(#paint0_linear_2433_92150)"/>
<path d="M0.0585938 25.0352C0.0585938 26.683 1.39907 28.0234 3.04688 28.0234C3.85046 28.0234 4.57787 27.701 5.11543 27.1832L12.0483 30.6496C12.0336 30.7696 12.0117 30.8877 12.0117 31.0117C12.0117 32.6595 13.3522 34 15 34C16.6478 34 17.9883 32.6595 17.9883 31.0117C17.9883 30.8877 17.9664 30.7696 17.9517 30.6496L24.8846 27.1832C25.4221 27.701 26.1495 28.0234 26.9531 28.0234C28.6009 28.0234 29.9414 26.683 29.9414 25.0352C29.9414 23.7382 29.1061 22.6429 27.9492 22.2304V11.7696C29.1061 11.3571 29.9414 10.2618 29.9414 8.96484C29.9414 7.31704 28.6009 5.97656 26.9531 5.97656C26.1495 5.97656 25.4221 6.29903 24.8846 6.8168L17.9517 3.35039C17.9664 3.2304 17.9883 3.11233 17.9883 2.98828C17.9883 1.34048 16.6478 0 15 0C13.3522 0 12.0117 1.34048 12.0117 2.98828C12.0117 3.11233 12.0336 3.2304 12.0483 3.35039L5.11543 6.8168C4.57787 6.29903 3.85046 5.97656 3.04688 5.97656C1.39907 5.97656 0.0585938 7.31704 0.0585938 8.96484C0.0585938 10.2618 0.893852 11.3571 2.05078 11.7696V22.2304C0.893852 22.6429 0.0585938 23.7382 0.0585938 25.0352ZM4.04297 11.7696C5.1999 11.3571 6.03516 10.2618 6.03516 8.96484C6.03516 8.8408 6.01324 8.72273 5.99857 8.60273L12.9314 5.13632C13.469 5.65409 14.1964 5.97656 15 5.97656C15.8036 5.97656 16.531 5.65409 17.0686 5.13632L24.0014 8.60273C23.9868 8.72273 23.9648 8.8408 23.9648 8.96484C23.9648 10.2618 24.8001 11.3571 25.957 11.7696V22.2304C24.8001 22.6429 23.9648 23.7382 23.9648 25.0352C23.9648 25.1592 23.9868 25.2773 24.0014 25.3973L17.0686 28.8637C16.531 28.3459 15.8036 28.0234 15 28.0234C14.1964 28.0234 13.469 28.3459 12.9314 28.8637L5.99857 25.3973C6.01324 25.2773 6.03516 25.1592 6.03516 25.0352C6.03516 23.7382 5.1999 22.6429 4.04297 22.2304V11.7696Z" fill="url(#paint1_linear_2433_92150)"/>
<defs>
<linearGradient id="paint0_linear_2433_92150" x1="23.1878" y1="-23.4783" x2="-8.50255" y2="-19.187" gradientUnits="userSpaceOnUse">
<stop offset="0.006561" stop-color="#186AF7"/>
<stop offset="0.7894" stop-color="#00437F"/>
</linearGradient>
<linearGradient id="paint1_linear_2433_92150" x1="32.5453" y1="-78.3533" x2="-35.6237" y2="-70.1627" gradientUnits="userSpaceOnUse">
<stop offset="0.006561" stop-color="#186AF7"/>
<stop offset="0.7894" stop-color="#00437F"/>
</linearGradient>
</defs>
</svg>
