<svg width="22" height="18" viewBox="0 0 22 18" fill="none" xmlns="http://www.w3.org/2000/svg">
<path d="M15.015 16.0755V17.2636C15.015 17.4515 14.9403 17.6316 14.8075 17.7645C14.6747 17.8973 14.4945 17.9719 14.3066 17.9719C14.1188 17.9719 13.9386 17.8973 13.8058 17.7645C13.6729 17.6316 13.5983 17.4515 13.5983 17.2636V16.0831H14.7789C14.8582 16.0831 14.9366 16.0802 15.015 16.0755ZM13.5983 16.0831H7.22331C6.284 16.0831 5.38316 15.7099 4.71897 15.0457C4.05478 14.3815 3.68164 13.4807 3.68164 12.5414V9.63062L9.0782 12.6122C9.66924 12.9302 10.3299 13.0967 11.0011 13.0967C11.6722 13.0967 12.3329 12.9302 12.924 12.6122L13.5983 12.2401V16.0831ZM15.015 11.4572L18.3205 9.63062V12.5414C18.3206 13.4399 17.9792 14.3048 17.3654 14.961C16.7517 15.6172 15.9115 16.0156 15.015 16.0755V11.4572Z" fill="#19517E"/>
<path d="M13.5977 11.1607L12.4662 11.7859C12.0158 12.0286 11.5121 12.1557 11.0004 12.1557C10.4888 12.1557 9.9851 12.0286 9.53466 11.7859L1.68255 7.44715C1.14799 7.15154 0.847656 6.63399 0.847656 6.09282C0.847656 5.55071 1.14799 5.03315 1.68255 4.73849L9.53466 0.398767C9.98526 0.156557 10.4889 0.0297852 11.0004 0.0297852C11.512 0.0297852 12.0156 0.156557 12.4662 0.398767L20.3183 4.73849C20.8529 5.03315 21.1532 5.55071 21.1532 6.09282C21.1532 6.63399 20.8529 7.15154 20.3183 7.44715L15.0143 10.3778V9.70815C15.0144 9.61514 14.9961 9.52303 14.9604 9.43713C14.9248 9.35122 14.8725 9.27322 14.8065 9.2076L11.501 5.90204C11.4353 5.83631 11.3572 5.78417 11.2713 5.74859C11.1854 5.71302 11.0934 5.69471 11.0004 5.69471C10.9075 5.69471 10.8154 5.71302 10.7295 5.74859C10.6437 5.78417 10.5656 5.83631 10.4999 5.90204C10.4341 5.96778 10.382 6.04581 10.3464 6.1317C10.3109 6.21759 10.2925 6.30964 10.2925 6.4026C10.2925 6.49556 10.3109 6.58761 10.3464 6.6735C10.382 6.75938 10.4341 6.83742 10.4999 6.90315L13.5977 10.0019V11.1607Z" fill="#19517E"/>
</svg>
