<svg width="34" height="34" viewBox="0 0 34 34" fill="none" xmlns="http://www.w3.org/2000/svg">
<path d="M16.9991 2.71973C15.3039 2.71973 13.9391 3.44461 13.9391 4.34527V5.43973H11.5591V8.83973H22.4391V5.43973H20.0591V4.34527C20.0591 3.44427 18.6944 2.71973 16.9991 2.71973ZM7.13914 7.47973C6.57406 7.47973 6.11914 7.93465 6.11914 8.49973V30.2597C6.11914 30.8248 6.57406 31.2797 7.13914 31.2797H26.8591C27.4242 31.2797 27.8791 30.8248 27.8791 30.2597V8.49973C27.8791 7.93465 27.4242 7.47973 26.8591 7.47973H23.7991V9.51973C23.7991 9.87571 23.4751 10.1997 23.1191 10.1997H10.8791C10.5232 10.1997 10.1991 9.87571 10.1991 9.51973V7.47973H7.13914ZM13.5991 13.5786C13.7373 13.5753 13.8731 13.6141 13.9886 13.6899C14.1042 13.7657 14.1938 13.8749 14.2458 14.003C14.2977 14.131 14.3093 14.2718 14.2792 14.4067C14.2491 14.5415 14.1786 14.664 14.0772 14.7578L12.0372 16.7978C11.9099 16.9236 11.7381 16.9942 11.5591 16.9942C11.3802 16.9942 11.2084 16.9236 11.0811 16.7978L9.7211 15.4378C9.65502 15.3756 9.60205 15.3008 9.5653 15.2179C9.52856 15.1349 9.50879 15.0454 9.50716 14.9547C9.50553 14.864 9.52207 14.7739 9.5558 14.6897C9.58954 14.6054 9.63978 14.5288 9.70359 14.4643C9.76739 14.3998 9.84346 14.3487 9.92731 14.3141C10.0112 14.2794 10.1011 14.2619 10.1918 14.2625C10.2826 14.2632 10.3722 14.2819 10.4556 14.3178C10.5389 14.3536 10.6143 14.4058 10.6772 14.4711L11.5591 15.3528L13.1211 13.7911C13.226 13.6819 13.3643 13.6109 13.5141 13.5892C13.5422 13.5838 13.5706 13.5805 13.5991 13.5786ZM17.6156 15.2997C17.6367 15.2987 17.658 15.2987 17.6791 15.2997H23.7991C23.9795 15.2997 24.1524 15.3714 24.28 15.4989C24.4075 15.6264 24.4791 15.7994 24.4791 15.9797C24.4791 16.1601 24.4075 16.333 24.28 16.4606C24.1524 16.5881 23.9795 16.6597 23.7991 16.6597H17.6791C17.5898 16.6639 17.5006 16.6505 17.4165 16.6202C17.3324 16.5899 17.2551 16.5433 17.1889 16.4832C17.1228 16.423 17.0692 16.3504 17.0312 16.2695C16.9931 16.1886 16.9714 16.101 16.9672 16.0117C16.963 15.9224 16.9764 15.8331 17.0067 15.749C17.037 15.6649 17.0836 15.5876 17.1437 15.5215C17.2039 15.4554 17.2765 15.4018 17.3574 15.3637C17.4383 15.3257 17.5263 15.3039 17.6156 15.2997ZM13.5991 18.6786C13.7373 18.6753 13.8731 18.7141 13.9886 18.7899C14.1042 18.8657 14.1938 18.9749 14.2458 19.103C14.2977 19.231 14.3093 19.3718 14.2792 19.5067C14.2491 19.6415 14.1786 19.764 14.0772 19.8578L12.0372 21.8978C11.9099 22.0236 11.7381 22.0942 11.5591 22.0942C11.3802 22.0942 11.2084 22.0236 11.0811 21.8978L9.7211 20.5378C9.65502 20.4756 9.60205 20.4008 9.5653 20.3179C9.52856 20.2349 9.50879 20.1454 9.50716 20.0547C9.50553 19.964 9.52207 19.8739 9.5558 19.7897C9.58954 19.7054 9.63978 19.6288 9.70359 19.5643C9.76739 19.4998 9.84346 19.4487 9.92731 19.4141C10.0112 19.3794 10.1011 19.3619 10.1918 19.3625C10.2826 19.3632 10.3722 19.3819 10.4556 19.4178C10.5389 19.4536 10.6143 19.5058 10.6772 19.5711L11.5591 20.4528L13.1211 18.8911C13.226 18.7819 13.3643 18.7109 13.5141 18.6892C13.5422 18.6838 13.5706 18.6805 13.5991 18.6786ZM17.6156 20.3997C17.6367 20.3987 17.658 20.3987 17.6791 20.3997H23.7991C23.9795 20.3997 24.1524 20.4714 24.28 20.5989C24.4075 20.7264 24.4791 20.8994 24.4791 21.0797C24.4791 21.2601 24.4075 21.433 24.28 21.5606C24.1524 21.6881 23.9795 21.7597 23.7991 21.7597H17.6791C17.5898 21.7639 17.5006 21.7505 17.4165 21.7202C17.3324 21.6899 17.2551 21.6433 17.1889 21.5832C17.1228 21.523 17.0692 21.4504 17.0312 21.3695C16.9931 21.2886 16.9714 21.201 16.9672 21.1117C16.963 21.0224 16.9764 20.9331 17.0067 20.849C17.037 20.7649 17.0836 20.6876 17.1437 20.6215C17.2039 20.5554 17.2765 20.5018 17.3574 20.4637C17.4383 20.4257 17.5263 20.4039 17.6156 20.3997ZM13.5991 23.7786C13.7373 23.7753 13.8731 23.8141 13.9886 23.8899C14.1042 23.9657 14.1938 24.0749 14.2458 24.203C14.2977 24.331 14.3093 24.4718 14.2792 24.6067C14.2491 24.7415 14.1786 24.864 14.0772 24.9578L12.0372 26.9978C11.9099 27.1236 11.7381 27.1942 11.5591 27.1942C11.3802 27.1942 11.2084 27.1236 11.0811 26.9978L9.7211 25.6378C9.6559 25.5754 9.60376 25.5006 9.56774 25.4179C9.53171 25.3352 9.51251 25.2461 9.51126 25.1559C9.51001 25.0656 9.52673 24.9761 9.56045 24.8924C9.59416 24.8087 9.6442 24.7325 9.70765 24.6683C9.7711 24.6042 9.84668 24.5533 9.93 24.5186C10.0133 24.4839 10.1027 24.4662 10.1929 24.4664C10.2832 24.4667 10.3725 24.4849 10.4556 24.5199C10.5387 24.555 10.6141 24.6063 10.6772 24.6708L11.5591 25.5528L13.1211 23.9908C13.226 23.8817 13.3643 23.8108 13.5141 23.7892C13.5422 23.7839 13.5706 23.7804 13.5991 23.7786ZM17.6156 25.4997C17.6367 25.4987 17.658 25.4987 17.6791 25.4997H23.7991C23.9795 25.4997 24.1524 25.5714 24.28 25.6989C24.4075 25.8264 24.4791 25.9994 24.4791 26.1797C24.4791 26.3601 24.4075 26.533 24.28 26.6606C24.1524 26.7881 23.9795 26.8597 23.7991 26.8597H17.6791C17.4988 26.8682 17.3225 26.8047 17.1889 26.6832C17.0554 26.5616 16.9757 26.392 16.9672 26.2117C16.9587 26.0313 17.0222 25.855 17.1437 25.7215C17.2653 25.588 17.4352 25.5082 17.6156 25.4997Z" fill="url(#paint0_linear_2433_92135)"/>
<defs>
<linearGradient id="paint0_linear_2433_92135" x1="10.576" y1="-39.2281" x2="66.3142" y2="-31.1706" gradientUnits="userSpaceOnUse">
<stop offset="0.006561" stop-color="#F7A518"/>
<stop offset="0.7894" stop-color="#7F3C00"/>
</linearGradient>
</defs>
</svg>
