<svg width="100" height="100" viewBox="0 0 100 100" fill="none" xmlns="http://www.w3.org/2000/svg">
<g clip-path="url(#clip0_2415_92855)">
<g clip-path="url(#clip1_2415_92855)">
<path d="M89.5835 97.5L80.4169 56.6667H76.2502L85.6252 98.3333C85.8335 98.9583 86.0419 99.375 86.4585 99.5833C86.8752 99.7917 87.0835 99.7917 87.5002 99.7917H87.9169C89.1669 99.7917 89.7919 98.5417 89.5835 97.5ZM53.9585 56.4583L44.7919 97.5C44.5835 98.5417 45.2085 99.5833 46.2502 99.7917H46.6669C47.0835 99.7917 47.5002 99.7917 47.7085 99.5833C48.1252 99.375 48.5419 98.75 48.5419 98.3333L57.9169 56.25H53.9585V56.4583ZM65.6252 56.6667L64.7919 93.9583C64.7919 95 65.6252 96.0417 66.6669 96.0417C67.7085 96.0417 68.5419 95.2083 68.7502 94.1667L69.5835 56.6667H65.6252Z" fill="#344A5E"/>
<path d="M45.209 5.83301L91.6673 7.08301L90.4173 59.583L43.959 58.1247L45.209 5.83301Z" fill="#E8EAE9"/>
<path d="M94.3757 5.83366C94.3757 6.45866 94.1673 7.08366 93.5423 7.50033C93.1257 8.12533 92.5007 8.33366 91.8757 8.33366L45.209 6.87533C44.584 6.87533 43.959 6.66699 43.5423 6.04199C43.1257 5.62533 42.9173 5.00033 42.9173 4.16699C42.9173 2.70866 44.1673 1.66699 45.4173 1.66699L91.8757 3.12533C93.334 3.33366 94.3757 4.58366 94.3757 5.83366ZM92.9173 61.042C92.9173 61.667 92.709 62.292 92.084 62.7087C91.6673 63.1253 91.0423 63.3337 90.4173 63.3337L43.7507 62.0837C43.1257 62.0837 42.5007 61.8753 42.084 61.2503C41.6673 60.8337 41.459 60.2087 41.459 59.3753C41.459 57.917 42.709 56.8753 43.959 56.8753L90.4173 58.3337C91.8757 58.542 92.9173 59.792 92.9173 61.042Z" fill="#F3705A"/>
<path d="M31.2496 8.75C31.0413 9.58333 30.4163 10.2083 29.9996 10.2083C29.5829 10 29.3746 9.375 29.5829 8.54167C29.7913 7.70833 30.4163 7.08333 30.8329 7.08333C31.4579 7.08333 31.6663 7.91667 31.2496 8.75ZM21.2496 8.75C21.4579 9.58333 22.0829 10.2083 22.4996 10.2083C23.1246 10 23.1246 9.16667 22.9163 8.33333C22.7079 7.5 22.0829 6.875 21.6663 6.875C21.0413 7.08333 21.0413 7.91667 21.2496 8.75Z" fill="#FFD15C"/>
<path d="M20.8333 15.6245L23.125 13.5412C23.125 13.5412 22.5 11.0412 22.5 10.4162C22.5 9.7912 21.0417 6.0412 21.6667 4.1662C22.2917 2.2912 22.0833 0.832865 25.2083 0.624532C28.3333 0.416199 28.9583 1.6662 30 2.70786C31.0417 3.95786 30.8333 7.70786 30.8333 8.33286C30.8333 8.95786 30.2083 12.2912 29.375 13.7495V14.7912L31.6667 18.7495V22.7079L29.375 22.9162L19.375 20.8329L20.8333 15.6245Z" fill="#FFD15C"/>
<path d="M31.6667 18.7503L29.1667 15.0003V13.9587C29.1667 13.9587 25.8333 16.8753 23.125 13.542C23.125 13.542 25 18.3337 31.875 19.5837L31.6667 18.7503Z" fill="#F7B64C"/>
<path d="M47.084 30.6247C47.084 30.6247 49.1673 29.7913 49.3757 29.583C49.7923 29.3747 50.0006 28.958 50.6256 28.7497C51.2506 28.5413 52.084 27.9163 52.5007 27.9163C52.9173 27.9163 53.5423 27.708 53.7506 27.708C53.959 27.708 55.6257 28.333 55.6257 28.333C55.6257 28.333 55.6256 29.1663 55.0006 29.1663C54.7923 29.1663 53.1256 28.7497 52.9173 28.7497C52.709 28.7497 53.5423 28.958 53.5423 28.958C53.5423 28.958 55.209 29.1663 55.4173 29.1663H55.6257C55.834 28.958 56.2506 29.1663 56.2506 29.583C56.2506 29.7913 56.2506 29.7913 56.0423 29.9997C55.834 29.9997 55.6257 30.208 55.6257 30.208H55.209C55.0006 30.208 55.209 30.6247 55.209 30.833C55.209 31.0413 55.0006 31.0413 55.0006 31.0413H54.584C54.584 31.0413 54.584 31.458 54.3757 31.6663C54.1673 31.8747 54.1673 31.6663 54.1673 31.6663C54.1673 31.6663 54.3757 32.2913 53.334 32.708C52.5007 33.1247 50.209 33.1247 49.7923 33.1247C49.3756 32.9163 47.5006 34.1663 47.5006 34.1663L47.084 30.6247Z" fill="#FFD15C"/>
<path d="M23.9591 99.7916C24.3758 99.7916 24.5841 99.5833 24.7925 99.3749C25.0008 99.1666 25.0008 98.3333 24.7925 97.7083C24.3758 96.6666 24.3758 97.0833 24.3758 97.0833L18.7508 97.2916C18.7508 97.2916 18.5425 98.125 18.7508 98.75C18.9591 99.375 19.5841 99.5833 20.2091 99.5833C21.2508 99.5833 23.1258 99.7916 23.9591 99.7916Z" fill="#344A5E"/>
<path d="M18.958 93.7497C18.958 93.7497 18.7497 95.208 18.5414 96.2497C18.333 97.2913 18.5414 98.333 18.7497 98.7497C19.1664 99.1663 20.833 98.958 21.8747 98.958C22.9164 98.958 23.5414 99.1663 24.1664 98.958C24.7914 98.958 24.583 97.083 24.1664 96.0413C23.7497 94.9997 23.1247 94.1663 23.1247 93.1247V92.083L18.958 93.7497Z" fill="#415A6B"/>
<path d="M37.7083 98.3333L38.3333 98.75C38.3333 98.75 38.5417 98.9583 38.3333 99.375C38.3333 99.375 37.9167 99.375 37.2917 99.7917C36.4583 100 35.4167 100 34.1667 100C32.9167 99.7917 32.5 99.1667 32.0833 98.75C31.6667 98.3333 31.0417 98.125 31.0417 98.125V98.5417H28.5417C28.5417 98.5417 28.125 97.2917 28.9583 96.4583L29.7917 95.625C30 95.625 37.7083 98.3333 37.7083 98.3333Z" fill="#344A5E"/>
<path d="M33.7494 92.9163C33.7494 92.9163 34.791 93.7497 35.2077 94.583C35.6243 95.4163 35.6243 96.458 36.4577 96.8747C37.291 97.2913 38.3327 98.1247 38.3327 98.5413C38.3327 98.5413 37.291 98.5413 36.2493 98.958C35.2077 99.3747 33.541 99.3747 32.916 98.7497C32.291 98.333 31.8744 97.4997 30.8327 97.2913C29.791 96.8747 28.7493 97.2913 28.541 96.8747C28.3327 96.2497 28.541 93.958 29.166 93.1247C29.9993 92.4997 33.7494 92.9163 33.7494 92.9163Z" fill="#415A6B"/>
<path d="M34.5833 21.6663L36.25 20.208C36.25 20.208 36.875 22.708 36.875 24.583C36.875 26.458 36.4583 27.2913 36.875 27.9163C37.2917 28.5413 38.75 30.208 38.75 31.2497C38.75 32.2913 38.9583 32.4997 39.5833 32.2913C40.2083 32.083 42.5 31.6663 43.125 31.458C43.5417 31.2497 47.9167 29.9997 47.9167 29.9997C47.9167 29.9997 47.7083 34.3747 50 34.9997C50 34.9997 43.3333 37.2913 42.0833 37.4997C40.8333 37.708 38.3333 38.5413 37.7083 38.5413C37.0833 38.5413 35.8333 38.333 35.2083 37.4997C34.5833 36.6663 33.75 35.208 33.75 34.583C33.9583 33.958 34.5833 21.6663 34.5833 21.6663Z" fill="#344A5E"/>
<path d="M34.3743 43.3333C34.3743 43.3333 29.166 46.4583 23.541 45.8333C17.916 45.2083 17.291 45.2083 17.291 45C17.291 44.7917 20.2077 25.4167 21.2493 17.7083H22.291C22.916 19.375 24.5827 20.2083 26.2493 20.2083C28.1244 20.2083 29.5827 19.1667 30.2077 17.5H30.6243L33.1243 34.1667L34.3743 43.3333Z" fill="#8AD7F8"/>
<path d="M16.2501 44.7913C23.5418 46.458 30.0001 46.458 34.3751 43.333C34.3751 43.333 36.6668 49.9997 36.6668 51.0413C36.6668 52.083 36.2501 51.8747 36.2501 53.5413C36.2501 55.208 36.2501 66.458 36.0418 68.5413C35.8334 70.6247 35.4168 73.333 35.6251 74.1663C35.8334 74.9997 36.4584 77.708 36.4584 80.208C36.4584 82.708 35.2084 90.6247 35.0001 91.458C34.7918 92.2914 35.2084 93.7497 35.2084 93.7497C35.2084 93.7497 33.1251 93.1247 32.0834 94.1663C31.0418 94.9997 29.3751 95.208 28.7501 94.1663C28.7501 94.1663 28.7501 89.583 29.1668 87.4997C29.5834 85.4163 29.1668 78.5413 29.1668 76.8747C29.1668 75.208 29.1668 73.7497 28.9584 71.6663C28.7501 69.583 28.1251 64.7913 27.9168 64.1663C27.7084 63.5413 26.6668 59.9997 26.6668 59.9997C26.6668 59.9997 26.4584 62.4997 25.8334 64.7913C25.2084 67.083 24.1668 70.6247 23.9584 71.2497C23.7501 72.083 23.1251 77.2913 23.1251 79.1663C23.1251 81.0413 23.7501 83.7497 23.9584 85.4163C24.1668 86.8747 24.1668 92.083 24.1668 92.9163V94.1663C24.1668 94.1663 23.5418 93.333 22.0834 93.333C20.6251 93.333 19.3751 94.583 19.3751 94.583C19.3751 94.583 17.7084 92.708 17.7084 91.6663C17.7084 90.6247 16.8751 89.3747 16.6668 87.2913C16.4584 85.208 16.4584 77.4997 16.6668 74.7913C16.8751 72.083 16.2501 65.6247 15.8334 61.6663C15.6251 57.9163 15.0001 48.7497 16.2501 44.7913Z" fill="#344A5E"/>
<path d="M29.166 15C29.166 15 30.416 17.2917 30.416 19.5833C30.6243 21.875 31.2493 31.0417 31.666 33.9583C32.0827 37.0833 33.3327 44.5833 33.3327 46.6667C33.541 48.75 33.1243 50.4167 34.5827 51.0417C36.041 51.6667 37.0827 51.0417 37.0827 51.0417C37.0827 51.0417 35.6243 47.9167 35.416 46.0417C35.416 44.1667 34.166 37.7083 34.166 37.7083C34.166 37.7083 34.9993 29.375 35.6243 27.5C36.041 25.4167 36.2493 20.2083 36.2493 20.2083C36.2493 20.2083 31.2493 17.2917 30.416 16.25C29.5827 15.2083 29.166 15 29.166 15Z" fill="#415A6B"/>
<path d="M14.5828 37.4997C13.7494 37.708 13.1244 38.958 12.9161 40.208C12.7078 41.458 12.4994 42.9163 12.4994 42.9163C12.4994 42.9163 9.16609 39.3747 8.12443 38.333C7.08276 37.2913 6.04109 35.208 5.62443 34.1663C5.41609 33.333 6.24942 30.833 6.87442 29.7913C7.49943 28.7497 9.58276 24.1663 10.6244 21.8747C11.6661 19.583 12.7078 17.708 12.7078 17.708C12.7078 17.708 13.7494 20.4163 13.9578 22.708C14.1661 23.958 13.9578 26.0413 13.9578 27.4997C13.9578 27.4997 13.5411 28.333 13.3328 28.958C13.1244 29.7913 11.0411 32.4997 11.0411 32.4997C11.0411 32.4997 11.0411 32.708 11.2494 33.333C11.4578 33.958 11.8744 34.3747 12.4994 34.7913C12.7078 34.9997 12.9161 35.4163 13.3328 35.6247C14.1661 36.6663 14.5828 37.4997 14.5828 37.4997ZM62.9161 20.4163L50.6244 32.2913C50.4161 32.4997 50.4161 32.9163 50.6244 33.1247C50.8328 33.333 51.2494 33.333 51.4578 33.1247L63.3328 21.0413C63.7494 20.6247 63.1244 19.9997 62.9161 20.4163Z" fill="#344A5E"/>
<path d="M52.0833 32.7083H52.2917C52.9167 32.2917 53.5417 31.875 53.9583 31.25C54.375 30.8333 54.5833 30.2083 54.7917 29.5833C54.375 29.5833 53.9583 29.5833 53.5417 29.375H53.125C52.9167 29.375 52.9167 29.375 52.9167 29.5833V30C52.9167 30.2083 53.125 30.2083 53.125 30.4167H52.7083C52.5 30.4167 52.2917 30.625 52.2917 30.625V31.25H51.4583C51.25 31.4583 51.25 31.6667 51.25 31.875C51.4583 32.2917 51.6667 32.5 52.0833 32.7083Z" fill="#FFD15C"/>
<path d="M22.084 8.33335C22.084 8.33335 22.2923 6.25002 22.084 5.20835C21.8757 4.16669 23.334 2.29169 24.3757 2.91669C25.4173 3.54169 27.084 3.54169 27.709 2.70835C28.334 1.87502 30.209 3.33335 30.209 4.79169V8.12502H30.4173C30.6257 7.70835 31.2507 5.83335 31.0423 4.79169C31.0423 3.33335 29.584 -0.208313 25.834 2.07582e-05C22.084 0.208354 21.0423 3.33335 20.834 5.20835C20.6257 6.25002 21.459 7.50002 22.084 8.33335ZM22.9173 13.5417C22.9173 13.5417 22.084 16.25 22.2923 18.5417C22.5007 20.8334 22.5007 31.6667 22.5007 32.9167C22.5007 34.1667 21.0423 44.7917 20.4173 46.4584C19.7923 47.9167 18.334 51.4584 16.0423 51.4584C13.7507 51.4584 11.459 50 11.459 50C11.459 50 14.1673 33.3334 13.7507 29.7917C13.7507 29.7917 14.3757 25.4167 13.959 23.125C13.5423 20.8334 12.709 18.125 12.709 18.125C12.709 18.125 17.5007 16.25 19.1673 16.0417C20.834 15.8334 21.459 14.1667 22.9173 13.5417Z" fill="#415A6B"/>
</g>
</g>
<defs>
<clipPath id="clip0_2415_92855">
<rect width="100" height="100" fill="white"/>
</clipPath>
<clipPath id="clip1_2415_92855">
<rect width="100" height="100" fill="white"/>
</clipPath>
</defs>
</svg>
