<svg width="30" height="30" viewBox="0 0 30 30" fill="none" xmlns="http://www.w3.org/2000/svg">
<path d="M22.5 15C21.183 15.0015 19.8888 14.6558 18.748 13.9977C17.6072 13.3397 16.6601 12.3924 16.002 11.2516C15.344 10.1107 14.9984 8.81658 15 7.49956C15.0016 6.18255 15.3504 4.88923 16.0113 3.75H5.3025L5.25 3.31C5.14228 2.39825 4.70382 1.55769 4.01774 0.94763C3.33165 0.337568 2.44559 0.000391046 1.5275 0L1.25 0C0.918479 0 0.600537 0.131696 0.366117 0.366117C0.131696 0.600537 0 0.918479 0 1.25C0 1.58152 0.131696 1.89946 0.366117 2.13388C0.600537 2.3683 0.918479 2.5 1.25 2.5H1.5275C1.83367 2.50004 2.12917 2.61245 2.35797 2.81589C2.58676 3.01934 2.73293 3.29969 2.76875 3.60375L4.48875 18.2288C4.66732 19.7497 5.3981 21.1522 6.54239 22.17C7.68667 23.1878 9.16482 23.75 10.6963 23.75H23.75C24.0815 23.75 24.3995 23.6183 24.6339 23.3839C24.8683 23.1495 25 22.8315 25 22.5C25 22.1685 24.8683 21.8505 24.6339 21.6161C24.3995 21.3817 24.0815 21.25 23.75 21.25H10.6963C9.92236 21.2481 9.16801 21.0068 8.53668 20.5592C7.90535 20.1116 7.42796 19.4796 7.17 18.75H22.0713C23.5366 18.7501 24.9554 18.2353 26.0798 17.2955C27.2041 16.3558 27.9625 15.0509 28.2225 13.6088L28.52 11.96C27.8247 12.9027 26.9177 13.6689 25.8721 14.197C24.8264 14.725 23.6714 15 22.5 15Z" fill="white"/>
<path d="M8.75 30C10.1307 30 11.25 28.8807 11.25 27.5C11.25 26.1193 10.1307 25 8.75 25C7.36929 25 6.25 26.1193 6.25 27.5C6.25 28.8807 7.36929 30 8.75 30Z" fill="white"/>
<path d="M21.25 30C22.6307 30 23.75 28.8807 23.75 27.5C23.75 26.1193 22.6307 25 21.25 25C19.8693 25 18.75 26.1193 18.75 27.5C18.75 28.8807 19.8693 30 21.25 30Z" fill="white"/>
<path d="M18.75 8.75H21.25V11.25C21.25 11.5815 21.3817 11.8995 21.6161 12.1339C21.8505 12.3683 22.1685 12.5 22.5 12.5C22.8315 12.5 23.1495 12.3683 23.3839 12.1339C23.6183 11.8995 23.75 11.5815 23.75 11.25V8.75H26.25C26.5815 8.75 26.8995 8.6183 27.1339 8.38388C27.3683 8.14946 27.5 7.83152 27.5 7.5C27.5 7.16848 27.3683 6.85054 27.1339 6.61612C26.8995 6.3817 26.5815 6.25 26.25 6.25H23.75V3.75C23.75 3.41848 23.6183 3.10054 23.3839 2.86612C23.1495 2.6317 22.8315 2.5 22.5 2.5C22.1685 2.5 21.8505 2.6317 21.6161 2.86612C21.3817 3.10054 21.25 3.41848 21.25 3.75V6.25H18.75C18.4185 6.25 18.1005 6.3817 17.8661 6.61612C17.6317 6.85054 17.5 7.16848 17.5 7.5C17.5 7.83152 17.6317 8.14946 17.8661 8.38388C18.1005 8.6183 18.4185 8.75 18.75 8.75Z" fill="white"/>
</svg>
