<svg width="22" height="19" viewBox="0 0 22 19" fill="none" xmlns="http://www.w3.org/2000/svg">
<path fill-rule="evenodd" clip-rule="evenodd" d="M6.29479 0.929696C6.41605 1.14015 6.44883 1.39013 6.38593 1.62474C6.32302 1.85934 6.16958 2.05939 5.95929 2.18095C4.57057 2.98469 3.39245 4.10658 2.52179 5.45436C2.38713 5.65195 2.18059 5.78909 1.94623 5.83654C1.71187 5.88399 1.46825 5.83799 1.26733 5.70835C1.06642 5.57871 0.924107 5.37569 0.870762 5.14261C0.817417 4.90952 0.85726 4.66482 0.981792 4.4607C2.01035 2.8689 3.40212 1.54405 5.04263 0.595112C5.14686 0.534745 5.26197 0.495512 5.38137 0.479656C5.50077 0.463801 5.62213 0.471633 5.73851 0.502706C5.85488 0.533779 5.96399 0.587484 6.0596 0.660749C6.15521 0.734015 6.23452 0.825405 6.29479 0.929696ZM15.7071 0.929696C15.7674 0.825405 15.8476 0.734015 15.9432 0.660749C16.0388 0.587484 16.148 0.533779 16.2643 0.502706C16.3807 0.471633 16.5021 0.463801 16.6215 0.479656C16.7409 0.495512 16.856 0.534745 16.9602 0.595112C18.6001 1.54457 19.9913 2.86972 21.0192 4.46161C21.1437 4.66574 21.1836 4.91044 21.1302 5.14353C21.0769 5.37661 20.9346 5.57963 20.7337 5.70927C20.5327 5.83891 20.2891 5.88491 20.0548 5.83746C19.8204 5.79001 19.6139 5.65286 19.4792 5.45528C18.6086 4.1075 17.4304 2.98561 16.0417 2.18186C15.8313 2.06015 15.6779 1.85987 15.6152 1.62505C15.5524 1.39024 15.5855 1.14012 15.7071 0.929696ZM11.001 3.58345C10.1583 3.58345 9.32391 3.74942 8.54541 4.07189C7.7669 4.39435 7.05953 4.867 6.46369 5.46284C5.86785 6.05869 5.3952 6.76605 5.07273 7.54456C4.75026 8.32307 4.58429 9.15746 4.58429 10.0001C4.58429 10.8428 4.75026 11.6772 5.07273 12.4557C5.3952 13.2342 5.86785 13.9415 6.46369 14.5374C7.05953 15.1332 7.7669 15.6059 8.54541 15.9283C9.32391 16.2508 10.1583 16.4168 11.001 16.4168C12.7028 16.4168 14.3349 15.7407 15.5382 14.5374C16.7416 13.334 17.4176 11.7019 17.4176 10.0001C17.4176 8.29831 16.7416 6.6662 15.5382 5.46284C14.3349 4.25949 12.7028 3.58345 11.001 3.58345ZM2.75096 10.0001C2.7511 8.68229 3.06693 7.38368 3.67202 6.21298C4.2771 5.04228 5.15383 4.03357 6.22881 3.27129C7.30379 2.509 8.54574 2.01533 9.85069 1.83159C11.1556 1.64785 12.4856 1.77939 13.7293 2.2152C14.973 2.65102 16.0941 3.37842 16.999 4.33652C17.9038 5.29462 18.5659 6.45553 18.93 7.72208C19.294 8.98862 19.3493 10.3239 19.0913 11.6163C18.8333 12.9086 18.2694 14.1203 17.447 15.1499L18.9824 16.6854C19.0699 16.7699 19.1398 16.8711 19.1878 16.9829C19.2358 17.0947 19.2611 17.215 19.2622 17.3367C19.2632 17.4585 19.2401 17.5792 19.194 17.6918C19.1479 17.8045 19.0798 17.9068 18.9937 17.9929C18.9077 18.079 18.8053 18.147 18.6927 18.1931C18.58 18.2392 18.4593 18.2624 18.3376 18.2613C18.2159 18.2603 18.0956 18.235 17.9838 18.187C17.8719 18.1389 17.7708 18.0691 17.6862 17.9815L16.1508 16.4461C14.6899 17.6166 12.873 18.2531 11.001 18.2501C9.12895 18.2531 7.31206 17.6166 5.85113 16.4461L4.31571 17.9815C4.23115 18.0691 4.13 18.1389 4.01816 18.187C3.90633 18.235 3.78604 18.2603 3.66433 18.2613C3.54261 18.2624 3.42191 18.2392 3.30925 18.1931C3.1966 18.147 3.09425 18.079 3.00818 17.9929C2.92211 17.9068 2.85405 17.8045 2.80796 17.6918C2.76186 17.5792 2.73867 17.4585 2.73973 17.3367C2.74079 17.215 2.76607 17.0947 2.81412 16.9829C2.86216 16.8711 2.93199 16.7699 3.01954 16.6854L4.55496 15.1499C3.38444 13.689 2.74797 11.8721 2.75096 10.0001ZM11.001 5.41678C11.2441 5.41678 11.4772 5.51336 11.6491 5.68526C11.821 5.85717 11.9176 6.09033 11.9176 6.33345V9.6197L13.4824 11.1854C13.6494 11.3582 13.7417 11.5898 13.7397 11.8301C13.7376 12.0705 13.6412 12.3004 13.4712 12.4704C13.3013 12.6403 13.0713 12.7367 12.831 12.7388C12.5906 12.7409 12.3591 12.6485 12.1862 12.4815L10.3529 10.6482C10.2676 10.563 10.2 10.4618 10.154 10.3504C10.1079 10.2391 10.0842 10.1197 10.0843 9.9992V6.33345C10.0843 6.09033 10.1809 5.85717 10.3528 5.68526C10.5247 5.51336 10.7578 5.41678 11.001 5.41678Z" fill="white"/>
</svg>
