<svg width="25" height="23" viewBox="0 0 25 23" fill="none" xmlns="http://www.w3.org/2000/svg">
<path d="M10.0467 19.9368C9.95616 19.9368 9.86722 19.9132 9.78868 19.8682C9.71013 19.8232 9.6447 19.7585 9.59889 19.6804C7.87364 16.7412 3.27414 10.4828 3.22793 10.4199C3.15404 10.3195 3.11877 10.1958 3.12856 10.0715C3.13835 9.94715 3.19255 9.83052 3.28125 9.74288L4.69558 8.34521C4.78196 8.25986 4.89553 8.20748 5.01653 8.19718C5.13753 8.18689 5.25831 8.21934 5.35786 8.28887L9.93862 11.4873C13.0038 7.55676 15.8511 4.84118 17.7243 3.23878C19.8332 1.43508 21.1757 0.623054 21.2318 0.589615C21.3125 0.541198 21.4049 0.515623 21.499 0.515625H23.7871C23.8924 0.515618 23.9952 0.547605 24.0818 0.607344C24.1685 0.667084 24.235 0.751754 24.2724 0.85013C24.3099 0.948506 24.3165 1.05594 24.2915 1.15819C24.2665 1.26044 24.211 1.35268 24.1324 1.42267C17.6346 7.21022 10.5684 19.5506 10.4978 19.6746C10.4527 19.7537 10.3876 19.8196 10.309 19.8656C10.2304 19.9116 10.1411 19.9362 10.05 19.9368L10.0467 19.9368Z" fill="#19517E"/>
<path d="M9.94772 22.0986C4.79425 22.0986 0.601562 17.9059 0.601562 12.7524C0.601562 7.59889 4.79425 3.40626 9.94772 3.40626C10.981 3.40511 12.0073 3.57566 12.9847 3.91095C13.115 3.9557 13.2221 4.05036 13.2826 4.17411C13.343 4.29785 13.3518 4.44054 13.3071 4.57079C13.2623 4.70103 13.1677 4.80816 13.0439 4.86861C12.9202 4.92906 12.7775 4.93788 12.6472 4.89313C11.7783 4.59514 10.8659 4.44361 9.94725 4.44472C5.36634 4.44472 1.63956 8.17155 1.63956 12.7524C1.63956 17.3333 5.36634 21.0601 9.94725 21.0601C14.5282 21.0601 18.2549 17.3333 18.2549 12.7524C18.2551 12.1903 18.1986 11.6296 18.0864 11.0789C18.0727 11.0121 18.0724 10.9432 18.0853 10.8762C18.0983 10.8093 18.1243 10.7455 18.1619 10.6886C18.1995 10.6317 18.2479 10.5828 18.3045 10.5446C18.361 10.5064 18.4244 10.4797 18.4913 10.4661C18.5581 10.4524 18.6269 10.452 18.6939 10.465C18.7609 10.478 18.8246 10.504 18.8815 10.5416C18.9384 10.5792 18.9874 10.6276 19.0256 10.6841C19.0638 10.7406 19.0904 10.8041 19.1041 10.8709C19.2303 11.4901 19.2938 12.1205 19.2937 12.7524C19.2939 17.9059 15.1012 22.0986 9.94772 22.0986Z" fill="#19517E"/>
</svg>
