<svg width="24" height="24" viewBox="0 0 24 24" fill="none" xmlns="http://www.w3.org/2000/svg">
<path d="M24 12C24 5.38298 18.617 0 12 0C5.38298 0 0 5.38298 0 12C0 18.617 5.38298 24 12 24C18.617 24 24 18.617 24 12ZM11.293 15.707L6.29302 10.707C6.20003 10.6143 6.12627 10.504 6.07598 10.3827C6.0257 10.2614 5.99988 10.1313 6 9.99998C5.99988 9.86865 6.02571 9.73858 6.07599 9.61725C6.12628 9.49592 6.20003 9.38572 6.29302 9.29297C6.684 8.90198 7.31602 8.90198 7.707 9.29297L12 13.586L16.293 9.29302C16.684 8.90203 17.316 8.90203 17.707 9.29302C18.098 9.684 18.098 10.316 17.707 10.707L12.707 15.707C12.316 16.098 11.684 16.098 11.293 15.707Z" fill="#19517E"/>
</svg>
