<svg width="48" height="36" viewBox="0 0 48 36" fill="none" xmlns="http://www.w3.org/2000/svg">
<path d="M14.7243 24.4041C15.2887 24.4041 15.7481 23.9456 15.7481 23.3822C15.7481 22.8188 15.2887 22.3603 14.7243 22.3603C14.16 22.3603 13.7006 22.8188 13.7006 23.3822C13.7006 23.9456 14.16 24.4041 14.7243 24.4041ZM12.0506 27.2447V28.6219H17.3962V27.2447C17.3962 26.4272 16.7287 25.7569 15.9093 25.7513H15.5887C15.3187 25.8497 15.0272 25.9041 14.7234 25.9041C14.4197 25.9041 14.1281 25.8497 13.859 25.7513H13.53C12.7172 25.7569 12.0506 26.4263 12.0506 27.2447ZM12.0506 15.6009V16.9781H17.3962V15.6009C17.3962 14.7834 16.7287 14.1122 15.9075 14.1047H15.5953C15.3234 14.205 15.03 14.2603 14.7234 14.2603C14.4168 14.2603 14.1234 14.205 13.8515 14.1047H13.529C12.7181 14.1131 12.0506 14.7834 12.0506 15.6009Z" fill="#19517E"/>
<path d="M23.25 28.6219V18.4791H6.19501V28.6219H10.5506V27.2447C10.5506 25.9866 11.3372 24.9038 12.4434 24.4631C12.2869 24.135 12.1997 23.7694 12.1997 23.3822C12.1997 21.9919 13.3322 20.8603 14.7234 20.8603C16.1147 20.8603 17.2472 21.9919 17.2472 23.3822C17.2472 23.7694 17.1591 24.1359 17.0025 24.4641C18.1106 24.9056 18.8963 25.9875 18.8963 27.2447V28.6219H23.25ZM28.5178 10.4916C27.6844 10.4916 27.0066 9.81375 27.0066 8.98125V6.8325H24.75V28.6219H26.9194V25.8881C26.9194 23.835 28.3378 22.0959 30.2475 21.6009C29.8386 20.9989 29.6204 20.2878 29.6213 19.56C29.6213 17.5453 31.2619 15.9056 33.2794 15.9056C35.295 15.9056 36.9347 17.5453 36.9347 19.56C36.9347 20.3156 36.7041 21.0188 36.3084 21.6019C38.22 22.0969 39.6366 23.8369 39.6366 25.8891V28.6228H41.8059V10.4916H38.0475L33.75 13.9425C33.6168 14.0493 33.4511 14.1075 33.2803 14.1075C33.1697 14.1075 33.0591 14.0831 32.9559 14.0334C32.8285 13.9724 32.7209 13.8765 32.6456 13.7569C32.5702 13.6373 32.5303 13.4988 32.5303 13.3575V10.4916H28.5178ZM14.7244 12.7603C15.2888 12.7603 15.7481 12.3009 15.7481 11.7356C15.7481 11.1722 15.2888 10.7138 14.7244 10.7138C14.16 10.7138 13.7006 11.1722 13.7006 11.7356C13.7006 12.3009 14.16 12.7603 14.7244 12.7603Z" fill="#19517E"/>
<path d="M44.5603 10.4916H43.305V28.8262C43.305 29.5406 42.7238 30.1219 42.0094 30.1219H5.99157C5.2772 30.1219 4.69595 29.5406 4.69595 28.8262V6.62812C4.69595 5.91374 5.2772 5.33249 5.99157 5.33249H27.0075V4.08093H3.74532C3.58032 4.08093 3.4397 4.21875 3.4397 4.38187V31.3762H44.5594V10.4916H44.5603Z" fill="#19517E"/>
<path d="M33.2784 21.7116C34.4672 21.7116 35.4337 20.7459 35.4337 19.56C35.4337 18.3722 34.4672 17.4056 33.2784 17.4056C32.0887 17.4056 31.1203 18.3722 31.1203 19.56C31.1203 20.7459 32.0887 21.7116 33.2784 21.7116ZM28.4194 25.8881V28.6219H38.1356V25.8881C38.1356 24.2869 36.8306 22.9734 35.2275 22.9594H34.6097C33.7541 23.2944 32.8037 23.2944 31.9481 22.9594H31.3247C29.7253 22.9734 28.4194 24.2869 28.4194 25.8881ZM47.9897 0.0918732H28.5169C28.515 0.0928107 28.5066 0.0993731 28.5066 0.104998V8.98219C28.5066 8.985 28.5122 8.9925 28.5178 8.9925H33.2784C33.6928 8.9925 34.0284 9.32812 34.0284 9.7425V11.7947L37.3125 9.15656C37.4457 9.04973 37.6114 8.99153 37.7822 8.99156H47.9887C47.9944 8.99156 48 8.985 48 8.98125V0.10406C48 0.0984354 47.9925 0.0928107 47.9897 0.0918732ZM34.3116 7.06125H32.4844C32.07 7.06125 31.7344 6.72562 31.7344 6.31125C31.7344 5.89687 32.07 5.56125 32.4844 5.56125H34.3116C34.7259 5.56125 35.0616 5.89687 35.0616 6.31125C35.0616 6.72562 34.7259 7.06125 34.3116 7.06125ZM43.7822 7.06125H37.2647C36.8503 7.06125 36.5147 6.72562 36.5147 6.31125C36.5147 5.89687 36.8503 5.56125 37.2647 5.56125H43.7822C44.1966 5.56125 44.5322 5.89687 44.5322 6.31125C44.5322 6.72562 44.1966 7.06125 43.7822 7.06125ZM43.7822 3.52125H32.4834C32.0691 3.52125 31.7334 3.18562 31.7334 2.77125C31.7334 2.35687 32.0691 2.02125 32.4834 2.02125H43.7822C44.1966 2.02125 44.5322 2.35687 44.5322 2.77125C44.5322 3.18562 44.1966 3.52125 43.7822 3.52125ZM16.9444 33.6028H31.0547C31.5966 33.6028 32.0709 33.3103 32.3287 32.8762H15.6694C15.9291 33.3103 16.4025 33.6028 16.9444 33.6028Z" fill="#19517E"/>
<path d="M47.9896 0.0918732H28.5168C28.5149 0.0928107 28.5065 0.0993731 28.5065 0.104998V8.98219C28.5065 8.985 28.5121 8.9925 28.5177 8.9925H33.2783C33.6927 8.9925 34.0283 9.32812 34.0283 9.7425V11.7947L37.3124 9.15656C37.4456 9.04973 37.6113 8.99153 37.7821 8.99156H47.9887C47.9943 8.99156 47.9999 8.985 47.9999 8.98125V0.10406C47.9999 0.0984354 47.9924 0.0928107 47.9896 0.0918732ZM34.3115 7.06125H32.4843C32.0699 7.06125 31.7343 6.72562 31.7343 6.31125C31.7343 5.89687 32.0699 5.56125 32.4843 5.56125H34.3115C34.7258 5.56125 35.0615 5.89687 35.0615 6.31125C35.0615 6.72562 34.7258 7.06125 34.3115 7.06125ZM43.7821 7.06125H37.2646C36.8502 7.06125 36.5146 6.72562 36.5146 6.31125C36.5146 5.89687 36.8502 5.56125 37.2646 5.56125H43.7821C44.1965 5.56125 44.5321 5.89687 44.5321 6.31125C44.5321 6.72562 44.1965 7.06125 43.7821 7.06125ZM43.7821 3.52125H32.4833C32.069 3.52125 31.7333 3.18562 31.7333 2.77125C31.7333 2.35687 32.069 2.02125 32.4833 2.02125H43.7821C44.1965 2.02125 44.5321 2.35687 44.5321 2.77125C44.5321 3.18562 44.1965 3.52125 43.7821 3.52125Z" fill="#19517E"/>
<path d="M16.9443 33.6028H31.0546C31.5964 33.6028 32.0708 33.3103 32.3286 32.8763H15.6693C15.9289 33.3103 16.4024 33.6028 16.9443 33.6028Z" fill="#19517E"/>
<path d="M31.0556 35.1028H16.9444C15.5597 35.1028 14.3925 34.1559 14.0588 32.8763H0V34.3922C0 35.2284 0.6825 35.9081 1.52156 35.9081H46.4812C47.3184 35.9081 48 35.2284 48 34.3922V32.8763H33.9412C33.6075 34.1559 32.4403 35.1028 31.0556 35.1028ZM23.25 6.8325H6.195V16.9781H10.5506V15.6009C10.5506 14.3438 11.3372 13.2609 12.4444 12.8184C12.2878 12.4903 12.2006 12.1238 12.2006 11.7366C12.2006 10.3463 13.3331 9.21469 14.7244 9.21469C16.1156 9.21469 17.2481 10.3463 17.2481 11.7366C17.2481 12.1247 17.16 12.4922 17.0034 12.8203C18.1125 13.2638 18.8972 14.3466 18.8972 15.6019V16.9791H23.25V6.8325Z" fill="#19517E"/>
</svg>
