<svg width="48" height="48" viewBox="0 0 48 48" fill="none" xmlns="http://www.w3.org/2000/svg">
<path d="M33.4673 44.8902H32.349C31.5785 44.5673 30.903 44.0531 30.3866 43.3964C29.8701 42.7396 29.5297 41.962 29.3976 41.137H18.6077C18.5004 41.8366 18.2349 42.5004 17.852 43.0775C17.315 43.8852 16.551 44.516 15.6562 44.8902H14.5328C14.0935 44.8902 13.7412 45.2425 13.7412 45.6817C13.7412 46.121 14.0935 46.4783 14.5328 46.4783H33.4672C33.9064 46.4783 34.2638 46.1209 34.2638 45.6817C34.2638 45.2425 33.9064 44.8902 33.4673 44.8902ZM46.0596 5.36174H42.097V7.40427H45.9575V31.3736H2.04253V7.40427H5.90297V5.36174H1.94044C0.868125 5.36174 0 6.22977 0 7.29702V38.1754C0 39.2477 0.873188 40.1158 1.94044 40.1158H46.0596C47.1319 40.1158 48 39.2477 48 38.1754V7.29702C48 6.22977 47.1268 5.36174 46.0596 5.36174ZM23.9997 37.3314C23.1465 37.3314 22.4543 36.6392 22.4543 35.786C22.4543 34.9275 23.1465 34.2352 23.9997 34.2352C24.2035 34.2349 24.4053 34.2748 24.5936 34.3526C24.7819 34.4304 24.9529 34.5446 25.097 34.6887C25.2411 34.8327 25.3553 35.0038 25.4331 35.1921C25.5109 35.3804 25.5508 35.5822 25.5504 35.786C25.5504 36.6393 24.8582 37.3314 23.9997 37.3314Z" fill="#19517E"/>
<path d="M7.97113 25.5013H20.4716C21.1405 25.5013 21.7839 25.8434 22.075 26.4459C22.4273 27.1506 23.1575 27.6409 24.0001 27.6409C24.8376 27.6409 25.5729 27.1506 25.9201 26.4459C26.2112 25.8434 26.8597 25.5013 27.5286 25.5013H40.029C40.1666 25.5015 40.3028 25.4746 40.4299 25.4221C40.557 25.3696 40.6725 25.2925 40.7698 25.1952C40.867 25.098 40.9441 24.9825 40.9966 24.8554C41.0492 24.7283 41.0761 24.592 41.0759 24.4545V4.4323C41.0759 3.92165 40.7235 3.50296 40.2435 3.40077V22.2944C40.2435 23.5557 39.2172 24.5769 37.961 24.5769H26.1089C25.6494 24.5769 25.2766 24.9548 25.2766 25.4143C25.2766 26.119 24.7048 26.6909 24 26.6909C23.2953 26.6909 22.7234 26.119 22.7234 25.4143C22.7234 24.9547 22.3455 24.5769 21.886 24.5769H10.0392C8.77794 24.5769 7.75663 23.5556 7.75663 22.2944V3.40087C7.27663 3.50296 6.92432 3.92174 6.92432 4.4324V24.4545C6.92407 24.592 6.95098 24.7283 7.0035 24.8554C7.05602 24.9825 7.13312 25.098 7.23037 25.1952C7.32763 25.2925 7.44312 25.3696 7.57024 25.4221C7.69736 25.4746 7.83359 25.5016 7.97113 25.5013Z" fill="#19517E"/>
<path d="M10.0392 23.5557H21.886C22.9124 23.5557 23.7447 24.388 23.7447 25.4144C23.7448 25.4821 23.7718 25.5469 23.8196 25.5947C23.8675 25.6426 23.9323 25.6695 24 25.6697C24.1379 25.6697 24.2552 25.5522 24.2552 25.4144C24.2552 24.388 25.0875 23.5557 26.1089 23.5557H37.9608C38.6553 23.5557 39.222 22.9889 39.222 22.2944V2.78296C39.222 2.08846 38.6552 1.52165 37.9608 1.52165H26.109C25.1847 1.52165 24.3881 2.06296 24 2.84418C23.6119 2.06287 22.8153 1.52165 21.886 1.52165H10.0392C9.33961 1.52165 8.77795 2.08846 8.77795 2.78296V22.2944C8.77795 22.9889 9.33961 23.5557 10.0392 23.5557ZM26.5325 4.64971H36.4321C36.4981 4.6497 36.5635 4.66269 36.6245 4.68795C36.6855 4.7132 36.7409 4.75022 36.7876 4.79689C36.8342 4.84357 36.8713 4.89898 36.8965 4.95996C36.9218 5.02094 36.9347 5.0863 36.9347 5.15231C36.9347 5.21831 36.9218 5.28367 36.8965 5.34466C36.8713 5.40564 36.8342 5.46105 36.7876 5.50772C36.7409 5.5544 36.6855 5.59142 36.6245 5.61667C36.5635 5.64192 36.4981 5.65491 36.4321 5.6549H26.5325C26.2547 5.6549 26.0299 5.4299 26.0299 5.15231C26.0299 4.87471 26.2547 4.64971 26.5325 4.64971ZM26.5325 8.43965H36.4321C36.4981 8.43964 36.5635 8.45263 36.6245 8.47788C36.6855 8.50314 36.7409 8.54016 36.7876 8.58683C36.8342 8.6335 36.8713 8.68891 36.8965 8.7499C36.9218 8.81088 36.9347 8.87624 36.9347 8.94225C36.9347 9.00825 36.9218 9.07361 36.8965 9.13459C36.8713 9.19558 36.8342 9.25099 36.7876 9.29766C36.7409 9.34433 36.6855 9.38135 36.6245 9.40661C36.5635 9.43186 36.4981 9.44485 36.4321 9.44484H26.5325C26.4665 9.44485 26.4011 9.43186 26.3402 9.40661C26.2792 9.38135 26.2238 9.34433 26.1771 9.29766C26.1304 9.25099 26.0934 9.19558 26.0682 9.13459C26.0429 9.07361 26.0299 9.00825 26.0299 8.94225C26.0299 8.87624 26.0429 8.81088 26.0682 8.7499C26.0934 8.68891 26.1304 8.6335 26.1771 8.58683C26.2238 8.54016 26.2792 8.50314 26.3402 8.47788C26.4011 8.45263 26.4665 8.43964 26.5325 8.43965ZM26.5325 12.2295H36.4321C36.4981 12.2295 36.5635 12.2425 36.6245 12.2677C36.6855 12.293 36.7409 12.33 36.7876 12.3767C36.8342 12.4233 36.8713 12.4788 36.8965 12.5397C36.9218 12.6007 36.9347 12.6661 36.9347 12.7321C36.9347 12.7981 36.9218 12.8635 36.8965 12.9244C36.8713 12.9854 36.8342 13.0408 36.7876 13.0875C36.7409 13.1342 36.6855 13.1712 36.6245 13.1965C36.5635 13.2217 36.4981 13.2347 36.4321 13.2347H26.5325C26.4665 13.2347 26.4011 13.2217 26.3402 13.1965C26.2792 13.1712 26.2238 13.1342 26.1771 13.0875C26.1304 13.0408 26.0934 12.9854 26.0682 12.9244C26.0429 12.8635 26.0299 12.7981 26.0299 12.7321C26.0299 12.6661 26.0429 12.6007 26.0682 12.5397C26.0934 12.4788 26.1304 12.4233 26.1771 12.3767C26.2238 12.33 26.2792 12.293 26.3402 12.2677C26.4011 12.2425 26.4665 12.2295 26.5325 12.2295ZM26.5325 16.0193H36.4321C36.7099 16.0193 36.9347 16.2443 36.9347 16.5219C36.9347 16.7995 36.7099 17.0245 36.4321 17.0245H26.5325C26.2547 17.0245 26.0299 16.7995 26.0299 16.5219C26.0299 16.2443 26.2547 16.0193 26.5325 16.0193ZM26.5325 19.8091H36.4321C36.7099 19.8091 36.9347 20.0342 36.9347 20.3117C36.9347 20.5892 36.7099 20.8143 36.4321 20.8143H26.5325C26.4665 20.8143 26.4011 20.8013 26.3402 20.776C26.2792 20.7508 26.2238 20.7138 26.1771 20.6671C26.1304 20.6204 26.0934 20.565 26.0682 20.504C26.0429 20.443 26.0299 20.3777 26.0299 20.3117C26.0299 20.2457 26.0429 20.1803 26.0682 20.1193C26.0934 20.0584 26.1304 20.0029 26.1771 19.9563C26.2238 19.9096 26.2792 19.8726 26.3402 19.8473C26.4011 19.8221 26.4665 19.8091 26.5325 19.8091ZM11.5657 4.64971H21.4653C21.5313 4.6497 21.5967 4.66269 21.6577 4.68795C21.7187 4.7132 21.7741 4.75022 21.8207 4.79689C21.8674 4.84357 21.9044 4.89898 21.9297 4.95996C21.9549 5.02094 21.9679 5.0863 21.9679 5.15231C21.9679 5.21831 21.9549 5.28367 21.9297 5.34466C21.9044 5.40564 21.8674 5.46105 21.8207 5.50772C21.7741 5.5544 21.7187 5.59142 21.6577 5.61667C21.5967 5.64192 21.5313 5.65491 21.4653 5.6549H11.5657C11.4997 5.65491 11.4343 5.64192 11.3734 5.61667C11.3124 5.59142 11.257 5.5544 11.2103 5.50772C11.1636 5.46105 11.1266 5.40564 11.1013 5.34466C11.0761 5.28367 11.0631 5.21831 11.0631 5.15231C11.0631 5.0863 11.0761 5.02094 11.1013 4.95996C11.1266 4.89898 11.1636 4.84357 11.2103 4.79689C11.257 4.75022 11.3124 4.7132 11.3734 4.68795C11.4343 4.66269 11.4997 4.6497 11.5657 4.64971ZM11.5657 8.43965H21.4653C21.5313 8.43964 21.5967 8.45263 21.6577 8.47788C21.7187 8.50314 21.7741 8.54016 21.8207 8.58683C21.8674 8.6335 21.9044 8.68891 21.9297 8.7499C21.9549 8.81088 21.9679 8.87624 21.9679 8.94225C21.9679 9.00825 21.9549 9.07361 21.9297 9.13459C21.9044 9.19558 21.8674 9.25099 21.8207 9.29766C21.7741 9.34433 21.7187 9.38135 21.6577 9.40661C21.5967 9.43186 21.5313 9.44485 21.4653 9.44484H11.5657C11.4324 9.44484 11.3046 9.39189 11.2103 9.29763C11.1161 9.20338 11.0631 9.07554 11.0631 8.94225C11.0631 8.80895 11.1161 8.68111 11.2103 8.58686C11.3046 8.4926 11.4324 8.43965 11.5657 8.43965ZM11.5657 12.2295H21.4653C21.5313 12.2295 21.5967 12.2425 21.6577 12.2677C21.7187 12.293 21.7741 12.33 21.8207 12.3767C21.8674 12.4233 21.9044 12.4788 21.9297 12.5397C21.9549 12.6007 21.9679 12.6661 21.9679 12.7321C21.9679 12.7981 21.9549 12.8635 21.9297 12.9244C21.9044 12.9854 21.8674 13.0408 21.8207 13.0875C21.7741 13.1342 21.7187 13.1712 21.6577 13.1965C21.5967 13.2217 21.5313 13.2347 21.4653 13.2347H11.5657C11.4997 13.2347 11.4343 13.2217 11.3734 13.1965C11.3124 13.1712 11.257 13.1342 11.2103 13.0875C11.1636 13.0408 11.1266 12.9854 11.1013 12.9244C11.0761 12.8635 11.0631 12.7981 11.0631 12.7321C11.0631 12.6661 11.0761 12.6007 11.1013 12.5397C11.1266 12.4788 11.1636 12.4233 11.2103 12.3767C11.257 12.33 11.3124 12.293 11.3734 12.2677C11.4343 12.2425 11.4997 12.2295 11.5657 12.2295ZM11.5657 16.0193H21.4653C21.7431 16.0193 21.9679 16.2443 21.9679 16.5219C21.9679 16.7995 21.7431 17.0245 21.4653 17.0245H11.5657C11.4997 17.0245 11.4343 17.0115 11.3734 16.9863C11.3124 16.961 11.257 16.924 11.2103 16.8773C11.1636 16.8307 11.1266 16.7753 11.1013 16.7143C11.0761 16.6533 11.0631 16.5879 11.0631 16.5219C11.0631 16.4559 11.0761 16.3906 11.1013 16.3296C11.1266 16.2686 11.1636 16.2132 11.2103 16.1665C11.257 16.1198 11.3124 16.0828 11.3734 16.0576C11.4343 16.0323 11.4997 16.0193 11.5657 16.0193ZM11.5657 19.8091H21.4653C21.7431 19.8091 21.9679 20.0342 21.9679 20.3117C21.9679 20.5892 21.7431 20.8143 21.4653 20.8143H11.5657C11.4997 20.8143 11.4343 20.8013 11.3734 20.776C11.3124 20.7508 11.257 20.7138 11.2103 20.6671C11.1636 20.6204 11.1266 20.565 11.1013 20.504C11.0761 20.443 11.0631 20.3777 11.0631 20.3117C11.0631 20.2457 11.0761 20.1803 11.1013 20.1193C11.1266 20.0584 11.1636 20.0029 11.2103 19.9563C11.257 19.9096 11.3124 19.8726 11.3734 19.8473C11.4343 19.8221 11.4997 19.8091 11.5657 19.8091Z" fill="#19517E"/>
</svg>
