<svg width="48" height="48" viewBox="0 0 48 48" fill="none" xmlns="http://www.w3.org/2000/svg">
<path d="M40.896 21.312H25.92C25.152 21.312 24.48 20.64 24.48 19.872V19.776H23.52V19.872C23.52 21.216 24.576 22.272 25.92 22.272H40.896C41.664 22.272 42.24 22.848 42.24 23.616C42.24 24.384 41.664 24.96 40.896 24.96H14.304C13.632 24.96 12.96 25.344 12.672 25.92H14.112C14.208 25.92 14.304 25.824 14.4 25.824H40.992C42.24 25.824 43.296 24.768 43.296 23.52C43.296 22.272 42.144 21.312 40.896 21.312Z" fill="#19517E"/>
<path d="M45.12 0.959991H2.87999C1.82399 0.959991 0.959991 1.82399 0.959991 2.87999V17.952C0.959991 19.008 1.82399 19.872 2.87999 19.872H45.12C46.176 19.872 47.04 19.008 47.04 17.952V2.87999C47.04 1.82399 46.176 0.959991 45.12 0.959991ZM34.368 4.12799C34.368 3.83999 34.56 3.64799 34.848 3.64799H37.344C37.632 3.64799 37.824 3.83999 37.824 4.12799V6.62399C37.824 6.91199 37.632 7.10399 37.344 7.10399H34.848C34.56 7.10399 34.368 6.91199 34.368 6.62399V4.12799ZM28.32 4.12799C28.32 3.83999 28.512 3.64799 28.8 3.64799H31.296C31.584 3.64799 31.776 3.83999 31.776 4.12799V6.62399C31.776 6.91199 31.584 7.10399 31.296 7.10399H28.8C28.512 7.10399 28.32 6.91199 28.32 6.62399V4.12799ZM28.224 8.73599C28.512 8.73599 28.704 8.92799 28.704 9.21599V11.712C28.704 12 28.512 12.192 28.224 12.192H25.728C25.44 12.192 25.248 12 25.248 11.712V9.21599C25.248 8.92799 25.44 8.73599 25.728 8.73599H28.224ZM22.272 4.12799C22.272 3.83999 22.464 3.64799 22.752 3.64799H25.248C25.536 3.64799 25.728 3.83999 25.728 4.12799V6.62399C25.728 6.91199 25.536 7.10399 25.248 7.10399H22.752C22.464 7.10399 22.272 6.91199 22.272 6.62399V4.12799ZM22.176 8.73599C22.464 8.73599 22.656 8.92799 22.656 9.21599V11.712C22.656 12 22.464 12.192 22.176 12.192H19.68C19.392 12.192 19.2 12 19.2 11.712V9.21599C19.2 8.92799 19.392 8.73599 19.68 8.73599H22.176ZM16.224 4.12799C16.224 3.83999 16.416 3.64799 16.704 3.64799H19.2C19.488 3.64799 19.68 3.83999 19.68 4.12799V6.62399C19.68 6.91199 19.488 7.10399 19.2 7.10399H16.704C16.416 7.10399 16.224 6.91199 16.224 6.62399V4.12799ZM10.176 4.12799C10.176 3.83999 10.368 3.64799 10.656 3.64799H13.152C13.44 3.64799 13.632 3.83999 13.632 4.12799V6.62399C13.632 6.91199 13.44 7.10399 13.152 7.10399H10.656C10.368 7.10399 10.176 6.91199 10.176 6.62399V4.12799ZM4.12799 4.12799C4.12799 3.83999 4.31999 3.64799 4.60799 3.64799H7.10399C7.39199 3.64799 7.58399 3.83999 7.58399 4.12799V6.62399C7.58399 6.91199 7.39199 7.10399 7.10399 7.10399H4.60799C4.31999 7.10399 4.12799 6.91199 4.12799 6.62399V4.12799ZM7.58399 16.608C7.58399 16.896 7.39199 17.088 7.10399 17.088H4.60799C4.31999 17.088 4.12799 16.896 4.12799 16.608V14.112C4.12799 13.824 4.31999 13.632 4.60799 13.632H7.10399C7.39199 13.632 7.58399 13.824 7.58399 14.112V16.608ZM9.69599 12.096H4.60799C4.31999 12.096 4.12799 11.904 4.12799 11.616V9.21599C4.12799 8.92799 4.31999 8.73599 4.60799 8.73599H9.69599C9.98399 8.73599 10.176 8.92799 10.176 9.21599V11.712C10.176 11.904 9.98399 12.096 9.69599 12.096ZM13.632 16.608C13.632 16.896 13.44 17.088 13.152 17.088H10.656C10.368 17.088 10.176 16.896 10.176 16.608V14.112C10.176 13.824 10.368 13.632 10.656 13.632H13.152C13.44 13.632 13.632 13.824 13.632 14.112V16.608ZM13.728 12.096C13.44 12.096 13.248 11.904 13.248 11.616V9.21599C13.248 8.92799 13.44 8.73599 13.728 8.73599H16.224C16.512 8.73599 16.704 8.92799 16.704 9.21599V11.712C16.704 12 16.512 12.192 16.224 12.192H13.728V12.096ZM31.776 16.608C31.776 16.896 31.584 17.088 31.296 17.088H16.704C16.416 17.088 16.224 16.896 16.224 16.608V14.112C16.224 13.824 16.416 13.632 16.704 13.632H31.2C31.488 13.632 31.68 13.824 31.68 14.112V16.608H31.776ZM31.872 12.096C31.584 12.096 31.392 11.904 31.392 11.616V9.21599C31.392 8.92799 31.584 8.73599 31.872 8.73599H34.368C34.656 8.73599 34.848 8.92799 34.848 9.21599V11.712C34.848 12 34.656 12.192 34.368 12.192H31.872V12.096ZM37.824 16.608C37.824 16.896 37.632 17.088 37.344 17.088H34.848C34.56 17.088 34.368 16.896 34.368 16.608V14.112C34.368 13.824 34.56 13.632 34.848 13.632H37.344C37.632 13.632 37.824 13.824 37.824 14.112V16.608ZM43.872 16.608C43.872 16.896 43.68 17.088 43.392 17.088H40.896C40.608 17.088 40.416 16.896 40.416 16.608V14.112C40.416 13.824 40.608 13.632 40.896 13.632H43.392C43.68 13.632 43.872 13.824 43.872 14.112V16.608ZM43.872 11.616C43.872 11.904 43.68 12.096 43.392 12.096H38.304C38.016 12.096 37.824 11.904 37.824 11.616V9.21599C37.824 8.92799 38.016 8.73599 38.304 8.73599H43.392C43.68 8.73599 43.872 8.92799 43.872 9.21599V11.616ZM43.872 6.62399C43.872 6.91199 43.68 7.10399 43.392 7.10399H40.896C40.608 7.10399 40.416 6.91199 40.416 6.62399V4.12799C40.416 3.83999 40.608 3.64799 40.896 3.64799H43.392C43.68 3.64799 43.872 3.83999 43.872 4.12799V6.62399ZM18.528 33.504C18.24 35.808 18.048 38.016 18.048 40.128V40.32C18.048 43.104 15.648 45.312 12.768 45.312C9.88799 45.312 7.58399 43.104 7.58399 40.32V40.128C7.58399 38.016 7.39199 35.808 7.10399 33.504C6.91199 32.064 6.71999 30.24 6.91199 28.992C6.43199 30.336 6.62399 32.832 6.91199 34.848C7.19999 37.056 7.39199 39.36 7.39199 41.664V41.856C7.39199 44.736 9.88799 47.04 12.864 47.04C14.4 47.04 15.744 46.464 16.704 45.504C18.528 43.776 18.336 41.76 18.336 41.664C18.336 39.36 18.528 37.152 18.816 34.848C19.104 32.928 19.296 30.432 18.72 28.992C18.816 30.048 18.816 31.584 18.528 33.504Z" fill="#19517E"/>
<path d="M12.48 28.896V26.976C10.56 26.976 8.83199 27.456 8.25599 28.032C7.96799 28.32 7.58399 29.856 8.06399 33.504C8.35199 35.808 8.54399 38.112 8.54399 40.224V40.32C8.54399 42.528 10.464 44.352 12.768 44.352C15.168 44.352 17.088 42.528 17.088 40.32C17.088 39.456 16.992 37.248 17.568 33.408C18.24 28.896 17.472 28.032 17.376 27.936C16.704 27.36 15.072 26.976 13.056 26.88V28.896C13.44 28.992 13.824 29.376 13.824 29.856V33.024C13.824 33.504 13.536 33.888 13.056 33.984V38.784H12.48V33.984C12.096 33.888 11.712 33.504 11.712 33.024V29.856C11.712 29.376 12.096 28.992 12.48 28.896Z" fill="#19517E"/>
</svg>
