<svg width="48" height="48" viewBox="0 0 48 48" fill="none" xmlns="http://www.w3.org/2000/svg">
<g clip-path="url(#clip0_1265_242807)">
<path d="M25.8581 37.0839C25.0839 36.7742 22.9161 36.8516 22.1419 37.0839C20.129 37.5484 16.7226 39.2518 16.7226 42.8903L16.6452 47.3032C16.6452 47.4579 16.7226 47.6129 16.8002 47.7679C16.8772 47.9225 17.1098 47.9225 17.2643 47.9225H30.1161L30.5806 48H30.6581C30.8127 48 30.9677 47.9226 31.0452 47.845C31.1998 47.6904 31.2774 47.5354 31.2774 47.3809V42.8902C31.2774 39.1743 27.9484 37.4709 25.8581 37.0838V37.0839ZM27.9484 31.2774C27.9484 29.0969 26.1808 27.3289 24 27.3289C21.8192 27.3289 20.0516 29.0969 20.0516 31.2773C20.0516 33.4581 21.8191 35.2258 24 35.2258C26.1809 35.2258 27.9484 33.4581 27.9484 31.2774ZM42.5806 37.0839C41.8064 36.7742 39.6389 36.8516 38.8647 37.0839C36.8517 37.5484 33.4454 39.2518 33.4454 42.8903L33.3678 47.3032C33.3678 47.4579 33.4453 47.6129 33.5224 47.7679C33.5999 47.9225 33.8325 47.9225 33.987 47.9225H46.8387L47.3032 48H47.3808C47.5354 48 47.6904 47.9226 47.7679 47.845C47.9225 47.6904 48 47.5354 48 47.3809V42.8902C48 39.1743 44.5935 37.4709 42.5806 37.0838V37.0839ZM44.6712 31.2774C44.6712 29.0969 42.9031 27.3289 40.7227 27.3289C38.5419 27.3289 36.7742 29.0969 36.7742 31.2773C36.7742 33.4581 38.5419 35.2258 40.7226 35.2258C42.9031 35.2258 44.6712 33.4581 44.6712 31.2774ZM9.2129 37.0839C8.43871 36.7742 6.27097 36.8516 5.49677 37.0839C3.48387 37.5484 0.0774194 39.2518 0.0774194 42.8903L0 47.3032C0 47.4579 0.0774194 47.6129 0.155032 47.7679C0.232065 47.9225 0.464613 47.9225 0.619161 47.9225H13.471L13.9355 48H14.0129C14.1675 48 14.3226 47.9226 14.4 47.845C14.5546 47.6904 14.6323 47.5354 14.6323 47.3809V42.8902C14.6323 39.1743 11.2258 37.4709 9.2129 37.0838V37.0839ZM11.2258 31.2774C11.2258 29.0969 9.45813 27.3289 7.27742 27.3289C5.0969 27.3289 3.32884 29.0969 3.32884 31.2773C3.32884 33.4581 5.0969 35.2258 7.27742 35.2258C9.45813 35.2258 11.2258 33.4581 11.2258 31.2774ZM3.32884 22.6837C3.6389 22.7612 4.026 22.6837 4.25806 22.4516C4.49013 22.2966 4.64516 21.9871 4.64516 21.6774V16.3355C4.64516 16.103 4.80019 15.9484 5.03226 15.9484C5.26432 15.9484 5.41935 16.103 5.41935 16.3355V24.6192H13.2387V16.8772C13.2387 16.6452 13.3934 16.4901 13.6258 16.4901C13.8581 16.4901 14.0129 16.6452 14.0129 16.8772V17.884L18.9677 20.5937C19.3548 20.7482 19.7419 20.6711 20.129 20.5161C20.5161 20.3612 20.8258 19.974 20.9806 19.5869C20.9806 19.5099 21.0583 19.4324 21.0583 19.3549V18.8127C21.0583 18.6582 20.9807 18.5807 20.9032 18.4256V18.3486C20.8258 18.1936 20.7482 18.116 20.6712 18.0385L20.5936 17.9615C20.4386 17.884 20.3611 17.7289 20.2065 17.7289L16.413 15.716C16.3356 15.716 16.3356 15.6389 16.2581 15.6389L16.3355 15.4839L14.4776 12.5421C13.9355 11.6904 13.0063 11.0708 12.0775 10.9938H6.96774C6.42561 10.9938 5.80645 11.0708 5.34194 11.3033C4.87723 11.4579 4.49013 11.845 4.18064 12.2321C3.09677 13.858 2.47761 15.7159 2.47761 17.7289V21.5999C2.47761 22.142 2.86471 22.6067 3.32884 22.6838V22.6837ZM12.7742 6.03853C12.7742 4.11485 11.2145 2.55466 9.29032 2.55466C7.36616 2.55466 5.80645 4.11485 5.80645 6.03853C5.80645 7.96269 7.36616 9.5224 9.29032 9.5224C11.2145 9.5224 12.7742 7.96269 12.7742 6.03853Z" fill="#0A5183"/>
<path d="M20.284 16.5677L25.1613 9.36774L26.1675 10.0645L21.2903 17.2643C21.4453 17.4194 21.5224 17.4969 21.6 17.6514C21.8324 17.9615 21.9871 18.3486 22.0645 18.7357H44.284V0H16.9547V14.4776L17.1873 14.8647L20.284 16.5677ZM40.258 2.7871H41.4967V16.5677H40.258V2.7871ZM35.9226 8.98065H37.1613V16.6452H35.9226V8.98065ZM32.7482 11.3808H33.9871V16.5676H32.7484L32.7482 11.3808ZM29.4968 8.43861H30.7356V16.5676H29.4968V8.43861Z" fill="#0A5183"/>
</g>
<defs>
<clipPath id="clip0_1265_242807">
<rect width="48" height="48" fill="white"/>
</clipPath>
</defs>
</svg>
