<svg width="46" height="36" viewBox="0 0 46 36" fill="none" xmlns="http://www.w3.org/2000/svg">
<path d="M26.2 13.3309C26.1821 12.495 25.8376 11.6993 25.2401 11.1144C24.6426 10.5295 23.8397 10.202 23.0036 10.202C22.1675 10.202 21.3647 10.5295 20.7672 11.1144C20.1697 11.6993 19.8251 12.495 19.8073 13.3309C19.8073 15.0909 21.24 16.5236 23 16.5236C24.76 16.5236 26.2 15.0909 26.2 13.3309Z" fill="#19517E"/>
<path d="M7.35645 25.8618H12.7601C13.1383 21.7964 15.8874 18.4146 19.611 17.1127C18.571 16.1746 17.9019 14.8364 17.9019 13.3309C17.9019 10.5164 20.1928 8.22546 23.0074 8.22546C25.8219 8.22546 28.1128 10.5164 28.1128 13.3309C28.1128 14.8364 27.4437 16.1818 26.4037 17.1127C30.1274 18.4218 32.8764 21.7964 33.2546 25.8618H38.6583V4.94547H7.35645V25.8618Z" fill="#19517E"/>
<path d="M23 18.4364C18.7018 18.4364 15.1455 21.6873 14.6727 25.8691H31.3345C30.8545 21.6873 27.2982 18.4364 23 18.4364Z" fill="#19517E"/>
<path d="M42.7964 3.65818C42.7964 2.08 41.5091 0.792725 39.9309 0.792725H6.06912C4.49094 0.792725 3.20367 2.08 3.20367 3.65818V30.0145H42.7964V3.65818ZM40.5564 26.8218C40.5564 27.3527 40.1273 27.7745 39.6037 27.7745H6.3964C5.86549 27.7745 5.44367 27.3455 5.44367 26.8218V3.99272C5.44367 3.46182 5.87276 3.04 6.3964 3.04H39.5964C40.1273 3.04 40.5491 3.46909 40.5491 3.99272V26.8218H40.5564ZM2.25094 31.9273H0.0909424V32.3418C0.0909424 33.92 1.37822 35.2073 2.9564 35.2073H43.0509C44.6291 35.2073 45.9164 33.92 45.9164 32.3418V31.9273H43.7564H2.25094Z" fill="#19517E"/>
</svg>
