<svg width="35" height="45" viewBox="0 0 35 45" fill="none" xmlns="http://www.w3.org/2000/svg">
<path d="M33.4831 3.7967C32.7367 3.04875 31.7441 2.63672 30.688 2.63672H28.935V4.39453C28.935 6.33305 27.3597 7.91016 25.4233 7.91016H9.62052C7.68411 7.91016 6.10876 6.33305 6.10876 4.39453V2.63672H4.34998C2.17399 2.63672 0.40176 4.40895 0.3993 6.5874L0.361331 41.0405C0.3601 42.0978 0.77055 43.092 1.51683 43.84C2.26328 44.5881 3.25592 45 4.31201 45H30.6499C32.8259 45 34.5982 43.2278 34.6006 41.0493L34.6387 6.59619C34.6399 5.53896 34.2295 4.54474 33.4831 3.7967ZM17.9477 15.8203H27.3039C28.0312 15.8203 28.6208 16.4106 28.6208 17.1387C28.6208 17.8668 28.0312 18.457 27.3039 18.457H17.9477C17.2204 18.457 16.6308 17.8668 16.6308 17.1387C16.6308 16.4106 17.2204 15.8203 17.9477 15.8203ZM17.9477 24.6094H27.3039C28.0312 24.6094 28.6208 25.1996 28.6208 25.9277C28.6208 26.6558 28.0312 27.2461 27.3039 27.2461H17.9477C17.2204 27.2461 16.6308 26.6558 16.6308 25.9277C16.6308 25.1996 17.2204 24.6094 17.9477 24.6094ZM17.9477 33.3984H27.3416C28.0688 33.3984 28.6584 33.9887 28.6584 34.7168C28.6584 35.4449 28.0688 36.0352 27.3416 36.0352H17.9477C17.2204 36.0352 16.6308 35.4449 16.6308 34.7168C16.6308 33.9887 17.2204 33.3984 17.9477 33.3984ZM6.72734 15.8723C7.24167 15.3575 8.0754 15.3575 8.58974 15.8723L9.30578 16.5893L12.3428 13.549C12.8571 13.0342 13.6908 13.034 14.2051 13.549C14.7193 14.0637 14.7193 14.8985 14.2051 15.4134L10.2369 19.3859C10.1147 19.5083 9.96952 19.6054 9.80974 19.6716C9.64995 19.7379 9.47867 19.772 9.3057 19.772C9.13272 19.772 8.96144 19.7379 8.80165 19.6716C8.64187 19.6054 8.49671 19.5083 8.37449 19.3859L6.72725 17.7367C6.213 17.2219 6.213 16.3871 6.72734 15.8723ZM6.72734 25.3326C7.24167 24.8178 8.0754 24.8178 8.58974 25.3326L9.30578 26.0495L12.3428 23.0091C12.857 22.4944 13.6908 22.4944 14.2051 23.0091C14.7193 23.5239 14.7193 24.3587 14.2051 24.8736L10.2369 28.8461C10.1147 28.9685 9.96951 29.0656 9.80972 29.1319C9.64994 29.1981 9.47867 29.2322 9.3057 29.2322C9.13272 29.2322 8.96145 29.1981 8.80167 29.1319C8.64188 29.0656 8.49673 28.9685 8.37449 28.8461L6.72725 27.197C6.213 26.6822 6.213 25.8475 6.72734 25.3326ZM6.72734 34.1217C7.24167 33.6068 8.0754 33.6068 8.58974 34.1217L9.30578 34.8385L12.3428 31.7982C12.857 31.2834 13.6908 31.2834 14.2051 31.7982C14.7193 32.313 14.7193 33.1478 14.2051 33.6626L10.2369 37.6352C10.1147 37.7576 9.96951 37.8547 9.80972 37.9209C9.64994 37.9872 9.47867 38.0213 9.3057 38.0213C9.13272 38.0213 8.96145 37.9872 8.80167 37.9209C8.64188 37.8547 8.49673 37.7576 8.37449 37.6352L6.72725 35.986C6.213 35.4713 6.213 34.6366 6.72734 34.1217Z" fill="#19517E"/>
<path d="M8.74268 4.39453C8.74268 4.87995 9.13572 5.27344 9.62062 5.27344H25.4233C25.9082 5.27344 26.3013 4.87995 26.3013 4.39453V0.878906C26.3013 0.393486 25.9082 0 25.4233 0H9.62062C9.13572 0 8.74268 0.393486 8.74268 0.878906V4.39453Z" fill="#19517E"/>
</svg>
