<svg width="45" height="44" viewBox="0 0 45 44" fill="none" xmlns="http://www.w3.org/2000/svg">
<path d="M45.0025 3.77238H23.8125V0.847382H22.1875V3.77238H0.997492C0.688742 3.77238 0.428741 4.03238 0.428741 4.34113V6.30738C0.428741 6.61613 0.688742 6.87613 0.997492 6.87613H45.0025C45.3112 6.87613 45.5712 6.61613 45.5712 6.30738V4.34113C45.5712 4.03238 45.3112 3.77238 45.0025 3.77238ZM23.2762 37.145V35.7361H21.6512V37.1548L16.5455 41.7356C16.389 41.8806 16.2958 42.0813 16.286 42.2943C16.2762 42.5074 16.3505 42.7158 16.493 42.8745C16.6355 43.0333 16.8347 43.1296 17.0477 43.1427C17.2606 43.1558 17.4701 43.0847 17.631 42.9446L21.6512 39.3371V41.9924C21.6512 42.4311 22.025 42.8049 22.4637 42.8049C22.9187 42.8049 23.2762 42.4311 23.2762 41.9924V39.3274L27.3062 42.9446C27.3855 43.0165 27.4782 43.072 27.579 43.1079C27.6798 43.1437 27.7867 43.1592 27.8936 43.1535C28.0004 43.1477 28.105 43.1209 28.2014 43.0744C28.2978 43.028 28.3841 42.9629 28.4551 42.8829C28.599 42.7225 28.6734 42.5116 28.6618 42.2965C28.6502 42.0813 28.5537 41.8796 28.3934 41.7356L23.2762 37.145Z" fill="#19517E"/>
<path d="M20.5934 25.5149C20.9703 25.5149 21.2759 25.2093 21.2759 24.8324C21.2759 24.4555 20.9703 24.1499 20.5934 24.1499C20.2164 24.1499 19.9109 24.4555 19.9109 24.8324C19.9109 25.2093 20.2164 25.5149 20.5934 25.5149Z" fill="#19517E"/>
<path d="M25.496 30.3395C25.8729 30.3395 26.1785 30.0339 26.1785 29.657C26.1785 29.2801 25.8729 28.9745 25.496 28.9745C25.119 28.9745 24.8135 29.2801 24.8135 29.657C24.8135 30.0339 25.119 30.3395 25.496 30.3395Z" fill="#19517E"/>
<path d="M30.241 25.5149C30.6179 25.5149 30.9235 25.2093 30.9235 24.8324C30.9235 24.4555 30.6179 24.1499 30.241 24.1499C29.864 24.1499 29.5585 24.4555 29.5585 24.8324C29.5585 25.2093 29.864 25.5149 30.241 25.5149Z" fill="#19517E"/>
<path d="M12.5675 19.9785C14.1827 19.9785 15.5331 18.8556 15.902 17.3525H12.5707C12.3552 17.3525 12.1486 17.2669 11.9962 17.1145C11.8438 16.9622 11.7582 16.7555 11.7582 16.54V13.2088C10.9427 13.4074 10.2281 13.8978 9.74961 14.5875C9.27109 15.2771 9.06178 16.1181 9.16121 16.9516C9.26064 17.7851 9.66194 18.5533 10.2893 19.111C10.9166 19.6687 11.7281 19.9773 12.5675 19.9785ZM15.7622 28.9761C15.6725 28.9762 15.5837 28.994 15.5008 29.0285C15.4179 29.0629 15.3427 29.1133 15.2793 29.1768C15.2159 29.2404 15.1657 29.3158 15.1314 29.3987C15.0972 29.4816 15.0796 29.5705 15.0797 29.6603C15.0798 29.75 15.0976 29.8388 15.1321 29.9217C15.1665 30.0045 15.2169 30.0798 15.2804 30.1432C15.344 30.2066 15.4194 30.2568 15.5023 30.2911C15.5853 30.3253 15.6741 30.3429 15.7639 30.3428C15.9449 30.3428 16.1185 30.2708 16.2465 30.1429C16.3745 30.0149 16.4464 29.8413 16.4464 29.6603C16.4464 29.4792 16.3745 29.3056 16.2465 29.1777C16.1185 29.0497 15.9449 28.9778 15.7639 28.9778L15.7622 28.9761Z" fill="#19517E"/>
<path d="M5.59625 29.8374C5.59625 31.0786 6.08932 32.269 6.96699 33.1466C7.84466 34.0243 9.03504 34.5174 10.2763 34.5174H35.7238C36.965 34.5174 38.1553 34.0243 39.033 33.1466C39.9107 32.269 40.4037 31.0786 40.4037 29.8374V8.50113H5.59625V29.8374ZM22.4686 12.991H35.2184C35.4339 12.991 35.6405 13.0766 35.7929 13.229C35.9453 13.3814 36.0309 13.588 36.0309 13.8035C36.0309 14.019 35.9453 14.2257 35.7929 14.378C35.6405 14.5304 35.4339 14.616 35.2184 14.616H22.4686C22.2531 14.616 22.0465 14.5304 21.8941 14.378C21.7417 14.2257 21.6561 14.019 21.6561 13.8035C21.6561 13.588 21.7417 13.3814 21.8941 13.229C22.0465 13.0766 22.2531 12.991 22.4686 12.991ZM22.4686 16.2979H35.2184C35.4339 16.2979 35.6405 16.3835 35.7929 16.5359C35.9453 16.6882 36.0309 16.8949 36.0309 17.1104C36.0309 17.3259 35.9453 17.5325 35.7929 17.6849C35.6405 17.8373 35.4339 17.9229 35.2184 17.9229H22.4686C22.2531 17.9229 22.0465 17.8373 21.8941 17.6849C21.7417 17.5325 21.6561 17.3259 21.6561 17.1104C21.6561 16.8949 21.7417 16.6882 21.8941 16.5359C22.0465 16.3835 22.2531 16.2979 22.4686 16.2979ZM22.4686 19.608H32.3454C32.5609 19.608 32.7675 19.6936 32.9199 19.846C33.0723 19.9984 33.1579 20.205 33.1579 20.4205C33.1579 20.636 33.0723 20.8427 32.9199 20.995C32.7675 21.1474 32.5609 21.233 32.3454 21.233H22.4686C22.2531 21.233 22.0465 21.1474 21.8941 20.995C21.7417 20.8427 21.6561 20.636 21.6561 20.4205C21.6561 20.205 21.7417 19.9984 21.8941 19.846C22.0465 19.6936 22.2531 19.608 22.4686 19.608ZM20.5934 22.5249C21.8658 22.5249 22.9009 23.56 22.9009 24.8324C22.9009 25.1704 22.8245 25.4889 22.6929 25.7781L24.4999 27.5851C24.7943 27.4408 25.1164 27.3616 25.4442 27.3529C25.772 27.3442 26.0978 27.4062 26.3995 27.5348L28.1464 25.7863C28.008 25.4873 27.9359 25.1619 27.9351 24.8324C27.9351 24.376 28.0705 23.9299 28.324 23.5504C28.5776 23.1709 28.9379 22.8752 29.3596 22.7005C29.7812 22.5259 30.2452 22.4802 30.6928 22.5692C31.1404 22.6583 31.5516 22.878 31.8743 23.2007C32.197 23.5234 32.4168 23.9346 32.5058 24.3822C32.5948 24.8298 32.5491 25.2938 32.3745 25.7154C32.1998 26.1371 31.9041 26.4974 31.5246 26.751C31.1451 27.0045 30.699 27.1399 30.2426 27.1399C29.9046 27.1399 29.5861 27.0635 29.2985 26.9335L27.5695 28.6625C27.7158 28.9648 27.8035 29.2995 27.8035 29.657C27.8038 29.9991 27.7279 30.3371 27.5815 30.6463C27.4351 30.9555 27.2218 31.2283 26.9569 31.4449C26.6921 31.6616 26.3824 31.8166 26.0503 31.8988C25.7181 31.9809 25.3719 31.9882 25.0366 31.9201C24.7013 31.852 24.3854 31.7102 24.1116 31.5049C23.8379 31.2997 23.6133 31.0361 23.4539 30.7333C23.2946 30.4305 23.2046 30.0961 23.1905 29.7542C23.1763 29.4124 23.2384 29.0717 23.3721 28.7568L21.5456 26.9286C21.2531 27.0619 20.933 27.1399 20.5934 27.1399C20.2538 27.1399 19.932 27.0619 19.6411 26.9286L17.8618 28.708C17.9934 29.0005 18.073 29.319 18.073 29.6586C18.0506 30.2556 17.7977 30.8207 17.3674 31.2352C16.9371 31.6496 16.3629 31.8811 15.7655 31.8811C15.1681 31.8811 14.5939 31.6496 14.1636 31.2352C13.7333 30.8207 13.4804 30.2556 13.458 29.6586C13.4548 28.3863 14.4899 27.3511 15.7623 27.3511C16.1019 27.3511 16.422 27.4291 16.7113 27.5608L18.4939 25.7781C18.3578 25.4814 18.2868 25.1589 18.2859 24.8324C18.2859 23.56 19.321 22.5249 20.5934 22.5249ZM12.5659 11.4749C12.673 11.4745 12.7791 11.4952 12.8782 11.5359C12.9772 11.5767 13.0673 11.6366 13.1431 11.7123C13.2189 11.7879 13.279 11.8778 13.3199 11.9768C13.3609 12.0758 13.3818 12.1819 13.3816 12.289V15.7275H16.8071L16.8234 15.7243C17.0389 15.7243 17.2455 15.8099 17.3979 15.9622C17.5503 16.1146 17.6359 16.3213 17.6359 16.5368C17.6359 19.3318 15.3609 21.6035 12.5659 21.6035C11.2236 21.6009 9.93722 21.066 8.98887 20.1161C8.04052 19.1663 7.50768 17.879 7.50725 16.5368C7.50897 15.1952 8.04266 13.9091 8.99127 12.9605C9.93987 12.0119 11.226 11.4782 12.5675 11.4765L12.5659 11.4749Z" fill="#19517E"/>
</svg>
