<svg width="48" height="44" viewBox="0 0 48 44" fill="none" xmlns="http://www.w3.org/2000/svg">
<path d="M27.4413 42.2416V43.1361H12.8802V42.2416C12.8802 41.6208 13.2527 41.0957 13.693 41.0957H26.6274C27.0688 41.0957 27.4413 41.6208 27.4413 42.2416ZM17.7234 36.6103L17.1667 39.8762H23.1557L22.5991 36.6103H17.7234ZM38.6156 33.0744C38.6156 33.236 38.5514 33.391 38.4371 33.5053C38.3229 33.6196 38.1679 33.6838 38.0062 33.6838H2.31563C2.15401 33.6838 1.99901 33.6196 1.88473 33.5053C1.77045 33.391 1.70625 33.236 1.70625 33.0744V11.0103C1.70613 10.9302 1.72179 10.8508 1.75236 10.7768C1.78292 10.7027 1.82778 10.6354 1.88437 10.5786C1.94096 10.5219 2.00817 10.4769 2.08217 10.4461C2.15617 10.4154 2.2355 10.3995 2.31563 10.3995H26.8031C26.8259 9.82674 26.8928 9.25662 27.0031 8.69415H1.13691C0.835477 8.69458 0.546517 8.81452 0.333392 9.02768C0.120266 9.24084 0.000372024 9.52982 0 9.83125L0 34.2531C0.000223019 34.5547 0.120043 34.8438 0.333176 35.0572C0.546309 35.2705 0.835354 35.3906 1.13691 35.3911H39.1837C39.4854 35.3909 39.7748 35.2709 39.9882 35.0576C40.2016 34.8442 40.3216 34.5549 40.3219 34.2531V21.8335C39.7597 21.9518 39.1893 22.0266 38.6156 22.0571V33.0744ZM48 10.8586C47.9991 12.3976 47.6431 13.9156 46.9596 15.2945C46.2761 16.6734 45.2836 17.876 44.0594 18.8086C42.8352 19.7412 41.4122 20.3787 39.9013 20.6715C38.3904 20.9643 36.8323 20.9045 35.3483 20.4966C35.2707 20.4754 35.1896 20.4698 35.1098 20.4801C35.03 20.4905 34.953 20.5165 34.8833 20.5567L30.102 23.3162V17.1834C30.1019 17.0525 30.0597 16.9251 29.9818 16.8199C29.0385 15.5502 28.41 14.0747 28.1479 12.5148C27.8859 10.9548 27.9979 9.35497 28.4746 7.84672C28.9514 6.33848 29.7793 4.96492 30.8903 3.83897C32.0013 2.71302 33.3637 1.86684 34.8654 1.36998C36.3671 0.873128 37.9654 0.739792 39.5287 0.980936C41.092 1.22208 42.5757 1.83082 43.858 2.75711C45.1402 3.68339 46.1842 4.90078 46.9043 6.30918C47.6244 7.71757 47.9999 9.27676 48 10.8586ZM46.5814 8.12106C46.5814 7.99485 46.5423 7.87174 46.4694 7.7687C46.3965 7.66565 46.2935 7.58775 46.1745 7.54572L38.2083 4.74259C38.0768 4.69722 37.9339 4.69722 37.8023 4.74259L29.8362 7.54572C29.7172 7.58788 29.6142 7.66588 29.5413 7.76899C29.4684 7.87211 29.4293 7.99527 29.4293 8.12153C29.4293 8.24779 29.4684 8.37095 29.5413 8.47406C29.6142 8.57718 29.7172 8.65518 29.8362 8.69734L32.313 9.56828V14.9884C32.3131 15.1246 32.3588 15.2569 32.4427 15.3641C32.5266 15.4714 32.6439 15.5476 32.776 15.5806L37.8585 16.8425C37.9548 16.8675 38.0558 16.8675 38.1521 16.8425L43.2367 15.5806C43.369 15.5478 43.4865 15.4717 43.5706 15.3644C43.6547 15.2571 43.7005 15.1248 43.7006 14.9884V9.56706L46.1745 8.69706C46.2935 8.65472 46.3965 8.5766 46.4693 8.47343C46.5422 8.37026 46.5813 8.24708 46.5814 8.12078V8.12106ZM31.8775 8.12106L38.0053 10.2767L40.4347 9.42147V9.40375L37.8477 8.71C37.7704 8.6893 37.6978 8.65356 37.6343 8.60483C37.5707 8.5561 37.5174 8.49532 37.4773 8.42598C37.4372 8.35663 37.4112 8.28008 37.4007 8.20068C37.3903 8.12128 37.3955 8.0406 37.4162 7.96323C37.4369 7.88587 37.4727 7.81334 37.5214 7.74978C37.5701 7.68623 37.6309 7.6329 37.7003 7.59283C37.7696 7.55276 37.8462 7.52675 37.9256 7.51627C38.0049 7.50579 38.0856 7.51105 38.163 7.53175L41.2032 8.34644C41.333 8.38107 41.4477 8.4576 41.5295 8.56414C41.6113 8.67068 41.6555 8.80125 41.6555 8.93556V8.99275L44.1322 8.12087L38.0053 5.96519L31.8775 8.12106ZM41.6557 12.6539C41.6537 12.8144 41.5885 12.9678 41.4742 13.0806C41.36 13.1934 41.2059 13.2567 41.0453 13.2567C40.8847 13.2567 40.7306 13.1934 40.6164 13.0806C40.5021 12.9678 40.4369 12.8144 40.4349 12.6539V10.7157L38.2085 11.499C38.0771 11.545 37.9339 11.545 37.8025 11.499L33.5338 9.99653V14.5107L38.0057 15.6219L42.4804 14.5107V9.99653L41.6554 10.2862L41.6557 12.6539ZM28.8816 17.3824V24.3733C28.8816 24.4804 28.9099 24.5855 28.9635 24.6782C29.017 24.7709 29.0941 24.8479 29.1868 24.9014C29.2796 24.9549 29.3848 24.9831 29.4918 24.9831C29.5989 24.9831 29.7041 24.9549 29.7968 24.9014L35.2763 21.7389C35.971 21.9115 36.6804 22.018 37.3951 22.0571V32.4633H2.92603V11.6201H26.8196C26.9535 13.6961 27.668 15.6927 28.8816 17.3824ZM4.96331 15.8524C4.96325 15.9325 4.97898 16.0119 5.00961 16.0859C5.04023 16.1599 5.08515 16.2272 5.14179 16.2838C5.19844 16.3404 5.26569 16.3854 5.33971 16.416C5.41372 16.4466 5.49305 16.4623 5.57316 16.4623H18.3145C18.4764 16.4623 18.6316 16.398 18.7461 16.2835C18.8605 16.1691 18.9248 16.0138 18.9248 15.852C18.9248 15.6901 18.8605 15.5349 18.7461 15.4204C18.6316 15.306 18.4764 15.2417 18.3145 15.2417H5.57316C5.49299 15.2417 5.41361 15.2575 5.33956 15.2882C5.26551 15.3189 5.19824 15.3639 5.1416 15.4206C5.08496 15.4773 5.04006 15.5447 5.00946 15.6188C4.97887 15.6929 4.96319 15.7723 4.96331 15.8524ZM4.96331 19.9784C4.96324 20.1402 5.02743 20.2955 5.14179 20.41C5.25614 20.5246 5.4113 20.589 5.57316 20.5892H18.3145C18.4764 20.5892 18.6316 20.5249 18.7461 20.4105C18.8605 20.296 18.9248 20.1408 18.9248 19.9789C18.9248 19.8171 18.8605 19.6618 18.7461 19.5474C18.6316 19.4329 18.4764 19.3686 18.3145 19.3686H5.57316C5.49306 19.3686 5.41374 19.3843 5.33973 19.4149C5.26572 19.4455 5.19847 19.4904 5.14183 19.5471C5.08519 19.6037 5.04027 19.6709 5.00964 19.745C4.979 19.819 4.96326 19.8983 4.96331 19.9784ZM26.129 28.2322C26.129 28.0704 26.0649 27.9153 25.9507 27.8007C25.8364 27.6862 25.6814 27.6217 25.5196 27.6214H5.57316C5.41129 27.6214 5.25606 27.6857 5.1416 27.8002C5.02714 27.9146 4.96284 28.0699 4.96284 28.2317C4.96284 28.3936 5.02714 28.5488 5.1416 28.6633C5.25606 28.7778 5.41129 28.8421 5.57316 28.8421H25.5188C25.5989 28.8422 25.6783 28.8265 25.7523 28.7959C25.8264 28.7653 25.8937 28.7204 25.9504 28.6637C26.007 28.6071 26.052 28.5398 26.0826 28.4658C26.1133 28.3917 26.129 28.3124 26.129 28.2322ZM26.129 24.1053C26.129 23.9437 26.0648 23.7887 25.9505 23.6744C25.8362 23.5602 25.6812 23.496 25.5196 23.496H5.57316C5.41129 23.496 5.25606 23.5603 5.1416 23.6747C5.02714 23.7892 4.96284 23.9444 4.96284 24.1063C4.96284 24.2681 5.02714 24.4234 5.1416 24.5378C5.25606 24.6523 5.41129 24.7166 5.57316 24.7166H25.5188C25.599 24.7166 25.6784 24.7007 25.7525 24.67C25.8266 24.6392 25.8939 24.5942 25.9505 24.5374C26.0072 24.4806 26.0521 24.4133 26.0827 24.3391C26.1134 24.265 26.1291 24.1856 26.129 24.1053Z" fill="#19517E"/>
</svg>
