<svg width="39" height="50" viewBox="0 0 39 50" fill="none" xmlns="http://www.w3.org/2000/svg">
<path d="M15.8028 19.6C17.0123 20.5176 18.49 21.0121 20.0082 21.0072C21.5382 21.0072 22.9864 20.5245 24.2055 19.6C25.0651 18.9518 25.7618 18.1123 26.2405 17.148C26.7191 16.1837 26.9664 15.1211 26.9627 14.0445V12.8418C26.8318 12.359 26.1364 10.3954 23.4528 9.1845C22.4218 8.71813 21.2518 8.50541 19.9918 8.49722C18.3718 8.50541 16.3509 8.29268 15.2546 7.28632C14.5018 7.77723 13.0455 9.19268 13.0537 12.8009C13.0537 12.8172 13.0455 12.8254 13.0455 12.8418V14.0363C13.0364 15.115 13.2812 16.1806 13.7602 17.1471C14.2392 18.1137 14.9389 18.9539 15.8028 19.6ZM21.2273 11.549C21.3743 11.4036 21.5728 11.3221 21.7796 11.3221C21.9864 11.3221 22.1848 11.4036 22.3318 11.549C22.43 11.6472 22.5282 11.6472 22.6264 11.549C22.9291 11.2463 23.4282 11.2463 23.7309 11.549C24.0337 11.8518 24.0337 12.3509 23.7309 12.6536C23.3955 12.989 22.9537 13.169 22.4791 13.169C22.0046 13.169 21.5627 12.9809 21.2273 12.6536C21.1535 12.5818 21.0949 12.4959 21.0548 12.401C21.0148 12.3062 20.9942 12.2043 20.9942 12.1013C20.9942 11.9984 21.0148 11.8964 21.0548 11.8016C21.0949 11.7067 21.1535 11.6209 21.2273 11.549ZM21.0555 16.4172C21.3582 16.1145 21.8573 16.1145 22.16 16.4172C22.4627 16.72 22.4627 17.219 22.16 17.5218C21.5627 18.119 20.7855 18.4136 20 18.4136C19.2146 18.4136 18.4373 18.119 17.84 17.5218C17.5373 17.219 17.5373 16.72 17.84 16.4172C18.1427 16.1145 18.6418 16.1145 18.9446 16.4172C19.5255 16.9981 20.4746 16.9981 21.0555 16.4172ZM16.2691 11.549C16.4162 11.4036 16.6146 11.3221 16.8214 11.3221C17.0282 11.3221 17.2266 11.4036 17.3737 11.549C17.4718 11.6472 17.57 11.6472 17.6682 11.549C17.9709 11.2463 18.47 11.2463 18.7727 11.549C19.0755 11.8518 19.0755 12.3509 18.7727 12.6536C18.4373 12.989 17.9955 13.169 17.5209 13.169C17.0464 13.169 16.6046 12.9809 16.2691 12.6536C16.1237 12.5065 16.0422 12.3081 16.0422 12.1013C16.0422 11.8945 16.1237 11.6961 16.2691 11.549ZM23.2973 29.4918H35.8155C35.0628 26.89 32.6491 25.0163 29.8755 25.0163H27.5437L23.2973 29.4918ZM12.4646 25.0163H10.1246C7.35093 25.0163 4.93729 26.89 4.19275 29.4918H16.7109L12.4646 25.0163Z" fill="#0A5183"/>
<path d="M15.2218 5.57634C15.3907 5.52425 15.5722 5.53065 15.737 5.59449C15.9018 5.65833 16.0403 5.77589 16.13 5.92815C16.4982 6.56634 17.9955 6.96724 19.9755 6.93452H20.0573C21.5136 6.93452 22.8718 7.2127 24.0909 7.76088C25.8991 8.57088 26.9791 9.69179 27.6255 10.6572C27.92 9.51997 28.1 8.39088 28.1409 7.63815C28.3127 4.38997 26.2918 1.39543 23.2318 0.339972C19.1164 -1.0673 16.3836 2.48361 16.3509 2.51634C16.1627 2.76179 15.8436 2.87634 15.5491 2.8027C13.9291 2.41815 12.8 2.57361 12.1945 3.28543C11.18 4.46361 11.4664 7.08179 11.9982 9.30724C12.98 6.32088 15.0991 5.60906 15.2218 5.57634ZM24.3118 21.3918C23.0109 22.1609 21.5382 22.57 20 22.57C18.4618 22.57 16.9891 22.1609 15.6882 21.3918C15.0909 22.6845 14.3627 23.6172 13.8309 24.1818L18.8709 29.4918H21.1455L26.1855 24.1818C25.6455 23.6172 24.9091 22.6845 24.3118 21.3918ZM20 36.9127C19.0182 36.9127 18.2245 37.7145 18.2245 38.6963C18.2245 39.2609 18.4782 39.7682 18.92 40.1036C19.5418 40.5863 20.4745 40.5782 21.0718 40.1118C21.5218 39.7682 21.7836 39.2609 21.7836 38.6963C21.7836 37.7145 20.9818 36.9127 20 36.9127Z" fill="#0A5183"/>
<path d="M37.2309 31.0545H2.7609C2.50785 31.0539 2.25762 31.1077 2.0272 31.2123C1.79678 31.3169 1.59157 31.4698 1.42548 31.6607C1.25939 31.8517 1.13633 32.0761 1.06464 32.3188C0.99295 32.5614 0.974314 32.8167 1.01 33.0672L3.34999 49.9709H36.6418L38.9818 33.0672C39.0555 32.56 38.9 32.0445 38.5645 31.66C38.2291 31.2754 37.7382 31.0545 37.2309 31.0545ZM22.0209 41.3554C21.4564 41.7972 20.7364 42.0427 20 42.0427C19.2636 42.0427 18.5436 41.7972 17.9709 41.3472C17.1527 40.7336 16.6618 39.7354 16.6618 38.6963C16.6618 36.8472 18.1591 35.35 20 35.35C21.8409 35.35 23.3382 36.8554 23.3382 38.6963C23.3464 39.7436 22.8554 40.7336 22.0209 41.3554Z" fill="#9BC482"/>
</svg>
