<svg width="70" height="70" viewBox="0 0 70 70" fill="none" xmlns="http://www.w3.org/2000/svg">
<g clip-path="url(#clip0_117_5210)">
<path d="M5.83317 30.3333C6.4775 30.3333 6.99984 29.811 6.99984 29.1667C6.99984 28.5223 6.4775 28 5.83317 28C5.18884 28 4.6665 28.5223 4.6665 29.1667C4.6665 29.811 5.18884 30.3333 5.83317 30.3333Z" fill="#19517E"/>
<path d="M5.83317 39.6663C6.4775 39.6663 6.99984 39.144 6.99984 38.4997C6.99984 37.8553 6.4775 37.333 5.83317 37.333C5.18884 37.333 4.6665 37.8553 4.6665 38.4997C4.6665 39.144 5.18884 39.6663 5.83317 39.6663Z" fill="#19517E"/>
<path d="M5.83317 49.0003C6.4775 49.0003 6.99984 48.478 6.99984 47.8337C6.99984 47.1893 6.4775 46.667 5.83317 46.667C5.18884 46.667 4.6665 47.1893 4.6665 47.8337C4.6665 48.478 5.18884 49.0003 5.83317 49.0003Z" fill="#19517E"/>
<path d="M66.5 4.66667H57.1667C56.8572 4.66667 56.5605 4.54375 56.3417 4.32496C56.1229 4.10617 56 3.80942 56 3.5C56 2.57174 55.6312 1.6815 54.9749 1.02513C54.3185 0.368749 53.4283 0 52.5 0L45.5 0C44.5717 0 43.6815 0.368749 43.0251 1.02513C42.3687 1.6815 42 2.57174 42 3.5V11.6667H38.5C37.5717 11.6667 36.6815 12.0354 36.0251 12.6918C35.3687 13.3482 35 14.2384 35 15.1667V33.8333H30.3333V21C30.326 20.9268 30.3116 20.8545 30.2902 20.7842C30.3112 20.6628 30.3252 20.5392 30.3333 20.4167C30.3333 16.2493 22.5167 14 15.1667 14C7.81667 14 0 16.2493 0 20.4167C0.007 20.5403 0.0221667 20.6617 0.0431667 20.7842C0.0217481 20.8545 0.00728981 20.9268 0 21L0 49C0 52.8302 7.63 54.8333 15.1667 54.8333C22.7033 54.8333 30.3333 52.8302 30.3333 49V36.1667H35V54.8333C35 55.7616 35.3687 56.6518 36.0251 57.3082C36.6815 57.9646 37.5717 58.3333 38.5 58.3333H42V66.5C42 67.4283 42.3687 68.3185 43.0251 68.9749C43.6815 69.6312 44.5717 70 45.5 70H66.5C67.4283 70 68.3185 69.6312 68.9749 68.9749C69.6312 68.3185 70 67.4283 70 66.5V57.1667C70 56.2384 69.6312 55.3482 68.9749 54.6918C68.3185 54.0354 67.4283 53.6667 66.5 53.6667H57.1667C56.8572 53.6667 56.5605 53.5438 56.3417 53.325C56.1229 53.1062 56 52.8094 56 52.5C56 51.5717 55.6312 50.6815 54.9749 50.0251C54.3185 49.3687 53.4283 49 52.5 49H45.5C44.5717 49 43.6815 49.3687 43.0251 50.0251C42.3687 50.6815 42 51.5717 42 52.5V56H38.5C38.1906 56 37.8938 55.8771 37.675 55.6583C37.4562 55.4395 37.3333 55.1427 37.3333 54.8333V36.1667H42V42C42 42.9283 42.3687 43.8185 43.0251 44.4749C43.6815 45.1312 44.5717 45.5 45.5 45.5H66.5C67.4283 45.5 68.3185 45.1312 68.9749 44.4749C69.6312 43.8185 70 42.9283 70 42V32.6667C70 31.7384 69.6312 30.8482 68.9749 30.1918C68.3185 29.5354 67.4283 29.1667 66.5 29.1667H57.1667C56.8572 29.1667 56.5605 29.0438 56.3417 28.825C56.1229 28.6062 56 28.3094 56 28C56 27.0717 55.6312 26.1815 54.9749 25.5251C54.3185 24.8687 53.4283 24.5 52.5 24.5H45.5C44.5717 24.5 43.6815 24.8687 43.0251 25.5251C42.3687 26.1815 42 27.0717 42 28V33.8333H37.3333V15.1667C37.3333 14.8572 37.4562 14.5605 37.675 14.3417C37.8938 14.1229 38.1906 14 38.5 14H42V17.5C42 18.4283 42.3687 19.3185 43.0251 19.9749C43.6815 20.6313 44.5717 21 45.5 21H66.5C67.4283 21 68.3185 20.6313 68.9749 19.9749C69.6312 19.3185 70 18.4283 70 17.5V8.16667C70 7.23841 69.6312 6.34817 68.9749 5.69179C68.3185 5.03542 67.4283 4.66667 66.5 4.66667ZM28 30.3333C28 31.521 23.4698 33.8333 15.1667 33.8333C6.8635 33.8333 2.33333 31.521 2.33333 30.3333V23.9412C5.1975 25.8335 10.2772 26.8333 15.1667 26.8333C20.0562 26.8333 25.1358 25.8335 28 23.9412V30.3333ZM2.33333 33.5802C5.16367 35.2835 10.1792 36.1667 15.1667 36.1667C20.1542 36.1667 25.1697 35.2835 28 33.5802V39.6667C28 40.8543 23.4698 43.1667 15.1667 43.1667C6.8635 43.1667 2.33333 40.8543 2.33333 39.6667V33.5802ZM15.1667 16.3333C23.0008 16.3333 28 18.7518 28 20.4167C28 22.0815 23.0008 24.5 15.1667 24.5C7.3325 24.5 2.33333 22.0815 2.33333 20.4167C2.33333 18.7518 7.3325 16.3333 15.1667 16.3333ZM15.1667 52.5C6.8635 52.5 2.33333 50.1877 2.33333 49V42.9135C5.16367 44.6168 10.1792 45.5 15.1667 45.5C20.1542 45.5 25.1697 44.6168 28 42.9135V49C28 50.1877 23.4698 52.5 15.1667 52.5ZM44.3333 52.5C44.3333 52.1906 44.4562 51.8938 44.675 51.675C44.8938 51.4562 45.1906 51.3333 45.5 51.3333H52.5C52.8094 51.3333 53.1062 51.4562 53.325 51.675C53.5438 51.8938 53.6667 52.1906 53.6667 52.5C53.6667 53.4283 54.0354 54.3185 54.6918 54.9749C55.3482 55.6312 56.2384 56 57.1667 56H66.5C66.8094 56 67.1062 56.1229 67.325 56.3417C67.5437 56.5605 67.6667 56.8572 67.6667 57.1667V66.5C67.6667 66.8094 67.5437 67.1062 67.325 67.325C67.1062 67.5437 66.8094 67.6667 66.5 67.6667H45.5C45.1906 67.6667 44.8938 67.5437 44.675 67.325C44.4562 67.1062 44.3333 66.8094 44.3333 66.5V52.5ZM44.3333 28C44.3333 27.6906 44.4562 27.3938 44.675 27.175C44.8938 26.9562 45.1906 26.8333 45.5 26.8333H52.5C52.8094 26.8333 53.1062 26.9562 53.325 27.175C53.5438 27.3938 53.6667 27.6906 53.6667 28C53.6667 28.9283 54.0354 29.8185 54.6918 30.4749C55.3482 31.1313 56.2384 31.5 57.1667 31.5H66.5C66.8094 31.5 67.1062 31.6229 67.325 31.8417C67.5437 32.0605 67.6667 32.3572 67.6667 32.6667V42C67.6667 42.3094 67.5437 42.6062 67.325 42.825C67.1062 43.0438 66.8094 43.1667 66.5 43.1667H45.5C45.1906 43.1667 44.8938 43.0438 44.675 42.825C44.4562 42.6062 44.3333 42.3094 44.3333 42V28ZM67.6667 17.5C67.6667 17.8094 67.5437 18.1062 67.325 18.325C67.1062 18.5437 66.8094 18.6667 66.5 18.6667H45.5C45.1906 18.6667 44.8938 18.5437 44.675 18.325C44.4562 18.1062 44.3333 17.8094 44.3333 17.5V3.5C44.3333 3.19058 44.4562 2.89383 44.675 2.67504C44.8938 2.45625 45.1906 2.33333 45.5 2.33333H52.5C52.8094 2.33333 53.1062 2.45625 53.325 2.67504C53.5438 2.89383 53.6667 3.19058 53.6667 3.5C53.6667 4.42826 54.0354 5.3185 54.6918 5.97487C55.3482 6.63125 56.2384 7 57.1667 7H66.5C66.8094 7 67.1062 7.12292 67.325 7.34171C67.5437 7.5605 67.6667 7.85725 67.6667 8.16667V17.5Z" fill="#19517E"/>
<path d="M47.8332 16.3333C48.4775 16.3333 48.9998 15.811 48.9998 15.1667C48.9998 14.5223 48.4775 14 47.8332 14C47.1888 14 46.6665 14.5223 46.6665 15.1667C46.6665 15.811 47.1888 16.3333 47.8332 16.3333Z" fill="#19517E"/>
<path d="M47.8332 11.6663C48.4775 11.6663 48.9998 11.144 48.9998 10.4997C48.9998 9.85534 48.4775 9.33301 47.8332 9.33301C47.1888 9.33301 46.6665 9.85534 46.6665 10.4997C46.6665 11.144 47.1888 11.6663 47.8332 11.6663Z" fill="#19517E"/>
<path d="M47.8332 40.8333C48.4775 40.8333 48.9998 40.311 48.9998 39.6667C48.9998 39.0223 48.4775 38.5 47.8332 38.5C47.1888 38.5 46.6665 39.0223 46.6665 39.6667C46.6665 40.311 47.1888 40.8333 47.8332 40.8333Z" fill="#19517E"/>
<path d="M47.8332 36.1663C48.4775 36.1663 48.9998 35.644 48.9998 34.9997C48.9998 34.3553 48.4775 33.833 47.8332 33.833C47.1888 33.833 46.6665 34.3553 46.6665 34.9997C46.6665 35.644 47.1888 36.1663 47.8332 36.1663Z" fill="#19517E"/>
<path d="M47.8332 65.3333C48.4775 65.3333 48.9998 64.811 48.9998 64.1667C48.9998 63.5223 48.4775 63 47.8332 63C47.1888 63 46.6665 63.5223 46.6665 64.1667C46.6665 64.811 47.1888 65.3333 47.8332 65.3333Z" fill="#19517E"/>
<path d="M47.8332 60.6663C48.4775 60.6663 48.9998 60.144 48.9998 59.4997C48.9998 58.8553 48.4775 58.333 47.8332 58.333C47.1888 58.333 46.6665 58.8553 46.6665 59.4997C46.6665 60.144 47.1888 60.6663 47.8332 60.6663Z" fill="#19517E"/>
</g>
<defs>
<clipPath id="clip0_117_5210">
<rect width="70" height="70" fill="white"/>
</clipPath>
</defs>
</svg>
