<svg width="90" height="91" viewBox="0 0 90 91" fill="none" xmlns="http://www.w3.org/2000/svg">
<path d="M25.3125 34.2501H22.5C22.127 34.2501 21.7694 34.3983 21.5056 34.662C21.2419 34.9257 21.0938 35.2834 21.0938 35.6563V46.9063C21.0938 47.2793 21.2419 47.637 21.5056 47.9007C21.7694 48.1644 22.127 48.3126 22.5 48.3126H25.3125C27.6384 48.3126 29.5312 46.4198 29.5312 44.0938C29.5312 43.0138 29.1234 42.0281 28.4541 41.2813C29.1484 40.5092 29.5322 39.5073 29.5312 38.4688C29.5312 36.1429 27.6384 34.2501 25.3125 34.2501ZM25.3125 45.5001H23.9062V42.6876H25.3125C25.6746 42.7038 26.0165 42.859 26.267 43.121C26.5175 43.3829 26.6573 43.7314 26.6573 44.0938C26.6573 44.4563 26.5175 44.8048 26.267 45.0667C26.0165 45.3287 25.6746 45.4839 25.3125 45.5001ZM25.3125 39.8751H23.9062V37.0626H25.3125C25.6746 37.0788 26.0165 37.234 26.267 37.496C26.5175 37.7579 26.6573 38.1064 26.6573 38.4688C26.6573 38.8313 26.5175 39.1798 26.267 39.4417C26.0165 39.7037 25.6746 39.8589 25.3125 39.8751ZM39.375 38.4688C39.375 36.1429 37.4822 34.2501 35.1562 34.2501H32.3438C31.9708 34.2501 31.6131 34.3983 31.3494 34.662C31.0857 34.9257 30.9375 35.2834 30.9375 35.6563V48.3126H33.75V42.6876H34.5361C35.8451 44.175 36.5657 46.0893 36.5625 48.0707V48.3126H39.375V48.0707C39.381 45.8937 38.7366 43.7646 37.5244 41.9563C38.0941 41.5702 38.5606 41.0505 38.8832 40.4426C39.2057 39.8347 39.3746 39.1571 39.375 38.4688ZM33.75 37.0626H35.1562C35.5183 37.0788 35.8602 37.234 36.1107 37.496C36.3612 37.7579 36.501 38.1064 36.501 38.4688C36.501 38.8313 36.3612 39.1798 36.1107 39.4417C35.8602 39.7037 35.5183 39.8589 35.1562 39.8751H33.75V37.0626ZM45 34.2501C42.6741 34.2501 40.7812 36.1429 40.7812 38.4688V48.3126H43.5938V44.0938H46.4062V48.3126H49.2188V38.4688C49.2188 36.1429 47.3259 34.2501 45 34.2501ZM43.5938 41.2813V38.4688C43.6099 38.1068 43.7652 37.7649 44.0271 37.5144C44.2891 37.2639 44.6376 37.1241 45 37.1241C45.3624 37.1241 45.7109 37.2639 45.9729 37.5144C46.2348 37.7649 46.3901 38.1068 46.4062 38.4688V41.2813H43.5938ZM56.25 40.9495L53.2898 35.0278C53.1484 34.7439 52.9151 34.5162 52.6279 34.3816C52.3406 34.247 52.0164 34.2135 51.7077 34.2865C51.399 34.3595 51.1241 34.5347 50.9276 34.7836C50.731 35.0325 50.6244 35.3406 50.625 35.6578V48.314H53.4375V41.6146L56.3977 47.5364C56.5391 47.8201 56.7722 48.0478 57.0593 48.1823C57.3464 48.3169 57.6705 48.3505 57.9791 48.2778C58.2877 48.205 58.5626 48.03 58.7593 47.7813C58.9559 47.5327 59.0628 47.2248 59.0625 46.9078V34.2515H56.25V40.9495ZM64.6875 34.2501H61.875C61.502 34.2501 61.1444 34.3983 60.8806 34.662C60.6169 34.9257 60.4688 35.2834 60.4688 35.6563V46.9063C60.4688 47.2793 60.6169 47.637 60.8806 47.9007C61.1444 48.1644 61.502 48.3126 61.875 48.3126H64.6875C67.0134 48.3126 68.9062 46.4198 68.9062 44.0938V38.4688C68.9062 36.1429 67.0134 34.2501 64.6875 34.2501ZM66.0938 44.0938C66.0938 44.8701 65.4623 45.5001 64.6875 45.5001H63.2812V37.0626H64.6875C65.4623 37.0626 66.0938 37.6926 66.0938 38.4688V44.0938Z" fill="#19517E"/>
<path d="M81.5625 20.1875C81.9355 20.1875 82.2931 20.0393 82.5569 19.7756C82.8206 19.5119 82.9688 19.1542 82.9688 18.7812V15.9688H87.1875V13.1562H82.9688V10.3438C82.9688 9.97079 82.8206 9.6131 82.5569 9.34938C82.2931 9.08566 81.9355 8.9375 81.5625 8.9375H78.75V3.3125H75.9375V8.9375H73.125C72.752 8.9375 72.3944 9.08566 72.1306 9.34938C71.8669 9.6131 71.7188 9.97079 71.7188 10.3438V13.1562H18.2812V10.3438C18.2812 9.97079 18.1331 9.6131 17.8694 9.34938C17.6056 9.08566 17.248 8.9375 16.875 8.9375H14.0625V3.3125H11.25V8.9375H8.4375C8.06454 8.9375 7.70685 9.08566 7.44313 9.34938C7.17941 9.6131 7.03125 9.97079 7.03125 10.3438V13.1562H2.8125V15.9688H7.03125V18.7812C7.03125 19.1542 7.17941 19.5119 7.44313 19.7756C7.70685 20.0393 8.06454 20.1875 8.4375 20.1875H11.25V70.8125H8.4375C8.06454 70.8125 7.70685 70.9607 7.44313 71.2244C7.17941 71.4881 7.03125 71.8458 7.03125 72.2188V75.0312H2.8125V77.8438H7.03125V80.6562C7.03125 81.0292 7.17941 81.3869 7.44313 81.6506C7.70685 81.9143 8.06454 82.0625 8.4375 82.0625H11.25V87.6875H14.0625V82.0625H16.875C17.248 82.0625 17.6056 81.9143 17.8694 81.6506C18.1331 81.3869 18.2812 81.0292 18.2812 80.6562V77.8438H47.2303L53.8495 84.463C53.9798 84.594 54.1347 84.698 54.3054 84.769C54.476 84.8399 54.659 84.8765 54.8438 84.8765C55.0285 84.8765 55.2115 84.8399 55.3821 84.769C55.5528 84.698 55.7077 84.594 55.838 84.463L62.4572 77.8438H71.7188V80.6562C71.7188 81.0292 71.8669 81.3869 72.1306 81.6506C72.3944 81.9143 72.752 82.0625 73.125 82.0625H75.9375V87.6875H78.75V82.0625H81.5625C81.9355 82.0625 82.2931 81.9143 82.5569 81.6506C82.8206 81.3869 82.9688 81.0292 82.9688 80.6562V77.8438H87.1875V75.0312H82.9688V72.2188C82.9688 71.8458 82.8206 71.4881 82.5569 71.2244C82.2931 70.9607 81.9355 70.8125 81.5625 70.8125H78.75V20.1875H81.5625ZM74.5312 11.75H80.1562V17.375H74.5312V11.75ZM9.84375 11.75H15.4688V17.375H9.84375V11.75ZM15.4688 79.25H9.84375V73.625H15.4688V79.25ZM43.0116 66.5938C44.6709 66.5938 46.2291 65.9483 47.4019 64.7755C48.5747 63.6027 49.2188 62.0445 49.2188 60.3866V59.5625H46.4062V60.3866C46.4062 60.7986 46.3247 61.1966 46.1841 61.5706L39.1866 54.5731L52.0706 56.5559C52.3097 60.1543 53.6034 63.6024 55.7902 66.47L49.0964 73.1638C46.2283 70.9769 42.7797 69.6832 39.1809 69.4442L37.1995 56.5616L44.1956 63.5577C43.8173 63.7017 43.4163 63.7769 43.0116 63.7798H42.1875V66.5923L43.0116 66.5938ZM54.8438 81.4803L49.8009 76.4375L59.0625 67.1759L64.1053 72.2188L54.8438 81.4803ZM80.1562 79.25H74.5312V73.625H80.1562V79.25ZM75.9375 70.8125H73.125C72.752 70.8125 72.3944 70.9607 72.1306 71.2244C71.8669 71.4881 71.7188 71.8458 71.7188 72.2188V75.0312H65.2697L67.088 73.213C67.2187 73.0825 67.3224 72.9275 67.3931 72.7569C67.4639 72.5863 67.5003 72.4034 67.5003 72.2188C67.5003 72.0341 67.4639 71.8512 67.3931 71.6806C67.3224 71.51 67.2187 71.355 67.088 71.2245L60.0567 64.1933C59.9262 64.0626 59.7713 63.9589 59.6007 63.8881C59.4301 63.8174 59.2472 63.781 59.0625 63.781C58.8778 63.781 58.6949 63.8174 58.5243 63.8881C58.3537 63.9589 58.1988 64.0626 58.0683 64.1933L57.7983 64.4633C55.8778 61.8103 54.8439 58.6188 54.8438 55.3438C54.8436 55.0079 54.7233 54.6832 54.5046 54.4284C54.2859 54.1736 53.9832 54.0054 53.6513 53.9544L35.37 51.1419C35.1518 51.1084 34.9288 51.1268 34.719 51.1955C34.5093 51.2643 34.3186 51.3814 34.1625 51.5375C34.0064 51.6936 33.8893 51.8843 33.8205 52.094C33.7518 52.3038 33.7334 52.5268 33.7669 52.745L36.5794 71.0263C36.6304 71.3582 36.7986 71.6609 37.0534 71.8796C37.3082 72.0983 37.6329 72.2186 37.9688 72.2188C41.1736 72.2188 44.273 73.2144 46.8745 75.0312H18.2812V72.2188C18.2812 71.8458 18.1331 71.4881 17.8694 71.2244C17.6056 70.9607 17.248 70.8125 16.875 70.8125H14.0625V20.1875H16.875C17.248 20.1875 17.6056 20.0393 17.8694 19.7756C18.1331 19.5119 18.2812 19.1542 18.2812 18.7812V15.9688H71.7188V18.7812C71.7188 19.1542 71.8669 19.5119 72.1306 19.7756C72.3944 20.0393 72.752 20.1875 73.125 20.1875H75.9375V70.8125Z" fill="#19517E"/>
</svg>
