<svg width="80" height="80" viewBox="0 0 80 80" fill="none" xmlns="http://www.w3.org/2000/svg">
<g clip-path="url(#clip0_114_1836)">
<path fill-rule="evenodd" clip-rule="evenodd" d="M18.7931 56.7077C18.1838 56.7077 17.762 56.0984 17.9026 55.536L22.5424 36.9771C22.5892 36.8834 26.0573 27.8383 35.1024 30.3691C36.274 30.6971 35.8054 32.5249 34.5869 32.1968C27.4164 30.1816 24.6044 36.8834 24.3233 37.5864L19.7304 56.0047C19.6367 56.4265 19.2149 56.7077 18.7931 56.7077ZM61.1598 56.7077C60.738 56.7077 60.3631 56.4265 60.2694 56.0047L55.6296 37.5864C55.3953 36.9303 52.5834 30.2753 45.5535 32.15C44.335 32.4312 43.8663 30.6503 45.0848 30.3222C53.9893 27.9789 57.3637 36.8834 57.4105 36.9771L62.0971 55.536C62.1909 56.0984 61.8159 56.7077 61.1598 56.7077ZM40.117 30.4628H40.0702C34.8681 30.0879 30.8845 22.0269 30.697 18.512C29.994 17.2935 27.2289 11.9977 29.0098 9.04511C29.3379 8.24839 33.0403 0.656122 40.0702 0H40.2108C47.1938 0.656122 50.8962 8.24839 51.2711 9.04511C53.0052 11.9977 50.2401 17.2935 49.5371 18.512C49.3496 22.0269 45.366 30.0879 40.2108 30.4628H40.117ZM40.117 1.87463C34.0245 2.48389 30.697 9.88869 30.6033 9.98242C29.1973 12.3726 32.5716 17.6216 32.5716 18.2777C32.5716 20.9959 36.1803 28.2601 40.117 28.5882C44.1006 28.2601 47.7093 20.9959 47.7093 18.2777C47.7093 17.481 51.0837 12.7475 49.5839 9.84183C49.5371 9.79496 46.1627 2.48389 40.117 1.87463Z" fill="#19517E"/>
<path fill-rule="evenodd" clip-rule="evenodd" d="M31.6345 19.2152C30.9784 19.2152 30.416 18.5591 30.8378 17.7624C32.2907 14.8567 33.0874 12.4197 32.8999 11.3418C32.7593 10.4513 33.8841 9.88893 34.4934 10.4982C34.5871 10.5919 36.5086 12.4666 40.1173 12.5134C41.3358 12.5134 41.3358 14.4349 40.1173 14.3881C37.6802 14.3412 35.8525 13.5913 34.6808 12.9352C34.3059 14.9036 33.3686 16.8251 32.4781 18.6997C32.2907 19.0278 31.9626 19.2152 31.6345 19.2152Z" fill="#19517E"/>
<path fill-rule="evenodd" clip-rule="evenodd" d="M48.5999 19.2146C48.1781 19.2146 47.9438 18.9803 47.7563 18.6053C46.8659 16.8713 45.9286 14.7155 45.5536 12.9346C44.4757 13.5438 42.4605 14.3874 40.1172 14.3874C38.8987 14.3874 38.8987 12.5596 40.1172 12.5128C45.1318 12.419 45.5536 9.70083 46.819 10.357C47.9907 10.9662 46.2098 11.6692 49.4435 17.8555C49.7716 18.4647 49.3029 19.2146 48.5999 19.2146ZM40.1172 39.5075C39.836 39.5075 39.5548 39.3669 39.3673 39.1326L34.1652 32.1964C33.7903 31.6809 33.9778 26.9943 33.9778 26.057C33.9778 24.8385 35.8524 24.8385 35.8524 26.057V31.306L40.8671 38.0078C41.3357 38.6171 40.8671 39.5075 40.1172 39.5075Z" fill="#19517E"/>
<path fill-rule="evenodd" clip-rule="evenodd" d="M40.1172 39.5079C39.3673 39.5079 38.8987 38.6175 39.3673 38.0082L44.382 31.3533V26.0574C44.382 24.8389 46.2566 24.8389 46.2566 26.0574C46.2566 26.9948 46.4441 31.6813 46.0691 32.1969L40.867 39.133C40.6796 39.3673 40.3984 39.5079 40.1172 39.5079ZM40.1172 50.9901C39.2736 50.9901 38.8987 49.959 39.4611 49.3966L45.413 43.4447V38.1488C45.413 37.8208 45.5536 37.4927 45.8817 37.3521L48.6936 35.7118V31.0252C48.6936 29.8067 50.5683 29.8067 50.5683 31.0252V36.2273C50.5683 36.6023 50.3808 36.8835 50.0996 37.0709L47.2877 38.7112V43.8665C47.2877 44.1008 47.1471 44.3351 47.0065 44.5226L40.7733 50.7089C40.5858 50.8963 40.3515 50.9901 40.1172 50.9901Z" fill="#19517E"/>
<path fill-rule="evenodd" clip-rule="evenodd" d="M40.1172 56.7072C39.6017 56.7072 39.1799 56.2854 39.1799 55.7699V38.5701C39.1799 37.3516 41.0546 37.3516 41.0546 38.5701V55.7699C41.0546 56.2854 40.6328 56.7072 40.1172 56.7072Z" fill="#19517E"/>
<path fill-rule="evenodd" clip-rule="evenodd" d="M40.1172 50.9901C39.8828 50.9901 39.6485 50.8963 39.461 50.7089L33.2747 44.5226C33.0873 44.3351 32.9936 44.1008 32.9936 43.8665V38.7112L30.1816 37.0709C29.8535 36.8834 29.7129 36.6022 29.7129 36.2742V31.0252C29.7129 29.8067 31.5876 29.8067 31.5876 31.0252V35.7118L34.3995 37.3521C34.6807 37.4927 34.8682 37.8208 34.8682 38.1488V43.4447L40.7733 49.3966C41.3825 49.959 40.9608 50.9901 40.1172 50.9901ZM74.8448 64.7218H5.15524C3.7024 64.7218 2.48389 63.5501 2.48389 62.0973V57.4576C2.48389 56.0047 3.7024 54.8331 5.15524 54.8331H74.8448C76.2976 54.8331 77.4692 56.0047 77.4692 57.4576V62.0973C77.4692 63.5501 76.2976 64.7218 74.8448 64.7218ZM5.15524 56.7077C4.73345 56.7077 4.35852 57.0358 4.35852 57.4576V62.0973C4.35852 62.5191 4.73345 62.8471 5.15524 62.8471H74.8448C75.2666 62.8471 75.5946 62.5191 75.5946 62.0973V57.4576C75.5946 57.0358 75.2666 56.7077 74.8448 56.7077H5.15524Z" fill="#19517E"/>
<path fill-rule="evenodd" clip-rule="evenodd" d="M72.0796 79.9535H8.1546C7.63908 79.9535 7.21729 79.5317 7.21729 79.0162V63.7848C7.21729 62.5663 9.09192 62.5663 9.09192 63.7848V78.0789H71.1423V63.7848C71.1423 62.5663 73.0169 62.5663 73.0169 63.7848V79.0162C73.0169 79.5317 72.5951 79.9535 72.0796 79.9535ZM18.6994 56.7081C18.3245 56.7081 17.9496 56.4737 17.809 56.0988C15.8406 51.0373 7.40475 24.8393 26.0574 21.9805H32.9935C34.212 21.9805 34.212 23.8551 32.9935 23.8551H26.2448C22.5424 24.3706 19.7773 26.0578 18.137 28.8697C12.8412 37.8211 19.4961 55.2552 19.5899 55.4427C19.8242 56.0519 19.3555 56.7081 18.6994 56.7081ZM61.3005 56.7081C60.6444 56.7081 60.1757 56.0519 60.41 55.4427C60.5038 55.2552 67.1118 37.8211 61.8629 28.8697C60.1757 26.0578 57.4575 24.3706 53.7551 23.8551H47.2407C46.0222 23.8551 46.0222 21.9805 47.2407 21.9805H53.9425C72.5483 24.605 64.1124 51.2716 62.1441 56.0988C62.0035 56.4737 61.6754 56.7081 61.3005 56.7081Z" fill="#19517E"/>
<path fill-rule="evenodd" clip-rule="evenodd" d="M61.4881 71.6578H18.7464C17.5279 71.6578 17.5279 69.7832 18.7464 69.7832H61.4881C62.7066 69.7832 62.7534 71.6578 61.4881 71.6578Z" fill="#19517E"/>
</g>
<defs>
<clipPath id="clip0_114_1836">
<rect width="80" height="80" fill="white"/>
</clipPath>
</defs>
</svg>
