<svg width="20" height="20" viewBox="0 0 20 20" fill="none" xmlns="http://www.w3.org/2000/svg">
<g clip-path="url(#clip0_634_42840)">
<path d="M10 20C15.5228 20 20 15.5228 20 10C20 4.47715 15.5228 0 10 0C4.47715 0 0 4.47715 0 10C0 15.5228 4.47715 20 10 20Z" fill="#3B5998"/>
<path d="M12.5139 10.3909H10.7295V16.928H8.02602V10.3909H6.74023V8.09349H8.02602V6.60681C8.02602 5.54367 8.53103 3.87891 10.7536 3.87891L12.7561 3.88728V6.11731H11.3031C11.0648 6.11731 10.7297 6.23639 10.7297 6.74354V8.09563H12.7501L12.5139 10.3909Z" fill="white"/>
</g>
<defs>
<clipPath id="clip0_634_42840">
<rect width="20" height="20" fill="white"/>
</clipPath>
</defs>
</svg>
