<svg width="315" height="273" viewBox="0 0 315 273" fill="none" xmlns="http://www.w3.org/2000/svg">
<path d="M304.499 42.6248V214.668C304.499 220.555 299.727 225.328 293.839 225.328H165.673C159.786 225.328 155.013 220.557 155.013 214.668V42.6248C155.013 36.738 159.785 31.9648 165.673 31.9648H293.839C299.726 31.9663 304.499 36.738 304.499 42.6248Z" fill="#17263B"/>
<path d="M293.84 225.774H165.674C159.55 225.774 154.567 220.791 154.567 214.668V42.6231C154.567 36.4983 159.55 31.5156 165.674 31.5156H293.84C299.965 31.5156 304.948 36.4983 304.948 42.6231V214.667C304.948 220.791 299.965 225.774 293.84 225.774ZM165.673 32.4122C160.042 32.4122 155.462 36.9938 155.462 42.6231V214.667C155.462 220.298 160.044 224.876 165.673 224.876H293.839C299.47 224.876 304.05 220.296 304.05 214.667V42.6231C304.05 36.9923 299.468 32.4122 293.839 32.4122H165.673Z" fill="#17263B"/>
<path d="M165.673 217.512C164.104 217.512 162.828 216.237 162.828 214.668V42.6246C162.828 41.056 164.104 39.7793 165.673 39.7793H293.839C295.408 39.7793 296.684 41.056 296.684 42.6246V214.668C296.684 216.237 295.408 217.512 293.839 217.512H165.673Z" fill="white"/>
<path d="M293.839 217.961H165.675C163.859 217.961 162.382 216.486 162.382 214.67V42.6249C162.382 40.8093 163.859 39.332 165.675 39.332H293.839C295.656 39.332 297.134 40.8093 297.134 42.6249V214.669C297.134 216.486 295.656 217.961 293.839 217.961ZM165.673 40.2286C164.352 40.2286 163.277 41.3033 163.277 42.6249V214.669C163.277 215.989 164.352 217.065 165.673 217.065H293.838C295.159 217.065 296.236 215.99 296.236 214.669V42.6249C296.236 41.3033 295.159 40.2286 293.838 40.2286H165.673Z" fill="#17263B"/>
<path d="M259.999 93.377V107.018C259.999 110.213 257.409 112.8 254.217 112.8H205.297C202.103 112.8 199.515 110.211 199.515 107.018V93.377H259.999Z" fill="white"/>
<path d="M254.217 113.252H205.295C201.86 113.252 199.066 110.456 199.066 107.021V93.3792C199.066 93.1322 199.266 92.9316 199.513 92.9316H259.999C260.246 92.9316 260.447 93.1322 260.447 93.3792V107.021C260.448 110.456 257.652 113.252 254.217 113.252ZM199.962 93.8267V107.021C199.962 109.962 202.356 112.355 205.297 112.355H254.219C257.16 112.355 259.553 109.962 259.553 107.021V93.8267H199.962Z" fill="#17263B"/>
<path d="M259.999 94.6095V76.2293C259.999 73.0352 257.409 70.4473 254.217 70.4473H205.297C202.103 70.4473 199.515 73.0367 199.515 76.2293V94.608C199.515 97.2483 201.655 99.3871 204.294 99.3871H255.221C257.86 99.3886 259.999 97.2483 259.999 94.6095Z" fill="white"/>
<path d="M255.22 99.836H204.293C201.41 99.836 199.064 97.4905 199.064 94.6078V76.2291C199.064 72.794 201.859 69.998 205.294 69.998H254.216C257.651 69.998 260.447 72.794 260.447 76.2291V94.6078C260.448 97.4905 258.103 99.836 255.22 99.836ZM205.295 70.8946C202.354 70.8946 199.961 73.2879 199.961 76.2291V94.6078C199.961 96.9966 201.904 98.9394 204.293 98.9394H255.22C257.609 98.9394 259.552 96.9966 259.552 94.6078V76.2291C259.552 73.2879 257.158 70.8946 254.217 70.8946H205.295Z" fill="#17263B"/>
<path d="M217.598 96.5477V102.229C217.598 102.819 217.121 103.297 216.531 103.297H212.131C211.541 103.297 211.063 102.819 211.063 102.229V96.5477C211.063 95.9579 211.541 95.4805 212.131 95.4805H216.531C217.119 95.479 217.598 95.9579 217.598 96.5477Z" fill="white"/>
<path d="M216.53 103.745H212.131C211.294 103.745 210.615 103.064 210.615 102.229V96.5475C210.615 95.7123 211.296 95.0312 212.131 95.0312H216.53C217.365 95.0312 218.046 95.7123 218.046 96.5475V102.229C218.046 103.064 217.367 103.745 216.53 103.745ZM212.131 95.9263C211.79 95.9263 211.51 96.2047 211.51 96.546V102.228C211.51 102.569 211.788 102.849 212.131 102.849H216.53C216.871 102.849 217.15 102.57 217.15 102.228V96.546C217.15 96.2047 216.871 95.9263 216.53 95.9263H212.131Z" fill="#17263B"/>
<path d="M216.509 103.295H212.152V112.802H216.509V103.295Z" fill="white"/>
<path d="M216.509 113.252H212.152C211.905 113.252 211.705 113.052 211.705 112.805V103.297C211.705 103.05 211.905 102.85 212.152 102.85H216.509C216.756 102.85 216.957 103.05 216.957 103.297V112.805C216.958 113.052 216.758 113.252 216.509 113.252ZM212.601 112.356H216.062V103.745H212.601V112.356Z" fill="#17263B"/>
<path d="M216.509 70.4473H212.152V95.4806H216.509V70.4473Z" fill="white"/>
<path d="M216.509 95.9264H212.152C211.905 95.9264 211.705 95.7259 211.705 95.4789V70.4456C211.705 70.1986 211.905 69.998 212.152 69.998H216.509C216.756 69.998 216.957 70.1986 216.957 70.4456V95.4789C216.958 95.7259 216.758 95.9264 216.509 95.9264ZM212.601 95.0314H216.062V70.8946H212.601V95.0314Z" fill="#17263B"/>
<path d="M248.45 96.5477V102.229C248.45 102.819 247.972 103.297 247.383 103.297H242.982C242.393 103.297 241.915 102.819 241.915 102.229V96.5477C241.915 95.9579 242.393 95.4805 242.982 95.4805H247.383C247.972 95.479 248.45 95.9579 248.45 96.5477Z" fill="white"/>
<path d="M247.383 103.745H242.982C242.147 103.745 241.466 103.064 241.466 102.229V96.5475C241.466 95.7123 242.147 95.0312 242.982 95.0312H247.383C248.218 95.0312 248.899 95.7123 248.899 96.5475V102.229C248.899 103.064 248.218 103.745 247.383 103.745ZM242.982 95.9263C242.641 95.9263 242.362 96.2047 242.362 96.546V102.228C242.362 102.569 242.641 102.849 242.982 102.849H247.383C247.724 102.849 248.002 102.57 248.002 102.228V96.546C248.002 96.2047 247.724 95.9263 247.383 95.9263H242.982Z" fill="#17263B"/>
<path d="M247.36 103.295H243.003V112.802H247.36V103.295Z" fill="white"/>
<path d="M247.362 113.252H243.005C242.758 113.252 242.557 113.052 242.557 112.805V103.297C242.557 103.05 242.758 102.85 243.005 102.85H247.362C247.609 102.85 247.809 103.05 247.809 103.297V112.805C247.809 113.052 247.609 113.252 247.362 113.252ZM243.452 112.356H246.913V103.745H243.452V112.356Z" fill="#17263B"/>
<path d="M247.36 70.4473H243.003V95.4806H247.36V70.4473Z" fill="white"/>
<path d="M247.362 95.9264H243.005C242.758 95.9264 242.557 95.7259 242.557 95.4789V70.4456C242.557 70.1986 242.758 69.998 243.005 69.998H247.362C247.609 69.998 247.809 70.1986 247.809 70.4456V95.4789C247.809 95.7259 247.609 95.9264 247.362 95.9264ZM243.452 95.0314H246.913V70.8946H243.452V95.0314Z" fill="#17263B"/>
<path d="M220.648 68.8484V70.45H215.458V68.8484C215.458 68.2587 215.936 67.7813 216.526 67.7813H219.579C220.169 67.7798 220.648 68.2587 220.648 68.8484Z" fill="white"/>
<path d="M220.648 70.8993H215.457C215.21 70.8993 215.009 70.6987 215.009 70.4517V68.8502C215.009 68.015 215.69 67.334 216.525 67.334H219.579C220.414 67.334 221.095 68.015 221.095 68.8502V70.4517C221.095 70.6987 220.895 70.8993 220.648 70.8993ZM215.904 70.0027H220.199V68.8487C220.199 68.5074 219.92 68.2291 219.579 68.2291H216.525C216.184 68.2291 215.904 68.5074 215.904 68.8487V70.0027Z" fill="#17263B"/>
<path d="M244.055 68.8484V70.45H238.866V68.8484C238.866 68.2587 239.344 67.7813 239.933 67.7813H242.987C243.578 67.7798 244.055 68.2587 244.055 68.8484Z" fill="white"/>
<path d="M244.055 70.8993H238.865C238.618 70.8993 238.417 70.6987 238.417 70.4517V68.8502C238.417 68.015 239.098 67.334 239.933 67.334H242.987C243.822 67.334 244.503 68.015 244.503 68.8502V70.4517C244.504 70.6987 244.302 70.8993 244.055 70.8993ZM239.314 70.0027H243.608V68.8487C243.608 68.5074 243.329 68.2291 242.988 68.2291H239.935C239.593 68.2291 239.314 68.5074 239.314 68.8487V70.0027Z" fill="#17263B"/>
<path d="M219.387 67.7707V64.7592C219.387 63.1397 220.704 61.8226 222.324 61.8226H237.189C238.809 61.8226 240.126 63.1397 240.126 64.7592V67.7707H242.796V64.7592C242.796 61.6684 240.28 59.1523 237.189 59.1523H222.324C219.233 59.1523 216.717 61.6684 216.717 64.7592V67.7707H219.387Z" fill="#17263B"/>
<path d="M242.797 68.2185H240.126C239.879 68.2185 239.679 68.0179 239.679 67.771V64.7595C239.679 63.3869 238.562 62.2704 237.19 62.2704H222.324C220.951 62.2704 219.835 63.3869 219.835 64.7595V67.771C219.835 68.0179 219.634 68.2185 219.387 68.2185H216.717C216.47 68.2185 216.27 68.0179 216.27 67.771V64.7595C216.27 61.4217 218.986 58.7051 222.324 58.7051H237.19C240.528 58.7051 243.244 61.4217 243.244 64.7595V67.771C243.244 68.0179 243.044 68.2185 242.797 68.2185ZM240.575 67.3219H242.349V64.758C242.349 61.9126 240.035 59.5986 237.19 59.5986H222.324C219.479 59.5986 217.165 61.9126 217.165 64.758V67.3219H218.938V64.758C218.938 62.8915 220.456 61.3723 222.324 61.3723H237.19C239.056 61.3723 240.575 62.89 240.575 64.758V67.3219Z" fill="#17263B"/>
<path d="M190.739 131.871V141.066C190.739 142.799 189.334 144.204 187.6 144.204H178.404C176.671 144.204 175.266 142.799 175.266 141.066V131.871C175.266 130.138 176.671 128.732 178.404 128.732H187.6C189.335 128.734 190.739 130.138 190.739 131.871Z" fill="#DEDFE3"/>
<path d="M284.245 142.826C284.245 143.587 283.628 144.204 282.866 144.204H201.254C200.492 144.204 199.875 143.587 199.875 142.826C199.875 142.064 200.492 141.447 201.254 141.447H282.866C283.628 141.447 284.245 142.065 284.245 142.826ZM276.614 134.658C276.614 135.42 275.998 136.036 275.236 136.036H201.255C200.494 136.036 199.877 135.42 199.877 134.658C199.877 133.896 200.494 133.279 201.255 133.279H275.236C275.996 133.279 276.614 133.896 276.614 134.658Z" fill="#EFEFEF"/>
<path d="M190.739 160.863V170.058C190.739 171.791 189.334 173.197 187.6 173.197H178.404C176.671 173.197 175.266 171.791 175.266 170.058V160.863C175.266 159.13 176.671 157.725 178.404 157.725H187.6C189.335 157.725 190.739 159.13 190.739 160.863Z" fill="#DEDFE3"/>
<path d="M284.245 171.817C284.245 172.579 283.628 173.196 282.866 173.196H201.254C200.492 173.196 199.875 172.579 199.875 171.817C199.875 171.056 200.492 170.439 201.254 170.439H282.866C283.628 170.439 284.245 171.056 284.245 171.817ZM276.614 163.648C276.614 164.41 275.998 165.027 275.236 165.027H201.255C200.494 165.027 199.877 164.41 199.877 163.648C199.877 162.886 200.494 162.27 201.255 162.27H275.236C275.996 162.27 276.614 162.888 276.614 163.648Z" fill="#EFEFEF"/>
<path d="M190.739 189.856V199.05C190.739 200.783 189.334 202.189 187.6 202.189H178.404C176.671 202.189 175.266 200.783 175.266 199.05V189.856C175.266 188.122 176.671 186.717 178.404 186.717H187.6C189.335 186.717 190.739 188.122 190.739 189.856Z" fill="#DEDFE3"/>
<path d="M284.245 200.81C284.245 201.571 283.628 202.188 282.866 202.188H201.254C200.492 202.188 199.875 201.571 199.875 200.81C199.875 200.048 200.492 199.431 201.254 199.431H282.866C283.628 199.431 284.245 200.048 284.245 200.81ZM276.614 192.64C276.614 193.402 275.998 194.019 275.236 194.019H201.255C200.494 194.019 199.877 193.402 199.877 192.64C199.877 191.878 200.494 191.262 201.255 191.262H275.236C275.996 191.262 276.614 191.88 276.614 192.64Z" fill="#EFEFEF"/>
<path d="M313.499 225.776H146.014C145.767 225.776 145.567 225.575 145.567 225.328C145.567 225.081 145.767 224.881 146.014 224.881H313.499C313.746 224.881 313.946 225.081 313.946 225.328C313.948 225.575 313.747 225.776 313.499 225.776Z" fill="#17263B"/>
<path d="M246.522 22.4824H244.193C242.861 22.4824 241.71 21.5425 241.458 20.2388C240.406 14.7262 235.567 10.5742 229.761 10.5742C223.954 10.5742 219.101 14.7397 218.049 20.2388C217.796 21.5425 216.647 22.4824 215.315 22.4824H213.001C204.15 22.4824 196.969 29.6639 196.969 38.5142V40.8282C196.969 43.1557 198.862 45.0356 201.176 45.0356H258.333C260.662 45.0356 262.54 43.1557 262.54 40.8282V38.4993C262.539 29.6504 255.372 22.4824 246.522 22.4824ZM229.76 25.8352C227.895 25.8352 226.394 24.3339 226.394 22.4824C226.394 20.631 227.895 19.1297 229.76 19.1297C231.611 19.1297 233.113 20.631 233.113 22.4824C233.113 24.3339 231.611 25.8352 229.76 25.8352Z" fill="#07BAFD"/>
<path d="M59.5242 78.556C59.5242 85.8527 56.652 91.735 53.1046 91.735C49.5424 91.735 47.631 85.7898 46.6701 78.556C45.6148 70.6187 47.9303 60.3764 53.7587 64.5314C56.6475 66.5894 59.5242 71.2907 59.5242 78.556Z" fill="#17263B"/>
<path d="M53.1047 92.1833C49.7355 92.1833 47.4215 87.6181 46.2256 78.6166C45.4398 72.6999 46.483 65.4631 49.5873 63.5936C50.4838 63.0518 51.9776 62.712 54.0192 64.1669C55.4157 65.1622 59.9718 69.1406 59.9718 78.5567C59.9718 86.1962 56.9558 92.1833 53.1047 92.1833ZM51.2457 64.0247C50.8191 64.0247 50.421 64.137 50.0498 64.3615C47.2957 66.0184 46.3827 72.9888 47.1146 78.4969C48.2267 86.8638 50.2982 91.2867 53.1047 91.2867C56.3975 91.2867 59.0752 85.5766 59.0752 78.5567C59.0752 71.4157 56.194 66.8177 53.4983 64.8973C52.6856 64.3166 51.9312 64.0247 51.2457 64.0247Z" fill="#17263B"/>
<path d="M81.8511 101.12C81.3797 105.771 82.2822 109.415 84.3687 114.293C83.8239 117.983 81.1447 121.653 76.2188 122.989C68.3384 122.67 63.0294 118.969 59.3848 113.076C61.4308 108.599 62.3588 103.539 62.9066 98.2793L81.8511 101.12Z" fill="white"/>
<path d="M76.2206 123.441C76.2146 123.441 76.2086 123.441 76.2026 123.441C68.6559 123.134 63.0296 119.822 59.0048 113.315C58.927 113.188 58.9165 113.03 58.9794 112.893C60.7306 109.059 61.8053 104.538 62.4623 98.2356C62.4758 98.1143 62.5372 98.0036 62.6345 97.9272C62.7317 97.8524 62.853 97.821 62.9757 97.8389L81.9187 100.678C82.1552 100.714 82.3228 100.93 82.2974 101.168C81.8095 105.978 82.8871 109.69 84.782 114.119C84.815 114.196 84.8254 114.279 84.8135 114.36C84.3105 117.767 81.8199 121.935 76.3388 123.425C76.2999 123.435 76.2595 123.441 76.2206 123.441ZM59.8939 113.046C63.7286 119.126 69.0556 122.235 76.1697 122.541C81.1224 121.169 83.4065 117.44 83.9079 114.354C82.043 109.975 80.9668 106.257 81.3664 101.503L63.3035 98.7953C62.6434 104.839 61.5852 109.262 59.8939 113.046Z" fill="#17263B"/>
<path d="M161.671 132.178L147.342 158.798L141.641 153.67L126.462 173.628L141.113 184.456C149.231 190.459 160.834 186.885 164.173 177.361L183.127 129.74L161.671 132.178Z" fill="white"/>
<path d="M119.113 262.476C118.362 247.049 113.092 230.704 109.667 219.369H49.981C47.206 232.102 44.5941 247.049 43.8428 262.476H119.113Z" fill="#0ECEB5"/>
<path d="M112.189 228.171C112.182 228.171 112.174 228.171 112.167 228.171C92.3825 227.173 69.6961 227.173 48.2804 228.171C48.017 228.181 47.8224 227.991 47.8119 227.744C47.8015 227.497 47.9915 227.286 48.2385 227.276C69.6841 226.28 92.4019 226.28 112.212 227.276C112.459 227.289 112.649 227.5 112.638 227.746C112.625 227.985 112.427 228.171 112.189 228.171Z" fill="#17263B"/>
<path d="M82.5276 262.926C82.2807 262.926 82.0801 262.725 82.0801 262.478V219.371C82.0801 219.124 82.2807 218.924 82.5276 218.924C82.7746 218.924 82.9751 219.124 82.9751 219.371V262.478C82.9751 262.725 82.7746 262.926 82.5276 262.926Z" fill="#17263B"/>
<path d="M82.5277 256.293C82.3361 256.293 82.1595 256.169 82.0996 255.977C82.0278 255.741 82.1595 255.49 82.396 255.418C87.6811 253.795 91.2299 248.989 91.2299 243.46V227.075C91.2299 226.828 91.4304 226.627 91.6774 226.627C91.9244 226.627 92.1249 226.828 92.1249 227.075V243.46C92.1249 249.384 88.3217 254.533 82.6579 256.274C82.6145 256.287 82.5711 256.293 82.5277 256.293ZM85.5182 210.78L47.8418 211.452C48.454 214.071 49.1754 216.702 49.9807 219.37H109.667C110.052 217.171 110.424 214.697 110.784 212.018C110.351 212.247 109.859 212.378 109.342 212.378H109.175C108.429 212.33 107.709 212.271 107 212.187C107.215 212.44 107.337 212.763 107.337 213.088C107.337 213.231 107.313 213.377 107.265 213.52C106.82 214.782 105.618 215.635 104.285 215.563C99.8991 215.334 92.3539 213.317 88.1495 211.359C87.3203 210.971 86.4313 210.768 85.5182 210.78Z" fill="#17263B"/>
<path d="M88.5734 118.328L76.2207 122.992L55.5594 118.865L44.6376 177.169C44.5897 180.424 44.3951 186.33 44.5867 189.514L85.303 195.197C87.2488 195.474 89.232 195.042 90.877 193.959C95.5259 190.908 98.3263 186.979 101.761 183.747C101.99 183.53 102.266 183.434 102.543 183.434C102.975 183.434 103.384 183.674 103.575 184.12C104.188 185.573 104.104 187.231 103.334 188.625L101.461 192.05C101.028 192.819 101.076 193.78 101.592 194.5C103.803 197.6 107.347 199.667 112.092 200.783C113.185 190.246 114.099 178.377 114.795 168.021C119.401 134.243 108.576 126.61 88.5734 118.328Z" fill="#046AFD"/>
<path d="M52.5718 72.7276C52.5718 78.3869 51.6453 79.3822 52.1871 80.9194C53.5686 80.6305 55.1193 81.0032 56.5008 81.9043C57.1129 64.6152 63.3844 65.8051 73.272 67.1028C82.968 68.3765 87.8205 61.7444 88.9745 79.2251C89.5028 79.237 90.0312 79.3448 90.5236 79.5618C91.5444 77.1311 91.745 74.4639 91.0774 71.5422C90.6254 69.5635 90.6688 67.4994 91.3154 65.5746C92.444 62.2099 93.9362 59.2104 89.6016 54.1438C89.208 53.6843 88.6257 53.2069 87.9058 52.7519C84.0187 50.2882 78.9118 50.5396 75.2701 53.3521C73.3288 54.8503 71.6944 57.299 64.7524 56.5656C55.9455 55.6346 52.5718 64.0778 52.5718 72.7276Z" fill="#17263B"/>
<path d="M56.499 82.353C56.4137 82.353 56.3284 82.3291 56.2535 82.2812C54.9424 81.4265 53.5294 81.0972 52.2767 81.3591C52.0566 81.3966 51.8381 81.2813 51.7633 81.0703C51.4594 80.2096 51.5597 79.5121 51.7243 78.3581C51.883 77.2475 52.1225 75.5682 52.1225 72.7273C52.1225 66.414 53.8797 61.2098 56.945 58.4527C59.0315 56.5743 61.6733 55.7855 64.7956 56.1193C70.609 56.7329 72.5114 55.1 74.1907 53.6616C74.4631 53.4296 74.7251 53.2036 74.993 52.997C78.8037 50.0559 84.0873 49.803 88.1435 52.3744C88.9129 52.8608 89.5175 53.3592 89.9411 53.8547C94.1425 58.764 93.0409 61.9477 91.9767 65.0265L91.7402 65.718C91.1445 67.4947 91.0652 69.4749 91.5142 71.4446C92.1938 74.4172 91.9992 77.2071 90.938 79.7367C90.8916 79.8459 90.8033 79.9342 90.6925 79.9791C90.5817 80.024 90.4575 80.021 90.3453 79.9731C89.9172 79.7845 89.4532 79.6843 88.9652 79.6738C88.7332 79.6693 88.5432 79.4867 88.5282 79.2547C88.1166 73.0102 87.2125 69.6111 85.6005 68.2356C84.2684 67.0995 82.4439 67.2671 79.9173 67.5021C77.979 67.6817 75.7848 67.8838 73.2148 67.547L72.6146 67.4677C67.5032 66.7927 63.4679 66.2613 60.8157 68.5035C58.4313 70.5196 57.2025 74.7839 56.9495 81.9204C56.9436 82.0821 56.8523 82.2273 56.7086 82.3021C56.6397 82.3365 56.5709 82.353 56.499 82.353ZM53.1418 80.3758C54.1087 80.3758 55.1145 80.6377 56.0814 81.1421C56.4062 74.1807 57.7309 69.9374 60.2349 67.8194C63.191 65.3214 67.3999 65.8767 72.7299 66.5801L73.3301 66.658C75.8027 66.9843 77.9446 66.7852 79.8335 66.6086C82.4723 66.3646 84.5603 66.1685 86.1813 67.553C87.9804 69.0887 88.9473 72.4639 89.3948 78.8042C89.6957 78.8371 89.989 78.8985 90.2704 78.9883C91.1176 76.7401 91.2418 74.272 90.6416 71.6422C90.1552 69.5108 90.242 67.3644 90.8916 65.4306L91.1311 64.7301C92.2027 61.6304 93.1292 58.9526 89.2616 54.4354C88.9024 54.0148 88.3501 53.5628 87.6661 53.1288C83.9331 50.7624 79.0597 50.9929 75.5453 53.705C75.2878 53.9041 75.0379 54.1196 74.7775 54.3411C73.0487 55.8214 70.8979 57.6579 64.7058 57.0098C61.8454 56.706 59.4402 57.417 57.5482 59.1188C54.6715 61.7067 53.022 66.6669 53.022 72.7273C53.022 75.631 52.7766 77.3478 52.6149 78.4839C52.4892 79.3699 52.4129 79.8953 52.5131 80.4132C52.7182 80.3877 52.9292 80.3758 53.1418 80.3758Z" fill="#17263B"/>
<path d="M50.012 90.2568C51.6465 92.7804 54.7822 94.9177 57.2683 94.9417C59.8278 102.535 65.942 107.881 73.0905 107.881C81.441 107.881 88.5087 100.593 89.8977 90.9169C90.8526 84.2608 90.0593 81.0832 89.7076 78.88C86.9401 61.5879 82.9617 68.3757 73.2731 67.105C63.3826 65.8073 57.1111 64.6173 56.499 81.9064C54.6011 80.6686 52.3903 80.4291 50.7319 81.5098C48.2458 83.1203 47.933 87.0358 50.012 90.2568Z" fill="white"/>
<path d="M73.0908 108.328C66.0201 108.328 59.7098 103.254 56.9437 95.3751C54.4367 95.191 51.3504 93.1495 49.6351 90.5002L49.6336 90.4987C47.4229 87.0711 47.8045 82.8712 50.4882 81.1335C52.0523 80.1142 54.1418 80.1351 56.0816 81.1439C56.4064 74.1825 57.731 69.9392 60.2351 67.8213C63.1912 65.3202 67.4016 65.8755 72.7331 66.5805L73.3333 66.6583C75.8538 66.9891 77.9627 66.7646 79.8262 66.567C85.5304 65.9608 88.1377 66.2212 90.1509 78.806L90.2721 79.5229C90.6448 81.6813 91.2091 84.9442 90.3424 90.9777C88.8996 101.031 81.6448 108.328 73.0908 108.328ZM50.3879 90.0122C52.0014 92.5029 55.0264 94.4726 57.273 94.4935C57.4631 94.4965 57.6323 94.6178 57.6936 94.7974C60.28 102.473 66.3239 107.432 73.0923 107.432C81.1958 107.432 88.0779 100.458 89.4564 90.8519C90.302 84.9592 89.7527 81.7801 89.3905 79.6786L89.2678 78.9512C87.304 66.6748 84.987 66.9202 79.922 67.4606C78.0106 67.6641 75.8433 67.8961 73.2165 67.5504L72.6163 67.471C67.5049 66.796 63.4681 66.2631 60.8144 68.5068C58.43 70.5244 57.2012 74.7872 56.9482 81.9238C56.9422 82.0854 56.8509 82.2306 56.7073 82.3054C56.5621 82.3788 56.3914 82.3698 56.2552 82.283C54.4412 81.099 52.419 80.9479 50.9792 81.8863C48.7071 83.3532 48.4436 87.0008 50.3879 90.0122Z" fill="#17263B"/>
<path d="M73.0877 108.332C64.8271 108.332 57.6023 101.212 55.9079 91.4003C55.866 91.1564 56.0292 90.9259 56.2731 90.884C56.5246 90.839 56.7491 91.0067 56.7895 91.2492C58.4105 100.628 65.2627 107.437 73.0877 107.437C82.2764 107.437 89.7512 98.2705 89.7512 87.0014L89.7482 86.6631C89.7437 86.4161 89.9398 86.2111 90.1867 86.2051C90.1897 86.2051 90.1942 86.2051 90.1957 86.2051C90.4397 86.2051 90.6388 86.3997 90.6432 86.6436L90.6462 87.0014C90.6477 98.7629 82.7703 108.332 73.0877 108.332Z" fill="#17263B"/>
<path d="M76.8999 80.8089V83.6318C76.8999 87.4934 80.0296 90.6232 83.8913 90.6232C87.7529 90.6232 90.8826 87.4934 90.8826 83.6318V80.8089C90.8826 79.9543 90.1896 79.2598 89.3335 79.2598H78.4491C77.5944 79.2613 76.8999 79.9543 76.8999 80.8089Z" fill="white"/>
<path d="M83.893 91.0725C79.7904 91.0725 76.4526 87.7347 76.4526 83.6321V80.8092C76.4526 79.7091 77.3492 78.8125 78.4493 78.8125H89.3353C90.4354 78.8125 91.3319 79.7091 91.3319 80.8092V83.6321C91.3319 87.7347 87.9942 91.0725 83.893 91.0725ZM78.4493 79.7091C77.8431 79.7091 77.3492 80.203 77.3492 80.8092V83.6321C77.3492 87.2408 80.2843 90.1759 83.893 90.1759C87.5017 90.1759 90.4354 87.2408 90.4354 83.6321V80.8092C90.4354 80.203 89.9414 79.7091 89.3353 79.7091H78.4493Z" fill="#17263B"/>
<path d="M84.5664 86.0095C83.2552 86.0095 82.1865 84.9423 82.1865 83.6311C82.1865 83.3842 82.3871 83.1836 82.6341 83.1836C82.881 83.1836 83.0816 83.3842 83.0816 83.6311C83.0816 84.4484 83.7461 85.1129 84.5649 85.1129C85.3821 85.1129 86.0467 84.4484 86.0467 83.6311C86.0467 83.3842 86.2472 83.1836 86.4942 83.1836C86.7412 83.1836 86.9417 83.3842 86.9417 83.6311C86.9447 84.9423 85.879 86.0095 84.5664 86.0095Z" fill="#17263B"/>
<path d="M59.5244 80.8089V83.6318C59.5244 87.4934 62.6541 90.6232 66.5158 90.6232C70.3774 90.6232 73.5071 87.4934 73.5071 83.6318V80.8089C73.5071 79.9543 72.8141 79.2598 71.958 79.2598H61.0721C60.2174 79.2613 59.5244 79.9543 59.5244 80.8089Z" fill="white"/>
<path d="M66.5156 91.0725C62.413 91.0725 59.0752 87.7347 59.0752 83.6321V80.8092C59.0752 79.7091 59.9717 78.8125 61.0719 78.8125H71.9578C73.0594 78.8125 73.956 79.7091 73.956 80.8092V83.6321C73.956 87.7347 70.6182 91.0725 66.5156 91.0725ZM61.0719 79.7091C60.4657 79.7091 59.9718 80.203 59.9718 80.8092V83.6321C59.9718 87.2408 62.9069 90.1759 66.5156 90.1759C70.1243 90.1759 73.0594 87.2408 73.0594 83.6321V80.8092C73.0594 80.203 72.5655 79.7091 71.9578 79.7091H61.0719Z" fill="#17263B"/>
<path d="M67.6141 86.6382C66.3029 86.6382 65.2357 85.571 65.2357 84.2598C65.2357 84.0129 65.4363 83.8123 65.6832 83.8123C65.9302 83.8123 66.1308 84.0129 66.1308 84.2598C66.1308 85.0771 66.7953 85.7416 67.6126 85.7416C68.4298 85.7416 69.0959 85.0771 69.0959 84.2598C69.0959 84.0129 69.2964 83.8123 69.5434 83.8123C69.7904 83.8123 69.9909 84.0129 69.9909 84.2598C69.9939 85.571 68.9267 86.6382 67.6141 86.6382ZM78.4491 79.7082H71.9577C71.7107 79.7082 71.5101 79.5076 71.5101 79.2607C71.5101 79.0137 71.7107 78.8131 71.9577 78.8131H78.4491C78.6961 78.8131 78.8966 79.0137 78.8966 79.2607C78.8966 79.5076 78.6961 79.7082 78.4491 79.7082ZM76.9 84.0787C76.653 84.0787 76.4524 83.8782 76.4524 83.6312C76.4524 81.6285 73.9558 81.6285 73.9558 83.6312C73.9558 83.8782 73.7553 84.0787 73.5083 84.0787C73.2613 84.0787 73.0608 83.8782 73.0608 83.6312C73.0608 80.5509 77.3505 80.5509 77.3505 83.6312C77.349 83.8782 77.1484 84.0787 76.9 84.0787ZM61.0717 79.7082H53.8678C53.6208 79.7082 53.4203 79.5076 53.4203 79.2607C53.4203 79.0137 53.6208 78.8131 53.8678 78.8131H61.0717C61.3187 78.8131 61.5193 79.0137 61.5193 79.2607C61.5207 79.5076 61.3202 79.7082 61.0717 79.7082ZM59.5241 81.7707H56.1115C55.8645 81.7707 55.6639 81.5702 55.6639 81.3232C55.6639 81.0762 55.8645 80.8757 56.1115 80.8757H59.5241C59.771 80.8757 59.9716 81.0762 59.9716 81.3232C59.9716 81.5702 59.771 81.7707 59.5241 81.7707ZM77.6424 77.4795C77.4897 77.4795 77.3415 77.4017 77.2577 77.2595C77.132 77.047 77.2023 76.7716 77.4134 76.6458C78.8802 75.7747 80.5416 74.7883 82.3766 74.4621C83.2163 74.3154 83.9856 74.3258 84.6697 74.4935C85.5004 74.7 86.2173 75.1491 86.6843 75.7583C86.8355 75.9543 86.798 76.2357 86.602 76.3854C86.4074 76.5366 86.1245 76.5006 85.9748 76.3031C85.6276 75.854 85.0887 75.5203 84.4541 75.3631C83.8913 75.2254 83.2447 75.2179 82.5323 75.3436C80.8589 75.6415 79.3397 76.5426 77.8714 77.4152C77.7995 77.4601 77.7202 77.4795 77.6424 77.4795ZM63.272 77.4795C63.1193 77.4795 62.9711 77.4017 62.8873 77.2595C62.7616 77.047 62.8319 76.7716 63.043 76.6458C64.5098 75.7747 66.1712 74.7883 68.0062 74.4621C68.8459 74.3154 69.6167 74.3258 70.2993 74.4935C71.1315 74.7 71.8469 75.1491 72.3139 75.7583C72.4651 75.9558 72.4276 76.2372 72.2316 76.3869C72.037 76.5366 71.7556 76.5006 71.6029 76.3046C71.2587 75.8555 70.7198 75.5218 70.0852 75.3646C69.5224 75.2269 68.8758 75.2194 68.1634 75.3451C66.49 75.643 64.9708 76.5441 63.5025 77.4167C63.4291 77.4601 63.3498 77.4795 63.272 77.4795ZM77.3071 94.4214C75.948 94.4214 74.4977 93.8915 74.2537 93.7987C74.0232 93.7104 73.9064 93.4515 73.9948 93.2195C74.0846 92.989 74.3465 92.8737 74.574 92.9605C75.4032 93.2763 77.9357 93.9753 78.6632 93.0952C79.2289 92.4067 78.2725 89.253 77.4463 87.3372C77.349 87.1097 77.4538 86.8462 77.6813 86.7475C77.9118 86.6532 78.1722 86.7549 78.271 86.9825C78.6497 87.8581 80.4787 92.3019 79.3547 93.6655C78.8832 94.2358 78.1108 94.4214 77.3071 94.4214ZM76.9494 99.4295C75.3748 99.4295 73.5368 98.4267 71.4712 96.439C71.3335 96.3058 71.2946 96.1007 71.3754 95.9271C71.4563 95.7535 71.6403 95.6592 71.8274 95.6696C75.0979 96.0064 77.8295 96.0064 80.1764 95.6726C80.3246 95.6487 80.4757 95.7071 80.576 95.8193C80.6748 95.9331 80.7107 96.0872 80.6718 96.2339C80.6449 96.3357 79.9698 98.7305 77.8714 99.3068C77.5735 99.3891 77.2667 99.4295 76.9494 99.4295ZM73.0847 96.683C74.8734 98.1648 76.4285 98.7709 77.6259 98.4432C78.6347 98.1677 79.2334 97.2802 79.5417 96.653C77.6469 96.8641 75.5155 96.873 73.0847 96.683ZM54.0055 90.9923C53.9457 90.9923 53.8858 90.9803 53.8289 90.9564C53.1778 90.6735 52.6614 90.1032 52.4474 89.4282C52.2334 88.7531 52.3277 87.9898 52.6959 87.3851C52.8605 87.1172 53.0641 86.8986 53.2601 86.6861C53.4367 86.496 53.6044 86.3149 53.7226 86.1188C54.01 85.6354 53.9965 84.9678 53.6882 84.4963C53.5251 84.2449 53.2826 84.0518 53.0281 83.9665C52.7108 83.8632 52.3426 83.9126 52.0672 84.0997C51.7903 84.2883 51.6077 84.6101 51.5883 84.9439C51.5748 85.1893 51.3847 85.3914 51.1153 85.3645C50.8683 85.351 50.6797 85.1399 50.6947 84.8915C50.7291 84.2763 51.0554 83.7031 51.5658 83.3573C52.0747 83.0101 52.7288 82.9202 53.3125 83.1163C53.763 83.266 54.1642 83.5818 54.4411 84.0054C54.9365 84.7658 54.9575 85.797 54.4935 86.5768C54.3273 86.8537 54.1208 87.0768 53.9187 87.2938C53.7451 87.4809 53.5804 87.6575 53.4637 87.8491C53.2272 88.2367 53.1673 88.7247 53.3035 89.1543C53.4397 89.5853 53.7705 89.9505 54.1851 90.1301C54.4126 90.2289 54.5174 90.4924 54.4201 90.7199C54.3438 90.892 54.1777 90.9923 54.0055 90.9923ZM83.3944 195.382C83.3929 195.382 83.3914 195.382 83.3899 195.382C83.143 195.379 82.9439 195.177 82.9469 194.93C83.2822 164.402 81.1403 142.924 75.7879 123.11C75.7235 122.87 75.8642 122.625 76.1037 122.56C76.3372 122.493 76.5886 122.637 76.653 122.876C82.0279 142.774 84.1787 164.326 83.8419 194.939C83.8404 195.185 83.6399 195.382 83.3944 195.382Z" fill="#17263B"/>
<path d="M73.962 134.957C74.8109 134.957 75.4991 134.269 75.4991 133.42C75.4991 132.571 74.8109 131.883 73.962 131.883C73.113 131.883 72.4248 132.571 72.4248 133.42C72.4248 134.269 73.113 134.957 73.962 134.957Z" fill="#17263B"/>
<path d="M77.0362 151.375C77.8852 151.375 78.5734 150.687 78.5734 149.838C78.5734 148.989 77.8852 148.301 77.0362 148.301C76.1872 148.301 75.499 148.989 75.499 149.838C75.499 150.687 76.1872 151.375 77.0362 151.375Z" fill="#17263B"/>
<path d="M78.2696 167.795C79.1186 167.795 79.8068 167.107 79.8068 166.258C79.8068 165.409 79.1186 164.721 78.2696 164.721C77.4206 164.721 76.7324 165.409 76.7324 166.258C76.7324 167.107 77.4206 167.795 78.2696 167.795Z" fill="#17263B"/>
<path d="M79.2711 184.215C80.12 184.215 80.8082 183.527 80.8082 182.678C80.8082 181.829 80.12 181.141 79.2711 181.141C78.4221 181.141 77.7339 181.829 77.7339 182.678C77.7339 183.527 78.4221 184.215 79.2711 184.215Z" fill="#17263B"/>
<path d="M149.981 187.853C146.736 187.853 143.557 186.817 140.849 184.816L127.71 175.105C127.52 174.964 127.471 174.699 127.601 174.5L141.268 153.421C141.34 153.312 141.455 153.239 141.585 153.221C141.708 153.21 141.846 153.245 141.943 153.332L147.224 158.079L161.281 131.962C161.352 131.832 161.48 131.747 161.625 131.729L183.084 129.291C183.239 129.282 183.396 129.338 183.49 129.464C183.586 129.588 183.61 129.756 183.551 129.901L164.595 177.524C162.962 182.18 159.305 185.696 154.571 187.154C153.052 187.624 151.509 187.853 149.981 187.853ZM128.581 174.636L141.38 184.096C145.136 186.871 149.846 187.672 154.306 186.301C158.767 184.928 162.209 181.616 163.754 177.214L182.439 130.269L161.958 132.597L147.741 159.009C147.676 159.13 147.559 159.214 147.424 159.238C147.291 159.263 147.15 159.221 147.047 159.13L141.733 154.352L128.581 174.636ZM146.014 262.924H26.4949C26.2479 262.924 26.0474 262.724 26.0474 262.477C26.0474 262.23 26.2479 262.029 26.4949 262.029H146.014C146.261 262.029 146.462 262.23 146.462 262.477C146.462 262.724 146.261 262.924 146.014 262.924ZM55.2956 63.6681C55.2237 63.6681 55.1504 63.6502 55.0815 63.6127C54.863 63.4945 54.7822 63.2236 54.9019 63.0066C55.4378 62.0202 56.457 61.7014 57.3027 61.7493C56.8387 60.7779 56.7893 59.6628 56.7863 59.5999C56.7773 59.3545 56.9689 59.1464 57.2174 59.1359C57.4584 59.0851 57.6724 59.3185 57.6829 59.5655C57.7008 60.0415 57.8969 61.405 58.5645 62.0007C58.7201 62.1414 58.7591 62.3704 58.6573 62.5545C58.5555 62.7371 58.3415 62.8285 58.1364 62.7656C58.0631 62.7416 56.3358 62.2387 55.6877 63.4331C55.6084 63.5828 55.4542 63.6681 55.2956 63.6681Z" fill="#17263B"/>
<path d="M114.798 168.022C115.29 168.407 119.13 171.742 125.269 174.385C130.412 176.595 147.496 153.997 142.894 149.299C142.894 149.299 128.155 132.332 114.798 125.21C107.334 121.232 88.5732 118.328 88.5732 118.328L114.798 168.022Z" fill="#046AFD"/>
<path d="M126.075 174.989C125.725 174.989 125.395 174.928 125.091 174.796C118.829 172.097 114.529 168.397 114.485 168.361C114.298 168.2 114.279 167.917 114.44 167.728C114.604 167.544 114.887 167.523 115.074 167.683C115.114 167.719 119.317 171.331 125.446 173.971C127.667 174.934 133.389 169.999 138.208 162.988C142.514 156.721 144.268 151.345 142.572 149.61C142.4 149.433 142.403 149.15 142.58 148.977C142.755 148.803 143.038 148.809 143.213 148.984C145.681 151.511 142.626 158.137 138.944 163.495C135.591 168.381 129.701 174.987 126.075 174.989Z" fill="#17263B"/>
<path d="M114.045 178.947C114.034 178.947 114.022 178.947 114.01 178.946C113.765 178.928 113.579 178.712 113.597 178.465C114.201 170.472 114.769 161.848 115.289 152.835C115.302 152.589 115.519 152.39 115.762 152.414C116.009 152.428 116.199 152.639 116.182 152.887C115.663 161.905 115.094 170.535 114.491 178.534C114.474 178.769 114.277 178.947 114.045 178.947Z" fill="#17263B"/>
<path d="M76.2207 122.991C80.2814 124.889 83.9859 127.805 87.2863 131.882C88.7246 129.354 89.8936 126.748 90.6734 124.025C91.4772 121.22 90.5537 118.261 88.319 116.386C87.1336 115.392 85.8239 114.596 84.3765 114.295C82.5236 117.116 79.795 120.762 76.2207 122.991Z" fill="white"/>
<path d="M87.2845 132.329C87.1498 132.329 87.0225 132.268 86.9372 132.163C83.7656 128.246 80.0955 125.296 76.0303 123.397C75.8821 123.326 75.7834 123.183 75.7729 123.018C75.7624 122.855 75.8432 122.698 75.9824 122.611C78.7125 120.909 81.3348 118.109 83.9991 114.048C84.1008 113.895 84.285 113.823 84.4646 113.855C85.8356 114.139 87.1902 114.855 88.6046 116.042C90.9635 118.022 91.9439 121.204 91.1012 124.148C90.3513 126.763 89.2303 129.366 87.6736 132.102C87.6003 132.231 87.4686 132.314 87.3204 132.326C87.3084 132.329 87.2964 132.329 87.2845 132.329ZM77.1259 122.933C80.8544 124.805 84.243 127.546 87.2141 131.09C88.5717 128.623 89.5655 126.266 90.2421 123.901C90.9979 121.256 90.1508 118.508 88.0298 116.729C86.8354 115.727 85.7024 115.096 84.5768 114.802C82.1132 118.507 79.6674 121.179 77.1259 122.933Z" fill="#17263B"/>
<path d="M168.939 103.285L97.9785 195.752L120.174 212.785L191.134 120.317L168.939 103.285Z" fill="#EB3A40"/>
<path d="M120.177 213.241C120.08 213.241 119.984 213.208 119.905 213.148L97.7109 196.114C97.5148 195.963 97.4774 195.681 97.6286 195.485L168.593 103.023C168.665 102.929 168.773 102.867 168.891 102.851C169.011 102.837 169.127 102.869 169.222 102.939L191.416 119.974C191.612 120.125 191.649 120.406 191.498 120.602L120.533 213.066C120.462 213.16 120.354 213.222 120.236 213.238C120.216 213.24 120.197 213.241 120.177 213.241ZM98.6119 195.675L120.095 212.165L190.514 120.412L169.031 103.924L98.6119 195.675Z" fill="#17263B"/>
<path d="M113.548 221.089L108.34 227.875C105.9 231.054 101.347 231.653 98.1692 229.215L87.8146 221.267C84.6369 218.827 84.0382 214.274 86.478 211.095L91.6867 204.309L113.548 221.089Z" fill="white"/>
<path d="M102.577 231.156C100.941 231.156 99.2916 230.64 97.8966 229.568L87.542 221.621C84.1743 219.034 83.5367 214.189 86.1216 210.82L91.3303 204.034C91.4022 203.939 91.51 203.878 91.6282 203.861C91.7464 203.851 91.8632 203.879 91.959 203.95L113.821 220.73C114.017 220.881 114.054 221.163 113.903 221.359L108.696 228.145C107.181 230.121 104.891 231.156 102.577 231.156ZM91.7689 204.935L86.8326 211.366C84.5485 214.343 85.1113 218.624 88.0869 220.91L98.4414 228.857C101.417 231.143 105.699 230.58 107.985 227.602L112.921 221.172L91.7689 204.935Z" fill="#17263B"/>
<path d="M120.853 215.541C121.447 214.766 121.302 213.655 120.526 213.061L97.6333 195.491C96.858 194.896 95.7474 195.042 95.1532 195.817C94.559 196.592 94.7041 197.703 95.4795 198.297L118.372 215.867C119.148 216.463 120.257 216.317 120.853 215.541Z" fill="#DEDFE3"/>
<path d="M119.444 216.682C118.959 216.682 118.489 216.523 118.099 216.224L95.2056 198.653C94.7371 198.292 94.4348 197.772 94.3585 197.183C94.2806 196.595 94.4363 196.014 94.797 195.544C95.1577 195.074 95.6801 194.774 96.2668 194.696C96.8566 194.616 97.4358 194.775 97.9058 195.134L120.799 212.705C121.767 213.449 121.95 214.844 121.207 215.815C120.845 216.284 120.324 216.586 119.738 216.662C119.64 216.676 119.541 216.682 119.444 216.682ZM96.5602 195.573C96.5018 195.573 96.4434 195.576 96.3851 195.585C96.0348 195.631 95.725 195.811 95.5095 196.091C95.2939 196.371 95.2011 196.718 95.2475 197.068C95.2924 197.417 95.472 197.728 95.7534 197.942L118.646 215.513C118.925 215.727 119.269 215.823 119.622 215.775C119.973 215.73 120.282 215.55 120.498 215.269C120.941 214.691 120.833 213.86 120.255 213.417L97.3625 195.847C97.1275 195.667 96.8491 195.573 96.5602 195.573Z" fill="#17263B"/>
<path d="M118.699 218.348C119.293 217.573 119.148 216.462 118.372 215.868L95.4795 198.297C94.7042 197.703 93.5936 197.848 92.9994 198.624C92.4052 199.399 92.5503 200.509 93.3257 201.104L116.219 218.674C116.992 219.27 118.103 219.123 118.699 218.348Z" fill="#DEDFE3"/>
<path d="M117.292 219.487C116.82 219.487 116.346 219.339 115.945 219.03L93.0533 201.46C92.5848 201.098 92.2824 200.577 92.2061 199.99C92.1283 199.402 92.2839 198.821 92.6447 198.351C93.0054 197.883 93.5263 197.58 94.1145 197.502C94.7117 197.423 95.2835 197.582 95.7534 197.941L118.646 215.511C119.115 215.874 119.417 216.395 119.494 216.981C119.571 217.569 119.416 218.15 119.055 218.62C118.618 219.19 117.958 219.487 117.292 219.487ZM94.4049 198.38C94.0067 198.38 93.6146 198.558 93.3556 198.896C93.1401 199.176 93.0473 199.523 93.0937 199.873C93.1386 200.224 93.3182 200.533 93.5996 200.749L116.491 218.319C117.07 218.765 117.901 218.652 118.343 218.075C118.558 217.796 118.651 217.448 118.604 217.098C118.56 216.748 118.38 216.438 118.099 216.222L95.2056 198.652C94.9676 198.468 94.6848 198.38 94.4049 198.38Z" fill="#17263B"/>
<path d="M116.543 221.156C117.138 220.381 116.992 219.27 116.217 218.676L93.3242 201.106C92.5489 200.512 91.4383 200.657 90.8441 201.432C90.2499 202.207 90.3951 203.318 91.1704 203.912L114.063 221.483C114.839 222.077 115.949 221.932 116.543 221.156Z" fill="#DEDFE3"/>
<path d="M115.135 222.298C114.65 222.298 114.18 222.14 113.789 221.84L90.8976 204.27C89.9277 203.526 89.7451 202.133 90.4875 201.161C90.8482 200.691 91.3705 200.39 91.9573 200.313C92.538 200.235 93.1262 200.39 93.5962 200.751L116.488 218.322C116.958 218.682 117.259 219.205 117.336 219.791C117.414 220.378 117.259 220.959 116.898 221.43C116.537 221.9 116.015 222.201 115.428 222.279C115.331 222.291 115.233 222.298 115.135 222.298ZM92.2506 201.188C92.1938 201.188 92.1339 201.191 92.0755 201.2C91.7253 201.247 91.4154 201.426 91.1999 201.706C90.9859 201.984 90.8916 202.333 90.938 202.683C90.9829 203.032 91.1625 203.343 91.4439 203.558L114.335 221.128C114.614 221.342 114.956 221.439 115.313 221.39C115.663 221.344 115.973 221.164 116.188 220.884C116.404 220.604 116.497 220.257 116.45 219.908C116.404 219.558 116.224 219.248 115.944 219.033L93.0529 201.462C92.8194 201.282 92.5395 201.188 92.2506 201.188Z" fill="#17263B"/>
<path d="M176.884 109.382L105.923 201.85L112.23 206.689L183.19 114.222L176.884 109.382Z" fill="white"/>
<path d="M112.234 207.147C112.138 207.147 112.042 207.117 111.962 207.054L105.654 202.214C105.56 202.142 105.499 202.034 105.482 201.916C105.467 201.797 105.499 201.679 105.57 201.585L176.536 109.121C176.608 109.027 176.716 108.965 176.834 108.949C176.954 108.94 177.069 108.967 177.165 109.037L183.471 113.878C183.667 114.029 183.704 114.31 183.553 114.506L112.589 206.97C112.5 207.086 112.367 207.147 112.234 207.147ZM106.554 201.775L112.15 206.071L182.57 114.318L176.975 110.022L106.554 201.775Z" fill="#17263B"/>
<path d="M191.138 120.336L168.943 103.3L188.073 94.4796L194.123 91.6956C195.013 91.281 196.007 92.0428 195.846 93.0187L194.711 99.576L191.138 120.336Z" fill="white"/>
<path d="M191.139 120.783C191.041 120.783 190.945 120.752 190.866 120.69L168.671 103.653C168.546 103.557 168.481 103.403 168.499 103.247C168.516 103.091 168.614 102.957 168.756 102.889L193.937 91.2865C194.496 91.0245 195.153 91.0979 195.645 91.472C196.145 91.8507 196.391 92.4704 196.289 93.09L191.58 120.41C191.555 120.566 191.448 120.695 191.302 120.752C191.249 120.773 191.192 120.783 191.139 120.783ZM169.802 103.395L190.821 119.529L195.403 92.9419C195.451 92.6515 195.337 92.3671 195.1 92.1875C194.867 92.0109 194.572 91.9809 194.309 92.1007L169.802 103.395Z" fill="#17263B"/>
<path d="M194.711 99.5721C193.188 99.9044 191.537 99.5961 190.203 98.5723C188.87 97.5485 188.145 96.0338 188.072 94.4757L194.122 91.6917C195.012 91.2771 196.006 92.0389 195.844 93.0148L194.711 99.5721Z" fill="#17263B"/>
<path d="M193.528 100.149C192.234 100.149 190.971 99.7286 189.931 98.9294C188.548 97.8682 187.707 96.2532 187.624 94.4989C187.617 94.3163 187.719 94.1472 187.886 94.0709L193.936 91.2884C194.495 91.0265 195.152 91.0998 195.644 91.474C196.144 91.8527 196.389 92.4723 196.288 93.092L195.152 99.6508C195.122 99.8304 194.985 99.9741 194.806 100.013C194.382 100.103 193.954 100.149 193.528 100.149ZM188.542 94.7534C188.687 96.1274 189.382 97.3772 190.477 98.2169C191.57 99.0566 192.954 99.4053 194.324 99.1898L195.406 92.9393C195.454 92.649 195.34 92.3646 195.104 92.185C194.87 92.0083 194.575 91.9784 194.312 92.0981L188.542 94.7534Z" fill="#17263B"/>
<path d="M176.638 143.24C177.353 143.212 178.042 143.097 178.662 142.953C180.051 142.615 181.236 142.006 182.299 140.907C183.279 139.894 183.561 138.753 182.305 137.663C181.113 136.548 180.634 135.824 179.132 134.236C176.439 131.551 172.718 135.667 174.706 137.954C175.527 138.901 175.58 139.04 176.295 139.677L173.784 142.949" fill="white"/>
<path d="M176.638 143.688C176.399 143.688 176.2 143.5 176.191 143.257C176.182 143.01 176.373 142.802 176.622 142.792C177.224 142.768 177.858 142.678 178.562 142.515C179.952 142.176 181.039 141.564 181.979 140.594C182.474 140.082 182.717 139.599 182.696 139.159C182.679 138.77 182.45 138.379 182.012 138C181.295 137.328 180.823 136.791 180.279 136.17C179.883 135.718 179.434 135.206 178.807 134.543C177.623 133.362 176.288 133.793 175.507 134.52C174.652 135.317 174.202 136.688 175.044 137.658C175.266 137.914 175.432 138.11 175.57 138.274C175.939 138.713 176.092 138.895 176.593 139.342C176.77 139.497 176.794 139.762 176.652 139.949L174.14 143.221C173.989 143.417 173.708 143.453 173.512 143.303C173.316 143.152 173.278 142.871 173.429 142.675L175.692 139.729C175.362 139.415 175.182 139.202 174.886 138.852C174.751 138.69 174.586 138.496 174.369 138.246C173.158 136.852 173.736 134.95 174.896 133.866C176.053 132.786 177.911 132.382 179.451 133.917C180.097 134.6 180.552 135.119 180.955 135.579C181.506 136.207 181.941 136.704 182.613 137.334C183.232 137.87 183.565 138.475 183.594 139.118C183.624 139.814 183.297 140.519 182.624 141.217C181.563 142.316 180.338 143.004 178.771 143.386C178.008 143.562 177.318 143.661 176.659 143.687C176.649 143.688 176.643 143.688 176.638 143.688Z" fill="#17263B"/>
<path d="M187.075 128.216C189.111 129.961 190.584 125.764 188.619 123.66C187.499 122.462 187.411 122.104 186.299 121.26L186.294 121.266C184.013 119.671 181.906 123.959 183.971 125.457C185.251 126.37 185.663 126.818 187.075 128.216Z" fill="white"/>
<path d="M188.032 129.074C187.62 129.074 187.189 128.902 186.785 128.555C186.777 128.548 186.768 128.54 186.761 128.533L186.375 128.149C185.255 127.04 184.836 126.623 183.712 125.819C182.337 124.822 182.461 122.84 183.362 121.576C184.185 120.42 185.403 120.143 186.484 120.853C186.514 120.866 186.542 120.883 186.569 120.904C187.339 121.487 187.652 121.86 188.087 122.378C188.307 122.64 188.566 122.947 188.946 123.354C190.371 124.878 190.235 127.446 189.172 128.555C188.84 128.901 188.443 129.074 188.032 129.074ZM187.379 127.885C187.969 128.384 188.316 128.154 188.526 127.935C189.217 127.212 189.428 125.183 188.291 123.966C187.899 123.545 187.631 123.228 187.402 122.956C186.987 122.463 186.733 122.159 186.087 121.664C186.071 121.656 186.055 121.646 186.038 121.636C185.062 120.955 184.351 121.731 184.091 122.098C183.435 123.019 183.336 124.442 184.234 125.095C185.417 125.939 185.882 126.4 187.006 127.516L187.379 127.885Z" fill="#17263B"/>
<path d="M183.965 125.453C181.738 124.001 179.675 127.63 181.612 129.296C182.837 130.19 185.166 132.634 185.166 132.634L185.182 132.63C187.289 134.635 189.373 130.253 187.078 128.232L187.062 128.22C187.06 128.22 185.125 126.209 183.965 125.453Z" fill="white"/>
<path d="M186.288 133.592C185.83 133.592 185.369 133.399 184.947 133.025C184.906 133.004 184.87 132.977 184.839 132.944C184.815 132.92 182.525 130.517 181.347 129.658C180.036 128.533 180.213 126.78 181.031 125.69C181.844 124.611 183.119 124.366 184.209 125.077C185.397 125.852 187.303 127.828 187.382 127.912C188.324 128.738 188.722 130.033 188.436 131.365C188.204 132.448 187.565 133.274 186.771 133.518C186.613 133.568 186.45 133.592 186.288 133.592ZM185.417 132.251C185.442 132.266 185.468 132.285 185.489 132.306C185.842 132.643 186.183 132.764 186.508 132.661C186.976 132.516 187.4 131.918 187.559 131.175C187.776 130.166 187.484 129.191 186.777 128.569C186.716 128.512 184.821 126.547 183.716 125.828C182.67 125.144 181.946 125.963 181.745 126.228C181.171 126.993 181.031 128.208 181.901 128.956C183.013 129.766 185.008 131.824 185.417 132.251Z" fill="#17263B"/>
<path d="M185.176 132.63C185.176 132.63 182.841 130.207 181.618 129.306C179.198 127.525 177.083 131.617 178.933 133.982C179.925 135.251 182.289 137.65 182.289 137.65L182.302 137.67C184.676 139.097 187.366 134.796 185.176 132.63Z" fill="white"/>
<path d="M183.291 138.402C182.875 138.402 182.461 138.288 182.07 138.053C182.015 138.02 181.968 137.976 181.932 137.923C181.871 137.866 179.576 135.532 178.58 134.257C177.316 132.643 177.677 130.316 178.804 129.153C179.668 128.262 180.847 128.182 181.883 128.943C183.109 129.846 185.354 132.168 185.495 132.313C186.893 133.699 186.563 135.841 185.544 137.152C184.908 137.97 184.098 138.402 183.291 138.402ZM180.422 129.315C180.01 129.315 179.684 129.536 179.448 129.779C178.601 130.651 178.325 132.479 179.285 133.705C180.251 134.941 182.583 137.312 182.607 137.336C183.42 137.819 184.308 137.285 184.836 136.604C185.62 135.595 185.896 133.971 184.86 132.949C184.857 132.946 184.856 132.944 184.853 132.941C184.83 132.917 182.531 130.535 181.35 129.666C181.006 129.412 180.696 129.315 180.422 129.315Z" fill="#17263B"/>
<path d="M177.56 141.197C177.468 141.197 177.376 141.168 177.295 141.11C176.995 140.89 176.342 140.345 175.983 139.996C175.806 139.824 175.8 139.54 175.972 139.363C176.144 139.185 176.43 139.181 176.605 139.353C176.926 139.663 177.553 140.188 177.825 140.387C178.024 140.532 178.068 140.814 177.923 141.014C177.834 141.134 177.698 141.197 177.56 141.197Z" fill="#17263B"/>
<path d="M121.432 203.165C121.432 203.273 121.42 203.393 121.384 203.512C121.025 204.826 119.83 205.747 118.468 205.771C117.583 205.783 116.712 205.759 115.876 205.711C115.948 205.879 115.983 206.046 115.983 206.236C115.983 206.38 115.96 206.524 115.912 206.666C115.494 207.956 114.262 208.817 112.9 208.769C112.471 208.757 112.039 208.733 111.61 208.685C112.159 209.008 112.447 209.701 112.231 210.334C111.801 211.577 110.63 212.378 109.339 212.378H109.172C108.431 212.33 107.702 212.27 106.997 212.186C107.212 212.437 107.332 212.747 107.332 213.083C107.332 213.226 107.308 213.37 107.26 213.524C106.831 214.778 105.611 215.639 104.285 215.567C99.8993 215.328 92.3481 213.309 88.1422 211.361C87.3175 210.968 86.4329 210.764 85.5139 210.788L20.345 211.935C11.4437 212.102 5.23066 203.152 8.4921 194.871L16.9518 166.828L41.4223 179.53L38.101 188.61L85.2984 195.195C87.2456 195.47 89.2289 195.039 90.8783 193.964C95.5272 190.905 98.3217 186.975 101.764 183.749C101.992 183.533 102.266 183.438 102.541 183.438C102.971 183.438 103.39 183.677 103.569 184.119C104.19 185.577 104.107 187.238 103.342 188.624L101.454 192.053C101.025 192.83 101.083 193.785 101.598 194.502C104.919 199.137 111.216 201.468 120.095 201.803C120.858 201.827 121.432 202.448 121.432 203.165Z" fill="white"/>
<path d="M113.015 209.211C112.97 209.211 112.925 209.209 112.881 209.208C108.152 209.026 103.985 208.104 100.14 206.389C99.9156 206.287 99.8138 206.022 99.9141 205.796C100.016 205.572 100.282 205.473 100.507 205.57C104.244 207.241 108.302 208.136 112.915 208.313C114.035 208.356 115.136 207.621 115.489 206.521C115.558 206.308 115.549 206.09 115.461 205.888C115.364 205.66 115.468 205.397 115.696 205.298C115.926 205.201 116.187 205.306 116.286 205.533C116.458 205.933 116.479 206.38 116.343 206.796C115.88 208.235 114.524 209.211 113.015 209.211Z" fill="#17263B"/>
<path d="M109.353 212.828C109.287 212.828 109.22 212.826 109.152 212.822C104.427 212.549 100.28 211.548 96.4704 209.759C96.2459 209.653 96.1501 209.387 96.2548 209.164C96.3626 208.941 96.629 208.848 96.8505 208.948C100.555 210.687 104.596 211.663 109.205 211.93C110.38 211.974 111.441 211.28 111.815 210.187C111.96 209.764 111.776 209.301 111.378 209.086C111.161 208.967 111.079 208.697 111.197 208.478C111.315 208.261 111.589 208.182 111.805 208.297C112.589 208.722 112.95 209.64 112.661 210.479C112.176 211.885 110.835 212.828 109.353 212.828Z" fill="#17263B"/>
<path d="M104.436 216.016C104.376 216.016 104.318 216.014 104.259 216.011C99.9531 215.782 92.3361 213.796 87.9581 211.761C87.1648 211.392 86.3506 211.184 85.5274 211.229L20.3479 212.386C16.0343 212.455 11.9586 210.387 9.48894 206.829C7.01928 203.271 6.48943 198.74 8.0775 194.708L16.5222 166.699C16.5611 166.572 16.6539 166.469 16.7782 166.416C16.8979 166.365 17.0401 166.368 17.1583 166.431L41.6244 179.134C41.8234 179.238 41.9162 179.474 41.8384 179.687L38.7132 188.254L85.3627 194.759C87.2232 195.019 89.0911 194.603 90.6283 193.591C93.7191 191.562 95.9897 189.131 98.1855 186.777C99.2841 185.6 100.321 184.49 101.454 183.425C101.833 183.068 102.36 182.92 102.87 183.026C103.376 183.134 103.783 183.467 103.985 183.945C104.66 185.54 104.566 187.325 103.731 188.841L101.848 192.264C101.504 192.89 101.549 193.666 101.962 194.246C105.1 198.633 111.207 201.023 120.111 201.351C120.676 201.372 121.191 201.643 121.524 202.095C121.852 202.538 121.957 203.097 121.815 203.632C121.412 205.134 120.04 206.197 118.477 206.215C113.711 206.265 109.538 205.561 105.611 204.04C105.38 203.952 105.265 203.692 105.355 203.461C105.445 203.231 105.702 203.117 105.934 203.205C109.751 204.684 113.873 205.371 118.464 205.32C119.627 205.307 120.647 204.518 120.947 203.401C121.019 203.133 120.965 202.85 120.801 202.627C120.631 202.397 120.367 202.259 120.077 202.249C110.881 201.909 104.541 199.393 101.233 194.768C100.619 193.912 100.552 192.759 101.062 191.834L102.945 188.411C103.647 187.136 103.725 185.636 103.158 184.297C103.072 184.093 102.9 183.949 102.683 183.904C102.462 183.855 102.236 183.922 102.067 184.081C100.956 185.124 99.9277 186.226 98.8395 187.39C96.6079 189.782 94.2999 192.255 91.1178 194.343C89.3965 195.473 87.313 195.937 85.2355 195.648L24.3967 187.164C24.1512 187.13 23.9806 186.904 24.015 186.658C24.0479 186.415 24.2709 186.232 24.5209 186.277L37.8032 188.128L40.858 179.751L17.2212 167.479L8.92017 195.006C7.43089 198.793 7.92183 203.009 10.2209 206.321C12.5214 209.632 16.2842 211.58 20.3285 211.494L85.5079 210.337C86.5062 210.316 87.4148 210.527 88.3323 210.954C92.6265 212.951 100.089 214.898 104.303 215.122C105.401 215.173 106.458 214.464 106.832 213.376C106.939 213.067 106.874 212.735 106.66 212.487C106.498 212.299 106.519 212.017 106.708 211.855C106.894 211.693 107.176 211.713 107.34 211.903C107.763 212.394 107.89 213.054 107.679 213.668C107.199 215.07 105.88 216.016 104.436 216.016Z" fill="#17263B"/>
<path d="M56.1506 117.951C56.1506 117.951 37.0625 122.307 31.8163 129.118C24.8534 138.16 14.7907 168.572 14.7907 168.572C14.6111 169.365 14.9224 170.302 15.6199 171.311C19.236 176.645 34.1243 184.84 40.0829 183.205C41.1037 182.929 41.885 182.4 42.3415 181.547C42.9058 180.514 43.8578 178.778 44.6391 177.168C56.1791 156.439 59.7788 136.194 56.1506 117.951Z" fill="#046AFD"/>
<path d="M38.3239 183.81C36.4036 183.81 33.9669 183.27 31.0946 182.186C22.807 179.063 13.4927 172.248 14.3533 168.471C14.4072 168.23 14.6512 168.072 14.8892 168.135C15.1301 168.19 15.2828 168.43 15.2259 168.671C14.5569 171.613 22.8744 178.129 31.4104 181.348C36.9679 183.444 40.8056 183.436 41.9461 181.333C43.4429 178.575 46.0637 173.436 49.7367 166.059C49.8475 165.836 50.1169 165.749 50.3369 165.857C50.5585 165.967 50.6483 166.235 50.539 166.457C46.8615 173.843 44.2361 178.992 42.7349 181.76C41.994 183.126 40.4853 183.81 38.3239 183.81Z" fill="#17263B"/>
<path d="M56.4047 124.44C59.2186 128.573 62.7749 132.168 66.8491 135.391C68.4042 129.793 71.4905 125.624 76.2203 122.992C69.4205 121.112 63.9005 117.699 59.3877 113.08C58.8624 113.251 58.325 113.555 57.7937 113.963C54.5786 116.436 54.1221 121.089 56.4047 124.44Z" fill="white"/>
<path d="M66.8491 135.839C66.7503 135.839 66.65 135.806 66.5707 135.741C62.1762 132.266 58.7292 128.65 56.0335 124.691C53.5414 121.033 54.194 116.164 57.5183 113.607C58.1035 113.155 58.6858 112.835 59.2471 112.652C59.4087 112.597 59.5853 112.642 59.7066 112.766C64.3211 117.488 69.916 120.783 76.3371 122.558C76.5137 122.606 76.6409 122.757 76.6634 122.937C76.6858 123.118 76.596 123.294 76.4374 123.383C71.8917 125.912 68.8114 129.992 67.2802 135.509C67.2398 135.655 67.129 135.768 66.9868 135.815C66.9419 135.833 66.8955 135.839 66.8491 135.839ZM59.271 113.601C58.8833 113.761 58.4792 114.001 58.0661 114.318C55.1175 116.586 54.5502 120.92 56.7744 124.188C59.3114 127.912 62.5325 131.332 66.6066 134.623C68.1513 129.558 71.0041 125.7 75.1007 123.133C69.0344 121.286 63.7164 118.083 59.271 113.601Z" fill="#17263B"/>
<path d="M19.8314 92.3623C19.2672 95.7091 16.094 97.9647 12.7368 97.3974C9.39004 96.8317 7.13443 93.66 7.7002 90.3148C8.26747 86.9575 11.4391 84.7019 14.7859 85.2662C18.1416 85.832 20.3972 89.0036 19.8314 92.3623ZM27.5757 104.083C27.2479 106.02 25.4114 107.327 23.4671 106.999C21.5288 106.671 20.2236 104.835 20.5499 102.898C20.8777 100.954 22.7142 99.6486 24.6525 99.9748C26.5983 100.303 27.9035 102.141 27.5757 104.083Z" fill="#046AFD"/>
<path d="M45.9298 35.9142C49.9047 30.4982 48.7365 22.8854 43.3206 18.9105C37.9046 14.9356 30.2918 16.1037 26.3169 21.5197C22.3419 26.9357 23.5101 34.5485 28.9261 38.5234C34.3421 42.4983 41.9549 41.3302 45.9298 35.9142Z" fill="white"/>
<path d="M36.1045 41.3339C33.9402 41.3339 31.8013 40.7696 29.869 39.668C26.9443 37.9977 24.8428 35.2885 23.9568 32.0405C22.1247 25.3306 26.0911 18.3841 32.7996 16.5521C39.5051 14.7155 46.4561 18.6864 48.2881 25.3949C50.1201 32.1034 46.1522 39.0514 39.4437 40.8834C38.3406 41.1857 37.2196 41.3339 36.1045 41.3339ZM36.1179 17.0011C35.0986 17.0011 34.0644 17.1358 33.0346 17.4157C26.8036 19.1175 23.1186 25.573 24.8204 31.8055C26.5222 38.0381 32.9822 41.7141 39.2088 40.0198C45.4398 38.3165 49.1248 31.8609 47.4245 25.6299C46.0025 20.4272 41.2683 17.0011 36.1179 17.0011Z" fill="#17263B"/>
<path d="M40.4709 29.3632L41.9048 32.433C42.1967 33.0602 41.6444 33.7487 40.9693 33.6005L37.6585 32.8686C37.3906 32.8087 37.1107 32.8866 36.9101 33.0737L34.4315 35.3876C33.9256 35.8591 33.0994 35.5463 33.032 34.8578L32.7057 31.4856C32.6788 31.2117 32.5201 30.9692 32.2792 30.836L29.2961 29.1866C28.6899 28.8513 28.7333 27.9667 29.368 27.6913L32.4887 26.3382C32.7416 26.229 32.9243 26.0015 32.9751 25.7305L33.6188 22.3898C33.749 21.7102 34.6036 21.4767 35.0631 21.9946L37.3143 24.5436C37.4969 24.7502 37.7693 24.8534 38.0432 24.819L41.4184 24.3984C42.1054 24.3131 42.5918 25.0525 42.2401 25.6497L40.5098 28.5864C40.3691 28.8243 40.3542 29.1147 40.4709 29.3632Z" fill="#FEBE05"/>
<path d="M147.471 63.2467L127.585 89.3726C126.947 90.2093 125.612 89.7872 125.573 88.7365L125.259 80.4939C125.232 79.7889 124.569 79.283 123.882 79.4461L115.853 81.338C114.83 81.579 114.068 80.4055 114.704 79.5674L134.59 53.4414L147.471 63.2467Z" fill="#FEBE05"/>
<path d="M139.023 61.4222L146.35 93.4275C146.585 94.4527 147.976 94.6189 148.446 93.6789L152.135 86.3014C152.451 85.6698 153.264 85.4842 153.822 85.9152L160.354 90.9533C161.186 91.5954 162.365 90.8411 162.13 89.8158L154.804 57.8105L139.023 61.4222Z" fill="#FEBE05"/>
<path d="M142.721 78.0192C142.517 78.0192 142.332 77.8785 142.284 77.6719L138.587 61.5234C138.531 61.2824 138.682 61.0414 138.923 60.986C139.17 60.9307 139.407 61.0818 139.461 61.3228L143.158 77.4714C143.213 77.7123 143.062 77.9533 142.821 78.0087C142.788 78.0147 142.754 78.0192 142.721 78.0192Z" fill="#17263B"/>
<path d="M176.692 45.6801C176.073 48.5523 172.994 50.4472 171.596 52.875C170.135 55.3806 169.973 58.9653 167.863 60.8557C165.717 62.7701 162.123 62.5141 159.493 63.6786C156.901 64.8206 154.675 67.6675 151.789 67.9638C149.001 68.2362 146.247 65.9387 143.359 65.3146C140.487 64.6949 137.031 65.6498 134.603 64.2504C132.098 62.7895 131.246 59.2766 129.341 57.1632C127.443 55.0198 124.063 53.7685 122.897 51.1402C121.755 48.5478 123.089 45.2161 122.791 42.3303C122.505 39.5389 120.498 36.5438 121.119 33.6731C121.743 30.7873 124.806 28.8879 126.216 26.4781C127.676 23.9725 127.841 20.3728 129.951 18.4824C132.098 16.5696 135.692 16.824 138.321 15.6595C140.914 14.5175 143.139 11.6707 146.022 11.3878C148.814 11.1019 151.568 13.3994 154.44 14.0191C157.326 14.6432 160.783 13.6883 163.208 15.1012C165.717 16.5486 166.568 20.06 168.459 22.1704C170.371 24.3168 173.751 25.5681 174.916 28.1964C176.058 30.7888 174.721 34.1356 175.017 37.0213C175.294 39.7963 177.315 42.7943 176.692 45.6801Z" fill="#EB3A40"/>
<path d="M165.64 46.4671C169.401 37.2231 164.956 26.6801 155.712 22.9188C146.468 19.1574 135.925 23.6021 132.164 32.8461C128.403 42.0902 132.847 52.6331 142.091 56.3945C151.335 60.1558 161.878 55.7112 165.64 46.4671Z" fill="white"/>
<path d="M148.939 58.197C147.628 58.197 146.307 58.0563 144.994 57.7719C135.014 55.6166 128.648 45.741 130.803 35.7606C132.959 25.7802 142.84 19.4144 152.815 21.5698C162.796 23.7266 169.162 33.6007 167.005 43.5811C165.962 48.4142 163.096 52.5527 158.938 55.2334C155.91 57.1867 152.46 58.197 148.939 58.197ZM148.902 22.0458C140.784 22.0458 133.461 27.699 131.679 35.9492C129.627 45.4476 135.686 54.8443 145.183 56.8963C149.782 57.8887 154.494 57.031 158.453 54.4805C162.41 51.9286 165.137 47.9906 166.131 43.3926C168.183 33.8956 162.126 24.4974 152.627 22.4454C151.379 22.176 150.131 22.0458 148.902 22.0458Z" fill="#17263B"/>
<path d="M154.41 43.6626L154.187 48.8982C154.142 49.9669 152.891 50.5192 152.071 49.8322L148.049 46.466C147.723 46.1936 147.284 46.0978 146.876 46.213L141.822 47.62C140.793 47.9074 139.881 46.8881 140.281 45.8957L142.239 41.0358C142.397 40.6421 142.352 40.1946 142.117 39.8398L139.202 35.4483C138.609 34.5563 139.299 33.3738 140.366 33.4487L145.614 33.8184C146.039 33.8483 146.45 33.6657 146.715 33.3319L149.98 29.2069C150.644 28.3672 151.984 28.656 152.243 29.6963L153.514 34.8017C153.617 35.2148 153.918 35.5516 154.316 35.6998L159.248 37.5288C160.251 37.9015 160.391 39.2636 159.483 39.8309L155.013 42.6268C154.654 42.8498 154.428 43.2375 154.41 43.6626Z" fill="#FEBE05"/>
</svg>
