<svg width="331" height="289" viewBox="0 0 331 289" fill="none" xmlns="http://www.w3.org/2000/svg">
<path d="M36.2218 209.51L31.2882 259.647C31.1817 260.974 32.2321 262.109 33.5662 262.109H35.0712C36.2073 262.109 37.171 261.276 37.3331 260.154L46.1554 209.51H36.2218Z" fill="#B27C60"/>
<path d="M19.6333 199.996L9.93478 253.799C9.70743 255.186 10.7808 256.446 12.1901 256.446H13.6374C14.7041 256.446 15.629 255.71 15.8657 254.672L29.567 199.996H19.6333ZM59.3412 199.996L69.0397 253.799C69.267 255.186 68.1936 256.446 66.7844 256.446H65.3371C64.2703 256.446 63.3455 255.71 63.1088 254.672L49.4075 199.996H59.3412Z" fill="#A56C53"/>
<path d="M92.2964 206.834L101.662 259.483C101.874 260.863 100.803 262.108 99.403 262.108H97.9521C96.8751 262.108 95.9444 261.358 95.7179 260.308L82.3628 206.834H92.2964Z" fill="#B27C60"/>
<path d="M17.6465 202.523C17.6465 202.523 18.5405 209.509 28.5237 210.55C38.5068 211.59 77.6945 211.293 87.8266 208.915C97.9587 206.536 96.1708 199.848 96.1708 199.848L17.6465 202.523Z" fill="#935B47"/>
<path d="M61.9004 125.082C61.9004 125.082 70.8405 124.339 70.8405 131.92C70.8405 139.054 70.8405 174.133 70.8405 174.133C70.8405 174.133 69.4995 179.335 83.5058 182.011C96.5378 184.5 97.214 189.889 96.32 199.104L68.456 188.402L68.4565 131.623C68.4565 131.623 68.6055 125.974 61.9004 125.082Z" fill="white"/>
<path d="M16.0078 131.622V194.496H68.4567V131.622C68.4567 128.01 65.5214 125.082 61.9006 125.082H22.564C18.9432 125.082 16.0078 128.01 16.0078 131.622Z" fill="#C6D1E5"/>
<path d="M16.0073 194.497C16.0073 194.497 15.7093 188.402 29.5665 188.402C43.4238 188.402 68.4557 188.402 68.4557 188.402L96.3197 199.104C96.3197 199.104 98.1077 202.969 86.0385 205.05C73.9693 207.131 51.4787 208.094 46.5528 207.577C40.8908 206.982 16.0073 194.497 16.0073 194.497Z" fill="#C6D1E5"/>
<path d="M35.7875 172.986C35.7875 172.986 37.9403 166.435 49.1042 168.252C58.3805 169.762 99.4621 183.238 105.773 186.24C112.083 189.241 111.91 199.426 100.24 200.781C84.0329 202.663 58.1538 197.988 47.7394 194.689C37.3249 191.39 31.5551 183.376 35.7875 172.986Z" fill="#F6AF9A"/>
<path d="M43.5576 192.986L47.7984 173.119C47.7984 173.119 56.0961 179.45 58.5407 182.235C60.7761 184.781 83.1682 194.932 93.9984 201.236C77.4977 201.546 56.6624 197.606 48.1218 194.901C46.488 194.383 44.972 193.679 43.5576 192.986Z" fill="#EA9A88"/>
<path d="M33.8156 175.14C33.8156 175.14 36.1194 167.248 42.4245 167.341C48.1372 167.424 55.9096 168.792 75.0026 174.701C94.0956 180.61 100.307 183.581 105.501 185.772C109.092 187.287 111.458 192.151 110.493 195.613C109.528 199.075 106.538 201.103 97.8286 201.488C89.1192 201.874 76.0121 200.702 68.189 199.614C60.3659 198.526 50.7494 196.773 43.7658 193.752C36.7822 190.731 31.2951 184.17 33.8156 175.14Z" fill="#B9C1C6"/>
<path d="M46.378 174.49C53.8666 171.181 63.415 173.118 63.415 173.118C63.415 173.118 64.3832 177.026 64.5773 178.087C64.5773 178.087 86.1629 183.674 93.7858 188.324C97.6798 190.7 97.871 195.634 96.4929 201.533C87.8241 201.756 75.6216 200.647 68.1889 199.613C64.0791 199.041 59.4745 198.285 55.0166 197.259C54.2015 195.945 53.4846 194.664 52.8882 193.443C45.6033 178.521 38.8894 177.8 46.378 174.49Z" fill="#A7B2B8"/>
<path d="M110.1 197.326C110.1 197.326 102.262 255.042 101.226 258.849C100.191 262.657 94.2189 263.399 94.1123 257.234C94.0058 251.07 92.9653 238.734 91.874 225.492C90.7828 212.25 92.619 198.687 93.9506 193.526C95.871 186.084 110.501 184.467 110.1 197.326Z" fill="#F6AF9A"/>
<path d="M103.891 185.739C103.891 185.739 111.517 186.953 110.639 197.239C109.76 207.526 104.047 244.467 104.047 244.467C104.047 244.467 96.8348 245.322 92.852 244.246C92.852 244.246 91.1912 223.655 90.7794 217.783C90.0315 207.116 92.0481 197.521 92.9139 192.281C93.7795 187.04 99.9736 184.821 103.891 185.739Z" fill="#B9C1C6"/>
<path d="M94.5155 188.834C94.5155 188.834 99.048 192.025 96.4927 201.534C94.94 207.312 92.4916 213.915 90.8094 218.207C90.7988 218.059 90.7888 217.917 90.7794 217.783C90.0315 207.116 92.0481 197.522 92.9138 192.281C93.137 190.931 93.7147 189.781 94.5155 188.834Z" fill="#A7B2B8"/>
<path d="M99.7288 250.398C99.7288 250.398 102.035 250.765 101.494 255.145C101.123 258.145 105.225 263.043 108.478 265.591C109.517 266.405 110.155 266.919 110.867 267.319C113.807 268.968 115.49 269.957 114.844 271.422C114.199 272.887 106.488 271.188 104.125 270.3C101.762 269.412 99.9576 266.506 95.9344 265.587C91.9112 264.669 90.6994 263.168 90.853 261.395C91.0947 258.606 94.2393 256.284 95.0425 253.034C95.8457 249.784 98.0369 249.783 99.7288 250.398Z" fill="#F6AF9A"/>
<path d="M90.8281 265.423C90.8281 265.423 91.4159 267.326 91.875 268.935C92.334 270.544 92.4726 273.108 92.4726 273.108C92.4726 273.108 93.0829 273.382 93.5115 273.052C93.5115 273.052 93.5226 270.502 93.5693 269.301C93.616 268.099 93.9222 266.189 93.9222 266.189C93.9222 266.189 91.7874 265.025 90.8281 265.423Z" fill="#564756"/>
<path d="M90.7568 263.834C90.7568 263.834 90.7679 265.17 90.8501 265.561C90.9323 265.953 95.3511 266.923 97.1876 267.854C99.0242 268.785 101.857 270.266 102.718 271.259C103.578 272.252 105.712 273.177 107.212 273.393C108.712 273.609 113.955 273.628 117.711 271.815L103.822 269.417L95.0736 264.542L90.7568 263.834Z" fill="#564756"/>
<path d="M108.886 265.872C108.886 265.872 107.532 267.387 105.833 268.072C104.133 268.758 101.155 266.888 99.0955 265.514C97.0366 264.14 93.1828 259.323 92.6721 257.482C92.6721 257.482 90.1933 259.735 90.5966 263.527C90.6599 264.897 93.497 265.667 95.4143 266.257C97.3317 266.846 101.809 269.377 102.667 270.321C103.524 271.265 104.887 273.06 112.802 272.635C115.326 272.499 117.939 271.737 117.939 271.737C117.939 271.737 113.566 268.193 108.886 265.872Z" fill="#F0E9E9"/>
<path d="M62.6531 164.374C62.6531 164.374 63.0742 171.242 62.8576 175.778C62.6411 180.315 60.3688 184.838 56.7791 189.378C53.3684 193.692 46.6283 196.345 39.9153 195.589C33.2022 194.833 24.9646 194.897 23.557 187.552C22.1495 180.207 26.1643 171.391 29.196 167.722C32.2277 164.053 33.2902 163.431 34.4914 159.96C35.6925 156.489 62.3283 150.98 62.6531 164.374Z" fill="#F6AF9A"/>
<path d="M63.0428 163.506C63.0428 163.506 41.1128 164.614 34.1408 160.902C34.1408 160.902 32.0411 163.51 29.9297 165.832C27.8183 168.154 24.2917 173.285 23.2669 180.791C22.2422 188.298 25.8481 192.66 26.8226 194.172C27.7971 195.684 32.1988 197.108 37.0575 197.281C41.6963 197.446 50.1772 196.507 55.212 191.7C60.2468 186.894 62.7913 179.643 63.2785 176.491C63.7658 173.339 63.0428 163.506 63.0428 163.506Z" fill="#B9C1C6"/>
<path d="M31.0425 164.583C32.721 162.665 34.1408 160.902 34.1408 160.902C41.1129 164.614 63.0428 163.506 63.0428 163.506C63.0428 163.506 63.1287 164.674 63.2213 166.333C58.53 167.949 45.973 171.034 31.0425 164.583Z" fill="#A7B2B8"/>
<path d="M24.2275 181.625C24.2275 181.625 26.4834 170.702 37.7027 171.728C48.9221 172.754 82.6913 187.409 88.3575 191.128C94.0237 194.847 94.2575 205.57 80.8784 204.962C67.4993 204.355 55.0196 204.005 32.6466 197.334C32.172 197.192 21.7496 192.723 24.2275 181.625Z" fill="#F6AF9A"/>
<path d="M24.1701 180.119C24.1701 180.119 26.1202 172.48 34.6282 171.428C43.1363 170.377 68.7677 180.707 72.6929 182.127C76.6181 183.548 85.3294 187.55 88.7001 189.682C92.4509 192.055 94.9667 196.608 93.4831 201.182C91.9994 205.756 87.9443 207.235 77.1165 206.599C66.2887 205.963 63.1037 204.627 56.906 203.625C50.7084 202.622 37.1075 199.741 31.799 197.655C26.4904 195.57 21.4388 189.234 24.1701 180.119Z" fill="#B9C1C6"/>
<path d="M29.7095 166.078C29.7844 165.993 29.858 165.91 29.9298 165.831C31.4476 164.161 32.9593 162.345 33.6893 161.455L63.2719 176.531C63.1874 177.065 63.0455 177.712 62.8434 178.443C66.7938 179.874 70.0673 181.141 71.819 181.803L71.9187 183.286C71.9187 183.286 71.1803 184.203 70.4687 183.832C70.4687 183.832 68.6568 185.016 67.2419 183.92C67.2419 183.92 65.4881 184.056 63.9789 182.531C62.4696 181.005 60.0074 179.826 59.2388 179.362C58.4701 178.897 50.4568 175.962 49.4074 175.171C48.4991 174.487 33.6789 167.85 29.7095 166.078ZM77.1166 206.6C66.2888 205.964 63.1038 204.628 56.9061 203.625C51.9512 202.824 42.265 200.822 35.8668 198.985C47.9063 199.643 69.1994 205.504 70.3932 203.283C71.7721 200.718 75.1591 198.058 75.1591 198.058C75.1591 198.058 76.7168 202.383 77.573 206.625C77.4222 206.617 77.2703 206.609 77.1166 206.6Z" fill="#A7B2B8"/>
<path d="M47.9865 190.908C45.2751 188.534 27.074 185.192 25.6636 183.434C24.2894 181.72 25.0264 174.271 25.065 173.891C24.2759 175.898 23.6207 178.199 23.2668 180.791C22.8814 183.614 23.1515 185.992 23.6897 187.941C24.1951 190.421 25.3395 192.515 26.8164 194.163C26.8183 194.166 26.8208 194.169 26.8225 194.172C26.9547 194.377 27.1547 194.58 27.4055 194.779C28.7239 196.075 30.2498 197.048 31.7992 197.657C35.968 199.295 45.2493 201.423 52.0445 202.747C51.8932 197.788 50.698 193.282 47.9865 190.908Z" fill="#A7B2B8"/>
<path d="M92.2331 203.532C92.2331 203.532 69.3954 257.135 67.3887 260.535C65.382 263.935 59.4257 263.077 60.9546 257.103C62.4835 251.13 64.7454 238.957 67.1981 225.898C69.6506 212.839 75.0118 200.241 77.6624 195.614C81.4845 188.941 96.0233 191.236 92.2331 203.532Z" fill="#F6AF9A"/>
<path d="M89.3111 190.724C89.3111 190.724 96.3449 193.904 92.775 203.594C89.205 213.284 73.9161 247.409 73.9161 247.409C73.9161 247.409 66.7335 246.334 63.1768 244.247C63.1768 244.247 67.0255 223.949 68.1827 218.177C70.285 207.691 74.7697 198.969 76.9919 194.142C79.2141 189.315 85.7755 188.807 89.3111 190.724Z" fill="#B9C1C6"/>
<path d="M68.3468 249.836C68.3468 249.836 70.5366 250.647 69.1454 254.837C68.1927 257.706 71.2522 263.311 73.9417 266.445C74.8012 267.447 75.3258 268.075 75.9456 268.606C78.505 270.798 79.9603 272.096 79.0396 273.407C78.1189 274.718 70.8915 271.544 68.7485 270.211C66.6055 268.879 65.4073 265.676 61.6424 263.989C57.8776 262.303 56.9842 260.594 57.483 258.885C58.2678 256.198 61.8075 254.536 63.2336 251.505C64.6596 248.475 66.8084 248.903 68.3468 249.836Z" fill="#F6AF9A"/>
<path d="M56.668 262.829C56.668 262.829 56.8705 264.81 57.0046 266.478C57.1388 268.145 56.771 270.686 56.771 270.686C56.771 270.686 57.3156 271.074 57.8008 270.834C57.8008 270.834 58.3124 268.337 58.5943 267.167C58.8761 265.998 59.5515 264.185 59.5515 264.185C59.5515 264.185 57.6869 262.626 56.668 262.829Z" fill="#564756"/>
<path d="M56.9099 261.258C56.9099 261.258 56.6584 262.57 56.6622 262.97C56.6659 263.37 60.8084 265.185 62.4265 266.457C64.0446 267.728 66.5319 269.734 67.1804 270.876C67.8289 272.019 69.7399 273.342 71.1684 273.848C72.5971 274.353 77.7348 275.396 81.7741 274.353L68.6247 269.287L61.0039 262.796L56.9099 261.258Z" fill="#564756"/>
<path d="M74.2879 266.8C74.2879 266.8 72.6627 268.021 70.8614 268.361C69.0602 268.701 66.5062 266.286 64.7571 264.536C63.008 262.786 60.175 257.309 60.0358 255.404C60.0358 255.404 57.1626 257.129 56.8133 260.926C56.6062 262.282 59.2372 263.591 61.0015 264.544C62.7659 265.498 66.6595 268.855 67.3151 269.948C67.9707 271.041 68.9539 273.068 76.7999 274.198C79.3008 274.558 82.0131 274.322 82.0131 274.322C82.0131 274.322 78.4212 269.991 74.2879 266.8Z" fill="#F0E9E9"/>
<path d="M50.1468 111.607C50.1468 111.607 54.4992 106.75 61.9003 112.616C69.3015 118.483 82.3759 142.381 83.3599 144.861C84.4318 147.563 81.6326 152.565 76.6437 149.538C71.6548 146.511 53.6017 123.721 51.239 121.692C48.8763 119.663 46.9262 115.598 50.1468 111.607Z" fill="#F6AF9A"/>
<path d="M61.9005 110.296C61.9005 110.296 64.68 111.397 66.096 113.593C67.3975 115.611 76.702 130.383 79.9414 136.431C83.1809 142.479 85.9576 147.772 82.4537 150.303C78.9498 152.833 73.9731 148.48 72.6931 147.161C71.4131 145.842 52.8503 124.933 49.8607 121.045C46.871 117.157 47.9842 111.548 51.1702 109.965C54.3563 108.383 60.2826 108.799 61.9005 110.296Z" fill="#FFF3E8"/>
<path d="M64.7176 138.24C65.2854 135.845 65.5392 132.185 64.0966 127.112L62.6936 114.406C62.6936 114.406 64.179 114.978 64.8209 116.033C64.8209 116.033 64.8821 113.54 62.5286 110.588C62.1479 110.395 61.9002 110.296 61.9002 110.296C60.2823 108.799 54.356 108.383 51.17 109.966C49.3361 110.876 48.1956 113.122 48.1221 115.605C49.5409 117.255 51.4161 118.869 53.8712 120.053C53.8712 120.053 53.4305 116.956 55.6342 115.593C55.6342 115.593 62.0401 126.453 62.6936 127.64C63.2593 128.667 64.0263 133.659 63.6233 137.001C63.9919 137.419 64.3576 137.833 64.7176 138.24Z" fill="#FFE7D1"/>
<path d="M55.0649 127.224C60.1013 133.046 67.2098 141.074 70.6847 144.95C71.5188 143.477 74.0538 138.728 74.0368 135.417C74.0165 131.455 70.0245 124.079 68.4561 122.166C66.888 120.254 65.1322 116.033 65.1322 116.033C65.1322 116.033 56.5302 121.54 55.0649 127.224Z" fill="#FFE7D1"/>
<path d="M81.5942 150.014C81.5942 150.014 84.0311 149.018 86.8008 147.223C95.6956 141.458 109.341 131.405 110.408 130.344C111.808 128.953 112.063 123.161 106.355 126.15C100.647 129.139 93.6669 132.027 88.4789 134.386C82.5214 137.095 75.1475 140.778 74.7911 144.603C74.4346 148.429 78.9053 151.728 81.5942 150.014Z" fill="#F6AF9A"/>
<path d="M104.468 134.906C102.044 137.058 98.73 131.834 100.438 129.754C100.465 129.721 105.385 126.976 106.573 123.955C107.346 121.988 107.308 121.016 109.644 119.537C111.632 118.278 112.961 117.421 113.827 117.693C114.744 117.981 113.748 119.114 112.67 119.816C111.502 120.577 109.545 123.04 111.032 123.182C112.215 123.294 116.101 123.064 117.314 122.722C119.293 122.166 124.598 118.355 125.344 120.883C125.344 120.883 126.577 120.86 126.291 122.236C126.291 122.236 127.677 122.915 126.102 124.436C126.102 124.436 126.838 125.327 125.846 126.189C125.175 126.774 122.327 128.689 120.472 129.73C118.617 130.772 111.755 130.624 109.16 131.712C108.332 132.058 105.022 134.414 104.468 134.906Z" fill="#F6AF9A"/>
<path d="M110.496 122.648C110.395 124.092 110.705 125.321 110.02 126.685C111.36 125.725 110.576 123.892 110.496 122.648ZM126.102 124.435C125.423 124.222 124.802 124.709 124.243 125.018C122.502 125.967 120.828 127.104 119.033 127.907C121.053 127.725 122.623 126.126 124.333 125.163C124.842 124.779 125.521 124.365 126.102 124.435ZM126.29 122.236C124.801 122.154 123.565 123.159 122.304 123.801C121.03 124.424 119.828 125.446 118.571 125.921C119.309 125.941 119.999 125.555 120.613 125.179C122.462 124.194 124.23 122.481 126.29 122.236ZM125.344 120.883C122.616 120.885 120.504 123.086 118.105 124.044C120.748 123.763 122.7 121.009 125.344 120.883Z" fill="#E57E73"/>
<path d="M117.938 128.251C115.261 126.941 111.574 125.788 108.831 127.442C111.752 126.261 115.061 127.393 117.938 128.251ZM117.937 123.944C118.381 124.46 118.444 125.165 118.511 125.815C118.95 126.367 118.937 127.16 118.968 127.837C119.199 128.065 119.15 128.441 119.11 128.732C119.083 128.425 119.021 128.088 118.78 127.9C118.654 127.286 118.631 126.496 118.237 125.999C118.039 125.403 118.167 124.617 117.771 124.066C117.668 123.739 117.634 123.365 117.414 123.078C117.682 123.293 117.833 123.621 117.937 123.944Z" fill="#EA9A88"/>
<path d="M103.812 127.438C103.812 127.438 104.21 131.15 107.05 133.023C107.05 133.023 105.857 134.473 103.543 136.432C101.229 138.391 84.2515 150.393 80.7412 151.02C77.2308 151.647 73.198 147.527 74.1897 143.816C75.1814 140.106 78.8168 138.182 80.4039 137.297C81.9909 136.413 100.37 128.73 101.362 128.252C102.353 127.773 103.812 127.438 103.812 127.438Z" fill="#FFF3E8"/>
<path d="M79.9412 136.431C79.9153 136.382 79.8857 136.329 79.8592 136.279C77.7779 137.801 76.6357 140.566 76.6357 140.566C78.0361 139.07 79.5384 137.871 80.4037 137.296C80.2372 136.983 80.1112 136.748 79.9412 136.431Z" fill="#FFE7D1"/>
<path d="M50.1871 95.2662C50.1871 95.2662 50.388 104.906 44.8248 110.631C44.1775 111.299 49.6044 115.273 54.1708 114.751C58.7372 114.229 60.663 112.332 60.8161 109.843C60.9693 107.354 60.726 104.588 61.8411 100.058C62.9562 95.5277 60.79 91.7109 56.8313 90.7944C52.1372 89.7075 50.3631 93.1208 50.1871 95.2662Z" fill="#F6AF9A"/>
<path d="M50.6655 96.0095C50.8576 93.8661 52.1509 89.7106 56.8316 90.7943C60.7903 91.7109 62.9565 95.5277 61.8414 100.058C61.0729 103.179 61.0178 105.99 60.8808 108.055C51.5722 105.687 52.8817 101.529 50.6655 96.0095Z" fill="#EA9A88"/>
<path d="M60.2268 108.758C60.2268 108.758 62.8384 111.091 64.2065 114.516C65.5522 117.885 68.1619 124.038 70.1348 128.399C72.1078 132.76 73.2401 140.202 67.6825 143.603C67.205 144.219 66.9949 145.433 66.6425 147.357C66.2902 149.282 65.6065 151.848 64.7071 153.248C64.6314 154.325 62.7242 158.475 62.4214 162.785C62.1185 167.095 35.8417 166.929 34.1888 159.559C34.2645 158.481 36.0094 153.731 35.0823 146.845C34.1553 139.959 32.7427 127.625 33.6063 121.513C34.47 115.402 41.1734 110.378 45.0959 108.891C49.0183 107.404 54.4453 106.08 60.2268 108.758Z" fill="#F6AF9A"/>
<path d="M72.3273 133.153C70.4508 125.713 69.0015 123.506 66.9612 118.934C64.2948 112.958 62.5268 110.326 60.8361 109.285C60.8361 109.285 62.4876 111.881 61.9001 113.988L62.919 125.991L56.2291 114.798C47.1533 110.907 46.6338 108.348 46.6338 108.348L37.8934 110.562C37.8934 110.562 35.1572 113.435 34.3101 115.439C34.3101 115.439 30.9608 123.839 33.148 137.865C35.3353 151.892 34.0837 153.758 33.4728 155.502C32.8618 157.245 29.8942 160.158 32.3603 162.1C34.8263 164.042 53.1359 168.3 62.1295 165.085C64.5657 164.352 64.4287 163.51 64.9078 159.485C65.3869 155.46 68.0041 148.334 68.2426 144.94C68.2426 144.94 74.2038 140.593 72.3273 133.153Z" fill="#FFF3E8"/>
<path d="M60.836 145.403C60.7553 146.196 57.8741 162.853 57.3149 166.083C57.9707 166.018 58.6059 165.931 59.2205 165.825C59.7087 162.09 61.769 146.45 62.1571 145.403C62.5978 144.215 63.9489 141.093 64.5955 138.719C65.2422 136.345 65.6389 132.536 64.0963 127.112L62.6933 114.405C62.6933 114.405 64.1788 114.977 64.8206 116.032C64.8206 116.032 64.8445 114.912 64.1565 113.288C62.9024 111.124 61.8545 109.912 60.836 109.285C60.836 109.285 62.4875 111.881 61.8999 113.988L62.919 125.991L56.2291 114.798C47.1532 110.907 46.6338 108.348 46.6338 108.348L44.3188 108.934C44.9484 110.84 47.4047 116.933 53.871 120.053C53.871 120.053 53.4303 116.955 55.634 115.593C55.634 115.593 62.0398 126.452 62.6934 127.639C63.3471 128.826 64.2726 135.311 63.3471 138.422C62.4214 141.533 60.9255 144.526 60.836 145.403Z" fill="#FFE7D1"/>
<path d="M44.772 134.809C42.4341 140.276 43.8375 144.773 42.1032 146.799C39.572 149.757 39.1502 153.692 40.8691 155.338C44.4974 158.813 49.6051 165.415 64.577 162.205C64.3004 163.977 63.8767 164.56 62.1295 165.085C53.1358 168.3 34.8264 164.042 32.3603 162.1C29.8942 160.158 32.8618 157.246 33.4728 155.502C34.0838 153.758 35.3352 151.892 33.148 137.865C31.9736 130.334 32.4782 124.949 33.1971 121.575C41.7279 120.282 46.3745 120.053 46.3745 120.053C46.3745 120.053 47.1099 129.342 44.772 134.809ZM68.2361 144.921C67.0301 145.256 65.7322 145.251 64.5956 145.802C65.6157 146.145 67.3565 145.361 68.2361 144.921Z" fill="#FFE7D1"/>
<path d="M58.3231 145.383C58.3231 145.383 51.921 148.834 44.0166 143.814C44.0166 143.814 51.9337 146.561 58.3231 145.383Z" fill="#FFE7D1"/>
<path d="M47.5856 106.697C47.5856 106.697 45.3368 107.209 44.1416 108.787C44.1416 108.787 48.7148 116.515 53.4526 118.801C53.4526 118.801 53.1219 115.981 56.2291 114.797C56.2291 114.797 49.3117 110.44 48.2327 109.204C47.1537 107.969 47.5856 106.697 47.5856 106.697ZM61.9 113.987C61.9 113.987 63.347 113.327 64.5508 115.18C64.5508 115.18 63.9335 112.672 62.5279 110.586C62.5279 110.586 61.7814 109.49 60.8563 108.957L60.8361 109.284C60.8361 109.284 62.216 111.371 61.9 113.987Z" fill="#FFF3E8"/>
<path d="M40.587 111.957C40.587 111.957 49.1487 113.586 45.4514 125.963C41.7541 138.34 30.4655 158.859 25.7439 159.685C20.491 160.603 20.3561 156.152 21.7389 151.498C23.1217 146.843 30.6796 120.153 32.1222 117.822C33.5648 115.49 35.8893 111.26 40.587 111.957Z" fill="#F6AF9A"/>
<path d="M38.6205 110.418C38.6205 110.418 35.3609 110.496 32.655 115.785C29.9491 121.074 20.4408 151.117 20.2424 154.745C20.0441 158.372 21.7241 160.462 24.2889 160.901C26.8536 161.34 29.9609 159.198 32.4731 155.835C34.9853 152.471 41.3451 137.731 44.7722 129.75C48.7366 120.517 48.2067 110.352 38.6205 110.418Z" fill="#FFF3E8"/>
<path d="M22.0538 152.848C22.0538 152.848 23.5643 150.454 27.6252 151.508C30.6516 152.294 38.6535 156.543 43.9552 161.135C49.2568 165.727 55.6727 170.051 57.8665 171.951C60.0603 173.851 58.1498 176.93 53.6431 175.33C49.1364 173.729 25.5302 162.001 23.1994 160.206C20.8685 158.412 20.2241 155.614 22.0538 152.848Z" fill="#F6AF9A"/>
<path d="M55.7014 170.392C55.7014 170.392 59.8656 171.511 62.8854 172.06C65.9054 172.609 67.1385 173.145 69.5468 175.713C71.9553 178.28 73.7808 180.967 73.6086 181.608C73.4363 182.249 71.6893 181.575 71.6893 181.575C71.6893 181.575 72.3773 182.858 71.9182 183.285C71.4592 183.712 69.7469 182.518 69.7469 182.518C69.7469 182.518 70.0757 183.479 69.4412 183.79C68.8067 184.101 67.2304 182.538 67.2304 182.538C67.2304 182.538 67.1994 183.249 66.6411 183.192C65.9071 183.116 64.8539 182.013 63.8085 180.978C62.7632 179.943 61.8308 178.8 60.5288 178.521C59.2269 178.241 54.5669 176.195 52.9502 174.986C50.0867 172.845 50.6559 168.27 55.7014 170.392Z" fill="#F6AF9A"/>
<path d="M71.6894 181.575C69.8576 179.371 68.5241 176.22 65.6987 175.17C68.1901 176.689 69.8144 179.509 71.6894 181.575ZM69.7471 182.517C67.8789 180.234 66.3637 177.203 63.4148 176.212C63.4148 176.212 65.7118 177.725 66.8187 179.049C67.9257 180.374 69.2456 181.994 69.7471 182.517ZM67.2306 182.537C65.7743 180.485 64.4427 177.979 61.9028 177.166C64.1123 178.444 65.7142 180.605 67.2306 182.537Z" fill="#E57E73"/>
<path d="M50.8141 174.152C50.8141 174.152 50.657 169.703 54.2902 169.222C54.2902 169.222 53.4638 167.771 51.5135 166.25C50.4844 165.448 41.1441 158.003 38.5556 155.836C33.0682 151.241 25.8952 148.858 22.5566 151.241C19.218 153.625 20.448 158.234 21.7833 159.672C23.1185 161.11 35.483 168.061 39.2829 169.845C45.3982 172.717 50.8141 174.152 50.8141 174.152Z" fill="#FFF3E8"/>
<path d="M54.7468 69.8564C54.7468 69.8564 42.8035 70.9438 43.8285 85.0502C44.8132 98.6009 56.8309 109.086 66.4621 105.713C69.5114 104.442 71.1795 97.2674 70.7165 86.6432C70.2535 76.019 65.2871 68.9188 54.7468 69.8564Z" fill="#F6AF9A"/>
<path d="M63.186 94.9001C63.186 94.9001 62.6373 93.9127 60.1415 94.1726C58.1126 94.3839 56.6091 94.8175 56.7327 96.0792C56.7346 97.7304 64.4683 97.3373 63.186 94.9001ZM70.6923 93.3105C70.7039 94.3555 70.6323 95.164 70.4367 96.2684C69.0299 96.1557 67.5857 95.7623 67.585 95.1739C67.4705 94.0049 68.8897 93.5396 70.6923 93.3105Z" fill="#EA9A88"/>
<path d="M60.2304 91.3311C60.2919 92.0639 60.7886 92.6207 61.3398 92.5746C61.8909 92.5286 62.2879 91.8972 62.2264 91.1643C62.1649 90.4315 61.6682 89.8748 61.117 89.9208C60.5658 89.9669 60.1689 90.5983 60.2304 91.3311ZM67.282 90.5659C67.3413 91.2717 67.8197 91.8079 68.3505 91.7636C68.8814 91.7193 69.2636 91.1111 69.2044 90.4053C69.1451 89.6996 68.6667 89.1633 68.1359 89.2076C67.6051 89.252 67.2228 89.8601 67.282 90.5659Z" fill="#192B4F"/>
<path d="M65.2835 96.6845C65.6898 96.6626 66.4246 96.5898 66.8377 96.3459C67.3975 96.0155 67.1593 95.5176 66.8833 94.9412L66.8486 94.8687C65.1863 91.3872 65.27 89.8564 65.271 89.8414C65.2829 89.6678 65.1524 89.5161 64.9787 89.5029C64.8042 89.4899 64.6529 89.6178 64.6384 89.7911C64.6329 89.8579 64.5223 91.4684 66.2757 95.1408L66.3106 95.2139C66.4179 95.4381 66.5388 95.6908 66.5431 95.7818C66.5374 95.7864 66.5283 95.7929 66.5147 95.8009C66.2045 95.984 65.4208 96.0572 65.0003 96.0605C64.8265 96.0622 64.6842 96.2046 64.6855 96.3794C64.6867 96.5541 64.8297 96.6948 65.005 96.6936C65.0384 96.6935 65.1406 96.6921 65.2835 96.6845Z" fill="#E57E73"/>
<path d="M62.709 87.2758C62.709 87.2758 63.1745 87.2198 63.1963 87.5296C63.218 87.8395 63.1824 88.5292 62.9877 88.6236C62.793 88.7182 60.3813 88.767 59.4506 88.8357C58.5199 88.9043 57.0456 89.2188 56.9673 89.1155C56.889 89.0121 57.4378 88.4066 58.4802 88.0639C59.3659 87.7727 61.4748 87.2593 62.709 87.2758ZM70.5446 87.7232C70.5446 87.7232 70.9952 87.7175 71.0082 87.4367C71.025 87.0765 69.5203 86.5982 66.975 86.8841C66.2326 87.0047 66.3588 87.8825 66.5704 88.278C66.7658 88.6431 67.8176 87.8626 70.5446 87.7232Z" fill="#A34545"/>
<path d="M66.19 100.637C65.3932 100.703 64.8262 101.02 64.7952 101.038C64.6431 101.124 64.5901 101.318 64.6771 101.469C64.7639 101.621 64.9573 101.674 65.1093 101.588C65.1242 101.579 65.9401 101.132 66.9116 101.294C67.0841 101.322 67.2479 101.206 67.2767 101.033C67.3054 100.861 67.1886 100.698 67.0157 100.669C66.7235 100.621 66.445 100.616 66.19 100.637Z" fill="#EA9A88"/>
<path d="M62.3179 99.0709C66.6266 101.745 68.3537 98.9742 68.7977 98.014C68.8579 97.884 68.748 97.7397 68.6062 97.7621L62.3842 98.7409C62.2192 98.7668 62.1762 98.9829 62.3179 99.0709Z" fill="white"/>
<path d="M41.2239 90.9193C41.2239 90.9193 38.4712 90.4902 38.1409 93.9494C37.995 95.4783 37.1137 95.2688 37.3637 96.7726C37.6138 98.2763 37.6799 97.9356 37.9961 99.0986C38.3123 100.262 38.3939 101.774 39.7645 102.122C41.1351 102.47 41.5039 103.04 42.4578 103.495C43.4117 103.949 44.8394 103.789 45.4065 103.337C45.9736 102.885 46.7636 103.317 47.2056 102.171C47.2056 102.171 45.263 92.5975 41.2239 90.9193Z" fill="#B54C4C"/>
<path d="M42.5704 97.7636C41.0359 96.6561 40.6488 93.9075 40.9104 90.9258L42.5704 97.7636Z" fill="#A34545"/>
<path d="M64.0312 76.213C64.0312 76.213 68.1449 78.8579 69.2919 81.3249C70.4388 83.792 70.217 87.5125 70.4852 89.3523C70.7534 91.1923 71.0643 91.9456 71.4583 93.1409C71.8524 94.3362 71.6313 94.938 71.2119 96.562C70.7925 98.1859 71.482 100.003 72.7819 100.608C72.7819 100.608 71.4231 98.9106 72.0997 97.3572C72.7764 95.8037 73.5555 94.5819 73.0708 93.4279C72.5861 92.2738 71.4844 90.6472 72.1475 88.8417C72.8106 87.0361 73.0423 80.3651 70.8553 75.8467C68.6683 71.3283 61.5171 68.762 58.1607 69.195C58.1607 69.195 50.6562 67.9119 46.3016 71.7699C41.9471 75.6279 40.4407 80.5973 40.603 86.7415C40.7653 92.8857 41.9153 97.796 43.8766 100.288C45.5125 102.367 48.9177 103.438 48.9882 103.182C49.0589 102.925 50.0615 101.526 50.8055 97.7947C51.4338 94.6426 51.0302 90.8645 51.5221 90.5853C52.014 90.306 53.5504 93.3796 53.4317 94.3131C53.3131 95.2466 52.3973 97.0658 53.2235 98.2857C54.0497 99.5056 55.3362 99.858 55.0898 101.557C54.8435 103.256 54.7837 105.282 55.8173 105.648C55.8173 105.648 55.3281 104.41 55.8589 103.286C56.3897 102.161 56.6497 100.715 56.0989 99.9014C55.548 99.0881 53.3376 97.2682 54.0369 96.1349C54.7362 95.0017 55.7428 94.8634 55.864 92.4126C55.9853 89.9618 55.2026 87.9809 55.5649 86.8658C55.9272 85.7506 57.2162 84.5858 59.366 83.7118C61.5157 82.838 63.0466 79.8901 64.0312 76.213Z" fill="#B54C4C"/>
<path d="M64.0309 76.2132C63.6546 73.0439 61.3584 69.9411 58.1605 69.1953C61.0213 70.611 62.9474 73.274 64.0309 76.2132ZM61.8885 75.6538C57.9883 77.427 58.7926 79.3321 56.6799 82.2175C55.9717 83.3114 54.7356 83.6393 53.6662 84.2304C52.3163 85.1708 51.4607 86.8684 51.5978 88.5119C51.6802 87.1218 52.4097 85.7538 53.4773 84.8795C54.7555 83.9594 56.0691 84.0094 57.0789 82.5277C59.2243 79.5913 58.1983 77.9242 61.8885 75.6538ZM59.2704 74.1087C57.0998 74.6 54.9909 75.8071 53.9033 77.809C51.9044 80.6918 48.542 83.6028 49.1754 87.4619C49.0571 83.6384 52.3645 81.036 54.3014 78.0726C55.2965 76.0991 57.2535 74.8799 59.2704 74.1087Z" fill="#A34545"/>
<path d="M59.1301 71.5027C55.3963 71.2569 51.3758 72.3285 48.8957 75.2748C47.6704 76.6119 46.6345 78.167 46.0762 79.9014C45.8293 80.7044 45.669 81.5561 45.716 82.3982C45.7563 82.8746 45.7769 83.4587 45.7505 83.9371C45.65 86.5828 45.1745 89.355 46.0368 91.9282C45.2495 88.7574 46.3593 85.475 46.1677 82.2731C46.2386 79.1446 48.2801 76.4145 50.4919 74.3508C52.8439 72.3098 56.0812 71.6032 59.1301 71.5027Z" fill="#A34545"/>
<path d="M49.3647 89.726C49.3647 89.726 47.8761 90.1156 48.2707 92.4941C48.6496 94.7789 50.4946 97.1591 52.0766 96.4368C52.5744 96.1735 52.6745 94.0978 52.4298 92.3016C52.1852 90.5053 51.1393 89.4029 49.3647 89.726Z" fill="#F6AF9A"/>
<path d="M51.5023 94.7854C51.6165 91.5834 49.875 90.9909 49.8007 90.9673C49.711 90.9383 49.6163 90.9878 49.5871 91.0767C49.5581 91.1657 49.6069 91.2615 49.6959 91.2911C49.7459 91.3077 50.6738 91.6367 51.0294 93.1714C50.464 92.7084 49.7031 92.7448 49.6619 92.7474C49.568 92.7528 49.4964 92.8331 49.5017 92.9267C49.5069 93.0205 49.5878 93.0924 49.6815 93.087C49.7253 93.0847 50.7485 93.0394 51.1367 93.8496C51.1631 94.1278 51.1734 94.4338 51.1613 94.7734C51.1583 94.8593 51.2195 94.9325 51.3021 94.947C51.3098 94.9484 51.3177 94.9492 51.3257 94.9495C51.4199 94.9528 51.499 94.8793 51.5023 94.7854Z" fill="#E57E73"/>
<path d="M22.5637 125.082C22.5637 125.082 18.0936 126.123 18.0936 137.716C18.0936 149.31 18.0936 179.632 18.0936 179.632C18.0936 179.632 16.3887 186.516 32.8739 188.451C49.7617 190.433 50.5416 194.362 50.5416 207.74C50.5416 207.74 43.424 208.617 36.7189 207.874C30.0137 207.13 15.5605 206.982 14.0705 195.537C12.5805 184.091 14.3685 168.187 14.0705 158.674C13.8559 151.823 13.9505 137.415 14.0201 129.89C14.0448 127.227 16.2157 125.082 18.8853 125.082L22.5637 125.082Z" fill="#E4E8F2"/>
<path d="M292.227 207.049L296.855 259.44C296.958 260.727 295.939 261.829 294.644 261.829H293.184C292.081 261.829 291.146 261.021 290.989 259.932L282.587 207.049L292.227 207.049Z" fill="#B27C60"/>
<path d="M308.325 197.818L317.737 250.029C317.957 251.376 316.916 252.598 315.548 252.598H314.143C313.108 252.598 312.211 251.884 311.981 250.877L298.685 197.818H308.325ZM264.995 197.818L255.583 250.029C255.363 251.376 256.404 252.598 257.772 252.598H259.176C260.212 252.598 261.109 251.884 261.339 250.877L274.635 197.818H264.995Z" fill="#A56C53"/>
<path d="M237.811 204.453L228.563 259.281C228.357 260.621 229.396 261.829 230.755 261.829H232.163C233.208 261.829 234.111 261.102 234.331 260.082L247.451 204.453H237.811Z" fill="#B27C60"/>
<path d="M310.253 200.272C310.253 200.272 309.385 207.051 299.697 208.061C290.01 209.071 251.981 208.782 242.149 206.474C232.317 204.167 234.052 197.676 234.052 197.676L310.253 200.272Z" fill="#935B47"/>
<path d="M267.308 125.121C267.308 125.121 258.632 124.4 258.632 131.756C258.632 138.68 258.632 172.72 258.632 172.72C258.632 172.72 259.934 177.769 246.342 180.365C233.695 182.781 233.039 188.01 233.907 196.953L260.947 186.567L260.946 131.468C260.946 131.468 260.801 125.986 267.308 125.121Z" fill="white"/>
<path d="M311.843 131.468V192.481H260.946V131.468C260.946 127.963 263.795 125.121 267.308 125.121H305.481C308.995 125.121 311.843 127.963 311.843 131.468Z" fill="#C6D1E5"/>
<path d="M311.843 192.482C311.843 192.482 312.132 186.568 298.685 186.568C285.238 186.568 260.947 186.568 260.947 186.568L233.907 196.954C233.907 196.954 232.172 200.704 243.884 202.723C255.596 204.743 277.421 205.677 282.201 205.175C287.696 204.598 311.843 192.482 311.843 192.482Z" fill="#E4E8F2"/>
<path d="M248.935 140.001C248.935 140.001 250.973 152.277 250.661 158.801C250.349 165.326 245.616 184.808 245.616 184.808L268.86 188.363L263.924 137.891L248.935 140.001Z" fill="#E26E5F"/>
<path d="M287.775 183.591C287.775 183.591 286.818 169.316 267.542 169.411C249.494 169.499 223.671 169.681 216.294 175.609C214.065 177.205 209.772 187.087 219.376 190.716C228.979 194.344 244.426 197.798 253.418 199.199C262.41 200.6 288.782 203.478 287.775 183.591Z" fill="#9E5959"/>
<path d="M288.245 185.066C288.245 185.066 288.82 174.726 278.312 170.777C275.864 169.844 270.178 168.91 259.237 169.054C248.296 169.197 232.605 169.915 224.256 172.069C215.906 174.223 212.739 176.414 213.099 183.809C213.387 190.343 222.384 192.318 225.335 193.179C225.335 193.179 248.009 200.647 265.499 200.575C282.99 200.503 288.245 194.256 288.245 185.066Z" fill="#69948A"/>
<path d="M218.43 190.73C221.03 192.075 223.899 192.76 225.335 193.179C225.335 193.179 248.009 200.647 265.499 200.575C272.981 200.544 278.218 199.381 281.768 197.343C278.553 188.627 273.168 179.135 268.86 175.35C262.954 170.162 257.238 170.07 257.238 170.07C257.238 170.07 256.36 172.765 255.073 173.53C253.787 174.295 231.824 179.307 224.999 182.649C221.178 184.52 219.332 187.576 218.43 190.73Z" fill="#558579"/>
<path d="M228.732 194.223L230.435 184.031C230.435 184.031 234.144 187.148 235.808 196.157C232.963 195.436 230.533 194.753 228.732 194.223Z" fill="#2E4763"/>
<path d="M231.214 257.012V262.778C231.214 262.84 231.178 262.895 231.122 262.921C230.714 263.111 228.898 263.813 224.855 263.522V258.52L231.214 257.012Z" fill="#E5B8B7"/>
<path d="M224.855 263.522L222.413 262.452C222.337 262.418 222.288 262.343 222.288 262.261V258.52H224.855L224.855 263.522Z" fill="#D69D9D"/>
<path d="M231.142 253.66C231.142 253.66 230.782 252.81 227.999 253.959C225.215 255.108 214.731 258.542 211.66 259.548C208.588 260.553 203.718 259.835 201.463 259.5C199.207 259.165 196.904 258.925 197 259.548C197 259.548 197.816 260.936 201.655 261.462C205.493 261.989 210.508 262.659 216.458 259.931C222.408 257.202 231.43 256.963 231.142 253.66Z" fill="#E5B8B7"/>
<path d="M231.141 253.66C231.141 253.66 231.708 254.508 231.577 256.427C231.555 256.75 231.336 257.025 231.028 257.124C229.749 257.532 226.223 258.858 222.264 259.644C218.161 260.457 215.365 261.924 213.955 262.628C213.422 262.895 212.844 263.053 212.25 263.098C209.54 263.304 204.162 263.822 197.807 262.114C197.386 262.001 197.08 261.64 197.029 261.208C196.986 260.835 196.96 260.297 197 259.548C197 259.548 201.966 261.893 208.396 261.271C214.826 260.649 215.81 258.997 223.392 257.226C230.967 255.7 231.075 254.444 231.141 253.66Z" fill="#F7D5D3"/>
<path d="M229.343 238.701C229.343 238.701 228.743 241.573 229.175 244.517C229.711 248.17 231.994 252.164 229.654 254.533C227.473 256.742 223.488 256.077 218.306 258.087C213.124 260.098 212.26 261.677 203.814 261.366C200.215 260.935 198.052 260.909 198.176 258.255C198.272 256.196 200.695 255.095 203.046 254.76C205.157 254.46 207.893 253.157 212.596 249.71C217.856 245.855 219.602 244.636 219.506 242.291C219.435 240.555 219.314 238.772 219.242 237.145C219.148 235.026 220.945 233.064 224.472 232.921C227.804 232.785 229.846 234.787 229.343 238.701Z" fill="#9E5959"/>
<path d="M214.179 260.457C214.179 260.457 211.953 259.021 211.12 257.621C209.835 255.463 208.794 253.505 207.996 252.76C207.9 252.67 207.763 252.643 207.639 252.686C206.852 252.964 205.761 254.005 202.266 254.749C198.56 255.539 197.048 256.526 197 259.548C197 259.548 204.246 264.478 214.179 260.457Z" fill="#F7D5D3"/>
<path d="M229.378 245.463C229.489 245.583 230.046 246.152 229.868 247.197C229.859 247.254 229.83 247.306 229.788 247.347C229.389 247.731 227.179 249.878 224.64 252.703C222.779 254.773 220.501 256.365 220.609 258.591C220.609 258.591 217.154 259.668 216.146 260.134C216.146 260.134 213.339 261.068 212.835 261.14L211.912 259.273C211.912 259.273 216.338 258.662 220.969 253.636C225.756 248.44 229.032 245.71 229.334 245.461C229.348 245.45 229.366 245.451 229.378 245.463Z" fill="#F7D5D3"/>
<path d="M220.086 174.231C215.647 174.702 212.983 178.751 213.171 183.201C213.452 189.842 213.711 198.329 216.646 219.992C220.585 249.073 221.523 246.423 224.859 247.066C228.959 247.857 228.971 239.899 230.145 232.288C231.198 225.458 233.908 210.077 233.469 200.002C232.965 188.442 229.164 174.634 222.266 174.19C221.49 174.14 220.764 174.159 220.086 174.231Z" fill="#9E5959"/>
<path d="M221.809 173.578C221.809 173.578 227.855 173.722 230.59 182.625C233.325 191.529 233.757 195.55 234.405 211.275C234.958 224.701 232.577 237.631 231.869 241.124C231.751 241.707 231.309 242.17 230.73 242.317C229.359 242.666 226.595 243.203 223.087 243.014C219.533 242.822 216.195 242.274 214.727 242.007C214.295 241.928 213.984 241.549 213.994 241.11C214.011 240.426 214.01 239.119 213.944 236.625C213.558 221.981 212.744 218.822 212.405 208.91C212.081 199.432 208.349 176.486 218.642 173.794C220.243 173.381 221.809 173.578 221.809 173.578Z" fill="#69948A"/>
<path d="M217.557 197.818C217.469 202.522 228.488 232.419 229.634 236.904C230.168 238.997 230.494 240.892 230.691 242.325C230.703 242.323 230.719 242.319 230.73 242.316C231.309 242.169 231.751 241.706 231.869 241.123C232.577 237.629 234.958 224.7 234.404 211.274C233.757 195.549 233.325 191.528 230.59 182.624C230.38 181.942 230.149 181.316 229.904 180.732C227.924 181.402 226.218 182.052 224.999 182.649C218.174 185.99 217.645 193.115 217.557 197.818Z" fill="#558579"/>
<path d="M298.411 145.782C298.411 145.782 298.926 158.229 300.986 166.621C303.656 177.497 305.284 195.093 285.509 199.57C270.479 202.973 259.607 191.244 257.822 177C257.108 172.014 255.423 163.588 255.099 157.03C254.693 148.813 259.133 139.359 264.868 134.705C275.725 125.895 297.152 125 298.411 145.782Z" fill="#69948A"/>
<path d="M276.102 171.108C276.558 179.738 266.238 183.792 260.066 185.438C258.955 182.81 258.192 179.96 257.821 177.001C257.675 175.976 257.487 174.806 257.278 173.537C269.224 170.449 276.102 171.108 276.102 171.108Z" fill="#558579"/>
<path d="M294.608 196.034C300.962 191.005 301.714 181.805 295.88 176.183C292.694 173.113 287.578 170.301 279.76 171.069C263.792 172.639 258.384 174.763 246.11 179.205C237.243 182.415 235.448 182.862 229.47 185.969C223.492 189.076 222.693 194.939 223.964 198.139C225.234 201.339 228.606 205.785 239.078 205.785C248.712 205.785 255.847 205.792 265.481 204.611C272.004 203.811 286.469 202.476 294.608 196.034Z" fill="#9E5959"/>
<path d="M300.293 182.738C300.293 182.738 296.946 170.676 283.667 170.353C283.667 170.353 272.331 170.03 254.841 175.63C254.841 175.63 226.555 183.061 223.748 191.462C221.25 198.937 223.64 204.709 238.323 206.432C253.444 208.206 277.685 206.309 288.309 200.508C295.361 196.658 302.236 191.57 300.293 182.738Z" fill="#69948A"/>
<path d="M254.315 207.016C251.511 207.095 248.754 207.089 246.122 206.998L241.675 191.6C247.183 194.852 252.498 203.615 254.315 207.016Z" fill="#558579"/>
<path d="M267.179 266.562V272.264C267.179 272.367 267.117 272.46 267.022 272.501C266.508 272.724 264.677 273.35 260.821 273.073V268.07L267.179 266.562Z" fill="#E5B8B7"/>
<path d="M260.821 273.073L258.409 272.016C258.315 271.974 258.254 271.881 258.254 271.779V268.07H260.821V273.073Z" fill="#D69D9D"/>
<path d="M267.107 263.212C267.107 263.212 266.579 262.638 263.796 263.786C261.013 264.935 250.696 268.095 247.625 269.1C244.554 270.105 238.268 269.387 236.012 269.052C233.757 268.717 231.454 268.477 231.55 269.1C231.55 269.1 232.365 270.488 236.204 271.015C240.043 271.541 246.473 272.211 252.423 269.483C258.374 266.754 267.395 266.515 267.107 263.212Z" fill="#E5B8B7"/>
<path d="M267.107 263.211C267.107 263.211 267.673 264.059 267.543 265.978C267.521 266.301 267.302 266.576 266.993 266.675C265.715 267.083 262.141 268.2 258.229 269.195C254.34 270.183 251.33 271.474 249.92 272.179C249.388 272.445 248.809 272.604 248.215 272.649C245.505 272.855 238.712 273.373 232.357 271.665C231.936 271.552 231.63 271.191 231.579 270.759C231.535 270.385 231.51 269.847 231.549 269.099C231.549 269.099 237.931 271.444 244.361 270.822C250.792 270.2 252.807 268.297 260.389 266.526C264.671 265.628 266.579 264.551 267.107 263.211Z" fill="#F7D5D3"/>
<path d="M261.684 248.826C261.684 248.826 262.239 251.044 263.34 253.565C264.818 256.951 267.155 262.397 264.851 264.479C262.548 266.562 259.765 265.7 254.582 267.71C249.4 269.721 246.641 271.348 239.371 270.918C235.772 270.487 232.663 270.462 232.605 267.806C232.557 265.604 235.148 264.838 237.5 264.503C239.61 264.203 243.474 263.761 247.865 259.525C252.255 255.289 253.623 254.355 253.407 252.632C253.191 250.909 252.327 250.262 251.895 248.826C251.463 247.39 252.543 244.734 255.782 243.944C259.021 243.154 260.389 245.165 261.684 248.826Z" fill="#9E5959"/>
<path d="M249.592 270.152C249.592 270.152 247.721 268.716 246.953 267.28C246.229 265.927 244.781 263.297 243.934 262.478C243.845 262.392 243.718 262.36 243.599 262.394C242.68 262.659 240.686 263.75 237.404 264.24C234.672 264.648 231.214 265.605 231.55 269.099C231.55 269.099 239.659 274.173 249.592 270.152Z" fill="#F7D5D3"/>
<path d="M264.136 254.986C264.376 255.17 264.997 255.691 264.907 256.814C264.899 256.927 264.858 257.035 264.792 257.128C264.424 257.644 262.998 259.591 260.605 262.254C258.744 264.324 256.466 265.916 256.574 268.142C256.574 268.142 253.119 269.219 252.111 269.685C252.111 269.685 249.304 270.619 248.8 270.691L247.361 268.321C247.361 268.321 252.363 267.747 256.934 263.187C261.646 258.487 263.619 255.567 263.976 255.014C264.011 254.96 264.085 254.946 264.136 254.986Z" fill="#F7D5D3"/>
<path d="M224.611 200.186C224.611 200.186 230.542 212.926 237.135 224.095C242.857 233.788 251.752 249.133 254.679 254.164C257.605 259.195 260.243 256.731 261.202 255.743C262.162 254.755 262.937 252.25 261.384 247.104C259.832 241.958 257.662 232.879 255.057 224.526C252.034 214.833 247.244 197.633 239.687 190.094C230.726 181.155 220.509 190.493 224.611 200.186Z" fill="#9E5959"/>
<path d="M228.359 186.646C228.359 186.646 233.541 184.061 239.275 187.963C244.616 191.596 249.256 199.738 253.287 209.073C257.318 218.407 262.49 242.148 262.49 242.148C262.49 242.148 259.333 245.083 256.825 246.002C246.652 249.727 243.175 248.442 243.175 248.442C243.175 248.442 241.18 246.196 239.827 243.818C236.209 237.459 228.701 219.346 225.534 211.448C222.367 203.549 221.521 196.842 223.608 191.888C225.408 187.436 228.359 186.646 228.359 186.646Z" fill="#69948A"/>
<path d="M266.954 102.502C266.954 102.502 259.876 104.866 248.575 116.857C237.275 128.848 231.907 131.332 228.997 135.525C226.406 139.259 229.926 143.181 232.812 142.921C236.267 142.61 247.783 135.813 256.853 128.202C265.922 120.591 273.408 113.698 272.688 107.666C271.968 101.635 266.954 102.502 266.954 102.502Z" fill="#9E5959"/>
<path d="M271.028 103.115C271.028 103.115 268.508 101.16 264.21 103.115C259.913 105.069 252.675 111.352 247.712 116.384C242.748 121.417 229.766 132.438 228.444 135.142C227.122 137.846 227.587 140.458 229.404 142.252C231.221 144.045 234.432 143.426 237.388 142.252C240.344 141.077 256.541 130.393 263.814 123.139C271.086 115.884 273.399 110.7 273.455 108.628C273.511 106.556 272.08 103.639 271.028 103.115Z" fill="#E26E5F"/>
<path d="M263.813 123.141C267.836 119.128 270.336 115.753 271.781 113.184C264.293 111.341 255.847 112.132 255.847 112.132C255.847 112.132 251.035 117.051 250.163 117.403C249.617 117.623 248.963 116.452 248.551 115.546C248.265 115.829 247.984 116.11 247.711 116.386C244.099 120.049 236.243 126.88 231.722 131.372C232.355 134.506 231.817 139.913 228.927 141.719C229.075 141.903 229.231 142.083 229.403 142.253C231.22 144.047 234.431 143.427 237.387 142.253C240.344 141.079 256.541 130.395 263.813 123.141Z" fill="#D15C4D"/>
<path d="M208.566 127.561C208.566 127.561 208.479 120.834 217.536 118.064L218.263 120.919L211.651 127.493L208.566 127.561Z" fill="#564756"/>
<path d="M218.632 127.986C218.632 127.986 221.282 124.639 218.272 122.816C214.517 120.542 214.098 119.441 212.658 116.713C211.218 113.984 210.283 113.482 208.555 112.189C206.828 110.897 204.884 108.599 203.949 108.743C203.013 108.886 203.949 110.681 204.668 111.758C205.388 112.835 206.396 113.697 206.18 114.559C206.18 114.559 203.157 114.056 201.645 113.338C200.134 112.62 196.751 108.527 195.527 108.815C194.304 109.102 195.167 110.035 195.167 110.035C195.167 110.035 193.152 109.03 193.44 110.897C193.44 110.897 191.568 110.825 193.152 112.979C193.152 112.979 191.712 112.979 193.224 114.99C194.735 117 196.967 119.37 199.198 120.447C201.429 121.524 206.18 122.314 208.771 124.683C211.362 127.052 215.009 132.485 218.632 127.986Z" fill="#9E5959"/>
<path d="M206.151 114.559C206.111 115.737 206.124 117.942 207.639 118.072C206.911 117.005 206.461 115.649 206.151 114.559ZM195.146 110.055C196.905 111.806 199.406 115.252 201.87 115.465C199.532 113.875 197.24 111.708 195.146 110.055ZM193.42 110.917C195.284 112.761 198.566 116.338 201.012 116.832C199.644 115.66 198.16 114.627 196.724 113.543C195.622 112.758 194.43 111.562 193.42 110.917ZM193.132 112.999C194.815 114.632 196.778 117.209 199.076 117.794C198.196 116.887 197.16 116.105 196.136 115.354C195.138 114.65 194.055 113.546 193.132 112.999Z" fill="#723333"/>
<path d="M207.26 119.01C205.732 117.789 203.448 117.422 201.646 118.22C203.568 118.236 205.398 118.534 207.26 119.01Z" fill="#914D4D"/>
<path d="M232.65 142.939C232.65 142.939 229.789 143.448 225.11 139.475C220.12 135.237 212.514 128.489 209.635 125.545C206.755 122.601 208.627 120.231 210.21 119.585C211.794 118.939 213.881 120.806 218.272 122.816C222.663 124.827 229.716 127.627 234.539 132.725C239.362 137.823 237.61 142.394 232.65 142.939Z" fill="#9E5959"/>
<path d="M217.536 118.064C217.536 124.791 208.566 127.561 208.566 127.561C208.566 127.561 224.213 142.702 231.287 143.378C238.361 144.054 239.022 137.151 238.361 135.652C237.699 134.154 233.27 129.604 230.163 127.296C227.055 124.987 217.536 118.064 217.536 118.064Z" fill="#E26E5F"/>
<path d="M238.361 135.652C237.71 134.178 233.413 129.752 230.315 127.412C230.757 128.348 231.211 129.472 231.573 130.744C232.523 134.084 231.906 141.305 227.679 142.227C229.015 142.859 230.245 143.278 231.286 143.377C238.361 144.053 239.021 137.15 238.361 135.652Z" fill="#D15C4D"/>
<path d="M276.865 100.176C270.962 99.8174 267.488 101.058 263.289 105.212C259.71 108.753 256.387 116.888 253.479 122.671C250.646 128.305 251.535 133.321 255.182 139.975C255.419 140.407 256.406 141.842 256.406 141.842C256.406 141.842 256.485 149.419 257.174 155.125C257.747 159.877 258.631 163.167 271.299 164.855C283.97 166.544 288.483 158.878 290.812 143.302C292.546 131.701 293.458 119.765 293.198 113.784C292.853 105.829 287.207 100.803 276.865 100.176Z" fill="#9E5959"/>
<path d="M267.704 96.462C267.704 96.462 268.137 99.6896 267.533 102.176C266.929 104.663 265.731 107.294 270.421 108.502C274.081 109.444 280.327 106.912 281.566 105.079C282.806 103.246 282.733 102.931 282.001 100.953C281.594 99.8529 279.958 97.3779 280.495 88.8514C280.698 86.1975 277.585 83.9749 274.334 85.4541C272.067 86.4851 266.95 87.9153 267.704 96.462Z" fill="#9E5959"/>
<path d="M274.334 85.4538C277.585 83.9747 279.68 86.8502 279.292 89.4836C279.146 90.4752 277.133 92.3381 276.026 94.2325C274.181 97.3899 272.356 100.842 267.572 102.008C268.118 99.5463 267.704 96.4616 267.704 96.4616C266.95 87.9151 272.067 86.4849 274.334 85.4538Z" fill="#914D4D"/>
<path d="M282.001 100.953C282.001 100.953 289.339 101.722 292.687 108.016C296.035 114.31 300.22 134.118 300.349 142.34C300.477 150.561 299.055 152.89 299.183 156.358C299.312 159.827 299.827 161.267 294.168 163.149C286.828 165.59 257.468 167.517 255.022 164.819C254.249 163.92 254.378 151.075 252.961 148.12C251.545 145.166 248.583 139.899 248.969 132.32C249.356 124.741 257.202 105.732 267.607 101.843C267.607 101.843 263.52 107.914 266.74 109.198C269.959 110.483 278.395 104.807 282.001 100.953Z" fill="#FFF3E8"/>
<path d="M267.152 166.11C273.022 166.01 279.963 165.501 285.546 164.786C284.298 158.217 272.83 145.498 272.83 145.498L269.888 132.6L263.244 127.671L260.604 127.933C260.604 127.933 257.451 122.974 254.315 120.919C253.801 120.582 253.113 120.39 252.313 120.326C250.317 124.999 249.115 129.468 248.969 132.319C248.583 139.898 251.545 145.165 252.961 148.119C253.374 148.979 253.655 150.68 253.865 152.678C256.962 153.602 261.347 154.83 262.49 154.731C264.307 154.573 265.031 160.044 267.572 163.036C268.585 164.23 268.1 165.279 267.152 166.11Z" fill="#FFE7D1"/>
<path d="M267.606 101.843C267.606 101.843 262.646 107.16 258.503 114.502C255.25 120.267 251.679 127.882 251.234 132.602C250.79 137.321 251.195 144.492 252.078 146.306C252.961 148.12 253.615 149.655 253.884 152.86C254.153 156.065 255.022 164.819 255.022 164.819L252.944 163.569C252.944 163.569 252.373 151.537 251.052 148.122C249.732 144.707 247.497 136.992 247.424 133.331C247.352 129.671 249.381 121.492 251.804 117.799C254.227 114.107 260.089 106.5 261.646 104.621C262.979 103.013 267.606 101.843 267.606 101.843ZM281.907 100.721C281.907 100.721 275.811 102.943 272.688 107.668C269.565 112.392 268.178 123.345 266.698 129.717C265.217 136.089 267.45 140.585 269.169 146.142C270.888 151.698 273.007 165.755 273.455 171.791C273.903 177.826 273.455 197.82 273.455 197.82C273.455 197.82 295.217 200.531 306.456 196.955C306.456 196.955 300.627 163.639 300.627 149.762C300.627 125.123 296.011 111.6 292.573 105.269C290.589 103.117 288.128 101.021 281.907 100.721Z" fill="#E26E5F"/>
<path d="M291.338 154.161C291.162 147.917 291.162 120.482 291.162 120.482L273.679 119.457C273.679 119.457 270.739 130.043 269.888 131.55C269.341 132.517 267.729 131.113 266.644 129.984C265.288 136.214 267.474 140.665 269.169 146.142C270.623 150.844 272.365 161.634 273.137 168.498C275.229 169.352 278.498 170.365 281.768 170.073C289.134 169.413 291.449 158.091 291.338 154.161Z" fill="#D15C4D"/>
<path d="M306.456 196.954C306.456 196.954 305.283 190.248 303.989 181.602C303.132 182.228 301.79 182.845 299.712 183.354C292.176 185.201 285.094 185.464 281.23 187.179C277.851 188.678 275.688 194.45 274.854 197.976C279.827 198.499 296.923 199.988 306.456 196.954Z" fill="#D96252"/>
<path d="M284.357 103.26C284.357 103.26 292.469 104.553 291.784 114.938C291.21 123.626 285.728 160.207 281.101 163.13C276.473 166.053 270.225 164.408 270.938 152.319C271.652 140.23 274.513 121.948 275.609 113.58C276.705 105.213 280.578 102.413 284.357 103.26Z" fill="#9E5959"/>
<path d="M284.516 102.008C284.516 102.008 276.917 102.278 275.224 110.192C273.532 118.106 270.358 144.574 270.006 150.906C269.653 157.237 269.682 163.736 276.147 165.015C282.611 166.294 284.889 161.37 286.395 156.269C287.9 151.169 292.523 121.226 292.572 114.56C292.621 107.894 290.036 102.353 284.516 102.008Z" fill="#E26E5F"/>
<path d="M279.338 151.346C278.958 143.285 273.34 137.34 271.563 135.652C271.165 139.008 270.812 142.174 270.54 144.832L279.338 151.346Z" fill="#D96252"/>
<path d="M247.043 114.601L224.999 111.613L239.22 146.14L260.946 151.693L247.043 114.601Z" fill="#E3EFFC"/>
<path d="M252.943 137.013C252.943 137.013 255.186 129.572 263.243 129.717L264.629 133.365L257.278 138.684L252.943 137.013Z" fill="#564756"/>
<path d="M272.639 162.616C272.639 162.616 269.153 160.534 262.053 148.171C257.002 139.376 253.163 133.406 252.97 131.341C252.657 127.979 255.183 126.902 258.115 129.021C261.023 131.123 265.105 136.261 273.195 144.51C282.261 153.754 283.362 156.995 282.127 160.035C279.999 165.269 276.32 165.23 272.639 162.616Z" fill="#9E5959"/>
<path d="M261.044 131.654C261.044 131.654 260.29 131.102 259.737 130.264C258.445 128.308 256.524 124.93 255.484 124.35C253.997 123.523 251 122.56 249.631 121.506L250.508 123.846C250.508 123.846 251.319 124.526 251.627 124.658C252.205 124.905 251.866 125.178 250.944 124.944C250.022 124.71 246.515 123.413 245.379 122.814C244.244 122.216 241.601 120.403 239.949 121.062C239.949 121.556 240.61 122.298 240.61 122.298C240.61 122.298 238.875 121.474 237.884 122.133C237.884 122.815 239.205 123.781 239.205 123.781C239.205 123.781 237.884 123.699 237.884 124.028C237.884 124.358 239.949 125.845 239.949 125.845C239.949 125.845 239.536 125.601 239.123 125.845C238.71 126.088 239.123 126.583 239.123 126.583C239.123 126.583 243.17 130.208 243.913 130.785C244.657 131.362 252.091 133.393 252.834 133.449C253.578 133.504 255.939 138.446 257.195 139.6C258.451 140.755 265.351 138.116 261.044 131.654Z" fill="#9E5959"/>
<path d="M240.625 122.271C241.734 122.864 242.936 123.539 244.025 124.178C244.587 124.509 245.173 124.794 245.692 125.198C245.942 125.385 246.157 125.61 246.428 125.776C246.685 125.942 246.972 126.081 247.274 126.212C247.29 126.217 247.299 126.236 247.291 126.252C247.287 126.263 247.277 126.269 247.267 126.27C246.927 126.307 246.585 126.262 246.252 126.157C246.015 126.087 245.767 125.946 245.556 125.81C244.928 125.452 244.355 124.997 243.767 124.577C243.369 124.301 242.57 123.739 242.175 123.458C241.649 123.078 241.117 122.706 240.593 122.321C240.58 122.312 240.577 122.293 240.587 122.28C240.596 122.268 240.612 122.264 240.625 122.271ZM239.222 123.755C240.311 124.427 241.495 125.18 242.568 125.883C243.121 126.244 243.703 126.564 244.218 126.978C244.404 127.125 244.604 127.29 244.785 127.445C245.101 127.696 245.454 127.876 245.794 128.124C245.818 128.141 245.803 128.184 245.772 128.18C245.431 128.14 245.106 128.067 244.777 127.954C244.452 127.835 244.168 127.638 243.874 127.463C243.309 127.117 242.815 126.673 242.292 126.27C241.901 125.97 241.117 125.357 240.731 125.049C240.217 124.634 239.698 124.225 239.188 123.803C239.175 123.793 239.174 123.774 239.184 123.761C239.194 123.75 239.21 123.748 239.222 123.755ZM239.967 125.82C240.82 126.413 241.744 127.081 242.578 127.707C243.006 128.028 243.47 128.312 243.856 128.686C244.236 129.033 244.55 129.47 245.028 129.688C245.053 129.697 245.051 129.738 245.024 129.744C244.728 129.81 244.435 129.704 244.171 129.584C243.687 129.328 243.249 128.994 242.851 128.623C242.519 128.295 242.027 127.845 241.677 127.528C241.109 126.996 240.483 126.408 239.93 125.866C239.918 125.854 239.918 125.836 239.929 125.824C239.939 125.813 239.956 125.812 239.967 125.82Z" fill="#723333"/>
<path d="M252.943 137.011C252.943 137.011 260.536 137.895 263.243 129.715C263.243 129.715 280.267 148.706 282.364 154.334C284.462 159.962 281.024 165.024 277.939 165.219C274.854 165.414 271.097 163.831 266.937 158.291C262.777 152.751 252.943 137.011 252.943 137.011Z" fill="#E26E5F"/>
<path d="M273.721 62.9729C273.721 62.9729 285.6 64.1759 284.437 78.2088C283.319 91.689 271.249 102.006 261.695 98.5514C258.672 97.255 257.084 90.0959 257.653 79.5238C258.221 68.9518 263.237 61.9333 273.721 62.9729Z" fill="#9E5959"/>
<path d="M264.435 87.4643C264.435 87.4643 264.991 86.4868 267.473 86.7707C269.491 87.0015 270.983 87.4483 270.848 88.7032C270.829 90.347 263.134 89.8777 264.435 87.4643ZM257.576 85.752C257.611 86.7689 257.672 87.7349 257.757 88.6481C259.098 88.5314 260.417 88.165 260.423 87.6048C260.544 86.4919 259.258 86.0073 257.576 85.752Z" fill="#914D4D"/>
<path d="M267.585 84.4142C267.516 85.1431 267.016 85.6924 266.468 85.641C265.92 85.5896 265.531 84.957 265.6 84.2281C265.668 83.4992 266.169 82.9499 266.717 83.0013C267.265 83.0527 267.654 83.6853 267.585 84.4142ZM261.023 83.6843C260.957 84.3863 260.475 84.9153 259.947 84.8658C259.419 84.8164 259.044 84.2071 259.111 83.5051C259.177 82.803 259.658 82.274 260.186 82.3235C260.714 82.3731 261.089 82.9823 261.023 83.6843Z" fill="#192B4F"/>
<path d="M262.053 92.3966C262.928 92.5501 263.755 92.5083 264.294 92.4461C265.437 92.3145 265.481 92.1674 265.485 92.0411L265.474 91.9645C265.45 91.7955 265.289 91.6805 265.121 91.7113C265.107 91.7152 263.692 92.0955 262.154 91.8252C260.627 91.5572 259.844 90.9868 259.837 90.9811C259.708 90.886 259.526 90.9119 259.43 91.0399C259.334 91.1678 259.36 91.3488 259.488 91.445C259.523 91.4718 260.377 92.1023 262.053 92.3966Z" fill="#723333"/>
<path d="M262.164 94.4314C261.37 94.3806 260.799 94.0755 260.768 94.0584C260.615 93.9749 260.559 93.7835 260.642 93.6308C260.726 93.4784 260.917 93.4222 261.07 93.505C261.085 93.513 261.906 93.9429 262.87 93.7644C263.041 93.7326 263.206 93.8455 263.238 94.0167C263.27 94.1878 263.157 94.3523 262.985 94.384C262.695 94.4378 262.418 94.4476 262.164 94.4314Z" fill="#914D4D"/>
<path d="M262.505 89.4087C262.101 89.3828 261.37 89.3029 260.961 89.0559C260.407 88.7214 260.65 88.2282 260.93 87.6571L260.965 87.5853C262.655 84.1362 262.588 82.6114 262.587 82.5964C262.577 82.4236 262.708 82.2737 262.881 82.2624C263.055 82.2513 263.204 82.3801 263.217 82.5527C263.222 82.6192 263.316 84.2237 261.533 87.8621L261.497 87.9345C261.388 88.1566 261.265 88.4069 261.26 88.4975C261.266 88.5022 261.275 88.5086 261.288 88.5169C261.595 88.7022 262.375 88.783 262.793 88.7906C262.966 88.794 263.106 88.9371 263.103 89.1112C263.1 89.2851 262.957 89.4237 262.782 89.4207C262.749 89.4201 262.647 89.4178 262.505 89.4087Z" fill="#723333"/>
<path d="M265.158 80.3522C265.158 80.3522 264.696 80.2917 264.671 80.6C264.646 80.9083 264.674 81.5952 264.867 81.6913C265.06 81.7872 267.461 81.8602 268.386 81.938C269.312 82.0157 270.777 82.3436 270.856 82.2416C270.935 82.1395 270.395 81.5311 269.36 81.1795C268.481 80.8806 266.387 80.3482 265.158 80.3522ZM257.803 80.8216C257.803 80.8216 257.355 80.8114 257.345 80.5317C257.332 80.173 258.835 79.7119 261.366 80.0223C262.103 80.1499 261.969 81.0224 261.754 81.414C261.556 81.7755 260.517 80.9877 257.803 80.8216Z" fill="#192B4F"/>
<path d="M264.019 70.8785C264.019 70.8785 260.291 71.7962 259.125 74.2406C257.958 76.6851 258.141 80.3912 257.855 82.2201C257.57 84.0491 257.253 84.796 256.848 85.9819C256.444 87.1678 256.658 87.7692 257.059 89.3901C257.46 91.0111 256.755 92.8132 255.455 93.402C255.455 93.402 256.825 91.7262 256.167 90.1729C255.509 88.6195 254.746 87.3954 255.24 86.2514C255.734 85.1074 256.848 83.4992 256.206 81.695C255.564 79.8908 255.401 73.2473 257.624 68.7711C259.847 64.295 266.992 61.8122 270.329 62.2771C270.329 62.2771 277.813 61.0754 282.109 64.9601C286.405 68.8447 287.854 73.8071 287.631 79.9221C287.407 86.0372 283.598 92.931 281.4 94.3862C279.203 95.8413 278.095 97.1708 278.028 96.9146C277.96 96.6584 277.476 93.6464 277.502 92.1808C277.557 88.9818 277.208 83.9217 276.721 83.6387C276.234 83.3557 274.674 86.4001 274.782 87.3306C274.891 88.2612 275.784 90.0814 274.95 91.2876C274.115 92.4938 272.831 92.8317 273.059 94.5255C273.287 96.2193 273.326 98.2369 272.293 98.5909C272.293 98.5909 272.792 97.3633 272.275 96.2387C271.758 95.1142 271.514 93.6713 272.071 92.8671C272.627 92.063 274.846 90.2734 274.162 89.1382C273.477 88.003 272.476 87.8552 272.38 85.4141C272.284 82.9731 273.084 81.0089 272.734 79.8951C272.385 78.7813 271.113 77.6086 268.982 76.7169C266.851 75.8253 264.961 74.5491 264.019 70.8785Z" fill="#192B4F"/>
<path d="M283.238 66.0773C279.813 62.9835 275.944 62.0537 274.161 62.3045C274.161 62.3045 279.789 64.4438 280.983 66.4857C282.178 68.5275 283.772 74.1166 283.737 76.2524C283.701 78.3881 283.701 81.0268 283.171 83.3237C282.64 85.6206 282.01 87.7759 281.125 88.5515C280.241 89.3271 279.068 88.2204 277.965 87.5916C277.711 87.4465 277.518 87.3978 277.363 87.4457C277.472 89.008 277.526 90.7749 277.502 92.1819C277.476 93.6474 277.96 96.6594 278.028 96.9156C278.095 97.1718 279.203 95.8422 281.4 94.3871C283.598 92.9321 287.407 86.0382 287.631 79.9232C287.833 74.3791 286.661 69.7824 283.238 66.0773ZM264.019 70.8797C264.425 67.7284 267.138 62.9886 270.329 62.2783C267.467 63.6589 265.127 67.9646 264.019 70.8797Z" fill="#152545"/>
<path d="M266.552 68.6702C270.417 70.4748 269.597 72.3632 271.671 75.257C272.365 76.353 273.592 76.692 274.651 77.2912C275.985 78.241 276.82 79.9397 276.667 81.5744C276.599 80.1897 275.886 78.8205 274.832 77.9393C273.569 77.0103 272.261 77.0469 271.271 75.5617C269.165 72.6167 270.203 70.9676 266.552 68.6702ZM269.174 67.1582C271.33 67.6692 273.417 68.8922 274.48 70.896C276.441 73.7861 279.759 76.7179 279.089 80.5534C279.245 76.7481 275.979 74.1242 274.081 71.1544C273.11 69.1798 271.174 67.9463 269.174 67.1582Z" fill="#152545"/>
<path d="M269.34 64.5652C273.06 64.3582 277.052 65.4655 279.491 68.4236C280.697 69.7671 281.713 71.3257 282.251 73.058C282.489 73.8598 282.639 74.7093 282.584 75.5473C282.539 76.0212 282.513 76.6024 282.534 77.079C282.607 79.7138 283.053 82.4784 282.168 85.0315C282.984 81.8828 281.913 78.6039 282.136 75.4183C282.097 72.3031 280.092 69.5647 277.911 67.4879C275.59 65.432 272.375 64.696 269.34 64.5652Z" fill="#152545"/>
<path d="M279.618 81.3776C279.618 81.3776 281.537 81.6533 281.383 84.6859C281.236 87.5991 279.267 90.8401 277.184 90.1613C276.524 89.9027 276.102 87.3193 276.151 85.0368C276.2 82.7542 277.351 81.2257 279.618 81.3776Z" fill="#9E5959"/>
<path d="M277.666 88.0139C277.065 84.0232 279.16 83.034 279.25 82.9938C279.358 82.9447 279.483 82.9932 279.533 83.1003C279.582 83.2075 279.534 83.3344 279.427 83.3841C279.367 83.412 278.253 83.9557 278.027 85.9268C278.668 85.2669 279.626 85.2044 279.678 85.2016C279.796 85.1951 279.897 85.2853 279.904 85.4033C279.911 85.5214 279.82 85.6228 279.702 85.6295C279.647 85.6328 278.36 85.7217 277.99 86.7909C277.997 87.1426 278.027 87.5271 278.091 87.9503C278.107 88.0574 278.041 88.1578 277.94 88.1876C277.93 88.1904 277.92 88.1926 277.91 88.1941C277.793 88.2116 277.684 88.131 277.666 88.0139Z" fill="#723333"/>
<path d="M271.74 62.1403C271.74 62.1403 272.335 60.514 275.644 59.858C278.952 59.2019 284.36 59.7117 287.724 65.2579C291.089 70.8042 292.5 80.8723 292.171 85.2377C291.843 89.6032 291.119 90.1835 292.197 93.1156C293.274 96.0477 293.401 100.847 291.65 103.724C289.9 106.6 283.566 109.82 281.628 112.752C279.691 115.684 279.913 120.943 275.699 124.713C274.308 126.06 272.325 126.242 272.325 126.242C272.325 126.242 275.664 122.407 275.497 118.839C275.497 118.839 275.198 120.024 274.303 120.575C274.303 120.575 275.047 119.378 274.48 117.067C273.913 114.756 273.316 112.866 273.964 107.953C274.978 100.26 277.925 97.9829 279.068 94.0263C280.211 90.0697 284.177 86.606 284.486 80.6381C284.731 75.9088 283.666 70.4424 282.761 68.2274C281.284 64.6145 275.833 62.1439 271.74 62.1403Z" fill="#192B4F"/>
<path d="M276.455 59.7269C276.455 59.7269 281.73 58.8387 283.978 60.4214C286.226 62.0043 287.019 63.884 288.474 64.6588C289.928 65.4336 290.765 67.4744 290.457 69.2058C290.149 70.9372 290.152 72.4019 291.825 74.7873C293.498 77.1728 292.932 79.6447 292.573 81.5747C292.215 83.5048 292.194 84.2205 293.243 85.8407C294.291 87.4609 294.045 88.9552 293.243 90.2526C292.44 91.5499 291.93 92.9288 293.243 93.9541C294.556 94.9792 295.06 98.194 293.94 99.2233C292.82 100.253 293.252 101.359 293.243 103.115C293.234 104.872 292.694 107.099 291.179 106.975C289.664 106.85 288.551 108.037 287.653 109.62C286.755 111.203 284.39 112.769 283.009 112.76C281.629 112.752 281.26 114.548 281.231 116.832C281.201 119.117 279.615 125.993 273.455 125.993L277.235 118.919L274.162 115.765C274.162 115.765 272.601 114.929 272.736 113C272.871 111.071 273.555 110.851 273.455 110.192C273.356 109.532 273.18 108.609 273.4 107.949C273.621 107.29 273.94 107.002 273.891 106.113C273.841 105.223 273.596 104.013 274.37 103.377C275.144 102.741 275.251 101.384 275.251 100.952C275.251 100.519 275.496 99.4506 276.353 98.8043C277.21 98.1579 277.265 96.9577 277.559 96.2102C277.852 95.4628 278.18 94.5315 278.732 93.954C279.283 93.3765 279.776 90.1485 281.392 89.4202C281.392 89.4202 285.916 87.5012 286.335 82.9744C286.755 78.4477 286.005 66.6206 283.273 63.543C280.54 60.4654 276.455 59.7269 276.455 59.7269Z" fill="#192B4F"/>
<path d="M278.136 63.7807C277.371 63.0078 275.891 62.3472 275.128 61.9986C274.245 61.5947 273.923 61.5381 274.941 60.4756C275.273 60.1296 275.84 59.891 276.455 59.7266C276.173 59.7617 275.902 59.8059 275.644 59.8571C272.335 60.5132 271.74 62.1394 271.74 62.1394C273.755 62.1411 276.099 62.7412 278.136 63.7807Z" fill="#152545"/>
<path d="M305.481 125.121C305.481 125.121 309.819 126.131 309.819 137.381C309.819 148.632 309.819 178.057 309.819 178.057C309.819 178.057 311.473 184.738 295.476 186.615C279.088 188.538 278.297 192.327 278.297 205.308C278.297 205.308 285.238 206.184 291.745 205.463C298.251 204.742 312.277 204.597 313.723 193.491C315.169 182.384 313.434 166.951 313.723 157.719C313.931 151.071 313.839 137.089 313.772 129.787C313.748 127.203 311.641 125.121 309.051 125.121H305.481Z" fill="#E4E8F2"/>
<path d="M150.523 204.723L133.817 273.426H137.341L156.774 204.723H150.523Z" fill="#B27C60"/>
<path d="M159.919 204.723L161.9 279.284H165.423L167.297 204.723H159.919Z" fill="#B27C60"/>
<path d="M176.693 204.723L193.399 273.426H189.875L170.442 204.723H176.693Z" fill="#B27C60"/>
<path d="M179.518 202.594H147.698C147.698 202.594 147.698 205.399 147.698 205.416C147.698 206.184 154.821 206.806 163.608 206.806C172.395 206.806 179.518 206.184 179.518 205.416C179.518 205.398 179.518 202.594 179.518 202.594Z" fill="#A56C53"/>
<path d="M179.518 202.645C179.518 203.413 172.395 204.035 163.608 204.035C154.821 204.035 147.698 203.413 147.698 202.645C147.698 201.878 154.821 201.256 163.608 201.256C172.395 201.256 179.518 201.878 179.518 202.645Z" fill="#B27C60"/>
<path d="M166.27 202.592H160.947C160.353 202.592 159.871 202.112 159.871 201.519V177.135H167.345V201.519C167.345 202.112 166.864 202.592 166.27 202.592Z" fill="#935B47"/>
<path d="M268.234 173.212H58.9819L96.7362 152.857H233.516L268.234 173.212Z" fill="#DBA086"/>
<path d="M268.234 173.211H58.9819V179.485H268.234V173.211Z" fill="#CE8A72"/>
<path d="M213.968 171.461L244.475 167.904C245.125 167.828 245.616 167.278 245.616 166.625V166.273L211.251 153.501L178.449 153.412V153.911C178.449 154.522 178.8 155.079 179.351 155.345L212.219 171.167C212.762 171.429 213.369 171.531 213.968 171.461Z" fill="#C6D1E5"/>
<path d="M213.051 170.07L245.616 166.273L211.366 152.051C211.29 152.019 211.208 152.005 211.126 152.008L178.449 153.413L213.051 170.07Z" fill="#DAE1F2"/>
<path d="M212.156 168.111L238.586 165.284C238.761 165.265 238.797 165.027 238.635 164.958L211.045 153.188C210.936 153.142 210.819 153.121 210.701 153.126L186.349 154.172C185.525 154.208 185.296 155.317 186.038 155.674L211.72 168.038C211.855 168.103 212.007 168.128 212.156 168.111Z" fill="#C6D1E5"/>
<path d="M165.737 126.322L165.298 126.531L179.5 152.913L213.051 170.07L214.189 169.937L198.616 138.979C198.445 138.643 198.156 138.38 197.803 138.244L166.981 126.277C166.578 126.12 166.128 126.136 165.737 126.322Z" fill="#ECF0FA"/>
<path d="M165.298 126.531L178.449 153.413L213.051 170.07L197.693 139.734C197.44 139.233 197.01 138.844 196.486 138.64L165.298 126.531Z" fill="#E4E8F2"/>
<path d="M236.159 19.294C226.944 7.70015 174.088 4.98749 155.424 17.806C146.22 25.5514 145.101 45.547 147.197 57.8908C149.111 69.1659 153.149 71.4792 153.149 71.4792C159.333 75.215 175.964 77.8191 197.005 77.8191C208.384 77.8191 220.527 76.7836 226.878 75.8932C236.472 74.548 239.734 68.7938 239.731 59.1295C239.727 45.0533 239.088 24.3082 236.159 19.294ZM257.257 42.7894C257.257 42.7894 257.627 39.4637 255.343 38.0985C253.058 36.7332 243.208 41.4356 243.143 47.5683C243.078 53.7011 254.711 49.2502 257.257 42.7894ZM262.606 55.8957C262.606 55.8957 262.582 53.8221 261.074 53.1543C259.565 52.4865 253.862 56.1206 254.286 59.8978C254.71 63.675 261.529 60.0615 262.606 55.8957Z" fill="#ECF0FA"/>
<path d="M194.763 67.158C207.777 67.158 218.328 56.6332 218.328 43.6503C218.328 30.6673 207.777 20.1426 194.763 20.1426C181.748 20.1426 171.197 30.6673 171.197 43.6503C171.197 56.6332 181.748 67.158 194.763 67.158Z" fill="white"/>
<path d="M195.047 57.6181C194.234 57.6181 193.474 57.2139 193.022 56.5382L183.483 42.2948C182.736 41.1791 183.037 39.6705 184.155 38.9251C185.273 38.1796 186.786 38.48 187.533 39.5957L194.95 50.6704L214.673 18.2988C215.371 17.1523 216.869 16.7878 218.019 17.4845C219.168 18.1815 219.534 19.6758 218.835 20.8225L197.128 56.4505C196.696 57.1597 195.931 57.5998 195.099 57.6176C195.082 57.618 195.064 57.6181 195.047 57.6181Z" fill="#5AA389"/>
</svg>
