<svg width="322" height="234" viewBox="0 0 322 234" fill="none" xmlns="http://www.w3.org/2000/svg">
<path d="M115.802 223.166C178.276 223.166 228.921 219.205 228.921 214.318C228.921 209.43 178.276 205.469 115.802 205.469C53.3285 205.469 2.68359 209.43 2.68359 214.318C2.68359 219.205 53.3285 223.166 115.802 223.166Z" fill="#EEEEEE"/>
<path d="M76.3996 139.796C75.6697 132.517 78.7502 126.442 85.319 122.227C90.106 119.152 95.0434 118.174 95.258 118.131L95.945 121.69C95.902 121.7 91.394 122.604 87.1866 125.335C81.8306 128.807 79.4156 133.549 80.006 139.43L76.3996 139.796Z" fill="#2F9395"/>
<path d="M100.913 123.661C109.087 123.212 115.599 120.761 115.458 118.188C115.317 115.615 108.576 113.893 100.402 114.342C92.2279 114.792 85.7159 117.242 85.8569 119.816C85.9979 122.389 92.7386 124.11 100.913 123.661Z" fill="#3FB2AF"/>
<path d="M112.024 121.431C109.362 122.57 105.39 123.409 100.915 123.656C92.7358 124.108 85.9953 122.388 85.8558 119.807C85.7806 118.442 87.5838 117.108 90.514 116.098C88.3137 117.033 87.0257 118.173 87.0901 119.345C87.2296 121.914 93.9702 123.645 102.149 123.194C105.97 122.979 109.437 122.323 112.024 121.431Z" fill="#2F9395"/>
<path d="M64.7972 150.816H58.6577V201.049H64.7972V150.816Z" fill="#414042"/>
<path d="M65.7092 176.32H57.7451C57.4124 176.32 57.144 176.051 57.144 175.718V165.514C57.144 165.181 57.4124 164.912 57.7451 164.912H65.7092C66.042 164.912 66.3103 165.181 66.3103 165.514V175.718C66.3103 176.051 66.042 176.32 65.7092 176.32Z" fill="#E0E0E0"/>
<path d="M21.8101 208.039C34.6686 203.717 47.9887 200.835 61.2873 198.287L61.7166 198.201L62.1567 198.287C72.1065 200.147 82.1314 202.33 91.8773 205.029C95.1617 205.953 98.4246 206.91 101.645 208.028C98.2314 207.921 100.528 210.609 97.1366 210.286C88.7217 209.48 74.6181 205.308 66.289 203.878L61.298 202.986H62.1674C52.0244 204.814 36.1927 208.953 25.9209 209.888C22.6795 210.19 25.0623 207.91 21.8101 208.039Z" fill="#414042"/>
<path d="M28.9844 212.585C29.3976 210.035 27.6691 207.633 25.1238 207.219C22.5785 206.805 20.1802 208.537 19.7671 211.086C19.3539 213.636 21.0824 216.039 23.6277 216.452C26.173 216.866 28.5713 215.135 28.9844 212.585Z" fill="#414042"/>
<path d="M26.8548 211.833C26.8548 213.21 25.7493 214.317 24.3754 214.317C23.0015 214.317 21.896 213.21 21.896 211.833C21.896 210.457 23.0015 209.35 24.3754 209.35C25.7385 209.35 26.8548 210.468 26.8548 211.833Z" fill="#F5F5F5"/>
<path d="M103.759 211.833C103.759 214.414 101.666 216.51 99.0899 216.51C96.5139 216.51 94.4209 214.414 94.4209 211.833C94.4209 209.253 96.5139 207.156 99.0899 207.156C101.666 207.156 103.759 209.253 103.759 211.833Z" fill="#414042"/>
<path d="M101.57 211.833C101.57 213.21 100.464 214.317 99.0902 214.317C97.7164 214.317 96.6108 213.21 96.6108 211.833C96.6108 210.457 97.7164 209.35 99.0902 209.35C100.453 209.35 101.57 210.468 101.57 211.833Z" fill="#F5F5F5"/>
<path d="M65.0251 210.098C66.8484 208.271 66.8484 205.31 65.025 203.484C63.2016 201.657 60.2454 201.657 58.422 203.484C56.5987 205.31 56.5988 208.272 58.4221 210.098C60.2455 211.925 63.2018 211.925 65.0251 210.098Z" fill="#414042"/>
<path d="M64.2068 206.79C64.2068 208.167 63.1013 209.274 61.7274 209.274C60.3536 209.274 59.248 208.167 59.248 206.79C59.248 205.414 60.3536 204.307 61.7274 204.307C63.1013 204.307 64.2068 205.425 64.2068 206.79Z" fill="#F5F5F5"/>
<path d="M34.8619 70.6623C34.8619 70.6623 32.9621 73.6083 35.8601 80.1884L40.25 79.9089C40.25 79.9089 37.556 72.6621 42.1176 69.4043L34.8619 70.6623Z" fill="#2F9395"/>
<path d="M20.2324 63.3281C20.5007 65.8978 20.9945 68.446 21.7029 70.9942C22.3254 73.2413 24.676 74.5315 26.9193 73.8542C31.6312 72.4349 40.2823 70.6071 50.7151 71.9403C52.9583 72.2306 55.0191 70.6609 55.3733 68.4352C55.8027 65.715 55.8885 62.9625 55.6524 60.1778C55.3733 56.8877 52.69 54.2965 49.3734 54.2105C42.1928 54.0169 34.8405 54.2535 27.3271 54.8663C23.0016 55.2211 19.7709 59.0381 20.2324 63.3281Z" fill="#2F9395"/>
<path d="M23.3987 61.4035C23.4846 64.0055 23.7958 66.6074 24.3218 69.2094C24.7833 71.5103 27.0373 72.9725 29.3235 72.4672C34.1213 71.392 42.8797 70.1663 53.1944 72.2629C55.4162 72.7145 57.5844 71.2952 58.0996 69.0803C58.7221 66.3816 59.0012 63.6184 58.969 60.8122C58.926 57.4898 56.4359 54.6943 53.13 54.361C45.9816 53.6406 38.6293 53.3504 31.0945 53.4256C26.7475 53.4686 23.2484 57.0705 23.3987 61.4035Z" fill="#3FB2AF"/>
<path d="M14.7583 91.9831C14.7583 91.9831 16.9264 84.2525 25.8351 79.3066L31.8887 88.0372L23.8709 93.7679L14.7583 91.9831ZM113.323 135.313C113.323 135.313 118.034 146.904 100.7 153.785L98.2207 142.926L104.865 137.571L113.323 135.313Z" fill="#2F9395"/>
<path d="M108.235 147.612C105.412 152.568 96.8468 158.009 72.9007 158.116C71.3981 158.127 69.8954 158.062 68.4035 157.923C64.2711 157.546 60.2461 157.03 56.3285 156.364C56.1675 156.331 56.0065 156.31 55.8562 156.278C48.4502 154.987 41.4306 153.138 34.8189 150.697C30.6651 149.16 27.5095 145.687 26.3288 141.408L24.0963 133.333L23.9675 132.871L20.3718 119.882L20.243 119.409L14.5973 98.9808C12.5579 91.6157 17.7743 84.2292 25.3843 83.7023L48.1926 82.1111C51.0155 82.0143 53.6773 82.853 55.8562 84.3367C56.0172 84.4442 56.1782 84.5625 56.3285 84.6808C58.9045 86.6161 60.7506 89.5299 61.298 92.9275L61.4483 93.8844L61.5663 94.6478L62.6719 101.561L62.7899 102.271L63.8633 108.959L63.9706 109.614L64.6575 113.937L64.9581 115.818L65.0332 116.302L65.1942 117.334L65.2801 117.893L65.3767 118.495L65.5269 119.409L65.6021 119.882L67.0081 128.645L67.1799 129.72L67.3194 130.57L67.4482 131.365L67.9849 134.688L68.06 135.161L68.6396 138.795L74.983 138.924L75.6699 138.935L76.9901 138.956L77.4731 138.967L103.512 139.472C107.634 139.569 110.274 144.031 108.235 147.612Z" fill="#2F9395"/>
<path d="M113.14 140.172C110.36 145.042 101.934 150.397 78.3854 150.504C76.9149 150.515 75.4337 150.451 73.9633 150.322C62.0493 149.246 50.9939 146.924 40.9153 143.204C39.1014 142.537 37.4807 141.494 36.1497 140.172C34.4646 138.516 33.2195 136.419 32.5648 134.075L32.3501 133.291L21.0265 92.3474C19.0301 85.1007 24.1498 77.8324 31.6417 77.3163L54.0744 75.7573C60.4393 75.5422 65.9669 80.1118 66.9651 86.4016L74.1994 131.527L108.514 132.194C112.56 132.258 115.147 136.645 113.14 140.172Z" fill="#3FB2AF"/>
<path d="M74.1999 131.506L36.1502 140.161C34.4651 138.505 33.22 136.409 32.5653 134.065L32.3506 133.28C41.9569 137.366 57.7027 134.839 74.1999 131.506Z" fill="#2F9395"/>
<path d="M91.9847 137.829C91.9632 139.56 86.3068 140.883 79.373 140.786C72.4286 140.689 66.8258 139.195 66.8472 137.464C66.8687 135.733 72.5252 134.41 79.4589 134.507C86.4034 134.614 92.0062 136.098 91.9847 137.829Z" fill="#333333"/>
<path d="M66.8472 137.463L66.8686 136.012L68.9402 135.883L68.9294 137.184L68.6396 137.926L66.8472 137.463Z" fill="#333333"/>
<path d="M91.9848 137.828L92.0062 136.377L89.4839 136.796L90.3748 138.431L91.9848 137.828Z" fill="#333333"/>
<path d="M92.0062 136.378C91.9847 138.109 86.3282 139.432 79.3945 139.335C72.45 139.238 66.8472 137.744 66.8687 136.013C66.8902 134.281 72.5466 132.959 79.4804 133.056C86.4248 133.153 92.0276 134.636 92.0062 136.378Z" fill="#414042"/>
<path d="M85.1582 130.678L85.0938 130.205C85.7485 130.119 87.9167 129.743 88.3782 128.442C88.7109 127.496 88.1421 126.227 86.6716 124.646C79.8881 125.27 74.5 123.991 70.6467 120.83C70.2711 120.528 70.1315 120.034 70.2925 119.572C70.4535 119.109 70.8614 118.808 71.3444 118.797C79.4051 118.615 86.8326 124.152 86.9077 124.206C88.6036 125.99 89.2369 127.463 88.829 128.603C88.2923 130.119 86.0813 130.56 85.1582 130.678ZM77.8059 120.227C75.8095 119.625 73.6091 119.217 71.3551 119.27C71.0224 119.281 70.8185 119.507 70.7433 119.722C70.6682 119.937 70.6897 120.238 70.9473 120.453C74.5966 123.453 79.6842 124.711 86.092 124.216C84.9221 123.41 81.7557 121.432 77.8059 120.227Z" fill="#BDBDBD"/>
<path d="M86.1777 124.646L86.1348 124.173C86.7895 124.119 88.9684 123.829 89.4836 122.539C89.8593 121.614 89.3333 120.313 87.9273 118.679C81.1223 119.045 75.7879 117.55 72.0634 114.238C71.6985 113.916 71.5804 113.421 71.7629 112.97C71.9346 112.518 72.3639 112.228 72.8469 112.239C80.9077 112.368 88.1205 118.184 88.1956 118.238C89.8163 120.087 90.3959 121.582 89.9451 122.7C89.3333 124.216 87.1115 124.571 86.1777 124.646ZM79.2333 113.927C77.2583 113.249 75.0795 112.755 72.8255 112.722C72.4927 112.712 72.2781 112.937 72.2029 113.142C72.1171 113.357 72.1278 113.658 72.3747 113.884C75.9059 117.012 80.9399 118.475 87.3584 118.227C86.2207 117.378 83.1402 115.281 79.2333 113.927Z" fill="#BDBDBD"/>
<path d="M87.7453 118.669L87.7131 118.185C88.3679 118.142 90.5574 117.906 91.1048 116.626C91.502 115.701 91.0082 114.4 89.6344 112.734C82.8187 112.927 77.5272 111.304 73.8778 107.917C73.5236 107.594 73.4163 107.089 73.5988 106.638C73.7813 106.186 74.2106 105.917 74.6936 105.939C82.7436 106.261 89.8168 112.25 89.892 112.315C91.4698 114.196 92.0064 115.712 91.5342 116.82C90.9116 118.314 88.6684 118.615 87.7453 118.669ZM81.0585 107.777C79.105 107.046 76.9368 106.509 74.6828 106.412C74.3501 106.401 74.1355 106.616 74.0496 106.82C73.9637 107.025 73.9637 107.336 74.2106 107.562C77.6667 110.777 82.6684 112.368 89.087 112.272C87.96 111.401 84.9332 109.229 81.0585 107.777Z" fill="#BDBDBD"/>
<path d="M89.3765 112.701V112.217C90.0312 112.206 92.2316 112.088 92.8434 110.851C93.2834 109.959 92.8648 108.615 91.5876 106.884C84.7719 106.712 79.5662 104.809 76.1208 101.218C75.7881 100.873 75.7022 100.368 75.9169 99.9273C76.1316 99.4864 76.5716 99.2392 77.0546 99.2822C85.0832 100.035 91.813 106.411 91.8881 106.475C93.3586 108.443 93.8201 109.98 93.2834 111.066C92.5643 112.507 90.3103 112.69 89.3765 112.701ZM83.3014 101.465C81.3909 100.626 79.2442 99.9703 77.0117 99.7552C76.679 99.723 76.4536 99.9273 76.357 100.132C76.2604 100.336 76.2389 100.637 76.475 100.884C79.7487 104.282 84.6538 106.131 91.0724 106.389C89.9883 105.454 87.0796 103.11 83.3014 101.465Z" fill="#BDBDBD"/>
<path d="M91.3731 106.819L91.4482 106.346C92.103 106.454 94.2818 106.722 95.1083 105.604C95.6986 104.798 95.5162 103.411 94.5716 101.476C87.8955 100.11 83.1084 97.3253 80.3285 93.1858C80.0602 92.788 80.0709 92.2719 80.35 91.8741C80.629 91.4763 81.112 91.315 81.5736 91.444C89.3445 93.5944 94.8614 101.045 94.9151 101.121C96.0206 103.314 96.2031 104.905 95.484 105.884C94.5394 107.196 92.2962 106.97 91.3731 106.819ZM87.3481 94.6911C85.6093 93.5299 83.6236 92.5084 81.4555 91.9063C81.1335 91.8203 80.8759 91.9816 80.7471 92.1536C80.6183 92.3364 80.5432 92.6267 80.7364 92.917C83.366 96.8414 87.874 99.5187 94.153 100.895C93.2407 99.7982 90.7828 96.9812 87.3481 94.6911Z" fill="#BDBDBD"/>
<path d="M94.3244 101.39L94.4425 100.939C95.0758 101.132 97.2332 101.659 98.1348 100.67C98.7895 99.9495 98.7251 98.5733 97.9309 96.5519C91.405 94.38 86.8648 91.0469 84.4498 86.6387C84.2136 86.2086 84.2673 85.714 84.5786 85.3592C84.8898 85.0044 85.3836 84.9076 85.8344 85.0904C93.3799 88.1762 98.2636 96.1648 98.3172 96.2508C99.2403 98.541 99.294 100.122 98.4997 100.992C97.4479 102.154 95.2368 101.659 94.3244 101.39ZM91.3084 89.0041C89.6769 87.6493 87.7771 86.4021 85.6734 85.542C85.3621 85.413 85.0938 85.542 84.9435 85.7033C84.7933 85.8645 84.7074 86.1441 84.8684 86.4451C87.1653 90.6169 91.4265 93.8102 97.5552 95.9498C96.7502 94.7456 94.5391 91.6706 91.3084 89.0041Z" fill="#BDBDBD"/>
<path d="M97.5447 96.4016L97.7379 95.9715C98.3282 96.2726 100.357 97.1757 101.419 96.3478C102.192 95.7565 102.364 94.3802 101.935 92.2621C95.881 88.9828 91.9955 84.9078 90.3748 80.1555C90.2138 79.6932 90.3533 79.2093 90.7183 78.919C91.0832 78.6287 91.5877 78.6072 92.0063 78.8653C98.9078 83.209 102.332 91.9396 102.364 92.0256C102.879 94.4447 102.654 96.0145 101.72 96.7241C100.475 97.7026 98.3819 96.8209 97.5447 96.4016ZM96.7182 83.6714C95.3443 82.0586 93.6914 80.4888 91.7701 79.2738C91.4803 79.0911 91.2013 79.1663 91.0295 79.3061C90.8578 79.4459 90.7183 79.7039 90.8256 80.0265C92.3605 84.5423 96.0098 88.4237 101.677 91.5955C101.076 90.273 99.4337 86.8754 96.7182 83.6714Z" fill="#BDBDBD"/>
<path d="M101.58 92.026L101.849 91.6497C102.375 92.0583 104.178 93.3377 105.391 92.7464C106.26 92.3163 106.7 91.0046 106.689 88.8327C101.398 84.4352 98.3712 79.6829 97.7057 74.7047C97.6413 74.2209 97.8667 73.7693 98.2853 73.565C98.7039 73.35 99.1976 73.436 99.5518 73.7693C105.477 79.3818 107.13 88.6069 107.151 88.7037C107.183 91.1766 106.657 92.6711 105.605 93.1872C104.21 93.8646 102.321 92.5959 101.58 92.026ZM103.244 79.3711C102.214 77.5217 100.893 75.6617 99.2406 74.0919C98.9937 73.8553 98.7039 73.8768 98.5107 73.9736C98.3175 74.0704 98.1243 74.2962 98.1672 74.6402C98.8005 79.3603 101.613 83.8869 106.561 88.1016C106.249 86.7038 105.294 83.0374 103.244 79.3711Z" fill="#BDBDBD"/>
<path d="M106.442 88.5851L106.775 88.2518C107.226 88.7357 108.804 90.2947 110.092 89.9076C111.015 89.628 111.659 88.4023 112.002 86.2627C107.483 81.0696 105.272 75.8872 105.423 70.8553C105.433 70.3714 105.734 69.9629 106.185 69.8231C106.636 69.6833 107.108 69.8446 107.408 70.2317C112.346 76.7258 112.485 86.1014 112.485 86.1982C112.12 88.6389 111.358 90.0366 110.231 90.3807C108.729 90.8323 107.076 89.2732 106.442 88.5851ZM110.124 76.371C109.405 74.3711 108.407 72.3283 107.033 70.522C106.829 70.2532 106.528 70.2209 106.324 70.2854C106.12 70.3499 105.895 70.5435 105.884 70.8875C105.745 75.6506 107.795 80.575 111.992 85.5316C111.906 84.0908 111.551 80.3277 110.124 76.371Z" fill="#BDBDBD"/>
<path d="M111.863 86.0907L112.238 85.8111C112.614 86.3595 113.967 88.1228 115.287 87.9077C116.242 87.7572 117.047 86.6283 117.691 84.5639C113.945 78.7902 112.475 73.3497 113.333 68.3931C113.419 67.9092 113.763 67.5544 114.235 67.4792C114.696 67.4039 115.147 67.6297 115.383 68.049C119.365 75.1775 118.195 84.4779 118.185 84.5747C117.476 86.9401 116.532 88.2088 115.373 88.3916C113.827 88.6281 112.41 86.8648 111.863 86.0907ZM117.229 74.5109C116.789 72.4358 116.092 70.2639 114.986 68.2856C114.825 67.9845 114.535 67.92 114.321 67.9523C114.106 67.9845 113.859 68.1458 113.795 68.4899C112.99 73.1884 114.331 78.3493 117.788 83.8435C117.906 82.4028 118.088 78.6289 117.229 74.5109Z" fill="#BDBDBD"/>
<path d="M117.573 84.3591L117.97 84.1118C118.303 84.6817 119.516 86.5418 120.858 86.4342C121.824 86.359 122.715 85.2945 123.509 83.2839C120.214 77.2414 119.162 71.7042 120.385 66.8228C120.503 66.3497 120.879 66.0164 121.351 65.9734C121.824 65.9304 122.253 66.1884 122.457 66.6293C125.881 74.0373 124.024 83.2194 124.003 83.3162C123.122 85.6171 122.081 86.8213 120.911 86.9181C119.334 87.0363 118.056 85.1655 117.573 84.3591ZM123.799 73.2202C123.52 71.1128 122.983 68.9087 122.028 66.8336C121.888 66.5217 121.609 66.4357 121.384 66.4572C121.169 66.4787 120.901 66.6185 120.825 66.9518C119.666 71.5751 120.611 76.8221 123.648 82.5636C123.874 81.1443 124.335 77.3812 123.799 73.2202Z" fill="#BDBDBD"/>
<path d="M123.444 83.0908L123.852 82.865C124.142 83.4671 125.204 85.4132 126.546 85.4132C127.512 85.4132 128.489 84.424 129.433 82.4779C126.621 76.1881 126.009 70.5863 127.608 65.8232C127.759 65.3609 128.167 65.0599 128.639 65.0491C129.111 65.0384 129.519 65.3394 129.691 65.791C132.524 73.4463 129.948 82.4564 129.916 82.5532C128.854 84.7788 127.726 85.897 126.557 85.897C124.989 85.897 123.862 83.9294 123.444 83.0908ZM130.517 72.4787C130.41 70.3605 130.045 68.1134 129.251 65.9738C129.133 65.6512 128.864 65.5437 128.639 65.5437C128.424 65.5437 128.145 65.662 128.038 65.9845C126.514 70.5003 127.05 75.8117 129.626 81.779C129.98 80.3813 130.743 76.6719 130.517 72.4787ZM84.5248 136.915L84.4282 136.442C84.4604 136.431 87.4014 135.839 87.8092 134.205C88.0561 133.216 87.3155 132.012 85.6304 130.625C78.9864 132.152 73.4695 131.592 69.2406 128.98C68.8327 128.722 68.6288 128.259 68.7254 127.776C68.822 127.302 69.1869 126.948 69.6592 126.872C77.6233 125.614 85.727 130.109 85.8021 130.162C87.7448 131.732 88.5713 133.13 88.2708 134.334C87.7985 136.259 84.6536 136.893 84.5248 136.915ZM76.2494 127.442C74.1886 127.109 71.9561 127.001 69.7343 127.356C69.4016 127.41 69.2406 127.657 69.1869 127.883C69.144 128.098 69.1976 128.399 69.4874 128.582C73.5017 131.066 78.7181 131.635 84.9971 130.292C83.7198 129.646 80.3281 128.098 76.2494 127.442Z" fill="#BDBDBD"/>
<path d="M42.2463 146.688C41.5164 139.409 44.5969 133.335 51.1657 129.12C55.9527 126.045 60.89 125.066 61.1047 125.023L61.7917 128.582C61.7487 128.593 57.2407 129.496 53.0333 132.227C47.6773 135.7 45.2623 140.442 45.8527 146.323L42.2463 146.688Z" fill="#2F9395"/>
<path d="M81.3156 125.066C81.3478 125.679 81.0043 126.292 80.3388 126.862C80.21 126.98 80.0598 127.087 79.8988 127.206C77.5696 128.883 72.5894 130.216 66.7612 130.539C62.5752 130.764 58.7648 130.431 56.0278 129.7C57.2192 128.13 58.475 126.55 59.7845 124.98C61.2228 123.249 63.1011 121.98 65.1834 121.292C65.5376 121.26 65.8918 121.238 66.2567 121.217C68.6073 121.088 70.8506 121.142 72.847 121.335C72.847 121.335 72.847 121.335 72.8577 121.335C73.5554 121.41 74.2208 121.496 74.8434 121.604C78.6752 122.238 81.2297 123.496 81.3156 125.066Z" fill="#3FB2AF"/>
<path d="M65.1832 121.293C63.1009 121.981 61.2226 123.25 59.7843 124.981C58.4749 126.551 57.2191 128.131 56.0277 129.701C55.8237 129.647 55.6305 129.593 55.4481 129.529C53.1726 128.841 51.7665 127.852 51.7021 126.69C51.5733 124.433 56.5536 122.282 63.2727 121.476C63.8952 121.4 64.5392 121.336 65.1832 121.293Z" fill="#3FB2AF"/>
<path d="M77.8698 128.313C75.208 129.453 71.2366 130.292 66.7608 130.539C58.582 130.991 51.8415 129.27 51.702 126.69C51.6268 125.324 53.43 123.991 56.3602 122.98C54.1599 123.916 52.8719 125.056 52.9363 126.228C53.0758 128.797 59.8164 130.528 67.9952 130.077C71.827 129.862 75.2831 129.206 77.8698 128.313Z" fill="#2F9395"/>
<path d="M130.807 64.8878L139.201 65.049C140.521 65.0706 141.841 64.7587 143 64.1244C146.306 62.3073 154.109 58.7699 161.537 60.9203C165.927 62.189 168.964 66.1887 169.125 70.7583L169.393 78.0481C169.533 81.994 166.549 85.3486 162.631 85.6496C160.184 85.8324 157.458 85.8539 155.107 85.4239C155.107 85.4239 155.912 90.7783 151.05 90.4342C149.354 90.316 147.777 89.5203 146.553 88.3484L140.789 82.8004H130.775C129.734 82.8004 128.897 81.951 128.897 80.9188V66.7693C128.886 65.7157 129.755 64.8663 130.807 64.8878Z" fill="#EF5350"/>
<path d="M169.393 78.0588C169.404 78.4136 169.393 78.7684 169.35 79.1233L169.125 72.9087C168.964 68.3391 165.916 64.3394 161.537 63.0707C154.109 60.9203 146.306 64.4684 143 66.2748C141.841 66.9091 140.531 67.2209 139.2 67.1994L130.807 67.0381C129.755 67.0166 128.886 67.866 128.886 68.9197V66.7693C128.886 65.7157 129.744 64.8663 130.807 64.8878L139.2 65.049C140.521 65.0705 141.841 64.7587 143 64.1244C146.306 62.3073 154.109 58.7699 161.537 60.9203C165.916 62.189 168.964 66.1995 169.125 70.7583L169.393 78.0588Z" fill="#E54545"/>
<path d="M163.672 83.8533C163.383 83.8533 163.093 83.735 162.889 83.4877C162.524 83.0577 162.567 82.4018 163.007 82.0255C167.59 78.101 165.154 72.0047 165.046 71.7467C164.832 71.2198 165.079 70.6177 165.604 70.3919C166.13 70.1769 166.731 70.4242 166.957 70.951C166.989 71.0263 170.091 78.6816 164.349 83.5953C164.145 83.778 163.909 83.8533 163.672 83.8533Z" fill="#F76D6D"/>
<path d="M284.584 124.721L287.106 125.818C287.546 126.065 288.083 126.119 288.566 125.957L290.659 125.291C291.056 125.162 291.475 125.377 291.614 125.775C291.721 126.097 291.603 126.452 291.324 126.656L289.725 127.774C289.296 128.076 289.231 128.678 289.586 129.065L293.117 132.946C293.396 133.247 293.374 133.72 293.085 134C292.795 134.279 292.333 134.279 292.043 134.011L289.886 132L292.323 134.269C292.677 134.602 292.666 135.161 292.312 135.484C291.99 135.774 291.496 135.763 291.185 135.462L287.675 132.021L290.487 134.742C290.82 135.064 290.82 135.58 290.498 135.914C290.176 136.236 289.661 136.236 289.339 135.914L285.646 132.183L288.448 135C288.759 135.312 288.77 135.817 288.459 136.139C288.158 136.451 287.675 136.473 287.342 136.193C284.874 134.097 282.48 131.452 280.129 128.506L284.584 124.721ZM249.421 64.8652C250.505 71.2304 253.457 71.7572 258.18 66.7683L260.616 60.844L252.459 58.3496L249.421 64.8652Z" fill="#F7C19B"/>
<path d="M252.469 45.0391C252.469 45.0391 246.502 51.931 247.285 57.5327C247.693 60.4357 250.258 62.5324 253.178 62.4571C255.41 62.3926 258.845 61.941 262.14 60.0379C262.43 59.8767 264.738 52.4256 264.738 52.4256L263.997 49.2753L257.782 45.7702L252.469 45.0391Z" fill="#F7C19B"/>
<path d="M258.899 51.9859C258.899 51.9859 257.901 51.9751 256.795 51.7171C255.174 51.3408 254.176 49.7173 254.552 48.0937L254.649 47.6959C254.649 47.6959 248.026 44.6531 253.006 39.6105C253.822 38.7826 254.992 38.4063 256.119 38.6643C257.493 38.9869 259.446 40.0513 261.904 42.9651C262.634 43.836 263.826 44.1155 264.963 44.137C266.23 44.1585 267.883 44.8897 267.732 48.5991C267.7 49.2442 267.786 49.8893 267.969 50.5129C268.484 52.3085 269.149 59.2972 260.047 62.7378C259.758 62.8453 259.489 62.555 259.618 62.2754C260.627 60.2003 263.128 54.5233 260.112 54.4588H260.101C259.532 54.4481 259.006 54.7169 258.674 55.1685L257.804 56.3512C257.6 56.6307 257.182 56.6307 256.999 56.3404C256.806 56.0394 256.666 55.62 256.742 55.276C257.096 54.4803 258.899 51.9859 258.899 51.9859Z" fill="#333333"/>
<path d="M236.155 21.3207L237.979 18.6865C238.269 18.2672 238.72 17.9876 239.224 17.9124L241.392 17.5791C241.8 17.5145 242.09 17.1382 242.036 16.7189C241.993 16.3748 241.725 16.106 241.392 16.063L239.46 15.7727C238.945 15.6975 238.612 15.1814 238.763 14.6868L239.868 11.0312C239.986 10.6333 239.761 10.2248 239.375 10.0957C238.988 9.97747 238.58 10.171 238.441 10.5473L237.389 13.2998L238.559 10.1818C238.731 9.73018 238.473 9.23559 238.011 9.09582C237.593 8.97755 237.153 9.20334 237.013 9.61191L235.393 14.2567L236.713 10.5688C236.863 10.1387 236.638 9.66567 236.208 9.51514C235.779 9.36461 235.317 9.60115 235.167 10.0312L233.503 15.0201L234.77 11.2569C234.909 10.8376 234.695 10.3753 234.276 10.2248C233.868 10.0742 233.428 10.2785 233.257 10.6763C231.969 13.6439 231.335 15.6867 230.541 19.3854L236.155 21.3207Z" fill="#F7C19B"/>
<path d="M185.891 211.321L193.131 214.121L197.391 203.068L190.151 200.268L185.891 211.321Z" fill="#F7C19B"/>
<path d="M191.461 215.833L191.815 217.714L191.869 218.295C191.901 218.639 191.837 218.972 191.676 219.273L191.064 220.445C190.914 220.735 190.549 220.854 190.259 220.692L188.96 220.015L189.132 219.682L188.423 219.316L188.252 219.649L186.674 218.865L186.813 218.596L186.084 218.209L185.933 218.499L184.195 217.574L183.894 215.962C182.284 215.639 180.771 215.478 179.375 215.531C179.311 215.542 177.529 214.618 177.551 214.575L177.69 214.317L177.003 213.951L176.864 214.22C176.273 213.962 175.704 213.671 175.179 213.338L175.329 213.059L174.653 212.704L174.535 212.93C173.944 212.618 173.45 212.284 173.075 211.919L173.193 211.704L172.56 211.263L172.463 211.457C172.098 211.198 171.787 210.897 171.508 210.575L171.658 210.371L171.186 209.811L170.95 209.962C170.434 209.36 169.994 208.758 169.629 208.188C169.629 208.188 169.994 207.231 170.563 207.478L178.087 210.424L187.876 213.962L191.461 215.833Z" fill="#333333"/>
<path d="M193.125 215.886C192.9 216.327 192.62 216.735 192.298 217.122L191.805 217.724C189.089 216.241 186.438 215.112 183.862 214.488C183.325 214.359 182.799 214.251 182.263 214.176C177.723 213.499 173.848 211.187 170.553 207.478L170.885 206.833C171.132 206.36 171.68 206.123 172.195 206.274L175.565 207.252C176.166 207.424 176.757 207.618 177.358 207.8C179.032 208.316 180.771 208.456 182.542 208.252C182.638 208.241 182.735 208.23 182.832 208.22C182.885 208.209 182.95 208.209 183.003 208.198C182.735 208.908 182.95 210.069 182.96 210.123C182.971 210.155 182.993 210.187 183.025 210.198C183.036 210.209 183.057 210.209 183.079 210.198C183.132 210.187 183.164 210.134 183.154 210.08C183.079 209.671 182.971 208.671 183.229 208.155C183.272 208.144 183.315 208.144 183.358 208.134C183.969 208.263 184.764 208.951 185.064 209.263C185.096 209.306 185.161 209.306 185.204 209.263C185.247 209.23 185.247 209.166 185.204 209.123C185.161 209.08 184.452 208.37 183.744 208.058C183.894 208.026 184.045 207.994 184.195 207.962C184.291 207.94 184.388 207.919 184.485 207.897C184.689 207.854 184.903 207.79 185.107 207.736C185.193 207.714 185.279 207.693 185.354 207.661C185.665 207.575 185.966 207.478 186.277 207.37C186.685 207.628 187.082 208.22 187.232 208.488C187.254 208.531 187.318 208.553 187.361 208.521C187.404 208.499 187.426 208.435 187.404 208.392C187.383 208.349 186.996 207.661 186.502 207.284C186.631 207.241 186.749 207.198 186.878 207.145C187.082 207.069 187.307 207.069 187.511 207.166L194.746 210.628C195.014 210.757 195.111 211.08 194.971 211.338L194.51 212.166C194.166 212.778 193.919 213.434 193.769 214.122C193.629 214.735 193.415 215.327 193.125 215.886Z" fill="#58595B"/>
<path d="M183.089 210.189C183.068 210.189 183.057 210.189 183.036 210.189C183.004 210.179 182.982 210.146 182.971 210.114C182.961 210.05 182.746 208.899 183.014 208.19C183.089 208.179 183.165 208.168 183.24 208.157C182.982 208.673 183.089 209.673 183.165 210.082C183.175 210.125 183.143 210.179 183.089 210.189ZM185.215 209.265C185.172 209.297 185.118 209.297 185.075 209.265C184.764 208.953 183.98 208.265 183.368 208.136C183.497 208.114 183.626 208.093 183.755 208.061C184.463 208.372 185.172 209.082 185.215 209.125C185.258 209.157 185.258 209.222 185.215 209.265Z" fill="#231F20"/>
<path d="M187.382 208.521C187.339 208.542 187.275 208.531 187.254 208.488C187.103 208.22 186.717 207.628 186.298 207.37C186.373 207.349 186.449 207.316 186.524 207.295C187.017 207.671 187.404 208.359 187.425 208.402C187.447 208.435 187.425 208.499 187.382 208.521Z" fill="#303030"/>
<path d="M193.125 215.886C192.9 216.327 192.621 216.735 192.299 217.122L191.805 217.724C189.089 216.241 186.438 215.112 183.862 214.488L181.619 210.22C181.49 209.972 181.598 209.671 181.855 209.564L187.522 207.188L194.757 210.65C195.025 210.779 195.122 211.101 194.982 211.359L194.521 212.187C194.177 212.8 193.93 213.456 193.78 214.144C193.63 214.735 193.415 215.327 193.125 215.886Z" fill="#414042"/>
<path d="M187.479 207.565L187.447 207.489L187.522 207.457L187.586 207.489L187.554 207.575L187.522 207.554L187.479 207.565Z" fill="#58595B"/>
<path d="M194.381 210.747L194.348 210.822L194.391 210.844L194.456 210.876L194.488 210.801L194.424 210.769L194.381 210.747ZM194.177 210.65L194.134 210.726L194.241 210.779L194.284 210.704L194.177 210.65ZM193.962 210.543L193.93 210.618L194.037 210.672L194.069 210.596L193.962 210.543ZM193.758 210.446L193.715 210.521L193.823 210.575L193.865 210.5L193.758 210.446ZM194.552 210.919C194.585 210.941 194.606 210.962 194.617 210.994L194.692 210.951C194.67 210.908 194.638 210.876 194.606 210.855L194.552 210.919ZM193.554 210.338L193.511 210.414L193.619 210.467L193.651 210.392L193.554 210.338ZM193.34 210.242L193.307 210.317L193.404 210.36L193.447 210.285L193.34 210.242ZM193.136 210.145L193.093 210.22L193.2 210.274L193.232 210.199L193.136 210.145ZM192.921 210.037L192.889 210.113L192.985 210.156L193.028 210.08L192.921 210.037ZM192.717 209.941L192.674 210.016L192.781 210.07L192.824 209.994L192.717 209.941ZM192.502 209.844L192.47 209.919L192.577 209.973L192.61 209.898L192.502 209.844ZM192.298 209.736L192.266 209.812L192.363 209.855L192.395 209.779L192.298 209.736ZM192.084 209.64L192.041 209.715L192.148 209.769L192.191 209.693L192.084 209.64ZM191.88 209.543L191.848 209.618L191.955 209.672L191.987 209.597L191.88 209.543ZM191.665 209.446L191.633 209.521L191.73 209.564L191.772 209.489L191.665 209.446ZM191.461 209.349L191.418 209.425L191.526 209.478L191.558 209.403L191.461 209.349ZM191.247 209.242L191.214 209.317L191.311 209.36L191.354 209.285L191.247 209.242ZM191.043 209.145L191 209.22L191.107 209.274L191.15 209.199L191.043 209.145ZM190.828 209.048L190.796 209.123L190.903 209.177L190.935 209.102L190.828 209.048ZM190.624 208.941L190.592 209.027L190.688 209.07L190.731 208.994L190.624 208.941ZM190.409 208.844L190.377 208.93L190.474 208.973L190.506 208.898L190.409 208.844ZM190.205 208.736L190.184 208.822L190.281 208.865L190.313 208.79L190.205 208.736ZM189.991 208.64L189.948 208.715L190.055 208.769L190.098 208.693L189.991 208.64ZM189.787 208.543L189.744 208.618L189.851 208.672L189.883 208.597L189.787 208.543ZM194.638 211.091C194.638 211.123 194.638 211.156 194.628 211.188L194.713 211.22C194.724 211.177 194.735 211.134 194.735 211.091H194.638ZM189.572 208.446L189.551 208.521L189.637 208.564L189.679 208.489L189.572 208.446ZM189.368 208.349L189.336 208.425L189.443 208.478L189.486 208.403L189.368 208.349ZM189.164 208.242L189.121 208.317L189.229 208.371L189.261 208.296L189.164 208.242ZM188.95 208.145L188.917 208.22L189.014 208.263L189.057 208.188L188.95 208.145ZM188.746 208.038L188.703 208.113L188.81 208.167L188.842 208.091L188.746 208.038ZM188.531 207.941L188.499 208.016L188.606 208.07L188.638 207.995L188.531 207.941ZM188.327 207.844L188.284 207.919L188.391 207.973L188.434 207.898L188.327 207.844ZM188.112 207.747L188.069 207.823L188.177 207.876L188.209 207.801L188.112 207.747ZM187.898 207.64L187.855 207.715L187.962 207.769L188.005 207.693L187.898 207.64ZM187.694 207.543L187.662 207.618L187.769 207.672L187.801 207.597L187.694 207.543ZM194.574 211.285L194.52 211.381L194.595 211.424L194.649 211.317L194.574 211.285ZM194.467 211.478L194.402 211.575L194.477 211.618L194.542 211.521L194.467 211.478ZM194.348 211.682L194.295 211.779L194.37 211.822L194.434 211.725L194.348 211.682ZM194.241 211.887L194.187 211.994L194.263 212.037L194.316 211.94L194.241 211.887ZM194.123 212.091C194.112 212.123 194.091 212.156 194.069 212.188L194.145 212.231C194.166 212.199 194.177 212.166 194.198 212.123L194.123 212.091ZM194.016 212.295C193.994 212.338 193.984 212.371 193.962 212.403L194.037 212.446C194.059 212.403 194.069 212.381 194.091 212.338L194.016 212.295ZM193.919 212.51C193.898 212.543 193.887 212.575 193.865 212.618L193.941 212.65C193.951 212.607 193.973 212.575 193.994 212.543L193.919 212.51ZM193.823 212.715C193.801 212.758 193.79 212.79 193.78 212.822L193.855 212.854C193.876 212.822 193.887 212.779 193.898 212.747L193.823 212.715ZM193.726 212.93C193.715 212.962 193.704 213.005 193.683 213.037L193.769 213.069C193.78 213.037 193.79 213.005 193.812 212.962L193.726 212.93ZM193.651 213.155C193.64 213.188 193.629 213.231 193.619 213.263L193.694 213.295C193.715 213.252 193.715 213.22 193.737 213.188L193.651 213.155ZM193.576 213.37C193.565 213.403 193.554 213.446 193.543 213.478L193.629 213.5C193.64 213.467 193.651 213.424 193.662 213.392L193.576 213.37ZM193.511 213.596C193.501 213.629 193.49 213.672 193.479 213.704L193.565 213.725C193.576 213.682 193.586 213.65 193.597 213.618L193.511 213.596ZM193.447 213.822C193.447 213.865 193.425 213.897 193.425 213.94L193.511 213.962C193.522 213.93 193.533 213.887 193.543 213.854L193.447 213.822ZM193.393 214.048C193.382 214.08 193.382 214.123 193.372 214.155L193.458 214.177C193.468 214.145 193.479 214.102 193.479 214.069L193.393 214.048ZM193.34 214.274C193.329 214.306 193.318 214.349 193.307 214.381L193.393 214.403C193.404 214.37 193.415 214.327 193.415 214.284L193.34 214.274ZM193.275 214.499C193.264 214.532 193.254 214.564 193.243 214.607L193.329 214.628C193.34 214.585 193.35 214.553 193.361 214.521L193.275 214.499ZM193.211 214.714C193.2 214.747 193.189 214.79 193.168 214.822L193.254 214.854C193.275 214.822 193.275 214.779 193.286 214.736L193.211 214.714ZM193.136 214.93C193.125 214.973 193.114 215.005 193.093 215.037L193.168 215.069C193.189 215.026 193.189 214.994 193.211 214.962L193.136 214.93ZM193.05 215.145C193.039 215.177 193.018 215.22 193.007 215.252L193.082 215.284C193.093 215.252 193.114 215.209 193.125 215.177L193.05 215.145ZM192.953 215.36C192.942 215.392 192.921 215.424 192.91 215.456L192.985 215.499C193.007 215.456 193.018 215.424 193.039 215.392L192.953 215.36ZM192.857 215.564C192.835 215.596 192.824 215.628 192.803 215.661L192.878 215.704C192.899 215.671 192.91 215.639 192.932 215.607L192.857 215.564ZM192.749 215.768C192.728 215.8 192.717 215.833 192.696 215.865L192.771 215.908C192.792 215.865 192.803 215.843 192.824 215.8L192.749 215.768ZM192.642 215.972L192.577 216.069L192.653 216.112L192.717 216.015L192.642 215.972ZM192.459 216.263L192.535 216.306C192.556 216.273 192.577 216.241 192.599 216.209L192.524 216.166C192.502 216.198 192.481 216.23 192.459 216.263ZM192.331 216.456L192.406 216.499C192.427 216.467 192.449 216.435 192.47 216.403L192.395 216.36C192.374 216.392 192.352 216.424 192.331 216.456ZM192.191 216.639L192.255 216.693C192.277 216.661 192.298 216.628 192.331 216.596L192.266 216.542C192.234 216.575 192.213 216.607 192.191 216.639ZM192.052 216.822L192.116 216.876C192.137 216.843 192.159 216.811 192.191 216.79L192.127 216.736C192.094 216.757 192.073 216.79 192.052 216.822ZM191.901 216.994L191.966 217.048L192.041 216.962L191.976 216.908L191.901 216.994ZM191.751 217.177L191.815 217.23L191.891 217.144L191.826 217.091L191.751 217.177Z" fill="#58595B"/>
<path d="M191.697 217.381L191.611 217.338L191.654 217.263L191.676 217.273L191.686 217.252L191.751 217.306L191.697 217.381Z" fill="#58595B"/>
<path d="M191.043 216.941L191.011 217.016L191.107 217.07L191.15 216.995L191.043 216.941ZM191.247 217.048L191.204 217.124L191.3 217.177L191.343 217.102L191.247 217.048ZM190.839 216.833L190.796 216.909L190.892 216.962L190.935 216.887L190.839 216.833ZM191.451 217.156L191.408 217.231L191.504 217.285L191.547 217.21L191.451 217.156ZM190.646 216.726L190.603 216.801L190.71 216.855L190.753 216.78L190.646 216.726ZM190.431 216.629L190.399 216.704L190.495 216.758L190.538 216.683L190.431 216.629ZM190.238 216.522L190.195 216.597L190.291 216.651L190.334 216.575L190.238 216.522ZM190.023 216.425L189.991 216.5L190.087 216.554L190.13 216.479L190.023 216.425ZM189.819 216.317L189.776 216.393L189.884 216.446L189.916 216.371L189.819 216.317ZM189.615 216.221L189.583 216.296L189.68 216.339L189.723 216.264L189.615 216.221ZM189.411 216.124L189.379 216.199L189.476 216.242L189.519 216.167L189.411 216.124ZM189.207 216.027L189.164 216.102L189.272 216.156L189.304 216.081L189.207 216.027ZM188.993 215.941L188.96 216.016L189.068 216.059L189.1 215.984L188.993 215.941ZM188.778 215.844L188.746 215.919L188.853 215.973L188.885 215.898L188.778 215.844ZM188.574 215.747L188.542 215.823L188.649 215.866L188.681 215.79L188.574 215.747ZM188.37 215.661L188.338 215.737L188.445 215.78L188.477 215.704L188.37 215.661ZM188.155 215.565L188.123 215.64L188.231 215.683L188.263 215.608L188.155 215.565ZM187.941 215.479L187.909 215.554L188.016 215.597L188.048 215.511L187.941 215.479ZM187.737 215.393L187.705 215.468L187.812 215.511L187.844 215.436L187.737 215.393ZM187.522 215.307L187.49 215.393L187.597 215.436L187.63 215.36L187.522 215.307ZM187.308 215.221L187.275 215.296L187.383 215.339L187.415 215.253L187.308 215.221ZM187.093 215.135L187.061 215.221L187.168 215.264L187.2 215.188L187.093 215.135ZM186.878 215.059L186.846 215.145L186.953 215.188L186.986 215.102L186.878 215.059ZM186.664 214.984L186.631 215.07L186.739 215.113L186.771 215.027L186.664 214.984ZM186.449 214.909L186.417 214.995L186.524 215.038L186.556 214.952L186.449 214.909ZM186.234 214.834L186.202 214.92L186.309 214.952L186.342 214.877L186.234 214.834ZM186.02 214.758L185.987 214.844L186.095 214.877L186.127 214.801L186.02 214.758ZM185.805 214.683L185.773 214.758L185.88 214.791L185.912 214.715L185.805 214.683ZM185.579 214.619L185.558 214.704L185.665 214.737L185.698 214.662L185.579 214.619ZM185.365 214.543L185.343 214.629L185.451 214.662L185.472 214.586L185.365 214.543ZM185.139 214.479L185.118 214.554L185.225 214.586L185.247 214.5L185.139 214.479ZM184.925 214.425L184.903 214.511L185.011 214.543L185.032 214.457L184.925 214.425ZM184.699 214.36L184.678 214.446L184.785 214.479L184.807 214.393L184.699 214.36ZM184.485 214.296L184.463 214.382L184.571 214.414L184.592 214.328L184.485 214.296ZM184.27 214.242L184.249 214.328L184.367 214.35L184.388 214.264L184.27 214.242Z" fill="#58595B"/>
<path d="M184.055 214.274L184.023 214.209L184.098 214.166L184.12 214.198L184.152 214.209L184.13 214.295L184.055 214.274Z" fill="#58595B"/>
<path d="M187.243 207.576L187.275 207.651L187.318 207.63L187.383 207.598L187.35 207.533L187.34 207.512L187.243 207.576ZM187.028 207.673L187.061 207.748L187.168 207.705L187.136 207.63L187.028 207.673ZM186.814 207.759L186.846 207.834L186.953 207.791L186.921 207.716L186.814 207.759ZM186.61 207.845L186.642 207.931L186.749 207.888L186.717 207.813L186.61 207.845ZM186.395 207.931L186.427 208.017L186.535 207.974L186.503 207.888L186.395 207.931ZM186.181 208.017L186.213 208.092L186.309 208.049L186.277 207.963L186.181 208.017ZM185.977 208.114L186.009 208.189L186.116 208.146L186.084 208.071L185.977 208.114ZM185.773 208.2L185.805 208.275L185.912 208.232L185.88 208.157L185.773 208.2ZM185.558 208.286L185.59 208.361L185.698 208.318L185.665 208.243L185.558 208.286ZM185.343 208.372L185.376 208.447L185.483 208.404L185.451 208.329L185.343 208.372ZM185.139 208.469L185.172 208.544L185.279 208.501L185.247 208.426L185.139 208.469ZM184.925 208.555L184.957 208.63L185.064 208.587L185.032 208.512L184.925 208.555ZM184.71 208.641L184.732 208.684L184.742 208.716L184.764 208.705L184.85 208.673L184.817 208.598L184.71 208.641ZM184.506 208.727L184.528 208.759L184.549 208.813L184.581 208.802L184.656 208.77L184.624 208.684L184.506 208.727ZM184.291 208.813L184.324 208.888L184.42 208.845L184.388 208.759L184.291 208.813ZM184.088 208.909L184.12 208.985L184.227 208.942L184.195 208.866L184.088 208.909ZM183.873 208.995L183.905 209.071L184.012 209.028L183.98 208.952L183.873 208.995ZM183.658 209.082L183.69 209.157L183.798 209.114L183.766 209.038L183.658 209.082ZM183.454 209.167L183.486 209.243L183.594 209.2L183.562 209.125L183.454 209.167ZM183.24 209.264L183.272 209.34L183.379 209.297L183.347 209.221L183.24 209.264ZM183.025 209.35L183.057 209.426L183.079 209.415L183.154 209.383L183.122 209.307L183.079 209.329L183.025 209.35ZM182.821 209.436L182.853 209.512L182.907 209.49L182.961 209.469L182.928 209.393L182.907 209.404L182.821 209.436ZM182.606 209.522L182.639 209.608L182.746 209.565L182.714 209.479L182.606 209.522ZM182.402 209.608L182.435 209.684L182.531 209.641L182.499 209.555L182.402 209.608ZM182.188 209.694L182.22 209.77L182.327 209.727L182.295 209.651L182.188 209.694ZM181.973 209.802L182.027 209.866C182.048 209.856 182.059 209.845 182.07 209.845L182.123 209.823L182.091 209.748L182.037 209.77C182.016 209.77 181.995 209.791 181.973 209.802ZM181.887 209.909C181.887 209.909 181.876 209.92 181.876 209.931C181.866 209.963 181.855 209.995 181.855 210.028H181.941C181.941 210.006 181.941 209.985 181.952 209.952L181.962 209.931L181.887 209.909ZM181.898 210.167L181.952 210.264L182.027 210.221L181.973 210.124L181.898 210.167ZM182.005 210.361L182.059 210.458L182.134 210.415L182.08 210.318L182.005 210.361ZM182.113 210.565L182.166 210.662L182.241 210.619L182.188 210.522L182.113 210.565ZM182.209 210.77L182.263 210.866L182.338 210.823L182.284 210.727L182.209 210.77ZM182.327 210.974L182.381 211.071L182.456 211.028L182.402 210.931L182.327 210.974ZM182.424 211.178L182.478 211.275L182.553 211.232L182.499 211.135L182.424 211.178ZM182.531 211.382L182.585 211.479L182.66 211.436L182.606 211.339L182.531 211.382ZM182.639 211.576L182.692 211.673L182.767 211.63L182.714 211.533L182.639 211.576ZM182.746 211.78L182.8 211.877L182.875 211.834L182.821 211.737L182.746 211.78ZM182.853 211.985L182.907 212.081L182.982 212.038L182.928 211.931L182.853 211.985ZM182.961 212.189L183.014 212.286L183.089 212.243L183.079 212.221L183.036 212.146L182.961 212.189ZM183.068 212.393L183.122 212.49L183.197 212.447L183.143 212.35L183.068 212.393ZM183.175 212.597L183.229 212.694L183.304 212.651L183.25 212.554L183.175 212.597ZM183.283 212.791L183.336 212.888L183.411 212.845L183.358 212.748L183.283 212.791ZM183.379 212.995L183.433 213.092L183.508 213.049L183.454 212.952L183.379 212.995ZM183.486 213.199L183.54 213.296L183.615 213.253L183.562 213.156L183.486 213.199ZM183.594 213.404L183.647 213.501L183.723 213.458L183.669 213.361L183.594 213.404ZM183.701 213.597L183.755 213.694L183.83 213.651L183.776 213.554L183.701 213.597ZM183.808 213.802L183.862 213.898L183.937 213.855L183.884 213.759L183.808 213.802ZM183.916 214.006L183.969 214.103L184.045 214.06L183.991 213.963L183.916 214.006Z" fill="#58595B"/>
<path d="M182.692 209.952C182.606 210.178 182.724 210.436 182.95 210.522C183.175 210.608 183.433 210.49 183.519 210.264C183.604 210.038 183.486 209.78 183.261 209.694C183.207 209.673 183.164 209.662 183.1 209.673C183.036 209.673 182.971 209.684 182.918 209.716C182.821 209.748 182.735 209.834 182.692 209.952ZM182.821 209.995C182.842 209.931 182.885 209.888 182.939 209.856C182.993 209.813 183.057 209.802 183.121 209.802C183.154 209.802 183.186 209.813 183.207 209.823C183.368 209.877 183.443 210.06 183.379 210.221C183.325 210.382 183.143 210.458 182.982 210.393C182.842 210.329 182.757 210.157 182.821 209.995ZM184.85 209.038C184.817 209.071 184.807 209.103 184.785 209.146C184.699 209.382 184.817 209.64 185.043 209.716C185.268 209.802 185.526 209.684 185.612 209.458C185.697 209.221 185.579 208.974 185.354 208.888C185.236 208.845 185.107 208.856 185 208.909C184.946 208.942 184.892 208.985 184.85 209.038ZM184.957 209.135C184.989 209.081 185.043 209.038 185.107 209.017C185.172 208.995 185.247 208.995 185.322 209.017C185.483 209.081 185.558 209.253 185.494 209.415C185.44 209.576 185.257 209.651 185.096 209.597C184.946 209.533 184.86 209.361 184.925 209.2C184.925 209.178 184.935 209.157 184.957 209.135Z" fill="#E6E7E8"/>
<path d="M183.175 210.07C183.186 210.123 183.154 210.177 183.1 210.188C183.079 210.188 183.068 210.188 183.046 210.188C183.014 210.177 182.993 210.145 182.982 210.113C182.971 210.048 182.757 208.898 183.025 208.188C183.036 208.167 183.046 208.145 183.046 208.123C183.079 208.048 183.122 207.984 183.165 207.919C183.218 207.855 183.272 207.79 183.347 207.747C183.626 207.564 184.012 207.618 184.506 207.898C184.41 207.919 184.313 207.941 184.216 207.962C183.884 207.801 183.637 207.79 183.454 207.908C183.444 207.919 183.422 207.93 183.411 207.941C183.358 207.984 183.315 208.048 183.272 208.113C183.261 208.124 183.261 208.134 183.25 208.145C182.993 208.661 183.089 209.661 183.175 210.07Z" fill="#231F20"/>
<path d="M185.215 209.263C185.172 209.295 185.118 209.295 185.075 209.263C184.764 208.951 183.98 208.263 183.368 208.134C183.336 208.123 183.293 208.123 183.261 208.113C183.186 208.102 183.111 208.102 183.046 208.123C183.014 208.134 182.993 208.134 182.961 208.145C182.918 208.155 182.885 208.188 182.843 208.209C182.746 208.22 182.649 208.231 182.553 208.242C182.639 208.112 182.757 208.016 182.896 207.962C182.982 207.93 183.068 207.908 183.165 207.908C183.24 207.908 183.326 207.919 183.401 207.93C183.519 207.951 183.637 207.994 183.755 208.048C184.463 208.36 185.172 209.069 185.215 209.112C185.258 209.155 185.258 209.22 185.215 209.263Z" fill="#231F20"/>
<path d="M186.932 208.232C186.867 208.361 186.867 208.511 186.932 208.63C186.964 208.716 187.039 208.78 187.125 208.834C187.339 208.952 187.608 208.866 187.715 208.64C187.833 208.425 187.747 208.157 187.533 208.038C187.415 207.985 187.286 207.974 187.178 208.017C187.168 208.017 187.168 208.017 187.157 208.028C187.103 208.049 187.05 208.081 187.007 208.114C186.985 208.157 186.964 208.2 186.932 208.232ZM187.071 208.286C187.082 208.275 187.093 208.253 187.103 208.243C187.146 208.2 187.2 208.157 187.264 208.146C187.329 208.124 187.404 208.135 187.479 208.167C187.629 208.243 187.694 208.436 187.608 208.576C187.533 208.726 187.35 208.791 187.2 208.705C187.071 208.64 187.007 208.49 187.039 208.361C187.039 208.35 187.039 208.35 187.039 208.35C187.05 208.329 187.05 208.307 187.06 208.296C187.06 208.296 187.06 208.296 187.071 208.286Z" fill="#E6E7E8"/>
<path d="M187.382 208.523C187.339 208.544 187.275 208.533 187.254 208.49C187.103 208.222 186.717 207.63 186.298 207.372C186.159 207.286 186.019 207.232 185.89 207.243C185.697 207.254 185.526 207.404 185.375 207.662C185.289 207.684 185.204 207.705 185.128 207.738C185.322 207.308 185.579 207.071 185.88 207.05C186.105 207.028 186.32 207.136 186.524 207.286C187.017 207.662 187.404 208.351 187.425 208.394C187.447 208.437 187.425 208.501 187.382 208.523Z" fill="#231F20"/>
<path d="M144.37 179.446L149.869 184.824L158.132 176.347L152.634 170.969L144.37 179.446Z" fill="#F7C19B"/>
<path d="M148.893 185.987L148.85 187.901L148.785 188.481C148.743 188.814 148.614 189.137 148.399 189.406L147.562 190.427C147.358 190.685 146.982 190.718 146.725 190.513L145.587 189.578L145.823 189.288L145.211 188.782L144.975 189.072L143.591 187.987L143.784 187.75L143.14 187.223L142.925 187.481L141.401 186.223L141.433 184.578C139.93 183.933 138.481 183.46 137.097 183.234C137.022 183.234 135.476 181.965 135.508 181.922L135.702 181.697L135.1 181.202L134.907 181.428C134.381 181.052 133.888 180.654 133.437 180.224L133.641 179.976L133.05 179.493L132.889 179.686C132.374 179.256 131.966 178.826 131.666 178.396L131.816 178.202L131.29 177.643L131.151 177.815C130.839 177.482 130.603 177.127 130.399 176.751L130.592 176.579L130.249 175.934L129.981 176.03C129.605 175.332 129.283 174.665 129.047 174.031C129.047 174.031 129.594 173.17 130.109 173.525L136.882 177.944L145.748 183.406L148.893 185.987Z" fill="#333333"/>
<path d="M150.513 186.385C150.202 186.772 149.848 187.116 149.462 187.427L148.85 187.911C146.499 185.901 144.127 184.256 141.723 183.127C141.229 182.89 140.725 182.675 140.22 182.492C135.916 180.901 132.589 177.858 130.109 173.547L130.571 172.988C130.914 172.568 131.494 172.45 131.966 172.708L135.068 174.353C135.616 174.644 136.163 174.955 136.71 175.256C138.245 176.106 139.92 176.59 141.701 176.751C141.798 176.762 141.895 176.772 142.002 176.772C142.056 176.772 142.12 176.783 142.174 176.783C141.766 177.428 141.744 178.6 141.744 178.665C141.744 178.697 141.766 178.729 141.787 178.751C141.798 178.761 141.819 178.761 141.841 178.761C141.895 178.761 141.938 178.718 141.938 178.665C141.948 178.245 142.045 177.245 142.399 176.794C142.442 176.794 142.485 176.794 142.528 176.805C143.097 177.063 143.73 177.891 143.977 178.256C144.009 178.299 144.063 178.31 144.106 178.288C144.149 178.256 144.159 178.202 144.138 178.159C144.106 178.106 143.558 177.267 142.925 176.815C143.075 176.815 143.236 176.815 143.387 176.815C143.483 176.815 143.58 176.815 143.676 176.805C143.891 176.805 144.106 176.783 144.32 176.772C144.406 176.772 144.492 176.762 144.578 176.751C144.9 176.729 145.211 176.697 145.544 176.654C145.898 176.987 146.156 177.643 146.252 177.944C146.263 177.998 146.327 178.02 146.37 178.009C146.424 177.998 146.446 177.944 146.435 177.891C146.424 177.848 146.188 177.095 145.78 176.622C145.909 176.6 146.038 176.59 146.166 176.568C146.381 176.536 146.607 176.59 146.778 176.719L153.154 181.578C153.39 181.761 153.422 182.095 153.229 182.32L152.606 183.03C152.145 183.557 151.769 184.148 151.479 184.793C151.243 185.363 150.911 185.901 150.513 186.385Z" fill="#58595B"/>
<path d="M141.851 178.762C141.83 178.762 141.819 178.751 141.798 178.751C141.766 178.729 141.755 178.697 141.755 178.665C141.755 178.6 141.787 177.428 142.184 176.783C142.259 176.783 142.334 176.794 142.41 176.794C142.055 177.246 141.948 178.245 141.948 178.665C141.948 178.719 141.905 178.762 141.851 178.762ZM144.116 178.278C144.073 178.31 144.009 178.288 143.987 178.245C143.751 177.88 143.118 177.052 142.538 176.794C142.667 176.794 142.796 176.805 142.936 176.805C143.569 177.256 144.116 178.095 144.148 178.149C144.17 178.192 144.159 178.256 144.116 178.278Z" fill="#231F20"/>
<path d="M146.381 177.998C146.327 178.02 146.274 177.988 146.263 177.934C146.177 177.643 145.909 176.988 145.555 176.644C145.63 176.633 145.716 176.622 145.791 176.611C146.199 177.084 146.435 177.826 146.446 177.88C146.467 177.934 146.435 177.988 146.381 177.998Z" fill="#303030"/>
<path d="M150.514 186.384C150.203 186.771 149.848 187.115 149.462 187.427L148.85 187.91C146.5 185.9 144.127 184.255 141.723 183.126L140.392 178.492C140.317 178.223 140.489 177.954 140.757 177.9L146.789 176.729L153.165 181.588C153.401 181.771 153.433 182.104 153.24 182.33L152.618 183.04C152.156 183.567 151.78 184.158 151.491 184.803C151.244 185.362 150.911 185.9 150.514 186.384Z" fill="#414042"/>
<path d="M146.682 177.083L146.66 176.997L146.735 176.986L146.8 177.029L146.746 177.105L146.714 177.083H146.682Z" fill="#58595B"/>
<path d="M152.789 181.609L152.735 181.673L152.832 181.748L152.886 181.684L152.789 181.609ZM152.607 181.458L152.553 181.533L152.639 181.598L152.692 181.533L152.607 181.458ZM152.424 181.318L152.37 181.383L152.467 181.458L152.521 181.383L152.424 181.318ZM152.242 181.178L152.188 181.254L152.274 181.318L152.328 181.254L152.242 181.178ZM152.918 181.813C152.939 181.834 152.961 181.867 152.961 181.899L153.047 181.877C153.036 181.834 153.014 181.791 152.982 181.759L152.918 181.813ZM152.059 181.039L152.006 181.103L152.102 181.178L152.156 181.114L152.059 181.039ZM151.866 180.899L151.812 180.974L151.909 181.049L151.963 180.974L151.866 180.899ZM151.684 180.759L151.63 180.834L151.716 180.899L151.769 180.834L151.684 180.759ZM151.501 180.619L151.447 180.684L151.533 180.759L151.587 180.684L151.501 180.619ZM151.319 180.48L151.276 180.544L151.362 180.609L151.415 180.544L151.319 180.48ZM151.136 180.329L151.082 180.394L151.179 180.469L151.233 180.404L151.136 180.329ZM150.954 180.2L150.9 180.265L150.997 180.34L151.05 180.265L150.954 180.2ZM150.76 180.05L150.707 180.125L150.793 180.189L150.846 180.125L150.76 180.05ZM150.578 179.91L150.524 179.974L150.621 180.05L150.675 179.974L150.578 179.91ZM150.396 179.77L150.342 179.845L150.438 179.921L150.492 179.845L150.396 179.77ZM150.213 179.63L150.159 179.705L150.245 179.77L150.299 179.705L150.213 179.63ZM150.031 179.49L149.977 179.555L150.074 179.63L150.116 179.566L150.031 179.49ZM149.837 179.351L149.784 179.426L149.87 179.49L149.923 179.426L149.837 179.351ZM149.655 179.211L149.601 179.286L149.687 179.351L149.741 179.286L149.655 179.211ZM149.472 179.071L149.419 179.146L149.505 179.211L149.558 179.136L149.472 179.071ZM149.29 178.931L149.247 179.007L149.333 179.071L149.387 179.007L149.29 178.931ZM149.108 178.792L149.065 178.867L149.15 178.931L149.204 178.856L149.108 178.792ZM148.914 178.652L148.861 178.727L148.957 178.802L149.011 178.727L148.914 178.652ZM148.732 178.512L148.678 178.577L148.775 178.652L148.828 178.587L148.732 178.512ZM152.972 181.996C152.972 182.028 152.961 182.06 152.939 182.092L153.014 182.135C153.047 182.103 153.057 182.049 153.057 182.006L152.972 181.996ZM148.549 178.372L148.506 178.448L148.592 178.512L148.635 178.448L148.549 178.372ZM148.367 178.222L148.313 178.297L148.399 178.361L148.453 178.297L148.367 178.222ZM148.184 178.082L148.131 178.146L148.227 178.222L148.281 178.157L148.184 178.082ZM148.002 177.953L147.948 178.017L148.045 178.093L148.099 178.017L148.002 177.953ZM147.809 177.802L147.755 177.878L147.841 177.942L147.895 177.878L147.809 177.802ZM147.626 177.663L147.573 177.727L147.669 177.802L147.723 177.727L147.626 177.663ZM147.444 177.523L147.39 177.598L147.476 177.663L147.53 177.598L147.444 177.523ZM147.261 177.383L147.208 177.448L147.304 177.523L147.358 177.458L147.261 177.383ZM147.079 177.243L147.025 177.319L147.122 177.394L147.176 177.319L147.079 177.243ZM146.896 177.104L146.843 177.168L146.939 177.243L146.993 177.179L146.896 177.104ZM152.875 182.168L152.8 182.254L152.864 182.307L152.939 182.221L152.875 182.168ZM152.714 182.34L152.639 182.426L152.703 182.479L152.778 182.393L152.714 182.34ZM152.564 182.512L152.489 182.598L152.553 182.651L152.628 182.565L152.564 182.512ZM152.413 182.694L152.338 182.781L152.403 182.834L152.478 182.748L152.413 182.694ZM152.263 182.867L152.188 182.953L152.252 183.006L152.328 182.92L152.263 182.867ZM152.113 183.049C152.081 183.082 152.07 183.114 152.038 183.135L152.102 183.189C152.134 183.157 152.145 183.125 152.177 183.103L152.113 183.049ZM151.973 183.232C151.952 183.264 151.93 183.297 151.909 183.318L151.973 183.372C151.995 183.34 152.016 183.307 152.048 183.275L151.973 183.232ZM151.834 183.415C151.812 183.447 151.791 183.479 151.769 183.512L151.845 183.565C151.866 183.533 151.887 183.501 151.909 183.469L151.834 183.415ZM151.705 183.608C151.684 183.641 151.662 183.673 151.641 183.705L151.716 183.748C151.737 183.716 151.759 183.684 151.78 183.651L151.705 183.608ZM151.576 183.813C151.555 183.845 151.533 183.877 151.523 183.909L151.598 183.952C151.619 183.92 151.641 183.888 151.662 183.856L151.576 183.813ZM151.469 184.006C151.447 184.038 151.426 184.071 151.404 184.114L151.48 184.157C151.501 184.125 151.523 184.092 151.533 184.06L151.469 184.006ZM151.351 184.211C151.329 184.243 151.308 184.275 151.297 184.307L151.383 184.35L151.437 184.254L151.351 184.211ZM151.254 184.426C151.233 184.458 151.222 184.501 151.201 184.533L151.286 184.576C151.297 184.544 151.319 184.501 151.34 184.469L151.254 184.426ZM151.147 184.63C151.136 184.662 151.115 184.705 151.104 184.737L151.179 184.77C151.201 184.737 151.211 184.705 151.233 184.662L151.147 184.63ZM151.05 184.845C151.029 184.877 151.018 184.909 150.997 184.952L151.072 184.985C151.093 184.952 151.104 184.92 151.125 184.877L151.05 184.845ZM150.954 185.049C150.932 185.081 150.921 185.124 150.9 185.146L150.975 185.189C150.997 185.157 151.007 185.114 151.04 185.081L150.954 185.049ZM150.836 185.253C150.814 185.286 150.803 185.318 150.782 185.35L150.857 185.393C150.879 185.361 150.889 185.329 150.921 185.296L150.836 185.253ZM150.718 185.447C150.696 185.479 150.675 185.511 150.653 185.544L150.728 185.598C150.75 185.565 150.771 185.533 150.793 185.501L150.718 185.447ZM150.589 185.641C150.567 185.673 150.546 185.705 150.524 185.737L150.599 185.791C150.621 185.759 150.642 185.727 150.664 185.694L150.589 185.641ZM150.46 185.823C150.438 185.856 150.417 185.888 150.385 185.92L150.46 185.974C150.481 185.952 150.503 185.909 150.524 185.888L150.46 185.823ZM150.32 186.006C150.299 186.038 150.277 186.071 150.245 186.092L150.31 186.146C150.331 186.124 150.363 186.092 150.385 186.06L150.32 186.006ZM150.17 186.189C150.149 186.221 150.127 186.253 150.095 186.275L150.159 186.329C150.192 186.296 150.213 186.275 150.235 186.243L150.17 186.189ZM150.02 186.361L149.945 186.447L150.009 186.511L150.084 186.425L150.02 186.361ZM149.784 186.608L149.848 186.662C149.88 186.64 149.902 186.608 149.923 186.587L149.859 186.522C149.837 186.554 149.816 186.587 149.784 186.608ZM149.612 186.769L149.676 186.834C149.709 186.812 149.73 186.78 149.762 186.759L149.698 186.694C149.676 186.726 149.644 186.748 149.612 186.769ZM149.451 186.931L149.505 186.995C149.537 186.974 149.569 186.941 149.591 186.92L149.537 186.855C149.505 186.877 149.483 186.898 149.451 186.931ZM149.269 187.071L149.322 187.135C149.354 187.114 149.376 187.081 149.408 187.06L149.354 186.995C149.333 187.028 149.301 187.049 149.269 187.071ZM149.086 187.221L149.14 187.286L149.226 187.21L149.172 187.146L149.086 187.221ZM148.914 187.361L148.968 187.425L149.065 187.35L149.011 187.286L148.914 187.361Z" fill="#58595B"/>
<path d="M148.807 187.557L148.743 187.492L148.796 187.428L148.807 187.438L148.829 187.428L148.882 187.492L148.807 187.557Z" fill="#58595B"/>
<path d="M148.27 186.986L148.217 187.051L148.303 187.126L148.356 187.061L148.27 186.986ZM148.442 187.126L148.388 187.19L148.474 187.266L148.528 187.201L148.442 187.126ZM148.088 186.846L148.034 186.911L148.131 186.986L148.184 186.922L148.088 186.846ZM148.614 187.276L148.56 187.341L148.646 187.416L148.7 187.352L148.614 187.276ZM147.916 186.696L147.862 186.76L147.948 186.836L148.002 186.771L147.916 186.696ZM147.734 186.556L147.68 186.62L147.766 186.685L147.82 186.62L147.734 186.556ZM147.551 186.416L147.498 186.481L147.594 186.556L147.648 186.481L147.551 186.416ZM147.369 186.276L147.315 186.341L147.401 186.416L147.455 186.352L147.369 186.276ZM147.186 186.137L147.133 186.212L147.218 186.276L147.272 186.212L147.186 186.137ZM147.015 185.997L146.961 186.061L147.047 186.137L147.1 186.072L147.015 185.997ZM146.821 185.857L146.768 185.922L146.864 185.997L146.907 185.932L146.821 185.857ZM146.639 185.717L146.585 185.793L146.671 185.857L146.725 185.782L146.639 185.717ZM146.456 185.578L146.403 185.653L146.489 185.717L146.542 185.653L146.456 185.578ZM146.274 185.449L146.22 185.524L146.306 185.588L146.36 185.513L146.274 185.449ZM146.091 185.32L146.038 185.395L146.124 185.459L146.177 185.384L146.091 185.32ZM145.898 185.18L145.855 185.255L145.952 185.32L146.006 185.244L145.898 185.18ZM145.716 185.061L145.673 185.126L145.759 185.19L145.812 185.115L145.716 185.061ZM145.523 184.922L145.48 184.997L145.576 185.061L145.619 184.997L145.523 184.922ZM145.34 184.793L145.286 184.868L145.383 184.932L145.426 184.857L145.34 184.793ZM145.147 184.674L145.104 184.75L145.201 184.814L145.254 184.739L145.147 184.674ZM144.954 184.545L144.911 184.621L145.007 184.685L145.05 184.61L144.954 184.545ZM144.761 184.427L144.718 184.502L144.814 184.567L144.857 184.492L144.761 184.427ZM144.567 184.298L144.524 184.373L144.621 184.438L144.664 184.373L144.567 184.298ZM144.374 184.18L144.331 184.255L144.428 184.32L144.471 184.244L144.374 184.18ZM144.181 184.062L144.138 184.137L144.235 184.201L144.278 184.126L144.181 184.062ZM143.977 183.943L143.934 184.019L144.031 184.083L144.074 184.008L143.977 183.943ZM143.784 183.825L143.741 183.9L143.837 183.954L143.88 183.879L143.784 183.825ZM143.591 183.707L143.548 183.782L143.644 183.836L143.687 183.76L143.591 183.707ZM143.387 183.599L143.344 183.674L143.44 183.728L143.483 183.653L143.387 183.599ZM143.183 183.492L143.14 183.567L143.236 183.621L143.279 183.545L143.183 183.492ZM142.99 183.384L142.947 183.459L143.043 183.513L143.086 183.438L142.99 183.384ZM142.786 183.266L142.743 183.341L142.85 183.395L142.893 183.32L142.786 183.266ZM142.582 183.169L142.539 183.244L142.646 183.298L142.678 183.223L142.582 183.169ZM142.378 183.062L142.346 183.137L142.442 183.191L142.485 183.115L142.378 183.062ZM142.174 182.965L142.142 183.04L142.238 183.094L142.281 183.019L142.174 182.965Z" fill="#58595B"/>
<path d="M141.959 182.954L141.938 182.879L142.023 182.857L142.034 182.9L142.066 182.911L142.034 182.986L141.959 182.954Z" fill="#58595B"/>
<path d="M146.435 177.051L146.456 177.137L146.563 177.115L146.553 177.029L146.435 177.051ZM146.209 177.083L146.22 177.169L146.327 177.148L146.317 177.062L146.209 177.083ZM145.995 177.137L146.005 177.223L146.123 177.201L146.113 177.115L145.995 177.137ZM145.769 177.18L145.78 177.266L145.898 177.244L145.877 177.158L145.769 177.18ZM145.544 177.223L145.555 177.309L145.673 177.287L145.651 177.201L145.544 177.223ZM145.318 177.266L145.329 177.352L145.447 177.33L145.426 177.244L145.318 177.266ZM145.093 177.309L145.104 177.395L145.222 177.373L145.2 177.287L145.093 177.309ZM144.868 177.352L144.889 177.438L144.996 177.416L144.975 177.33L144.868 177.352ZM144.642 177.395L144.664 177.481L144.771 177.459L144.76 177.373L144.642 177.395ZM144.417 177.438L144.438 177.524L144.546 177.502L144.535 177.416L144.417 177.438ZM144.202 177.481L144.213 177.567L144.32 177.545L144.309 177.459L144.202 177.481ZM143.977 177.524L143.987 177.61L144.095 177.588L144.084 177.502L143.977 177.524ZM143.751 177.567L143.762 177.61L143.773 177.642H143.794L143.891 177.631L143.869 177.545L143.751 177.567ZM143.526 177.61L143.537 177.653L143.547 177.696H143.569L143.655 177.685L143.633 177.599L143.526 177.61ZM143.301 177.653L143.311 177.739L143.429 177.717L143.408 177.631L143.301 177.653ZM143.075 177.707L143.086 177.793L143.204 177.771L143.182 177.685L143.075 177.707ZM142.85 177.75L142.871 177.836L142.979 177.814L142.957 177.728L142.85 177.75ZM142.624 177.793L142.646 177.879L142.753 177.857L142.742 177.771L142.624 177.793ZM142.399 177.836L142.42 177.922L142.528 177.9L142.517 177.814L142.399 177.836ZM142.184 177.868L142.195 177.954L142.302 177.932L142.292 177.846L142.184 177.868ZM141.959 177.922L141.97 178.008L142.002 177.997L142.077 177.986L142.066 177.9L142.013 177.911L141.959 177.922ZM141.733 177.965L141.755 178.051L141.809 178.04L141.862 178.029L141.852 177.943H141.819L141.733 177.965ZM141.508 178.008L141.519 178.094L141.637 178.072L141.615 177.986L141.508 178.008ZM141.283 178.051L141.293 178.137L141.411 178.115L141.39 178.029L141.283 178.051ZM141.068 178.094L141.079 178.18L141.197 178.158L141.175 178.072L141.068 178.094ZM140.832 178.147L140.864 178.234C140.875 178.223 140.896 178.223 140.907 178.223L140.961 178.212L140.939 178.126L140.886 178.137C140.875 178.126 140.853 178.137 140.832 178.147ZM140.725 178.234C140.714 178.244 140.714 178.255 140.703 178.255C140.682 178.287 140.671 178.32 140.66 178.352L140.746 178.373C140.746 178.352 140.757 178.33 140.767 178.309C140.767 178.298 140.778 178.298 140.778 178.287L140.725 178.234ZM140.682 178.481L140.714 178.588L140.8 178.567L140.767 178.459L140.682 178.481ZM140.746 178.707L140.778 178.814L140.864 178.793L140.832 178.685L140.746 178.707ZM140.81 178.932L140.843 179.04L140.928 179.018L140.896 178.911L140.81 178.932ZM140.875 179.147L140.907 179.255L140.993 179.233L140.961 179.126L140.875 179.147ZM140.928 179.362L140.961 179.47L141.047 179.448L141.014 179.341L140.928 179.362ZM140.993 179.588L141.025 179.696L141.111 179.674L141.079 179.556L140.993 179.588ZM141.057 179.803L141.089 179.911L141.175 179.889L141.143 179.782L141.057 179.803ZM141.122 180.029L141.154 180.137L141.24 180.115L141.208 180.008L141.122 180.029ZM141.186 180.244L141.218 180.352L141.304 180.33L141.272 180.223L141.186 180.244ZM141.25 180.47L141.283 180.577L141.369 180.556L141.336 180.448L141.25 180.47ZM141.315 180.685L141.347 180.792L141.433 180.771L141.422 180.739L141.401 180.663L141.315 180.685ZM141.369 180.9L141.401 181.007L141.487 180.986L141.454 180.878L141.369 180.9ZM141.433 181.126L141.465 181.233L141.551 181.212L141.519 181.104L141.433 181.126ZM141.497 181.341L141.53 181.448L141.615 181.427L141.583 181.319L141.497 181.341ZM141.562 181.567L141.594 181.674L141.68 181.653L141.648 181.545L141.562 181.567ZM141.626 181.782L141.658 181.889L141.744 181.868L141.712 181.76L141.626 181.782ZM141.691 181.997L141.723 182.115L141.798 182.093L141.766 181.986L141.691 181.997ZM141.755 182.222L141.787 182.33L141.873 182.308L141.841 182.201L141.755 182.222ZM141.819 182.448L141.852 182.556L141.937 182.534L141.905 182.427L141.819 182.448ZM141.884 182.663L141.916 182.771L142.002 182.749L141.97 182.642L141.884 182.663Z" fill="#58595B"/>
<path d="M141.497 178.439C141.368 178.643 141.433 178.922 141.637 179.051C141.841 179.18 142.12 179.116 142.249 178.912C142.377 178.707 142.313 178.428 142.109 178.299C142.066 178.277 142.012 178.245 141.969 178.234C141.905 178.223 141.841 178.223 141.776 178.234C141.669 178.267 141.572 178.331 141.497 178.439ZM141.615 178.514C141.647 178.46 141.701 178.417 141.766 178.396C141.83 178.363 141.894 178.363 141.959 178.385C141.991 178.396 142.012 178.396 142.045 178.417C142.195 178.503 142.227 178.697 142.141 178.836C142.055 178.976 141.862 179.019 141.723 178.933C141.572 178.847 141.529 178.654 141.615 178.514ZM143.805 177.987C143.773 178.008 143.74 178.051 143.719 178.084C143.59 178.288 143.644 178.568 143.859 178.697C144.062 178.826 144.342 178.761 144.47 178.557C144.599 178.353 144.545 178.073 144.331 177.944C144.223 177.869 144.084 177.858 143.977 177.89C143.901 177.912 143.848 177.944 143.805 177.987ZM143.88 178.105C143.934 178.051 143.987 178.03 144.062 178.019C144.127 178.008 144.191 178.019 144.256 178.062C144.395 178.159 144.438 178.342 144.352 178.482C144.256 178.621 144.073 178.664 143.934 178.578C143.794 178.482 143.751 178.299 143.837 178.159C143.848 178.137 143.869 178.116 143.88 178.105Z" fill="#E6E7E8"/>
<path d="M141.948 178.664C141.948 178.717 141.905 178.76 141.851 178.76C141.83 178.76 141.819 178.75 141.798 178.75C141.766 178.728 141.755 178.696 141.755 178.664C141.755 178.599 141.787 177.427 142.184 176.782C142.195 176.761 142.206 176.739 142.227 176.728C142.27 176.664 142.324 176.599 142.377 176.556C142.442 176.502 142.506 176.459 142.592 176.427C142.903 176.309 143.268 176.438 143.698 176.814C143.601 176.814 143.504 176.825 143.408 176.825C143.118 176.61 142.871 176.535 142.667 176.61C142.646 176.621 142.635 176.621 142.614 176.631C142.549 176.664 142.495 176.718 142.442 176.771C142.431 176.782 142.42 176.793 142.41 176.804C142.055 177.244 141.959 178.244 141.948 178.664Z" fill="#231F20"/>
<path d="M144.117 178.277C144.074 178.309 144.009 178.288 143.988 178.245C143.752 177.879 143.118 177.051 142.539 176.793C142.507 176.783 142.474 176.761 142.442 176.75C142.367 176.729 142.292 176.707 142.228 176.718C142.195 176.718 142.174 176.718 142.142 176.729C142.099 176.74 142.056 176.75 142.013 176.772C141.916 176.761 141.82 176.761 141.712 176.75C141.83 176.632 141.959 176.568 142.099 176.546C142.185 176.535 142.281 176.535 142.378 176.557C142.453 176.568 142.528 176.6 142.603 176.632C142.711 176.675 142.818 176.74 142.925 176.826C143.559 177.277 144.106 178.116 144.138 178.17C144.17 178.191 144.16 178.256 144.117 178.277Z" fill="#231F20"/>
<path d="M146.006 177.63C145.941 177.705 145.909 177.802 145.909 177.899C145.898 178.028 145.952 178.157 146.07 178.254C146.253 178.415 146.542 178.383 146.693 178.189C146.843 177.996 146.821 177.716 146.628 177.566C146.542 177.49 146.435 177.469 146.328 177.469C146.306 177.469 146.295 177.469 146.285 177.479C146.22 177.49 146.156 177.512 146.113 177.544C146.07 177.555 146.038 177.587 146.006 177.63ZM146.124 177.716C146.134 177.705 146.156 177.684 146.167 177.673C146.22 177.63 146.285 177.609 146.349 177.609C146.424 177.609 146.489 177.63 146.553 177.673C146.682 177.781 146.703 177.974 146.596 178.103C146.489 178.232 146.295 178.254 146.167 178.146C146.027 178.039 146.016 177.845 146.124 177.716Z" fill="#E6E7E8"/>
<path d="M146.381 177.996C146.327 178.018 146.274 177.986 146.263 177.932C146.177 177.641 145.909 176.986 145.555 176.642C145.437 176.523 145.308 176.448 145.179 176.437C144.986 176.416 144.793 176.513 144.589 176.749C144.503 176.76 144.417 176.76 144.331 176.771C144.61 176.384 144.9 176.211 145.2 176.254C145.426 176.287 145.619 176.427 145.791 176.62C146.199 177.093 146.435 177.835 146.446 177.889C146.467 177.932 146.435 177.986 146.381 177.996Z" fill="#231F20"/>
<path d="M146.746 173.686L156.073 180.201L181.447 157.429C184.764 154.45 187.629 153.289 192.749 150.526L215.343 139.86C215.343 139.86 207.014 149.214 199.479 158.611C196.678 162.106 194.735 166.191 193.78 170.557C191.386 181.491 190.098 191.566 187.35 204.275L196.753 207.866C198.685 202.619 207.626 174.696 210.889 172.363C241.865 150.225 247.532 128.872 247.532 128.872L248.616 121.517L239.815 116.109L235.597 113.507L233.117 111.98L225.207 113.722L224.015 113.991L218.863 108.701L216.695 111.174L184.055 135.721C179.558 138.387 175.522 141.763 172.098 145.709L146.746 173.686Z" fill="#333333"/>
<path d="M258.663 70.7143L258.18 66.7683C254.606 69.1552 251.643 68.6714 249.421 64.8652L235.543 75.3053L234.921 81.2511L226.999 103.97L226.924 117.087C227.783 120.581 230.692 122.097 234.76 122.474L239.955 121.173L254.058 100.82L257.632 91.3579C257.632 91.3579 258.233 84.0143 258.051 83.5628C257.869 83.1112 258.663 70.7143 258.663 70.7143Z" fill="#EEEEEE"/>
<path d="M235.457 120.947C235.189 121.377 234.695 121.936 234.749 122.474C235.253 128.344 243.035 132.075 245.482 133.107C245.879 133.279 246.341 133.075 246.491 132.677L260.53 96.0454L262.258 104.496C263.267 109.442 265.543 114.023 268.859 117.818L278.283 128.613L279.002 129.43L280.215 130.817L287.128 124.495L283.908 120.28L283.231 119.388L275.793 109.647C273.861 107.12 272.691 104.066 272.455 100.895C271.049 82.0035 265.403 70.4774 258.18 66.7573C258.158 66.8003 257.31 68.4883 257.257 68.5744C253.683 75.7674 249.464 82.7668 246.48 90.2286C242.735 99.5613 241.522 109.797 236.735 118.721C236.337 119.485 235.919 120.226 235.457 120.947ZM237.98 22.0402L229.007 19.6855L219.658 47.9522C218.144 52.5325 218.907 57.5644 221.719 61.4889C225.744 67.1121 231.11 74.0578 231.54 74.3481C232.27 74.8319 224.005 93.4112 221.558 97.8195C219.325 101.851 217.49 106.539 215.386 110.646C215.204 111.012 215.182 111.442 215.354 111.818C216.91 115.216 220.291 118.614 223.747 120.452C224.627 120.915 225.722 120.506 226.055 119.571C228.341 113.033 230.219 106.217 233.45 100.056C235.189 96.755 237.25 93.68 238.549 90.1534C239.665 87.1429 240.341 83.9818 241.189 80.8853C242.262 77.0146 243.904 73.6062 246.03 70.2409C247.157 68.4453 248.284 66.6605 249.411 64.865C249.207 64.9187 240.459 62.3383 229.457 52.9626L237.98 22.0402Z" fill="#1E88E5"/>
<path d="M250.763 62.0059C250.763 62.0059 253.682 63.2961 257.053 62.1564C257.053 62.1564 254.434 64.3928 249.99 63.6616L250.763 62.0059Z" fill="#EAB896"/>
<path d="M281.911 136.01C281.299 134.881 281.707 133.462 282.834 132.849L292.977 127.269C294.104 126.656 295.521 127.065 296.133 128.194L298.494 132.505L284.272 140.322L281.911 136.01ZM295.381 128.602C294.995 127.892 294.093 127.634 293.385 128.022L283.242 133.602C282.533 133.989 282.276 134.892 282.662 135.602L284.605 139.16L297.324 132.172L295.381 128.602Z" fill="#5B291D"/>
<path d="M274.14 144.57L285.625 165.536C286.312 166.783 287.868 167.235 289.113 166.557L303.549 158.622C304.236 147.742 300.469 139.71 290.83 135.398L274.14 144.57Z" fill="#7F4833"/>
<path d="M290.831 135.398L303.55 158.622L317.986 150.687C319.231 149.999 319.682 148.44 319.006 147.193L307.521 126.227L290.831 135.398Z" fill="#834E34"/>
<path d="M274.129 145.827L277.951 152.805C278.122 153.117 278.466 153.289 278.82 153.224L298.773 149.902C299.492 142.053 295.8 137.322 290.079 134.021L275.181 142.204C273.883 142.913 273.421 144.537 274.129 145.827Z" fill="#633223"/>
<path d="M290.068 134.011L298.762 149.892L312.276 134.818C312.512 134.549 312.565 134.162 312.394 133.85L308.573 126.872C307.864 125.582 306.243 125.109 304.955 125.818L290.068 134.011Z" fill="#683725"/>
<path d="M295.907 149.236L298 153.053C298.129 153.289 298.419 153.364 298.644 153.246L300.147 152.418L297.592 147.752L296.09 148.58C295.864 148.709 295.779 149.01 295.907 149.236Z" fill="#BDBDBD"/>
<path d="M297.603 147.762L300.158 152.428L301.66 151.6C301.896 151.471 301.982 151.181 301.853 150.955L299.76 147.138C299.632 146.912 299.342 146.815 299.116 146.945L297.603 147.762Z" fill="#E0E0E0"/>
<path d="M134.574 187.512C132.17 190.576 131.151 194.543 131.236 198.403C131.247 199.285 131.354 200.231 131.419 201.102C131.269 200.521 131.129 199.93 131.022 199.328C130.346 195.156 131.397 190.458 134.574 187.512Z" fill="#58595B"/>
<path d="M135.401 190.426C133.437 193.802 132.975 197.866 133.587 201.672C133.716 202.543 133.952 203.468 134.134 204.317C133.909 203.758 133.684 203.188 133.49 202.618C132.267 198.576 132.664 193.77 135.401 190.426Z" fill="#58595B"/>
</svg>
