<svg width="90" height="91" viewBox="0 0 90 91" fill="none" xmlns="http://www.w3.org/2000/svg">
<path fill-rule="evenodd" clip-rule="evenodd" d="M55.4273 39.5169C52.2367 39.7948 49.3144 41.0091 46.9366 42.8833C49.5587 43.7347 52.5245 44.1754 55.4273 44.2798V39.5169ZM50.0291 46.5297C49.1875 48.8952 48.738 51.4825 48.6211 54.0492H55.4273V47.0936C53.5403 47.0285 51.7256 46.8339 50.0291 46.5297ZM48.6216 56.8617C48.7491 59.6291 49.2488 62.1914 50.0291 64.3825C51.7256 64.0784 53.5403 63.8838 55.4273 63.8188V56.8617H48.6216ZM51.206 67.0298C52.3619 69.139 53.8318 70.6439 55.4275 71.2078V66.6324C53.9515 66.6854 52.5363 66.8217 51.206 67.0298ZM49.5594 69.7098C49.1124 69.049 48.7114 68.3469 48.3529 67.6171C47.8772 67.7401 47.4053 67.8773 46.9378 68.0286C47.755 68.6728 48.633 69.2359 49.5594 69.7098ZM47.2771 65.0018C46.4546 62.5875 45.933 59.8178 45.8067 56.8617H44.309C43.936 56.8617 43.5784 56.7136 43.3146 56.4499C43.0509 56.1861 42.9028 55.8284 42.9028 55.4555C42.9028 55.0825 43.0509 54.7248 43.3146 54.4611C43.5784 54.1974 43.936 54.0492 44.309 54.0492H45.8072C45.9265 51.2903 46.4003 48.4829 47.2774 45.9106C46.357 45.6578 45.4881 45.3693 44.6803 45.0492C39.5501 51.0351 39.5504 59.8771 44.6811 65.8626C45.4887 65.5429 46.3572 65.2544 47.2771 65.0018ZM48.6958 22.9857C50.3689 22.9857 51.8305 24.0283 52.4064 25.5467H61.5758C61.9488 25.5467 62.3065 25.6948 62.5702 25.9585C62.8339 26.2223 62.9821 26.58 62.9821 26.9529V32.8563C64.956 33.3875 66.852 34.1748 68.6215 35.1983L72.8 31.0196C73.0637 30.7559 73.4214 30.6078 73.7943 30.6078C74.1672 30.6078 74.5249 30.7559 74.7886 31.0196L76.1256 32.3566C74.3463 26.968 69.2914 23.198 63.4461 23.198V23.1926C63.0746 23.1926 62.7184 23.045 62.4557 22.7823C62.193 22.5196 62.0454 22.1633 62.0453 21.7918C62.0453 14.4322 56.0689 8.44789 48.6958 8.44789C45.4421 8.44789 42.4626 9.60945 40.1504 11.5399C37.7993 13.5025 36.1336 16.2531 35.5639 19.3811C35.3892 20.4045 34.1728 20.9315 33.3179 20.2636C29.4845 17.2677 23.9766 17.5848 20.5091 21.0526C18.7416 22.8203 17.6734 25.2227 17.6734 27.8991C17.6734 28.2721 17.5252 28.6298 17.2615 28.8935C16.9978 29.1572 16.6401 29.3054 16.2671 29.3054C10.587 29.3054 5.98148 33.9073 5.97691 39.5872C17.5152 26.9708 37.1354 26.334 49.462 38.1435C56.5618 35.116 64.7438 36.7613 70.1362 42.1538C77.483 49.5005 77.4828 61.4111 70.1362 68.7579C62.7896 76.1047 50.8787 76.1045 43.5321 68.7579C34.9741 60.2 36.6256 45.9454 46.8265 39.5241C34.7226 28.688 15.8302 30.6185 6.18205 43.7509C5.49598 44.6847 4.02152 44.4384 3.69686 43.2905C2.36988 38.5982 3.57574 33.7572 7.00242 30.3307C9.07945 28.2537 11.8505 26.8708 14.9377 26.5597C15.7836 18.6005 23.846 13.4751 31.4214 16.0822C32.0687 16.3053 32.6962 16.5818 33.2975 16.9089C35.4016 10.2621 41.5937 5.63574 48.6963 5.63574C57.1296 5.63574 64.1036 12.1103 64.7914 20.4414C68.6886 20.7635 72.1962 22.4717 74.8201 25.0731C77.609 27.8383 79.3942 31.6164 79.5811 35.8121L81.3635 37.5945C81.6272 37.8582 81.7753 38.2159 81.7753 38.5888C81.7753 38.9618 81.6272 39.3194 81.3635 39.5831L77.1873 43.7594C78.2054 45.5314 78.9902 47.4276 79.5222 49.4009H85.4297C85.8026 49.4009 86.1603 49.549 86.4241 49.8128C86.6878 50.0765 86.8359 50.4342 86.8359 50.8071V60.1049C86.8359 60.4779 86.6878 60.8355 86.4241 61.0993C86.1603 61.363 85.8026 61.5112 85.4297 61.5112H79.5262C78.9951 63.4851 78.2078 65.3811 77.1843 67.1506L81.3628 71.3291C81.6265 71.5928 81.7746 71.9504 81.7746 72.3234C81.7746 72.6963 81.6265 73.054 81.3628 73.3177L74.7882 79.8922C74.5245 80.1559 74.1669 80.3041 73.7939 80.3041C73.421 80.3041 73.0633 80.1559 72.7996 79.8922L68.6234 75.716C66.8513 76.7342 64.9551 77.519 62.9817 78.0508V83.9589C62.9817 84.3319 62.8336 84.6896 62.5698 84.9533C62.3061 85.217 61.9484 85.3652 61.5755 85.3652H52.2777C51.9047 85.3652 51.547 85.217 51.2833 84.9533C51.0196 84.6896 50.8714 84.3319 50.8714 83.9589V78.0555C48.8975 77.5245 47.0016 76.7372 45.2322 75.7137L41.0537 79.8922C40.79 80.1559 40.4323 80.3041 40.0594 80.3041C39.6865 80.3041 39.3288 80.1559 39.0651 79.8922L32.4905 73.3177C32.2268 73.054 32.0787 72.6963 32.0787 72.3234C32.0787 71.9504 32.2268 71.5928 32.4905 71.3291L36.6667 67.1528C35.6486 65.3808 34.8638 63.4845 34.332 61.5112H32.1344C31.1203 64.1857 27.6622 64.9537 25.6187 62.91C23.1251 60.4162 24.9021 56.1377 28.4238 56.1377C30.0966 56.1377 31.5587 57.1803 32.1344 58.6985H35.4361V58.6995C35.7572 58.6997 36.0686 58.8097 36.3184 59.0114C36.5683 59.213 36.7416 59.4942 36.8095 59.808C37.0701 61.016 37.4383 62.1983 37.9097 63.3407C38.37 64.4521 38.9268 65.521 39.5738 66.5352C39.7727 66.8061 39.868 67.1392 39.8425 67.4743C39.817 67.8095 39.6724 68.1244 39.4348 68.362L35.4735 72.3231L40.0595 76.9091L44.0237 72.9448L44.0255 72.9466C44.252 72.7203 44.5491 72.5781 44.8674 72.5438C45.1858 72.5095 45.5064 72.5851 45.7759 72.758C46.8169 73.4282 47.9156 74.0042 49.059 74.4791C50.1769 74.9424 51.3336 75.3057 52.5157 75.5647C52.8426 75.6209 53.1391 75.7908 53.3529 76.0444C53.5666 76.298 53.6839 76.619 53.6839 76.9507V82.5522H60.1692V76.9462H60.1703C60.1704 76.6251 60.2805 76.3137 60.4821 76.0638C60.6838 75.814 60.9649 75.6407 61.2788 75.5728C62.4867 75.3122 63.6689 74.944 64.8113 74.4726C65.9226 74.0122 66.9916 73.4554 68.0057 72.8084C68.2766 72.6095 68.6098 72.5142 68.9449 72.5397C69.28 72.5652 69.5949 72.7098 69.8326 72.9475L73.7937 76.9085L78.3796 72.3226L74.4154 68.3584L74.4172 68.3566C74.1908 68.1301 74.0487 67.833 74.0144 67.5146C73.98 67.1962 74.0556 66.8757 74.2286 66.6062C74.8988 65.5652 75.4747 64.4665 75.9496 63.3231C76.4131 62.2053 76.7764 61.0485 77.0353 59.8664C77.0914 59.5395 77.2613 59.2429 77.515 59.0292C77.7686 58.8154 78.0896 58.6981 78.4213 58.6981H84.0234V52.2128H78.4174V52.2118C78.0963 52.2117 77.785 52.1016 77.5351 51.8999C77.2852 51.6983 77.1119 51.4172 77.044 51.1033C76.7834 49.8954 76.4153 48.7132 75.944 47.5708C75.4837 46.4594 74.9269 45.3905 74.2799 44.3763C74.081 44.1055 73.9856 43.7723 74.0111 43.4372C74.0366 43.102 74.1813 42.7871 74.4189 42.5495L78.3802 38.5884L73.7942 34.0024L69.83 37.9667L69.8282 37.9649C69.6017 38.1913 69.3046 38.3334 68.9862 38.3677C68.6679 38.402 68.3473 38.3264 68.0778 38.1535C67.0368 37.4832 65.938 36.9072 64.7946 36.4324C63.6767 35.9691 62.5199 35.6058 61.3378 35.3468C61.0109 35.2906 60.7144 35.1207 60.5007 34.8671C60.2869 34.6135 60.1696 34.2925 60.1696 33.9608V28.3593H52.4064C51.3918 31.0344 47.9338 31.8015 45.8907 29.7582C43.397 27.264 45.174 22.9857 48.6958 22.9857ZM49.5123 26.1362C48.7874 25.4113 47.5411 25.9263 47.5411 26.9527C47.5411 27.9793 48.7876 28.4942 49.5123 27.7692C49.7288 27.5526 49.8504 27.259 49.8504 26.9527C49.8504 26.6465 49.7288 26.3528 49.5123 26.1362ZM29.2409 59.2879C28.5159 58.5629 27.2696 59.0778 27.2696 60.1044C27.2696 61.1309 28.5161 61.6458 29.2409 60.9209C29.4573 60.7043 29.5789 60.4106 29.5789 60.1044C29.5789 59.7982 29.4573 59.5045 29.2409 59.2879ZM21.018 60.1044C21.018 56.0139 24.3337 52.6982 28.4242 52.6982C28.7971 52.6982 29.1548 52.55 29.4185 52.2863C29.6823 52.0226 29.8304 51.6649 29.8304 51.2919C29.8304 50.919 29.6823 50.5613 29.4185 50.2976C29.1548 50.0338 28.7971 49.8857 28.4242 49.8857C22.7809 49.8857 18.2055 54.4611 18.2055 60.1044C18.2055 60.4773 18.3536 60.835 18.6174 61.0987C18.8811 61.3625 19.2388 61.5106 19.6117 61.5106C19.9847 61.5106 20.3424 61.3625 20.6061 61.0987C20.8698 60.835 21.018 60.4773 21.018 60.1044ZM28.4242 42.3649C18.6274 42.3649 10.6847 50.3074 10.6847 60.1044C10.6847 60.4773 10.8328 60.835 11.0966 61.0987C11.3603 61.3625 11.718 61.5106 12.0909 61.5106C12.4639 61.5106 12.8216 61.3625 13.0853 61.0987C13.349 60.835 13.4972 60.4773 13.4972 60.1044C13.4972 51.8602 20.18 45.1774 28.4242 45.1774C28.7971 45.1774 29.1548 45.0292 29.4185 44.7655C29.6823 44.5018 29.8304 44.1441 29.8304 43.7711C29.8304 43.3982 29.6823 43.0405 29.4185 42.7768C29.1548 42.513 28.7971 42.3649 28.4242 42.3649ZM28.4242 34.8443C14.4737 34.8443 3.16406 46.1538 3.16406 60.1044C3.16406 60.4773 3.31222 60.835 3.57594 61.0987C3.83967 61.3625 4.19735 61.5106 4.57031 61.5106C4.94327 61.5106 5.30096 61.3625 5.56468 61.0987C5.8284 60.835 5.97656 60.4773 5.97656 60.1044C5.97656 47.7065 16.0265 37.6568 28.4242 37.6568C28.7971 37.6568 29.1548 37.5086 29.4185 37.2449C29.6823 36.9812 29.8304 36.6235 29.8304 36.2505C29.8304 35.8775 29.6823 35.5199 29.4185 35.2561C29.1548 34.9924 28.7971 34.8443 28.4242 34.8443ZM58.2398 44.2802C59.7066 44.2276 61.0973 44.0965 62.4619 43.8824C61.3062 41.7729 59.8358 40.2673 58.2398 39.7032V44.2802ZM58.2398 47.0934V54.0492H65.0457C64.9183 51.2824 64.4186 48.7204 63.6384 46.5297C61.8889 46.8436 60.0687 47.0299 58.2398 47.0934ZM58.2398 56.8617V63.819C60.0671 63.8823 61.8894 64.0688 63.6377 64.3825C64.4796 62.017 64.9294 59.4285 65.0461 56.8617H58.2398ZM58.2398 66.6322V71.3941C61.4464 71.1148 64.3822 69.8896 66.7663 67.9992C66.6587 67.9918 66.5524 67.9721 66.4494 67.9404C63.8822 67.1467 61.0666 66.7334 58.2398 66.6322ZM66.3896 65.0015C66.69 65.0839 66.9846 65.17 67.2734 65.2597C67.5686 65.3505 67.8256 65.5361 68.0045 65.7879C68.1834 66.0396 68.2742 66.3434 68.2629 66.652C70.7827 64.0802 72.4414 60.6611 72.7722 56.8616H67.8602C67.7408 59.6208 67.2667 62.4289 66.3896 65.0015ZM67.8603 54.0492H72.7722C72.4414 50.2497 70.7825 46.831 68.2627 44.2591C68.2743 44.5679 68.1837 44.872 68.0047 45.124C67.8258 45.376 67.5687 45.5619 67.2732 45.6527C66.9848 45.7423 66.6905 45.8283 66.3905 45.9106C67.2129 48.3247 67.734 51.094 67.8603 54.0492ZM66.7682 42.913C65.9401 42.2559 65.0489 41.6825 64.1078 41.2012C64.5551 41.8627 64.9561 42.5646 65.3149 43.2949C65.671 43.2025 66.5153 42.93 66.7682 42.913Z" fill="#19517E"/>
</svg>
