<svg width="70" height="71" viewBox="0 0 70 71" fill="none" xmlns="http://www.w3.org/2000/svg">
<mask id="mask0_117_5151" style="mask-type:luminance" maskUnits="userSpaceOnUse" x="0" y="0" width="70" height="71">
<path d="M69 69.998V1.99805H1V69.998H69Z" fill="white" stroke="white" stroke-width="2"/>
</mask>
<g mask="url(#mask0_117_5151)">
<path d="M37.1318 17.0039L41.2867 14.606L36.9575 13.4448C35.0935 12.9465 33.9887 11.0318 34.4882 9.16924C34.6061 8.72595 34.8105 8.31035 35.0896 7.9464C35.3688 7.58244 35.7172 7.27731 36.1148 7.04859C36.5117 6.81857 36.9503 6.66934 37.4052 6.60951C37.86 6.54967 38.3223 6.58042 38.7652 6.69996L48.9401 9.42723C50.0092 9.71283 50.9783 10.1822 51.8239 10.7944L54.4839 9.25852" stroke="#19517E" stroke-width="2" stroke-miterlimit="10" stroke-linecap="round" stroke-linejoin="round"/>
<path d="M63.337 24.6337L60.1953 26.4482" stroke="#19517E" stroke-width="2" stroke-miterlimit="10" stroke-linecap="round" stroke-linejoin="round"/>
<path d="M60.1937 26.4487H60.1952C60.0853 29.3848 58.5152 32.1984 55.7837 33.7755L47.0391 38.8252" stroke="#19517E" stroke-width="2" stroke-miterlimit="10" stroke-linecap="round" stroke-linejoin="round"/>
<path d="M61.2627 7.26934L68.4871 19.7821C69.4909 21.5208 68.895 23.744 67.1565 24.7477C65.4181 25.7515 63.1947 25.1558 62.1909 23.4172L54.9667 10.9044C53.9628 9.16577 54.5586 6.94259 56.2972 5.9388C58.0357 4.93501 60.2589 5.53069 61.2627 7.26934Z" stroke="#19517E" stroke-width="2" stroke-miterlimit="10" stroke-linecap="round" stroke-linejoin="round"/>
<path d="M6.625 24.6587L9.28363 26.1946C9.17506 27.2615 9.26249 28.3394 9.54162 29.3749L12.2677 39.5512C12.3858 39.9945 12.5904 40.4101 12.8698 40.774C13.1492 41.138 13.4978 41.443 13.8956 41.6717C14.2923 41.9018 14.7306 42.051 15.1852 42.1109C15.6399 42.1708 16.1019 42.14 16.5446 42.0204C18.4085 41.5207 19.5135 39.6074 19.0139 37.7435L17.854 33.4144L23.1892 36.4944" stroke="#19517E" stroke-width="2" stroke-miterlimit="10" stroke-linecap="round" stroke-linejoin="round"/>
<path d="M15.5137 9.30318L18.6555 11.1177H18.6568C21.2552 9.74369 24.4752 9.69707 27.2067 11.2743L43.4002 20.6228C44.7042 21.3763 45.2642 22.9712 44.7179 24.3369" stroke="#19517E" stroke-width="2" stroke-miterlimit="10" stroke-linecap="round" stroke-linejoin="round"/>
<path d="M36.3316 23.4277L32.126 20.9996" stroke="#19517E" stroke-width="2" stroke-miterlimit="10" stroke-linecap="round" stroke-linejoin="round"/>
<path d="M7.81758 8.86231L8.73769 7.26953C9.74121 5.53184 11.9643 4.93575 13.7033 5.93926C14.8695 6.61192 15.5203 7.83555 15.5203 9.092C15.5203 9.7086 15.3645 10.3334 15.0336 10.9049L7.80937 23.4174C6.80586 25.1564 4.58281 25.7525 2.84375 24.749C1.67754 24.075 1.02539 22.8527 1.02539 21.5977C1.02539 20.9811 1.18262 20.3563 1.51348 19.7834L5.77773 12.3979" stroke="#19517E" stroke-width="2" stroke-miterlimit="10" stroke-linecap="round" stroke-linejoin="round"/>
<path d="M35.1141 36.2275V27.2462C35.1141 25.5997 33.7793 24.2648 32.1327 24.2648C30.4862 24.2648 29.1514 25.5997 29.1514 27.2462V36.2275" stroke="#19517E" stroke-width="2" stroke-miterlimit="10" stroke-linecap="round" stroke-linejoin="round"/>
<path d="M41.077 36.2274V25.832C41.077 24.1853 39.7421 22.8505 38.0955 22.8505C36.4489 22.8505 35.1143 24.1853 35.1143 25.832V39.4248" stroke="#19517E" stroke-width="2" stroke-miterlimit="10" stroke-linecap="round" stroke-linejoin="round"/>
<path d="M45.0708 59.6787V56.608C46.0497 56.1686 46.9398 55.5537 47.6972 54.7938L48.888 53.6043" stroke="#19517E" stroke-width="2" stroke-miterlimit="10" stroke-linecap="round" stroke-linejoin="round"/>
<path d="M41.0757 39.4244V27.2455C41.0757 26.4211 41.4091 25.676 41.9505 25.1373C42.2267 24.8599 42.5551 24.6398 42.9167 24.4899C43.2783 24.34 43.666 24.2631 44.0575 24.2637C45.7036 24.2637 47.0392 25.5994 47.0392 27.2455V45.5768L50.2085 42.4076C51.5716 41.0432 53.7822 41.0432 55.1468 42.4076C55.8289 43.0898 56.1693 43.9826 56.1693 44.8768C56.1693 45.7695 55.8289 46.6637 55.1468 47.3459L51.7739 50.7188" stroke="#19517E" stroke-width="2" stroke-miterlimit="10" stroke-linecap="round" stroke-linejoin="round"/>
<path d="M29.1515 39.4251V29.8001C29.1515 28.977 28.8173 28.2312 28.2782 27.6922C27.7224 27.1342 26.9464 26.7976 26.0897 26.8199C24.4671 26.8624 23.189 28.2255 23.189 29.8482V48.5468C23.189 51.7015 24.8407 54.467 27.3288 56.0304V56.0292V59.6592" stroke="#19517E" stroke-width="2" stroke-miterlimit="10" stroke-linecap="round" stroke-linejoin="round"/>
<path d="M43.404 66.5439H28.9553C26.9478 66.5439 25.3203 64.9164 25.3203 62.9089C25.3203 60.9013 26.9478 59.2738 28.9553 59.2738H43.404C45.4115 59.2738 47.0389 60.9013 47.0389 62.9089C47.0389 64.9164 45.4115 66.5439 43.404 66.5439Z" stroke="#19517E" stroke-width="2" stroke-miterlimit="10" stroke-linecap="round" stroke-linejoin="round"/>
</g>
</svg>
