<svg width="20" height="20" viewBox="0 0 20 20" fill="none" xmlns="http://www.w3.org/2000/svg">
<g clip-path="url(#clip0_634_42852)">
<path d="M10 20C15.5228 20 20 15.5228 20 10C20 4.47715 15.5228 0 10 0C4.47715 0 0 4.47715 0 10C0 15.5228 4.47715 20 10 20Z" fill="#007AB9"/>
<path d="M15.974 10.8052V14.928H13.5837V11.0815C13.5837 10.1157 13.2386 9.45615 12.3732 9.45615C11.7127 9.45615 11.3204 9.9002 11.1471 10.3302C11.0842 10.4838 11.0679 10.6972 11.0679 10.9127V14.9278H8.67748C8.67748 14.9278 8.70956 8.41316 8.67748 7.7388H11.0681V8.75755C11.0633 8.76558 11.0565 8.77342 11.0522 8.78109H11.0681V8.75755C11.3858 8.26877 11.9523 7.56999 13.2224 7.56999C14.795 7.56999 15.974 8.59748 15.974 10.8052ZM6.17685 4.27344C5.35918 4.27344 4.82422 4.81018 4.82422 5.51537C4.82422 6.20559 5.34367 6.75784 6.14548 6.75784H6.16099C6.99471 6.75784 7.51308 6.20559 7.51308 5.51537C7.49722 4.81018 6.99471 4.27344 6.17685 4.27344ZM4.96629 14.928H7.35586V7.7388H4.96629V14.928Z" fill="#F1F2F2"/>
</g>
<defs>
<clipPath id="clip0_634_42852">
<rect width="20" height="20" fill="white"/>
</clipPath>
</defs>
</svg>
