<svg width="14" height="18" viewBox="0 0 14 18" fill="none" xmlns="http://www.w3.org/2000/svg">
<path d="M13 7.66602C13 12.3327 7 16.3327 7 16.3327C7 16.3327 1 12.3327 1 7.66602C1 6.07472 1.63214 4.54859 2.75736 3.42337C3.88258 2.29816 5.4087 1.66602 7 1.66602C8.5913 1.66602 10.1174 2.29816 11.2426 3.42337C12.3679 4.54859 13 6.07472 13 7.66602Z" stroke="#8F90A6" stroke-width="1.4" stroke-linecap="round" stroke-linejoin="round"/>
<path d="M7 9.66602C8.10457 9.66602 9 8.77059 9 7.66602C9 6.56145 8.10457 5.66602 7 5.66602C5.89543 5.66602 5 6.56145 5 7.66602C5 8.77059 5.89543 9.66602 7 9.66602Z" stroke="#8F90A6" stroke-width="1.4" stroke-linecap="round" stroke-linejoin="round"/>
</svg>
