<svg width="90" height="91" viewBox="0 0 90 91" fill="none" xmlns="http://www.w3.org/2000/svg">
<path d="M32.3438 76.4375C30.0175 76.4375 28.125 78.3301 28.125 80.6562C28.125 82.9824 30.0175 84.875 32.3438 84.875C34.67 84.875 36.5625 82.9824 36.5625 80.6562C36.5625 78.3301 34.67 76.4375 32.3438 76.4375ZM32.3438 82.0625C31.5684 82.0625 30.9375 81.4316 30.9375 80.6562C30.9375 79.8809 31.5684 79.25 32.3438 79.25C33.1191 79.25 33.75 79.8809 33.75 80.6562C33.75 81.4316 33.1191 82.0625 32.3438 82.0625ZM75.934 80.5162C75.8596 78.2547 73.9981 76.4375 71.7188 76.4375C69.3925 76.4375 67.5 78.3301 67.5 80.6562C67.5 82.9824 69.3925 84.875 71.7188 84.875C73.9981 84.875 75.8596 83.0578 75.934 80.7963C75.9433 80.7032 75.9433 80.6093 75.934 80.5162ZM71.7188 82.0625C70.9434 82.0625 70.3125 81.4316 70.3125 80.6562C70.3125 79.8809 70.9434 79.25 71.7188 79.25C72.4941 79.25 73.125 79.8809 73.125 80.6562C73.125 81.4316 72.4941 82.0625 71.7188 82.0625Z" fill="#19517E"/>
<path d="M85.5394 70.8125C85.885 69.8383 85.7812 71.677 85.7812 44.0938C85.7812 41.7676 83.8886 39.875 81.5625 39.875H71.4769C71.8225 38.9008 71.7188 40.7395 71.7188 13.1562C71.7188 10.8301 69.8261 8.9375 67.5 8.9375H45C42.6739 8.9375 40.7812 10.8301 40.7812 13.1562C40.7812 40.7434 40.6782 38.9028 41.0231 39.875H30.9375C28.6114 39.875 26.7188 41.7676 26.7188 44.0938C26.7188 71.6809 26.6157 69.8403 26.9606 70.8125H22.5V8.9375C22.5 4.28492 18.7149 0.5 14.0625 0.5H4.21875C1.89246 0.5 0 2.39264 0 4.71875C0 7.04486 1.89246 8.9375 4.21875 8.9375H13.0078C13.5895 8.9375 14.0625 9.41053 14.0625 9.99219V77.8438C14.0625 80.1699 15.955 82.0625 18.2812 82.0625H22.6021C23.2868 86.8265 27.3936 90.5 32.3438 90.5C37.2939 90.5 41.4009 86.8265 42.0854 82.0625H61.977C62.6616 86.8265 66.7684 90.5 71.7186 90.5C76.6687 90.5 80.7757 86.8265 81.4602 82.0625H85.7812C88.1075 82.0625 90 80.1699 90 77.8438V75.0312C90 72.8941 88.3772 70.8125 85.5394 70.8125ZM82.9688 44.0938V69.4062C82.9688 70.1816 82.3379 70.8125 81.5625 70.8125H59.0625C58.2871 70.8125 57.6562 70.1816 57.6562 69.4062V44.0938C57.6562 43.3184 58.2871 42.6875 59.0625 42.6875H64.6875V49.7188C64.6875 50.0917 64.8357 50.4494 65.0994 50.7131C65.3631 50.9768 65.7208 51.125 66.0938 51.125H74.5312C74.9042 51.125 75.2619 50.9768 75.5256 50.7131C75.7893 50.4494 75.9375 50.0917 75.9375 49.7188V42.6875H81.5625C82.3379 42.6875 82.9688 43.3184 82.9688 44.0938ZM61.9771 79.25H42.0854C41.7707 77.0608 40.7336 75.1028 39.2235 73.625H64.8388C63.3289 75.1028 62.2916 77.0608 61.9771 79.25ZM73.125 48.3125H67.5V42.6875H73.125V48.3125ZM59.0625 11.75V17.375H53.4375V11.75H59.0625ZM43.5938 38.4688V13.1562C43.5938 12.3809 44.2246 11.75 45 11.75H50.625V18.7812C50.625 19.1542 50.7732 19.5119 51.0369 19.7756C51.3006 20.0393 51.6583 20.1875 52.0312 20.1875H60.4688C60.8417 20.1875 61.1994 20.0393 61.4631 19.7756C61.7268 19.5119 61.875 19.1542 61.875 18.7812V11.75H67.5C68.2754 11.75 68.9062 12.3809 68.9062 13.1562V38.4688C68.9062 39.2441 68.2754 39.875 67.5 39.875H45C44.2246 39.875 43.5938 39.2441 43.5938 38.4688ZM45 42.6875V48.3125H39.375V42.6875H45ZM29.5312 69.4062V44.0938C29.5312 43.3184 30.1621 42.6875 30.9375 42.6875H36.5625V49.7188C36.5625 50.0917 36.7107 50.4494 36.9744 50.7131C37.2381 50.9768 37.5958 51.125 37.9688 51.125H46.4062C46.7792 51.125 47.1369 50.9768 47.4006 50.7131C47.6643 50.4494 47.8125 50.0917 47.8125 49.7188V42.6875H53.4375C54.2129 42.6875 54.8438 43.3184 54.8438 44.0938V69.4062C54.8438 70.1816 54.2129 70.8125 53.4375 70.8125H30.9375C30.1621 70.8125 29.5312 70.1816 29.5312 69.4062ZM16.875 18.7812H19.6875V70.8125H16.875V18.7812ZM13.0078 6.125H4.21875C3.44338 6.125 2.8125 5.49412 2.8125 4.71875C2.8125 3.94338 3.44338 3.3125 4.21875 3.3125H14.0625C17.1642 3.3125 19.6875 5.83584 19.6875 8.9375V15.9688H16.875V9.99219C16.875 7.85979 15.1402 6.125 13.0078 6.125ZM16.875 77.8438V73.625H25.464C23.9539 75.1028 22.9168 77.0608 22.6021 79.25H18.2812C17.5059 79.25 16.875 78.6191 16.875 77.8438ZM32.3438 87.6875C28.4667 87.6875 25.3125 84.5333 25.3125 80.6562C25.3125 76.7792 28.4667 73.625 32.3438 73.625C36.2208 73.625 39.375 76.7792 39.375 80.6562C39.375 84.5333 36.2208 87.6875 32.3438 87.6875ZM71.7188 87.6875C67.8417 87.6875 64.6875 84.5333 64.6875 80.6562C64.6875 76.7792 67.8417 73.625 71.7188 73.625C75.5958 73.625 78.75 76.7792 78.75 80.6562C78.75 84.5333 75.5958 87.6875 71.7188 87.6875ZM87.1875 77.8438C87.1875 78.6191 86.5566 79.25 85.7812 79.25H81.4604C81.1457 77.0608 80.1086 75.1028 78.5985 73.625H85.7812C86.5566 73.625 87.1875 74.2559 87.1875 75.0312V77.8438Z" fill="#19517E"/>
<path d="M47.8125 68H50.625C50.998 68 51.3556 67.8518 51.6194 67.5881C51.8831 67.3244 52.0312 66.9667 52.0312 66.5938C52.0312 66.2208 51.8831 65.8631 51.6194 65.5994C51.3556 65.3357 50.998 65.1875 50.625 65.1875H47.8125C47.4395 65.1875 47.0819 65.3357 46.8181 65.5994C46.5544 65.8631 46.4062 66.2208 46.4062 66.5938C46.4062 66.9667 46.5544 67.3244 46.8181 67.5881C47.0819 67.8518 47.4395 68 47.8125 68ZM75.9375 65.1875C75.5645 65.1875 75.2069 65.3357 74.9431 65.5994C74.6794 65.8631 74.5312 66.2208 74.5312 66.5938C74.5312 66.9667 74.6794 67.3244 74.9431 67.5881C75.2069 67.8518 75.5645 68 75.9375 68H78.75C79.123 68 79.4806 67.8518 79.7444 67.5881C80.0081 67.3244 80.1562 66.9667 80.1562 66.5938C80.1562 66.2208 80.0081 65.8631 79.7444 65.5994C79.4806 65.3357 79.123 65.1875 78.75 65.1875H75.9375ZM61.875 37.0625H64.6875C65.0605 37.0625 65.4181 36.9143 65.6819 36.6506C65.9456 36.3869 66.0938 36.0292 66.0938 35.6562C66.0938 35.2833 65.9456 34.9256 65.6819 34.6619C65.4181 34.3982 65.0605 34.25 64.6875 34.25H61.875C61.502 34.25 61.1444 34.3982 60.8806 34.6619C60.6169 34.9256 60.4688 35.2833 60.4688 35.6562C60.4688 36.0292 60.6169 36.3869 60.8806 36.6506C61.1444 36.9143 61.502 37.0625 61.875 37.0625Z" fill="#19517E"/>
</svg>
