<svg width="15" height="16" viewBox="0 0 15 16" fill="none" xmlns="http://www.w3.org/2000/svg">
<path d="M6.98602 6.00012H9.65802C9.81802 5.97879 9.95402 5.90412 10.066 5.77612C10.178 5.64812 10.234 5.50146 10.234 5.33612C10.234 5.17079 10.178 5.02412 10.066 4.89612C9.95402 4.76812 9.81802 4.69346 9.65802 4.67212H8.33002V4.00012C8.33002 3.81879 8.26335 3.66146 8.13002 3.52812C7.99668 3.39479 7.83935 3.32812 7.65802 3.32812C7.47668 3.32812 7.31935 3.39479 7.18602 3.52812C7.05268 3.66146 6.98602 3.81879 6.98602 4.00012V4.67212C6.62335 4.67212 6.29002 4.76279 5.98602 4.94412C5.68202 5.12546 5.43935 5.36812 5.25802 5.67212C5.07668 5.97612 4.98602 6.30946 4.98602 6.67212C4.98602 7.03479 5.07668 7.36812 5.25802 7.67212C5.43935 7.97612 5.68202 8.21879 5.98602 8.40012C6.29002 8.58146 6.62335 8.67212 6.98602 8.67212H8.33002C8.49002 8.69346 8.62602 8.76812 8.73802 8.89612C8.85002 9.02412 8.90602 9.17079 8.90602 9.33612C8.90602 9.50146 8.85002 9.64812 8.73802 9.77612C8.62602 9.90412 8.49002 9.97879 8.33002 10.0001H5.65802C5.49802 10.0215 5.36202 10.0961 5.25002 10.2241C5.13802 10.3521 5.08202 10.4988 5.08202 10.6641C5.08202 10.8295 5.13802 10.9761 5.25002 11.1041C5.36202 11.2321 5.49802 11.3068 5.65802 11.3281H6.98602V12.0001C6.98602 12.1815 7.05268 12.3388 7.18602 12.4721C7.31935 12.6055 7.47668 12.6721 7.65802 12.6721C7.83935 12.6721 7.99668 12.6055 8.13002 12.4721C8.26335 12.3388 8.33002 12.1815 8.33002 12.0001V11.3281C8.69268 11.3281 9.02602 11.2375 9.33002 11.0561C9.63402 10.8748 9.87668 10.6321 10.058 10.3281C10.2394 10.0241 10.33 9.69079 10.33 9.32812C10.33 8.96546 10.2394 8.63212 10.058 8.32812C9.87668 8.02412 9.63402 7.78146 9.33002 7.60012C9.02602 7.41879 8.69268 7.32812 8.33002 7.32812H6.98602C6.82602 7.30679 6.69002 7.23212 6.57802 7.10413C6.46602 6.97612 6.41002 6.82946 6.41002 6.66412C6.41002 6.49879 6.46602 6.35212 6.57802 6.22412C6.69002 6.09612 6.82602 6.02146 6.98602 6.00012ZM7.65802 0.672124C6.33535 0.672124 5.10335 1.00812 3.96202 1.68012C2.85268 2.32012 1.97802 3.19479 1.33802 4.30412C0.666017 5.44546 0.330017 6.67746 0.330017 8.00012C0.330017 9.32279 0.666017 10.5548 1.33802 11.6961C1.97802 12.8055 2.85268 13.6801 3.96202 14.3201C5.10335 14.9921 6.33535 15.3281 7.65802 15.3281C8.98068 15.3281 10.2127 14.9921 11.354 14.3201C12.4634 13.6801 13.338 12.8055 13.978 11.6961C14.65 10.5548 14.986 9.32279 14.986 8.00012C14.986 6.67746 14.65 5.44546 13.978 4.30412C13.338 3.19479 12.4634 2.32012 11.354 1.68012C10.2127 1.00812 8.98068 0.672124 7.65802 0.672124ZM7.65802 14.0001C6.57002 14.0001 5.56202 13.7281 4.63402 13.1841C3.72735 12.6508 3.00735 11.9308 2.47402 11.0241C1.93002 10.0961 1.65802 9.08812 1.65802 8.00012C1.65802 6.91212 1.93002 5.90412 2.47402 4.97612C3.00735 4.06946 3.72735 3.34946 4.63402 2.81612C5.56202 2.27212 6.57002 2.00012 7.65802 2.00012C8.74602 2.00012 9.75402 2.27212 10.682 2.81612C11.5887 3.34946 12.3087 4.06946 12.842 4.97612C13.386 5.90412 13.658 6.91212 13.658 8.00012C13.658 9.08812 13.386 10.0961 12.842 11.0241C12.3087 11.9308 11.5887 12.6508 10.682 13.1841C9.75402 13.7281 8.74602 14.0001 7.65802 14.0001Z" fill="#19517E"/>
</svg>
