<svg width="76" height="75" viewBox="0 0 76 75" fill="none" xmlns="http://www.w3.org/2000/svg">
<g clip-path="url(#clip0_112_2097)">
<path d="M68 31.8083H43.347V7.15519C43.347 3.20355 40.1435 0 36.1917 0H7.24559C3.31179 0.0179897 0.13736 3.22138 0.15535 7.15504V36.0688C0.15535 39.9846 3.32978 43.1591 7.24559 43.1591H31.9637V67.8771C31.9637 71.793 35.1381 74.9674 39.0539 74.9674H67.9675C71.9012 74.9854 75.1047 71.8111 75.1227 67.8773V38.9635C75.1229 35.0245 71.939 31.8261 68 31.8083ZM31.9637 38.996V39.9394L7.24559 39.9067C5.12601 39.9067 3.40783 38.1884 3.40783 36.069V7.15519C3.38984 5.01777 5.10786 3.27032 7.24544 3.25233H36.1594C38.3148 3.25233 40.0622 4.99978 40.0622 7.15519V31.8408H39.0541C35.1201 31.8588 31.9457 35.0622 31.9637 38.996ZM71.9029 67.8773C71.885 70.0147 70.1377 71.733 68.0003 71.715H39.0864C36.9668 71.715 35.2486 69.9969 35.2486 67.8773V38.9635C35.2306 36.8261 36.9486 35.0786 39.0862 35.0606H68C70.1554 35.0606 71.9029 36.8079 71.9029 38.9635V67.8773Z" fill="white"/>
<path d="M63.1538 63.5515L55.0878 42.1183C54.6883 41.274 53.6799 40.9136 52.8356 41.3133C52.4824 41.4806 52.1979 41.765 52.0307 42.1183L44.1598 63.519C43.8455 64.3633 44.2751 65.3025 45.1192 65.6168C45.9635 65.9312 46.9027 65.5016 47.217 64.6574L49.136 59.5186H58.1777L60.0966 64.6574C60.2103 64.9717 60.418 65.2434 60.6915 65.4354C60.965 65.6274 61.2911 65.7306 61.6253 65.7307C62.5234 65.7303 63.2512 65.002 63.2508 64.1039C63.2506 63.9155 63.2178 63.7287 63.1538 63.5515ZM50.2417 56.2987L53.4941 47.3546L56.7464 56.2987H50.2417ZM32.061 31.9383C29.3211 31.933 26.6382 31.1552 24.3204 29.6942C27.187 26.7553 28.9555 22.9197 29.329 18.8313H32.061C32.9591 18.8313 33.6872 18.1032 33.6872 17.2051C33.6872 16.3069 32.9591 15.5788 32.061 15.5788H23.3771V9.62695C23.3771 8.72884 22.649 8.00071 21.7509 8.00071C20.8528 8.00071 20.1246 8.72884 20.1246 9.62695V15.5788H11.3758C10.4777 15.5788 9.74958 16.3069 9.74958 17.2051C9.74958 18.1032 10.4777 18.8313 11.3758 18.8313H14.1403C14.5164 22.919 16.2845 26.7537 19.1489 29.6942C16.8288 31.1503 14.1474 31.9277 11.4083 31.9383C10.5102 31.9383 9.78205 32.6665 9.78205 33.5646C9.78205 34.4627 10.5102 35.1908 11.4083 35.1908C15.1086 35.1985 18.7209 34.0625 21.7509 31.9385C24.7689 34.0619 28.3708 35.1981 32.061 35.1908C32.9591 35.1908 33.6872 34.4627 33.6872 33.5646C33.6872 32.6665 32.9591 31.9383 32.061 31.9383ZM17.4904 18.8313H26.0115C25.667 22.2058 24.1609 25.3558 21.7509 27.7428C19.3431 25.3542 17.8375 22.205 17.4904 18.8313ZM75.0575 24.5229C75.0398 11.0373 64.15 0.0893389 50.6647 0C49.7665 0 49.0384 0.728127 49.0384 1.62624C49.0384 2.52436 49.7665 3.25248 50.6647 3.25248C61.9922 3.27352 71.316 12.1684 71.8701 23.4823H66.5037C65.6056 23.4823 64.8775 24.2104 64.8775 25.1085C64.8775 26.0066 65.6056 26.7347 66.5037 26.7347H73.4313C74.3294 26.7347 75.0575 26.0066 75.0575 25.1085C75.0667 25.0111 75.0667 24.9132 75.0575 24.8158C75.0667 24.7184 75.0667 24.6203 75.0575 24.5229ZM24.6455 71.7475C13.33 71.7274 4.011 62.8514 3.44006 51.5502H8.77387C9.67198 51.5502 10.4001 50.8221 10.4001 49.924C10.4001 49.0259 9.67198 48.2979 8.77387 48.2979H1.87891C0.9808 48.2979 0.252673 49.026 0.252673 49.9241C0.245203 50.0107 0.245203 50.0978 0.252673 50.1844C0.245203 50.271 0.245203 50.358 0.252673 50.4446C0.252368 63.943 11.1474 74.9107 24.6455 75.0002C25.5437 75.0002 26.2718 74.272 26.2718 73.3739C26.2718 72.4758 25.5437 71.7475 24.6455 71.7475Z" fill="white"/>
</g>
<defs>
<clipPath id="clip0_112_2097">
<rect width="75" height="75" fill="white" transform="translate(0.138672)"/>
</clipPath>
</defs>
</svg>
