<svg width="86" height="85" viewBox="0 0 86 85" fill="none" xmlns="http://www.w3.org/2000/svg">
<g clip-path="url(#clip0_112_2067)">
<path d="M86.1961 60.7877L77.9699 49.8195C77.8022 49.596 77.5702 49.4291 77.305 49.341L75.901 48.8749C76.0121 48.4142 76.1341 47.9591 76.2273 47.4915L81.451 45.0868C81.6733 44.9844 81.8642 44.8243 82.0038 44.6233C82.1434 44.4222 82.2266 44.1874 82.2448 43.9433C82.3202 42.9096 82.3572 41.9622 82.3572 41.045C82.3572 40.1278 82.3202 39.1804 82.2434 38.1466C82.2255 37.9024 82.1424 37.6675 82.0028 37.4664C81.8631 37.2653 81.6721 37.1053 81.4496 37.0032L76.2273 34.5998C75.9549 33.2054 75.5908 31.8305 75.1374 30.484L78.4594 25.7827C78.601 25.5821 78.6862 25.3471 78.706 25.1023C78.7258 24.8575 78.6794 24.6119 78.5718 24.3911C77.7286 22.6605 76.7599 20.9939 75.6734 19.4047C75.5357 19.2029 75.3465 19.0417 75.1254 18.9378C74.9043 18.8339 74.6594 18.7911 74.4162 18.8138L68.6894 19.3389C67.7493 18.272 66.7428 17.2655 65.6759 16.3254L66.201 10.5986C66.2234 10.3554 66.1805 10.1106 66.0766 9.88961C65.9727 9.66858 65.8117 9.47931 65.6101 9.34137C64.0209 8.25494 62.3543 7.28624 60.6237 6.44302C60.4029 6.33541 60.1573 6.28906 59.9125 6.30884C59.6677 6.32862 59.4327 6.41379 59.2321 6.55545L54.5309 9.87744C53.1845 9.42378 51.8095 9.05966 50.415 8.78748L48.0116 3.56524C47.9093 3.3429 47.7492 3.15202 47.5482 3.01242C47.3471 2.87283 47.1123 2.78961 46.8682 2.77142C44.939 2.61786 43.0007 2.61786 41.0715 2.77142C40.8273 2.78933 40.5924 2.87243 40.3913 3.01206C40.1902 3.15169 40.0302 3.34272 39.9281 3.56524L37.5247 8.78748C36.1303 9.05997 34.7553 9.42408 33.4088 9.87744L28.7076 6.55545C28.507 6.41379 28.272 6.32862 28.0272 6.30884C27.7824 6.28906 27.5368 6.33541 27.316 6.44302C25.5854 7.28624 23.9188 8.25494 22.3296 9.34137C22.1282 9.47951 21.9674 9.66881 21.8635 9.88979C21.7596 10.1108 21.7165 10.3554 21.7387 10.5986L22.2638 16.3254C21.1969 17.2655 20.1903 18.272 19.2503 19.3389L13.5235 18.8138C13.2803 18.7914 13.0355 18.8343 12.8145 18.9382C12.5935 19.0421 12.4042 19.2032 12.2662 19.4047C11.1798 20.9939 10.2111 22.6605 9.3679 24.3911C9.26028 24.6119 9.21394 24.8575 9.23372 25.1023C9.25349 25.3471 9.33866 25.5821 9.48032 25.7827L12.8023 30.484C12.3487 31.8304 11.9845 33.2053 11.7124 34.5998L6.49012 37.0032C6.26778 37.1056 6.07689 37.2656 5.9373 37.4667C5.79771 37.6677 5.71449 37.9025 5.69629 38.1466C5.61677 39.1804 5.57976 40.1278 5.57976 41.045C5.57976 41.9622 5.61677 42.9096 5.69355 43.9433C5.71146 44.1875 5.79457 44.4224 5.9342 44.6235C6.07382 44.8246 6.26486 44.9846 6.48738 45.0868L11.711 47.4915C11.8042 47.9591 11.9262 48.4142 12.0373 48.8749L10.6334 49.341C10.3675 49.4286 10.135 49.5956 9.96704 49.8195L1.74088 60.7877C1.61132 60.9616 1.52477 61.1637 1.48831 61.3775C1.45185 61.5913 1.46651 61.8107 1.5311 62.0177C1.5957 62.2247 1.70838 62.4135 1.85994 62.5686C2.0115 62.7237 2.19762 62.8407 2.40309 62.9101L9.69283 65.3409V72.5786C9.69276 72.8664 9.78331 73.147 9.95162 73.3805C10.1199 73.6141 10.3575 73.7887 10.6306 73.8797L43.5352 84.8479C43.8165 84.9411 44.1204 84.9411 44.4017 84.8479L77.3063 73.8797C77.5795 73.7887 77.817 73.6141 77.9853 73.3805C78.1536 73.147 78.2442 72.8664 78.2441 72.5786V65.3409L85.5325 62.9115C85.7383 62.8423 85.9248 62.7254 86.0767 62.5702C86.2285 62.4151 86.3415 62.2262 86.4062 62.0189C86.471 61.8117 86.4857 61.5921 86.4492 61.3781C86.4126 61.1641 86.3259 60.9618 86.1961 60.7877ZM8.37665 42.9384C8.30573 41.6771 8.30573 40.4128 8.37665 39.1516L13.5015 36.7921C13.7034 36.699 13.8797 36.5584 14.0151 36.3821C14.1505 36.2058 14.2411 35.9993 14.2789 35.7802C14.5753 34.0624 15.0226 32.3741 15.6157 30.7349C15.6912 30.527 15.7154 30.304 15.686 30.0848C15.6567 29.8657 15.5747 29.6568 15.447 29.4763L12.1922 24.8682C12.7662 23.7528 13.3968 22.6673 14.0815 21.6162L19.7 22.1303C20.1524 22.1714 20.5843 21.9918 20.8735 21.6491C22.0007 20.3128 23.2391 19.0745 24.5753 17.9473C24.7441 17.8049 24.876 17.6238 24.9598 17.4195C25.0436 17.2152 25.0768 16.9936 25.0565 16.7737L24.541 11.158C25.5919 10.4728 26.6774 9.84221 27.7931 9.26871L32.4011 12.5235C32.5818 12.651 32.7906 12.733 33.0097 12.7623C33.2289 12.7917 33.4519 12.7676 33.6597 12.6922C35.2991 12.0996 36.9874 11.6522 38.7051 11.3554C38.9241 11.3176 39.1307 11.227 39.307 11.0916C39.4832 10.9562 39.6239 10.7799 39.7169 10.578L42.0765 5.45314C43.3377 5.38048 44.602 5.38048 45.8632 5.45314L48.2228 10.578C48.3158 10.7799 48.4565 10.9562 48.6327 11.0916C48.809 11.227 49.0156 11.3176 49.2346 11.3554C50.9524 11.6518 52.6408 12.0991 54.28 12.6922C54.4877 12.7682 54.7108 12.7926 54.9301 12.7632C55.1493 12.7338 55.3582 12.6516 55.5386 12.5235L60.1466 9.26871C61.2653 9.84454 62.3553 10.478 63.3987 11.158L62.8845 16.7764C62.8643 16.9964 62.8975 17.2179 62.9813 17.4222C63.065 17.6266 63.1969 17.8076 63.3657 17.95C64.6984 19.0729 65.9433 20.3192 67.0675 21.6518C67.3554 21.9946 67.7914 22.1742 68.2411 22.133L73.8596 21.6189C74.541 22.6623 75.173 23.7522 75.7489 24.871L72.494 29.479C72.3664 29.6596 72.2844 29.8684 72.2551 30.0876C72.2257 30.3068 72.2498 30.5298 72.3254 30.7376C72.9136 32.3609 73.3633 34.0569 73.6622 35.783C73.7 36.002 73.7905 36.2086 73.926 36.3848C74.0614 36.5611 74.2376 36.7018 74.4395 36.7948L79.5644 39.1543C79.6339 40.4148 79.6325 41.6781 79.5603 42.9384L74.4354 45.2979C74.2341 45.3903 74.0583 45.5301 73.9229 45.7054C73.7875 45.8806 73.6966 46.0861 73.658 46.3042C73.3932 47.7742 73.022 49.2231 72.5475 50.6394L67.4363 52.3422C69.1391 48.8198 70.0218 44.9574 70.018 41.045C70.018 26.6807 58.3327 14.9955 43.9685 14.9955C29.6042 14.9955 17.919 26.6807 17.919 41.045C17.919 44.9935 18.806 48.8365 20.4993 52.3422L15.3881 50.6394C14.9134 49.2232 14.5422 47.7743 14.2775 46.3042C14.239 46.0861 14.1481 45.8806 14.0127 45.7054C13.8773 45.5301 13.7015 45.3903 13.5002 45.2979L8.37665 42.9384ZM43.9685 60.1653L24.371 53.6324C21.9464 49.8821 20.6579 45.5107 20.661 41.045C20.661 28.193 31.1165 17.7375 43.9685 17.7375C56.8205 17.7375 67.2759 28.193 67.2759 41.045C67.2759 45.5378 65.9872 49.8771 63.5659 53.6324L43.9685 60.1653ZM11.567 52.2558L41.7296 62.3096L35.2378 70.9649L5.07522 60.9111L11.567 52.2558ZM12.4349 66.2554L35.3091 73.8797C35.582 73.9712 35.8769 73.9742 36.1516 73.8883C36.4264 73.8024 36.667 73.6319 36.8391 73.4012L42.5975 65.7234V81.6452L12.4349 71.5901V66.2554ZM75.5021 71.5901L45.3395 81.6438V65.7234L51.0978 73.4012C51.2704 73.6314 51.511 73.8015 51.7856 73.8874C52.0602 73.9732 52.3549 73.9706 52.6279 73.8797L75.5021 66.2554V71.5901ZM52.6992 70.9649L46.2074 62.3096L76.3699 52.2558L82.8617 60.9125L52.6992 70.9649Z" fill="white"/>
<path d="M30.2581 39.6738H33.0001V42.4159H30.2581V39.6738Z" fill="white"/>
<path d="M60.4201 36.9314H57.6781V34.1894H54.936V36.9314H52.194V34.1894H49.4519V36.9314H40.1166C39.3953 35.6818 38.358 34.644 37.1088 33.922C35.8596 33.2001 34.4424 32.8195 32.9996 32.8184C28.4629 32.8184 24.7734 36.5078 24.7734 41.0445C24.7734 45.5812 28.4629 49.2707 32.9996 49.2707C34.4424 49.2696 35.8596 48.8889 37.1088 48.167C38.358 47.445 39.3953 46.4072 40.1166 45.1576H60.4201C60.7837 45.1576 61.1325 45.0131 61.3896 44.756C61.6467 44.4989 61.7911 44.1502 61.7911 43.7866V38.3025C61.7911 37.9388 61.6467 37.5901 61.3896 37.333C61.1325 37.0759 60.7837 36.9314 60.4201 36.9314ZM59.0491 42.4155H39.2761C39.0097 42.4156 38.7489 42.4932 38.5259 42.6391C38.3029 42.785 38.1272 42.9927 38.0203 43.2368C37.594 44.2142 36.8921 45.0461 36.0004 45.6307C35.1087 46.2154 34.0659 46.5274 32.9996 46.5286C29.9751 46.5286 27.5155 44.069 27.5155 41.0445C27.5155 38.02 29.9751 35.5604 32.9996 35.5604C34.0659 35.5616 35.1087 35.8736 36.0004 36.4583C36.8921 37.0429 37.594 37.8749 38.0203 38.8522C38.1272 39.0964 38.3029 39.3041 38.5259 39.4499C38.7489 39.5958 39.0097 39.6735 39.2761 39.6735H59.0491V42.4155Z" fill="white"/>
</g>
<defs>
<clipPath id="clip0_112_2067">
<rect width="85" height="85" fill="white" transform="translate(0.138672)"/>
</clipPath>
</defs>
</svg>
