<svg width="81" height="80" viewBox="0 0 81 80" fill="none" xmlns="http://www.w3.org/2000/svg">
<path d="M40.1386 71.6663C22.6776 71.6663 8.47192 57.4608 8.47192 39.9997C8.47192 22.5387 22.6776 8.33301 40.1386 8.33301C57.5998 8.33301 71.8053 22.5387 71.8053 39.9997C71.8053 57.4608 57.5998 71.6663 40.1386 71.6663ZM40.1386 11.6663C24.5156 11.6663 11.8053 24.3767 11.8053 39.9997C11.8053 55.6227 24.5156 68.333 40.1386 68.333C55.7616 68.333 68.4719 55.6227 68.4719 39.9997C68.4719 24.3767 55.7616 11.6663 40.1386 11.6663Z" fill="white"/>
<path d="M40.1388 63.3337C27.2728 63.3337 16.8054 52.8663 16.8054 40.0003C16.8054 27.1343 27.2728 16.667 40.1388 16.667C53.0048 16.667 63.4721 27.1343 63.4721 40.0003C63.4721 52.8663 53.0048 63.3337 40.1388 63.3337ZM40.1388 20.0003C29.1108 20.0003 20.1388 28.9723 20.1388 40.0003C20.1388 51.0283 29.1108 60.0003 40.1388 60.0003C51.1668 60.0003 60.1388 51.0283 60.1388 40.0003C60.1388 28.9723 51.1668 20.0003 40.1388 20.0003Z" fill="white"/>
<path d="M40.1389 55.6479C31.5104 55.6479 24.4907 48.6282 24.4907 39.9997C24.4907 31.3712 31.5104 24.3516 40.1389 24.3516C48.7674 24.3516 55.7871 31.3712 55.7871 39.9997C55.7871 48.6282 48.7674 55.6479 40.1389 55.6479ZM40.1389 27.6849C33.3486 27.6849 27.8241 33.2092 27.8241 39.9997C27.8241 46.7902 33.3484 52.3146 40.1389 52.3146C46.9294 52.3146 52.4537 46.7902 52.4537 39.9997C52.4537 33.2092 46.9292 27.6849 40.1389 27.6849Z" fill="white"/>
<path d="M40.1387 47.9682C35.745 47.9682 32.1705 44.3937 32.1705 40C32.1705 35.6063 35.745 32.0318 40.1387 32.0318C44.5322 32.0318 48.1068 35.6063 48.1068 40C48.1068 44.3935 44.5322 47.9682 40.1387 47.9682ZM40.1387 35.3652C37.5832 35.3652 35.5038 37.4443 35.5038 40C35.5038 42.5557 37.583 44.6348 40.1387 44.6348C42.6943 44.6348 44.7735 42.5557 44.7735 40C44.7735 37.4445 42.6943 35.3652 40.1387 35.3652ZM40.1387 27.6852C39.2182 27.6852 38.472 26.939 38.472 26.0185V1.66667C38.472 0.746167 39.2182 0 40.1387 0C41.059 0 41.8053 0.746167 41.8053 1.66667V26.0185C41.8053 26.939 41.059 27.6852 40.1387 27.6852ZM40.1387 80C39.2182 80 38.472 79.2537 38.472 78.3333V53.9815C38.472 53.0612 39.2182 52.3148 40.1387 52.3148C41.059 52.3148 41.8053 53.0612 41.8053 53.9815V78.3333C41.8053 79.2537 41.059 80 40.1387 80ZM78.472 41.6667H54.1202C53.1998 41.6667 52.4535 40.9203 52.4535 40C52.4535 39.0795 53.1998 38.3333 54.1202 38.3333H78.472C79.3923 38.3333 80.1387 39.0795 80.1387 40C80.1387 40.9203 79.3923 41.6667 78.472 41.6667ZM26.1572 41.6667H1.80534C0.884839 41.6667 0.138672 40.9203 0.138672 40C0.138672 39.0795 0.884839 38.3333 1.80534 38.3333H26.1572C27.0777 38.3333 27.8238 39.0795 27.8238 40C27.8238 40.9203 27.0777 41.6667 26.1572 41.6667Z" fill="white"/>
</svg>
