<svg width="76" height="75" viewBox="0 0 76 75" fill="none" xmlns="http://www.w3.org/2000/svg">
<g clip-path="url(#clip0_112_2052)">
<path d="M60.4463 33.6035V0.585938L53.4883 3.48633L47.7168 1.09863L41.96 3.50098L36.2031 1.09863L30.4463 3.50098L24.6748 1.09863L18.918 3.50098L13.1465 1.09863L7.38965 3.48633L0.431641 0.600586V66.0059C0.431641 70.6348 4.19629 74.4141 8.83984 74.4141H66.4521C71.081 74.4141 74.8603 70.6494 74.8603 66.0059V33.6035H60.4463ZM8.83984 72.0117C5.5293 72.0117 2.83398 69.3164 2.83398 66.0059V4.18945L7.38965 6.09375L13.1465 3.69141L18.9033 6.09375L24.6602 3.69141L30.417 6.09375L36.1738 3.69141L41.9307 6.09375L47.6875 3.69141L53.4443 6.09375L58 4.18945V65.9912C58 68.335 58.9668 70.459 60.5342 71.9971H8.83984V72.0117ZM72.4434 66.0059C72.4434 69.3164 69.748 72.0117 66.4375 72.0117C63.1269 72.0117 60.4316 69.3164 60.4316 66.0059V36.0059H72.4287V66.0059H72.4434Z" fill="white"/>
<path d="M18.4336 48.0029H20.8359V56.4111H18.4336V48.0029ZM24.4395 43.1982H26.8418V56.3965H24.4395V43.1982ZM30.4307 45.6006H32.833V56.3965H30.4307V45.6006ZM36.4365 40.7959H38.8389V56.3965H36.4365V40.7959ZM42.4424 38.3936H44.8447V56.3965H42.4424V38.3936Z" fill="white"/>
<path d="M31.5742 40.2393L25.6416 34.3066L15.1826 44.751L16.8818 46.4502L25.6416 37.6904L31.6914 43.7549L40.9492 33.1934L39.1328 31.6113L31.5742 40.2393ZM24.4404 10.7959H53.2393V13.1982H24.4404V10.7959ZM24.4404 19.1895H53.2393V21.5918H24.4404V19.1895ZM19.6357 10.7959H7.63867V21.5918H19.6357V10.7959ZM17.2334 19.1895H10.0264V13.1836H17.2334V19.1895ZM7.63867 66.0059H10.041V68.4082H7.63867V66.0059ZM12.4287 66.0059H14.8311V68.4082H12.4287V66.0059ZM17.2334 66.0059H19.6357V68.4082H17.2334V66.0059ZM22.0381 66.0059H24.4404V68.4082H22.0381V66.0059ZM26.8428 66.0059H29.2451V68.4082H26.8428V66.0059ZM31.6328 66.0059H34.0352V68.4082H31.6328V66.0059ZM36.4375 66.0059H38.8398V68.4082H36.4375V66.0059ZM41.2422 66.0059H43.6445V68.4082H41.2422V66.0059ZM46.0469 66.0059H48.4492V68.4082H46.0469V66.0059ZM50.8369 66.0059H53.2393V68.4082H50.8369V66.0059Z" fill="white"/>
<path d="M11.2275 61.2012H49.6357V27.5977H11.2275V61.2012ZM13.6299 30H47.2334V58.7988H13.6299V30Z" fill="white"/>
</g>
<defs>
<clipPath id="clip0_112_2052">
<rect width="75" height="75" fill="white" transform="translate(0.138672)"/>
</clipPath>
</defs>
</svg>
