<svg width="76" height="75" viewBox="0 0 76 75" fill="none" xmlns="http://www.w3.org/2000/svg">
<g clip-path="url(#clip0_112_2088)">
<path d="M15.9341 11.7049L12.0705 15.5685L10.8205 14.3185C10.3659 13.864 9.68413 13.864 9.22958 14.3185C8.77504 14.7731 8.77504 15.4549 9.22958 15.9094L11.275 17.9549C11.5023 18.1822 11.8432 18.2958 12.0705 18.2958C12.2978 18.2958 12.6387 18.1822 12.8659 17.9549L17.525 13.2958C17.9796 12.8413 17.9796 12.1594 17.525 11.7049C17.0705 11.2504 16.3887 11.2504 15.9341 11.7049ZM15.9341 23.9776L12.0705 27.8413L10.8205 26.5913C10.3659 26.1367 9.68413 26.1367 9.22958 26.5913C8.77504 27.0458 8.77504 27.7276 9.22958 28.1822L11.275 30.2276C11.5023 30.4549 11.8432 30.5685 12.0705 30.5685C12.2978 30.5685 12.6387 30.4549 12.8659 30.2276L17.525 25.5685C17.9796 25.114 17.9796 24.4322 17.525 23.9776C17.0705 23.5231 16.3887 23.5231 15.9341 23.9776ZM15.9341 36.364L12.0705 40.2276L10.8205 38.9776C10.3659 38.5231 9.68413 38.5231 9.22958 38.9776C8.77504 39.4322 8.77504 40.114 9.22958 40.5685L11.275 42.614C11.5023 42.8413 11.8432 42.9549 12.0705 42.9549C12.2978 42.9549 12.6387 42.8413 12.8659 42.614L17.525 37.9549C17.9796 37.5004 17.9796 36.8185 17.525 36.364C17.0705 35.9094 16.3887 35.9094 15.9341 36.364ZM15.9341 48.6367L12.0705 52.5004L10.8205 51.2504C10.3659 50.7958 9.68413 50.7958 9.22958 51.2504C8.77504 51.7049 8.77504 52.3867 9.22958 52.8413L11.275 54.8867C11.5023 55.114 11.8432 55.2276 12.0705 55.2276C12.2978 55.2276 12.6387 55.114 12.8659 54.8867L17.525 50.2276C17.9796 49.7731 17.9796 49.0913 17.525 48.6367C17.0705 48.1822 16.3887 48.1822 15.9341 48.6367ZM15.9341 60.9095L12.0705 64.7731L10.8205 63.5231C10.3659 63.0685 9.68413 63.0685 9.22958 63.5231C8.77504 63.9776 8.77504 64.6595 9.22958 65.114L11.275 67.1595C11.5023 67.3867 11.8432 67.5004 12.0705 67.5004C12.2978 67.5004 12.6387 67.3867 12.8659 67.1595L17.525 62.5004C17.9796 62.0458 17.9796 61.364 17.525 60.9095C17.0705 60.4549 16.3887 60.4549 15.9341 60.9095ZM21.6159 13.4094H38.5478C39.2296 13.4094 39.6841 12.9549 39.6841 12.2731C39.6841 11.5913 39.2296 11.1367 38.5478 11.1367H21.6159C20.9341 11.1367 20.4796 11.5913 20.4796 12.2731C20.4796 12.9549 21.0478 13.4094 21.6159 13.4094ZM21.6159 18.5231H40.4796C41.1614 18.5231 41.6159 18.0685 41.6159 17.3867C41.6159 16.7049 41.1614 16.2504 40.4796 16.2504H21.6159C20.9341 16.2504 20.4796 16.7049 20.4796 17.3867C20.4796 18.0685 21.0478 18.5231 21.6159 18.5231ZM21.6159 25.6822H38.5478C39.2296 25.6822 39.6841 25.2276 39.6841 24.5458C39.6841 23.864 39.2296 23.4094 38.5478 23.4094H21.6159C20.9341 23.4094 20.4796 23.864 20.4796 24.5458C20.4796 25.2276 21.0478 25.6822 21.6159 25.6822ZM21.6159 30.7958H52.525C53.2069 30.7958 53.6614 30.3413 53.6614 29.6594C53.6614 28.9776 53.2069 28.5231 52.525 28.5231H21.6159C20.9341 28.5231 20.4796 28.9776 20.4796 29.6594C20.4796 30.3413 21.0478 30.7958 21.6159 30.7958ZM21.6159 38.0685H38.5478C39.2296 38.0685 39.6841 37.614 39.6841 36.9322C39.6841 36.2504 39.2296 35.7958 38.5478 35.7958H21.6159C20.9341 35.7958 20.4796 36.2504 20.4796 36.9322C20.4796 37.5004 21.0478 38.0685 21.6159 38.0685ZM21.6159 43.1822H48.4341C49.1159 43.1822 49.5705 42.7276 49.5705 42.0458C49.5705 41.364 49.1159 40.9095 48.4341 40.9095H21.6159C20.9341 40.9095 20.4796 41.364 20.4796 42.0458C20.4796 42.7276 21.0478 43.1822 21.6159 43.1822ZM21.6159 50.3413H38.5478C39.2296 50.3413 39.6841 49.8867 39.6841 49.2049C39.6841 48.5231 39.2296 48.0685 38.5478 48.0685H21.6159C20.9341 48.0685 20.4796 48.5231 20.4796 49.2049C20.4796 49.8867 21.0478 50.3413 21.6159 50.3413ZM21.6159 55.4549H40.4796C41.1614 55.4549 41.6159 55.0004 41.6159 54.3185C41.6159 53.6367 41.1614 53.1822 40.4796 53.1822H21.6159C20.9341 53.1822 20.4796 53.6367 20.4796 54.3185C20.4796 55.0004 21.0478 55.4549 21.6159 55.4549ZM21.6159 62.7276H38.5478C39.2296 62.7276 39.6841 62.2731 39.6841 61.5913C39.6841 60.9095 39.2296 60.4549 38.5478 60.4549H21.6159C20.9341 60.4549 20.4796 60.9095 20.4796 61.5913C20.4796 62.2731 21.0478 62.7276 21.6159 62.7276ZM44.0023 65.5685H21.6159C20.9341 65.5685 20.4796 66.0231 20.4796 66.7049C20.4796 67.3867 20.9341 67.8413 21.6159 67.8413H44.0023C44.6841 67.8413 45.1387 67.3867 45.1387 66.7049C45.1387 66.0231 44.6841 65.5685 44.0023 65.5685Z" fill="white"/>
<path d="M60.2528 42.3865V17.0456C60.2528 16.932 60.2528 16.8184 60.1391 16.7047V16.5911C60.1391 16.4775 60.0255 16.3638 59.9118 16.2502L47.0709 3.40927C46.8437 3.182 46.5028 3.06836 46.0482 3.06836H7.86639C4.68457 3.06836 2.18457 5.56836 2.18457 8.75018V70.1138C2.18457 73.2956 4.68457 75.7956 7.86639 75.7956H54.5709C57.6391 75.7956 60.1391 73.2956 60.2528 70.2275C67.4118 69.6593 73.0937 63.6365 73.0937 56.3638C73.0937 48.9775 67.4118 43.0684 60.2528 42.3865ZM54.5709 73.5229H7.86639C5.93457 73.5229 4.4573 71.932 4.4573 70.1138V8.75018C4.4573 6.81836 5.93457 5.34109 7.86639 5.34109H45.1391V12.9547C45.1391 15.9093 47.5255 18.2956 50.48 18.2956H58.0937V42.5002C50.9346 43.0684 45.2528 49.0911 45.2528 56.3638C45.2528 63.7502 50.9346 69.6593 58.0937 70.2275C57.8664 72.0456 56.3891 73.5229 54.5709 73.5229ZM65.5937 53.0684L57.2982 61.3638C57.0709 61.5911 56.8437 61.7047 56.5028 61.7047C56.2755 61.7047 55.9346 61.5911 55.7073 61.3638L52.7528 58.4093C52.2982 57.9547 52.2982 57.2729 52.7528 56.8184C53.2073 56.3638 53.8891 56.3638 54.3437 56.8184L56.5028 58.9775L64.0028 51.4775C64.4573 51.0229 65.1391 51.0229 65.5937 51.4775C66.0482 51.8184 66.0482 52.6138 65.5937 53.0684Z" fill="white"/>
</g>
<defs>
<clipPath id="clip0_112_2088">
<rect width="75" height="75" fill="white" transform="translate(0.138672)"/>
</clipPath>
</defs>
</svg>
