<svg width="70" height="71" viewBox="0 0 70 71" fill="none" xmlns="http://www.w3.org/2000/svg">
<mask id="mask0_117_5118" style="mask-type:luminance" maskUnits="userSpaceOnUse" x="0" y="0" width="70" height="71">
<path d="M69 69.998V1.99805H1V69.998H69Z" fill="white" stroke="white" stroke-width="2"/>
</mask>
<g mask="url(#mask0_117_5118)">
<path d="M48.525 33.7712C48.525 33.7712 46.954 32.3221 44.5321 33.0516C42.3086 33.7214 41.7563 36.7639 43.2674 37.9491C44.1351 38.6297 45.4406 39.1892 47.2002 39.8111C51.1381 41.2032 49.6823 46.7567 45.6766 46.7835C44.1134 46.7939 43.3825 46.6946 42.0093 45.7964" stroke="#19517E" stroke-width="2" stroke-miterlimit="10" stroke-linecap="round" stroke-linejoin="round"/>
<path d="M45.6768 30.9715V48.8105" stroke="#19517E" stroke-width="2" stroke-miterlimit="10" stroke-linecap="round" stroke-linejoin="round"/>
<path d="M41.6572 2.31885C42.0112 2.47886 42.3337 2.70109 42.6092 2.97496L52.9196 13.2853C53.1971 13.5629 53.416 13.8869 53.5757 14.2373H44.2461C42.8163 14.2373 41.6572 13.0782 41.6572 11.6484V2.31885Z" stroke="#19517E" stroke-width="2" stroke-miterlimit="10" stroke-linecap="round" stroke-linejoin="round"/>
<path d="M59.1754 46.2139C60.2571 44.1249 60.8687 41.7533 60.8687 39.2386C60.8687 30.8483 54.0671 24.0467 45.6768 24.0467C37.2865 24.0467 30.4849 30.8483 30.4849 39.2386C30.4849 41.7533 31.0964 44.1249 32.1781 46.2139" stroke="#19517E" stroke-width="2" stroke-miterlimit="10" stroke-linecap="round" stroke-linejoin="round"/>
<path d="M53.8716 21.5287V15.5842C53.8716 15.1573 53.7875 14.7346 53.6242 14.3403C53.4609 13.9459 53.2214 13.5876 52.9196 13.2858L42.6094 2.97541C41.9998 2.36591 41.1731 2.02348 40.311 2.02344H4.43479C2.63967 2.02344 1.18457 3.47867 1.18457 5.27379V66.7224C1.18457 68.5176 2.63967 69.9727 4.43479 69.9727H19.3799" stroke="#19517E" stroke-width="2" stroke-miterlimit="10" stroke-linecap="round" stroke-linejoin="round"/>
<path d="M30.5307 38.0525H26.0169C24.0956 38.0525 22.5381 39.6102 22.5381 41.5315V66.4938C22.5381 68.4152 24.0956 69.9727 26.0169 69.9727H65.3365C67.2578 69.9727 68.8153 68.4152 68.8153 66.4938V41.5315C68.8153 39.6102 67.2578 38.0525 65.3365 38.0525H60.8227" stroke="#19517E" stroke-width="2" stroke-miterlimit="10" stroke-linecap="round" stroke-linejoin="round"/>
<path d="M23.0332 39.7423L41.6774 52.9355" stroke="#19517E" stroke-width="2" stroke-miterlimit="10" stroke-linecap="round" stroke-linejoin="round"/>
<path d="M49.6763 52.9355L68.3205 39.7423" stroke="#19517E" stroke-width="2" stroke-miterlimit="10" stroke-linecap="round" stroke-linejoin="round"/>
<path d="M23.6396 69.0322L43.0208 51.7368C44.5341 50.3863 46.8198 50.3863 48.3331 51.7368L67.7142 69.0322" stroke="#19517E" stroke-width="2" stroke-miterlimit="10" stroke-linecap="round" stroke-linejoin="round"/>
</g>
</svg>
