<svg width="209" height="206" viewBox="0 0 209 206" fill="none" xmlns="http://www.w3.org/2000/svg">
<path d="M56.4951 4.15121C37.066 10.0726 19.553 23.329 10.396 41.4702C-0.5201 63.0826 1.3333 89.6897 11.4484 111.695C21.5792 133.7 39.1707 151.527 58.6783 165.883C71.118 175.04 84.7357 183.066 99.7984 186.521C114.845 189.977 131.573 188.375 144.264 179.563C156.955 170.752 164.463 153.961 160.002 139.181C155.84 125.391 142.285 113.784 144.735 99.5849C145.866 93.0038 150.342 87.585 153.531 81.7107C174.248 43.465 136.018 5.73756 99.123 1.13551C84.8928 -0.639342 70.2856 -0.0581896 56.5108 4.13549L56.4951 4.15121Z" fill="#CAE7FF"/>
<path d="M189.28 131.563H26.1973L33.6265 52.6211H196.929L189.28 131.563Z" fill="#50C7B3"/>
<path d="M174.548 124.039H42.3759C40.5382 122.029 39.5173 120.882 37.6953 118.872L42.7372 65.3434C44.9518 63.3172 46.1926 62.1863 48.4073 60.1602H180.736C182.558 62.1863 183.595 63.3172 185.417 65.3434L180.233 118.872C178.019 120.882 176.778 122.029 174.563 124.039H174.548Z" stroke="#68E0C9" stroke-width="3" stroke-miterlimit="10"/>
<path d="M134.684 92.1224C135.909 79.3372 126.532 68.9551 113.731 68.9551C100.93 68.9551 89.5586 79.3215 88.3491 92.1224C87.1397 104.908 96.5166 115.258 109.302 115.258C122.087 115.258 133.459 104.892 134.684 92.1224Z" fill="#68E0C9"/>
<path d="M138.736 92.122C140.181 77.0907 129.155 64.9023 114.108 64.9023C99.0609 64.9023 85.7102 77.0907 84.2809 92.122C82.8516 107.138 93.8777 119.31 108.909 119.31C123.94 119.31 137.291 107.138 138.736 92.122Z" stroke="white" stroke-width="3" stroke-miterlimit="10"/>
<path d="M117.721 83.0112C116.825 81.1735 114.988 79.9013 112.71 79.8071C111.689 79.7756 110.668 80.0584 109.742 80.561C105.878 82.6971 106.82 87.7546 109.569 89.7651C110.747 90.6289 112.113 91.1787 113.417 91.8541C115.239 92.8122 117.579 94.4614 117.061 96.9116C116.715 98.5608 115.647 100.116 114.187 101.042C109.742 103.854 104.527 100.147 105.155 95.3724" stroke="#50C7B3" stroke-width="2" stroke-miterlimit="10"/>
<path d="M112.978 76.7441L110.119 106.618" stroke="#50C7B3" stroke-width="2" stroke-miterlimit="10"/>
<path d="M58.5687 71.2485C57.5635 70.1333 55.7729 70.1333 54.5635 71.2485L52.2075 73.4003C50.9981 74.5155 50.8253 76.306 51.8306 77.4055L53.7782 79.5573C54.7834 80.6725 56.574 80.6725 57.7834 79.5573L60.1394 77.4055C61.3488 76.2903 61.5216 74.4998 60.5163 73.4003L58.5687 71.2485Z" stroke="#2C2C7C" stroke-width="0.5" stroke-miterlimit="10"/>
<path d="M77.5106 73.4003L75.5629 71.2485C74.5577 70.1333 72.7671 70.1333 71.542 71.2485L69.186 73.4003C67.9766 74.5155 67.8038 76.306 68.8091 77.4055L70.7567 79.5573C71.7619 80.6725 73.5525 80.6725 74.7619 79.5573L77.1179 77.4055C78.3273 76.2903 78.5001 74.4998 77.4949 73.4003H77.5106Z" fill="#68E0C9"/>
<path d="M152.197 105.11C151.191 104.01 149.401 104.01 148.191 105.11L145.835 107.262C144.626 108.361 144.453 110.167 145.443 111.267L147.39 113.403C148.396 114.502 150.186 114.502 151.395 113.403L153.751 111.267C154.961 110.167 155.134 108.361 154.144 107.262L152.197 105.11Z" stroke="#2C2C7C" stroke-width="0.5" stroke-miterlimit="10"/>
<path d="M171.107 107.262L169.175 105.11C168.17 104.01 166.379 104.01 165.17 105.11L162.814 107.262C161.604 108.361 161.432 110.167 162.421 111.267L164.353 113.403C165.358 114.502 167.149 114.502 168.358 113.403L170.714 111.267C171.924 110.167 172.096 108.361 171.107 107.262Z" fill="#68E0C9"/>
<path d="M145.867 98.2012H171.673" stroke="white" stroke-width="5" stroke-miterlimit="10"/>
<path d="M61.1463 183.727L55.5391 177.68" stroke="#2C2C7C" stroke-width="0.5" stroke-miterlimit="10"/>
<path d="M53.9213 187.197L47.6387 180.93" stroke="#2C2C7C" stroke-width="0.5" stroke-miterlimit="10"/>
<path d="M44.058 188.499L39.2832 183.725" stroke="#2C2C7C" stroke-width="0.5" stroke-miterlimit="10"/>
<path d="M50.8275 187.818C70.7196 183.955 83.7138 164.698 79.8507 144.806C75.9877 124.914 56.7303 111.92 36.8382 115.783C16.9461 119.646 3.95193 138.903 7.81496 158.795C11.678 178.687 30.9354 191.681 50.8275 187.818Z" stroke="#2C2C7C" stroke-width="0.5" stroke-miterlimit="10"/>
<path d="M73.5391 173.375L66.7695 166.59" stroke="#2C2C7C" stroke-width="0.5" stroke-miterlimit="10"/>
<path d="M77.4649 166.59L70.6953 159.82" stroke="#2C2C7C" stroke-width="0.5" stroke-miterlimit="10"/>
<path d="M79.9633 158.375L74.623 153.051" stroke="#2C2C7C" stroke-width="0.5" stroke-miterlimit="10"/>
<path d="M80.5596 148.261L74.3555 142.072" stroke="#2C2C7C" stroke-width="0.5" stroke-miterlimit="10"/>
<path d="M68.2302 179.217L61.1465 172.133" stroke="#2C2C7C" stroke-width="0.5" stroke-miterlimit="10"/>
<path d="M38.6849 184.952C58.9487 184.952 75.3757 168.525 75.3757 148.261C75.3757 127.997 58.9487 111.57 38.6849 111.57C18.4212 111.57 1.99414 127.997 1.99414 148.261C1.99414 168.525 18.4212 184.952 38.6849 184.952Z" fill="#F4B04D"/>
<mask id="mask0_695_12776" style="mask-type:luminance" maskUnits="userSpaceOnUse" x="10" y="120" width="57" height="57">
<path d="M49.846 173.799C63.9641 167.655 70.4279 151.229 64.2833 137.11C58.1387 122.992 41.7125 116.528 27.5944 122.673C13.4763 128.818 7.01243 145.244 13.157 159.362C19.3016 173.48 35.7278 179.944 49.846 173.799Z" fill="white"/>
</mask>
<g mask="url(#mask0_695_12776)">
<path d="M49.846 173.799C63.9641 167.655 70.4279 151.229 64.2833 137.11C58.1387 122.992 41.7125 116.528 27.5944 122.673C13.4763 128.818 7.01243 145.244 13.157 159.362C19.3016 173.48 35.7278 179.944 49.846 173.799Z" fill="#F2D34E"/>
<path d="M32.3237 175.985C17.9678 170.142 11.0568 153.775 16.884 139.419C22.7269 125.064 39.0932 118.153 53.4491 123.98" stroke="#2C2C7C" stroke-width="0.5" stroke-miterlimit="10"/>
</g>
<path d="M45.7684 137.739C44.4805 135.493 42.0931 133.954 39.3287 133.86C38.0722 133.813 36.8784 134.158 35.8104 134.786C31.3654 137.378 33.0931 143.535 36.6585 145.97C38.1821 147.006 39.9255 147.682 41.5747 148.514C43.8993 149.676 46.9464 151.671 46.6009 154.671C46.3653 156.666 45.2658 158.566 43.5852 159.697C38.5119 163.121 31.7424 158.598 31.9623 152.802" stroke="#2C2C7C" stroke-width="2" stroke-miterlimit="10"/>
<path d="M39.2812 130.104V166.433" stroke="#2C2C7C" stroke-width="2" stroke-miterlimit="10"/>
<path d="M146.119 59.6875L153.925 70.4309" stroke="#2C2C7C" stroke-width="0.5" stroke-miterlimit="10"/>
<path d="M144.202 65.8263L146.338 68.7634L141.956 62.7478L140.652 60.9258" stroke="#2C2C7C" stroke-width="0.5" stroke-miterlimit="10"/>
<path d="M154.6 58.2734L162.406 69.0168" stroke="#2C2C7C" stroke-width="0.5" stroke-miterlimit="10"/>
<path d="M162.469 56.0117L170.275 66.7394" stroke="#2C2C7C" stroke-width="0.5" stroke-miterlimit="10"/>
<path d="M169.285 52.3047L177.091 63.0324" stroke="#2C2C7C" stroke-width="0.5" stroke-miterlimit="10"/>
<path d="M175.506 47.7812L183.312 58.5089" stroke="#2C2C7C" stroke-width="0.5" stroke-miterlimit="10"/>
<path d="M186.768 38.3418L194.574 49.0851" stroke="#2C2C7C" stroke-width="0.5" stroke-miterlimit="10"/>
<path d="M191.936 32.8438L199.742 43.5871" stroke="#2C2C7C" stroke-width="0.5" stroke-miterlimit="10"/>
<path d="M197.102 27.3633L204.437 37.4627" stroke="#2C2C7C" stroke-width="0.5" stroke-miterlimit="10"/>
<path d="M202.27 21.8828L207.814 29.5006" stroke="#2C2C7C" stroke-width="0.5" stroke-miterlimit="10"/>
<path d="M181.725 43.2578L189.531 53.9854" stroke="#2C2C7C" stroke-width="0.5" stroke-miterlimit="10"/>
<path d="M141.955 62.7502L146.337 68.7659C154.583 73.1794 172.222 67.7449 187.771 55.5723C203.085 43.5724 211.174 29.0437 207.389 21.3474L203.321 15.7559" stroke="#2C2C7C" stroke-width="0.5" stroke-miterlimit="10"/>
<path d="M182.934 48.1756C165.877 61.3535 147.186 67.6676 141.17 62.2959C135.155 56.9242 144.107 41.8929 161.149 28.7151C178.206 15.5372 196.897 9.22309 202.913 14.5948C208.929 19.9665 199.976 34.9977 182.934 48.1756Z" fill="#F4B04D"/>
<mask id="mask1_695_12776" style="mask-type:luminance" maskUnits="userSpaceOnUse" x="146" y="17" width="51" height="40">
<path d="M179.557 44.7832C166.599 54.7883 152.385 59.5945 147.83 55.5108C143.259 51.4271 150.06 40.0083 163.018 30.0032C175.976 19.998 190.191 15.1918 194.745 19.2755C199.316 23.3592 192.515 34.778 179.557 44.7832Z" fill="white"/>
</mask>
<g mask="url(#mask1_695_12776)">
<path d="M179.557 44.7832C166.599 54.7883 152.385 59.5945 147.83 55.5108C143.259 51.4271 150.06 40.0083 163.018 30.0032C175.976 19.998 190.191 15.1918 194.745 19.2755C199.316 23.3592 192.515 34.778 179.557 44.7832Z" fill="#F2D34E"/>
<path d="M149.258 57.1451C145.19 53.6582 152.4 42.585 165.373 32.4228C178.347 22.2606 192.169 16.8575 196.237 20.3444" stroke="#2C2C7C" stroke-width="0.5" stroke-miterlimit="10"/>
</g>
<path d="M14.2119 2.7139L8.18117 8.74462C6.80719 10.1186 6.80718 12.3462 8.18116 13.7202L14.2119 19.751C15.5859 21.1249 17.8135 21.1249 19.1875 19.751L25.2182 13.7202C26.5922 12.3463 26.5922 10.1186 25.2182 8.74463L19.1875 2.71389C17.8135 1.33991 15.5859 1.33992 14.2119 2.7139Z" fill="#50C7B3"/>
<path d="M147.561 165.439L141.531 171.469C140.157 172.843 140.157 175.071 141.531 176.445L147.561 182.476C148.935 183.85 151.163 183.85 152.537 182.476L158.568 176.445C159.942 175.071 159.942 172.843 158.568 171.469L152.537 165.439C151.163 164.065 148.935 164.065 147.561 165.439Z" fill="#50C7B3"/>
<path d="M43.8519 36.6959C47.8248 36.6959 51.0455 33.4752 51.0455 29.5022C51.0455 25.5293 47.8248 22.3086 43.8519 22.3086C39.8789 22.3086 36.6582 25.5293 36.6582 29.5022C36.6582 33.4752 39.8789 36.6959 43.8519 36.6959Z" fill="#F04572"/>
<path d="M144.376 197.83C144.376 201.804 141.156 205.024 137.182 205.024C133.208 205.024 129.988 201.804 129.988 197.83C129.988 193.857 133.208 190.637 137.182 190.637C141.156 190.637 144.376 193.857 144.376 197.83Z" fill="#8C8CE5"/>
</svg>
