<svg width="244" height="236" viewBox="0 0 244 236" fill="none" xmlns="http://www.w3.org/2000/svg">
<path d="M171.106 228.716C187.865 223.281 203.965 213.999 214.205 199.643C224.462 185.303 227.854 165.355 219.765 149.696C213.938 138.418 203.085 130.612 191.902 124.612C180.719 118.628 168.75 113.994 158.258 106.848C147.782 99.7013 138.609 89.3349 136.661 76.801C134.682 64.11 140.29 51.2463 138.939 38.461C137.541 25.2046 128.447 13.456 116.73 7.09483C105.013 0.733626 91.0336 -0.617148 77.8714 1.42472C49.2224 5.88541 24.2174 26.3041 11.5107 52.3457C-1.21166 78.4031 -2.21687 109.345 5.93489 137.162C13.6626 163.533 30.5315 193.737 52.9135 210.59C72.4683 225.323 100.096 233.365 124.206 234.684C140.023 235.548 156.028 233.601 171.106 228.7V228.716Z" fill="#CAE7FF"/>
<path d="M190.644 234.779H102.357C99.8757 234.779 97.8809 232.769 97.8809 230.303L111.671 74.3983C111.671 71.9166 113.682 69.9219 116.148 69.9219H204.435C206.917 69.9219 208.911 71.9323 208.911 74.3983L195.121 230.303C195.121 232.784 193.11 234.779 190.644 234.779Z" fill="#2C2C7C"/>
<path d="M197.539 234.779H109.252C106.77 234.779 104.775 232.769 104.775 230.303L118.566 74.3983C118.566 71.9166 120.576 69.9219 123.042 69.9219H211.329C213.811 69.9219 215.806 71.9323 215.806 74.3983L202.015 230.303C202.015 232.784 200.005 234.779 197.539 234.779Z" stroke="#2C2C7C" stroke-width="0.5" stroke-miterlimit="10"/>
<path d="M187.503 231.356H105.483C103.536 231.356 101.949 229.77 101.949 227.822L115.74 77.7762C115.74 75.8286 117.326 74.2422 119.274 74.2422H201.294C203.242 74.2422 204.828 75.8286 204.828 77.7762L191.037 227.822C191.037 229.77 189.451 231.356 187.503 231.356Z" fill="#8C8CE5"/>
<path d="M142.629 71.9492H177.937V76.0644C177.937 77.9177 176.43 79.4099 174.592 79.4099H145.99C144.137 79.4099 142.645 77.902 142.645 76.0644V71.9492H142.629Z" fill="#2C2C7C"/>
<path d="M145.944 185.24H36.123L53.2434 42.2148H165.342L145.944 185.24Z" fill="white"/>
<path d="M78.7344 75.4041H65.5879L67.19 62.2891H80.3679L78.7344 75.4041Z" stroke="#2C2C7C" stroke-width="0.5" stroke-miterlimit="10"/>
<path d="M91.8966 75.4041H78.7344L80.3679 62.2891H93.5458L91.8966 75.4041Z" stroke="#2C2C7C" stroke-width="0.5" stroke-miterlimit="10"/>
<path d="M105.059 75.4041H91.8965L93.5458 62.2891H106.724L105.059 75.4041Z" stroke="#2C2C7C" stroke-width="0.5" stroke-miterlimit="10"/>
<path d="M118.205 75.4041H105.059L106.723 62.2891H119.901L118.205 75.4041Z" stroke="#2C2C7C" stroke-width="0.5" stroke-miterlimit="10"/>
<path d="M131.367 75.4041H118.205L119.901 62.2891H133.079L131.367 75.4041Z" stroke="#2C2C7C" stroke-width="0.5" stroke-miterlimit="10"/>
<path d="M144.514 75.4041H131.367L133.079 62.2891H146.273L144.514 75.4041Z" stroke="#2C2C7C" stroke-width="0.5" stroke-miterlimit="10"/>
<path d="M77.1171 88.486H63.9863L65.5883 75.4023H78.7348L77.1171 88.486Z" stroke="#2C2C7C" stroke-width="0.5" stroke-miterlimit="10"/>
<path d="M90.2479 88.486H77.1172L78.7349 75.4023H91.8971L90.2479 88.486Z" stroke="#2C2C7C" stroke-width="0.5" stroke-miterlimit="10"/>
<path d="M103.379 88.486H90.248L91.8972 75.4023H105.059L103.379 88.486Z" stroke="#2C2C7C" stroke-width="0.5" stroke-miterlimit="10"/>
<path d="M116.51 88.486H103.379L105.06 75.4023H118.206L116.51 88.486Z" stroke="#2C2C7C" stroke-width="0.5" stroke-miterlimit="10"/>
<path d="M129.641 88.486H116.51L118.206 75.4023H131.368L129.641 88.486Z" stroke="#2C2C7C" stroke-width="0.5" stroke-miterlimit="10"/>
<path d="M142.771 88.486H129.641L131.368 75.4023H144.515L142.771 88.486Z" stroke="#2C2C7C" stroke-width="0.5" stroke-miterlimit="10"/>
<path d="M75.5154 101.493H62.4004L63.9868 88.4883H77.1175L75.5154 101.493Z" stroke="#2C2C7C" stroke-width="0.5" stroke-miterlimit="10"/>
<path d="M88.615 101.493H75.5156L77.1177 88.4883H90.2485L88.615 101.493Z" stroke="#2C2C7C" stroke-width="0.5" stroke-miterlimit="10"/>
<path d="M101.73 101.493H88.6152L90.2487 88.4883H103.379L101.73 101.493Z" stroke="#2C2C7C" stroke-width="0.5" stroke-miterlimit="10"/>
<path d="M114.83 101.493H101.73L103.38 88.4883H116.51L114.83 101.493Z" stroke="#2C2C7C" stroke-width="0.5" stroke-miterlimit="10"/>
<path d="M127.927 101.493H114.828L116.509 88.4883H129.64L127.927 101.493Z" stroke="#2C2C7C" stroke-width="0.5" stroke-miterlimit="10"/>
<path d="M141.043 101.493H127.928L129.64 88.4883H142.771L141.043 101.493Z" stroke="#2C2C7C" stroke-width="0.5" stroke-miterlimit="10"/>
<path d="M73.898 114.468H60.8301L62.4007 101.494H75.5158L73.898 114.468Z" stroke="#2C2C7C" stroke-width="0.5" stroke-miterlimit="10"/>
<path d="M86.982 114.468H73.8984L75.5162 101.494H88.6156L86.982 114.468Z" stroke="#2C2C7C" stroke-width="0.5" stroke-miterlimit="10"/>
<path d="M100.064 114.468H86.9805L88.614 101.494H101.729L100.064 114.468Z" stroke="#2C2C7C" stroke-width="0.5" stroke-miterlimit="10"/>
<path d="M113.148 114.468H100.064L101.729 101.494H114.829L113.148 114.468Z" stroke="#2C2C7C" stroke-width="0.5" stroke-miterlimit="10"/>
<path d="M126.232 114.468H113.148L114.829 101.494H127.928L126.232 114.468Z" stroke="#2C2C7C" stroke-width="0.5" stroke-miterlimit="10"/>
<path d="M139.316 114.468H126.232L127.929 101.494H141.044L139.316 114.468Z" stroke="#2C2C7C" stroke-width="0.5" stroke-miterlimit="10"/>
<path d="M72.3101 127.391H59.2422L60.8286 114.465H73.8965L72.3101 127.391Z" stroke="#2C2C7C" stroke-width="0.5" stroke-miterlimit="10"/>
<path d="M85.3628 127.391H72.3105L73.8969 114.465H86.9805L85.3628 127.391Z" stroke="#2C2C7C" stroke-width="0.5" stroke-miterlimit="10"/>
<path d="M98.4155 127.391H85.3633L86.981 114.465H100.065L98.4155 127.391Z" stroke="#2C2C7C" stroke-width="0.5" stroke-miterlimit="10"/>
<path d="M111.484 127.391H98.416L100.065 114.465H113.149L111.484 127.391Z" stroke="#2C2C7C" stroke-width="0.5" stroke-miterlimit="10"/>
<path d="M124.537 127.391H111.484L113.149 114.465H126.233L124.537 127.391Z" stroke="#2C2C7C" stroke-width="0.5" stroke-miterlimit="10"/>
<path d="M137.587 127.391H124.535L126.232 114.465H139.315L137.587 127.391Z" stroke="#2C2C7C" stroke-width="0.5" stroke-miterlimit="10"/>
<path d="M70.7084 140.272H57.6719L59.2425 127.393H72.3105L70.7084 140.272Z" stroke="#2C2C7C" stroke-width="0.5" stroke-miterlimit="10"/>
<path d="M83.7455 140.272H70.709L72.3111 127.393H85.3633L83.7455 140.272Z" stroke="#2C2C7C" stroke-width="0.5" stroke-miterlimit="10"/>
<path d="M96.7827 140.272H83.7461L85.3639 127.393H98.4162L96.7827 140.272Z" stroke="#2C2C7C" stroke-width="0.5" stroke-miterlimit="10"/>
<path d="M109.802 140.272H96.7812L98.4147 127.393H111.483L109.802 140.272Z" stroke="#2C2C7C" stroke-width="0.5" stroke-miterlimit="10"/>
<path d="M122.839 140.272H109.803L111.483 127.393H124.536L122.839 140.272Z" stroke="#2C2C7C" stroke-width="0.5" stroke-miterlimit="10"/>
<path d="M135.876 140.272H122.84L124.536 127.393H137.588L135.876 140.272Z" stroke="#2C2C7C" stroke-width="0.5" stroke-miterlimit="10"/>
<path d="M69.1223 153.09H56.1172L57.6721 140.273H70.7086L69.1223 153.09Z" stroke="#2C2C7C" stroke-width="0.5" stroke-miterlimit="10"/>
<path d="M82.1282 153.09H69.123L70.7094 140.273H83.7459L82.1282 153.09Z" stroke="#2C2C7C" stroke-width="0.5" stroke-miterlimit="10"/>
<path d="M95.132 153.09H82.127L83.7447 140.273H96.7813L95.132 153.09Z" stroke="#2C2C7C" stroke-width="0.5" stroke-miterlimit="10"/>
<path d="M108.154 153.09H95.1328L96.7821 140.273H109.803L108.154 153.09Z" stroke="#2C2C7C" stroke-width="0.5" stroke-miterlimit="10"/>
<path d="M121.159 153.09H108.154L109.803 140.273H122.84L121.159 153.09Z" stroke="#2C2C7C" stroke-width="0.5" stroke-miterlimit="10"/>
<path d="M134.163 153.09H121.158L122.839 140.273H135.875L134.163 153.09Z" stroke="#2C2C7C" stroke-width="0.5" stroke-miterlimit="10"/>
<path d="M67.5362 165.875H54.5469L56.1175 153.09H69.1226L67.5362 165.875Z" stroke="#2C2C7C" stroke-width="0.5" stroke-miterlimit="10"/>
<path d="M80.5266 165.875H67.5371L69.1235 153.09H82.1287L80.5266 165.875Z" stroke="#2C2C7C" stroke-width="0.5" stroke-miterlimit="10"/>
<path d="M93.5148 165.875H80.5254L82.1275 153.09H95.1326L93.5148 165.875Z" stroke="#2C2C7C" stroke-width="0.5" stroke-miterlimit="10"/>
<path d="M106.489 165.875H93.5156L95.1334 153.09H108.154L106.489 165.875Z" stroke="#2C2C7C" stroke-width="0.5" stroke-miterlimit="10"/>
<path d="M119.478 165.875H106.488L108.153 153.09H121.158L119.478 165.875Z" stroke="#2C2C7C" stroke-width="0.5" stroke-miterlimit="10"/>
<path d="M132.468 165.875H119.479L121.159 153.09H134.164L132.468 165.875Z" stroke="#2C2C7C" stroke-width="0.5" stroke-miterlimit="10"/>
<path d="M62.3063 158.743L58.6309 156.654L96.5938 100.173L103.929 126.34L131.588 83.791L135.342 85.8643L102.076 136.974L94.662 110.665L62.3063 158.743Z" fill="#50C7B3"/>
<path d="M134.636 96.2767L132.689 86.0045L121.93 89.2872L125.668 83.5386L136.443 80.2559L138.39 90.528L134.636 96.2767Z" fill="#50C7B3"/>
<path d="M84.2012 124.221C84.6567 120.624 82.065 117.719 78.4368 117.719C74.8086 117.719 71.4945 120.64 71.0548 124.221C70.615 127.802 73.1908 130.708 76.8191 130.708C80.4473 130.708 83.7457 127.802 84.2012 124.221Z" fill="#5E5EDB"/>
<path d="M121.113 103.927C121.584 100.314 119.008 97.377 115.364 97.377C111.72 97.377 108.39 100.314 107.919 103.927C107.448 107.539 110.024 110.461 113.668 110.461C117.312 110.461 120.641 107.539 121.113 103.927Z" fill="#83DDCC"/>
<path d="M19.3765 30.188L25.3961 24.1684C26.7732 22.7912 29.0056 22.8023 30.3717 24.1684L36.3913 30.188C37.7685 31.5652 37.7574 33.7976 36.3913 35.1636L30.3717 41.1832C28.9945 42.5604 26.7622 42.5493 25.3961 41.1832L19.3765 35.1636C17.9993 33.7864 18.0104 31.5541 19.3765 30.188Z" fill="#50C7B3"/>
<path d="M35.1022 69.9046C35.1022 73.8784 31.8823 77.0983 27.9085 77.0983C23.9347 77.0983 20.7148 73.8784 20.7148 69.9046C20.7148 65.9308 23.9347 62.7109 27.9085 62.7109C31.8823 62.7109 35.1022 65.9308 35.1022 69.9046Z" fill="#F04572"/>
<path d="M236.555 215.977C240.528 215.977 243.749 212.756 243.749 208.784C243.749 204.811 240.528 201.59 236.555 201.59C232.582 201.59 229.361 204.811 229.361 208.784C229.361 212.756 232.582 215.977 236.555 215.977Z" fill="#DCDCFF"/>
</svg>
