<svg width="240" height="232" viewBox="0 0 240 232" fill="none" xmlns="http://www.w3.org/2000/svg">
<path d="M160.299 0.497854C137.666 0.859107 115.629 13.7071 104.179 33.2148C96.5613 46.2042 93.5456 61.4397 86.4148 74.6961C77.5091 91.2667 62.8077 103.769 50.4309 117.937C35.6823 134.821 26.1798 154.25 32.1169 177.229C38.1168 200.459 61.9281 217.218 83.2106 225.417C96.4357 230.506 111.011 232.485 124.943 229.847C142.44 226.548 158.414 215.805 168.058 200.821C173.665 192.119 177.089 182.051 178.142 171.763C179.21 161.287 175.173 150.952 180.168 141.198C186.796 128.256 200.775 122.9 210.435 112.879C240.136 82.0469 231.23 30.9688 194.681 9.68624C184.314 3.65488 172.33 0.293652 160.299 0.482132V0.497854Z" fill="#CAE7FF"/>
<path d="M217.723 191.836H80.7293C75.9859 191.836 72.6718 188.019 73.3471 183.323L83.902 108.889C84.5774 104.098 89.0224 100.219 93.8129 100.219H232.173C236.964 100.219 240.246 104.098 239.477 108.889L227.681 183.323C226.927 188.035 222.482 191.836 217.739 191.836H217.723Z" fill="#50C7B3"/>
<mask id="mask0_695_12841" style="mask-type:luminance" maskUnits="userSpaceOnUse" x="79" y="113" width="160" height="25">
<path d="M235 137.067H79.8965L83.2263 113.648H238.722L235 137.067Z" fill="white"/>
</mask>
<g mask="url(#mask0_695_12841)">
<path d="M235 137.067H79.8965L83.2263 113.648H238.722L235 137.067Z" fill="#2C2C7C"/>
<path d="M148.63 109.895L128.211 140.947" stroke="#2C2C7C" stroke-width="0.5" stroke-miterlimit="10"/>
<path d="M180.011 109.895L159.482 140.947" stroke="#2C2C7C" stroke-width="0.5" stroke-miterlimit="10"/>
<path d="M185.163 109.895L164.619 140.947" stroke="#2C2C7C" stroke-width="0.5" stroke-miterlimit="10"/>
<path d="M217.582 109.895L196.928 140.947" stroke="#2C2C7C" stroke-width="0.5" stroke-miterlimit="10"/>
</g>
<path d="M205.298 163.077H165.026C160.927 163.077 158.084 159.763 158.712 155.695C159.325 151.611 163.157 148.297 167.272 148.297H207.623C211.738 148.297 214.549 151.611 213.905 155.695C213.261 159.778 209.413 163.077 205.314 163.077H205.298Z" fill="white"/>
<path d="M94.1895 169.518H210.623" stroke="#2C2C7C" stroke-width="0.5" stroke-miterlimit="10"/>
<path d="M93.2793 175.941H133.096" stroke="#2C2C7C" stroke-width="0.5" stroke-miterlimit="10"/>
<path d="M145.613 120.999H8.39925C3.64013 120.999 0.326038 117.182 1.00142 112.47L11.572 37.9104C12.2474 33.1199 16.6924 29.2246 21.4986 29.2246H160.094C164.9 29.2246 168.167 33.1199 167.414 37.9104L155.586 112.47C154.833 117.182 150.372 120.999 145.628 120.999H145.613Z" fill="#F04572"/>
<path d="M41.9496 106.926H29.1016L33.091 90.3242H45.4993C49.9286 90.3242 52.8029 93.9368 51.9076 98.476C50.9966 103.109 46.536 106.926 41.9496 106.926Z" fill="white"/>
<path d="M29.3213 106.926H19.9288C18.1853 106.926 16.9131 105.277 17.3686 103.581L20.3685 92.2876C20.6827 91.1253 21.735 90.3086 22.9287 90.3086H33.2951C37.7244 90.3086 40.5045 93.9211 39.4992 98.4604C38.4783 103.094 33.9077 106.911 29.3213 106.911V106.926Z" fill="#F2D34E"/>
<path d="M140.541 74.6183H120.703C118.489 74.6183 116.902 72.8592 117.185 70.676L118.614 59.3358C118.897 57.074 120.97 55.2363 123.248 55.2363H143.588C145.865 55.2363 147.405 57.074 147.043 59.3358L145.206 70.676C144.86 72.8592 142.771 74.6183 140.541 74.6183Z" fill="#F2D34E"/>
<mask id="mask1_695_12841" style="mask-type:luminance" maskUnits="userSpaceOnUse" x="117" y="55" width="31" height="20">
<path d="M140.541 74.6203H120.703C118.489 74.6203 116.902 72.8612 117.185 70.6779L118.614 59.3377C118.897 57.076 120.97 55.2383 123.248 55.2383H143.588C145.865 55.2383 147.405 57.076 147.043 59.3377L145.206 70.6779C144.86 72.8612 142.771 74.6203 140.541 74.6203Z" fill="white"/>
</mask>
<g mask="url(#mask1_695_12841)">
<path d="M140.258 53.8398L121.771 76.2533" stroke="white" stroke-width="0.5" stroke-miterlimit="10"/>
<path d="M149.524 54.2031L131.053 76.6165" stroke="white" stroke-width="0.5" stroke-miterlimit="10"/>
<path d="M123.828 69.8591H116.336C113.635 69.8591 111.703 67.7073 112.033 65.0371C112.347 62.3513 114.829 60.1523 117.546 60.1523H125.132C127.865 60.1523 129.766 62.3513 129.389 65.0371C129.012 67.7073 126.53 69.8591 123.828 69.8591Z" stroke="#2C2C7C" stroke-width="0.5" stroke-miterlimit="10"/>
<path d="M146.257 69.8591H138.765C136.064 69.8591 134.195 67.7073 134.587 65.0371C134.98 62.3513 137.524 60.1523 140.242 60.1523H147.828C150.561 60.1523 152.399 62.3513 151.943 65.0371C151.488 67.7073 148.943 69.8591 146.242 69.8591H146.257Z" stroke="#2C2C7C" stroke-width="0.5" stroke-miterlimit="10"/>
</g>
<path d="M22.0801 81.8594H140.587" stroke="#2C2C7C" stroke-width="0.5" stroke-miterlimit="10"/>
<path d="M54.153 51.0102H29.7448C27.4359 51.0102 25.9124 49.1726 26.3365 46.8794C26.7605 44.5548 29.0223 42.6543 31.3783 42.6543H56.3048C58.6608 42.6543 60.0587 44.5548 59.4461 46.8794C58.8336 49.1726 56.4776 51.0102 54.1687 51.0102H54.153Z" stroke="#2C2C7C" stroke-width="0.5" stroke-miterlimit="10"/>
<path d="M80.1328 98.6172H94.5358" stroke="#2C2C7C" stroke-width="0.5" stroke-miterlimit="10"/>
<path d="M100.441 98.6172H114.844" stroke="#2C2C7C" stroke-width="0.5" stroke-miterlimit="10"/>
<path d="M120.75 98.6172H135.153" stroke="#2C2C7C" stroke-width="0.5" stroke-miterlimit="10"/>
<path d="M215.923 41.4575L221.943 35.4379C223.32 34.0607 225.553 34.0718 226.919 35.4379L232.938 41.4575C234.315 42.8347 234.304 45.0671 232.938 46.4331L226.919 52.4528C225.541 53.8299 223.309 53.8188 221.943 52.4527L215.923 46.4331C214.546 45.0559 214.557 42.8236 215.923 41.4575Z" fill="#50C7B3"/>
<path d="M197.87 64.928C197.87 68.9018 194.65 72.1217 190.676 72.1217C186.702 72.1217 183.482 68.9018 183.482 64.928C183.482 60.9542 186.702 57.7344 190.676 57.7344C194.65 57.7344 197.87 60.9542 197.87 64.928Z" fill="#F04572"/>
<path d="M29.1019 162.872C33.0748 162.872 36.2955 159.651 36.2955 155.678C36.2955 151.705 33.0748 148.484 29.1019 148.484C25.1289 148.484 21.9082 151.705 21.9082 155.678C21.9082 159.651 25.1289 162.872 29.1019 162.872Z" fill="#8C8CE5"/>
</svg>
