<svg width="261" height="208" viewBox="0 0 261 208" fill="none" xmlns="http://www.w3.org/2000/svg">
<path d="M157.946 5.41354C106.036 7.75383 60.6122 53.4131 56.1672 104.805C53.4028 136.894 65.5441 169.815 90.8004 190.312C117.235 211.752 154.664 210.747 185.669 202.218C216.579 193.721 243.312 170.098 254.495 139.925C273.013 89.9625 247.427 31.895 197.967 12.2616C185.292 7.23549 171.564 4.81666 157.931 5.42922L157.946 5.41354Z" fill="#CAE7FF"/>
<path d="M146.434 75.5413H77.2458C67.8533 75.5413 61.0051 67.8922 61.979 58.4996L63.8638 40.2798C64.8376 30.903 73.2563 23.2695 82.6332 23.2695H151.695C161.072 23.2695 167.936 30.903 166.994 40.2798L165.172 58.4996C164.229 67.8922 155.826 75.5413 146.434 75.5413ZM81.9892 29.615C76.1149 29.615 70.8375 34.3898 70.225 40.2798L68.3401 58.4996C67.7276 64.3896 72.0155 69.1801 77.9055 69.1801H147.078C152.952 69.1801 158.229 64.3896 158.826 58.4996L160.664 40.2798C161.261 34.4055 156.957 29.615 151.083 29.615H82.005H81.9892Z" fill="#2C2C7C"/>
<path d="M72.9735 41.6764H61.916L62.4029 37.0586H73.4447L72.9735 41.6764Z" fill="#F2D34E"/>
<path d="M169.208 41.6764H158.166L158.637 37.0586H169.679L169.208 41.6764Z" fill="#F2D34E"/>
<path d="M190.004 164.91H15.9743C6.47178 164.91 -0.407701 157.183 0.597526 147.649L11.7649 41.6758H219.36L208.899 147.649C207.957 157.183 199.491 164.91 190.004 164.91Z" fill="#2C2C7C"/>
<path d="M200.512 165.367H26.4821C16.9796 165.367 10.1001 157.639 11.1053 148.105L22.2728 43.6875H229.868L219.407 148.105C218.465 157.639 209.999 165.367 200.512 165.367Z" stroke="#2C2C7C" stroke-width="0.5" stroke-miterlimit="10"/>
<path d="M192.722 96.5116L108.943 106.611L27.221 96.5116C15.2525 95.0352 7.22636 84.7159 8.51431 72.4961L11.7656 41.6953H219.361L216.314 72.4961C215.104 84.7159 204.973 95.0352 192.706 96.5116H192.722Z" fill="#8C8CE5"/>
<path d="M107.685 118.829C102.581 118.829 98.8738 114.682 99.3921 109.562L100.335 100.279H118.806L117.863 109.562C117.345 114.682 112.79 118.829 107.685 118.829Z" fill="#F2D34E"/>
<path d="M99.9727 106.594H117.91" stroke="#2C2C7C" stroke-width="0.5" stroke-miterlimit="10"/>
<path d="M110.278 111.539C110.388 110.518 109.634 109.686 108.613 109.686C107.592 109.686 106.681 110.518 106.571 111.539C106.461 112.56 107.215 113.392 108.236 113.392C109.257 113.392 110.168 112.56 110.278 111.539Z" stroke="#2C2C7C" stroke-width="0.5" stroke-miterlimit="10"/>
<path d="M126.99 81.2599H96.0788C94.1155 81.2599 92.6705 79.6578 92.8747 77.6788C93.0789 75.6997 94.838 74.0977 96.817 74.0977H127.728C129.691 74.0977 131.136 75.6997 130.932 77.6788C130.728 79.6578 128.969 81.2599 127.005 81.2599H126.99Z" fill="#5E5EDB"/>
<path d="M236.933 119.86L230.902 125.891C229.528 127.265 229.528 129.493 230.902 130.867L236.933 136.897C238.307 138.271 240.534 138.271 241.908 136.897L247.939 130.867C249.313 129.493 249.313 127.265 247.939 125.891L241.908 119.86C240.534 118.486 238.307 118.486 236.933 119.86Z" fill="#5E5EDB"/>
<path d="M248.637 167.096C252.61 167.096 255.831 163.876 255.831 159.903C255.831 155.93 252.61 152.709 248.637 152.709C244.664 152.709 241.443 155.93 241.443 159.903C241.443 163.876 244.664 167.096 248.637 167.096Z" fill="#F04572"/>
<path d="M52.5221 7.40852C52.5221 11.3823 49.3022 14.6022 45.3284 14.6022C41.3546 14.6022 38.1348 11.3823 38.1348 7.40852C38.1348 3.43474 41.3546 0.214844 45.3284 0.214844C49.3022 0.214844 52.5221 3.43474 52.5221 7.40852Z" fill="#DCDCFF"/>
</svg>
