<svg width="80" height="80" viewBox="0 0 80 80" fill="none" xmlns="http://www.w3.org/2000/svg">
<g clip-path="url(#clip0_112_2886)">
<path d="M78.8276 69.2103C79.1385 69.2103 79.4367 69.0868 79.6566 68.8669C79.8765 68.647 80 68.3488 80 68.0379V66.2073C80 64.2422 78.7521 62.4935 76.895 61.8564L68.8094 59.0791C71.1785 57.4959 72.7424 54.7979 72.7424 51.7409C72.7424 46.8772 68.7854 42.9203 63.9218 42.9203C59.0583 42.9203 55.1013 46.8773 55.1013 51.7409C55.0996 53.3656 55.5493 54.9588 56.4003 56.3429L45.6625 52.6538C49.2099 50.6594 51.6133 46.8614 51.6133 42.5104C51.6133 37.1779 48.0069 32.5419 42.8432 31.2362C42.5428 31.1631 42.2257 31.2116 41.9609 31.3711C41.696 31.5306 41.5049 31.7883 41.4292 32.0881C41.3534 32.3878 41.3991 32.7053 41.5563 32.9715C41.7135 33.2378 41.9695 33.4311 42.2686 33.5095C46.39 34.5517 49.2684 38.253 49.2684 42.5104C49.2684 47.6305 45.1022 51.796 39.9812 51.796C34.8612 51.796 30.6956 47.6306 30.6956 42.5104C30.6956 38.2351 33.5884 34.5298 37.7302 33.4996C37.8808 33.4636 38.0228 33.3981 38.1479 33.307C38.2731 33.2158 38.379 33.1007 38.4594 32.9683C38.5398 32.836 38.5933 32.6891 38.6166 32.536C38.6399 32.3829 38.6327 32.2267 38.5953 32.0764C38.5579 31.9261 38.4912 31.7847 38.3988 31.6604C38.3065 31.5361 38.1905 31.4313 38.0574 31.352C37.9244 31.2728 37.7769 31.2207 37.6237 31.1988C37.4704 31.1768 37.3142 31.1855 37.1643 31.2242C31.975 32.5148 28.3508 37.156 28.3508 42.5106C28.3508 46.8615 30.7539 50.6599 34.3011 52.6541L23.6083 56.3278C24.4532 54.9473 24.8995 53.3598 24.8976 51.7412C24.8976 46.8775 20.9406 42.9206 16.0771 42.9206C11.2135 42.9206 7.25653 46.8776 7.25653 51.7412C7.25653 54.7981 8.82023 57.4959 11.1892 59.0791L3.10521 61.8567C1.24777 62.4942 0 64.2428 0 66.2073V76.8639C0 77.1748 0.123523 77.473 0.343395 77.6929C0.563267 77.9128 0.861478 78.0363 1.17242 78.0363H7.24246C7.5534 78.0363 7.85161 77.9128 8.07149 77.6929C8.29136 77.473 8.41488 77.1748 8.41488 76.8639C8.41488 76.5529 8.29136 76.2547 8.07149 76.0349C7.85161 75.815 7.5534 75.6915 7.24246 75.6915H2.34485V66.2073C2.3448 65.7375 2.49145 65.2794 2.76433 64.8969C3.0372 64.5145 3.42269 64.2268 3.86697 64.074L14.0866 60.5626H18.0672L18.6317 60.7568C18.4955 61.2573 18.4265 61.7737 18.4264 62.2924V75.6916H12.3511C12.0402 75.6916 11.7419 75.8151 11.5221 76.035C11.3022 76.2549 11.1787 76.5531 11.1787 76.864C11.1787 77.175 11.3022 77.4732 11.5221 77.6931C11.7419 77.9129 12.0402 78.0365 12.3511 78.0365H78.8276C79.1385 78.0365 79.4367 77.9129 79.6566 77.6931C79.8765 77.4732 80 77.175 80 76.864V73.1482C80 72.8373 79.8765 72.5391 79.6566 72.3192C79.4367 72.0993 79.1385 71.9758 78.8276 71.9758C78.5166 71.9758 78.2184 72.0993 77.9985 72.3192C77.7787 72.5391 77.6552 72.8373 77.6552 73.1482V75.6916H61.5374V62.2924C61.5374 61.7684 61.4669 61.2569 61.335 60.7674L61.9311 60.5626H65.9104L76.1337 64.0743C76.5779 64.227 76.9634 64.5147 77.2362 64.8971C77.509 65.2796 77.6555 65.7377 77.6553 66.2075V68.038C77.6553 68.192 77.6856 68.3444 77.7445 68.4867C77.8034 68.6289 77.8897 68.7581 77.9986 68.867C78.1075 68.9758 78.2367 69.0622 78.3789 69.1211C78.5212 69.18 78.6736 69.2103 78.8276 69.2103ZM42.7619 54.1407L41.702 56.268H38.2506L37.2145 54.1407H42.7619ZM16.0771 58.2165C12.5063 58.2165 9.60137 55.3116 9.60137 51.7409C9.60137 48.1701 12.5063 45.2652 16.0771 45.2652C19.6478 45.2652 22.5528 48.1701 22.5528 51.7409C22.5528 55.3116 19.6478 58.2165 16.0771 58.2165ZM34.1094 75.6902H29.202V64.7007C29.202 64.3897 29.0784 64.0915 28.8586 63.8716C28.6387 63.6518 28.3405 63.5283 28.0295 63.5283C27.7186 63.5283 27.4204 63.6518 27.2005 63.8716C26.9806 64.0915 26.8571 64.3897 26.8571 64.7007V75.6902H20.7715V62.2922C20.7715 61.5595 21.0004 60.8452 21.4261 60.2488C21.8517 59.6525 22.453 59.204 23.1458 58.9658L34.9765 54.9012L36.3544 57.7301L34.1094 75.6902ZM36.4724 75.6902L38.607 58.6131H41.3928L43.5274 75.6902H36.4724ZM43.6351 57.6463L45.0006 54.9056L56.8182 58.9656C57.5111 59.2038 58.1123 59.6524 58.538 60.2488C58.9636 60.8451 59.1925 61.5595 59.1926 62.2922V75.6902H52.8018V64.7007C52.8018 64.3897 52.6783 64.0915 52.4584 63.8716C52.2385 63.6518 51.9403 63.5283 51.6294 63.5283C51.3184 63.5283 51.0202 63.6518 50.8003 63.8716C50.5805 64.0915 50.4569 64.3897 50.4569 64.7007V75.6902H45.8904L43.6351 57.6463ZM63.9217 58.2165C60.3509 58.2165 57.446 55.3116 57.446 51.7409C57.446 48.1701 60.3509 45.2652 63.9217 45.2652C67.4924 45.2652 70.3974 48.1701 70.3974 51.7409C70.3974 55.3116 67.4924 58.2165 63.9217 58.2165ZM37.4318 22.6772L30.1662 15.3982C28.7625 13.9921 28.7647 11.7061 30.1709 10.3024C31.5773 8.8989 33.8631 8.90108 35.2667 10.3071L39.9859 15.0352L52.0209 3.01504C53.4266 1.61095 55.7125 1.61236 57.1166 3.01817C58.5207 4.42399 58.5193 6.7099 57.1135 8.114L42.5282 22.6813C40.8859 24.4174 39.1141 24.2089 37.4318 22.6772ZM39.0682 20.9975C39.6007 21.469 40.3295 21.5631 40.8713 21.0221L55.4566 6.45478C56.5313 5.34582 54.8118 3.46995 53.678 4.67395L40.8132 17.5228C40.7042 17.6316 40.5749 17.7179 40.4326 17.7767C40.2903 17.8356 40.1378 17.8658 39.9838 17.8657C39.8298 17.8655 39.6773 17.8351 39.5351 17.776C39.3929 17.717 39.2637 17.6305 39.1549 17.5215L33.6072 11.9635C32.3012 10.739 30.6989 12.5367 31.8257 13.7415L39.0682 20.9975Z" fill="#FE9C0E"/>
</g>
<defs>
<clipPath id="clip0_112_2886">
<rect width="80" height="80" fill="white"/>
</clipPath>
</defs>
</svg>
