<svg width="70" height="70" viewBox="0 0 70 70" fill="none" xmlns="http://www.w3.org/2000/svg">
<g clip-path="url(#clip0_117_5172)">
<path d="M67.5843 56.7821L61.4353 53.7075C63 52.4447 64.002 50.5232 64.002 48.3545V47.3526C64.002 43.5643 60.9275 40.4898 57.1393 40.4898H56.1373C52.349 40.4898 49.2746 43.5644 49.2746 47.3526V48.3545C49.2746 50.5232 50.2765 52.4447 51.8412 53.7075L49.9196 54.6683C49.8784 54.6408 49.8372 54.6271 49.7961 54.5997L40.8607 50.1251C43.1254 48.6565 44.6078 46.1173 44.6078 43.2349V40.4898C44.6078 35.9467 40.9157 32.2545 36.3725 32.2545H33.6274C29.0842 32.2545 25.392 35.9467 25.392 40.4898V43.2349C25.392 46.1173 26.8743 48.6565 29.1254 50.1251L20.1901 54.5997C20.1489 54.6271 20.1077 54.6408 20.0665 54.6683L18.1449 53.7075C19.7096 52.4447 20.7116 50.5232 20.7116 48.3545V47.3526C20.7116 43.5643 17.6371 40.4898 13.8489 40.4898H12.8469C9.05862 40.4898 5.98417 43.5644 5.98417 47.3526V48.3545C5.98417 50.5232 6.98615 52.4447 8.55083 53.7075L2.4018 56.7821C0.919614 57.5234 0 59.0194 0 60.6802V63.8233C0 64.5781 0.61761 65.1957 1.37249 65.1957H68.6274C69.3823 65.1957 69.9999 64.5781 69.9999 63.8233V60.6802C70 59.0194 69.0804 57.5234 67.5843 56.7821ZM52.0334 47.3527C52.0334 45.088 53.8863 43.2351 56.151 43.2351H57.153C59.4176 43.2351 61.2706 45.088 61.2706 47.3527V48.3547C61.2706 50.6193 59.4314 52.4723 57.153 52.4723H56.151C53.8863 52.4723 52.0334 50.6193 52.0334 48.3547V47.3527ZM28.1373 40.49C28.1373 37.4566 30.5941 34.9997 33.6275 34.9997H36.3726C39.406 34.9997 41.8629 37.4566 41.8629 40.49V43.2351C41.8629 46.2685 39.406 48.7253 36.3726 48.7253H33.6275C30.5941 48.7253 28.1373 46.2685 28.1373 43.2351V40.49ZM8.72941 47.3527C8.72941 45.088 10.5824 43.2351 12.847 43.2351H13.849C16.1137 43.2351 17.9666 45.088 17.9666 47.3527V48.3547C17.9666 50.6193 16.1274 52.4723 13.849 52.4723H12.847C10.5824 52.4723 8.72941 50.6193 8.72941 48.3547V47.3527ZM2.74512 60.6802C2.74512 60.0626 3.0883 59.4997 3.63727 59.2253L11.6804 55.2038H15.0158L17.9394 56.6586C17.4316 57.4959 17.1571 58.4704 17.1571 59.4861V62.4509H2.74512V60.6802ZM19.9019 59.4997C19.9019 59.149 19.9019 57.8988 21.3981 57.0428L32.5569 51.4564H37.3883L48.5471 57.0428C50.0433 57.7601 50.0433 59.149 50.0433 59.4997V62.4508H19.9021L19.9019 59.4997ZM67.2549 62.4508H52.8432V59.4997C52.8432 58.4703 52.5686 57.5095 52.0608 56.6722L54.9844 55.2174H58.3198L66.363 59.2389C66.9119 59.5135 67.2551 60.0762 67.2551 60.6938L67.2549 62.4508ZM34.0255 26.3664C34.3 26.641 34.6431 26.7645 35 26.7645C35.3569 26.7645 35.7 26.6272 35.9745 26.3664L44.2099 18.1311C44.4981 17.8428 44.6492 17.4311 44.608 17.0193C44.5668 16.6074 44.3471 16.2369 44.0041 16.0173L40.5041 13.684V6.17621C40.5041 5.42132 39.8865 4.80371 39.1316 4.80371H30.8962C30.1414 4.80371 29.5238 5.42132 29.5238 6.17621V13.6703L26.0237 16.0036C25.6806 16.2369 25.4611 16.6074 25.4199 17.0055C25.3787 17.4036 25.5297 17.8153 25.818 18.1173L34.0255 26.3664ZM31.6373 15.5507C32.0216 15.2899 32.2549 14.8644 32.2549 14.4114V7.5487H37.7451V14.4114C37.7451 14.8643 37.9785 15.3036 38.3627 15.5507L41.0941 17.3625L35 23.4566L28.9196 17.3762L31.6373 15.5507ZM22.3863 28.439C22.6609 28.7136 23.004 28.8371 23.3609 28.8371C23.7178 28.8371 24.0608 28.6998 24.3354 28.439C24.4627 28.312 24.5636 28.1612 24.6325 27.9952C24.7014 27.8291 24.7368 27.6511 24.7368 27.4713C24.7368 27.2916 24.7014 27.1136 24.6325 26.9475C24.5636 26.7815 24.4627 26.6307 24.3354 26.5037L20.451 22.6193C20.3241 22.4921 20.1732 22.3911 20.0072 22.3222C19.8411 22.2533 19.6631 22.2179 19.4834 22.2179C19.3036 22.2179 19.1256 22.2533 18.9596 22.3222C18.7935 22.3911 18.6427 22.4921 18.5157 22.6193C18.3885 22.7463 18.2875 22.8971 18.2186 23.0632C18.1497 23.2292 18.1143 23.4072 18.1143 23.587C18.1143 23.7667 18.1497 23.9447 18.2186 24.1108C18.2875 24.2768 18.3885 24.4277 18.5157 24.5546L22.3863 28.439ZM15.3589 33.435L19.0511 34.7801C19.2205 34.8417 19.4004 34.8693 19.5805 34.8613C19.7606 34.8532 19.9373 34.8097 20.1005 34.7332C20.2638 34.6567 20.4103 34.5487 20.5317 34.4154C20.6531 34.2821 20.747 34.1262 20.8079 33.9566C21.0688 33.2429 20.6981 32.4605 19.9844 32.1997L16.2922 30.8547C15.5785 30.5938 14.7962 30.9645 14.5354 31.6782C14.2745 32.3782 14.6451 33.1742 15.3589 33.435ZM46.653 28.837C47.0099 28.837 47.353 28.6997 47.6275 28.4389L51.5119 24.5545C51.6391 24.4275 51.7401 24.2767 51.809 24.1107C51.8779 23.9446 51.9133 23.7666 51.9133 23.5869C51.9133 23.4071 51.8779 23.2291 51.809 23.063C51.7401 22.897 51.6391 22.7462 51.5119 22.6192C51.3849 22.4919 51.2341 22.391 51.068 22.3221C50.902 22.2532 50.724 22.2177 50.5442 22.2177C50.3644 22.2177 50.1864 22.2532 50.0204 22.3221C49.8544 22.391 49.7035 22.4919 49.5766 22.6192L45.6922 26.5036C45.5649 26.6305 45.464 26.7814 45.3951 26.9474C45.3262 27.1135 45.2907 27.2915 45.2907 27.4712C45.2907 27.651 45.3262 27.829 45.3951 27.995C45.464 28.1611 45.5649 28.3119 45.6922 28.4389C45.9393 28.7134 46.2961 28.837 46.653 28.837ZM49.1922 33.9566C49.2532 34.1262 49.347 34.2822 49.4684 34.4154C49.5898 34.5487 49.7363 34.6567 49.8996 34.7332C50.0628 34.8097 50.2395 34.8533 50.4196 34.8613C50.5997 34.8694 50.7796 34.8417 50.949 34.7801L54.6412 33.435C55.3549 33.1742 55.7256 32.3919 55.4648 31.6782C55.2039 30.9645 54.4216 30.5938 53.7079 30.8547L50.0157 32.1997C49.302 32.4468 48.9314 33.2429 49.1922 33.9566Z" fill="#19517E"/>
</g>
<defs>
<clipPath id="clip0_117_5172">
<rect width="70" height="70" fill="white"/>
</clipPath>
</defs>
</svg>
