<svg width="70" height="70" viewBox="0 0 70 70" fill="none" xmlns="http://www.w3.org/2000/svg">
<g clip-path="url(#clip0_117_5186)">
<path fill-rule="evenodd" clip-rule="evenodd" d="M44.2883 53.1465C43.7962 53.1465 43.3861 52.7364 43.3451 52.2443C43.3041 51.0551 43.1811 49.8659 43.0581 48.7176C42.402 41.6233 41.7869 34.9391 49.9474 30.2642C50.1934 29.8131 50.4395 29.321 50.7265 28.7879C52.6129 25.2613 55.4424 19.9303 59.2561 18.9461C60.1993 18.7001 61.1424 18.7411 62.0856 19.0281C62.0446 18.6591 62.0036 18.249 61.9626 17.8389C61.5115 13.164 60.9374 6.80786 63.6439 4.22438C64.6281 3.28121 65.8993 2.95315 67.4166 3.15818C67.8267 3.19919 68.1958 3.56826 68.1958 4.01934C68.4828 7.42298 68.8519 10.4575 69.1389 13.164C70.6562 25.9174 71.4764 32.9297 59.2561 45.5601C58.1489 46.6673 58.2719 48.3486 58.3949 50.2759C58.4359 50.891 58.477 51.5062 58.477 52.1213C58.477 52.6544 58.0669 53.0644 57.5338 53.0644C57.0417 53.0644 56.6316 52.6544 56.5906 52.1213C56.5906 51.5472 56.5496 50.9731 56.5496 50.399C56.3856 48.2256 56.2625 45.9701 57.9028 44.2888C69.508 32.2736 68.7699 25.9584 67.2936 13.3691C67.0065 10.8676 66.6785 8.0791 66.4324 4.96252C65.8173 5.00353 65.3252 5.20856 64.9562 5.57763C62.8648 7.546 63.4799 13.8612 63.8079 17.6339C63.931 18.8231 64.013 19.8073 64.054 20.5454C64.054 20.6274 64.013 20.6684 64.013 20.7505C64.013 20.8735 63.972 20.9555 63.89 21.0375L57.9028 31.5765C57.6568 32.0275 57.0827 32.1916 56.6316 31.9455C56.1805 31.6995 56.0165 31.1254 56.2625 30.6743L61.8396 20.9145C61.1014 20.6274 60.4043 20.5864 59.7072 20.7505C56.6726 21.5296 54.0891 26.4095 52.3668 29.6491C52.0388 30.3052 51.7107 30.9203 51.4647 31.4124C51.3826 31.5355 51.2596 31.6585 51.0956 31.7405C43.7552 35.8413 44.2473 41.4593 44.9034 48.5536C45.0265 49.7018 45.1495 50.9321 45.2315 52.1213C45.2725 52.6544 44.8624 53.1055 44.3293 53.1465H44.2883Z" fill="#19517E"/>
<path fill-rule="evenodd" clip-rule="evenodd" d="M41.7459 60.1584C41.4999 60.1584 41.2538 60.0764 41.0898 59.9124C40.8847 59.7073 40.8027 59.5023 40.8027 59.2562L40.7617 52.2029C40.7617 51.7108 41.1718 51.3008 41.7049 51.3008L60.1173 51.1777C60.3634 51.1777 60.6094 51.2597 60.7734 51.4648C60.9785 51.6288 61.0605 51.8749 61.0605 52.1209L61.1015 59.1332C61.1015 59.6663 60.6914 60.0764 60.1993 60.0764L41.7459 60.1584ZM42.6481 53.1461V58.3131L59.2562 58.231L59.2151 53.0641L42.6481 53.1461Z" fill="#19517E"/>
<path fill-rule="evenodd" clip-rule="evenodd" d="M62.2908 69.0985L39.5316 68.9755C38.9985 68.9344 38.5884 68.5244 38.5884 68.0323L38.6294 59.2156C38.6294 58.9696 38.7524 58.7646 38.9164 58.5595C39.0805 58.3955 39.3265 58.3135 39.5726 58.3135L62.3318 58.4365C62.8649 58.4365 63.275 58.8466 63.275 59.3797L63.234 68.1553C63.234 68.4014 63.1109 68.6474 62.9469 68.8114C62.7829 68.9755 62.5368 69.0985 62.2908 69.0985ZM40.4747 67.0891L61.3886 67.2121L61.4296 60.2818L40.5157 60.1588L40.4747 67.0891Z" fill="#19517E"/>
<path fill-rule="evenodd" clip-rule="evenodd" d="M58.4769 64.6286H54.2942C53.8021 64.6286 53.392 64.2185 53.392 63.6854C53.392 63.1933 53.8021 62.7833 54.2942 62.7833H58.4769C58.969 62.7833 59.4201 63.1933 59.4201 63.6854C59.4201 64.2185 58.969 64.6286 58.4769 64.6286ZM25.7118 53.1465H25.6298C25.1377 53.1055 24.7277 52.6544 24.7687 52.1213C24.8507 50.9321 24.9327 49.7018 25.0557 48.5536C25.7118 41.4593 26.2449 35.8413 18.9046 31.7405C18.7406 31.6585 18.6175 31.5355 18.5355 31.4124C18.2485 30.9203 17.9614 30.3052 17.5923 29.6491C15.87 26.4095 13.2865 21.5296 10.252 20.7505C9.55485 20.5864 8.85772 20.6274 8.16059 20.9145L13.6966 30.6743C13.9427 31.1254 13.8196 31.6995 13.3686 31.9455C12.9175 32.1916 12.3434 32.0275 12.0973 31.5765L6.0692 21.0375C6.02819 20.9555 5.98718 20.8735 5.98718 20.7505C5.94618 20.6684 5.94618 20.6274 5.94618 20.5454C5.94618 19.8073 6.0692 18.8231 6.15121 17.6339C6.52028 13.8612 7.1354 7.546 5.04401 5.57763C4.63393 5.20857 4.14184 5.00353 3.56773 4.96252C3.32169 8.0791 2.99363 10.8676 2.70657 13.3691C1.2303 25.9584 0.492163 32.2736 12.0563 44.2888C13.7376 45.9701 13.5736 48.2256 13.4506 50.399C13.4096 50.9731 13.3686 51.5472 13.3686 52.1213C13.3686 52.6544 12.9585 53.0645 12.4254 53.0645C11.9333 53.0645 11.5232 52.6544 11.5232 52.1213C11.5232 51.5062 11.5642 50.8911 11.6052 50.2759C11.7282 48.3486 11.8103 46.6673 10.7441 45.5601C-1.4762 32.9297 -0.656051 25.9174 0.820224 13.164C1.14828 10.4575 1.51735 7.42298 1.7634 4.01934C1.80441 3.56826 2.13247 3.19919 2.58355 3.15818C4.10083 2.95315 5.37207 3.28121 6.31524 4.22438C9.06275 6.80786 8.44764 13.164 8.03756 17.8389C7.99656 18.249 7.95555 18.6591 7.91454 19.0281C8.85772 18.7411 9.80089 18.7001 10.7441 18.9461C14.5578 19.9303 17.3873 25.2613 19.2326 28.7879C19.5197 29.321 19.8067 29.8131 20.0118 30.2642C28.2133 34.9391 27.5982 41.6233 26.9011 48.7176C26.8191 49.8659 26.696 51.0551 26.614 52.2443C26.573 52.7364 26.1629 53.1465 25.7118 53.1465Z" fill="#19517E"/>
<path fill-rule="evenodd" clip-rule="evenodd" d="M28.2542 60.1584L9.80076 60.0764C9.30867 60.0764 8.85759 59.6253 8.89859 59.1332V52.1209C8.89859 51.8749 9.02162 51.6288 9.18565 51.4648C9.34968 51.2597 9.59572 51.1777 9.84177 51.1777L28.2952 51.3008C28.5412 51.3008 28.7873 51.3828 28.9513 51.5468C29.1153 51.7518 29.2384 51.9569 29.2384 52.2029L29.1974 59.2562C29.1974 59.7483 28.7463 60.1584 28.2542 60.1584ZM10.7439 58.19L27.311 58.3131L27.352 53.1461L10.7849 53.0641L10.7439 58.19Z" fill="#19517E"/>
<path fill-rule="evenodd" clip-rule="evenodd" d="M7.66843 69.0985C7.42238 69.0985 7.21734 68.9755 7.01231 68.8114C6.84828 68.6474 6.76626 68.4014 6.76626 68.1553L6.72525 59.3797C6.68425 58.8466 7.13533 58.4365 7.62742 58.4365L30.4277 58.3135C30.6327 58.3135 30.8787 58.3955 31.0838 58.5595C31.2478 58.7646 31.3298 58.9696 31.3298 59.2156L31.4118 68.0323C31.4118 68.5244 30.9608 68.9755 30.4687 68.9755L7.70944 69.0985H7.66843ZM8.5706 60.2818L8.6116 67.2121L29.5255 67.0891L29.4845 60.1588L8.5706 60.2818Z" fill="#19517E"/>
<path fill-rule="evenodd" clip-rule="evenodd" d="M15.665 64.6282H11.5233C10.9902 64.6282 10.5801 64.2181 10.5801 63.685C10.5801 63.1929 10.9902 62.7828 11.5233 62.7828H15.665C16.1981 62.7828 16.6082 63.1929 16.6082 63.685C16.6082 64.2181 16.1981 64.6282 15.665 64.6282ZM34.9796 28.7055C27.3112 28.7055 21.078 22.4724 21.078 14.8039C21.078 7.1355 27.3112 0.902344 34.9796 0.902344C42.648 0.902344 48.9222 7.1355 48.9222 14.8039C48.9222 22.4724 42.648 28.7055 34.9796 28.7055ZM34.9796 2.74769C28.3364 2.74769 22.9644 8.16069 22.9644 14.8039C22.9644 21.4472 28.3364 26.8602 34.9796 26.8602C41.6228 26.8602 47.0358 21.4472 47.0358 14.8039C47.0358 8.16069 41.6228 2.74769 34.9796 2.74769Z" fill="#19517E"/>
<path fill-rule="evenodd" clip-rule="evenodd" d="M34.9797 22.2266C32.6832 22.2266 30.8379 20.3403 30.8379 18.0438C30.8379 17.5517 31.248 17.1006 31.7401 17.1006C32.2732 17.1006 32.6832 17.5517 32.6832 18.0438C32.6832 19.3151 33.7084 20.3403 34.9797 20.3403C36.2509 20.3403 37.2761 19.3151 37.2761 18.0438C37.2761 16.4035 36.5379 16.1165 34.7746 15.7064C33.0933 15.3373 30.8379 14.7632 30.8379 11.5646C30.8379 9.26819 32.6832 7.42285 34.9797 7.42285C37.2761 7.42285 39.1624 9.26819 39.1624 11.5646C39.1624 12.0977 38.7524 12.5078 38.2193 12.5078C37.7272 12.5078 37.2761 12.0977 37.2761 11.5646C37.2761 10.2934 36.2509 9.26819 34.9797 9.26819C33.7084 9.26819 32.6832 10.2934 32.6832 11.5646C32.6832 13.2459 33.4624 13.492 35.2257 13.9021C36.866 14.3121 39.1624 14.8452 39.1624 18.0438C39.1624 20.3403 37.2761 22.2266 34.9797 22.2266Z" fill="#19517E"/>
<path fill-rule="evenodd" clip-rule="evenodd" d="M34.9798 9.2677C34.4877 9.2677 34.0776 8.85762 34.0776 8.32452V5.82306C34.0776 5.33097 34.4877 4.87988 34.9798 4.87988C35.5129 4.87988 35.923 5.33097 35.923 5.82306V8.32452C35.923 8.85762 35.5129 9.2677 34.9798 9.2677ZM34.9798 24.7276C34.4877 24.7276 34.0776 24.3175 34.0776 23.7844V21.2829C34.0776 20.7498 34.4877 20.3398 34.9798 20.3398C35.5129 20.3398 35.923 20.7498 35.923 21.2829V23.7844C35.923 24.3175 35.5129 24.7276 34.9798 24.7276Z" fill="#19517E"/>
</g>
<defs>
<clipPath id="clip0_117_5186">
<rect width="70" height="70" fill="white"/>
</clipPath>
</defs>
</svg>
