<svg width="80" height="80" viewBox="0 0 80 80" fill="none" xmlns="http://www.w3.org/2000/svg">
<path d="M67.5 1.25H50C47.9325 1.25 46.25 2.9325 46.25 5V7.5C43.4925 7.5 41.25 9.7425 41.25 12.5C41.25 15.2575 43.4925 17.5 46.25 17.5V23.75H56.25V21.25C56.25 19.8713 57.3713 18.75 58.75 18.75C60.1287 18.75 61.25 19.8713 61.25 21.25V23.75H67.5C69.5675 23.75 71.25 22.0675 71.25 20V5C71.25 2.9325 69.5675 1.25 67.5 1.25ZM68.75 20C68.75 20.6887 68.19 21.25 67.5 21.25H63.75C63.75 18.4925 61.5075 16.25 58.75 16.25C55.9925 16.25 53.75 18.4925 53.75 21.25H48.75V15H46.25C44.8712 15 43.75 13.8787 43.75 12.5C43.75 11.1213 44.8712 10 46.25 10H48.75V5C48.75 4.31125 49.31 3.75 50 3.75H67.5C68.19 3.75 68.75 4.31125 68.75 5V20Z" fill="#5839AF"/>
<path d="M46.25 26.25C43.4925 26.25 41.25 28.4925 41.25 31.25H36.25V25H33.75C32.3713 25 31.25 23.8787 31.25 22.5C31.25 21.1213 32.3713 20 33.75 20H36.25V8.75H32.8988C19.5838 8.75 8.75004 19.5837 8.75004 32.8988C8.74387 36.4766 9.53576 40.0109 11.068 43.2441C12.6003 46.4773 14.8344 49.328 17.6075 51.5887L22.5 55.5925V58.9813C21.771 59.2382 21.1393 59.7145 20.6917 60.3447C20.2441 60.975 20.0025 61.7282 20 62.5013C20 64.23 21.1813 65.675 22.775 66.1062C22.6013 66.5375 22.5 67.0062 22.5 67.5C22.5 69.1525 23.5813 70.5425 25.0675 71.0413C25.585 75.3763 29.2788 78.75 33.75 78.75C38.2213 78.75 41.915 75.3763 42.4325 71.0413C43.1777 70.7946 43.8265 70.3201 44.2873 69.6846C44.748 69.0491 44.9973 68.2849 45 67.5C45 67.0062 44.8988 66.5375 44.725 66.105C45.5193 65.8922 46.2214 65.4239 46.7229 64.7724C47.2245 64.1208 47.4976 63.3222 47.5 62.5C47.4976 61.727 47.2559 60.9737 46.8083 60.3435C46.3607 59.7133 45.7291 59.237 45 58.98V55.5912L49.8925 51.5875C52.6658 49.3271 54.9 46.4766 56.4323 43.2436C57.9646 40.0106 58.7564 36.4765 58.75 32.8988V31.25H51.25C51.25 28.4925 49.0075 26.25 46.25 26.25ZM32.8988 11.25H33.75V17.5C30.9925 17.5 28.75 19.7425 28.75 22.5C28.75 25.2575 30.9925 27.5 33.75 27.5V31.25H28.75C28.75 28.4925 26.5075 26.25 23.75 26.25C20.9925 26.25 18.75 28.4925 18.75 31.25H11.3125C12.1575 20.08 21.5163 11.25 32.8988 11.25ZM19.19 49.6537C16.8151 47.7182 14.88 45.2985 13.5139 42.5562C12.1478 39.8138 11.382 36.8117 11.2675 33.75H21.25V31.25C21.25 29.8713 22.3713 28.75 23.75 28.75C25.1288 28.75 26.25 29.8713 26.25 31.25V33.75H33.75V38.75C30.9925 38.75 28.75 40.9925 28.75 43.75C28.75 46.5075 30.9925 48.75 33.75 48.75V58.75H25V54.4075L19.19 49.6537ZM33.75 76.25C32.3101 76.2477 30.9149 75.7492 29.7995 74.8384C28.6841 73.9277 27.9166 72.6604 27.6263 71.25H39.8738C39.5835 72.6604 38.816 73.9277 37.7006 74.8384C36.5852 75.7492 35.19 76.2477 33.75 76.25ZM41.25 68.75H26.25C25.9282 68.7356 25.6243 68.5976 25.4016 68.3648C25.179 68.1319 25.0547 67.8222 25.0547 67.5C25.0547 67.1778 25.179 66.8681 25.4016 66.6352C25.6243 66.4024 25.9282 66.2644 26.25 66.25H41.25C41.5719 66.2644 41.8758 66.4024 42.0984 66.6352C42.3211 66.8681 42.4454 67.1778 42.4454 67.5C42.4454 67.8222 42.3211 68.1319 42.0984 68.3648C41.8758 68.5976 41.5719 68.7356 41.25 68.75ZM43.75 63.75H23.75C23.4282 63.7356 23.1243 63.5976 22.9016 63.3648C22.679 63.1319 22.5547 62.8222 22.5547 62.5C22.5547 62.1778 22.679 61.8681 22.9016 61.6352C23.1243 61.4024 23.4282 61.2644 23.75 61.25H43.75C44.0719 61.2644 44.3758 61.4024 44.5984 61.6352C44.8211 61.8681 44.9454 62.1778 44.9454 62.5C44.9454 62.8222 44.8211 63.1319 44.5984 63.3648C44.3758 63.5976 44.0719 63.7356 43.75 63.75ZM48.31 49.6537L42.5 54.4075V58.75H36.25V46.25H33.75C32.3713 46.25 31.25 45.1287 31.25 43.75C31.25 42.3713 32.3713 41.25 33.75 41.25H36.25V33.75H43.75V31.25C43.75 29.8713 44.8713 28.75 46.25 28.75C47.6288 28.75 48.75 29.8713 48.75 31.25V33.75H56.2325C56.1181 36.8117 55.3523 39.8138 53.9862 42.5562C52.6201 45.2985 50.685 47.7182 48.31 49.6537Z" fill="#5839AF"/>
</svg>
