<svg width="70" height="70" viewBox="0 0 70 70" fill="none" xmlns="http://www.w3.org/2000/svg">
<g clip-path="url(#clip0_117_5095)">
<path d="M2.26471 64.4418L3.91176 66.0888C4.22059 66.3976 4.63235 66.5006 5.04412 66.2947L7 65.4712C7.20588 65.5741 7.51471 65.677 7.82353 65.78L8.54412 67.7359C8.64706 68.1476 9.05882 68.3535 9.47059 68.3535H11.8382C12.25 68.3535 12.6618 68.0447 12.7647 67.7359L13.4853 65.78C13.7941 65.677 14 65.5741 14.3088 65.4712L16.2647 66.2947C16.6765 66.5006 17.0882 66.3976 17.3971 66.0888L19.0441 64.4418C19.3529 64.1329 19.4559 63.7212 19.25 63.3094L18.4265 61.3535C18.5294 61.1476 18.6324 60.8388 18.7353 60.6329L20.6912 59.8094C21.1029 59.6035 21.3088 59.2947 21.3088 58.8829V56.6182C21.3088 56.2065 21 55.7947 20.6912 55.6918L18.7353 54.9712C18.6324 54.6623 18.5294 54.4565 18.4265 54.1476L19.25 52.1918C19.4559 51.78 19.3529 51.3682 19.0441 51.0594L17.2941 49.4123C16.9853 49.1035 16.5735 49.0006 16.1618 49.2065L14.2059 50.03C14 49.927 13.6912 49.8241 13.3824 49.7212L12.6618 47.7653C12.5588 47.3535 12.1471 47.1476 11.7353 47.1476H11.6324V46.6329C11.6324 46.0153 11.2206 45.6035 10.6029 45.6035C9.98529 45.6035 9.57353 46.0153 9.57353 46.6329V47.1476H9.36765C8.95588 47.1476 8.54412 47.4565 8.44118 47.7653L7.72059 49.7212C7.41177 49.8241 7.20588 49.927 6.89706 50.03L4.94118 49.2065C4.63235 49.0006 4.11765 49.1035 3.91176 49.4123L2.26471 51.0594C1.95588 51.3682 1.85294 51.78 2.05882 52.1918L2.88235 54.1476C2.77941 54.3535 2.67647 54.6623 2.57353 54.9712L0.617647 55.6918C0.205882 55.7947 0 56.2065 0 56.6182V58.9859C0 59.3976 0.308824 59.8094 0.617647 59.9123L2.57353 60.7359C2.67647 61.0447 2.77941 61.2506 2.88235 61.4565L2.05882 63.4123C1.85294 63.7212 1.95588 64.2359 2.26471 64.4418ZM1.95588 58.2653V57.3388L3.70588 56.6182C4.01471 56.5153 4.22059 56.2065 4.32353 55.8976C4.42647 55.4859 4.63235 54.9712 4.83824 54.5594C4.94118 54.2506 5.04412 53.9418 4.83824 53.6329L4.11765 51.8829L4.73529 51.2653L6.48529 51.9859C6.79412 52.0888 7.10294 52.0888 7.41176 51.9859C7.82353 51.78 8.23529 51.5741 8.75 51.4712C9.05882 51.3682 9.26471 51.1623 9.47059 50.8535L10.1912 49.1035H11.1176L11.8382 50.8535C11.9412 51.1623 12.25 51.3682 12.5588 51.4712C12.9706 51.5741 13.4853 51.78 13.8971 51.9859C14.2059 52.0888 14.5147 52.1918 14.8235 51.9859L16.5735 51.2653L17.1912 51.8829L16.4706 53.6329C16.3676 53.9418 16.3676 54.2506 16.4706 54.5594C16.6765 54.9712 16.8824 55.3829 16.9853 55.8976C17.0882 56.2065 17.2941 56.5153 17.6029 56.6182L19.3529 57.3388V58.2653L17.6029 58.9859C17.2941 59.0888 17.0882 59.3976 16.9853 59.7065C16.8824 60.1182 16.6765 60.6329 16.4706 61.0447C16.3676 61.3535 16.2647 61.6623 16.4706 61.9712L17.1912 63.7212L16.5735 64.3388L14.8235 63.6182C14.5147 63.5153 14.2059 63.5153 13.8971 63.6182C13.4853 63.8241 13.0735 64.03 12.5588 64.1329C12.25 64.2359 11.9412 64.4418 11.8382 64.7506L11.1176 66.5006H10.0882L9.36765 64.7506C9.26471 64.4418 8.95588 64.2359 8.64706 64.1329C8.23529 64.03 7.72059 63.8241 7.30882 63.6182C7 63.5153 6.69118 63.4123 6.38235 63.6182L4.63235 64.3388L4.01471 63.7212L4.94118 61.7653C5.04412 61.4565 5.04412 61.1476 4.94118 60.8388C4.73529 60.427 4.52941 60.0153 4.42647 59.5006C4.32353 59.1918 4.11765 58.9859 3.80882 58.78L1.95588 58.2653Z" fill="#19517E"/>
<path d="M10.6031 61.7646C12.7648 61.7646 14.5149 60.0146 14.5149 57.8528C14.5149 55.691 12.7648 53.941 10.6031 53.941C8.44132 53.941 6.58838 55.5881 6.58838 57.7499C6.58838 59.9116 8.44132 61.7646 10.6031 61.7646ZM10.6031 55.8969C11.6325 55.8969 12.456 56.7204 12.456 57.7499C12.456 58.7793 11.6325 59.7057 10.6031 59.7057C9.57367 59.7057 8.75014 58.8822 8.75014 57.8528C8.75014 56.8234 9.57367 55.8969 10.6031 55.8969ZM15.3384 28.1028C14.0001 28.3087 12.8678 28.8234 11.8384 29.7499C11.4266 30.1616 11.3237 30.7793 11.7354 31.191C11.9413 31.3969 12.2501 31.4999 12.456 31.4999C12.6619 31.4999 12.9707 31.3969 13.1766 31.191C13.8972 30.5734 14.7207 30.1616 15.6472 30.0587C16.1619 29.9557 16.5737 29.441 16.4707 28.9263C16.3678 28.4116 15.8531 27.9999 15.3384 28.1028ZM22.1325 28.1028H18.8384C18.2207 28.1028 17.809 28.5146 17.809 29.1322C17.809 29.7499 18.2207 30.1616 18.8384 30.1616H22.1325C22.7501 30.1616 23.1619 29.7499 23.1619 29.1322C23.1619 28.5146 22.6472 28.1028 22.1325 28.1028ZM28.7207 28.1028H25.4266C24.809 28.1028 24.3972 28.5146 24.3972 29.1322C24.3972 29.7499 24.809 30.1616 25.4266 30.1616H28.7207C29.3384 30.1616 29.7501 29.7499 29.7501 29.1322C29.7501 28.5146 29.3384 28.1028 28.7207 28.1028ZM11.0148 32.3234C10.5001 32.2204 9.8825 32.5293 9.77956 33.044C9.57367 33.6616 9.57367 34.1763 9.57367 34.794V36.6469C9.57367 37.2646 9.98544 37.6763 10.6031 37.6763C11.2207 37.6763 11.6325 37.2646 11.6325 36.6469V34.794C11.6325 34.3822 11.7354 33.9704 11.8384 33.5587C11.9413 33.044 11.6325 32.4263 11.0148 32.3234Z" fill="#19517E"/>
<path d="M62.794 24.5002C64.6469 18.1178 59.294 11.9413 52.191 12.2502C49.7204 -1.33807 28.7204 -2.05866 25.0146 11.2208C15.6469 7.8237 5.8675 15.6472 8.64691 24.7061C4.83809 25.8384 2.16162 29.3384 2.16162 33.3531C2.16162 37.7796 5.3528 41.4855 9.57339 42.2061V43.2355C9.57339 43.8531 9.98515 44.2649 10.6028 44.2649C11.2204 44.2649 11.6322 43.8531 11.6322 43.2355V42.309H33.5587C33.9704 45.809 35.9263 49.309 38.9116 51.2649V51.6766H33.1469C28.9263 51.6766 25.5293 55.0737 25.5293 59.2943V67.2208C25.5293 67.8384 25.941 68.2502 26.5587 68.2502H60.6322C61.2499 68.2502 61.6616 67.8384 61.6616 67.2208V59.2943C61.6616 55.0737 58.2646 51.6766 54.044 51.6766H49.1028V51.1619C52.0881 49.2061 54.1469 45.7061 54.4557 42.2061H61.1469C66.191 42.2061 70.2057 38.1913 70.2057 33.1472C70.1028 28.9266 67.0146 25.3237 62.794 24.5002ZM32.4263 66.3972H27.4852V60.5296H29.1322C30.8822 60.5296 32.4263 61.9708 32.4263 63.8237V66.3972ZM59.4999 66.3972H54.5587V63.7208C54.5587 61.9708 55.9999 60.4266 57.8528 60.4266H59.4999V66.3972ZM53.941 53.8384C56.7204 53.8384 58.9852 55.7943 59.3969 58.3678H57.8528C54.9704 58.3678 52.4999 60.7355 52.4999 63.7208V66.3972H34.4851V63.7208C34.4851 60.8384 32.1175 58.3678 29.1322 58.3678H27.5881C28.1028 55.7943 30.3675 53.8384 33.044 53.8384H38.9116C39.4263 56.1031 41.3822 57.8531 43.8528 57.8531C46.3234 57.8531 48.2793 56.1031 48.794 53.8384H53.941ZM40.9704 52.809V52.3972C42.9263 53.1178 44.9852 53.1178 46.941 52.3972V52.809C46.941 54.4561 45.6028 55.7943 43.9557 55.7943C42.3087 55.7943 40.9704 54.4561 40.9704 52.809ZM52.3969 41.2796V41.3825C52.294 45.809 48.691 50.8531 43.9557 50.8531C39.2204 50.8531 35.5146 45.7061 35.5146 41.2796C35.7204 37.2649 36.0293 35.6178 36.1322 35.0002C39.7352 35.0002 47.2499 31.1913 47.4557 31.0884C48.691 30.5737 49.5146 30.6766 50.2352 31.5002C52.294 33.4561 52.4999 39.2208 52.3969 41.2796ZM46.7352 29.1325C44.5734 30.2649 38.294 33.1472 35.9263 32.8384H35.7204C35.2057 32.8384 34.691 33.0443 34.3822 34.1766C34.2793 31.9119 34.4852 29.4413 35.4116 27.6913C36.544 25.6325 38.191 25.4266 38.7057 25.2208C38.7057 25.2208 41.3822 23.9855 44.6763 23.9855C47.2499 23.9855 49.4116 24.7061 51.1616 26.0443C51.2646 26.1472 53.941 28.8237 53.8381 34.0737C52.8087 30.059 50.544 27.5884 46.7352 29.1325ZM61.044 40.3531H54.7646C57.6469 31.2943 54.8675 21.9266 44.5734 21.9266C41.1763 21.9266 38.3969 23.059 37.8822 23.2649C35.9263 23.7796 34.4851 24.9119 33.5587 26.6619C33.3528 27.0737 33.1469 27.5884 32.941 28.1031H32.1175C31.4999 28.1031 31.0881 28.5149 31.0881 29.1325C31.0881 29.7502 31.4999 30.1619 32.1175 30.1619H32.4263C31.8087 33.9708 32.6322 38.2943 33.1469 40.3531H11.6322V39.9413C11.6322 39.3237 11.2204 38.9119 10.6028 38.9119C9.98515 38.9119 9.57339 39.3237 9.57339 39.9413V40.1472C6.48515 39.4266 4.22044 36.6472 4.22044 33.3531C4.22044 29.9561 6.79397 26.9708 10.191 26.4561C10.4999 26.4561 10.8087 26.2502 10.9116 25.9413C11.0146 25.6325 11.1175 25.3237 11.0146 25.0149C7.72045 16.9855 16.9852 9.5737 25.4263 13.4855C25.7352 13.5884 26.044 13.5884 26.3528 13.4855C26.6616 13.3825 26.8675 13.0737 26.8675 12.7649C27.691 7.51487 32.7352 3.60311 38.6028 3.60311C44.6763 3.60311 49.9263 7.92664 50.3381 13.3825C50.3381 13.6913 50.544 13.8972 50.7499 14.1031C50.9557 14.309 51.2646 14.309 51.4704 14.309C57.8528 13.4855 63.1028 19.3531 60.5293 24.9119C60.4263 25.2208 60.4263 25.6325 60.6322 25.8384C60.8381 26.0443 61.1469 26.3531 61.4557 26.3531C65.2646 26.4561 68.1469 29.5443 68.1469 33.3531C68.044 37.1619 64.8528 40.3531 61.044 40.3531Z" fill="#19517E"/>
</g>
<defs>
<clipPath id="clip0_117_5095">
<rect width="70" height="70" fill="white"/>
</clipPath>
</defs>
</svg>
