<svg width="14" height="14" viewBox="0 0 14 14" fill="none" xmlns="http://www.w3.org/2000/svg">
<path d="M8.74599 7.41587L7.35399 6.61587V3.67188C7.35399 3.49054 7.28733 3.33321 7.154 3.19987C7.02066 3.06654 6.86333 2.99987 6.68199 2.99987C6.50066 2.99987 6.34333 3.06654 6.20999 3.19987C6.07666 3.33321 6.00999 3.49054 6.00999 3.67188V6.99987C6.00999 7.11721 6.03933 7.22654 6.09799 7.32787C6.15666 7.42921 6.23933 7.51187 6.34599 7.57587L8.07399 8.58387C8.18066 8.64787 8.29266 8.67987 8.41 8.67987C8.52733 8.67987 8.63933 8.64787 8.74599 8.58387C8.85266 8.51987 8.93533 8.43721 8.99399 8.33587C9.05266 8.23454 9.082 8.12254 9.082 7.99987C9.082 7.87721 9.05266 7.76521 8.99399 7.66387C8.93533 7.56254 8.85266 7.47987 8.74599 7.41587ZM6.68199 0.327874C5.47666 0.327874 4.35666 0.631874 3.32199 1.23987C2.30866 1.82654 1.50866 2.62654 0.921995 3.63987C0.313995 4.67454 0.00999451 5.79454 0.00999451 6.99987C0.00999451 8.20521 0.313995 9.32521 0.921995 10.3599C1.50866 11.3732 2.30866 12.1732 3.32199 12.7599C4.35666 13.3679 5.47666 13.6719 6.68199 13.6719C7.88733 13.6719 9.00733 13.3679 10.042 12.7599C11.0553 12.1732 11.8553 11.3732 12.442 10.3599C13.05 9.32521 13.354 8.20521 13.354 6.99987C13.354 5.79454 13.05 4.67454 12.442 3.63987C11.8553 2.62654 11.0553 1.82654 10.042 1.23987C9.00733 0.631874 7.88733 0.327874 6.68199 0.327874ZM6.68199 12.3279C5.72199 12.3279 4.82599 12.0879 3.99399 11.6079C3.19399 11.1279 2.55399 10.4879 2.07399 9.68787C1.59399 8.85587 1.35399 7.95987 1.35399 6.99987C1.35399 6.03987 1.59399 5.14387 2.07399 4.31187C2.55399 3.51187 3.19399 2.87187 3.99399 2.39187C4.82599 1.91187 5.72199 1.67187 6.68199 1.67187C7.64199 1.67187 8.538 1.91187 9.37 2.39187C10.17 2.87187 10.81 3.51187 11.29 4.31187C11.77 5.14387 12.01 6.03987 12.01 6.99987C12.01 7.95987 11.7647 8.85587 11.274 9.68787C10.8047 10.4879 10.17 11.1225 9.37 11.5919C8.538 12.0825 7.64199 12.3279 6.68199 12.3279Z" fill="#19517E"/>
</svg>
