<svg width="86" height="91" viewBox="0 0 86 91" fill="none" xmlns="http://www.w3.org/2000/svg">
<path d="M56.0253 29.1219C47.2725 16.245 35.5824 9.40102 29.4604 13.5944C28.7863 14.0692 28.2005 14.6583 27.7297 15.3351C27.7297 15.3845 13.5571 44.0658 13.5571 44.0658L5.64504 49.4263C4.43042 50.2508 3.39015 51.3065 2.58365 52.5332C1.77715 53.7599 1.22023 55.1334 0.944701 56.5753C0.669169 58.0173 0.680429 59.4994 0.977835 60.937C1.27524 62.3746 1.85297 63.7395 2.67801 64.9538L3.03405 65.4779C4.70173 67.9072 7.25991 69.5812 10.1537 70.1366C13.0476 70.692 16.0437 70.0842 18.4923 68.445L31.2011 87.1669C33.0703 89.4713 36.6604 91.7658 41.0912 89.0658C41.8761 88.5569 42.5457 87.8891 43.0567 87.1055C43.5678 86.3219 43.9089 85.4399 44.0582 84.5164C44.2372 83.5978 44.2324 82.6529 44.0439 81.7362C43.8555 80.8195 43.4872 79.9492 42.9604 79.1757L31.7648 62.6592C31.7648 62.6592 58.2308 60.5527 58.3297 60.5131C59.156 60.3401 59.9394 60.0039 60.6341 59.5241C63.7791 57.3878 64.9066 52.9076 63.8187 46.9043C62.8396 41.3757 60.0604 35.1153 56.0253 29.1219ZM5.91208 63.5296L5.55603 63.0054C4.98679 62.1674 4.58842 61.2253 4.38372 60.2331C4.17902 59.2409 4.17201 58.2181 4.36309 57.2232C4.55417 56.2284 4.93958 55.2809 5.49728 54.4352C6.05497 53.5894 6.77399 52.8619 7.61317 52.2944L14.4472 47.6461L23.467 60.9285L16.633 65.5768C15.7947 66.1468 14.8524 66.546 13.8598 66.7516C12.8673 66.9572 11.8439 66.9651 10.8482 66.775C9.85259 66.5849 8.90417 66.2004 8.05719 65.6435C7.21021 65.0866 6.48129 64.3683 5.91208 63.5296ZM40.1121 81.1241C40.6526 81.9284 40.8521 82.9142 40.6666 83.8654C40.4812 84.8165 39.9261 85.6553 39.1231 86.1977C38.3172 86.7388 37.3298 86.9385 36.3771 86.7531C35.4243 86.5677 34.5838 86.0124 34.0396 85.2087L21.3703 66.5461L26.4637 63.0845L27.8088 62.9757L40.1121 81.1241ZM26.7406 59.5834L16.9099 45.1043L26.2857 25.9867C27.1956 31.3571 29.856 37.7362 34.1088 43.9966C38.3615 50.2571 43.3066 55.0834 47.9549 57.912L26.7406 59.5834ZM55.9165 57.279C51.189 56.9724 43.4945 51.6417 36.9769 42.0384C30.4593 32.4351 28.3428 23.3461 29.7967 18.8263C30.0592 17.9779 30.5832 17.2342 31.2936 16.7013C32.0041 16.1685 32.8648 15.8738 33.7527 15.8593C38.4407 15.8593 46.422 21.2197 53.1275 31.0999C56.9055 36.6582 59.6549 42.4735 60.4066 47.5571C61.8802 57.279 55.9165 57.279 55.9165 57.279Z" fill="#19517E"/>
<path d="M43.6627 29.4879C42.4512 29.25 41.2045 29.256 39.9954 29.5056C38.7863 29.7553 37.6391 30.2435 36.6209 30.9417C36.4332 31.0716 36.273 31.2372 36.1493 31.429C36.0256 31.6208 35.9409 31.8351 35.9 32.0596C35.8592 32.2842 35.8629 32.5146 35.9111 32.7377C35.9593 32.9608 36.0509 33.1722 36.1808 33.3598C36.3107 33.5475 36.4762 33.7078 36.6681 33.8315C36.8599 33.9552 37.0742 34.0398 37.2987 34.0807C37.5233 34.1216 37.7536 34.1178 37.9767 34.0696C38.1998 34.0215 38.4112 33.9298 38.5989 33.8C39.2438 33.3623 39.9685 33.0559 40.7318 32.8983C41.495 32.7407 42.2819 32.7349 43.0473 32.8814C43.8128 33.0279 44.5419 33.3237 45.1931 33.752C45.8442 34.1803 46.4046 34.7326 46.8423 35.3774C47.28 36.0223 47.5864 36.747 47.744 37.5103C47.9016 38.2735 47.9073 39.0604 47.7609 39.8258C47.6144 40.5913 47.3186 41.3204 46.8903 41.9716C46.462 42.6227 45.9097 43.1831 45.2649 43.6208C44.9608 43.8308 44.7319 44.1326 44.6117 44.482C44.4915 44.8314 44.4863 45.2101 44.5968 45.5627C44.7074 45.9153 44.9278 46.2233 45.226 46.4416C45.5242 46.6598 45.8844 46.777 46.2539 46.7758C46.6064 46.7824 46.9522 46.6787 47.2429 46.4791C48.7812 45.437 49.9756 43.9618 50.6748 42.2404C51.374 40.519 51.5465 38.6287 51.1705 36.8091C50.7945 34.9896 49.8869 33.3225 48.5627 32.0192C47.2385 30.7159 45.5572 29.8349 43.7319 29.4879H43.6627ZM58.1616 17.0857H58.3297C58.7578 17.0855 59.1706 16.9267 59.4884 16.6399C59.8063 16.3531 60.0065 15.9587 60.0506 15.5329L61.3857 2.5571C61.4161 2.32765 61.4002 2.09444 61.3388 1.87127C61.2775 1.64809 61.172 1.43948 61.0287 1.25778C60.8853 1.07608 60.7069 0.924987 60.5042 0.813431C60.3014 0.701874 60.0783 0.632124 59.848 0.608308C59.6178 0.584492 59.3852 0.607094 59.1638 0.674776C58.9425 0.742457 58.737 0.853844 58.5595 1.00235C58.3819 1.15085 58.236 1.33345 58.1303 1.53934C58.0245 1.74524 57.9612 1.97025 57.944 2.20106L56.6187 15.1868C56.5717 15.6431 56.7078 16.0995 56.9971 16.4556C57.2864 16.8116 57.7052 17.0383 58.1616 17.0857ZM80.533 14.4153C80.2789 14.0323 79.8835 13.7653 79.4333 13.6726C78.983 13.58 78.5144 13.6692 78.1297 13.9208L66.0736 21.8329C65.7606 22.0396 65.5232 22.3425 65.3971 22.6958C65.2711 23.0491 65.2633 23.4339 65.3749 23.792C65.4865 24.1502 65.7114 24.4624 66.0158 24.6816C66.3202 24.9009 66.6876 25.0153 67.0627 25.0076C67.4125 25.0157 67.7568 24.9193 68.0517 24.7307L80.1077 16.8186C80.4817 16.5555 80.7364 16.155 80.8161 15.7047C80.8957 15.2544 80.794 14.7909 80.533 14.4153ZM84.222 35.5406L70.1978 33.0186C69.7453 32.9373 69.2791 33.0391 68.9017 33.3015C68.5242 33.564 68.2665 33.9656 68.1852 34.4181C68.1039 34.8706 68.2056 35.3368 68.4681 35.7142C68.7305 36.0917 69.1322 36.3494 69.5846 36.4307L83.5989 38.9527H83.9055C84.3465 38.9656 84.7758 38.8096 85.1056 38.5166C85.4354 38.2236 85.6409 37.8157 85.68 37.3762C85.7192 36.9368 85.589 36.499 85.3162 36.1523C85.0434 35.8056 84.6484 35.5762 84.2121 35.5109L84.222 35.5406Z" fill="#19517E"/>
</svg>
