<svg width="521" height="428" viewBox="0 0 521 428" fill="none" xmlns="http://www.w3.org/2000/svg">
<g opacity="0.2">
<path opacity="0.038" d="M392.148 398.106C423.066 398.106 448.131 389.016 448.131 377.802C448.131 366.589 423.066 357.499 392.148 357.499C361.23 357.499 336.166 366.589 336.166 377.802C336.166 389.016 361.23 398.106 392.148 398.106Z" fill="#1E1E1D"/>
<path opacity="0.077" d="M392.148 397.625C422.337 397.625 446.809 388.75 446.809 377.803C446.809 366.855 422.337 357.98 392.148 357.98C361.96 357.98 337.487 366.855 337.487 377.803C337.487 388.75 361.96 397.625 392.148 397.625Z" fill="#1E1E1D"/>
<path opacity="0.115" d="M392.148 397.163C421.606 397.163 445.488 388.495 445.488 377.803C445.488 367.11 421.606 358.442 392.148 358.442C362.689 358.442 338.808 367.11 338.808 377.803C338.808 388.495 362.689 397.163 392.148 397.163Z" fill="#1E1E1D"/>
<path opacity="0.154" d="M392.149 396.682C420.888 396.682 444.186 388.229 444.186 377.803C444.186 367.376 420.888 358.923 392.149 358.923C363.41 358.923 340.112 367.376 340.112 377.803C340.112 388.229 363.41 396.682 392.149 396.682Z" fill="#1E1E1D"/>
<path opacity="0.192" d="M392.148 396.202C420.158 396.202 442.864 387.964 442.864 377.802C442.864 367.641 420.158 359.403 392.148 359.403C364.139 359.403 341.433 367.641 341.433 377.802C341.433 387.964 364.139 396.202 392.148 396.202Z" fill="#1E1E1D"/>
<path opacity="0.231" d="M392.148 395.721C419.428 395.721 441.542 387.699 441.542 377.802C441.542 367.906 419.428 359.884 392.148 359.884C364.868 359.884 342.754 367.906 342.754 377.802C342.754 387.699 364.868 395.721 392.148 395.721Z" fill="#1E1E1D"/>
<path opacity="0.269" d="M392.148 395.241C418.708 395.241 440.239 387.434 440.239 377.803C440.239 368.172 418.708 360.364 392.148 360.364C365.588 360.364 344.057 368.172 344.057 377.803C344.057 387.434 365.588 395.241 392.148 395.241Z" fill="#1E1E1D"/>
<path opacity="0.308" d="M392.148 394.778C417.978 394.778 438.918 387.178 438.918 377.802C438.918 368.427 417.978 360.827 392.148 360.827C366.318 360.827 345.379 368.427 345.379 377.802C345.379 387.178 366.318 394.778 392.148 394.778Z" fill="#1E1E1D"/>
<path opacity="0.346" d="M392.148 394.298C417.248 394.298 437.596 386.913 437.596 377.803C437.596 368.693 417.248 361.307 392.148 361.307C367.047 361.307 346.699 368.693 346.699 377.803C346.699 386.913 367.047 394.298 392.148 394.298Z" fill="#1E1E1D"/>
<path opacity="0.385" d="M392.148 393.817C416.529 393.817 436.293 386.647 436.293 377.802C436.293 368.958 416.529 361.788 392.148 361.788C367.767 361.788 348.003 368.958 348.003 377.802C348.003 386.647 367.767 393.817 392.148 393.817Z" fill="#1E1E1D"/>
<path opacity="0.423" d="M392.148 393.337C415.799 393.337 434.972 386.382 434.972 377.802C434.972 369.223 415.799 362.268 392.148 362.268C368.497 362.268 349.324 369.223 349.324 377.802C349.324 386.382 368.497 393.337 392.148 393.337Z" fill="#1E1E1D"/>
<path opacity="0.462" d="M392.148 392.856C415.07 392.856 433.651 386.117 433.651 377.802C433.651 369.488 415.07 362.749 392.148 362.749C369.227 362.749 350.646 369.488 350.646 377.802C350.646 386.117 369.227 392.856 392.148 392.856Z" fill="#1E1E1D"/>
<path opacity="0.5" d="M392.149 392.376C414.34 392.376 432.33 385.851 432.33 377.802C432.33 369.754 414.34 363.229 392.149 363.229C369.957 363.229 351.968 369.754 351.968 377.802C351.968 385.851 369.957 392.376 392.149 392.376Z" fill="#1E1E1D"/>
<path opacity="0.538" d="M392.149 391.913C413.62 391.913 431.027 385.596 431.027 377.802C431.027 370.009 413.62 363.692 392.149 363.692C370.677 363.692 353.271 370.009 353.271 377.802C353.271 385.596 370.677 391.913 392.149 391.913Z" fill="#1E1E1D"/>
<path opacity="0.577" d="M392.149 391.433C412.891 391.433 429.706 385.33 429.706 377.803C429.706 370.275 412.891 364.172 392.149 364.172C371.407 364.172 354.592 370.275 354.592 377.803C354.592 385.33 371.407 391.433 392.149 391.433Z" fill="#1E1E1D"/>
<path opacity="0.615" d="M392.148 390.952C412.161 390.952 428.384 385.065 428.384 377.803C428.384 370.54 412.161 364.653 392.148 364.653C372.136 364.653 355.913 370.54 355.913 377.803C355.913 385.065 372.136 390.952 392.148 390.952Z" fill="#1E1E1D"/>
<path opacity="0.654" d="M392.148 390.472C411.441 390.472 427.081 384.8 427.081 377.803C427.081 370.805 411.441 365.133 392.148 365.133C372.856 365.133 357.216 370.805 357.216 377.803C357.216 384.8 372.856 390.472 392.148 390.472Z" fill="#1E1E1D"/>
<path opacity="0.692" d="M392.149 389.991C410.711 389.991 425.76 384.534 425.76 377.802C425.76 371.071 410.711 365.613 392.149 365.613C373.586 365.613 358.537 371.071 358.537 377.802C358.537 384.534 373.586 389.991 392.149 389.991Z" fill="#1E1E1D"/>
<path opacity="0.731" d="M392.148 389.529C409.981 389.529 424.438 384.279 424.438 377.802C424.438 371.326 409.981 366.076 392.148 366.076C374.315 366.076 359.858 371.326 359.858 377.802C359.858 384.279 374.315 389.529 392.148 389.529Z" fill="#1E1E1D"/>
<path opacity="0.769" d="M392.148 389.048C409.261 389.048 423.135 384.013 423.135 377.802C423.135 371.591 409.261 366.556 392.148 366.556C375.034 366.556 361.161 371.591 361.161 377.802C361.161 384.013 375.034 389.048 392.148 389.048Z" fill="#1E1E1D"/>
<path opacity="0.808" d="M392.148 388.568C408.532 388.568 421.813 383.748 421.813 377.803C421.813 371.857 408.532 367.037 392.148 367.037C375.764 367.037 362.482 371.857 362.482 377.803C362.482 383.748 375.764 388.568 392.148 388.568Z" fill="#1E1E1D"/>
<path opacity="0.846" d="M392.148 388.088C407.802 388.088 420.492 383.483 420.492 377.803C420.492 372.122 407.802 367.518 392.148 367.518C376.494 367.518 363.804 372.122 363.804 377.803C363.804 383.483 376.494 388.088 392.148 388.088Z" fill="#1E1E1D"/>
<path opacity="0.885" d="M392.148 387.607C407.082 387.607 419.189 383.217 419.189 377.802C419.189 372.387 407.082 367.998 392.148 367.998C377.214 367.998 365.107 372.387 365.107 377.802C365.107 383.217 377.214 387.607 392.148 387.607Z" fill="#1E1E1D"/>
<path opacity="0.923" d="M392.148 387.127C406.353 387.127 417.868 382.952 417.868 377.802C417.868 372.653 406.353 368.478 392.148 368.478C377.944 368.478 366.428 372.653 366.428 377.802C366.428 382.952 377.944 387.127 392.148 387.127Z" fill="#1E1E1D"/>
<path opacity="0.962" d="M392.148 386.664C405.623 386.664 416.547 382.697 416.547 377.802C416.547 372.908 405.623 368.941 392.148 368.941C378.673 368.941 367.75 372.908 367.75 377.802C367.75 382.697 378.673 386.664 392.148 386.664Z" fill="#1E1E1D"/>
<path d="M392.149 386.183C404.904 386.183 415.244 382.431 415.244 377.802C415.244 373.173 404.904 369.421 392.149 369.421C379.394 369.421 369.053 373.173 369.053 377.802C369.053 382.431 379.394 386.183 392.149 386.183Z" fill="#1E1E1D"/>
</g>
<g opacity="0.2">
<path opacity="0.038" d="M239.984 391.166C290.255 391.166 331.007 376.38 331.007 358.14C331.007 339.9 290.255 325.114 239.984 325.114C189.713 325.114 148.96 339.9 148.96 358.14C148.96 376.38 189.713 391.166 239.984 391.166Z" fill="#1E1E1D"/>
<path opacity="0.077" d="M239.984 390.383C289.075 390.383 328.871 375.947 328.871 358.14C328.871 340.332 289.075 325.897 239.984 325.897C190.892 325.897 151.096 340.332 151.096 358.14C151.096 375.947 190.892 390.383 239.984 390.383Z" fill="#1E1E1D"/>
<path opacity="0.115" d="M239.984 389.618C287.896 389.618 326.736 375.525 326.736 358.14C326.736 340.755 287.896 326.662 239.984 326.662C192.072 326.662 153.232 340.755 153.232 358.14C153.232 375.525 192.072 389.618 239.984 389.618Z" fill="#1E1E1D"/>
<path opacity="0.154" d="M239.984 388.835C286.716 388.835 324.6 375.093 324.6 358.14C324.6 341.188 286.716 327.445 239.984 327.445C193.251 327.445 155.367 341.188 155.367 358.14C155.367 375.093 193.251 388.835 239.984 388.835Z" fill="#1E1E1D"/>
<path opacity="0.192" d="M239.984 388.07C285.537 388.07 322.464 374.67 322.464 358.14C322.464 341.61 285.537 328.21 239.984 328.21C194.431 328.21 157.504 341.61 157.504 358.14C157.504 374.67 194.431 388.07 239.984 388.07Z" fill="#1E1E1D"/>
<path opacity="0.231" d="M239.984 387.287C284.347 387.287 320.31 374.237 320.31 358.14C320.31 342.043 284.347 328.993 239.984 328.993C195.621 328.993 159.657 342.043 159.657 358.14C159.657 374.237 195.621 387.287 239.984 387.287Z" fill="#1E1E1D"/>
<path opacity="0.269" d="M239.983 386.504C283.167 386.504 318.174 373.805 318.174 358.14C318.174 342.475 283.167 329.776 239.983 329.776C196.8 329.776 161.792 342.475 161.792 358.14C161.792 373.805 196.8 386.504 239.983 386.504Z" fill="#1E1E1D"/>
<path opacity="0.308" d="M239.984 385.739C281.988 385.739 316.039 373.382 316.039 358.14C316.039 342.897 281.988 330.541 239.984 330.541C197.98 330.541 163.929 342.897 163.929 358.14C163.929 373.382 197.98 385.739 239.984 385.739Z" fill="#1E1E1D"/>
<path opacity="0.346" d="M239.984 384.956C280.808 384.956 313.903 372.95 313.903 358.14C313.903 343.33 280.808 331.324 239.984 331.324C199.159 331.324 166.064 343.33 166.064 358.14C166.064 372.95 199.159 384.956 239.984 384.956Z" fill="#1E1E1D"/>
<path opacity="0.385" d="M239.984 384.173C279.629 384.173 311.768 372.518 311.768 358.14C311.768 343.762 279.629 332.107 239.984 332.107C200.339 332.107 168.201 343.762 168.201 358.14C168.201 372.518 200.339 384.173 239.984 384.173Z" fill="#1E1E1D"/>
<path opacity="0.423" d="M239.984 383.408C278.439 383.408 309.614 372.095 309.614 358.14C309.614 344.185 278.439 332.872 239.984 332.872C201.529 332.872 170.354 344.185 170.354 358.14C170.354 372.095 201.529 383.408 239.984 383.408Z" fill="#1E1E1D"/>
<path opacity="0.462" d="M239.984 382.625C277.26 382.625 307.478 371.663 307.478 358.14C307.478 344.617 277.26 333.655 239.984 333.655C202.708 333.655 172.49 344.617 172.49 358.14C172.49 371.663 202.708 382.625 239.984 382.625Z" fill="#1E1E1D"/>
<path opacity="0.5" d="M239.984 381.86C276.08 381.86 305.342 371.24 305.342 358.14C305.342 345.04 276.08 334.42 239.984 334.42C203.888 334.42 174.626 345.04 174.626 358.14C174.626 371.24 203.888 381.86 239.984 381.86Z" fill="#1E1E1D"/>
<path opacity="0.538" d="M239.984 381.077C274.901 381.077 303.206 370.807 303.206 358.14C303.206 345.472 274.901 335.203 239.984 335.203C205.067 335.203 176.762 345.472 176.762 358.14C176.762 370.807 205.067 381.077 239.984 381.077Z" fill="#1E1E1D"/>
<path opacity="0.577" d="M239.984 380.294C273.721 380.294 301.07 370.375 301.07 358.14C301.07 345.905 273.721 335.986 239.984 335.986C206.247 335.986 178.897 345.905 178.897 358.14C178.897 370.375 206.247 380.294 239.984 380.294Z" fill="#1E1E1D"/>
<path opacity="0.615" d="M239.983 379.529C272.541 379.529 298.934 369.953 298.934 358.14C298.934 346.327 272.541 336.751 239.983 336.751C207.426 336.751 181.033 346.327 181.033 358.14C181.033 369.953 207.426 379.529 239.983 379.529Z" fill="#1E1E1D"/>
<path opacity="0.654" d="M239.983 378.746C271.351 378.746 296.78 369.52 296.78 358.14C296.78 346.76 271.351 337.534 239.983 337.534C208.615 337.534 183.187 346.76 183.187 358.14C183.187 369.52 208.615 378.746 239.983 378.746Z" fill="#1E1E1D"/>
<path opacity="0.692" d="M239.984 377.981C270.172 377.981 294.645 369.098 294.645 358.14C294.645 347.182 270.172 338.299 239.984 338.299C209.795 338.299 185.323 347.182 185.323 358.14C185.323 369.098 209.795 377.981 239.984 377.981Z" fill="#1E1E1D"/>
<path opacity="0.731" d="M239.984 377.198C268.993 377.198 292.509 368.665 292.509 358.14C292.509 347.615 268.993 339.082 239.984 339.082C210.975 339.082 187.459 347.615 187.459 358.14C187.459 368.665 210.975 377.198 239.984 377.198Z" fill="#1E1E1D"/>
<path opacity="0.769" d="M239.984 376.415C267.813 376.415 290.373 368.233 290.373 358.14C290.373 348.047 267.813 339.865 239.984 339.865C212.154 339.865 189.594 348.047 189.594 358.14C189.594 368.233 212.154 376.415 239.984 376.415Z" fill="#1E1E1D"/>
<path opacity="0.808" d="M239.984 375.649C266.633 375.649 288.237 367.81 288.237 358.14C288.237 348.47 266.633 340.63 239.984 340.63C213.334 340.63 191.73 348.47 191.73 358.14C191.73 367.81 213.334 375.649 239.984 375.649Z" fill="#1E1E1D"/>
<path opacity="0.846" d="M239.983 374.866C265.444 374.866 286.083 367.378 286.083 358.14C286.083 348.902 265.444 341.413 239.983 341.413C214.523 341.413 193.884 348.902 193.884 358.14C193.884 367.378 214.523 374.866 239.983 374.866Z" fill="#1E1E1D"/>
<path opacity="0.885" d="M239.984 374.084C264.265 374.084 283.948 366.945 283.948 358.14C283.948 349.335 264.265 342.196 239.984 342.196C215.703 342.196 196.02 349.335 196.02 358.14C196.02 366.945 215.703 374.084 239.984 374.084Z" fill="#1E1E1D"/>
<path opacity="0.923" d="M239.984 373.318C263.085 373.318 281.812 366.523 281.812 358.14C281.812 349.757 263.085 342.961 239.984 342.961C216.882 342.961 198.155 349.757 198.155 358.14C198.155 366.523 216.882 373.318 239.984 373.318Z" fill="#1E1E1D"/>
<path opacity="0.962" d="M239.983 372.535C261.905 372.535 279.676 366.09 279.676 358.14C279.676 350.189 261.905 343.744 239.983 343.744C218.062 343.744 200.291 350.189 200.291 358.14C200.291 366.09 218.062 372.535 239.983 372.535Z" fill="#1E1E1D"/>
<path d="M239.983 371.771C260.725 371.771 277.54 365.668 277.54 358.14C277.54 350.612 260.725 344.51 239.983 344.51C219.241 344.51 202.426 350.612 202.426 358.14C202.426 365.668 219.241 371.771 239.983 371.771Z" fill="#1E1E1D"/>
</g>
<g opacity="0.2">
<path opacity="0.038" d="M327.623 247.62C358.541 247.62 383.605 238.53 383.605 227.317C383.605 216.103 358.541 207.013 327.623 207.013C296.705 207.013 271.64 216.103 271.64 227.317C271.64 238.53 296.705 247.62 327.623 247.62Z" fill="#1E1E1D"/>
<path opacity="0.077" d="M327.623 247.139C357.811 247.139 382.284 238.264 382.284 227.317C382.284 216.369 357.811 207.494 327.623 207.494C297.434 207.494 272.962 216.369 272.962 227.317C272.962 238.264 297.434 247.139 327.623 247.139Z" fill="#1E1E1D"/>
<path opacity="0.115" d="M327.623 246.677C357.082 246.677 380.963 238.009 380.963 227.317C380.963 216.624 357.082 207.957 327.623 207.957C298.164 207.957 274.283 216.624 274.283 227.317C274.283 238.009 298.164 246.677 327.623 246.677Z" fill="#1E1E1D"/>
<path opacity="0.154" d="M327.624 246.196C356.363 246.196 379.66 237.744 379.66 227.317C379.66 216.89 356.363 208.437 327.624 208.437C298.885 208.437 275.587 216.89 275.587 227.317C275.587 237.744 298.885 246.196 327.624 246.196Z" fill="#1E1E1D"/>
<path opacity="0.192" d="M327.623 245.716C355.632 245.716 378.338 237.478 378.338 227.317C378.338 217.155 355.632 208.917 327.623 208.917C299.614 208.917 276.908 217.155 276.908 227.317C276.908 237.478 299.614 245.716 327.623 245.716Z" fill="#1E1E1D"/>
<path opacity="0.231" d="M327.623 245.236C354.902 245.236 377.017 237.213 377.017 227.317C377.017 217.42 354.902 209.398 327.623 209.398C300.343 209.398 278.229 217.42 278.229 227.317C278.229 237.213 300.343 245.236 327.623 245.236Z" fill="#1E1E1D"/>
<path opacity="0.269" d="M327.623 244.755C354.183 244.755 375.714 236.948 375.714 227.317C375.714 217.686 354.183 209.878 327.623 209.878C301.064 209.878 279.532 217.686 279.532 227.317C279.532 236.948 301.064 244.755 327.623 244.755Z" fill="#1E1E1D"/>
<path opacity="0.308" d="M327.623 244.292C353.454 244.292 374.393 236.692 374.393 227.317C374.393 217.941 353.454 210.341 327.623 210.341C301.793 210.341 280.854 217.941 280.854 227.317C280.854 236.692 301.793 244.292 327.623 244.292Z" fill="#1E1E1D"/>
<path opacity="0.346" d="M327.623 243.812C352.723 243.812 373.071 236.427 373.071 227.317C373.071 218.206 352.723 210.821 327.623 210.821C302.523 210.821 282.175 218.206 282.175 227.317C282.175 236.427 302.523 243.812 327.623 243.812Z" fill="#1E1E1D"/>
<path opacity="0.385" d="M327.623 243.331C352.003 243.331 371.768 236.161 371.768 227.317C371.768 218.472 352.003 211.302 327.623 211.302C303.242 211.302 283.478 218.472 283.478 227.317C283.478 236.161 303.242 243.331 327.623 243.331Z" fill="#1E1E1D"/>
<path opacity="0.423" d="M327.623 242.851C351.274 242.851 370.447 235.896 370.447 227.317C370.447 218.737 351.274 211.782 327.623 211.782C303.972 211.782 284.8 218.737 284.8 227.317C284.8 235.896 303.972 242.851 327.623 242.851Z" fill="#1E1E1D"/>
<path opacity="0.462" d="M327.623 242.371C350.545 242.371 369.126 235.631 369.126 227.317C369.126 219.003 350.545 212.263 327.623 212.263C304.702 212.263 286.121 219.003 286.121 227.317C286.121 235.631 304.702 242.371 327.623 242.371Z" fill="#1E1E1D"/>
<path opacity="0.5" d="M327.623 241.89C349.815 241.89 367.804 235.365 367.804 227.317C367.804 219.268 349.815 212.743 327.623 212.743C305.431 212.743 287.442 219.268 287.442 227.317C287.442 235.365 305.431 241.89 327.623 241.89Z" fill="#1E1E1D"/>
<path opacity="0.538" d="M327.623 241.427C349.095 241.427 366.501 235.11 366.501 227.317C366.501 219.523 349.095 213.206 327.623 213.206C306.151 213.206 288.745 219.523 288.745 227.317C288.745 235.11 306.151 241.427 327.623 241.427Z" fill="#1E1E1D"/>
<path opacity="0.577" d="M327.623 240.947C348.365 240.947 365.18 234.844 365.18 227.317C365.18 219.789 348.365 213.686 327.623 213.686C306.881 213.686 290.066 219.789 290.066 227.317C290.066 234.844 306.881 240.947 327.623 240.947Z" fill="#1E1E1D"/>
<path opacity="0.615" d="M327.623 240.467C347.636 240.467 363.859 234.579 363.859 227.317C363.859 220.054 347.636 214.167 327.623 214.167C307.611 214.167 291.388 220.054 291.388 227.317C291.388 234.579 307.611 240.467 327.623 240.467Z" fill="#1E1E1D"/>
<path opacity="0.654" d="M327.623 239.986C346.916 239.986 362.556 234.314 362.556 227.317C362.556 220.32 346.916 214.647 327.623 214.647C308.33 214.647 292.691 220.32 292.691 227.317C292.691 234.314 308.33 239.986 327.623 239.986Z" fill="#1E1E1D"/>
<path opacity="0.692" d="M327.623 239.506C346.186 239.506 361.234 234.048 361.234 227.316C361.234 220.585 346.186 215.127 327.623 215.127C309.06 215.127 294.012 220.585 294.012 227.316C294.012 234.048 309.06 239.506 327.623 239.506Z" fill="#1E1E1D"/>
<path opacity="0.731" d="M327.623 239.043C345.456 239.043 359.913 233.793 359.913 227.317C359.913 220.84 345.456 215.59 327.623 215.59C309.79 215.59 295.333 220.84 295.333 227.317C295.333 233.793 309.79 239.043 327.623 239.043Z" fill="#1E1E1D"/>
<path opacity="0.769" d="M327.623 238.563C344.736 238.563 358.61 233.528 358.61 227.317C358.61 221.106 344.736 216.071 327.623 216.071C310.509 216.071 296.636 221.106 296.636 227.317C296.636 233.528 310.509 238.563 327.623 238.563Z" fill="#1E1E1D"/>
<path opacity="0.808" d="M327.623 238.082C344.007 238.082 357.288 233.262 357.288 227.317C357.288 221.371 344.007 216.551 327.623 216.551C311.239 216.551 297.958 221.371 297.958 227.317C297.958 233.262 311.239 238.082 327.623 238.082Z" fill="#1E1E1D"/>
<path opacity="0.846" d="M327.623 237.602C343.277 237.602 355.967 232.997 355.967 227.317C355.967 221.636 343.277 217.032 327.623 217.032C311.969 217.032 299.279 221.636 299.279 227.317C299.279 232.997 311.969 237.602 327.623 237.602Z" fill="#1E1E1D"/>
<path opacity="0.885" d="M327.623 237.121C342.557 237.121 354.664 232.732 354.664 227.317C354.664 221.902 342.557 217.512 327.623 217.512C312.688 217.512 300.582 221.902 300.582 227.317C300.582 232.732 312.688 237.121 327.623 237.121Z" fill="#1E1E1D"/>
<path opacity="0.923" d="M327.623 236.641C341.827 236.641 353.342 232.466 353.342 227.317C353.342 222.167 341.827 217.992 327.623 217.992C313.418 217.992 301.903 222.167 301.903 227.317C301.903 232.466 313.418 236.641 327.623 236.641Z" fill="#1E1E1D"/>
<path opacity="0.962" d="M327.623 236.178C341.098 236.178 352.022 232.211 352.022 227.317C352.022 222.423 341.098 218.455 327.623 218.455C314.148 218.455 303.225 222.423 303.225 227.317C303.225 232.211 314.148 236.178 327.623 236.178Z" fill="#1E1E1D"/>
<path d="M327.623 235.698C340.378 235.698 350.718 231.945 350.718 227.317C350.718 222.688 340.378 218.936 327.623 218.936C314.868 218.936 304.528 222.688 304.528 227.317C304.528 231.945 314.868 235.698 327.623 235.698Z" fill="#1E1E1D"/>
</g>
<path d="M413.524 110.551L271.514 30.1211C267.442 27.8078 262.355 30.7083 262.355 35.3348V161.656C262.355 167.457 265.505 172.831 270.627 175.713L411.388 255.432C415.805 257.941 421.325 254.791 421.325 249.773V123.808C421.325 118.345 418.357 113.273 413.524 110.551Z" fill="url(#paint0_linear_2500_106655)"/>
<path d="M408.167 113.185L266.156 32.7546C262.084 30.4414 256.998 33.3418 256.998 37.9683V164.29C256.998 170.09 260.147 175.464 265.27 178.347L406.031 258.065C410.447 260.574 415.968 257.425 415.968 252.407V126.441C415.968 120.978 412.999 115.907 408.167 113.185Z" fill="url(#paint1_linear_2500_106655)"/>
<path d="M410.935 126.459V252.406C410.935 252.851 410.79 253.225 410.465 253.527C410.157 253.83 409.741 253.99 409.324 253.99C409.053 253.99 408.8 253.919 408.546 253.777L267.785 174.058C264.237 172.048 262.047 168.311 262.047 164.289V37.9682C262.047 37.1852 262.789 36.9183 263.115 36.9183C263.296 36.9183 263.477 36.9717 263.64 37.0607L405.65 117.491C408.908 119.323 410.935 122.758 410.935 126.459Z" fill="white"/>
<path d="M410.935 126.459V133.168L262.047 48.2536V37.9507C262.047 37.1678 262.789 36.9009 263.115 36.9009C263.296 36.9009 263.477 36.9543 263.64 37.0432L405.65 117.473C408.908 119.324 410.935 122.758 410.935 126.459Z" fill="url(#paint2_linear_2500_106655)"/>
<path d="M244.02 51.8657L291.315 79.4289C292.944 80.3542 293.939 82.0803 293.939 83.9309V171.212C293.939 173.436 291.496 174.824 289.541 173.703L242.916 146.513C241.504 145.695 240.617 144.218 240.617 142.598V53.7697C240.617 52.0792 242.518 51.0116 244.02 51.8657Z" fill="#878AA0"/>
<path d="M242.246 52.7553L289.541 80.3185C291.17 81.2438 292.165 82.9699 292.165 84.8205V172.101C292.165 174.325 289.722 175.713 287.767 174.592L241.124 147.403C239.712 146.584 238.825 145.107 238.825 143.488V54.6593C238.843 52.951 240.726 51.8834 242.246 52.7553Z" fill="#F4F4F4"/>
<path d="M277.251 84.4825L256.111 71.9019C255.676 71.635 255.314 71.0834 255.314 70.6385C255.314 70.2115 255.676 70.0691 256.111 70.336L277.251 82.9166C277.686 83.1835 278.048 83.7351 278.048 84.1799C278.048 84.607 277.686 84.7494 277.251 84.4825Z" fill="url(#paint3_linear_2500_106655)"/>
<g opacity="0.75">
<path d="M258.699 79.5536V81.0483L287.55 97.4368V95.9421L258.699 79.5536Z" fill="#AAADAD"/>
<path d="M258.699 83.8953V85.39L287.55 101.725V100.23L258.699 83.8953Z" fill="#AAADAD"/>
<path d="M258.699 88.2372V89.7319L287.55 106.067V104.572L258.699 88.2372Z" fill="#AAADAD"/>
</g>
<path d="M254.065 77.4715V86.4398L245.685 81.671V72.6493L254.065 77.4715Z" fill="#AAADAD"/>
<path d="M246.717 76.7242L247.912 81.8311L253.468 79.7492V78.3078L248.781 80.0161L247.713 76.2793L246.717 76.7242Z" fill="white"/>
<g opacity="0.75">
<path d="M258.699 98.5756V100.07L287.55 116.459V114.964L258.699 98.5756Z" fill="#AAADAD"/>
<path d="M258.699 102.917V104.412L287.55 120.747V119.252L258.699 102.917Z" fill="#AAADAD"/>
<path d="M258.699 107.259V108.754L287.55 125.089V123.594L258.699 107.259Z" fill="#AAADAD"/>
</g>
<path d="M254.065 96.4933V105.462L245.685 100.693V91.671L254.065 96.4933Z" fill="#AAADAD"/>
<path d="M246.717 95.7464L247.912 100.853L253.468 98.7714V97.33L248.781 99.0383L247.713 95.3015L246.717 95.7464Z" fill="white"/>
<g opacity="0.75">
<path d="M258.699 117.598V119.092L287.55 135.481V133.986L258.699 117.598Z" fill="#AAADAD"/>
<path d="M258.699 121.939V123.434L287.55 139.769V138.274L258.699 121.939Z" fill="#AAADAD"/>
<path d="M258.699 126.281V127.776L287.55 144.111V142.616L258.699 126.281Z" fill="#AAADAD"/>
</g>
<path d="M254.065 115.516V124.484L245.685 119.715V110.693L254.065 115.516Z" fill="#AAADAD"/>
<path d="M246.717 114.768L247.912 119.875L253.468 117.793V116.352L248.781 118.06L247.713 114.323L246.717 114.768Z" fill="white"/>
<g opacity="0.75">
<path d="M258.699 136.619V138.114L287.55 154.503V153.008L258.699 136.619Z" fill="#AAADAD"/>
<path d="M258.699 140.961V142.456L287.55 158.791V157.296L258.699 140.961Z" fill="#AAADAD"/>
<path d="M258.699 145.303V146.798L287.55 163.133V161.638L258.699 145.303Z" fill="#AAADAD"/>
</g>
<path d="M254.065 134.538V143.506L245.685 138.737V129.715L254.065 134.538Z" fill="#AAADAD"/>
<path d="M246.717 133.79L247.912 138.897L253.468 136.815V135.374L248.781 137.082L247.713 133.345L246.717 133.79Z" fill="white"/>
<path d="M273.812 66.5282L271.622 65.2648C271.677 65.0334 271.695 64.7843 271.695 64.5174C271.695 62.133 269.722 59.0546 267.296 57.6488C264.871 56.2431 262.898 57.0438 262.898 59.4461C262.898 59.713 262.934 59.9977 262.971 60.2824L260.781 59.019C258.645 57.7912 256.889 58.503 256.889 60.6027C256.889 62.7024 258.645 65.4249 260.781 66.6705L273.83 74.1975C275.966 75.4253 277.722 74.7135 277.722 72.6138C277.704 70.4785 275.948 67.756 273.812 66.5282ZM267.296 64.1259C266.084 63.432 265.088 61.8839 265.088 60.6916C265.088 59.4994 266.066 59.0902 267.296 59.8019C268.509 60.4959 269.505 62.044 269.505 63.2362C269.505 64.4284 268.509 64.8199 267.296 64.1259Z" fill="url(#paint4_linear_2500_106655)"/>
<path d="M273.215 66.9729L271.025 65.7095C271.079 65.4781 271.098 65.229 271.098 64.9621C271.098 62.5777 269.125 59.4993 266.699 58.0935C264.274 56.6878 262.301 57.4885 262.301 59.8908C262.301 60.1577 262.337 60.4424 262.374 60.7271L260.183 59.4637C258.048 58.2359 256.292 58.9477 256.292 61.0474C256.292 63.1471 258.048 65.8696 260.183 67.1152L273.233 74.6422C275.369 75.87 277.125 75.1582 277.125 73.0585C277.107 70.9232 275.351 68.2007 273.215 66.9729ZM266.681 64.5706C265.469 63.8767 264.473 62.3286 264.473 61.1363C264.473 59.9441 265.45 59.5349 266.681 60.2466C267.894 60.9406 268.889 62.4887 268.889 63.6809C268.889 64.8731 267.912 65.2824 266.681 64.5706Z" fill="url(#paint5_linear_2500_106655)"/>
<path d="M391.768 139.627L442.954 169.45C444.709 170.464 445.795 172.315 445.795 174.326V252.869C445.795 255.271 443.135 256.766 441.035 255.556L390.573 226.142C389.035 225.27 388.093 223.651 388.093 221.907V141.691C388.075 139.858 390.139 138.702 391.768 139.627Z" fill="#878AA0"/>
<path d="M389.831 140.588L441.017 170.411C442.773 171.425 443.859 173.276 443.859 175.286V253.83C443.859 256.232 441.198 257.727 439.099 256.517L388.637 227.121C387.098 226.249 386.157 224.63 386.157 222.886V142.67C386.157 140.801 388.202 139.645 389.831 140.588Z" fill="#EFEFEF"/>
<g opacity="0.75">
<path d="M394.954 199.878V202.031L428.438 221.249V219.096L394.954 199.878Z" fill="#AAADAD"/>
<path d="M394.954 206.07V208.206L433.325 230.11V227.975L394.954 206.07Z" fill="#AAADAD"/>
<path d="M394.954 212.245V214.38L433.325 236.303V234.15L394.954 212.245Z" fill="#AAADAD"/>
<path d="M394.954 218.419V220.573L433.325 242.477V240.342L394.954 218.419Z" fill="#AAADAD"/>
</g>
<path d="M401.741 177.404L405.198 178.151C405.397 177.493 405.687 176.888 406.031 176.39L404.366 171.816L405.017 171.229C405.343 170.927 405.741 170.713 406.176 170.571L407.026 170.322L410.23 174.041C410.845 174.005 411.515 174.076 412.203 174.237L413.289 170.945L414.338 171.389C414.61 171.496 414.881 171.639 415.153 171.799C415.424 171.959 415.696 172.137 415.967 172.333L417.017 173.08L418.085 177.6C418.773 178.222 419.443 178.916 420.058 179.646L423.262 179.557L424.094 180.767C424.529 181.39 424.909 182.048 425.253 182.724L425.886 184.041L424.185 186.71C424.529 187.6 424.8 188.507 424.999 189.415L428.456 192.6L428.601 193.864C428.673 194.522 428.673 195.145 428.601 195.714L428.456 196.817L424.999 196.07C424.8 196.728 424.511 197.333 424.167 197.849L425.85 202.423L425.198 203.01C424.873 203.312 424.474 203.526 424.04 203.668L423.189 203.917L420.004 200.198C419.388 200.234 418.719 200.163 418.031 200.003L416.945 203.294L415.895 202.85C415.624 202.743 415.352 202.601 415.081 202.44C414.809 202.28 414.538 202.102 414.266 201.907L413.216 201.159L412.148 196.639C411.461 196.017 410.791 195.323 410.176 194.593L406.972 194.682L406.139 193.472C405.705 192.849 405.325 192.191 404.981 191.515L404.347 190.198L406.049 187.529C405.705 186.639 405.433 185.732 405.234 184.824L401.777 181.657L401.651 180.393C401.578 179.735 401.578 179.112 401.651 178.543L401.741 177.404ZM415.062 192.725C417.814 194.291 420.04 193.027 420.058 189.931C420.058 186.817 417.85 183.045 415.099 181.479C412.348 179.913 410.121 181.176 410.103 184.272C410.085 187.386 412.311 191.159 415.062 192.725ZM365.144 210.946L301.161 174.806C300.093 174.201 299.206 172.849 299.206 171.799C299.206 170.749 300.075 170.375 301.161 170.98L365.144 207.138C366.211 207.743 367.098 209.095 367.098 210.145C367.098 211.195 366.211 211.551 365.144 210.946ZM365.144 219.932L301.161 183.774C300.093 183.169 299.206 181.817 299.206 180.767C299.206 179.717 300.075 179.343 301.161 179.948L365.144 216.106C366.211 216.711 367.098 218.064 367.098 219.114C367.098 220.181 366.211 220.537 365.144 219.932Z" fill="#AAADAD"/>
<path d="M395.297 295.38C395.297 295.38 392.456 295.166 387.515 294.775L222.047 201.533C218.518 199.504 214.137 199.522 210.626 201.568L76.815 279.151C73.8829 278.849 71.5842 278.617 71.5842 278.617V285.433H71.6204C71.7652 286.892 72.5616 288.28 74.0277 289.116L244.798 385.401C247.55 386.966 250.934 386.949 253.667 385.365L393.56 304.241C394.7 303.565 395.279 302.426 395.297 301.269V295.38Z" fill="url(#paint6_linear_2500_106655)"/>
<path d="M395.297 295.024C395.297 295.024 392.456 294.81 387.515 294.419L222.047 201.177C218.518 199.148 214.137 199.166 210.626 201.212L76.815 278.795C73.8829 278.493 71.5842 278.261 71.5842 278.261V285.077H71.6204C71.7652 286.536 72.5616 287.924 74.0277 288.76L244.798 385.045C247.55 386.61 250.934 386.593 253.667 385.009L393.56 303.885C394.7 303.209 395.279 302.07 395.297 300.913V295.024Z" fill="url(#paint7_linear_2500_106655)"/>
<path d="M393.542 291.821L222.047 195.145C218.518 193.116 214.137 193.134 210.626 195.18L73.9915 274.4C70.7697 276.268 70.7878 280.859 74.0277 282.728L244.798 379.012C247.55 380.578 250.934 380.56 253.667 378.977L393.56 297.853C395.895 296.483 395.877 293.155 393.542 291.821Z" fill="url(#paint8_linear_2500_106655)"/>
<path d="M393.56 297.373L253.668 378.496C250.935 380.08 247.55 380.098 244.799 378.532L74.028 282.247C72.4896 281.358 71.6751 279.863 71.6027 278.315C71.5303 280.005 72.3267 281.749 74.028 282.71L244.799 378.995C247.55 380.561 250.935 380.543 253.668 378.959L393.56 297.835C394.809 297.106 395.352 295.824 395.28 294.597C395.207 295.682 394.646 296.75 393.56 297.373Z" fill="url(#paint9_linear_2500_106655)"/>
<path d="M358.79 193.685C358.79 193.685 339.351 203.632 338.935 203.632C338.519 203.632 323.695 193.009 323.695 193.009C323.695 193.009 321.324 192.244 319.985 194.7C318.663 197.138 319.08 197.315 319.08 197.315C319.08 197.315 337.306 212.743 339.967 212.049C342.627 211.355 360.365 203.366 360.365 203.366L358.79 193.685Z" fill="url(#paint10_linear_2500_106655)"/>
<path d="M367.731 294.045C367.731 294.045 363.424 299.223 362.102 300.255C360.799 301.27 358.935 301.732 360.473 302.622C362.03 303.512 362.519 304.615 365.034 303.601C367.55 302.604 373.505 299.152 374.537 297.177C375.587 295.202 374.012 293.76 374.012 293.76L367.731 294.045ZM354.754 286.927C354.754 286.927 347.532 293.316 347.496 293.992C347.46 294.668 349.487 297.462 353.197 295.451C356.908 293.44 361.958 290.397 362.374 289.419C362.79 288.44 361.722 286.625 361.722 286.625L354.754 286.927Z" fill="#404363"/>
<path d="M353.994 232.299C353.994 232.299 350.428 258.688 351.93 262.549C353.433 266.411 353.976 275.272 354.392 279.187C354.808 283.102 354.754 287.319 354.754 287.319C354.754 287.319 354.193 289.383 357.578 289.241C360.98 289.098 362.211 286.856 362.211 286.856C362.211 286.856 364.148 277.301 363.749 271.784C363.351 266.268 361.36 261.393 361.36 261.393L367.243 237.424L353.994 232.299Z" fill="#1D2035"/>
<path d="M363.025 242.246L364.274 269.738C364.274 269.738 366.482 276.34 367.206 282.283C367.912 288.226 367.731 294.063 367.731 294.063C367.731 294.063 368.111 296.091 370.627 295.967C373.143 295.86 374.699 294.33 374.699 294.33C374.699 294.33 376.22 282.176 376.365 275.61C376.509 269.044 375.206 266.482 375.206 266.482C375.206 266.482 374.283 255.752 376.998 250.538C379.731 245.324 378.899 240.218 378.899 240.218C378.899 240.218 375.279 244.025 363.025 242.246Z" fill="#2D2F4F"/>
<path d="M380.202 201.729C380.202 201.729 362.338 193.223 359.279 193.543C356.202 193.864 353.578 204.131 353.686 205.964C353.795 207.796 354.464 211.889 354.573 215.163C354.682 218.437 353.921 238.1 353.921 238.1C353.921 238.1 355.351 242.299 364.546 243.723C373.759 245.147 380.22 238.812 380.22 238.812C380.22 238.812 377.759 222.761 378.772 216.444C379.786 210.127 382.718 201.729 380.202 201.729Z" fill="url(#paint11_linear_2500_106655)"/>
<path d="M361.143 242.655L353.668 219.06L368.238 211.195L375.714 234.79L361.143 242.655Z" fill="url(#paint12_linear_2500_106655)"/>
<path d="M380.202 201.729C376.148 201.853 376.04 206.462 376.908 213.259C377.777 220.039 378.356 226.712 378.356 226.712L362.248 235.111C362.248 235.111 361.922 236.143 362.392 237.709C363.279 240.662 364.275 239.879 364.275 239.879C364.275 239.879 385.795 234.897 387.225 230.591C388.637 226.302 386.773 201.515 380.202 201.729Z" fill="url(#paint13_linear_2500_106655)"/>
<path d="M362.248 235.111C362.248 235.111 360.745 234.168 359.605 234.168C358.465 234.168 356.166 235.111 356.166 235.111C356.166 235.111 356.021 235.769 357.65 235.769C359.279 235.769 359.659 236 359.659 236C359.659 236 357.65 237.406 355.804 237.549C353.94 237.691 353.705 237.549 353.614 238.065C353.524 238.581 356.148 240.218 358.248 240.413C360.347 240.609 363.225 239.488 363.225 239.488C363.225 239.488 361.741 236.374 362.248 235.111Z" fill="url(#paint14_linear_2500_106655)"/>
<path d="M358.266 180.233C358.266 180.233 357.252 185.5 357.379 187.351C357.506 189.201 358.954 194.629 360.022 195.376C361.108 196.123 362.664 195.91 362.664 195.91L362.357 196.355C362.357 196.355 362.049 198.668 366.212 199.362C370.357 200.056 372.999 198.757 372.999 198.757C372.999 198.757 372.022 195.127 372.547 191.906C373.072 188.668 373.343 180.571 369.94 178.934C366.556 177.333 358.266 180.233 358.266 180.233Z" fill="url(#paint15_linear_2500_106655)"/>
<path d="M362.555 195.857C362.555 195.857 365.18 196.034 366.465 194.789C367.75 193.543 368.13 193.205 368.13 193.205C368.13 193.205 367.496 194.807 366.103 196.462C364.691 198.116 365.397 199.202 365.397 199.202C365.397 199.202 362.374 198.775 362.41 196.853C362.429 195.679 362.555 195.857 362.555 195.857Z" fill="#B7766E"/>
<path d="M367.678 182.013C367.678 182.013 365.795 183.721 367.171 185.198C368.564 186.693 368.402 189.415 368.402 189.415L369.506 188.917C369.506 188.917 369.361 185.892 370.574 186.088C371.786 186.283 372.438 186.906 371.967 188.597C371.497 190.287 372.492 191.479 373.85 191.07C375.207 190.661 377.994 185.661 378.429 183.383C378.863 181.087 376.474 178.774 376.474 178.774C376.474 178.774 375.895 174.628 373.27 173.756C370.646 172.884 361.451 175.874 357.922 175.198C354.392 174.521 354.501 178.579 357.252 180.144C360.021 181.728 362.754 183.81 367.678 182.013Z" fill="#3B3E5E"/>
<path d="M322.518 192.902C322.518 192.902 322.192 190.162 321.034 188.472C319.876 186.799 318.79 185.838 318.79 185.838C318.79 185.838 317.378 185.375 318.084 187.208C318.79 189.059 318.79 189.059 318.79 189.059C318.79 189.059 314.935 186.995 314.03 185.126C313.125 183.258 310.844 186.746 313.45 190.82C316.057 194.895 319.025 196.372 319.025 196.372C319.025 196.372 319.948 193.881 322.518 192.902Z" fill="url(#paint16_linear_2500_106655)"/>
<path d="M216.87 214.024C216.87 214.024 221.685 217.067 221.232 217.832C220.78 218.597 217.232 220.733 217.232 220.733L213.522 217.37C213.522 217.37 213.848 214.38 216.87 214.024Z" fill="url(#paint17_linear_2500_106655)"/>
<g opacity="0.2">
<path opacity="0.038" d="M273.124 330.488C304.042 330.488 329.107 321.398 329.107 310.185C329.107 298.971 304.042 289.881 273.124 289.881C242.206 289.881 217.142 298.971 217.142 310.185C217.142 321.398 242.206 330.488 273.124 330.488Z" fill="#1E1E1D"/>
<path opacity="0.077" d="M273.124 330.007C303.313 330.007 327.786 321.132 327.786 310.184C327.786 299.237 303.313 290.362 273.124 290.362C242.936 290.362 218.463 299.237 218.463 310.184C218.463 321.132 242.936 330.007 273.124 330.007Z" fill="#1E1E1D"/>
<path opacity="0.115" d="M273.124 329.545C302.583 329.545 326.464 320.877 326.464 310.185C326.464 299.492 302.583 290.824 273.124 290.824C243.665 290.824 219.784 299.492 219.784 310.185C219.784 320.877 243.665 329.545 273.124 329.545Z" fill="#1E1E1D"/>
<path opacity="0.154" d="M273.125 329.064C301.864 329.064 325.161 320.611 325.161 310.184C325.161 299.758 301.864 291.305 273.125 291.305C244.386 291.305 221.088 299.758 221.088 310.184C221.088 320.611 244.386 329.064 273.125 329.064Z" fill="#1E1E1D"/>
<path opacity="0.192" d="M273.124 328.584C301.134 328.584 323.84 320.346 323.84 310.185C323.84 300.023 301.134 291.785 273.124 291.785C245.115 291.785 222.409 300.023 222.409 310.185C222.409 320.346 245.115 328.584 273.124 328.584Z" fill="#1E1E1D"/>
<path opacity="0.231" d="M273.124 328.103C300.403 328.103 322.518 320.081 322.518 310.185C322.518 300.288 300.403 292.266 273.124 292.266C245.844 292.266 223.73 300.288 223.73 310.185C223.73 320.081 245.844 328.103 273.124 328.103Z" fill="#1E1E1D"/>
<path opacity="0.269" d="M273.124 327.623C299.684 327.623 321.215 319.815 321.215 310.185C321.215 300.554 299.684 292.746 273.124 292.746C246.564 292.746 225.033 300.554 225.033 310.185C225.033 319.815 246.564 327.623 273.124 327.623Z" fill="#1E1E1D"/>
<path opacity="0.308" d="M273.125 327.16C298.955 327.16 319.895 319.56 319.895 310.185C319.895 300.809 298.955 293.209 273.125 293.209C247.295 293.209 226.355 300.809 226.355 310.185C226.355 319.56 247.295 327.16 273.125 327.16Z" fill="#1E1E1D"/>
<path opacity="0.346" d="M273.125 326.68C298.225 326.68 318.573 319.295 318.573 310.184C318.573 301.074 298.225 293.689 273.125 293.689C248.024 293.689 227.676 301.074 227.676 310.184C227.676 319.295 248.024 326.68 273.125 326.68Z" fill="#1E1E1D"/>
<path opacity="0.385" d="M273.124 326.2C297.505 326.2 317.27 319.029 317.27 310.185C317.27 301.34 297.505 294.17 273.124 294.17C248.744 294.17 228.979 301.34 228.979 310.185C228.979 319.029 248.744 326.2 273.124 326.2Z" fill="#1E1E1D"/>
<path opacity="0.423" d="M273.124 325.719C296.775 325.719 315.948 318.764 315.948 310.185C315.948 301.605 296.775 294.65 273.124 294.65C249.473 294.65 230.301 301.605 230.301 310.185C230.301 318.764 249.473 325.719 273.124 325.719Z" fill="#1E1E1D"/>
<path opacity="0.462" d="M273.124 325.238C296.046 325.238 314.627 318.499 314.627 310.185C314.627 301.871 296.046 295.131 273.124 295.131C250.203 295.131 231.622 301.871 231.622 310.185C231.622 318.499 250.203 325.238 273.124 325.238Z" fill="#1E1E1D"/>
<path opacity="0.5" d="M273.124 324.758C295.316 324.758 313.306 318.233 313.306 310.185C313.306 302.136 295.316 295.611 273.124 295.611C250.933 295.611 232.943 302.136 232.943 310.185C232.943 318.233 250.933 324.758 273.124 324.758Z" fill="#1E1E1D"/>
<path opacity="0.538" d="M273.124 324.295C294.596 324.295 312.002 317.978 312.002 310.185C312.002 302.391 294.596 296.074 273.124 296.074C251.652 296.074 234.246 302.391 234.246 310.185C234.246 317.978 251.652 324.295 273.124 324.295Z" fill="#1E1E1D"/>
<path opacity="0.577" d="M273.124 323.815C293.866 323.815 310.681 317.712 310.681 310.185C310.681 302.657 293.866 296.554 273.124 296.554C252.382 296.554 235.567 302.657 235.567 310.185C235.567 317.712 252.382 323.815 273.124 323.815Z" fill="#1E1E1D"/>
<path opacity="0.615" d="M273.124 323.335C293.136 323.335 309.359 317.447 309.359 310.185C309.359 302.922 293.136 297.035 273.124 297.035C253.111 297.035 236.888 302.922 236.888 310.185C236.888 317.447 253.111 323.335 273.124 323.335Z" fill="#1E1E1D"/>
<path opacity="0.654" d="M273.124 322.854C292.417 322.854 308.057 317.182 308.057 310.185C308.057 303.187 292.417 297.515 273.124 297.515C253.831 297.515 238.192 303.187 238.192 310.185C238.192 317.182 253.831 322.854 273.124 322.854Z" fill="#1E1E1D"/>
<path opacity="0.692" d="M273.125 322.374C291.688 322.374 306.736 316.916 306.736 310.185C306.736 303.453 291.688 297.995 273.125 297.995C254.562 297.995 239.514 303.453 239.514 310.185C239.514 316.916 254.562 322.374 273.125 322.374Z" fill="#1E1E1D"/>
<path opacity="0.731" d="M273.124 321.911C290.958 321.911 305.414 316.661 305.414 310.185C305.414 303.708 290.958 298.458 273.124 298.458C255.291 298.458 240.834 303.708 240.834 310.185C240.834 316.661 255.291 321.911 273.124 321.911Z" fill="#1E1E1D"/>
<path opacity="0.769" d="M273.124 321.431C290.238 321.431 304.111 316.396 304.111 310.185C304.111 303.974 290.238 298.939 273.124 298.939C256.011 298.939 242.137 303.974 242.137 310.185C242.137 316.396 256.011 321.431 273.124 321.431Z" fill="#1E1E1D"/>
<path opacity="0.808" d="M273.125 320.95C289.508 320.95 302.79 316.13 302.79 310.185C302.79 304.239 289.508 299.419 273.125 299.419C256.741 299.419 243.459 304.239 243.459 310.185C243.459 316.13 256.741 320.95 273.125 320.95Z" fill="#1E1E1D"/>
<path opacity="0.846" d="M273.125 320.47C288.779 320.47 301.469 315.865 301.469 310.184C301.469 304.504 288.779 299.899 273.125 299.899C257.471 299.899 244.781 304.504 244.781 310.184C244.781 315.865 257.471 320.47 273.125 320.47Z" fill="#1E1E1D"/>
<path opacity="0.885" d="M273.124 319.989C288.058 319.989 300.165 315.6 300.165 310.185C300.165 304.77 288.058 300.38 273.124 300.38C258.19 300.38 246.083 304.77 246.083 310.185C246.083 315.6 258.19 319.989 273.124 319.989Z" fill="#1E1E1D"/>
<path opacity="0.923" d="M273.124 319.509C287.329 319.509 298.844 315.334 298.844 310.185C298.844 305.035 287.329 300.86 273.124 300.86C258.919 300.86 247.404 305.035 247.404 310.185C247.404 315.334 258.919 319.509 273.124 319.509Z" fill="#1E1E1D"/>
<path opacity="0.962" d="M273.124 319.046C286.599 319.046 297.522 315.079 297.522 310.185C297.522 305.29 286.599 301.323 273.124 301.323C259.649 301.323 248.726 305.29 248.726 310.185C248.726 315.079 259.649 319.046 273.124 319.046Z" fill="#1E1E1D"/>
<path d="M273.125 318.566C285.88 318.566 296.22 314.813 296.22 310.185C296.22 305.556 285.88 301.803 273.125 301.803C260.37 301.803 250.03 305.556 250.03 310.185C250.03 314.813 260.37 318.566 273.125 318.566Z" fill="#1E1E1D"/>
</g>
<path d="M200.671 257.478C200.671 257.478 201.612 261.214 199.151 262.015C197.721 262.478 196.381 261.588 196.381 261.588L190.571 264.24L201.504 274.133C201.504 274.133 202.083 276.642 199.676 276.856C197.25 277.069 196.056 274.614 196.056 274.614C196.056 274.614 187.151 267.14 185.594 267.14C184.037 267.14 176.87 273.92 176.87 273.92C176.87 273.92 176.58 276.304 173.666 277.211C170.752 278.119 169.938 275.005 170.336 274.062C170.734 273.137 180.146 264.133 180.146 264.133L172.761 260.289C172.761 260.289 170.987 260.574 169.069 259.453C167.15 258.332 168.399 255.716 168.399 255.716L184.635 261.001L192.381 260.592L195.295 260.77L200.671 257.478Z" fill="#9297A5"/>
<path d="M190.969 264.773L201.033 272.905C201.811 273.528 201.648 274.738 200.761 275.165L200.327 275.361C199.856 275.574 199.295 275.521 198.879 275.201L187.223 266.126C186.969 265.93 186.662 265.823 186.336 265.841L184.417 265.894C184.11 265.912 183.802 266.019 183.567 266.215L172.87 275.201C172.49 275.521 171.965 275.61 171.494 275.432L171.205 275.325C170.281 274.969 170.028 273.813 170.716 273.119L179.06 264.809C179.512 264.364 179.585 263.67 179.241 263.136L178.463 261.944C178.336 261.748 178.137 261.57 177.92 261.464L169.105 257.157C168.182 256.713 168.073 255.467 168.906 254.862L169.576 254.381C169.974 254.097 170.499 254.043 170.951 254.239L179.114 257.905C179.241 257.958 182.662 259.15 182.806 259.168L186.3 260.04C186.535 260.076 190.173 259.186 190.39 259.079L198.246 255.93C198.734 255.716 199.277 255.805 199.694 256.143L200.2 256.57C200.979 257.211 200.798 258.439 199.856 258.83L191.494 262.175C191.223 262.3 191.006 262.496 190.861 262.745L190.662 263.083C190.318 263.634 190.445 264.346 190.969 264.773Z" fill="url(#paint18_linear_2500_106655)"/>
<path d="M180.545 261.802V262.834C180.545 264.239 182.264 265.396 184.364 265.396C186.464 265.396 188.183 264.257 188.183 262.834V261.802H188.165C187.984 263.101 186.355 264.115 184.364 264.115C182.373 264.115 180.744 263.101 180.545 261.802Z" fill="url(#paint19_linear_2500_106655)"/>
<path d="M180.545 261.553C180.545 261.642 180.545 261.713 180.563 261.802C180.744 263.101 182.373 264.115 184.364 264.115C186.355 264.115 187.984 263.101 188.165 261.802C188.183 261.713 188.183 261.642 188.183 261.553C188.183 260.147 186.464 258.99 184.364 258.99C182.264 258.99 180.545 260.147 180.545 261.553Z" fill="#ADB1BC"/>
<path d="M182.445 254.15V261.392C182.445 262.104 183.314 262.674 184.364 262.674C185.432 262.674 186.282 262.104 186.282 261.392V254.15C186.192 254.809 185.359 255.307 184.364 255.307C183.368 255.307 182.554 254.791 182.445 254.15Z" fill="url(#paint20_linear_2500_106655)"/>
<path d="M182.445 254.026C182.445 254.061 182.445 254.115 182.445 254.15C182.536 254.809 183.368 255.307 184.364 255.307C185.359 255.307 186.192 254.791 186.282 254.15C186.282 254.115 186.282 254.061 186.282 254.026C186.282 253.314 185.413 252.744 184.364 252.744C183.314 252.727 182.445 253.314 182.445 254.026Z" fill="#ADB1BC"/>
<path d="M180.545 247.104V253.065C180.545 254.47 182.264 255.627 184.364 255.627C186.482 255.627 188.183 254.488 188.183 253.065V247.104H188.165C187.984 248.403 186.355 249.417 184.364 249.417C182.373 249.417 180.744 248.403 180.545 247.104Z" fill="url(#paint21_linear_2500_106655)"/>
<path d="M180.545 246.854C180.545 246.943 180.545 247.015 180.563 247.104C180.744 248.403 182.373 249.417 184.364 249.417C186.355 249.417 187.984 248.403 188.165 247.104C188.183 247.015 188.183 246.943 188.183 246.854C188.183 245.449 186.464 244.292 184.364 244.292C182.264 244.292 180.545 245.449 180.545 246.854Z" fill="#ADB1BC"/>
<path d="M180.617 178.614C179.766 178.08 178.68 178.062 177.811 178.56L156.997 190.18C155.512 190.999 154.716 192.654 155.006 194.308L161.395 230.876C162.155 235.111 164.635 238.865 168.273 241.267L195.006 258.563V251.108L184.219 180.838L180.617 178.614Z" fill="url(#paint22_linear_2500_106655)"/>
<path d="M182.065 181.176L162.897 191.746C161.413 192.564 160.617 194.219 160.906 195.874L166.481 226.587C167.241 230.822 169.721 234.577 173.359 236.979L195.024 251.125L222.192 235.573L190.861 216.195L185.902 183.027C185.631 181.247 183.64 180.304 182.065 181.176Z" fill="url(#paint23_linear_2500_106655)"/>
<path d="M225.088 271.517C225.088 271.517 227.278 273.208 229.721 275.041C232.165 276.891 233.034 277.016 230.789 278.368C228.545 279.721 226.97 279.596 224.364 278.368C221.758 277.14 216.563 275.539 216.183 274.133C215.803 272.727 215.676 270.912 215.676 270.912L225.088 271.517Z" fill="#2D2F4F"/>
<path d="M198.626 219.718C198.626 219.718 220.364 227.53 222.481 229.825C224.599 232.121 226.699 273.599 226.699 273.599C226.699 273.599 225.631 274.542 223.368 274.969C221.088 275.397 220.563 274.756 220.563 274.133C220.563 273.848 221.16 255.556 213.051 244.737C203.839 232.406 185.775 227.37 185.775 227.37L198.626 219.718ZM225.088 276.749C225.088 276.749 227.278 278.439 229.721 280.272C232.165 282.123 233.033 282.247 230.789 283.6C228.545 284.952 226.97 284.827 224.364 283.6C221.757 282.372 216.563 280.77 216.183 279.365C215.803 277.959 215.676 276.144 215.676 276.144L225.088 276.749Z" fill="#2D2F4F"/>
<path d="M177.069 224.807C177.069 224.807 176.273 236.267 184.038 239.79C191.803 243.296 210.934 249.915 210.934 249.915C210.934 249.915 210.97 258.314 212.11 264.489C213.251 270.663 215.658 276.144 215.658 276.144C215.658 276.144 217.975 278.51 221.758 277.905C225.54 277.283 225.649 276.055 225.649 276.055C225.649 276.055 220.599 254.951 221.016 247.94C221.432 240.911 190.988 225.964 190.988 225.964L177.069 224.807Z" fill="#383B5B"/>
<path d="M202.12 182.742C202.12 182.742 204.074 184.148 204.346 187.689C204.617 191.23 206.029 204.042 206.029 204.042L217.287 214.291C217.287 214.291 214.681 214.202 214.21 215.839C213.74 217.476 213.378 218.402 213.378 218.402C213.378 218.402 199.423 211.533 198.663 207.245C197.921 202.956 202.12 182.742 202.12 182.742Z" fill="url(#paint24_linear_2500_106655)"/>
<path d="M202.119 182.742C199.187 181.621 193.721 183.133 189.938 184.948C186.155 186.746 174.698 191.835 174.553 193.223C174.427 194.611 175.983 225.092 175.983 225.092C175.983 225.092 182.753 228.954 191.205 225.893C199.658 222.832 198.988 217.103 198.988 217.103C198.988 217.103 204.165 183.525 202.119 182.742Z" fill="url(#paint25_linear_2500_106655)"/>
<path d="M200.002 173.685C200.002 173.685 200.164 178.436 199.802 180.037C199.44 181.639 197.431 186.212 196.382 186.71C195.332 187.226 193.992 186.835 193.992 186.835L194.192 187.262C194.192 187.262 194.137 189.326 190.409 189.379C186.68 189.433 184.544 187.956 184.544 187.956C184.544 187.956 185.902 184.913 185.884 182.012C185.866 179.112 186.753 171.976 189.956 170.998C193.142 170.019 200.002 173.685 200.002 173.685Z" fill="url(#paint26_linear_2500_106655)"/>
<path d="M197.088 174.895C193.323 175.144 191.495 173.969 191.495 173.969C191.495 173.969 192.382 175.607 191.26 176.461C190.137 177.315 190.409 181.105 189.866 181.105C189.323 181.105 189.631 177.706 187.984 177.671C186.336 177.653 186.807 178.578 186.916 179.913C187.042 181.247 187.386 182.119 186.083 182.422C184.78 182.724 182.119 179.076 182.264 175.553C182.409 172.03 184.762 170.98 184.762 170.98C184.762 170.98 183.965 166.407 190.499 166.87C197.051 167.332 199.404 168.916 201.269 167.83C203.151 166.745 204.889 174.396 197.088 174.895Z" fill="#2D2F4F"/>
<path d="M194.083 186.781C194.083 186.781 191.766 186.586 190.807 185.322C189.866 184.059 189.558 183.703 189.558 183.703C189.558 183.703 189.884 185.198 190.897 186.835C191.911 188.472 191.133 189.344 191.133 189.344C191.133 189.344 193.848 189.379 194.083 187.689C194.228 186.657 194.083 186.781 194.083 186.781Z" fill="#B7766E"/>
<path d="M251.242 251.819L270.989 240.965L246.572 227.317L226.826 238.171L251.242 251.819Z" fill="white"/>
<path d="M226.826 238.171L251.242 251.82V252.816L226.826 239.168V238.171Z" fill="#CCC4CC"/>
<path d="M270.988 240.965V241.962L251.242 252.816V251.82L270.988 240.965Z" fill="#E5E5E5"/>
<path d="M247.098 238.741L255.423 234.132L246.862 229.345L238.536 233.954L247.098 238.741Z" fill="#C1C1C1"/>
<path d="M249.251 240.093L257.577 235.484L256.98 235.164L248.654 239.773L249.251 240.093Z" fill="#42A8A8"/>
<path d="M243.894 244.88L259.097 236.445L258.518 236.107L243.314 244.559L243.894 244.88Z" fill="#C1C1C1"/>
<path d="M245.287 245.77L260.491 237.317L259.893 236.997L244.69 245.431L245.287 245.77Z" fill="#C1C1C1"/>
<path d="M246.663 246.641L261.867 238.189L261.287 237.869L246.084 246.303L246.663 246.641Z" fill="#C1C1C1"/>
<path d="M248.057 247.513L263.261 239.079L262.663 238.741L247.478 247.193L248.057 247.513Z" fill="#C1C1C1"/>
<path d="M249.45 248.385L264.636 239.951L264.057 239.613L248.853 248.065L249.45 248.385Z" fill="#C1C1C1"/>
<path d="M250.826 249.275L266.03 240.823L265.432 240.502L250.247 248.937L250.826 249.275Z" fill="#C1C1C1"/>
<path d="M240.021 243.029L245.378 240.075L236.817 235.289L231.459 238.242L240.021 243.029Z" fill="#C1C1C1"/>
<path d="M276.636 295.629V344.474L279.387 342.677V297.978L328.672 270.806V314.971L331.315 313.53V265.414L276.636 295.629Z" fill="url(#paint27_linear_2500_106655)"/>
<path d="M182.391 289.846L182.336 243.492L276.636 295.629V344.474L274.717 343.477V298.974L184.128 249.008V291.145L182.391 289.846Z" fill="url(#paint28_linear_2500_106655)"/>
<path d="M329.451 261.251L242.536 211.907C239.748 210.341 236.328 210.324 233.54 211.872L184.074 239.31C181.848 240.538 181.829 243.688 184.056 244.933L270.989 294.277C274.156 296.056 278.047 296.074 281.233 294.312L329.451 267.568C331.948 266.197 331.948 262.656 329.451 261.251Z" fill="url(#paint29_linear_2500_106655)"/>
<path d="M329.451 258.137L242.536 208.793C239.748 207.227 236.328 207.209 233.54 208.758L184.074 236.196C181.848 237.424 181.829 240.574 184.056 241.819L270.989 291.163C274.156 292.942 278.047 292.96 281.233 291.198L329.451 264.454C331.948 263.083 331.948 259.542 329.451 258.137Z" fill="url(#paint30_linear_2500_106655)"/>
<path d="M235.658 261.001L263.93 277.158C264.618 277.55 265.45 277.532 266.12 277.141L286.971 264.845C287.568 264.489 287.55 263.653 286.953 263.314L258.428 247.015C257.83 246.677 257.106 246.677 256.527 247.033L235.64 259.346C235.025 259.738 235.025 260.645 235.658 261.001Z" fill="#5A5C66"/>
<path d="M235.658 260.521L263.93 276.678C264.618 277.069 265.45 277.052 266.12 276.66L286.971 264.364C287.568 264.008 287.55 263.172 286.953 262.834L258.428 246.534C257.83 246.196 257.106 246.196 256.527 246.552L235.64 258.866C235.025 259.257 235.025 260.165 235.658 260.521Z" fill="#D0D5E2"/>
<path d="M265.034 276.037C264.817 276.037 264.617 275.984 264.436 275.877L236.165 259.72C236.147 259.702 236.147 259.702 236.165 259.685L257.07 247.371C257.215 247.282 257.378 247.246 257.54 247.246C257.703 247.246 257.866 247.282 257.993 247.371L286.446 263.635L265.667 275.877C265.468 275.984 265.251 276.037 265.034 276.037Z" fill="white"/>
<path d="M261.215 252.78L272.943 259.489C273.124 259.596 273.45 259.578 273.631 259.471C273.83 259.346 273.83 259.169 273.631 259.062L261.903 252.353C261.722 252.247 261.396 252.264 261.215 252.371C261.034 252.478 261.016 252.674 261.215 252.78Z" fill="url(#paint31_linear_2500_106655)"/>
<path d="M255.585 252.709L267.477 259.507C267.658 259.613 267.984 259.596 268.165 259.489C268.364 259.364 268.364 259.186 268.165 259.08L256.273 252.282C256.092 252.175 255.766 252.193 255.585 252.3C255.404 252.407 255.404 252.585 255.585 252.709ZM253.558 253.937L265.45 260.734C265.631 260.841 265.957 260.823 266.138 260.717C266.337 260.592 266.337 260.414 266.138 260.307L254.246 253.51C254.065 253.403 253.739 253.421 253.558 253.528C253.377 253.635 253.377 253.83 253.558 253.937ZM251.549 255.165L263.441 261.962C263.622 262.069 263.947 262.051 264.128 261.944C264.328 261.82 264.328 261.642 264.128 261.535L252.237 254.738C252.056 254.631 251.73 254.649 251.549 254.756C251.35 254.88 251.35 255.058 251.549 255.165ZM248.889 257.14L260.78 263.937C260.961 264.044 261.287 264.026 261.468 263.92C261.667 263.795 261.667 263.617 261.468 263.51L249.576 256.713C249.395 256.606 249.07 256.624 248.889 256.731C248.708 256.855 248.708 257.033 248.889 257.14ZM246.879 258.368L258.771 265.165C258.952 265.272 259.278 265.254 259.459 265.147C259.658 265.023 259.658 264.845 259.459 264.738L247.567 257.941C247.386 257.834 247.06 257.852 246.879 257.959C246.68 258.083 246.68 258.261 246.879 258.368ZM244.852 259.613L256.744 266.411C256.925 266.518 257.251 266.5 257.432 266.393C257.631 266.268 257.631 266.091 257.432 265.984L245.54 259.186C245.359 259.08 245.033 259.097 244.852 259.204C244.671 259.311 244.671 259.507 244.852 259.613Z" fill="#AAADAD"/>
<path d="M241.559 203.597L210.518 221.017V247.211L241.559 229.808L242.789 204.202L241.559 203.597Z" fill="#C6C6C6"/>
<path d="M242.79 204.202L211.749 221.605V247.798L242.79 230.395V204.202Z" fill="#EFEFEF"/>
<path d="M211.748 247.798L192.49 235.182L211.748 224.096V247.798Z" fill="#B2B1B1"/>
<path d="M192.49 235.182V236.498L211.748 247.798V221.605L210.517 221.017V246.018L192.49 235.182Z" fill="#C6C6C6"/>
<path d="M210.518 231.765L202.916 236.338L210.518 240.662V231.765Z" fill="#827F7F"/>
<path d="M195.585 232.406C195.585 232.406 197.721 234.061 199.585 233.349C201.449 232.637 202.463 235.626 203.368 235.342C204.273 235.039 204.906 232.69 203.838 231.427C202.771 230.164 198.246 229.132 198.246 229.132C198.246 229.132 195.531 229.932 195.585 232.406Z" fill="url(#paint32_linear_2500_106655)"/>
<path d="M178.336 193.223C174.59 190.981 172.961 192.778 172.888 199.327C172.816 206.569 173.504 219.843 174.535 221.48C175.567 223.135 195.947 233.883 195.947 233.883C195.947 233.883 194.861 231.979 196.454 230.609C198.047 229.239 199.115 228.491 199.115 228.491C199.115 228.491 181.612 219.576 181.902 217.566C182.173 215.537 183.368 196.213 178.336 193.223Z" fill="url(#paint33_linear_2500_106655)"/>
<path d="M207.947 344.225C207.947 344.225 207.893 347.428 210.011 346.912C212.128 346.396 213.558 343.851 213.558 343.851C213.558 343.851 221.703 337.677 222.336 337.819C222.97 337.961 230.898 342.979 230.898 342.979C230.898 342.979 232.744 345.381 235.296 345.666C237.848 345.951 238.391 343.3 238.427 343.175C238.463 343.033 226.174 334.349 226.174 334.349L234.3 330.826C234.3 330.826 236.671 331.288 237.088 329.812C237.504 328.317 235.332 327.16 235.332 327.16L224.201 331.769L209.431 327.427C209.431 327.427 209.069 330.043 210.626 330.737C212.182 331.431 213.558 331.947 213.558 331.947L219.187 335.612L207.947 344.225Z" fill="url(#paint34_linear_2500_106655)"/>
<path d="M217.938 334.491L208.255 343.335C207.802 343.762 207.875 344.492 208.399 344.83L209.485 345.506C209.847 345.737 210.3 345.702 210.626 345.435L221.449 336.716C221.775 336.449 222.246 336.413 222.608 336.644L235.115 344.581C235.404 344.759 235.784 344.776 236.092 344.634L237.992 343.673C238.644 343.335 238.698 342.445 238.083 342.036L226.952 334.74C226.318 334.331 226.391 333.388 227.096 333.086L235.766 329.313C236.418 329.028 236.545 328.192 236.02 327.729L234.879 326.733C234.59 326.484 234.192 326.43 233.848 326.573L223.332 331.004C223.096 331.11 222.825 331.11 222.572 331.004L211.567 326.502C211.314 326.395 211.042 326.413 210.789 326.519L209.956 326.893C209.232 327.213 209.196 328.192 209.866 328.584L217.739 333.032C218.318 333.281 218.409 334.046 217.938 334.491Z" fill="url(#paint35_linear_2500_106655)"/>
<path d="M218.88 331.36V333.602C218.88 334.58 220.436 335.363 222.337 335.363C224.255 335.363 225.794 334.58 225.794 333.602V331.36H218.88Z" fill="url(#paint36_linear_2500_106655)"/>
<path d="M222.337 332.872C224.246 332.872 225.794 332.083 225.794 331.11C225.794 330.137 224.246 329.349 222.337 329.349C220.427 329.349 218.88 330.137 218.88 331.11C218.88 332.083 220.427 332.872 222.337 332.872Z" fill="url(#paint37_linear_2500_106655)"/>
<path d="M219.911 323.406V330.968C219.911 331.644 220.997 332.196 222.337 332.196C223.676 332.196 224.762 331.644 224.762 330.968V323.406H219.911Z" fill="url(#paint38_linear_2500_106655)"/>
<path d="M222.337 324.455C223.676 324.455 224.762 323.906 224.762 323.228C224.762 322.55 223.676 322 222.337 322C220.997 322 219.911 322.55 219.911 323.228C219.911 323.906 220.997 324.455 222.337 324.455Z" fill="url(#paint39_linear_2500_106655)"/>
<path d="M218.88 314.135V324.954C218.88 325.932 220.436 326.715 222.337 326.715C224.237 326.715 225.794 325.932 225.794 324.954V314.135H218.88Z" fill="url(#paint40_linear_2500_106655)"/>
<path d="M222.337 315.647C224.246 315.647 225.794 314.858 225.794 313.886C225.794 312.913 224.246 312.124 222.337 312.124C220.427 312.124 218.88 312.913 218.88 313.886C218.88 314.858 220.427 315.647 222.337 315.647Z" fill="url(#paint41_linear_2500_106655)"/>
<path d="M240.491 320.434C240.491 320.434 239.423 323.281 239.893 323.993C240.346 324.722 244.871 327.071 247.459 323.441C250.047 319.811 251.151 316.27 250.554 314.829C249.957 313.37 247.731 313.37 246.536 314.473C245.323 315.558 240.491 320.434 240.491 320.434Z" fill="url(#paint42_linear_2500_106655)"/>
<path d="M253.016 322.943C253.016 322.943 252.4 326.982 253.016 327.801C253.631 328.619 256.581 330.879 258.428 330.061C260.274 329.242 272.437 323.156 273.269 321.982C274.102 320.808 271.785 318.263 267.64 318.993C263.495 319.722 260.455 319.811 260.455 319.811L253.016 322.943Z" fill="url(#paint43_linear_2500_106655)"/>
<path d="M230.844 288.297C230.844 288.297 240.02 283.475 244.708 283.796C249.396 284.116 248.98 288.404 249.287 291.981C249.613 295.54 247.586 317.16 247.586 317.16C247.586 317.16 248.219 319.882 245.559 320.63C242.898 321.359 239.93 320.63 240.075 320.007C240.219 319.384 239.676 294.953 239.676 294.953L228.364 299.971L230.844 288.297Z" fill="url(#paint44_linear_2500_106655)"/>
<path d="M250.084 307.266L221.758 289.881C221.758 289.881 225.505 317.284 231.17 318.441C236.835 319.597 250.084 307.266 250.084 307.266Z" fill="url(#paint45_linear_2500_106655)"/>
<path d="M226.645 239.88C226.645 239.88 226.826 243.777 226.645 244.542C226.464 245.325 226.464 245.325 226.464 245.325C226.464 245.325 226.826 247.104 226.717 247.851C226.591 248.599 226.03 252.585 225.469 253.154C224.926 253.724 221.758 253.635 221.758 253.635V255.912H213.143C213.143 255.912 214.373 249.613 214.337 249.293C214.301 248.955 212.183 243.563 213.143 240.823C214.102 238.082 225.324 236.552 226.645 239.88Z" fill="url(#paint46_linear_2500_106655)"/>
<path d="M227.169 238.242C227.169 238.242 227.513 240.538 225.848 241.054C224.183 241.57 224.744 244.559 224.092 244.986C223.441 245.413 224.002 247.193 223.603 247.46C223.205 247.727 222.68 245.289 221.576 245.289C220.472 245.289 220.526 246.837 221.088 248.065C221.667 249.275 220.816 251.303 218.934 251.303C217.033 251.303 214.499 251.179 213.558 250.075C212.635 248.972 210.354 245.342 210.698 242.78C211.042 240.235 211.893 239.328 211.893 239.328C211.893 239.328 212.291 235.484 216.418 235.004C220.545 234.523 224.78 236.249 226.047 236.249C227.35 236.249 227.169 238.242 227.169 238.242Z" fill="#2D2F4F"/>
<path d="M208.563 301.127C208.563 301.127 209.522 308.957 213.595 311.181C217.667 313.405 223.206 313.814 225.685 315.38C228.165 316.946 239.133 309.615 245.215 306.875C251.296 304.134 251.296 304.134 251.296 304.134C251.296 304.134 250.898 307.017 252.093 314.455C253.287 321.911 253.016 322.943 253.016 322.943C253.016 322.943 256.075 324.633 259.26 323.726C262.446 322.818 262.319 321.413 262.319 321.413C262.319 321.413 264.799 292.479 260.69 289.863C256.563 287.248 248.093 291.429 240.527 293.921C232.708 296.501 233.07 296.91 233.07 296.91L208.563 301.127Z" fill="url(#paint47_linear_2500_106655)"/>
<path d="M233.341 295.753C233.341 295.753 232.509 266.713 230.409 264.026C228.31 261.339 222.934 259.613 222.934 259.613L222.572 255.965L213.595 251.926L210.264 253.118C210.264 253.118 205.776 250.396 204.961 250.947C204.147 251.481 200.672 251.73 201.866 268.101C203.043 284.472 206.427 299.081 206.427 299.081C206.427 299.081 211.749 306.181 222.301 304.205C232.871 302.212 233.341 295.753 233.341 295.753Z" fill="url(#paint48_linear_2500_106655)"/>
<path d="M226.59 321.27L199.622 306.199C197.214 304.828 195.513 302.497 195.006 299.81L190.662 271.162C190.318 269.329 192.219 267.87 193.938 268.671C201.721 272.301 218.029 280.326 220.183 284.881C222.337 289.436 224.78 307.978 225.83 316.644C226.065 318.512 228.237 322.196 226.59 321.27Z" fill="url(#paint49_linear_2500_106655)"/>
<path d="M192.327 268.279L216.165 282.621C218.518 284.027 220.074 286.429 220.418 289.116L223.984 317.391C224.454 321.146 228.69 323.174 231.984 321.252L249.613 310.985C250.192 310.647 250.554 310.024 250.554 309.366V308.209C250.554 307.248 249.504 306.643 248.654 307.124L233.902 315.273C231.64 316.519 228.798 315.131 228.472 312.587L225.196 287.443C224.726 283.884 222.662 280.717 219.549 278.831L198.916 266.286C198.065 265.77 196.997 265.752 196.128 266.215L192.327 268.279Z" fill="url(#paint50_linear_2500_106655)"/>
<path d="M254.174 266.037C254.174 266.037 256.799 261.179 257.378 260.734C257.957 260.289 262.862 257.264 262.862 257.264C262.862 257.264 263.713 258.67 262.898 259.257C262.084 259.844 259.55 261.695 259.55 261.695C259.55 261.695 261.233 264.845 260.817 266.09C260.401 267.336 257.342 270.663 257.342 270.663C257.342 270.663 255.188 266.873 254.174 266.037Z" fill="url(#paint51_linear_2500_106655)"/>
<path d="M226.138 262.71C223.115 264.008 221.197 268.475 226.808 273.261C232.437 278.048 237.143 281.144 241.052 280.415C244.962 279.703 258.555 270.984 258.555 270.984C258.555 270.984 258.971 269.631 257.288 267.443C255.586 265.254 253.686 265.254 253.686 265.254C253.686 265.254 242.609 272.674 240.238 271.518C237.867 270.379 229.849 261.126 226.138 262.71Z" fill="url(#paint52_linear_2500_106655)"/>
<path d="M157.214 100.177L199.277 75.8165C201.305 74.6599 203.839 76.0834 203.839 78.3967V113.006C203.839 114.804 202.861 116.476 201.268 117.384L157.558 142.705C155.621 143.826 153.177 142.438 153.177 140.232V107.099C153.177 104.252 154.716 101.618 157.214 100.177Z" fill="url(#paint53_linear_2500_106655)"/>
<path d="M203.349 77.3823L161.286 101.743C158.788 103.184 157.25 105.817 157.25 108.665V141.797C157.25 144.004 159.693 145.392 161.63 144.271L166.498 141.459V157.545L180.761 133.221L205.359 118.985C206.951 118.078 207.929 116.405 207.929 114.608V79.998C207.911 77.6492 205.377 76.2256 203.349 77.3823Z" fill="url(#paint54_linear_2500_106655)"/>
<path d="M200.634 91.3507L175.639 105.604C175.023 105.96 174.516 105.746 174.516 105.141V104.839C174.516 104.234 175.023 103.451 175.639 103.095L200.634 88.8418C201.25 88.4859 201.757 88.6994 201.757 89.3044V89.6069C201.757 90.2119 201.25 90.9949 200.634 91.3507ZM200.634 97.0983L168.417 115.533C167.801 115.889 167.295 115.675 167.295 115.07V114.768C167.295 114.163 167.801 113.38 168.417 113.024L200.634 94.5893C201.25 94.2334 201.757 94.4469 201.757 95.0519V95.3544C201.757 95.9594 201.25 96.7424 200.634 97.0983ZM200.634 102.828L168.417 121.263C167.801 121.619 167.295 121.405 167.295 120.8V120.498C167.295 119.893 167.801 119.11 168.417 118.754L200.634 100.319C201.25 99.9632 201.757 100.177 201.757 100.782V101.084C201.757 101.707 201.25 102.49 200.634 102.828ZM191.132 115.053L168.417 128.131C167.801 128.487 167.295 128.274 167.295 127.669V127.366C167.295 126.761 167.801 125.978 168.417 125.622L191.132 112.544C191.747 112.188 192.254 112.401 192.254 113.006V113.309C192.272 113.914 191.765 114.715 191.132 115.053Z" fill="#FEFFFF"/>
<path d="M162.878 143.541V155.784L166.498 157.528V141.442L162.878 143.541Z" fill="url(#paint55_linear_2500_106655)"/>
<path d="M342.212 159.485V168.311C342.212 170.767 339.334 172.137 337.361 170.624L331.243 165.873C329.741 164.699 328.854 162.919 328.854 161.051V151.531C329.144 152.439 329.705 153.239 330.483 153.827L337.795 159.521C339.207 160.588 341.017 160.428 342.212 159.485Z" fill="#7E8282"/>
<path d="M355.261 137.563C355.261 142.171 353.415 145.268 350.429 146.602C349.94 146.816 349.433 146.994 348.908 147.1C348.293 147.243 347.623 147.314 346.935 147.332H346.917C345.614 147.349 344.564 148.382 344.564 149.663V152.332C344.564 153.613 343.967 154.681 343.08 155.375C341.723 156.442 339.677 156.638 338.103 155.392L329.831 148.969C328.962 148.293 328.329 147.385 327.985 146.371C327.804 145.837 327.713 145.268 327.713 144.698V136.317C327.713 135.819 327.551 135.338 327.243 134.929C326.989 134.591 326.736 134.253 326.483 133.897C325.94 133.15 325.433 132.385 324.962 131.602C321.958 126.744 320.13 121.477 320.13 116.868C320.13 107.33 327.985 104.252 337.686 109.964C342.772 112.971 347.37 117.793 350.573 123.096C353.505 127.883 355.261 133.043 355.261 137.563Z" fill="url(#paint56_linear_2500_106655)"/>
<path d="M343.081 155.374V165.339C343.081 168.115 339.823 169.663 337.615 167.955L330.701 162.599C328.999 161.282 328.004 159.271 328.004 157.136V146.371C328.329 147.385 328.963 148.292 329.85 148.969L338.121 155.392C339.678 156.638 341.723 156.46 343.081 155.374Z" fill="#AAADAD"/>
<path d="M331.532 150.286V125.089C331.532 123.915 333.161 123.576 333.65 124.644L335.55 128.879L338.175 126.886C339.062 126.21 340.347 126.833 340.347 127.936V156.247" stroke="white" stroke-width="0.733333" stroke-miterlimit="10"/>
<path d="M338.103 157.51L329.832 151.086C328.963 150.41 328.329 149.503 327.985 148.488V151.051C328.311 152.065 328.945 152.972 329.832 153.649L338.103 160.072C339.678 161.3 341.723 161.122 343.08 160.055V157.492C341.723 158.56 339.678 158.738 338.103 157.51Z" fill="#7E8282"/>
<path d="M338.103 162.172L329.832 155.748C328.963 155.072 328.329 154.165 327.985 153.15V155.713C328.311 156.727 328.945 157.635 329.832 158.311L338.103 164.734C339.678 165.962 341.723 165.784 343.08 164.717V162.154C341.723 163.222 339.678 163.4 338.103 162.172Z" fill="#7E8282"/>
<path d="M397.053 53.485C396.981 53.3604 396.89 53.2181 396.818 53.0757C393.524 47.6307 388.8 42.6483 383.551 39.5521C377.523 36.0111 372.202 35.7619 368.908 38.2709L364.401 41.2781L366.555 41.2248C365.849 42.7017 365.469 44.5167 365.469 46.652C365.469 51.4031 367.351 56.8303 370.446 61.8305C370.935 62.6312 371.46 63.432 372.021 64.1971C373.976 66.9552 376.275 69.4998 378.809 71.6707C379.949 72.6494 381.107 73.5391 382.338 74.322C382.609 74.5 382.881 74.6779 383.152 74.8381C383.279 74.927 383.424 74.9982 383.569 75.0872C383.713 75.1583 383.84 75.2473 383.985 75.3185C384.256 75.4786 384.528 75.621 384.799 75.7633C387.442 77.1513 389.94 77.8809 392.148 78.0054C392.474 78.0232 392.781 78.0232 393.089 78.0232C393.795 78.0054 393.089 79.5001 393.723 79.3578C394.284 79.2332 396.8 77.7207 397.288 77.5072C400.365 76.137 401.65 72.7205 401.65 67.9695C401.614 63.4675 399.895 58.3072 397.053 53.485Z" fill="#7DAD28"/>
<path d="M392.456 55.9939C389.161 50.5489 384.437 45.5665 379.189 42.4703C369.216 36.5804 361.107 39.7656 361.107 49.588C361.107 54.3391 362.989 59.7663 366.084 64.7665C366.573 65.5672 367.098 66.368 367.659 67.1331C369.614 69.8912 371.912 72.4358 374.446 74.6067C375.587 75.5854 376.745 76.4751 377.976 77.258C378.247 77.436 378.519 77.6139 378.79 77.7741C378.917 77.863 379.062 77.9342 379.207 78.0232C379.351 78.0944 379.478 78.1833 379.623 78.2545C379.894 78.4147 380.166 78.557 380.437 78.6994C383.46 80.2831 386.284 81.0126 388.709 80.9592C389.415 80.9414 390.085 80.8703 390.736 80.7279C391.297 80.6034 391.804 80.4254 392.311 80.2119C395.388 78.8417 397.288 75.6566 397.288 70.9055C397.252 66.2434 395.442 60.9229 392.456 55.9939Z" fill="#8CC440"/>
<path d="M379.189 50.709C373.325 47.4171 368.583 49.41 368.583 55.1754C368.583 60.9407 373.325 68.2719 379.189 71.5639C385.053 74.8558 389.796 72.8628 389.796 67.0975C389.796 61.3322 385.035 54.001 379.189 50.709ZM383.388 71.5283C384.529 71.0834 385.234 69.9802 385.234 68.2897C385.234 65.4426 383.189 61.9016 380.456 59.8019C381.47 59.9086 382.194 59.2858 382.194 58.1114C382.194 56.4921 380.854 54.4102 379.207 53.4849C377.56 52.5596 376.221 53.1112 376.221 54.7483C376.221 55.9227 376.927 57.3463 377.958 58.3961C375.225 57.4352 373.18 58.663 373.18 61.5279C373.18 63.2006 373.886 65.1046 375.026 66.8306C372.076 63.6632 370.049 59.4994 370.049 56.0117C370.049 51.0293 374.157 49.2855 379.225 52.1504C384.293 55.0152 388.402 61.35 388.402 66.3501C388.366 69.8022 386.339 71.6884 383.388 71.5283Z" fill="white"/>
<path d="M439.913 110.195C439.823 110.035 439.732 109.875 439.624 109.715C435.714 103.255 430.121 97.3476 423.913 93.6998C416.782 89.5003 410.465 89.1978 406.574 92.1873L401.234 95.7461L403.786 95.6927C402.954 97.4544 402.501 99.6075 402.501 102.134C402.501 107.757 404.745 114.181 408.402 120.106C408.981 121.049 409.596 121.993 410.266 122.918C412.583 126.174 415.316 129.217 418.302 131.762C419.642 132.918 421.035 133.968 422.465 134.911C422.791 135.125 423.099 135.32 423.424 135.534C423.587 135.641 423.75 135.73 423.913 135.819C424.076 135.908 424.239 136.014 424.402 136.103C424.728 136.281 425.035 136.459 425.361 136.637C428.492 138.274 431.443 139.146 434.067 139.289C434.447 139.306 434.809 139.324 435.171 139.306C436.004 139.289 435.171 141.05 435.931 140.872C436.583 140.73 439.569 138.933 440.167 138.666C443.823 137.047 445.325 132.989 445.325 127.366C445.343 122.01 443.298 115.889 439.913 110.195Z" fill="url(#paint57_linear_2500_106655)"/>
<path d="M434.465 113.149C430.556 106.69 424.963 100.782 418.755 97.1341C406.936 90.1588 397.343 93.9312 397.343 105.569C397.343 111.192 399.587 117.615 403.243 123.541C403.822 124.484 404.438 125.427 405.108 126.352C407.424 129.609 410.157 132.651 413.144 135.196C414.483 136.353 415.877 137.402 417.307 138.346C417.633 138.559 417.94 138.755 418.266 138.968C418.429 139.075 418.592 139.164 418.755 139.253C418.918 139.342 419.081 139.449 419.243 139.538C419.569 139.716 419.877 139.894 420.203 140.072C423.786 141.94 427.117 142.812 430.013 142.759C430.845 142.741 431.642 142.652 432.402 142.474C433.053 142.331 433.669 142.118 434.266 141.851C437.922 140.232 440.167 136.442 440.167 130.836C440.167 125.285 438.013 118.985 434.465 113.149Z" fill="#8CC440"/>
<path d="M404.89 111.423C404.89 111.423 408.853 114.679 410.591 119.092C412.329 123.505 413.016 127.278 413.016 127.278C413.016 127.278 417.777 123.897 423.243 122.349C428.709 120.8 430.066 121.334 430.066 121.334L430.302 112.864C430.302 112.864 425.342 113.202 421.342 115.409C417.36 117.615 415.206 119.199 415.206 119.199C415.206 119.199 414.989 115.462 413.487 112.864C411.985 110.266 411.134 108.985 411.134 108.985L404.89 111.423Z" fill="white"/>
<path d="M418.321 286.714L402.646 277.336V350.079L418.321 359.457V286.714Z" fill="url(#paint58_linear_2500_106655)"/>
<path d="M418.322 286.82L432.276 278.724V351.449L418.322 359.563V286.82Z" fill="url(#paint59_linear_2500_106655)"/>
<path d="M418.321 286.82L402.646 277.336L416.601 269.258L432.276 278.742L418.321 286.82Z" fill="url(#paint60_linear_2500_106655)"/>
<path d="M397.524 315.647L381.85 306.287V361.894L397.524 371.272V315.647Z" fill="url(#paint61_linear_2500_106655)"/>
<path d="M397.524 315.772L411.497 307.658V363.282L397.524 371.379V315.772Z" fill="url(#paint62_linear_2500_106655)"/>
<path d="M397.524 315.772L381.85 306.288L395.823 298.209L411.497 307.693L397.524 315.772Z" fill="url(#paint63_linear_2500_106655)"/>
<path d="M376.311 339.758L360.637 330.399V374.244L376.311 383.603V339.758Z" fill="url(#paint64_linear_2500_106655)"/>
<path d="M376.311 339.883L390.284 331.769V375.614L376.311 383.728V339.883Z" fill="url(#paint65_linear_2500_106655)"/>
<path d="M376.311 339.883L360.637 330.399L374.61 322.32L390.284 331.804L376.311 339.883Z" fill="url(#paint66_linear_2500_106655)"/>
<path d="M355.605 371.912L339.931 362.535V386.682L355.605 396.059V371.912Z" fill="url(#paint67_linear_2500_106655)"/>
<path d="M355.605 372.019L369.56 363.923V388.07L355.605 396.166V372.019Z" fill="url(#paint68_linear_2500_106655)"/>
<path d="M355.605 372.019L339.931 362.535L353.886 354.456L369.56 363.941L355.605 372.019Z" fill="url(#paint69_linear_2500_106655)"/>
<defs>
<linearGradient id="paint0_linear_2500_106655" x1="337.206" y1="200.744" x2="344.681" y2="103.789" gradientUnits="userSpaceOnUse">
<stop stop-color="#454C5B"/>
<stop offset="1" stop-color="#7D838C"/>
</linearGradient>
<linearGradient id="paint1_linear_2500_106655" x1="344.23" y1="57.2573" x2="331.9" y2="202.218" gradientUnits="userSpaceOnUse">
<stop stop-color="#3A4151"/>
<stop offset="1" stop-color="#272735"/>
</linearGradient>
<linearGradient id="paint2_linear_2500_106655" x1="339.12" y1="55.6724" x2="328.172" y2="184.395" gradientUnits="userSpaceOnUse">
<stop stop-color="#38ACA8"/>
<stop offset="1" stop-color="#5F637A"/>
</linearGradient>
<linearGradient id="paint3_linear_2500_106655" x1="255.324" y1="77.4126" x2="278.052" y2="77.4126" gradientUnits="userSpaceOnUse">
<stop stop-color="#FFAC06"/>
<stop offset="1" stop-color="#F66C1E"/>
</linearGradient>
<linearGradient id="paint4_linear_2500_106655" x1="256.871" y1="65.8554" x2="277.704" y2="65.8554" gradientUnits="userSpaceOnUse">
<stop stop-color="#3A4151"/>
<stop offset="1" stop-color="#272735"/>
</linearGradient>
<linearGradient id="paint5_linear_2500_106655" x1="256.272" y1="66.3047" x2="277.104" y2="66.3047" gradientUnits="userSpaceOnUse">
<stop stop-color="#38ACA8"/>
<stop offset="1" stop-color="#5F637A"/>
</linearGradient>
<linearGradient id="paint6_linear_2500_106655" x1="230.297" y1="293.369" x2="290.01" y2="291.633" gradientUnits="userSpaceOnUse">
<stop stop-color="#5C5F69"/>
<stop offset="1" stop-color="#888C94"/>
</linearGradient>
<linearGradient id="paint7_linear_2500_106655" x1="230.297" y1="293.011" x2="290.01" y2="291.275" gradientUnits="userSpaceOnUse">
<stop stop-color="#DADCDE"/>
<stop offset="1" stop-color="#A4A8AF"/>
</linearGradient>
<linearGradient id="paint8_linear_2500_106655" x1="270.048" y1="221.457" x2="201.037" y2="348.37" gradientUnits="userSpaceOnUse">
<stop stop-color="#EEEFF0"/>
<stop offset="1" stop-color="#F5F6F7"/>
</linearGradient>
<linearGradient id="paint9_linear_2500_106655" x1="233.437" y1="307.071" x2="233.437" y2="362.567" gradientUnits="userSpaceOnUse">
<stop stop-color="#EEEFF0"/>
<stop offset="1" stop-color="white"/>
</linearGradient>
<linearGradient id="paint10_linear_2500_106655" x1="340.016" y1="202.122" x2="341.212" y2="209.909" gradientUnits="userSpaceOnUse">
<stop stop-color="#FFAC06"/>
<stop offset="1" stop-color="#F66C1E"/>
</linearGradient>
<linearGradient id="paint11_linear_2500_106655" x1="376.601" y1="218.917" x2="358.794" y2="218.665" gradientUnits="userSpaceOnUse">
<stop stop-color="#C6C9D4"/>
<stop offset="1" stop-color="#F4F5F7"/>
</linearGradient>
<linearGradient id="paint12_linear_2500_106655" x1="353.677" y1="226.926" x2="375.713" y2="226.926" gradientUnits="userSpaceOnUse">
<stop stop-color="#EDB55D"/>
<stop offset="1" stop-color="#DA8839"/>
</linearGradient>
<linearGradient id="paint13_linear_2500_106655" x1="367.396" y1="220.74" x2="391.262" y2="221.369" gradientUnits="userSpaceOnUse">
<stop stop-color="#FFAC06"/>
<stop offset="1" stop-color="#F66C1E"/>
</linearGradient>
<linearGradient id="paint14_linear_2500_106655" x1="363.19" y1="237.306" x2="353.583" y2="237.306" gradientUnits="userSpaceOnUse">
<stop stop-color="#B26F67"/>
<stop offset="1" stop-color="#E7B8B6"/>
</linearGradient>
<linearGradient id="paint15_linear_2500_106655" x1="373.01" y1="189.015" x2="357.37" y2="189.015" gradientUnits="userSpaceOnUse">
<stop stop-color="#B26F67"/>
<stop offset="1" stop-color="#E7B8B6"/>
</linearGradient>
<linearGradient id="paint16_linear_2500_106655" x1="322.525" y1="190.495" x2="312.254" y2="190.495" gradientUnits="userSpaceOnUse">
<stop stop-color="#B26F67"/>
<stop offset="1" stop-color="#E7B8B6"/>
</linearGradient>
<linearGradient id="paint17_linear_2500_106655" x1="213.527" y1="217.377" x2="221.268" y2="217.377" gradientUnits="userSpaceOnUse">
<stop stop-color="#B26F67"/>
<stop offset="1" stop-color="#E7B8B6"/>
</linearGradient>
<linearGradient id="paint18_linear_2500_106655" x1="201.52" y1="264.837" x2="168.351" y2="264.837" gradientUnits="userSpaceOnUse">
<stop stop-color="#C6C9D4"/>
<stop offset="1" stop-color="#F4F5F7"/>
</linearGradient>
<linearGradient id="paint19_linear_2500_106655" x1="188.195" y1="263.601" x2="180.546" y2="263.601" gradientUnits="userSpaceOnUse">
<stop stop-color="#C6C9D4"/>
<stop offset="1" stop-color="#F4F5F7"/>
</linearGradient>
<linearGradient id="paint20_linear_2500_106655" x1="186.294" y1="258.406" x2="182.446" y2="258.406" gradientUnits="userSpaceOnUse">
<stop stop-color="#C6C9D4"/>
<stop offset="1" stop-color="#F4F5F7"/>
</linearGradient>
<linearGradient id="paint21_linear_2500_106655" x1="188.195" y1="251.364" x2="180.546" y2="251.364" gradientUnits="userSpaceOnUse">
<stop stop-color="#C6C9D4"/>
<stop offset="1" stop-color="#F4F5F7"/>
</linearGradient>
<linearGradient id="paint22_linear_2500_106655" x1="154.951" y1="218.388" x2="195.017" y2="218.388" gradientUnits="userSpaceOnUse">
<stop stop-color="#878AA0"/>
<stop offset="0.99" stop-color="#B7BCBC"/>
</linearGradient>
<linearGradient id="paint23_linear_2500_106655" x1="160.842" y1="215.977" x2="222.181" y2="215.977" gradientUnits="userSpaceOnUse">
<stop stop-color="#72758D"/>
<stop offset="0.99" stop-color="#383B5B"/>
</linearGradient>
<linearGradient id="paint24_linear_2500_106655" x1="208.653" y1="200.542" x2="199.806" y2="200.898" gradientUnits="userSpaceOnUse">
<stop stop-color="#38ACA8"/>
<stop offset="1" stop-color="#5F637A"/>
</linearGradient>
<linearGradient id="paint25_linear_2500_106655" x1="202.133" y1="203.255" x2="176.138" y2="207.261" gradientUnits="userSpaceOnUse">
<stop stop-color="#38ACA8"/>
<stop offset="1" stop-color="#5F637A"/>
</linearGradient>
<linearGradient id="paint26_linear_2500_106655" x1="184.524" y1="180.109" x2="200.03" y2="180.109" gradientUnits="userSpaceOnUse">
<stop stop-color="#B26F67"/>
<stop offset="1" stop-color="#E7B8B6"/>
</linearGradient>
<linearGradient id="paint27_linear_2500_106655" x1="276.638" y1="304.944" x2="331.323" y2="304.944" gradientUnits="userSpaceOnUse">
<stop stop-color="#B7B2B2"/>
<stop offset="0.995" stop-color="#D1CECF"/>
</linearGradient>
<linearGradient id="paint28_linear_2500_106655" x1="182.329" y1="293.982" x2="276.638" y2="293.982" gradientUnits="userSpaceOnUse">
<stop stop-color="#C6C9D4"/>
<stop offset="1" stop-color="#F4F5F7"/>
</linearGradient>
<linearGradient id="paint29_linear_2500_106655" x1="318.946" y1="274.922" x2="207.488" y2="234.461" gradientUnits="userSpaceOnUse">
<stop stop-color="#C6C9D4"/>
<stop offset="1" stop-color="#F4F5F7"/>
</linearGradient>
<linearGradient id="paint30_linear_2500_106655" x1="182.394" y1="250.074" x2="331.323" y2="250.074" gradientUnits="userSpaceOnUse">
<stop stop-color="#C6C9D4"/>
<stop offset="1" stop-color="#F4F5F7"/>
</linearGradient>
<linearGradient id="paint31_linear_2500_106655" x1="261.072" y1="255.908" x2="273.785" y2="255.908" gradientUnits="userSpaceOnUse">
<stop stop-color="#FFAC06"/>
<stop offset="1" stop-color="#F25227"/>
</linearGradient>
<linearGradient id="paint32_linear_2500_106655" x1="195.584" y1="232.238" x2="204.406" y2="232.238" gradientUnits="userSpaceOnUse">
<stop stop-color="#B26F67"/>
<stop offset="1" stop-color="#E7B8B6"/>
</linearGradient>
<linearGradient id="paint33_linear_2500_106655" x1="184.306" y1="213.496" x2="172.34" y2="217.138" gradientUnits="userSpaceOnUse">
<stop stop-color="#38ACA8"/>
<stop offset="1" stop-color="#5F637A"/>
</linearGradient>
<linearGradient id="paint34_linear_2500_106655" x1="207.951" y1="337.048" x2="238.432" y2="337.048" gradientUnits="userSpaceOnUse">
<stop stop-color="#454C5B"/>
<stop offset="1" stop-color="#7D838C"/>
</linearGradient>
<linearGradient id="paint35_linear_2500_106655" x1="207.951" y1="336.02" x2="238.501" y2="336.02" gradientUnits="userSpaceOnUse">
<stop stop-color="#DADCDE"/>
<stop offset="1" stop-color="#A4A8AF"/>
</linearGradient>
<linearGradient id="paint36_linear_2500_106655" x1="218.875" y1="333.371" x2="225.799" y2="333.371" gradientUnits="userSpaceOnUse">
<stop stop-color="#DADCDE"/>
<stop offset="1" stop-color="#A4A8AF"/>
</linearGradient>
<linearGradient id="paint37_linear_2500_106655" x1="218.875" y1="331.111" x2="225.799" y2="331.111" gradientUnits="userSpaceOnUse">
<stop stop-color="#454C5B"/>
<stop offset="1" stop-color="#7D838C"/>
</linearGradient>
<linearGradient id="paint38_linear_2500_106655" x1="219.919" y1="327.801" x2="224.756" y2="327.801" gradientUnits="userSpaceOnUse">
<stop stop-color="#DADCDE"/>
<stop offset="1" stop-color="#A4A8AF"/>
</linearGradient>
<linearGradient id="paint39_linear_2500_106655" x1="219.919" y1="323.227" x2="224.756" y2="323.227" gradientUnits="userSpaceOnUse">
<stop stop-color="#DADCDE"/>
<stop offset="1" stop-color="#A4A8AF"/>
</linearGradient>
<linearGradient id="paint40_linear_2500_106655" x1="218.875" y1="320.427" x2="225.799" y2="320.427" gradientUnits="userSpaceOnUse">
<stop stop-color="#DADCDE"/>
<stop offset="1" stop-color="#A4A8AF"/>
</linearGradient>
<linearGradient id="paint41_linear_2500_106655" x1="218.875" y1="313.879" x2="225.799" y2="313.879" gradientUnits="userSpaceOnUse">
<stop stop-color="#DADCDE"/>
<stop offset="1" stop-color="#A4A8AF"/>
</linearGradient>
<linearGradient id="paint42_linear_2500_106655" x1="239.769" y1="319.553" x2="250.7" y2="319.553" gradientUnits="userSpaceOnUse">
<stop stop-color="#3A4151"/>
<stop offset="1" stop-color="#272735"/>
</linearGradient>
<linearGradient id="paint43_linear_2500_106655" x1="252.738" y1="324.556" x2="273.437" y2="324.556" gradientUnits="userSpaceOnUse">
<stop stop-color="#3A4151"/>
<stop offset="1" stop-color="#272735"/>
</linearGradient>
<linearGradient id="paint44_linear_2500_106655" x1="228.392" y1="302.345" x2="249.34" y2="302.345" gradientUnits="userSpaceOnUse">
<stop stop-color="#3A4151"/>
<stop offset="1" stop-color="#272735"/>
</linearGradient>
<linearGradient id="paint45_linear_2500_106655" x1="221.754" y1="304.188" x2="250.078" y2="304.188" gradientUnits="userSpaceOnUse">
<stop stop-color="#454C5B"/>
<stop offset="1" stop-color="#7D838C"/>
</linearGradient>
<linearGradient id="paint46_linear_2500_106655" x1="212.886" y1="246.957" x2="226.744" y2="246.957" gradientUnits="userSpaceOnUse">
<stop stop-color="#B26F67"/>
<stop offset="1" stop-color="#E7B8B6"/>
</linearGradient>
<linearGradient id="paint47_linear_2500_106655" x1="208.563" y1="306.52" x2="263.055" y2="306.52" gradientUnits="userSpaceOnUse">
<stop stop-color="#3A4151"/>
<stop offset="1" stop-color="#272735"/>
</linearGradient>
<linearGradient id="paint48_linear_2500_106655" x1="233.743" y1="266.664" x2="207.5" y2="282.317" gradientUnits="userSpaceOnUse">
<stop stop-color="#FFAC06"/>
<stop offset="1" stop-color="#F66C1E"/>
</linearGradient>
<linearGradient id="paint49_linear_2500_106655" x1="203.076" y1="311.014" x2="216.752" y2="274.057" gradientUnits="userSpaceOnUse">
<stop stop-color="#454C5B"/>
<stop offset="1" stop-color="#7D838C"/>
</linearGradient>
<linearGradient id="paint50_linear_2500_106655" x1="192.32" y1="293.937" x2="250.54" y2="293.937" gradientUnits="userSpaceOnUse">
<stop stop-color="#DADCDE"/>
<stop offset="1" stop-color="#A4A8AF"/>
</linearGradient>
<linearGradient id="paint51_linear_2500_106655" x1="255.051" y1="262.697" x2="261.761" y2="264.436" gradientUnits="userSpaceOnUse">
<stop stop-color="#B26F67"/>
<stop offset="1" stop-color="#E7B8B6"/>
</linearGradient>
<linearGradient id="paint52_linear_2500_106655" x1="249.029" y1="262.312" x2="232.009" y2="274.177" gradientUnits="userSpaceOnUse">
<stop stop-color="#FFAC06"/>
<stop offset="1" stop-color="#F66C1E"/>
</linearGradient>
<linearGradient id="paint53_linear_2500_106655" x1="153.174" y1="109.253" x2="203.839" y2="109.253" gradientUnits="userSpaceOnUse">
<stop stop-color="#3A4151"/>
<stop offset="1" stop-color="#272735"/>
</linearGradient>
<linearGradient id="paint54_linear_2500_106655" x1="178.775" y1="90.5019" x2="187.35" y2="137.925" gradientUnits="userSpaceOnUse">
<stop stop-color="#38ACA8"/>
<stop offset="1" stop-color="#5F637A"/>
</linearGradient>
<linearGradient id="paint55_linear_2500_106655" x1="164.686" y1="156.863" x2="164.686" y2="141.79" gradientUnits="userSpaceOnUse">
<stop stop-color="#3A4151"/>
<stop offset="1" stop-color="#272735"/>
</linearGradient>
<linearGradient id="paint56_linear_2500_106655" x1="340.735" y1="121.185" x2="326.495" y2="150.594" gradientUnits="userSpaceOnUse">
<stop stop-color="#FFAC06"/>
<stop offset="1" stop-color="#F66C1E"/>
</linearGradient>
<linearGradient id="paint57_linear_2500_106655" x1="401.236" y1="115.541" x2="445.335" y2="115.541" gradientUnits="userSpaceOnUse">
<stop stop-color="#8CC440"/>
<stop offset="1" stop-color="#5B8222"/>
</linearGradient>
<linearGradient id="paint58_linear_2500_106655" x1="413.615" y1="339.486" x2="395.733" y2="214.852" gradientUnits="userSpaceOnUse">
<stop stop-color="#3A4151"/>
<stop offset="1" stop-color="#272735"/>
</linearGradient>
<linearGradient id="paint59_linear_2500_106655" x1="422.612" y1="308.044" x2="438.364" y2="375.235" gradientUnits="userSpaceOnUse">
<stop stop-color="#38ACA8"/>
<stop offset="1" stop-color="#5F637A"/>
</linearGradient>
<linearGradient id="paint60_linear_2500_106655" x1="402.647" y1="278.045" x2="432.283" y2="278.045" gradientUnits="userSpaceOnUse">
<stop stop-color="#38ACA8"/>
<stop offset="1" stop-color="#96D6C4"/>
</linearGradient>
<linearGradient id="paint61_linear_2500_106655" x1="388.071" y1="327.864" x2="368.463" y2="191.203" gradientUnits="userSpaceOnUse">
<stop stop-color="#3A4151"/>
<stop offset="1" stop-color="#272735"/>
</linearGradient>
<linearGradient id="paint62_linear_2500_106655" x1="398.259" y1="313.753" x2="414.011" y2="380.945" gradientUnits="userSpaceOnUse">
<stop stop-color="#38ACA8"/>
<stop offset="1" stop-color="#5F637A"/>
</linearGradient>
<linearGradient id="paint63_linear_2500_106655" x1="381.854" y1="306.984" x2="411.49" y2="306.984" gradientUnits="userSpaceOnUse">
<stop stop-color="#38ACA8"/>
<stop offset="1" stop-color="#96D6C4"/>
</linearGradient>
<linearGradient id="paint64_linear_2500_106655" x1="372.476" y1="383.939" x2="363.572" y2="321.883" gradientUnits="userSpaceOnUse">
<stop stop-color="#3A4151"/>
<stop offset="1" stop-color="#272735"/>
</linearGradient>
<linearGradient id="paint65_linear_2500_106655" x1="374.004" y1="319.439" x2="389.756" y2="386.63" gradientUnits="userSpaceOnUse">
<stop stop-color="#38ACA8"/>
<stop offset="1" stop-color="#5F637A"/>
</linearGradient>
<linearGradient id="paint66_linear_2500_106655" x1="360.64" y1="331.096" x2="390.276" y2="331.096" gradientUnits="userSpaceOnUse">
<stop stop-color="#38ACA8"/>
<stop offset="1" stop-color="#96D6C4"/>
</linearGradient>
<linearGradient id="paint67_linear_2500_106655" x1="351.08" y1="401.603" x2="346.644" y2="370.688" gradientUnits="userSpaceOnUse">
<stop stop-color="#3A4151"/>
<stop offset="1" stop-color="#272735"/>
</linearGradient>
<linearGradient id="paint68_linear_2500_106655" x1="349.292" y1="325.233" x2="365.045" y2="392.424" gradientUnits="userSpaceOnUse">
<stop stop-color="#38ACA8"/>
<stop offset="1" stop-color="#5F637A"/>
</linearGradient>
<linearGradient id="paint69_linear_2500_106655" x1="339.931" y1="363.243" x2="369.567" y2="363.243" gradientUnits="userSpaceOnUse">
<stop stop-color="#38ACA8"/>
<stop offset="1" stop-color="#96D6C4"/>
</linearGradient>
</defs>
</svg>
