<svg width="60" height="58" viewBox="0 0 60 58" fill="none" xmlns="http://www.w3.org/2000/svg">
<path d="M14.0213 11.1658L37.9405 4.63693L36.6738 2.07657C35.845 0.412339 33.8237 -0.274915 32.1595 0.553833L10.7468 11.1658H14.0213ZM45.3655 4.82559C45.0691 4.82559 44.7726 4.86602 44.4761 4.94687L38.8569 6.48309L21.6957 11.1658H49.6642L48.6131 7.31183C48.2089 5.80931 46.8478 4.82559 45.3655 4.82559ZM53.1746 13.5241H3.37563C2.31106 13.5241 1.36103 14.0159 0.741157 14.7908C0.45817 15.1479 0.24256 15.5589 0.12128 16.0103C0.0471645 16.2933 0 16.5898 0 16.893V54.4292C0 56.2889 1.50926 57.7981 3.36889 57.7981H53.1679C55.0276 57.7981 56.5368 56.2889 56.5368 54.4292V45.03H36.5458C33.3857 45.03 30.8186 42.4629 30.8186 39.3029V31.8104C30.8186 30.2607 31.4385 28.8526 32.4424 27.8217C33.3318 26.9053 34.5244 26.2854 35.8585 26.1305C36.0809 26.1036 36.3099 26.09 36.539 26.09H56.5368V16.893C56.5435 15.0333 55.0343 13.5241 53.1746 13.5241Z" fill="#19517E"/>
<path d="M58.9016 29.3103C58.5647 29.0004 58.1672 28.7646 57.7225 28.6096C57.3788 28.4951 57.0151 28.4277 56.631 28.4277H36.5457C34.686 28.4277 33.1768 29.9369 33.1768 31.7966V39.2957C33.1768 41.1553 34.686 42.6646 36.5457 42.6646H56.631C57.0151 42.6646 57.3789 42.5972 57.7225 42.4827C58.1672 42.3345 58.5647 42.0919 58.9016 41.782C59.5754 41.1688 59.9999 40.2794 59.9999 39.2958V31.7966C59.9999 30.8128 59.5754 29.9234 58.9016 29.3103ZM43.5799 36.2165C43.5799 37.1464 42.8253 37.901 41.8955 37.901H40.777C39.8472 37.901 39.0925 37.1464 39.0925 36.2165V35.0981C39.0925 34.5591 39.3418 34.0806 39.7394 33.7774C40.0291 33.5551 40.3863 33.4136 40.777 33.4136H41.8955C42.8253 33.4136 43.5799 34.1682 43.5799 35.0981V36.2165Z" fill="#19517E"/>
</svg>
