<svg width="50" height="58" viewBox="0 0 50 58" fill="none" xmlns="http://www.w3.org/2000/svg">
<path d="M39.9996 27.1816C34.4723 27.1816 29.9996 31.6543 29.9996 37.1816C29.9996 42.7088 34.4723 47.1816 39.9996 47.1816C45.5177 47.1816 49.9996 42.7088 49.9996 37.1816C49.9996 31.6543 45.5177 27.1816 39.9996 27.1816ZM39.9996 36.2725C41.9086 36.2725 43.4541 37.8179 43.4541 39.727C43.4541 41.3179 42.3723 42.6452 40.9086 43.0452V43.5452C40.9086 44.0452 40.4996 44.4543 39.9996 44.4543C39.4996 44.4543 39.0905 44.0452 39.0905 43.5452V43.0452C37.6268 42.6452 36.545 41.3179 36.545 39.727C36.545 39.227 36.9541 38.8179 37.4541 38.8179C37.9541 38.8179 38.3632 39.227 38.3632 39.727C38.3632 40.627 39.0996 41.3634 39.9996 41.3634C40.8996 41.3634 41.6359 40.627 41.6359 39.727C41.6359 38.827 40.8996 38.0906 39.9996 38.0906C38.0905 38.0906 36.545 36.5452 36.545 34.6361C36.545 33.0452 37.6268 31.7179 39.0905 31.3179V30.8179C39.0905 30.3179 39.4996 29.9088 39.9996 29.9088C40.4996 29.9088 40.9086 30.3179 40.9086 30.8179V31.3179C42.3723 31.7179 43.4541 33.0452 43.4541 34.6361C43.4541 35.1361 43.045 35.5452 42.545 35.5452C42.045 35.5452 41.6359 35.1361 41.6359 34.6361C41.6359 33.7361 40.8996 32.9997 39.9996 32.9997C39.0996 32.9997 38.3632 33.7361 38.3632 34.6361C38.3632 35.5361 39.0996 36.2725 39.9996 36.2725ZM38.1814 48.8452V49.9088C38.1814 51.9179 36.5541 53.5452 34.545 53.5452H5.4541V55.3634C5.4541 56.3634 6.27228 57.1816 7.27228 57.1816H39.9996C40.9996 57.1816 41.8177 56.3634 41.8177 55.3634V48.8452C41.2268 48.9361 40.6177 48.9997 39.9996 48.9997C39.3814 48.9997 38.7723 48.9361 38.1814 48.8452ZM41.8177 25.5179V8.09064C41.8177 7.09064 40.9996 6.27246 39.9996 6.27246H38.1814V25.5179C38.7723 25.427 39.3814 25.3634 39.9996 25.3634C40.6177 25.3634 41.2268 25.427 41.8177 25.5179ZM6.62683 12.3725C6.80865 12.5543 7.03592 12.6361 7.27228 12.6361C7.50865 12.6361 7.73592 12.5452 7.91774 12.3725L10.645 9.64519C10.7292 9.56102 10.7959 9.4611 10.8415 9.35114C10.887 9.24117 10.9105 9.12331 10.9105 9.00428C10.9105 8.88525 10.887 8.76739 10.8415 8.65742C10.7959 8.54745 10.7292 8.44754 10.645 8.36337C10.5608 8.2792 10.4609 8.21244 10.351 8.16689C10.241 8.12134 10.1231 8.0979 10.0041 8.0979C9.88507 8.0979 9.76721 8.12134 9.65724 8.16689C9.54728 8.21244 9.44736 8.2792 9.36319 8.36337L7.28137 10.4452L7.01774 10.1816C6.93357 10.0974 6.83365 10.0306 6.72369 9.98507C6.61372 9.93952 6.49586 9.91608 6.37683 9.91608C6.2578 9.91608 6.13994 9.93952 6.02997 9.98507C5.92 10.0306 5.82009 10.0974 5.73592 10.1816C5.65175 10.2657 5.58499 10.3656 5.53944 10.4756C5.49389 10.5856 5.47045 10.7034 5.47045 10.8225C5.47045 10.9415 5.49389 11.0594 5.53944 11.1693C5.58499 11.2793 5.65175 11.3792 5.73592 11.4634L6.62683 12.3725ZM6.62683 26.0088C6.80865 26.1906 7.03592 26.2725 7.27228 26.2725C7.50865 26.2725 7.73592 26.1816 7.91774 26.0088L10.645 23.2816C10.7292 23.1974 10.7959 23.0975 10.8415 22.9875C10.887 22.8775 10.9105 22.7597 10.9105 22.6406C10.9105 22.5216 10.887 22.4038 10.8415 22.2938C10.7959 22.1838 10.7292 22.0839 10.645 21.9997C10.5608 21.9156 10.4609 21.8488 10.351 21.8033C10.241 21.7577 10.1231 21.7343 10.0041 21.7343C9.88507 21.7343 9.76721 21.7577 9.65724 21.8033C9.54728 21.8488 9.44736 21.9156 9.36319 21.9997L7.28137 24.0816L7.01774 23.8179C6.93357 23.7337 6.83365 23.667 6.72369 23.6214C6.61372 23.5759 6.49586 23.5524 6.37683 23.5524C6.2578 23.5524 6.13994 23.5759 6.02997 23.6214C5.92 23.667 5.82009 23.7337 5.73592 23.8179C5.65175 23.9021 5.58499 24.002 5.53944 24.112C5.49389 24.2219 5.47045 24.3398 5.47045 24.4588C5.47045 24.5779 5.49389 24.6957 5.53944 24.8057C5.58499 24.9156 5.65175 25.0156 5.73592 25.0997L6.62683 26.0088ZM6.62683 39.6452C6.80865 39.827 7.03592 39.9088 7.27228 39.9088C7.50865 39.9088 7.73592 39.8179 7.91774 39.6452L10.645 36.9179C10.7292 36.8337 10.7959 36.7338 10.8415 36.6239C10.887 36.5139 10.9105 36.396 10.9105 36.277C10.9105 36.158 10.887 36.0401 10.8415 35.9301C10.7959 35.8202 10.7292 35.7203 10.645 35.6361C10.5608 35.5519 10.4609 35.4852 10.351 35.4396C10.241 35.3941 10.1231 35.3706 10.0041 35.3706C9.88507 35.3706 9.76721 35.3941 9.65724 35.4396C9.54728 35.4852 9.44736 35.5519 9.36319 35.6361L7.28137 37.7179L7.01774 37.4543C6.93357 37.3701 6.83365 37.3034 6.72369 37.2578C6.61372 37.2123 6.49586 37.1888 6.37683 37.1888C6.2578 37.1888 6.13994 37.2123 6.02997 37.2578C5.92 37.3034 5.82009 37.3701 5.73592 37.4543C5.65175 37.5384 5.58499 37.6384 5.53944 37.7483C5.49389 37.8583 5.47045 37.9762 5.47045 38.0952C5.47045 38.2142 5.49389 38.3321 5.53944 38.442C5.58499 38.552 5.65175 38.6519 5.73592 38.7361L6.62683 39.6452Z" fill="#19517E"/>
<path d="M36.3636 49.9093V48.4184C31.6182 46.882 28.1818 42.4275 28.1818 37.182C28.1818 31.9365 31.6182 27.482 36.3636 25.9456V2.63654C36.3636 1.63654 35.5455 0.818359 34.5455 0.818359H1.81818C0.818182 0.818359 0 1.63654 0 2.63654V49.9093C0 50.9093 0.818182 51.7275 1.81818 51.7275H34.5455C35.5455 51.7275 36.3636 50.9093 36.3636 49.9093ZM16.3636 9.90927H32.7273C33.2273 9.90927 33.6364 10.3184 33.6364 10.8184C33.6364 11.3184 33.2273 11.7275 32.7273 11.7275H16.3636C15.8636 11.7275 15.4545 11.3184 15.4545 10.8184C15.4545 10.3184 15.8636 9.90927 16.3636 9.90927ZM16.3636 13.5456H27.2727C27.7727 13.5456 28.1818 13.9547 28.1818 14.4547C28.1818 14.9547 27.7727 15.3638 27.2727 15.3638H16.3636C15.8636 15.3638 15.4545 14.9547 15.4545 14.4547C15.4545 13.9547 15.8636 13.5456 16.3636 13.5456ZM16.3636 23.5456H32.7273C33.2273 23.5456 33.6364 23.9547 33.6364 24.4547C33.6364 24.9547 33.2273 25.3638 32.7273 25.3638H16.3636C15.8636 25.3638 15.4545 24.9547 15.4545 24.4547C15.4545 23.9547 15.8636 23.5456 16.3636 23.5456ZM12.7273 42.6365H3.63636V33.5456H12.7273V42.6365ZM12.7273 29.0002H3.63636V19.9093H12.7273V29.0002ZM12.7273 15.3638H3.63636V6.2729H12.7273V15.3638ZM22.7273 42.6365H16.3636C15.8636 42.6365 15.4545 42.2275 15.4545 41.7275C15.4545 41.2275 15.8636 40.8184 16.3636 40.8184H22.7273C23.2273 40.8184 23.6364 41.2275 23.6364 41.7275C23.6364 42.2275 23.2273 42.6365 22.7273 42.6365ZM25.4545 39.0002H16.3636C15.8636 39.0002 15.4545 38.5911 15.4545 38.0911C15.4545 37.5911 15.8636 37.182 16.3636 37.182H25.4545C25.9545 37.182 26.3636 37.5911 26.3636 38.0911C26.3636 38.5911 25.9545 39.0002 25.4545 39.0002ZM27.2727 29.0002H16.3636C15.8636 29.0002 15.4545 28.5911 15.4545 28.0911C15.4545 27.5911 15.8636 27.182 16.3636 27.182H27.2727C27.7727 27.182 28.1818 27.5911 28.1818 28.0911C28.1818 28.5911 27.7727 29.0002 27.2727 29.0002Z" fill="#19517E"/>
</svg>
