<svg width="56" height="44" viewBox="0 0 56 44" fill="none" xmlns="http://www.w3.org/2000/svg">
<path d="M54.25 4.25H52.375V36.125C52.375 36.8709 52.0787 37.5863 51.5512 38.1137C51.0238 38.6412 50.3084 38.9375 49.5625 38.9375H38.05C35.5762 38.9394 33.1368 39.5172 30.925 40.625L29.2563 41.45C28.8675 41.6491 28.4367 41.752 28 41.75C27.3332 41.7104 26.6877 41.5006 26.125 41.1406C25.8719 41 25.5719 40.8406 25.1875 40.6625H25.0938C22.8819 39.5547 20.4425 38.9769 17.9688 38.975H6.4375C5.69158 38.975 4.97621 38.6787 4.44876 38.1512C3.92132 37.6238 3.625 36.9084 3.625 36.1625V4.25H1.75C1.50136 4.25 1.2629 4.34877 1.08709 4.52459C0.911272 4.7004 0.8125 4.93886 0.8125 5.1875V42.6875C0.8125 42.9361 0.911272 43.1746 1.08709 43.3504C1.2629 43.5262 1.50136 43.625 1.75 43.625H54.25C54.4986 43.625 54.7371 43.5262 54.9129 43.3504C55.0887 43.1746 55.1875 42.9361 55.1875 42.6875V5.1875C55.1875 4.93886 55.0887 4.7004 54.9129 4.52459C54.7371 4.34877 54.4986 4.25 54.25 4.25Z" fill="#19517E"/>
<path d="M26.7531 2.58125C24.2241 1.31345 21.4522 0.603688 18.625 0.5V22.0625C18.6241 22.2313 18.5777 22.3968 18.4906 22.5414C18.4035 22.686 18.2789 22.8044 18.1301 22.8841C17.9812 22.9638 17.8136 23.0019 17.645 22.9942C17.4763 22.9865 17.3129 22.9335 17.1719 22.8406L14.875 21.3125L12.5781 22.8406C12.4371 22.9335 12.2737 22.9865 12.105 22.9942C11.9364 23.0019 11.7688 22.9638 11.6199 22.8841C11.4711 22.8044 11.3465 22.686 11.2594 22.5414C11.1723 22.3968 11.1259 22.2313 11.125 22.0625V0.5H6.4375C6.18886 0.5 5.9504 0.598772 5.77459 0.774588C5.59877 0.950403 5.5 1.18886 5.5 1.4375V36.125C5.5 36.3736 5.59877 36.6121 5.77459 36.7879C5.9504 36.9637 6.18886 37.0625 6.4375 37.0625H17.95C20.7158 37.0604 23.4441 37.7023 25.9188 38.9375C26.4062 39.1437 26.7625 39.3406 27.0625 39.5V2.73125L26.7531 2.58125ZM49.5625 0.5H38.05C34.9943 0.505178 31.9813 1.21752 29.2469 2.58125L28.9375 2.73125V39.5187L30.0813 38.9375C32.5559 37.7023 35.2842 37.0604 38.05 37.0625H49.5625C49.8111 37.0625 50.0496 36.9637 50.2254 36.7879C50.4012 36.6121 50.5 36.3736 50.5 36.125V1.4375C50.5 1.18886 50.4012 0.950403 50.2254 0.774588C50.0496 0.598772 49.8111 0.5 49.5625 0.5ZM33.625 17.375H41.2469V19.25H33.625V17.375ZM33.625 24.875H41.2469V26.75H33.625V24.875ZM44.875 30.5H33.625V28.625H44.875V30.5ZM44.875 23H33.625V21.125H44.875V23ZM44.875 15.5H33.625V13.625H44.875V15.5Z" fill="#19517E"/>
</svg>
