<svg width="51" height="61" viewBox="0 0 51 61" fill="none" xmlns="http://www.w3.org/2000/svg">
<path d="M42.2143 34.1928C40.5363 25.748 48.5518 20.7953 48.5518 20.7953C48.5518 20.7953 45.4289 16.2771 40.1804 15.1148C34.9345 13.9499 32.3089 15.4053 29.6885 16.4969C27.0655 17.5912 25.7567 17.5912 25.7567 17.5912C21.9715 17.5912 19.2045 13.5834 11.9928 15.408C7.02436 16.6618 1.79407 22.3973 0.849082 29.2427C-0.0959107 36.0906 1.94334 44.8286 5.87512 51.6007C9.80691 58.378 13.8121 60.925 16.6549 60.9983C19.4977 61.0689 22.3354 58.9617 25.7567 58.4486C29.1808 57.9408 31.288 59.6895 34.6465 60.6345C37.9919 61.5769 39.1647 60.7026 43.0179 57.4251C46.8816 54.1477 50.379 44.7475 50.379 44.7475C50.379 44.7475 43.8923 42.6427 42.2143 34.1928ZM34.7852 9.65149C38.5023 5.86376 37.2432 0 37.2432 0C37.2432 0 32.0235 0.916231 28.5262 4.55482C25.0315 8.19608 25.61 13.9472 25.61 13.9472C25.61 13.9472 31.068 13.4368 34.7852 9.65149Z" fill="black"/>
</svg>
