<svg width="68" height="40" viewBox="0 0 68 40" fill="none" xmlns="http://www.w3.org/2000/svg">
<path d="M19.4525 38.9772H16.1601C16.065 38.9772 15.9878 38.8992 15.9878 38.8027V24.5574C15.9878 24.4611 16.065 24.3829 16.1601 24.3829H19.4525C19.5476 24.3829 19.6248 24.4611 19.6248 24.5574V38.8029C19.6248 38.8992 19.5476 38.9772 19.4525 38.9772ZM48.9459 28.2771C48.9459 28.406 48.8131 28.491 48.6989 28.4341C48.2465 28.2087 47.2378 27.7844 45.8862 27.7844C43.5362 27.7844 41.9051 29.4428 41.9051 31.6782C41.9051 33.8471 43.4653 35.5737 45.8862 35.5737C47.2233 35.5737 48.2424 35.1533 48.6997 34.9287C48.8136 34.8727 48.9459 34.9578 48.9459 35.0861V38.585C48.9459 38.6629 48.8952 38.7312 48.8212 38.7526C48.2877 38.9066 47.1187 39.2367 45.6329 39.2367C41.5419 39.2367 37.952 36.3807 37.952 31.6782C37.952 27.3192 41.2004 24.1234 45.6329 24.1234C47.1766 24.1234 48.359 24.4679 48.8241 24.6097C48.8969 24.6319 48.9459 24.6996 48.9459 24.7765V28.2771ZM10.9892 28.2763C10.9892 28.4053 10.8562 28.4903 10.7419 28.4332C10.2904 28.2075 9.28413 27.7844 7.93435 27.7844C5.57892 27.7844 3.94891 29.4428 3.94891 31.6782C3.94891 33.8471 5.51119 35.5737 7.93435 35.5737C9.26898 35.5737 10.2865 35.1547 10.7428 34.9298C10.8569 34.8736 10.9892 34.9587 10.9892 35.0872V38.5854C10.9892 38.6631 10.9386 38.7315 10.8649 38.7528C10.3353 38.907 9.16672 39.2367 7.67338 39.2367C3.58567 39.2367 0 36.3807 0 31.6784C0 27.3193 3.24806 24.1236 7.67338 24.1236C8.75598 24.1251 9.8324 24.289 10.8676 24.6097C10.9403 24.632 10.9893 24.6996 10.9893 24.7765L10.9892 28.2763ZM68 31.6784C68 35.8533 64.8174 39.2368 60.3859 39.2368C55.9539 39.2368 52.7753 35.8533 52.7753 31.6784C52.7753 27.5095 55.9539 24.1236 60.3859 24.1236C64.8173 24.1234 68 27.5094 68 31.6784ZM60.3859 27.8397C58.2286 27.8397 56.6263 29.5588 56.6263 31.6784C56.6263 33.8024 58.2286 35.52 60.3859 35.52C62.5406 35.52 64.1474 33.8024 64.1474 31.6784C64.1472 29.5588 62.5406 27.8397 60.3859 27.8397ZM33.4156 27.4732C33.4156 27.587 33.3106 27.6702 33.2017 27.6424C32.7294 27.5215 31.5654 27.2545 30.5724 27.2545C29.1149 27.2545 28.3236 27.7488 28.3236 28.4511C28.3236 29.3399 29.3918 29.6486 29.9908 29.8404L30.9934 30.1642C33.354 30.9242 34.4289 32.5613 34.4289 34.3391C34.4289 38.0051 31.246 39.2368 28.463 39.2368C26.7689 39.2368 25.1696 38.9607 24.6778 38.8662C24.6384 38.8586 24.603 38.8374 24.5775 38.8061C24.5519 38.7748 24.538 38.7356 24.538 38.695V35.7064C24.538 35.592 24.6448 35.5083 24.754 35.5378C25.3085 35.6876 26.617 36.0231 27.9723 36.0231C29.7811 36.0231 30.6133 35.486 30.6133 34.6598C30.6133 33.92 29.8934 33.4928 28.9919 33.2058C28.771 33.1315 28.4405 33.0266 28.2151 32.9523C26.1893 32.3033 24.5015 31.0982 24.5015 28.6826C24.5015 25.9527 26.5187 24.1191 29.871 24.1191C31.3966 24.1191 32.8444 24.4422 33.2852 24.5509C33.3624 24.5699 33.4158 24.6397 33.4158 24.7201L33.4156 27.4732Z" fill="#E85454"/>
<path d="M19.1578 38.8025V24.557C19.1578 24.4607 19.235 24.3825 19.3301 24.3825H16.1602C16.0651 24.3825 15.9881 24.4607 15.9881 24.557V38.8025C15.9881 38.8988 16.0653 38.977 16.1602 38.977H19.3301C19.2844 38.977 19.2406 38.9586 19.2083 38.9259C19.176 38.8931 19.1578 38.8488 19.1578 38.8025ZM48.6989 28.4337C48.8131 28.4906 48.9459 28.4056 48.9459 28.2767V27.7865C48.4657 27.7972 48.0162 27.8771 47.6065 28.0181C47.9827 28.1215 48.3485 28.2607 48.6989 28.4337ZM41.1218 31.678C41.1218 27.8321 43.6512 24.8933 47.2906 24.2542C46.7422 24.1674 46.188 24.1236 45.6329 24.1231C41.2004 24.1231 37.952 27.3188 37.952 31.6779C37.952 36.3804 41.542 39.2363 45.6329 39.2363C46.1876 39.2354 46.7413 39.1907 47.2891 39.1026C43.8656 38.4884 41.1218 35.7889 41.1218 31.678ZM48.9459 35.0857C48.9459 34.9574 48.8138 34.8722 48.6997 34.9283C48.3474 35.0997 47.9802 35.2376 47.6028 35.3403C48.0107 35.4805 48.4606 35.5601 48.9459 35.5709V35.0857ZM3.16984 31.678C3.16984 27.8318 5.69925 24.8929 9.33406 24.2541C8.78459 24.1674 8.22935 24.1236 7.67324 24.1231C3.24806 24.1231 0 27.3188 0 31.678C0 36.3805 3.58567 39.2364 7.67338 39.2364C8.28963 39.2364 8.84943 39.1799 9.333 39.1031C5.91149 38.4896 3.16984 35.7899 3.16984 31.678ZM55.9452 31.678C55.9452 28.0253 58.3855 24.974 61.9709 24.2742C61.4485 24.173 60.9177 24.1223 60.3859 24.1231C55.9539 24.1231 52.7752 27.509 52.7752 31.6779C52.7752 35.8528 55.9538 39.2363 60.3859 39.2363C60.9347 39.2363 61.464 39.1841 61.9709 39.0852C58.3855 38.3859 55.9452 35.3359 55.9452 31.678ZM33.2017 27.642C33.2271 27.6485 33.2536 27.649 33.2792 27.6436C33.3048 27.6381 33.3289 27.6267 33.3495 27.6104C33.3702 27.5941 33.3869 27.5732 33.3983 27.5494C33.4098 27.5255 33.4157 27.4993 33.4156 27.4728V27.2639C33.0031 27.2867 32.653 27.3531 32.3697 27.4556C32.7193 27.5235 33.0149 27.5941 33.2017 27.642Z" fill="#D84848"/>
<path d="M2.96052 11.5575C2.96052 10.7322 2.2962 10.0632 1.48046 10.0632C0.665789 10.0631 0 10.7322 0 11.5575V14.6982C0 15.5279 0.665789 16.1968 1.48046 16.1968C2.29606 16.1968 2.96052 15.5279 2.96052 14.6982V11.5575ZM11.0917 7.43396C11.0917 6.60927 10.427 5.939 9.61164 5.939C8.79604 5.939 8.13118 6.60927 8.13118 7.43396V14.6981C8.13118 15.5277 8.79617 16.1967 9.61164 16.1967C10.427 16.1967 11.0917 15.5277 11.0917 14.6981V7.43396ZM19.223 1.79257C19.223 0.968019 18.5578 0.298828 17.7424 0.298828C16.9272 0.298828 16.262 0.968019 16.262 1.79257V17.6837C16.262 18.5127 16.9272 19.1823 17.7424 19.1823C18.5578 19.1823 19.223 18.5128 19.223 17.6837V1.79257Z" fill="#777777"/>
<path d="M1.66481 14.6982V11.5575C1.66481 11.0442 1.92246 10.5919 2.31306 10.3227C2.06768 10.1533 1.77755 10.0628 1.48059 10.0631C0.665789 10.0631 0 10.7322 0 11.5575V14.6982C0 15.5279 0.665789 16.1968 1.48059 16.1968C1.78912 16.1968 2.07573 16.1009 2.31306 15.9371C1.92246 15.6676 1.66481 15.2141 1.66481 14.6982ZM9.79585 14.6982V7.43409C9.79585 6.9212 10.0532 6.4683 10.4438 6.19901C10.1986 6.0295 9.90855 5.93893 9.61164 5.93914C8.79604 5.93914 8.13105 6.60941 8.13105 7.43409V14.6982C8.13105 15.5279 8.79604 16.1968 9.61164 16.1968C9.90855 16.1972 10.1986 16.1066 10.4438 15.9371C10.2441 15.7999 10.0806 15.6152 9.96768 15.3993C9.85472 15.1833 9.79572 14.9426 9.79585 14.6982ZM17.9266 17.6837V1.79257C17.9266 1.27982 18.1842 0.827322 18.5749 0.5583C18.3295 0.388989 18.0394 0.298562 17.7424 0.298829C16.9272 0.298829 16.2618 0.96802 16.2618 1.79257V17.6837C16.2618 18.5127 16.9271 19.1823 17.7424 19.1823C18.0507 19.1823 18.3373 19.0864 18.5749 18.9225C18.1842 18.653 17.9266 18.1993 17.9266 17.6837Z" fill="#646566"/>
<path d="M35.4801 11.5578C35.4801 10.7324 34.8157 10.0635 34 10.0635C33.1853 10.0635 32.5195 10.7324 32.5195 11.5578V14.6985C32.5195 15.5281 33.1853 16.197 34 16.197C34.8156 16.197 35.4801 15.5281 35.4801 14.6985V11.5578Z" fill="#777777"/>
<path d="M34.1843 14.6986V11.5579C34.1843 11.0446 34.442 10.5922 34.8326 10.3231C34.5872 10.1537 34.2971 10.0632 34.0001 10.0635C33.1855 10.0635 32.5195 10.7324 32.5195 11.5578V14.6985C32.5195 15.5281 33.1853 16.197 34.0001 16.197C34.3086 16.197 34.5953 16.1011 34.8326 15.9373C34.442 15.668 34.1843 15.2144 34.1843 14.6986Z" fill="#646566"/>
<path d="M27.3521 7.43441C27.3521 6.60972 26.6874 5.93945 25.8721 5.93945C25.0565 5.93945 24.3916 6.60972 24.3916 7.43441V14.6985C24.3916 15.5282 25.0566 16.1971 25.8721 16.1971C26.6874 16.1971 27.3521 15.5282 27.3521 14.6985V7.43441Z" fill="#777777"/>
<path d="M26.0564 14.6985V7.43441C26.0564 6.92152 26.3138 6.46862 26.7044 6.19933C26.4592 6.02982 26.1691 5.93924 25.8722 5.93945C25.0566 5.93945 24.3916 6.60972 24.3916 7.43441V14.6985C24.3916 15.5282 25.0566 16.1971 25.8722 16.1971C26.1691 16.1975 26.4592 16.1069 26.7044 15.9374C26.5047 15.8002 26.3412 15.6156 26.2282 15.3996C26.1153 15.1836 26.0563 14.9429 26.0564 14.6985Z" fill="#646566"/>
<path d="M43.609 7.43396C43.609 6.60927 42.9442 5.939 42.1289 5.939C41.3133 5.939 40.6484 6.60927 40.6484 7.43396V14.6981C40.6484 15.5277 41.3134 16.1967 42.1289 16.1967C42.9442 16.1967 43.609 15.5277 43.609 14.6981V7.43396ZM51.7403 1.79257C51.7403 0.968019 51.075 0.298828 50.2597 0.298828C49.4445 0.298828 48.7792 0.968019 48.7792 1.79257V17.6837C48.7792 18.5127 49.4445 19.1823 50.2597 19.1823C51.075 19.1823 51.7403 18.5128 51.7403 17.6837V1.79257Z" fill="#777777"/>
<path d="M42.3132 14.6982V7.43409C42.3132 6.9212 42.5706 6.4683 42.9612 6.19901C42.716 6.0295 42.4259 5.93893 42.129 5.93914C41.3134 5.93914 40.6484 6.60941 40.6484 7.43409V14.6982C40.6484 15.5279 41.3134 16.1968 42.129 16.1968C42.4259 16.1972 42.716 16.1066 42.9612 15.9371C42.7615 15.7999 42.598 15.6152 42.4851 15.3993C42.3721 15.1833 42.3131 14.9426 42.3132 14.6982ZM50.444 17.6837V1.79257C50.444 1.27982 50.7016 0.827322 51.0923 0.5583C50.8469 0.388989 50.5568 0.298562 50.2598 0.298829C49.4446 0.298829 48.7792 0.96802 48.7792 1.79257V17.6837C48.7792 18.5127 49.4445 19.1823 50.2598 19.1823C50.5681 19.1823 50.8547 19.0864 51.0923 18.9225C50.7016 18.653 50.444 18.1993 50.444 17.6837Z" fill="#646566"/>
<path d="M67.9976 11.5578C67.9976 10.7324 67.3333 10.0635 66.5176 10.0635C65.7029 10.0635 65.0371 10.7324 65.0371 11.5578V14.6985C65.0371 15.5281 65.7029 16.197 66.5176 16.197C67.3332 16.197 67.9976 15.5281 67.9976 14.6985V11.5578Z" fill="#777777"/>
<path d="M66.7019 14.6986V11.5579C66.7019 11.0446 66.9596 10.5922 67.3502 10.3231C67.1048 10.1537 66.8147 10.0632 66.5177 10.0635C65.703 10.0635 65.0371 10.7324 65.0371 11.5578V14.6985C65.0371 15.5281 65.7029 16.197 66.5177 16.197C66.8262 16.197 67.1128 16.1011 67.3502 15.9373C66.9596 15.668 66.7019 15.2144 66.7019 14.6986Z" fill="#646566"/>
<path d="M59.8687 7.43441C59.8687 6.60972 59.204 5.93945 58.3887 5.93945C57.5731 5.93945 56.9082 6.60972 56.9082 7.43441V14.6985C56.9082 15.5282 57.5732 16.1971 58.3887 16.1971C59.204 16.1971 59.8687 15.5282 59.8687 14.6985V7.43441Z" fill="#777777"/>
<path d="M58.573 14.6985V7.43441C58.573 6.92152 58.8304 6.46862 59.221 6.19933C58.9758 6.02982 58.6857 5.93924 58.3888 5.93945C57.5732 5.93945 56.9082 6.60972 56.9082 7.43441V14.6985C56.9082 15.5282 57.5732 16.1971 58.3888 16.1971C58.6857 16.1975 58.9758 16.1069 59.221 15.9374C59.0213 15.8002 58.8578 15.6156 58.7448 15.3996C58.6319 15.1836 58.5729 14.9429 58.573 14.6985Z" fill="#646566"/>
<path d="M29.6253 33.4502C25.7163 29.7056 28.3816 26.1893 28.3816 26.1893L28.3818 26.1894C29.0448 25.196 30.1511 24.5077 31.6167 24.242C31.0875 24.172 30.486 24.1191 29.8705 24.1191C26.5181 24.1191 24.501 25.9527 24.501 28.6826C24.501 31.0982 26.1888 32.3035 28.2145 32.9523C28.4399 33.0266 28.7705 33.1315 28.9914 33.2058C29.2169 33.2777 29.431 33.3583 29.6253 33.4502ZM27.7076 36.0189C26.4492 35.98 25.272 35.6779 24.7537 35.5379C24.7282 35.5311 24.7016 35.5303 24.6757 35.5356C24.6499 35.5408 24.6256 35.5521 24.6047 35.5684C24.5839 35.5847 24.567 35.6056 24.5554 35.6296C24.5437 35.6535 24.5377 35.6799 24.5378 35.7066V38.6951C24.5378 38.7788 24.5963 38.8509 24.6775 38.8664C25.1014 38.9478 26.3489 39.1638 27.7702 39.222C27.3833 37.6994 27.7076 36.0189 27.7076 36.0189Z" fill="#D84848"/>
</svg>
